M48
;DRILL file {KiCad 4.0.2-stable} date 6/6/2016 8:31:48 PM
;FORMAT={-:-/ absolute / inch / decimal}
FMAT,2
INCH,TZ
T1C0.013
T2C0.031
T3C0.040
%
G90
G05
M72
T1
X2.2Y-3.65
X2.7Y-2.85
T2
X2.1Y-2.1
X2.1Y-2.2
X2.1Y-2.3
X2.1Y-2.4
X2.1Y-2.5
X2.1Y-2.6
X2.1Y-2.7
X2.1Y-2.8
X2.1Y-2.95
X2.1Y-3.05
X2.1Y-3.15
X2.1Y-3.25
X2.1Y-3.35
X2.1Y-3.45
X2.1Y-3.55
X2.1Y-3.65
X2.1Y-3.75
X2.1Y-3.85
X4.Y-2.1
X4.Y-2.2
X4.Y-2.3
X4.Y-2.4
X4.Y-2.5
X4.Y-2.6
X4.Y-2.8
X4.Y-2.9
X4.Y-3.
X4.Y-3.1
X4.Y-3.2
X4.Y-3.3
X4.Y-3.4
X4.Y-3.5
T3
X2.3Y-2.5
X2.3Y-2.6
X2.3Y-2.7
X2.3Y-2.8
X2.3Y-3.5
X2.3Y-3.6
X2.3Y-3.7
X2.3Y-3.8
X2.6Y-2.5
X2.6Y-2.6
X2.6Y-2.7
X2.6Y-2.8
X2.6Y-3.5
X2.6Y-3.6
X2.6Y-3.7
X2.6Y-3.8
X3.Y-2.2
X3.1Y-2.2
X3.2Y-2.2
X3.3Y-2.2
T0
M30
