%TF.GenerationSoftware,KiCad,Pcbnew,4.0.2-stable*%
%TF.CreationDate,2016-06-06T20:31:45-04:00*%
%TF.ProjectId,Backpack,4261636B7061636B2E6B696361645F70,rev?*%
%TF.FileFunction,Copper,L2,Bot,Signal*%
%FSLAX46Y46*%
G04 Gerber Fmt 4.6, Leading zero omitted, Abs format (unit mm)*
G04 Created by KiCad (PCBNEW 4.0.2-stable) date 6/6/2016 8:31:45 PM*
%MOMM*%
G01*
G04 APERTURE LIST*
%ADD10C,0.127000*%
%ADD11O,2.000000X1.200000*%
%ADD12R,1.727200X2.032000*%
%ADD13O,1.727200X2.032000*%
%ADD14R,2.032000X1.727200*%
%ADD15O,2.032000X1.727200*%
%ADD16C,0.685800*%
%ADD17C,0.600000*%
%ADD18C,0.254000*%
G04 APERTURE END LIST*
D10*
D11*
X53340000Y-53340000D03*
X101600000Y-88900000D03*
X101600000Y-86360000D03*
X101600000Y-83820000D03*
X101600000Y-81280000D03*
X101600000Y-78740000D03*
X101600000Y-76200000D03*
X101600000Y-73660000D03*
X101600000Y-71120000D03*
X101600000Y-66040000D03*
X101600000Y-63500000D03*
X101600000Y-60960000D03*
X101600000Y-58420000D03*
X101600000Y-55880000D03*
X101600000Y-53340000D03*
X53340000Y-97790000D03*
X53340000Y-95250000D03*
X53340000Y-92710000D03*
X53340000Y-90170000D03*
X53340000Y-87630000D03*
X53340000Y-85090000D03*
X53340000Y-82550000D03*
X53340000Y-80010000D03*
X53340000Y-77470000D03*
X53340000Y-74930000D03*
X53340000Y-71120000D03*
X53340000Y-68580000D03*
X53340000Y-66040000D03*
X53340000Y-63500000D03*
X53340000Y-60960000D03*
X53340000Y-58420000D03*
X53340000Y-55880000D03*
D12*
X76200000Y-55880000D03*
D13*
X78740000Y-55880000D03*
X81280000Y-55880000D03*
X83820000Y-55880000D03*
D14*
X58420000Y-63500000D03*
D15*
X58420000Y-66040000D03*
X58420000Y-68580000D03*
X58420000Y-71120000D03*
D14*
X66040000Y-88900000D03*
D15*
X66040000Y-91440000D03*
X66040000Y-93980000D03*
X66040000Y-96520000D03*
D14*
X66040000Y-63500000D03*
D15*
X66040000Y-66040000D03*
X66040000Y-68580000D03*
X66040000Y-71120000D03*
D14*
X58420000Y-88900000D03*
D15*
X58420000Y-91440000D03*
X58420000Y-93980000D03*
X58420000Y-96520000D03*
D16*
X68580000Y-72390000D03*
X55880000Y-92710000D03*
D17*
X66040000Y-63500000D02*
X67945000Y-63500000D01*
X68580000Y-64135000D02*
X68580000Y-72390000D01*
X67945000Y-63500000D02*
X68580000Y-64135000D01*
X58420000Y-96520000D02*
X57150000Y-96520000D01*
X55880000Y-95250000D02*
X55880000Y-92710000D01*
X57150000Y-96520000D02*
X55880000Y-95250000D01*
D18*
G36*
X103695500Y-98615500D02*
X89344500Y-98615500D01*
X89344500Y-88900000D01*
X100191945Y-88900000D01*
X100266619Y-89275412D01*
X100479273Y-89593672D01*
X100797533Y-89806326D01*
X101172945Y-89881000D01*
X102027055Y-89881000D01*
X102402467Y-89806326D01*
X102720727Y-89593672D01*
X102933381Y-89275412D01*
X103008055Y-88900000D01*
X102933381Y-88524588D01*
X102720727Y-88206328D01*
X102402467Y-87993674D01*
X102027055Y-87919000D01*
X101172945Y-87919000D01*
X100797533Y-87993674D01*
X100479273Y-88206328D01*
X100266619Y-88524588D01*
X100191945Y-88900000D01*
X89344500Y-88900000D01*
X89344500Y-86360000D01*
X100191945Y-86360000D01*
X100266619Y-86735412D01*
X100479273Y-87053672D01*
X100797533Y-87266326D01*
X101172945Y-87341000D01*
X102027055Y-87341000D01*
X102402467Y-87266326D01*
X102720727Y-87053672D01*
X102933381Y-86735412D01*
X103008055Y-86360000D01*
X102933381Y-85984588D01*
X102720727Y-85666328D01*
X102402467Y-85453674D01*
X102027055Y-85379000D01*
X101172945Y-85379000D01*
X100797533Y-85453674D01*
X100479273Y-85666328D01*
X100266619Y-85984588D01*
X100191945Y-86360000D01*
X89344500Y-86360000D01*
X89344500Y-83820000D01*
X100191945Y-83820000D01*
X100266619Y-84195412D01*
X100479273Y-84513672D01*
X100797533Y-84726326D01*
X101172945Y-84801000D01*
X102027055Y-84801000D01*
X102402467Y-84726326D01*
X102720727Y-84513672D01*
X102933381Y-84195412D01*
X103008055Y-83820000D01*
X102933381Y-83444588D01*
X102720727Y-83126328D01*
X102402467Y-82913674D01*
X102027055Y-82839000D01*
X101172945Y-82839000D01*
X100797533Y-82913674D01*
X100479273Y-83126328D01*
X100266619Y-83444588D01*
X100191945Y-83820000D01*
X89344500Y-83820000D01*
X89344500Y-81280000D01*
X100191945Y-81280000D01*
X100266619Y-81655412D01*
X100479273Y-81973672D01*
X100797533Y-82186326D01*
X101172945Y-82261000D01*
X102027055Y-82261000D01*
X102402467Y-82186326D01*
X102720727Y-81973672D01*
X102933381Y-81655412D01*
X103008055Y-81280000D01*
X102933381Y-80904588D01*
X102720727Y-80586328D01*
X102402467Y-80373674D01*
X102027055Y-80299000D01*
X101172945Y-80299000D01*
X100797533Y-80373674D01*
X100479273Y-80586328D01*
X100266619Y-80904588D01*
X100191945Y-81280000D01*
X89344500Y-81280000D01*
X89344500Y-78740000D01*
X100191945Y-78740000D01*
X100266619Y-79115412D01*
X100479273Y-79433672D01*
X100797533Y-79646326D01*
X101172945Y-79721000D01*
X102027055Y-79721000D01*
X102402467Y-79646326D01*
X102720727Y-79433672D01*
X102933381Y-79115412D01*
X103008055Y-78740000D01*
X102933381Y-78364588D01*
X102720727Y-78046328D01*
X102402467Y-77833674D01*
X102027055Y-77759000D01*
X101172945Y-77759000D01*
X100797533Y-77833674D01*
X100479273Y-78046328D01*
X100266619Y-78364588D01*
X100191945Y-78740000D01*
X89344500Y-78740000D01*
X89344500Y-76200000D01*
X100191945Y-76200000D01*
X100266619Y-76575412D01*
X100479273Y-76893672D01*
X100797533Y-77106326D01*
X101172945Y-77181000D01*
X102027055Y-77181000D01*
X102402467Y-77106326D01*
X102720727Y-76893672D01*
X102933381Y-76575412D01*
X103008055Y-76200000D01*
X102933381Y-75824588D01*
X102720727Y-75506328D01*
X102402467Y-75293674D01*
X102027055Y-75219000D01*
X101172945Y-75219000D01*
X100797533Y-75293674D01*
X100479273Y-75506328D01*
X100266619Y-75824588D01*
X100191945Y-76200000D01*
X89344500Y-76200000D01*
X89344500Y-73660000D01*
X100191945Y-73660000D01*
X100266619Y-74035412D01*
X100479273Y-74353672D01*
X100797533Y-74566326D01*
X101172945Y-74641000D01*
X102027055Y-74641000D01*
X102402467Y-74566326D01*
X102720727Y-74353672D01*
X102933381Y-74035412D01*
X103008055Y-73660000D01*
X102933381Y-73284588D01*
X102720727Y-72966328D01*
X102402467Y-72753674D01*
X102027055Y-72679000D01*
X101172945Y-72679000D01*
X100797533Y-72753674D01*
X100479273Y-72966328D01*
X100266619Y-73284588D01*
X100191945Y-73660000D01*
X89344500Y-73660000D01*
X89344500Y-71120000D01*
X100191945Y-71120000D01*
X100266619Y-71495412D01*
X100479273Y-71813672D01*
X100797533Y-72026326D01*
X101172945Y-72101000D01*
X102027055Y-72101000D01*
X102402467Y-72026326D01*
X102720727Y-71813672D01*
X102933381Y-71495412D01*
X103008055Y-71120000D01*
X102933381Y-70744588D01*
X102720727Y-70426328D01*
X102402467Y-70213674D01*
X102027055Y-70139000D01*
X101172945Y-70139000D01*
X100797533Y-70213674D01*
X100479273Y-70426328D01*
X100266619Y-70744588D01*
X100191945Y-71120000D01*
X89344500Y-71120000D01*
X89344500Y-66040000D01*
X100191945Y-66040000D01*
X100266619Y-66415412D01*
X100479273Y-66733672D01*
X100797533Y-66946326D01*
X101172945Y-67021000D01*
X102027055Y-67021000D01*
X102402467Y-66946326D01*
X102720727Y-66733672D01*
X102933381Y-66415412D01*
X103008055Y-66040000D01*
X102933381Y-65664588D01*
X102720727Y-65346328D01*
X102402467Y-65133674D01*
X102027055Y-65059000D01*
X101172945Y-65059000D01*
X100797533Y-65133674D01*
X100479273Y-65346328D01*
X100266619Y-65664588D01*
X100191945Y-66040000D01*
X89344500Y-66040000D01*
X89344500Y-63500000D01*
X100191945Y-63500000D01*
X100266619Y-63875412D01*
X100479273Y-64193672D01*
X100797533Y-64406326D01*
X101172945Y-64481000D01*
X102027055Y-64481000D01*
X102402467Y-64406326D01*
X102720727Y-64193672D01*
X102933381Y-63875412D01*
X103008055Y-63500000D01*
X102933381Y-63124588D01*
X102720727Y-62806328D01*
X102402467Y-62593674D01*
X102027055Y-62519000D01*
X101172945Y-62519000D01*
X100797533Y-62593674D01*
X100479273Y-62806328D01*
X100266619Y-63124588D01*
X100191945Y-63500000D01*
X89344500Y-63500000D01*
X89344500Y-60960000D01*
X100191945Y-60960000D01*
X100266619Y-61335412D01*
X100479273Y-61653672D01*
X100797533Y-61866326D01*
X101172945Y-61941000D01*
X102027055Y-61941000D01*
X102402467Y-61866326D01*
X102720727Y-61653672D01*
X102933381Y-61335412D01*
X103008055Y-60960000D01*
X102933381Y-60584588D01*
X102720727Y-60266328D01*
X102402467Y-60053674D01*
X102027055Y-59979000D01*
X101172945Y-59979000D01*
X100797533Y-60053674D01*
X100479273Y-60266328D01*
X100266619Y-60584588D01*
X100191945Y-60960000D01*
X89344500Y-60960000D01*
X89310664Y-60789897D01*
X89214309Y-60645691D01*
X89070103Y-60549336D01*
X88900000Y-60515500D01*
X71120000Y-60515500D01*
X70949897Y-60549336D01*
X70805691Y-60645691D01*
X70709336Y-60789897D01*
X70675500Y-60960000D01*
X70675500Y-98615500D01*
X54263432Y-98615500D01*
X54460727Y-98483672D01*
X54673381Y-98165412D01*
X54748055Y-97790000D01*
X54673381Y-97414588D01*
X54460727Y-97096328D01*
X54142467Y-96883674D01*
X53767055Y-96809000D01*
X52912945Y-96809000D01*
X52537533Y-96883674D01*
X52219273Y-97096328D01*
X52006619Y-97414588D01*
X51931945Y-97790000D01*
X52006619Y-98165412D01*
X52219273Y-98483672D01*
X52416568Y-98615500D01*
X51244500Y-98615500D01*
X51244500Y-95250000D01*
X51931945Y-95250000D01*
X52006619Y-95625412D01*
X52219273Y-95943672D01*
X52537533Y-96156326D01*
X52912945Y-96231000D01*
X53767055Y-96231000D01*
X54142467Y-96156326D01*
X54460727Y-95943672D01*
X54673381Y-95625412D01*
X54748055Y-95250000D01*
X54673381Y-94874588D01*
X54460727Y-94556328D01*
X54142467Y-94343674D01*
X53767055Y-94269000D01*
X52912945Y-94269000D01*
X52537533Y-94343674D01*
X52219273Y-94556328D01*
X52006619Y-94874588D01*
X51931945Y-95250000D01*
X51244500Y-95250000D01*
X51244500Y-92710000D01*
X51931945Y-92710000D01*
X52006619Y-93085412D01*
X52219273Y-93403672D01*
X52537533Y-93616326D01*
X52912945Y-93691000D01*
X53767055Y-93691000D01*
X54142467Y-93616326D01*
X54460727Y-93403672D01*
X54673381Y-93085412D01*
X54719538Y-92853361D01*
X55155975Y-92853361D01*
X55199000Y-92957490D01*
X55199000Y-95250000D01*
X55250838Y-95510608D01*
X55398460Y-95731540D01*
X56668460Y-97001540D01*
X56889392Y-97149162D01*
X57150000Y-97201000D01*
X57227155Y-97201000D01*
X57360166Y-97400065D01*
X57763943Y-97669860D01*
X58240231Y-97764600D01*
X58599769Y-97764600D01*
X59076057Y-97669860D01*
X59479834Y-97400065D01*
X59749629Y-96996288D01*
X59844369Y-96520000D01*
X64615631Y-96520000D01*
X64710371Y-96996288D01*
X64980166Y-97400065D01*
X65383943Y-97669860D01*
X65860231Y-97764600D01*
X66219769Y-97764600D01*
X66696057Y-97669860D01*
X67099834Y-97400065D01*
X67369629Y-96996288D01*
X67464369Y-96520000D01*
X67369629Y-96043712D01*
X67099834Y-95639935D01*
X66696057Y-95370140D01*
X66219769Y-95275400D01*
X65860231Y-95275400D01*
X65383943Y-95370140D01*
X64980166Y-95639935D01*
X64710371Y-96043712D01*
X64615631Y-96520000D01*
X59844369Y-96520000D01*
X59749629Y-96043712D01*
X59479834Y-95639935D01*
X59076057Y-95370140D01*
X58599769Y-95275400D01*
X58240231Y-95275400D01*
X57763943Y-95370140D01*
X57360166Y-95639935D01*
X57309236Y-95716156D01*
X56561000Y-94967920D01*
X56561000Y-92957636D01*
X56603774Y-92854624D01*
X56604025Y-92566639D01*
X56494050Y-92300479D01*
X56290592Y-92096665D01*
X56024624Y-91986226D01*
X55736639Y-91985975D01*
X55470479Y-92095950D01*
X55266665Y-92299408D01*
X55156226Y-92565376D01*
X55155975Y-92853361D01*
X54719538Y-92853361D01*
X54748055Y-92710000D01*
X54673381Y-92334588D01*
X54460727Y-92016328D01*
X54142467Y-91803674D01*
X54119100Y-91799026D01*
X56812642Y-91799026D01*
X56815291Y-91814791D01*
X57069268Y-92342036D01*
X57505680Y-92731954D01*
X57778243Y-92827296D01*
X57763943Y-92830140D01*
X57360166Y-93099935D01*
X57090371Y-93503712D01*
X56995631Y-93980000D01*
X57090371Y-94456288D01*
X57360166Y-94860065D01*
X57763943Y-95129860D01*
X58240231Y-95224600D01*
X58599769Y-95224600D01*
X59076057Y-95129860D01*
X59479834Y-94860065D01*
X59749629Y-94456288D01*
X59844369Y-93980000D01*
X59749629Y-93503712D01*
X59479834Y-93099935D01*
X59076057Y-92830140D01*
X59061757Y-92827296D01*
X59334320Y-92731954D01*
X59770732Y-92342036D01*
X60024709Y-91814791D01*
X60027358Y-91799026D01*
X64432642Y-91799026D01*
X64435291Y-91814791D01*
X64689268Y-92342036D01*
X65125680Y-92731954D01*
X65398243Y-92827296D01*
X65383943Y-92830140D01*
X64980166Y-93099935D01*
X64710371Y-93503712D01*
X64615631Y-93980000D01*
X64710371Y-94456288D01*
X64980166Y-94860065D01*
X65383943Y-95129860D01*
X65860231Y-95224600D01*
X66219769Y-95224600D01*
X66696057Y-95129860D01*
X67099834Y-94860065D01*
X67369629Y-94456288D01*
X67464369Y-93980000D01*
X67369629Y-93503712D01*
X67099834Y-93099935D01*
X66696057Y-92830140D01*
X66681757Y-92827296D01*
X66954320Y-92731954D01*
X67390732Y-92342036D01*
X67644709Y-91814791D01*
X67647358Y-91799026D01*
X67526217Y-91567000D01*
X66167000Y-91567000D01*
X66167000Y-91587000D01*
X65913000Y-91587000D01*
X65913000Y-91567000D01*
X64553783Y-91567000D01*
X64432642Y-91799026D01*
X60027358Y-91799026D01*
X59906217Y-91567000D01*
X58547000Y-91567000D01*
X58547000Y-91587000D01*
X58293000Y-91587000D01*
X58293000Y-91567000D01*
X56933783Y-91567000D01*
X56812642Y-91799026D01*
X54119100Y-91799026D01*
X53767055Y-91729000D01*
X52912945Y-91729000D01*
X52537533Y-91803674D01*
X52219273Y-92016328D01*
X52006619Y-92334588D01*
X51931945Y-92710000D01*
X51244500Y-92710000D01*
X51244500Y-90170000D01*
X51931945Y-90170000D01*
X52006619Y-90545412D01*
X52219273Y-90863672D01*
X52537533Y-91076326D01*
X52912945Y-91151000D01*
X53767055Y-91151000D01*
X54119099Y-91080974D01*
X56812642Y-91080974D01*
X56933783Y-91313000D01*
X58293000Y-91313000D01*
X58293000Y-91293000D01*
X58547000Y-91293000D01*
X58547000Y-91313000D01*
X59906217Y-91313000D01*
X60027358Y-91080974D01*
X64432642Y-91080974D01*
X64553783Y-91313000D01*
X65913000Y-91313000D01*
X65913000Y-91293000D01*
X66167000Y-91293000D01*
X66167000Y-91313000D01*
X67526217Y-91313000D01*
X67647358Y-91080974D01*
X67644709Y-91065209D01*
X67390732Y-90537964D01*
X66958817Y-90152064D01*
X67056000Y-90152064D01*
X67197190Y-90125497D01*
X67326865Y-90042054D01*
X67413859Y-89914734D01*
X67444464Y-89763600D01*
X67444464Y-88036400D01*
X67417897Y-87895210D01*
X67334454Y-87765535D01*
X67207134Y-87678541D01*
X67056000Y-87647936D01*
X65024000Y-87647936D01*
X64882810Y-87674503D01*
X64753135Y-87757946D01*
X64666141Y-87885266D01*
X64635536Y-88036400D01*
X64635536Y-89763600D01*
X64662103Y-89904790D01*
X64745546Y-90034465D01*
X64872866Y-90121459D01*
X65024000Y-90152064D01*
X65121183Y-90152064D01*
X64689268Y-90537964D01*
X64435291Y-91065209D01*
X64432642Y-91080974D01*
X60027358Y-91080974D01*
X60024709Y-91065209D01*
X59770732Y-90537964D01*
X59338817Y-90152064D01*
X59436000Y-90152064D01*
X59577190Y-90125497D01*
X59706865Y-90042054D01*
X59793859Y-89914734D01*
X59824464Y-89763600D01*
X59824464Y-88036400D01*
X59797897Y-87895210D01*
X59714454Y-87765535D01*
X59587134Y-87678541D01*
X59436000Y-87647936D01*
X57404000Y-87647936D01*
X57262810Y-87674503D01*
X57133135Y-87757946D01*
X57046141Y-87885266D01*
X57015536Y-88036400D01*
X57015536Y-89763600D01*
X57042103Y-89904790D01*
X57125546Y-90034465D01*
X57252866Y-90121459D01*
X57404000Y-90152064D01*
X57501183Y-90152064D01*
X57069268Y-90537964D01*
X56815291Y-91065209D01*
X56812642Y-91080974D01*
X54119099Y-91080974D01*
X54142467Y-91076326D01*
X54460727Y-90863672D01*
X54673381Y-90545412D01*
X54748055Y-90170000D01*
X54673381Y-89794588D01*
X54460727Y-89476328D01*
X54142467Y-89263674D01*
X53767055Y-89189000D01*
X52912945Y-89189000D01*
X52537533Y-89263674D01*
X52219273Y-89476328D01*
X52006619Y-89794588D01*
X51931945Y-90170000D01*
X51244500Y-90170000D01*
X51244500Y-87630000D01*
X51931945Y-87630000D01*
X52006619Y-88005412D01*
X52219273Y-88323672D01*
X52537533Y-88536326D01*
X52912945Y-88611000D01*
X53767055Y-88611000D01*
X54142467Y-88536326D01*
X54460727Y-88323672D01*
X54673381Y-88005412D01*
X54748055Y-87630000D01*
X54673381Y-87254588D01*
X54460727Y-86936328D01*
X54142467Y-86723674D01*
X53767055Y-86649000D01*
X52912945Y-86649000D01*
X52537533Y-86723674D01*
X52219273Y-86936328D01*
X52006619Y-87254588D01*
X51931945Y-87630000D01*
X51244500Y-87630000D01*
X51244500Y-85090000D01*
X51931945Y-85090000D01*
X52006619Y-85465412D01*
X52219273Y-85783672D01*
X52537533Y-85996326D01*
X52912945Y-86071000D01*
X53767055Y-86071000D01*
X54142467Y-85996326D01*
X54460727Y-85783672D01*
X54673381Y-85465412D01*
X54748055Y-85090000D01*
X54673381Y-84714588D01*
X54460727Y-84396328D01*
X54142467Y-84183674D01*
X53767055Y-84109000D01*
X52912945Y-84109000D01*
X52537533Y-84183674D01*
X52219273Y-84396328D01*
X52006619Y-84714588D01*
X51931945Y-85090000D01*
X51244500Y-85090000D01*
X51244500Y-82550000D01*
X51931945Y-82550000D01*
X52006619Y-82925412D01*
X52219273Y-83243672D01*
X52537533Y-83456326D01*
X52912945Y-83531000D01*
X53767055Y-83531000D01*
X54142467Y-83456326D01*
X54460727Y-83243672D01*
X54673381Y-82925412D01*
X54748055Y-82550000D01*
X54673381Y-82174588D01*
X54460727Y-81856328D01*
X54142467Y-81643674D01*
X53767055Y-81569000D01*
X52912945Y-81569000D01*
X52537533Y-81643674D01*
X52219273Y-81856328D01*
X52006619Y-82174588D01*
X51931945Y-82550000D01*
X51244500Y-82550000D01*
X51244500Y-80010000D01*
X51931945Y-80010000D01*
X52006619Y-80385412D01*
X52219273Y-80703672D01*
X52537533Y-80916326D01*
X52912945Y-80991000D01*
X53767055Y-80991000D01*
X54142467Y-80916326D01*
X54460727Y-80703672D01*
X54673381Y-80385412D01*
X54748055Y-80010000D01*
X54673381Y-79634588D01*
X54460727Y-79316328D01*
X54142467Y-79103674D01*
X53767055Y-79029000D01*
X52912945Y-79029000D01*
X52537533Y-79103674D01*
X52219273Y-79316328D01*
X52006619Y-79634588D01*
X51931945Y-80010000D01*
X51244500Y-80010000D01*
X51244500Y-77470000D01*
X51931945Y-77470000D01*
X52006619Y-77845412D01*
X52219273Y-78163672D01*
X52537533Y-78376326D01*
X52912945Y-78451000D01*
X53767055Y-78451000D01*
X54142467Y-78376326D01*
X54460727Y-78163672D01*
X54673381Y-77845412D01*
X54748055Y-77470000D01*
X54673381Y-77094588D01*
X54460727Y-76776328D01*
X54142467Y-76563674D01*
X53767055Y-76489000D01*
X52912945Y-76489000D01*
X52537533Y-76563674D01*
X52219273Y-76776328D01*
X52006619Y-77094588D01*
X51931945Y-77470000D01*
X51244500Y-77470000D01*
X51244500Y-74930000D01*
X51931945Y-74930000D01*
X52006619Y-75305412D01*
X52219273Y-75623672D01*
X52537533Y-75836326D01*
X52912945Y-75911000D01*
X53767055Y-75911000D01*
X54142467Y-75836326D01*
X54460727Y-75623672D01*
X54673381Y-75305412D01*
X54748055Y-74930000D01*
X54673381Y-74554588D01*
X54460727Y-74236328D01*
X54142467Y-74023674D01*
X53767055Y-73949000D01*
X52912945Y-73949000D01*
X52537533Y-74023674D01*
X52219273Y-74236328D01*
X52006619Y-74554588D01*
X51931945Y-74930000D01*
X51244500Y-74930000D01*
X51244500Y-71120000D01*
X51931945Y-71120000D01*
X52006619Y-71495412D01*
X52219273Y-71813672D01*
X52537533Y-72026326D01*
X52912945Y-72101000D01*
X53767055Y-72101000D01*
X54142467Y-72026326D01*
X54460727Y-71813672D01*
X54673381Y-71495412D01*
X54748055Y-71120000D01*
X56995631Y-71120000D01*
X57090371Y-71596288D01*
X57360166Y-72000065D01*
X57763943Y-72269860D01*
X58240231Y-72364600D01*
X58599769Y-72364600D01*
X59076057Y-72269860D01*
X59479834Y-72000065D01*
X59749629Y-71596288D01*
X59844369Y-71120000D01*
X64615631Y-71120000D01*
X64710371Y-71596288D01*
X64980166Y-72000065D01*
X65383943Y-72269860D01*
X65860231Y-72364600D01*
X66219769Y-72364600D01*
X66696057Y-72269860D01*
X67099834Y-72000065D01*
X67369629Y-71596288D01*
X67464369Y-71120000D01*
X67369629Y-70643712D01*
X67099834Y-70239935D01*
X66696057Y-69970140D01*
X66219769Y-69875400D01*
X65860231Y-69875400D01*
X65383943Y-69970140D01*
X64980166Y-70239935D01*
X64710371Y-70643712D01*
X64615631Y-71120000D01*
X59844369Y-71120000D01*
X59749629Y-70643712D01*
X59479834Y-70239935D01*
X59076057Y-69970140D01*
X58599769Y-69875400D01*
X58240231Y-69875400D01*
X57763943Y-69970140D01*
X57360166Y-70239935D01*
X57090371Y-70643712D01*
X56995631Y-71120000D01*
X54748055Y-71120000D01*
X54673381Y-70744588D01*
X54460727Y-70426328D01*
X54142467Y-70213674D01*
X53767055Y-70139000D01*
X52912945Y-70139000D01*
X52537533Y-70213674D01*
X52219273Y-70426328D01*
X52006619Y-70744588D01*
X51931945Y-71120000D01*
X51244500Y-71120000D01*
X51244500Y-68580000D01*
X51931945Y-68580000D01*
X52006619Y-68955412D01*
X52219273Y-69273672D01*
X52537533Y-69486326D01*
X52912945Y-69561000D01*
X53767055Y-69561000D01*
X54142467Y-69486326D01*
X54460727Y-69273672D01*
X54673381Y-68955412D01*
X54748055Y-68580000D01*
X54673381Y-68204588D01*
X54460727Y-67886328D01*
X54142467Y-67673674D01*
X53767055Y-67599000D01*
X52912945Y-67599000D01*
X52537533Y-67673674D01*
X52219273Y-67886328D01*
X52006619Y-68204588D01*
X51931945Y-68580000D01*
X51244500Y-68580000D01*
X51244500Y-66040000D01*
X51931945Y-66040000D01*
X52006619Y-66415412D01*
X52219273Y-66733672D01*
X52537533Y-66946326D01*
X52912945Y-67021000D01*
X53767055Y-67021000D01*
X54142467Y-66946326D01*
X54460727Y-66733672D01*
X54673381Y-66415412D01*
X54676640Y-66399026D01*
X56812642Y-66399026D01*
X56815291Y-66414791D01*
X57069268Y-66942036D01*
X57505680Y-67331954D01*
X57778243Y-67427296D01*
X57763943Y-67430140D01*
X57360166Y-67699935D01*
X57090371Y-68103712D01*
X56995631Y-68580000D01*
X57090371Y-69056288D01*
X57360166Y-69460065D01*
X57763943Y-69729860D01*
X58240231Y-69824600D01*
X58599769Y-69824600D01*
X59076057Y-69729860D01*
X59479834Y-69460065D01*
X59749629Y-69056288D01*
X59844369Y-68580000D01*
X59749629Y-68103712D01*
X59479834Y-67699935D01*
X59076057Y-67430140D01*
X59061757Y-67427296D01*
X59334320Y-67331954D01*
X59770732Y-66942036D01*
X60024709Y-66414791D01*
X60027358Y-66399026D01*
X64432642Y-66399026D01*
X64435291Y-66414791D01*
X64689268Y-66942036D01*
X65125680Y-67331954D01*
X65398243Y-67427296D01*
X65383943Y-67430140D01*
X64980166Y-67699935D01*
X64710371Y-68103712D01*
X64615631Y-68580000D01*
X64710371Y-69056288D01*
X64980166Y-69460065D01*
X65383943Y-69729860D01*
X65860231Y-69824600D01*
X66219769Y-69824600D01*
X66696057Y-69729860D01*
X67099834Y-69460065D01*
X67369629Y-69056288D01*
X67464369Y-68580000D01*
X67369629Y-68103712D01*
X67099834Y-67699935D01*
X66696057Y-67430140D01*
X66681757Y-67427296D01*
X66954320Y-67331954D01*
X67390732Y-66942036D01*
X67644709Y-66414791D01*
X67647358Y-66399026D01*
X67526217Y-66167000D01*
X66167000Y-66167000D01*
X66167000Y-66187000D01*
X65913000Y-66187000D01*
X65913000Y-66167000D01*
X64553783Y-66167000D01*
X64432642Y-66399026D01*
X60027358Y-66399026D01*
X59906217Y-66167000D01*
X58547000Y-66167000D01*
X58547000Y-66187000D01*
X58293000Y-66187000D01*
X58293000Y-66167000D01*
X56933783Y-66167000D01*
X56812642Y-66399026D01*
X54676640Y-66399026D01*
X54748055Y-66040000D01*
X54676641Y-65680974D01*
X56812642Y-65680974D01*
X56933783Y-65913000D01*
X58293000Y-65913000D01*
X58293000Y-65893000D01*
X58547000Y-65893000D01*
X58547000Y-65913000D01*
X59906217Y-65913000D01*
X60027358Y-65680974D01*
X64432642Y-65680974D01*
X64553783Y-65913000D01*
X65913000Y-65913000D01*
X65913000Y-65893000D01*
X66167000Y-65893000D01*
X66167000Y-65913000D01*
X67526217Y-65913000D01*
X67647358Y-65680974D01*
X67644709Y-65665209D01*
X67390732Y-65137964D01*
X66958817Y-64752064D01*
X67056000Y-64752064D01*
X67197190Y-64725497D01*
X67326865Y-64642054D01*
X67413859Y-64514734D01*
X67444464Y-64363600D01*
X67444464Y-62636400D01*
X67417897Y-62495210D01*
X67334454Y-62365535D01*
X67207134Y-62278541D01*
X67056000Y-62247936D01*
X65024000Y-62247936D01*
X64882810Y-62274503D01*
X64753135Y-62357946D01*
X64666141Y-62485266D01*
X64635536Y-62636400D01*
X64635536Y-64363600D01*
X64662103Y-64504790D01*
X64745546Y-64634465D01*
X64872866Y-64721459D01*
X65024000Y-64752064D01*
X65121183Y-64752064D01*
X64689268Y-65137964D01*
X64435291Y-65665209D01*
X64432642Y-65680974D01*
X60027358Y-65680974D01*
X60024709Y-65665209D01*
X59770732Y-65137964D01*
X59338817Y-64752064D01*
X59436000Y-64752064D01*
X59577190Y-64725497D01*
X59706865Y-64642054D01*
X59793859Y-64514734D01*
X59824464Y-64363600D01*
X59824464Y-62636400D01*
X59797897Y-62495210D01*
X59714454Y-62365535D01*
X59587134Y-62278541D01*
X59436000Y-62247936D01*
X57404000Y-62247936D01*
X57262810Y-62274503D01*
X57133135Y-62357946D01*
X57046141Y-62485266D01*
X57015536Y-62636400D01*
X57015536Y-64363600D01*
X57042103Y-64504790D01*
X57125546Y-64634465D01*
X57252866Y-64721459D01*
X57404000Y-64752064D01*
X57501183Y-64752064D01*
X57069268Y-65137964D01*
X56815291Y-65665209D01*
X56812642Y-65680974D01*
X54676641Y-65680974D01*
X54673381Y-65664588D01*
X54460727Y-65346328D01*
X54142467Y-65133674D01*
X53767055Y-65059000D01*
X52912945Y-65059000D01*
X52537533Y-65133674D01*
X52219273Y-65346328D01*
X52006619Y-65664588D01*
X51931945Y-66040000D01*
X51244500Y-66040000D01*
X51244500Y-63500000D01*
X51931945Y-63500000D01*
X52006619Y-63875412D01*
X52219273Y-64193672D01*
X52537533Y-64406326D01*
X52912945Y-64481000D01*
X53767055Y-64481000D01*
X54142467Y-64406326D01*
X54460727Y-64193672D01*
X54673381Y-63875412D01*
X54748055Y-63500000D01*
X54673381Y-63124588D01*
X54460727Y-62806328D01*
X54142467Y-62593674D01*
X53767055Y-62519000D01*
X52912945Y-62519000D01*
X52537533Y-62593674D01*
X52219273Y-62806328D01*
X52006619Y-63124588D01*
X51931945Y-63500000D01*
X51244500Y-63500000D01*
X51244500Y-60960000D01*
X51931945Y-60960000D01*
X52006619Y-61335412D01*
X52219273Y-61653672D01*
X52537533Y-61866326D01*
X52912945Y-61941000D01*
X53767055Y-61941000D01*
X54142467Y-61866326D01*
X54460727Y-61653672D01*
X54673381Y-61335412D01*
X54748055Y-60960000D01*
X54673381Y-60584588D01*
X54460727Y-60266328D01*
X54142467Y-60053674D01*
X53767055Y-59979000D01*
X52912945Y-59979000D01*
X52537533Y-60053674D01*
X52219273Y-60266328D01*
X52006619Y-60584588D01*
X51931945Y-60960000D01*
X51244500Y-60960000D01*
X51244500Y-58420000D01*
X51931945Y-58420000D01*
X52006619Y-58795412D01*
X52219273Y-59113672D01*
X52537533Y-59326326D01*
X52912945Y-59401000D01*
X53767055Y-59401000D01*
X54142467Y-59326326D01*
X54460727Y-59113672D01*
X54673381Y-58795412D01*
X54748055Y-58420000D01*
X100191945Y-58420000D01*
X100266619Y-58795412D01*
X100479273Y-59113672D01*
X100797533Y-59326326D01*
X101172945Y-59401000D01*
X102027055Y-59401000D01*
X102402467Y-59326326D01*
X102720727Y-59113672D01*
X102933381Y-58795412D01*
X103008055Y-58420000D01*
X102933381Y-58044588D01*
X102720727Y-57726328D01*
X102402467Y-57513674D01*
X102027055Y-57439000D01*
X101172945Y-57439000D01*
X100797533Y-57513674D01*
X100479273Y-57726328D01*
X100266619Y-58044588D01*
X100191945Y-58420000D01*
X54748055Y-58420000D01*
X54673381Y-58044588D01*
X54460727Y-57726328D01*
X54142467Y-57513674D01*
X53767055Y-57439000D01*
X52912945Y-57439000D01*
X52537533Y-57513674D01*
X52219273Y-57726328D01*
X52006619Y-58044588D01*
X51931945Y-58420000D01*
X51244500Y-58420000D01*
X51244500Y-55880000D01*
X51931945Y-55880000D01*
X52006619Y-56255412D01*
X52219273Y-56573672D01*
X52537533Y-56786326D01*
X52912945Y-56861000D01*
X53767055Y-56861000D01*
X54142467Y-56786326D01*
X54460727Y-56573672D01*
X54673381Y-56255412D01*
X54748055Y-55880000D01*
X54673381Y-55504588D01*
X54460727Y-55186328D01*
X54142467Y-54973674D01*
X53767055Y-54899000D01*
X52912945Y-54899000D01*
X52537533Y-54973674D01*
X52219273Y-55186328D01*
X52006619Y-55504588D01*
X51931945Y-55880000D01*
X51244500Y-55880000D01*
X51244500Y-54864000D01*
X74947936Y-54864000D01*
X74947936Y-56896000D01*
X74974503Y-57037190D01*
X75057946Y-57166865D01*
X75185266Y-57253859D01*
X75336400Y-57284464D01*
X77063600Y-57284464D01*
X77204790Y-57257897D01*
X77334465Y-57174454D01*
X77421459Y-57047134D01*
X77452064Y-56896000D01*
X77452064Y-55700231D01*
X77495400Y-55700231D01*
X77495400Y-56059769D01*
X77590140Y-56536057D01*
X77859935Y-56939834D01*
X78263712Y-57209629D01*
X78740000Y-57304369D01*
X79216288Y-57209629D01*
X79620065Y-56939834D01*
X79889860Y-56536057D01*
X79984600Y-56059769D01*
X79984600Y-55700231D01*
X80035400Y-55700231D01*
X80035400Y-56059769D01*
X80130140Y-56536057D01*
X80399935Y-56939834D01*
X80803712Y-57209629D01*
X81280000Y-57304369D01*
X81756288Y-57209629D01*
X82160065Y-56939834D01*
X82429860Y-56536057D01*
X82432704Y-56521757D01*
X82528046Y-56794320D01*
X82917964Y-57230732D01*
X83445209Y-57484709D01*
X83460974Y-57487358D01*
X83693000Y-57366217D01*
X83693000Y-56007000D01*
X83947000Y-56007000D01*
X83947000Y-57366217D01*
X84179026Y-57487358D01*
X84194791Y-57484709D01*
X84722036Y-57230732D01*
X85111954Y-56794320D01*
X85305184Y-56241913D01*
X85160924Y-56007000D01*
X83947000Y-56007000D01*
X83693000Y-56007000D01*
X83673000Y-56007000D01*
X83673000Y-55880000D01*
X100191945Y-55880000D01*
X100266619Y-56255412D01*
X100479273Y-56573672D01*
X100797533Y-56786326D01*
X101172945Y-56861000D01*
X102027055Y-56861000D01*
X102402467Y-56786326D01*
X102720727Y-56573672D01*
X102933381Y-56255412D01*
X103008055Y-55880000D01*
X102933381Y-55504588D01*
X102720727Y-55186328D01*
X102402467Y-54973674D01*
X102027055Y-54899000D01*
X101172945Y-54899000D01*
X100797533Y-54973674D01*
X100479273Y-55186328D01*
X100266619Y-55504588D01*
X100191945Y-55880000D01*
X83673000Y-55880000D01*
X83673000Y-55753000D01*
X83693000Y-55753000D01*
X83693000Y-54393783D01*
X83947000Y-54393783D01*
X83947000Y-55753000D01*
X85160924Y-55753000D01*
X85305184Y-55518087D01*
X85111954Y-54965680D01*
X84722036Y-54529268D01*
X84194791Y-54275291D01*
X84179026Y-54272642D01*
X83947000Y-54393783D01*
X83693000Y-54393783D01*
X83460974Y-54272642D01*
X83445209Y-54275291D01*
X82917964Y-54529268D01*
X82528046Y-54965680D01*
X82432704Y-55238243D01*
X82429860Y-55223943D01*
X82160065Y-54820166D01*
X81756288Y-54550371D01*
X81280000Y-54455631D01*
X80803712Y-54550371D01*
X80399935Y-54820166D01*
X80130140Y-55223943D01*
X80035400Y-55700231D01*
X79984600Y-55700231D01*
X79889860Y-55223943D01*
X79620065Y-54820166D01*
X79216288Y-54550371D01*
X78740000Y-54455631D01*
X78263712Y-54550371D01*
X77859935Y-54820166D01*
X77590140Y-55223943D01*
X77495400Y-55700231D01*
X77452064Y-55700231D01*
X77452064Y-54864000D01*
X77425497Y-54722810D01*
X77342054Y-54593135D01*
X77214734Y-54506141D01*
X77063600Y-54475536D01*
X75336400Y-54475536D01*
X75195210Y-54502103D01*
X75065535Y-54585546D01*
X74978541Y-54712866D01*
X74947936Y-54864000D01*
X51244500Y-54864000D01*
X51244500Y-53340000D01*
X51931945Y-53340000D01*
X52006619Y-53715412D01*
X52219273Y-54033672D01*
X52537533Y-54246326D01*
X52912945Y-54321000D01*
X53767055Y-54321000D01*
X54142467Y-54246326D01*
X54460727Y-54033672D01*
X54673381Y-53715412D01*
X54748055Y-53340000D01*
X100191945Y-53340000D01*
X100266619Y-53715412D01*
X100479273Y-54033672D01*
X100797533Y-54246326D01*
X101172945Y-54321000D01*
X102027055Y-54321000D01*
X102402467Y-54246326D01*
X102720727Y-54033672D01*
X102933381Y-53715412D01*
X103008055Y-53340000D01*
X102933381Y-52964588D01*
X102720727Y-52646328D01*
X102402467Y-52433674D01*
X102027055Y-52359000D01*
X101172945Y-52359000D01*
X100797533Y-52433674D01*
X100479273Y-52646328D01*
X100266619Y-52964588D01*
X100191945Y-53340000D01*
X54748055Y-53340000D01*
X54673381Y-52964588D01*
X54460727Y-52646328D01*
X54142467Y-52433674D01*
X53767055Y-52359000D01*
X52912945Y-52359000D01*
X52537533Y-52433674D01*
X52219273Y-52646328D01*
X52006619Y-52964588D01*
X51931945Y-53340000D01*
X51244500Y-53340000D01*
X51244500Y-48704500D01*
X103695500Y-48704500D01*
X103695500Y-98615500D01*
X103695500Y-98615500D01*
G37*
X103695500Y-98615500D02*
X89344500Y-98615500D01*
X89344500Y-88900000D01*
X100191945Y-88900000D01*
X100266619Y-89275412D01*
X100479273Y-89593672D01*
X100797533Y-89806326D01*
X101172945Y-89881000D01*
X102027055Y-89881000D01*
X102402467Y-89806326D01*
X102720727Y-89593672D01*
X102933381Y-89275412D01*
X103008055Y-88900000D01*
X102933381Y-88524588D01*
X102720727Y-88206328D01*
X102402467Y-87993674D01*
X102027055Y-87919000D01*
X101172945Y-87919000D01*
X100797533Y-87993674D01*
X100479273Y-88206328D01*
X100266619Y-88524588D01*
X100191945Y-88900000D01*
X89344500Y-88900000D01*
X89344500Y-86360000D01*
X100191945Y-86360000D01*
X100266619Y-86735412D01*
X100479273Y-87053672D01*
X100797533Y-87266326D01*
X101172945Y-87341000D01*
X102027055Y-87341000D01*
X102402467Y-87266326D01*
X102720727Y-87053672D01*
X102933381Y-86735412D01*
X103008055Y-86360000D01*
X102933381Y-85984588D01*
X102720727Y-85666328D01*
X102402467Y-85453674D01*
X102027055Y-85379000D01*
X101172945Y-85379000D01*
X100797533Y-85453674D01*
X100479273Y-85666328D01*
X100266619Y-85984588D01*
X100191945Y-86360000D01*
X89344500Y-86360000D01*
X89344500Y-83820000D01*
X100191945Y-83820000D01*
X100266619Y-84195412D01*
X100479273Y-84513672D01*
X100797533Y-84726326D01*
X101172945Y-84801000D01*
X102027055Y-84801000D01*
X102402467Y-84726326D01*
X102720727Y-84513672D01*
X102933381Y-84195412D01*
X103008055Y-83820000D01*
X102933381Y-83444588D01*
X102720727Y-83126328D01*
X102402467Y-82913674D01*
X102027055Y-82839000D01*
X101172945Y-82839000D01*
X100797533Y-82913674D01*
X100479273Y-83126328D01*
X100266619Y-83444588D01*
X100191945Y-83820000D01*
X89344500Y-83820000D01*
X89344500Y-81280000D01*
X100191945Y-81280000D01*
X100266619Y-81655412D01*
X100479273Y-81973672D01*
X100797533Y-82186326D01*
X101172945Y-82261000D01*
X102027055Y-82261000D01*
X102402467Y-82186326D01*
X102720727Y-81973672D01*
X102933381Y-81655412D01*
X103008055Y-81280000D01*
X102933381Y-80904588D01*
X102720727Y-80586328D01*
X102402467Y-80373674D01*
X102027055Y-80299000D01*
X101172945Y-80299000D01*
X100797533Y-80373674D01*
X100479273Y-80586328D01*
X100266619Y-80904588D01*
X100191945Y-81280000D01*
X89344500Y-81280000D01*
X89344500Y-78740000D01*
X100191945Y-78740000D01*
X100266619Y-79115412D01*
X100479273Y-79433672D01*
X100797533Y-79646326D01*
X101172945Y-79721000D01*
X102027055Y-79721000D01*
X102402467Y-79646326D01*
X102720727Y-79433672D01*
X102933381Y-79115412D01*
X103008055Y-78740000D01*
X102933381Y-78364588D01*
X102720727Y-78046328D01*
X102402467Y-77833674D01*
X102027055Y-77759000D01*
X101172945Y-77759000D01*
X100797533Y-77833674D01*
X100479273Y-78046328D01*
X100266619Y-78364588D01*
X100191945Y-78740000D01*
X89344500Y-78740000D01*
X89344500Y-76200000D01*
X100191945Y-76200000D01*
X100266619Y-76575412D01*
X100479273Y-76893672D01*
X100797533Y-77106326D01*
X101172945Y-77181000D01*
X102027055Y-77181000D01*
X102402467Y-77106326D01*
X102720727Y-76893672D01*
X102933381Y-76575412D01*
X103008055Y-76200000D01*
X102933381Y-75824588D01*
X102720727Y-75506328D01*
X102402467Y-75293674D01*
X102027055Y-75219000D01*
X101172945Y-75219000D01*
X100797533Y-75293674D01*
X100479273Y-75506328D01*
X100266619Y-75824588D01*
X100191945Y-76200000D01*
X89344500Y-76200000D01*
X89344500Y-73660000D01*
X100191945Y-73660000D01*
X100266619Y-74035412D01*
X100479273Y-74353672D01*
X100797533Y-74566326D01*
X101172945Y-74641000D01*
X102027055Y-74641000D01*
X102402467Y-74566326D01*
X102720727Y-74353672D01*
X102933381Y-74035412D01*
X103008055Y-73660000D01*
X102933381Y-73284588D01*
X102720727Y-72966328D01*
X102402467Y-72753674D01*
X102027055Y-72679000D01*
X101172945Y-72679000D01*
X100797533Y-72753674D01*
X100479273Y-72966328D01*
X100266619Y-73284588D01*
X100191945Y-73660000D01*
X89344500Y-73660000D01*
X89344500Y-71120000D01*
X100191945Y-71120000D01*
X100266619Y-71495412D01*
X100479273Y-71813672D01*
X100797533Y-72026326D01*
X101172945Y-72101000D01*
X102027055Y-72101000D01*
X102402467Y-72026326D01*
X102720727Y-71813672D01*
X102933381Y-71495412D01*
X103008055Y-71120000D01*
X102933381Y-70744588D01*
X102720727Y-70426328D01*
X102402467Y-70213674D01*
X102027055Y-70139000D01*
X101172945Y-70139000D01*
X100797533Y-70213674D01*
X100479273Y-70426328D01*
X100266619Y-70744588D01*
X100191945Y-71120000D01*
X89344500Y-71120000D01*
X89344500Y-66040000D01*
X100191945Y-66040000D01*
X100266619Y-66415412D01*
X100479273Y-66733672D01*
X100797533Y-66946326D01*
X101172945Y-67021000D01*
X102027055Y-67021000D01*
X102402467Y-66946326D01*
X102720727Y-66733672D01*
X102933381Y-66415412D01*
X103008055Y-66040000D01*
X102933381Y-65664588D01*
X102720727Y-65346328D01*
X102402467Y-65133674D01*
X102027055Y-65059000D01*
X101172945Y-65059000D01*
X100797533Y-65133674D01*
X100479273Y-65346328D01*
X100266619Y-65664588D01*
X100191945Y-66040000D01*
X89344500Y-66040000D01*
X89344500Y-63500000D01*
X100191945Y-63500000D01*
X100266619Y-63875412D01*
X100479273Y-64193672D01*
X100797533Y-64406326D01*
X101172945Y-64481000D01*
X102027055Y-64481000D01*
X102402467Y-64406326D01*
X102720727Y-64193672D01*
X102933381Y-63875412D01*
X103008055Y-63500000D01*
X102933381Y-63124588D01*
X102720727Y-62806328D01*
X102402467Y-62593674D01*
X102027055Y-62519000D01*
X101172945Y-62519000D01*
X100797533Y-62593674D01*
X100479273Y-62806328D01*
X100266619Y-63124588D01*
X100191945Y-63500000D01*
X89344500Y-63500000D01*
X89344500Y-60960000D01*
X100191945Y-60960000D01*
X100266619Y-61335412D01*
X100479273Y-61653672D01*
X100797533Y-61866326D01*
X101172945Y-61941000D01*
X102027055Y-61941000D01*
X102402467Y-61866326D01*
X102720727Y-61653672D01*
X102933381Y-61335412D01*
X103008055Y-60960000D01*
X102933381Y-60584588D01*
X102720727Y-60266328D01*
X102402467Y-60053674D01*
X102027055Y-59979000D01*
X101172945Y-59979000D01*
X100797533Y-60053674D01*
X100479273Y-60266328D01*
X100266619Y-60584588D01*
X100191945Y-60960000D01*
X89344500Y-60960000D01*
X89310664Y-60789897D01*
X89214309Y-60645691D01*
X89070103Y-60549336D01*
X88900000Y-60515500D01*
X71120000Y-60515500D01*
X70949897Y-60549336D01*
X70805691Y-60645691D01*
X70709336Y-60789897D01*
X70675500Y-60960000D01*
X70675500Y-98615500D01*
X54263432Y-98615500D01*
X54460727Y-98483672D01*
X54673381Y-98165412D01*
X54748055Y-97790000D01*
X54673381Y-97414588D01*
X54460727Y-97096328D01*
X54142467Y-96883674D01*
X53767055Y-96809000D01*
X52912945Y-96809000D01*
X52537533Y-96883674D01*
X52219273Y-97096328D01*
X52006619Y-97414588D01*
X51931945Y-97790000D01*
X52006619Y-98165412D01*
X52219273Y-98483672D01*
X52416568Y-98615500D01*
X51244500Y-98615500D01*
X51244500Y-95250000D01*
X51931945Y-95250000D01*
X52006619Y-95625412D01*
X52219273Y-95943672D01*
X52537533Y-96156326D01*
X52912945Y-96231000D01*
X53767055Y-96231000D01*
X54142467Y-96156326D01*
X54460727Y-95943672D01*
X54673381Y-95625412D01*
X54748055Y-95250000D01*
X54673381Y-94874588D01*
X54460727Y-94556328D01*
X54142467Y-94343674D01*
X53767055Y-94269000D01*
X52912945Y-94269000D01*
X52537533Y-94343674D01*
X52219273Y-94556328D01*
X52006619Y-94874588D01*
X51931945Y-95250000D01*
X51244500Y-95250000D01*
X51244500Y-92710000D01*
X51931945Y-92710000D01*
X52006619Y-93085412D01*
X52219273Y-93403672D01*
X52537533Y-93616326D01*
X52912945Y-93691000D01*
X53767055Y-93691000D01*
X54142467Y-93616326D01*
X54460727Y-93403672D01*
X54673381Y-93085412D01*
X54719538Y-92853361D01*
X55155975Y-92853361D01*
X55199000Y-92957490D01*
X55199000Y-95250000D01*
X55250838Y-95510608D01*
X55398460Y-95731540D01*
X56668460Y-97001540D01*
X56889392Y-97149162D01*
X57150000Y-97201000D01*
X57227155Y-97201000D01*
X57360166Y-97400065D01*
X57763943Y-97669860D01*
X58240231Y-97764600D01*
X58599769Y-97764600D01*
X59076057Y-97669860D01*
X59479834Y-97400065D01*
X59749629Y-96996288D01*
X59844369Y-96520000D01*
X64615631Y-96520000D01*
X64710371Y-96996288D01*
X64980166Y-97400065D01*
X65383943Y-97669860D01*
X65860231Y-97764600D01*
X66219769Y-97764600D01*
X66696057Y-97669860D01*
X67099834Y-97400065D01*
X67369629Y-96996288D01*
X67464369Y-96520000D01*
X67369629Y-96043712D01*
X67099834Y-95639935D01*
X66696057Y-95370140D01*
X66219769Y-95275400D01*
X65860231Y-95275400D01*
X65383943Y-95370140D01*
X64980166Y-95639935D01*
X64710371Y-96043712D01*
X64615631Y-96520000D01*
X59844369Y-96520000D01*
X59749629Y-96043712D01*
X59479834Y-95639935D01*
X59076057Y-95370140D01*
X58599769Y-95275400D01*
X58240231Y-95275400D01*
X57763943Y-95370140D01*
X57360166Y-95639935D01*
X57309236Y-95716156D01*
X56561000Y-94967920D01*
X56561000Y-92957636D01*
X56603774Y-92854624D01*
X56604025Y-92566639D01*
X56494050Y-92300479D01*
X56290592Y-92096665D01*
X56024624Y-91986226D01*
X55736639Y-91985975D01*
X55470479Y-92095950D01*
X55266665Y-92299408D01*
X55156226Y-92565376D01*
X55155975Y-92853361D01*
X54719538Y-92853361D01*
X54748055Y-92710000D01*
X54673381Y-92334588D01*
X54460727Y-92016328D01*
X54142467Y-91803674D01*
X54119100Y-91799026D01*
X56812642Y-91799026D01*
X56815291Y-91814791D01*
X57069268Y-92342036D01*
X57505680Y-92731954D01*
X57778243Y-92827296D01*
X57763943Y-92830140D01*
X57360166Y-93099935D01*
X57090371Y-93503712D01*
X56995631Y-93980000D01*
X57090371Y-94456288D01*
X57360166Y-94860065D01*
X57763943Y-95129860D01*
X58240231Y-95224600D01*
X58599769Y-95224600D01*
X59076057Y-95129860D01*
X59479834Y-94860065D01*
X59749629Y-94456288D01*
X59844369Y-93980000D01*
X59749629Y-93503712D01*
X59479834Y-93099935D01*
X59076057Y-92830140D01*
X59061757Y-92827296D01*
X59334320Y-92731954D01*
X59770732Y-92342036D01*
X60024709Y-91814791D01*
X60027358Y-91799026D01*
X64432642Y-91799026D01*
X64435291Y-91814791D01*
X64689268Y-92342036D01*
X65125680Y-92731954D01*
X65398243Y-92827296D01*
X65383943Y-92830140D01*
X64980166Y-93099935D01*
X64710371Y-93503712D01*
X64615631Y-93980000D01*
X64710371Y-94456288D01*
X64980166Y-94860065D01*
X65383943Y-95129860D01*
X65860231Y-95224600D01*
X66219769Y-95224600D01*
X66696057Y-95129860D01*
X67099834Y-94860065D01*
X67369629Y-94456288D01*
X67464369Y-93980000D01*
X67369629Y-93503712D01*
X67099834Y-93099935D01*
X66696057Y-92830140D01*
X66681757Y-92827296D01*
X66954320Y-92731954D01*
X67390732Y-92342036D01*
X67644709Y-91814791D01*
X67647358Y-91799026D01*
X67526217Y-91567000D01*
X66167000Y-91567000D01*
X66167000Y-91587000D01*
X65913000Y-91587000D01*
X65913000Y-91567000D01*
X64553783Y-91567000D01*
X64432642Y-91799026D01*
X60027358Y-91799026D01*
X59906217Y-91567000D01*
X58547000Y-91567000D01*
X58547000Y-91587000D01*
X58293000Y-91587000D01*
X58293000Y-91567000D01*
X56933783Y-91567000D01*
X56812642Y-91799026D01*
X54119100Y-91799026D01*
X53767055Y-91729000D01*
X52912945Y-91729000D01*
X52537533Y-91803674D01*
X52219273Y-92016328D01*
X52006619Y-92334588D01*
X51931945Y-92710000D01*
X51244500Y-92710000D01*
X51244500Y-90170000D01*
X51931945Y-90170000D01*
X52006619Y-90545412D01*
X52219273Y-90863672D01*
X52537533Y-91076326D01*
X52912945Y-91151000D01*
X53767055Y-91151000D01*
X54119099Y-91080974D01*
X56812642Y-91080974D01*
X56933783Y-91313000D01*
X58293000Y-91313000D01*
X58293000Y-91293000D01*
X58547000Y-91293000D01*
X58547000Y-91313000D01*
X59906217Y-91313000D01*
X60027358Y-91080974D01*
X64432642Y-91080974D01*
X64553783Y-91313000D01*
X65913000Y-91313000D01*
X65913000Y-91293000D01*
X66167000Y-91293000D01*
X66167000Y-91313000D01*
X67526217Y-91313000D01*
X67647358Y-91080974D01*
X67644709Y-91065209D01*
X67390732Y-90537964D01*
X66958817Y-90152064D01*
X67056000Y-90152064D01*
X67197190Y-90125497D01*
X67326865Y-90042054D01*
X67413859Y-89914734D01*
X67444464Y-89763600D01*
X67444464Y-88036400D01*
X67417897Y-87895210D01*
X67334454Y-87765535D01*
X67207134Y-87678541D01*
X67056000Y-87647936D01*
X65024000Y-87647936D01*
X64882810Y-87674503D01*
X64753135Y-87757946D01*
X64666141Y-87885266D01*
X64635536Y-88036400D01*
X64635536Y-89763600D01*
X64662103Y-89904790D01*
X64745546Y-90034465D01*
X64872866Y-90121459D01*
X65024000Y-90152064D01*
X65121183Y-90152064D01*
X64689268Y-90537964D01*
X64435291Y-91065209D01*
X64432642Y-91080974D01*
X60027358Y-91080974D01*
X60024709Y-91065209D01*
X59770732Y-90537964D01*
X59338817Y-90152064D01*
X59436000Y-90152064D01*
X59577190Y-90125497D01*
X59706865Y-90042054D01*
X59793859Y-89914734D01*
X59824464Y-89763600D01*
X59824464Y-88036400D01*
X59797897Y-87895210D01*
X59714454Y-87765535D01*
X59587134Y-87678541D01*
X59436000Y-87647936D01*
X57404000Y-87647936D01*
X57262810Y-87674503D01*
X57133135Y-87757946D01*
X57046141Y-87885266D01*
X57015536Y-88036400D01*
X57015536Y-89763600D01*
X57042103Y-89904790D01*
X57125546Y-90034465D01*
X57252866Y-90121459D01*
X57404000Y-90152064D01*
X57501183Y-90152064D01*
X57069268Y-90537964D01*
X56815291Y-91065209D01*
X56812642Y-91080974D01*
X54119099Y-91080974D01*
X54142467Y-91076326D01*
X54460727Y-90863672D01*
X54673381Y-90545412D01*
X54748055Y-90170000D01*
X54673381Y-89794588D01*
X54460727Y-89476328D01*
X54142467Y-89263674D01*
X53767055Y-89189000D01*
X52912945Y-89189000D01*
X52537533Y-89263674D01*
X52219273Y-89476328D01*
X52006619Y-89794588D01*
X51931945Y-90170000D01*
X51244500Y-90170000D01*
X51244500Y-87630000D01*
X51931945Y-87630000D01*
X52006619Y-88005412D01*
X52219273Y-88323672D01*
X52537533Y-88536326D01*
X52912945Y-88611000D01*
X53767055Y-88611000D01*
X54142467Y-88536326D01*
X54460727Y-88323672D01*
X54673381Y-88005412D01*
X54748055Y-87630000D01*
X54673381Y-87254588D01*
X54460727Y-86936328D01*
X54142467Y-86723674D01*
X53767055Y-86649000D01*
X52912945Y-86649000D01*
X52537533Y-86723674D01*
X52219273Y-86936328D01*
X52006619Y-87254588D01*
X51931945Y-87630000D01*
X51244500Y-87630000D01*
X51244500Y-85090000D01*
X51931945Y-85090000D01*
X52006619Y-85465412D01*
X52219273Y-85783672D01*
X52537533Y-85996326D01*
X52912945Y-86071000D01*
X53767055Y-86071000D01*
X54142467Y-85996326D01*
X54460727Y-85783672D01*
X54673381Y-85465412D01*
X54748055Y-85090000D01*
X54673381Y-84714588D01*
X54460727Y-84396328D01*
X54142467Y-84183674D01*
X53767055Y-84109000D01*
X52912945Y-84109000D01*
X52537533Y-84183674D01*
X52219273Y-84396328D01*
X52006619Y-84714588D01*
X51931945Y-85090000D01*
X51244500Y-85090000D01*
X51244500Y-82550000D01*
X51931945Y-82550000D01*
X52006619Y-82925412D01*
X52219273Y-83243672D01*
X52537533Y-83456326D01*
X52912945Y-83531000D01*
X53767055Y-83531000D01*
X54142467Y-83456326D01*
X54460727Y-83243672D01*
X54673381Y-82925412D01*
X54748055Y-82550000D01*
X54673381Y-82174588D01*
X54460727Y-81856328D01*
X54142467Y-81643674D01*
X53767055Y-81569000D01*
X52912945Y-81569000D01*
X52537533Y-81643674D01*
X52219273Y-81856328D01*
X52006619Y-82174588D01*
X51931945Y-82550000D01*
X51244500Y-82550000D01*
X51244500Y-80010000D01*
X51931945Y-80010000D01*
X52006619Y-80385412D01*
X52219273Y-80703672D01*
X52537533Y-80916326D01*
X52912945Y-80991000D01*
X53767055Y-80991000D01*
X54142467Y-80916326D01*
X54460727Y-80703672D01*
X54673381Y-80385412D01*
X54748055Y-80010000D01*
X54673381Y-79634588D01*
X54460727Y-79316328D01*
X54142467Y-79103674D01*
X53767055Y-79029000D01*
X52912945Y-79029000D01*
X52537533Y-79103674D01*
X52219273Y-79316328D01*
X52006619Y-79634588D01*
X51931945Y-80010000D01*
X51244500Y-80010000D01*
X51244500Y-77470000D01*
X51931945Y-77470000D01*
X52006619Y-77845412D01*
X52219273Y-78163672D01*
X52537533Y-78376326D01*
X52912945Y-78451000D01*
X53767055Y-78451000D01*
X54142467Y-78376326D01*
X54460727Y-78163672D01*
X54673381Y-77845412D01*
X54748055Y-77470000D01*
X54673381Y-77094588D01*
X54460727Y-76776328D01*
X54142467Y-76563674D01*
X53767055Y-76489000D01*
X52912945Y-76489000D01*
X52537533Y-76563674D01*
X52219273Y-76776328D01*
X52006619Y-77094588D01*
X51931945Y-77470000D01*
X51244500Y-77470000D01*
X51244500Y-74930000D01*
X51931945Y-74930000D01*
X52006619Y-75305412D01*
X52219273Y-75623672D01*
X52537533Y-75836326D01*
X52912945Y-75911000D01*
X53767055Y-75911000D01*
X54142467Y-75836326D01*
X54460727Y-75623672D01*
X54673381Y-75305412D01*
X54748055Y-74930000D01*
X54673381Y-74554588D01*
X54460727Y-74236328D01*
X54142467Y-74023674D01*
X53767055Y-73949000D01*
X52912945Y-73949000D01*
X52537533Y-74023674D01*
X52219273Y-74236328D01*
X52006619Y-74554588D01*
X51931945Y-74930000D01*
X51244500Y-74930000D01*
X51244500Y-71120000D01*
X51931945Y-71120000D01*
X52006619Y-71495412D01*
X52219273Y-71813672D01*
X52537533Y-72026326D01*
X52912945Y-72101000D01*
X53767055Y-72101000D01*
X54142467Y-72026326D01*
X54460727Y-71813672D01*
X54673381Y-71495412D01*
X54748055Y-71120000D01*
X56995631Y-71120000D01*
X57090371Y-71596288D01*
X57360166Y-72000065D01*
X57763943Y-72269860D01*
X58240231Y-72364600D01*
X58599769Y-72364600D01*
X59076057Y-72269860D01*
X59479834Y-72000065D01*
X59749629Y-71596288D01*
X59844369Y-71120000D01*
X64615631Y-71120000D01*
X64710371Y-71596288D01*
X64980166Y-72000065D01*
X65383943Y-72269860D01*
X65860231Y-72364600D01*
X66219769Y-72364600D01*
X66696057Y-72269860D01*
X67099834Y-72000065D01*
X67369629Y-71596288D01*
X67464369Y-71120000D01*
X67369629Y-70643712D01*
X67099834Y-70239935D01*
X66696057Y-69970140D01*
X66219769Y-69875400D01*
X65860231Y-69875400D01*
X65383943Y-69970140D01*
X64980166Y-70239935D01*
X64710371Y-70643712D01*
X64615631Y-71120000D01*
X59844369Y-71120000D01*
X59749629Y-70643712D01*
X59479834Y-70239935D01*
X59076057Y-69970140D01*
X58599769Y-69875400D01*
X58240231Y-69875400D01*
X57763943Y-69970140D01*
X57360166Y-70239935D01*
X57090371Y-70643712D01*
X56995631Y-71120000D01*
X54748055Y-71120000D01*
X54673381Y-70744588D01*
X54460727Y-70426328D01*
X54142467Y-70213674D01*
X53767055Y-70139000D01*
X52912945Y-70139000D01*
X52537533Y-70213674D01*
X52219273Y-70426328D01*
X52006619Y-70744588D01*
X51931945Y-71120000D01*
X51244500Y-71120000D01*
X51244500Y-68580000D01*
X51931945Y-68580000D01*
X52006619Y-68955412D01*
X52219273Y-69273672D01*
X52537533Y-69486326D01*
X52912945Y-69561000D01*
X53767055Y-69561000D01*
X54142467Y-69486326D01*
X54460727Y-69273672D01*
X54673381Y-68955412D01*
X54748055Y-68580000D01*
X54673381Y-68204588D01*
X54460727Y-67886328D01*
X54142467Y-67673674D01*
X53767055Y-67599000D01*
X52912945Y-67599000D01*
X52537533Y-67673674D01*
X52219273Y-67886328D01*
X52006619Y-68204588D01*
X51931945Y-68580000D01*
X51244500Y-68580000D01*
X51244500Y-66040000D01*
X51931945Y-66040000D01*
X52006619Y-66415412D01*
X52219273Y-66733672D01*
X52537533Y-66946326D01*
X52912945Y-67021000D01*
X53767055Y-67021000D01*
X54142467Y-66946326D01*
X54460727Y-66733672D01*
X54673381Y-66415412D01*
X54676640Y-66399026D01*
X56812642Y-66399026D01*
X56815291Y-66414791D01*
X57069268Y-66942036D01*
X57505680Y-67331954D01*
X57778243Y-67427296D01*
X57763943Y-67430140D01*
X57360166Y-67699935D01*
X57090371Y-68103712D01*
X56995631Y-68580000D01*
X57090371Y-69056288D01*
X57360166Y-69460065D01*
X57763943Y-69729860D01*
X58240231Y-69824600D01*
X58599769Y-69824600D01*
X59076057Y-69729860D01*
X59479834Y-69460065D01*
X59749629Y-69056288D01*
X59844369Y-68580000D01*
X59749629Y-68103712D01*
X59479834Y-67699935D01*
X59076057Y-67430140D01*
X59061757Y-67427296D01*
X59334320Y-67331954D01*
X59770732Y-66942036D01*
X60024709Y-66414791D01*
X60027358Y-66399026D01*
X64432642Y-66399026D01*
X64435291Y-66414791D01*
X64689268Y-66942036D01*
X65125680Y-67331954D01*
X65398243Y-67427296D01*
X65383943Y-67430140D01*
X64980166Y-67699935D01*
X64710371Y-68103712D01*
X64615631Y-68580000D01*
X64710371Y-69056288D01*
X64980166Y-69460065D01*
X65383943Y-69729860D01*
X65860231Y-69824600D01*
X66219769Y-69824600D01*
X66696057Y-69729860D01*
X67099834Y-69460065D01*
X67369629Y-69056288D01*
X67464369Y-68580000D01*
X67369629Y-68103712D01*
X67099834Y-67699935D01*
X66696057Y-67430140D01*
X66681757Y-67427296D01*
X66954320Y-67331954D01*
X67390732Y-66942036D01*
X67644709Y-66414791D01*
X67647358Y-66399026D01*
X67526217Y-66167000D01*
X66167000Y-66167000D01*
X66167000Y-66187000D01*
X65913000Y-66187000D01*
X65913000Y-66167000D01*
X64553783Y-66167000D01*
X64432642Y-66399026D01*
X60027358Y-66399026D01*
X59906217Y-66167000D01*
X58547000Y-66167000D01*
X58547000Y-66187000D01*
X58293000Y-66187000D01*
X58293000Y-66167000D01*
X56933783Y-66167000D01*
X56812642Y-66399026D01*
X54676640Y-66399026D01*
X54748055Y-66040000D01*
X54676641Y-65680974D01*
X56812642Y-65680974D01*
X56933783Y-65913000D01*
X58293000Y-65913000D01*
X58293000Y-65893000D01*
X58547000Y-65893000D01*
X58547000Y-65913000D01*
X59906217Y-65913000D01*
X60027358Y-65680974D01*
X64432642Y-65680974D01*
X64553783Y-65913000D01*
X65913000Y-65913000D01*
X65913000Y-65893000D01*
X66167000Y-65893000D01*
X66167000Y-65913000D01*
X67526217Y-65913000D01*
X67647358Y-65680974D01*
X67644709Y-65665209D01*
X67390732Y-65137964D01*
X66958817Y-64752064D01*
X67056000Y-64752064D01*
X67197190Y-64725497D01*
X67326865Y-64642054D01*
X67413859Y-64514734D01*
X67444464Y-64363600D01*
X67444464Y-62636400D01*
X67417897Y-62495210D01*
X67334454Y-62365535D01*
X67207134Y-62278541D01*
X67056000Y-62247936D01*
X65024000Y-62247936D01*
X64882810Y-62274503D01*
X64753135Y-62357946D01*
X64666141Y-62485266D01*
X64635536Y-62636400D01*
X64635536Y-64363600D01*
X64662103Y-64504790D01*
X64745546Y-64634465D01*
X64872866Y-64721459D01*
X65024000Y-64752064D01*
X65121183Y-64752064D01*
X64689268Y-65137964D01*
X64435291Y-65665209D01*
X64432642Y-65680974D01*
X60027358Y-65680974D01*
X60024709Y-65665209D01*
X59770732Y-65137964D01*
X59338817Y-64752064D01*
X59436000Y-64752064D01*
X59577190Y-64725497D01*
X59706865Y-64642054D01*
X59793859Y-64514734D01*
X59824464Y-64363600D01*
X59824464Y-62636400D01*
X59797897Y-62495210D01*
X59714454Y-62365535D01*
X59587134Y-62278541D01*
X59436000Y-62247936D01*
X57404000Y-62247936D01*
X57262810Y-62274503D01*
X57133135Y-62357946D01*
X57046141Y-62485266D01*
X57015536Y-62636400D01*
X57015536Y-64363600D01*
X57042103Y-64504790D01*
X57125546Y-64634465D01*
X57252866Y-64721459D01*
X57404000Y-64752064D01*
X57501183Y-64752064D01*
X57069268Y-65137964D01*
X56815291Y-65665209D01*
X56812642Y-65680974D01*
X54676641Y-65680974D01*
X54673381Y-65664588D01*
X54460727Y-65346328D01*
X54142467Y-65133674D01*
X53767055Y-65059000D01*
X52912945Y-65059000D01*
X52537533Y-65133674D01*
X52219273Y-65346328D01*
X52006619Y-65664588D01*
X51931945Y-66040000D01*
X51244500Y-66040000D01*
X51244500Y-63500000D01*
X51931945Y-63500000D01*
X52006619Y-63875412D01*
X52219273Y-64193672D01*
X52537533Y-64406326D01*
X52912945Y-64481000D01*
X53767055Y-64481000D01*
X54142467Y-64406326D01*
X54460727Y-64193672D01*
X54673381Y-63875412D01*
X54748055Y-63500000D01*
X54673381Y-63124588D01*
X54460727Y-62806328D01*
X54142467Y-62593674D01*
X53767055Y-62519000D01*
X52912945Y-62519000D01*
X52537533Y-62593674D01*
X52219273Y-62806328D01*
X52006619Y-63124588D01*
X51931945Y-63500000D01*
X51244500Y-63500000D01*
X51244500Y-60960000D01*
X51931945Y-60960000D01*
X52006619Y-61335412D01*
X52219273Y-61653672D01*
X52537533Y-61866326D01*
X52912945Y-61941000D01*
X53767055Y-61941000D01*
X54142467Y-61866326D01*
X54460727Y-61653672D01*
X54673381Y-61335412D01*
X54748055Y-60960000D01*
X54673381Y-60584588D01*
X54460727Y-60266328D01*
X54142467Y-60053674D01*
X53767055Y-59979000D01*
X52912945Y-59979000D01*
X52537533Y-60053674D01*
X52219273Y-60266328D01*
X52006619Y-60584588D01*
X51931945Y-60960000D01*
X51244500Y-60960000D01*
X51244500Y-58420000D01*
X51931945Y-58420000D01*
X52006619Y-58795412D01*
X52219273Y-59113672D01*
X52537533Y-59326326D01*
X52912945Y-59401000D01*
X53767055Y-59401000D01*
X54142467Y-59326326D01*
X54460727Y-59113672D01*
X54673381Y-58795412D01*
X54748055Y-58420000D01*
X100191945Y-58420000D01*
X100266619Y-58795412D01*
X100479273Y-59113672D01*
X100797533Y-59326326D01*
X101172945Y-59401000D01*
X102027055Y-59401000D01*
X102402467Y-59326326D01*
X102720727Y-59113672D01*
X102933381Y-58795412D01*
X103008055Y-58420000D01*
X102933381Y-58044588D01*
X102720727Y-57726328D01*
X102402467Y-57513674D01*
X102027055Y-57439000D01*
X101172945Y-57439000D01*
X100797533Y-57513674D01*
X100479273Y-57726328D01*
X100266619Y-58044588D01*
X100191945Y-58420000D01*
X54748055Y-58420000D01*
X54673381Y-58044588D01*
X54460727Y-57726328D01*
X54142467Y-57513674D01*
X53767055Y-57439000D01*
X52912945Y-57439000D01*
X52537533Y-57513674D01*
X52219273Y-57726328D01*
X52006619Y-58044588D01*
X51931945Y-58420000D01*
X51244500Y-58420000D01*
X51244500Y-55880000D01*
X51931945Y-55880000D01*
X52006619Y-56255412D01*
X52219273Y-56573672D01*
X52537533Y-56786326D01*
X52912945Y-56861000D01*
X53767055Y-56861000D01*
X54142467Y-56786326D01*
X54460727Y-56573672D01*
X54673381Y-56255412D01*
X54748055Y-55880000D01*
X54673381Y-55504588D01*
X54460727Y-55186328D01*
X54142467Y-54973674D01*
X53767055Y-54899000D01*
X52912945Y-54899000D01*
X52537533Y-54973674D01*
X52219273Y-55186328D01*
X52006619Y-55504588D01*
X51931945Y-55880000D01*
X51244500Y-55880000D01*
X51244500Y-54864000D01*
X74947936Y-54864000D01*
X74947936Y-56896000D01*
X74974503Y-57037190D01*
X75057946Y-57166865D01*
X75185266Y-57253859D01*
X75336400Y-57284464D01*
X77063600Y-57284464D01*
X77204790Y-57257897D01*
X77334465Y-57174454D01*
X77421459Y-57047134D01*
X77452064Y-56896000D01*
X77452064Y-55700231D01*
X77495400Y-55700231D01*
X77495400Y-56059769D01*
X77590140Y-56536057D01*
X77859935Y-56939834D01*
X78263712Y-57209629D01*
X78740000Y-57304369D01*
X79216288Y-57209629D01*
X79620065Y-56939834D01*
X79889860Y-56536057D01*
X79984600Y-56059769D01*
X79984600Y-55700231D01*
X80035400Y-55700231D01*
X80035400Y-56059769D01*
X80130140Y-56536057D01*
X80399935Y-56939834D01*
X80803712Y-57209629D01*
X81280000Y-57304369D01*
X81756288Y-57209629D01*
X82160065Y-56939834D01*
X82429860Y-56536057D01*
X82432704Y-56521757D01*
X82528046Y-56794320D01*
X82917964Y-57230732D01*
X83445209Y-57484709D01*
X83460974Y-57487358D01*
X83693000Y-57366217D01*
X83693000Y-56007000D01*
X83947000Y-56007000D01*
X83947000Y-57366217D01*
X84179026Y-57487358D01*
X84194791Y-57484709D01*
X84722036Y-57230732D01*
X85111954Y-56794320D01*
X85305184Y-56241913D01*
X85160924Y-56007000D01*
X83947000Y-56007000D01*
X83693000Y-56007000D01*
X83673000Y-56007000D01*
X83673000Y-55880000D01*
X100191945Y-55880000D01*
X100266619Y-56255412D01*
X100479273Y-56573672D01*
X100797533Y-56786326D01*
X101172945Y-56861000D01*
X102027055Y-56861000D01*
X102402467Y-56786326D01*
X102720727Y-56573672D01*
X102933381Y-56255412D01*
X103008055Y-55880000D01*
X102933381Y-55504588D01*
X102720727Y-55186328D01*
X102402467Y-54973674D01*
X102027055Y-54899000D01*
X101172945Y-54899000D01*
X100797533Y-54973674D01*
X100479273Y-55186328D01*
X100266619Y-55504588D01*
X100191945Y-55880000D01*
X83673000Y-55880000D01*
X83673000Y-55753000D01*
X83693000Y-55753000D01*
X83693000Y-54393783D01*
X83947000Y-54393783D01*
X83947000Y-55753000D01*
X85160924Y-55753000D01*
X85305184Y-55518087D01*
X85111954Y-54965680D01*
X84722036Y-54529268D01*
X84194791Y-54275291D01*
X84179026Y-54272642D01*
X83947000Y-54393783D01*
X83693000Y-54393783D01*
X83460974Y-54272642D01*
X83445209Y-54275291D01*
X82917964Y-54529268D01*
X82528046Y-54965680D01*
X82432704Y-55238243D01*
X82429860Y-55223943D01*
X82160065Y-54820166D01*
X81756288Y-54550371D01*
X81280000Y-54455631D01*
X80803712Y-54550371D01*
X80399935Y-54820166D01*
X80130140Y-55223943D01*
X80035400Y-55700231D01*
X79984600Y-55700231D01*
X79889860Y-55223943D01*
X79620065Y-54820166D01*
X79216288Y-54550371D01*
X78740000Y-54455631D01*
X78263712Y-54550371D01*
X77859935Y-54820166D01*
X77590140Y-55223943D01*
X77495400Y-55700231D01*
X77452064Y-55700231D01*
X77452064Y-54864000D01*
X77425497Y-54722810D01*
X77342054Y-54593135D01*
X77214734Y-54506141D01*
X77063600Y-54475536D01*
X75336400Y-54475536D01*
X75195210Y-54502103D01*
X75065535Y-54585546D01*
X74978541Y-54712866D01*
X74947936Y-54864000D01*
X51244500Y-54864000D01*
X51244500Y-53340000D01*
X51931945Y-53340000D01*
X52006619Y-53715412D01*
X52219273Y-54033672D01*
X52537533Y-54246326D01*
X52912945Y-54321000D01*
X53767055Y-54321000D01*
X54142467Y-54246326D01*
X54460727Y-54033672D01*
X54673381Y-53715412D01*
X54748055Y-53340000D01*
X100191945Y-53340000D01*
X100266619Y-53715412D01*
X100479273Y-54033672D01*
X100797533Y-54246326D01*
X101172945Y-54321000D01*
X102027055Y-54321000D01*
X102402467Y-54246326D01*
X102720727Y-54033672D01*
X102933381Y-53715412D01*
X103008055Y-53340000D01*
X102933381Y-52964588D01*
X102720727Y-52646328D01*
X102402467Y-52433674D01*
X102027055Y-52359000D01*
X101172945Y-52359000D01*
X100797533Y-52433674D01*
X100479273Y-52646328D01*
X100266619Y-52964588D01*
X100191945Y-53340000D01*
X54748055Y-53340000D01*
X54673381Y-52964588D01*
X54460727Y-52646328D01*
X54142467Y-52433674D01*
X53767055Y-52359000D01*
X52912945Y-52359000D01*
X52537533Y-52433674D01*
X52219273Y-52646328D01*
X52006619Y-52964588D01*
X51931945Y-53340000D01*
X51244500Y-53340000D01*
X51244500Y-48704500D01*
X103695500Y-48704500D01*
X103695500Y-98615500D01*
M02*
