%TF.GenerationSoftware,KiCad,Pcbnew,4.0.2-stable*%
%TF.CreationDate,2016-06-06T20:31:45-04:00*%
%TF.ProjectId,Backpack,4261636B7061636B2E6B696361645F70,rev?*%
%TF.FileFunction,Soldermask,Top*%
%FSLAX46Y46*%
G04 Gerber Fmt 4.6, Leading zero omitted, Abs format (unit mm)*
G04 Created by KiCad (PCBNEW 4.0.2-stable) date 6/6/2016 8:31:45 PM*
%MOMM*%
G01*
G04 APERTURE LIST*
%ADD10C,0.127000*%
%ADD11O,2.100000X1.300000*%
%ADD12R,1.700000X1.100000*%
%ADD13R,1.100000X1.700000*%
%ADD14R,1.827200X2.132000*%
%ADD15O,1.827200X2.132000*%
%ADD16R,2.132000X1.827200*%
%ADD17O,2.132000X1.827200*%
%ADD18R,1.800000X1.000000*%
G04 APERTURE END LIST*
D10*
D11*
X53340000Y-53340000D03*
X101600000Y-88900000D03*
X101600000Y-86360000D03*
X101600000Y-83820000D03*
X101600000Y-81280000D03*
X101600000Y-78740000D03*
X101600000Y-76200000D03*
X101600000Y-73660000D03*
X101600000Y-71120000D03*
X101600000Y-66040000D03*
X101600000Y-63500000D03*
X101600000Y-60960000D03*
X101600000Y-58420000D03*
X101600000Y-55880000D03*
X101600000Y-53340000D03*
X53340000Y-97790000D03*
X53340000Y-95250000D03*
X53340000Y-92710000D03*
X53340000Y-90170000D03*
X53340000Y-87630000D03*
X53340000Y-85090000D03*
X53340000Y-82550000D03*
X53340000Y-80010000D03*
X53340000Y-77470000D03*
X53340000Y-74930000D03*
X53340000Y-71120000D03*
X53340000Y-68580000D03*
X53340000Y-66040000D03*
X53340000Y-63500000D03*
X53340000Y-60960000D03*
X53340000Y-58420000D03*
X53340000Y-55880000D03*
D12*
X60960000Y-63270000D03*
X60960000Y-66270000D03*
X68580000Y-63270000D03*
X68580000Y-66270000D03*
X68580000Y-88670000D03*
X68580000Y-91670000D03*
X60960000Y-88670000D03*
X60960000Y-91670000D03*
D13*
X79780000Y-53340000D03*
X82780000Y-53340000D03*
D14*
X76200000Y-55880000D03*
D15*
X78740000Y-55880000D03*
X81280000Y-55880000D03*
X83820000Y-55880000D03*
D16*
X58420000Y-63500000D03*
D17*
X58420000Y-66040000D03*
X58420000Y-68580000D03*
X58420000Y-71120000D03*
D16*
X66040000Y-88900000D03*
D17*
X66040000Y-91440000D03*
X66040000Y-93980000D03*
X66040000Y-96520000D03*
D16*
X66040000Y-63500000D03*
D17*
X66040000Y-66040000D03*
X66040000Y-68580000D03*
X66040000Y-71120000D03*
D16*
X58420000Y-88900000D03*
D17*
X58420000Y-91440000D03*
X58420000Y-93980000D03*
X58420000Y-96520000D03*
D18*
X58420000Y-59870000D03*
X58420000Y-56970000D03*
X66040000Y-56970000D03*
X66040000Y-59870000D03*
M02*
