%TF.GenerationSoftware,KiCad,Pcbnew,4.0.2-stable*%
%TF.CreationDate,2016-06-06T20:31:45-04:00*%
%TF.ProjectId,Backpack,4261636B7061636B2E6B696361645F70,rev?*%
%TF.FileFunction,Copper,L1,Top,Signal*%
%FSLAX46Y46*%
G04 Gerber Fmt 4.6, Leading zero omitted, Abs format (unit mm)*
G04 Created by KiCad (PCBNEW 4.0.2-stable) date 6/6/2016 8:31:45 PM*
%MOMM*%
G01*
G04 APERTURE LIST*
%ADD10C,0.127000*%
%ADD11O,2.000000X1.200000*%
%ADD12R,1.600000X1.000000*%
%ADD13R,1.000000X1.600000*%
%ADD14R,1.727200X2.032000*%
%ADD15O,1.727200X2.032000*%
%ADD16R,2.032000X1.727200*%
%ADD17O,2.032000X1.727200*%
%ADD18R,1.700000X0.900000*%
%ADD19C,0.685800*%
%ADD20C,0.600000*%
%ADD21C,0.800000*%
%ADD22C,0.500000*%
G04 APERTURE END LIST*
D10*
D11*
X53340000Y-53340000D03*
X101600000Y-88900000D03*
X101600000Y-86360000D03*
X101600000Y-83820000D03*
X101600000Y-81280000D03*
X101600000Y-78740000D03*
X101600000Y-76200000D03*
X101600000Y-73660000D03*
X101600000Y-71120000D03*
X101600000Y-66040000D03*
X101600000Y-63500000D03*
X101600000Y-60960000D03*
X101600000Y-58420000D03*
X101600000Y-55880000D03*
X101600000Y-53340000D03*
X53340000Y-97790000D03*
X53340000Y-95250000D03*
X53340000Y-92710000D03*
X53340000Y-90170000D03*
X53340000Y-87630000D03*
X53340000Y-85090000D03*
X53340000Y-82550000D03*
X53340000Y-80010000D03*
X53340000Y-77470000D03*
X53340000Y-74930000D03*
X53340000Y-71120000D03*
X53340000Y-68580000D03*
X53340000Y-66040000D03*
X53340000Y-63500000D03*
X53340000Y-60960000D03*
X53340000Y-58420000D03*
X53340000Y-55880000D03*
D12*
X60960000Y-63270000D03*
X60960000Y-66270000D03*
X68580000Y-63270000D03*
X68580000Y-66270000D03*
X68580000Y-88670000D03*
X68580000Y-91670000D03*
X60960000Y-88670000D03*
X60960000Y-91670000D03*
D13*
X79780000Y-53340000D03*
X82780000Y-53340000D03*
D14*
X76200000Y-55880000D03*
D15*
X78740000Y-55880000D03*
X81280000Y-55880000D03*
X83820000Y-55880000D03*
D16*
X58420000Y-63500000D03*
D17*
X58420000Y-66040000D03*
X58420000Y-68580000D03*
X58420000Y-71120000D03*
D16*
X66040000Y-88900000D03*
D17*
X66040000Y-91440000D03*
X66040000Y-93980000D03*
X66040000Y-96520000D03*
D16*
X66040000Y-63500000D03*
D17*
X66040000Y-66040000D03*
X66040000Y-68580000D03*
X66040000Y-71120000D03*
D16*
X58420000Y-88900000D03*
D17*
X58420000Y-91440000D03*
X58420000Y-93980000D03*
X58420000Y-96520000D03*
D18*
X58420000Y-59870000D03*
X58420000Y-56970000D03*
X66040000Y-56970000D03*
X66040000Y-59870000D03*
D19*
X68580000Y-72390000D03*
X55880000Y-92710000D03*
D20*
X68580000Y-86360000D02*
X66040000Y-88900000D01*
X68580000Y-72390000D02*
X68580000Y-86360000D01*
X60960000Y-88670000D02*
X65810000Y-88670000D01*
X65810000Y-88670000D02*
X66040000Y-88900000D01*
X60960000Y-63270000D02*
X58650000Y-63270000D01*
X58650000Y-63270000D02*
X58420000Y-63500000D01*
X66040000Y-63500000D02*
X61190000Y-63500000D01*
X61190000Y-63500000D02*
X60960000Y-63270000D01*
D21*
X68580000Y-63270000D02*
X68580000Y-56970000D01*
X68580000Y-56970000D02*
X68580000Y-57150000D01*
X68580000Y-57150000D02*
X68580000Y-56970000D01*
X66040000Y-88900000D02*
X68350000Y-88900000D01*
X68350000Y-88900000D02*
X68580000Y-88670000D01*
X58420000Y-88900000D02*
X60730000Y-88900000D01*
X60730000Y-88900000D02*
X60960000Y-88670000D01*
X66040000Y-63500000D02*
X68350000Y-63500000D01*
X68350000Y-63500000D02*
X68580000Y-63270000D01*
X66040000Y-56970000D02*
X60960000Y-56970000D01*
X60960000Y-56970000D02*
X58420000Y-56970000D01*
X101600000Y-81280000D02*
X100330000Y-81280000D01*
X69670000Y-56970000D02*
X68580000Y-56970000D01*
X72390000Y-59690000D02*
X69670000Y-56970000D01*
X91440000Y-59690000D02*
X72390000Y-59690000D01*
X96520000Y-64770000D02*
X91440000Y-59690000D01*
X96520000Y-77470000D02*
X96520000Y-64770000D01*
X100330000Y-81280000D02*
X96520000Y-77470000D01*
X68580000Y-56970000D02*
X66040000Y-56970000D01*
D20*
X66040000Y-91440000D02*
X68350000Y-91440000D01*
X68350000Y-91440000D02*
X68580000Y-91670000D01*
X60960000Y-66270000D02*
X65810000Y-66270000D01*
X65810000Y-66270000D02*
X66040000Y-66040000D01*
X66040000Y-66040000D02*
X68350000Y-66040000D01*
X68350000Y-66040000D02*
X68580000Y-66270000D01*
X58420000Y-66040000D02*
X60730000Y-66040000D01*
X60730000Y-66040000D02*
X60960000Y-66270000D01*
X60960000Y-91670000D02*
X65810000Y-91670000D01*
X65810000Y-91670000D02*
X66040000Y-91440000D01*
X58420000Y-91440000D02*
X60730000Y-91440000D01*
X60730000Y-91440000D02*
X60960000Y-91670000D01*
D21*
X82780000Y-53340000D02*
X82780000Y-54840000D01*
X82780000Y-54840000D02*
X83820000Y-55880000D01*
D20*
X76200000Y-55880000D02*
X78740000Y-55880000D01*
D21*
X79780000Y-53340000D02*
X79780000Y-52300000D01*
X97790000Y-74930000D02*
X101600000Y-78740000D01*
X97790000Y-63500000D02*
X97790000Y-74930000D01*
X85090000Y-50800000D02*
X97790000Y-63500000D01*
X81280000Y-50800000D02*
X85090000Y-50800000D01*
X79780000Y-52300000D02*
X81280000Y-50800000D01*
X78740000Y-55880000D02*
X78740000Y-54380000D01*
X78740000Y-54380000D02*
X79780000Y-53340000D01*
X53340000Y-58420000D02*
X55880000Y-55880000D01*
X81280000Y-57150000D02*
X81280000Y-55880000D01*
X80010000Y-58420000D02*
X81280000Y-57150000D01*
X73660000Y-58420000D02*
X80010000Y-58420000D01*
X69850000Y-54610000D02*
X73660000Y-58420000D01*
X57150000Y-54610000D02*
X69850000Y-54610000D01*
X55880000Y-55880000D02*
X57150000Y-54610000D01*
D20*
X58420000Y-93980000D02*
X66040000Y-93980000D01*
X53340000Y-97790000D02*
X52705000Y-97790000D01*
X52705000Y-97790000D02*
X51435000Y-96520000D01*
X51435000Y-96520000D02*
X51435000Y-94615000D01*
X51435000Y-94615000D02*
X52070000Y-93980000D01*
X52070000Y-93980000D02*
X58420000Y-93980000D01*
X66040000Y-68580000D02*
X67310000Y-68580000D01*
X67310000Y-68580000D02*
X70485000Y-71755000D01*
X70485000Y-71755000D02*
X70485000Y-92075000D01*
X70485000Y-92075000D02*
X68580000Y-93980000D01*
X68580000Y-93980000D02*
X66040000Y-93980000D01*
X58420000Y-68580000D02*
X66040000Y-68580000D01*
X58420000Y-59870000D02*
X56970000Y-59870000D01*
X56515000Y-66675000D02*
X58420000Y-68580000D01*
X56515000Y-60325000D02*
X56515000Y-66675000D01*
X56970000Y-59870000D02*
X56515000Y-60325000D01*
X58420000Y-80645000D02*
X58420000Y-71120000D01*
X55880000Y-83185000D02*
X58420000Y-80645000D01*
X55880000Y-92710000D02*
X55880000Y-83185000D01*
X58420000Y-96520000D02*
X66040000Y-96520000D01*
X53340000Y-95250000D02*
X57150000Y-95250000D01*
X57150000Y-95250000D02*
X58420000Y-96520000D01*
X66040000Y-59870000D02*
X61775000Y-59870000D01*
X61775000Y-59870000D02*
X60325000Y-58420000D01*
X60325000Y-58420000D02*
X56515000Y-58420000D01*
X56515000Y-58420000D02*
X55245000Y-59690000D01*
X55245000Y-59690000D02*
X55245000Y-67945000D01*
X55245000Y-67945000D02*
X58420000Y-71120000D01*
D22*
X58420000Y-71120000D02*
X66040000Y-71120000D01*
M02*
