%TF.GenerationSoftware,KiCad,Pcbnew,4.0.2-stable*%
%TF.CreationDate,2016-06-06T20:31:45-04:00*%
%TF.ProjectId,Backpack,4261636B7061636B2E6B696361645F70,rev?*%
%TF.FileFunction,Legend,Top*%
%FSLAX46Y46*%
G04 Gerber Fmt 4.6, Leading zero omitted, Abs format (unit mm)*
G04 Created by KiCad (PCBNEW 4.0.2-stable) date 6/6/2016 8:31:45 PM*
%MOMM*%
G01*
G04 APERTURE LIST*
%ADD10C,0.127000*%
%ADD11C,0.150000*%
G04 APERTURE END LIST*
D10*
D11*
X50800000Y-99060000D02*
X104140000Y-99060000D01*
X104140000Y-99060000D02*
X104140000Y-50800000D01*
X104140000Y-50800000D02*
X50800000Y-50800000D01*
X50800000Y-50800000D02*
X50800000Y-99060000D01*
X103100000Y-90000000D02*
X100100000Y-90000000D01*
X100100000Y-87630000D02*
X103100000Y-87630000D01*
X61985000Y-65770000D02*
X61985000Y-63770000D01*
X59935000Y-63770000D02*
X59935000Y-65770000D01*
X69605000Y-65770000D02*
X69605000Y-63770000D01*
X67555000Y-63770000D02*
X67555000Y-65770000D01*
X69605000Y-91170000D02*
X69605000Y-89170000D01*
X67555000Y-89170000D02*
X67555000Y-91170000D01*
X61985000Y-91170000D02*
X61985000Y-89170000D01*
X59935000Y-89170000D02*
X59935000Y-91170000D01*
X82280000Y-52315000D02*
X80280000Y-52315000D01*
X80280000Y-54365000D02*
X82280000Y-54365000D01*
X77470000Y-57150000D02*
X85090000Y-57150000D01*
X77470000Y-54610000D02*
X85090000Y-54610000D01*
X74650000Y-54330000D02*
X76200000Y-54330000D01*
X85090000Y-57150000D02*
X85090000Y-54610000D01*
X77470000Y-54610000D02*
X77470000Y-57150000D01*
X76200000Y-57430000D02*
X74650000Y-57430000D01*
X74650000Y-57430000D02*
X74650000Y-54330000D01*
X57150000Y-64770000D02*
X57150000Y-72390000D01*
X59690000Y-64770000D02*
X59690000Y-72390000D01*
X59970000Y-61950000D02*
X59970000Y-63500000D01*
X57150000Y-72390000D02*
X59690000Y-72390000D01*
X59690000Y-64770000D02*
X57150000Y-64770000D01*
X56870000Y-63500000D02*
X56870000Y-61950000D01*
X56870000Y-61950000D02*
X59970000Y-61950000D01*
X64770000Y-90170000D02*
X64770000Y-97790000D01*
X67310000Y-90170000D02*
X67310000Y-97790000D01*
X67590000Y-87350000D02*
X67590000Y-88900000D01*
X64770000Y-97790000D02*
X67310000Y-97790000D01*
X67310000Y-90170000D02*
X64770000Y-90170000D01*
X64490000Y-88900000D02*
X64490000Y-87350000D01*
X64490000Y-87350000D02*
X67590000Y-87350000D01*
X64770000Y-64770000D02*
X64770000Y-72390000D01*
X67310000Y-64770000D02*
X67310000Y-72390000D01*
X67590000Y-61950000D02*
X67590000Y-63500000D01*
X64770000Y-72390000D02*
X67310000Y-72390000D01*
X67310000Y-64770000D02*
X64770000Y-64770000D01*
X64490000Y-63500000D02*
X64490000Y-61950000D01*
X64490000Y-61950000D02*
X67590000Y-61950000D01*
X57150000Y-90170000D02*
X57150000Y-97790000D01*
X59690000Y-90170000D02*
X59690000Y-97790000D01*
X59970000Y-87350000D02*
X59970000Y-88900000D01*
X57150000Y-97790000D02*
X59690000Y-97790000D01*
X59690000Y-90170000D02*
X57150000Y-90170000D01*
X56870000Y-88900000D02*
X56870000Y-87350000D01*
X56870000Y-87350000D02*
X59970000Y-87350000D01*
X59495000Y-57420000D02*
X59495000Y-59420000D01*
X57345000Y-59420000D02*
X57345000Y-57420000D01*
X64965000Y-59420000D02*
X64965000Y-57420000D01*
X67115000Y-57420000D02*
X67115000Y-59420000D01*
X61317143Y-61126666D02*
X61364762Y-61174285D01*
X61412381Y-61317142D01*
X61412381Y-61412380D01*
X61364762Y-61555238D01*
X61269524Y-61650476D01*
X61174286Y-61698095D01*
X60983810Y-61745714D01*
X60840952Y-61745714D01*
X60650476Y-61698095D01*
X60555238Y-61650476D01*
X60460000Y-61555238D01*
X60412381Y-61412380D01*
X60412381Y-61317142D01*
X60460000Y-61174285D01*
X60507619Y-61126666D01*
X61412381Y-60174285D02*
X61412381Y-60745714D01*
X61412381Y-60460000D02*
X60412381Y-60460000D01*
X60555238Y-60555238D01*
X60650476Y-60650476D01*
X60698095Y-60745714D01*
X68937143Y-61126666D02*
X68984762Y-61174285D01*
X69032381Y-61317142D01*
X69032381Y-61412380D01*
X68984762Y-61555238D01*
X68889524Y-61650476D01*
X68794286Y-61698095D01*
X68603810Y-61745714D01*
X68460952Y-61745714D01*
X68270476Y-61698095D01*
X68175238Y-61650476D01*
X68080000Y-61555238D01*
X68032381Y-61412380D01*
X68032381Y-61317142D01*
X68080000Y-61174285D01*
X68127619Y-61126666D01*
X68127619Y-60745714D02*
X68080000Y-60698095D01*
X68032381Y-60602857D01*
X68032381Y-60364761D01*
X68080000Y-60269523D01*
X68127619Y-60221904D01*
X68222857Y-60174285D01*
X68318095Y-60174285D01*
X68460952Y-60221904D01*
X69032381Y-60793333D01*
X69032381Y-60174285D01*
X71237143Y-90336666D02*
X71284762Y-90384285D01*
X71332381Y-90527142D01*
X71332381Y-90622380D01*
X71284762Y-90765238D01*
X71189524Y-90860476D01*
X71094286Y-90908095D01*
X70903810Y-90955714D01*
X70760952Y-90955714D01*
X70570476Y-90908095D01*
X70475238Y-90860476D01*
X70380000Y-90765238D01*
X70332381Y-90622380D01*
X70332381Y-90527142D01*
X70380000Y-90384285D01*
X70427619Y-90336666D01*
X70332381Y-90003333D02*
X70332381Y-89384285D01*
X70713333Y-89717619D01*
X70713333Y-89574761D01*
X70760952Y-89479523D01*
X70808571Y-89431904D01*
X70903810Y-89384285D01*
X71141905Y-89384285D01*
X71237143Y-89431904D01*
X71284762Y-89479523D01*
X71332381Y-89574761D01*
X71332381Y-89860476D01*
X71284762Y-89955714D01*
X71237143Y-90003333D01*
X61317143Y-86526666D02*
X61364762Y-86574285D01*
X61412381Y-86717142D01*
X61412381Y-86812380D01*
X61364762Y-86955238D01*
X61269524Y-87050476D01*
X61174286Y-87098095D01*
X60983810Y-87145714D01*
X60840952Y-87145714D01*
X60650476Y-87098095D01*
X60555238Y-87050476D01*
X60460000Y-86955238D01*
X60412381Y-86812380D01*
X60412381Y-86717142D01*
X60460000Y-86574285D01*
X60507619Y-86526666D01*
X60745714Y-85669523D02*
X61412381Y-85669523D01*
X60364762Y-85907619D02*
X61079048Y-86145714D01*
X61079048Y-85526666D01*
X77303334Y-53697143D02*
X77255715Y-53744762D01*
X77112858Y-53792381D01*
X77017620Y-53792381D01*
X76874762Y-53744762D01*
X76779524Y-53649524D01*
X76731905Y-53554286D01*
X76684286Y-53363810D01*
X76684286Y-53220952D01*
X76731905Y-53030476D01*
X76779524Y-52935238D01*
X76874762Y-52840000D01*
X77017620Y-52792381D01*
X77112858Y-52792381D01*
X77255715Y-52840000D01*
X77303334Y-52887619D01*
X78208096Y-52792381D02*
X77731905Y-52792381D01*
X77684286Y-53268571D01*
X77731905Y-53220952D01*
X77827143Y-53173333D01*
X78065239Y-53173333D01*
X78160477Y-53220952D01*
X78208096Y-53268571D01*
X78255715Y-53363810D01*
X78255715Y-53601905D01*
X78208096Y-53697143D01*
X78160477Y-53744762D01*
X78065239Y-53792381D01*
X77827143Y-53792381D01*
X77731905Y-53744762D01*
X77684286Y-53697143D01*
X74112381Y-56618095D02*
X73112381Y-56618095D01*
X73112381Y-56237142D01*
X73160000Y-56141904D01*
X73207619Y-56094285D01*
X73302857Y-56046666D01*
X73445714Y-56046666D01*
X73540952Y-56094285D01*
X73588571Y-56141904D01*
X73636190Y-56237142D01*
X73636190Y-56618095D01*
X74112381Y-55094285D02*
X74112381Y-55665714D01*
X74112381Y-55380000D02*
X73112381Y-55380000D01*
X73255238Y-55475238D01*
X73350476Y-55570476D01*
X73398095Y-55665714D01*
X57681905Y-74112381D02*
X57681905Y-73112381D01*
X58062858Y-73112381D01*
X58158096Y-73160000D01*
X58205715Y-73207619D01*
X58253334Y-73302857D01*
X58253334Y-73445714D01*
X58205715Y-73540952D01*
X58158096Y-73588571D01*
X58062858Y-73636190D01*
X57681905Y-73636190D01*
X58634286Y-73207619D02*
X58681905Y-73160000D01*
X58777143Y-73112381D01*
X59015239Y-73112381D01*
X59110477Y-73160000D01*
X59158096Y-73207619D01*
X59205715Y-73302857D01*
X59205715Y-73398095D01*
X59158096Y-73540952D01*
X58586667Y-74112381D01*
X59205715Y-74112381D01*
X65301905Y-86812381D02*
X65301905Y-85812381D01*
X65682858Y-85812381D01*
X65778096Y-85860000D01*
X65825715Y-85907619D01*
X65873334Y-86002857D01*
X65873334Y-86145714D01*
X65825715Y-86240952D01*
X65778096Y-86288571D01*
X65682858Y-86336190D01*
X65301905Y-86336190D01*
X66206667Y-85812381D02*
X66825715Y-85812381D01*
X66492381Y-86193333D01*
X66635239Y-86193333D01*
X66730477Y-86240952D01*
X66778096Y-86288571D01*
X66825715Y-86383810D01*
X66825715Y-86621905D01*
X66778096Y-86717143D01*
X66730477Y-86764762D01*
X66635239Y-86812381D01*
X66349524Y-86812381D01*
X66254286Y-86764762D01*
X66206667Y-86717143D01*
X65301905Y-74112381D02*
X65301905Y-73112381D01*
X65682858Y-73112381D01*
X65778096Y-73160000D01*
X65825715Y-73207619D01*
X65873334Y-73302857D01*
X65873334Y-73445714D01*
X65825715Y-73540952D01*
X65778096Y-73588571D01*
X65682858Y-73636190D01*
X65301905Y-73636190D01*
X66730477Y-73445714D02*
X66730477Y-74112381D01*
X66492381Y-73064762D02*
X66254286Y-73779048D01*
X66873334Y-73779048D01*
X57681905Y-86812381D02*
X57681905Y-85812381D01*
X58062858Y-85812381D01*
X58158096Y-85860000D01*
X58205715Y-85907619D01*
X58253334Y-86002857D01*
X58253334Y-86145714D01*
X58205715Y-86240952D01*
X58158096Y-86288571D01*
X58062858Y-86336190D01*
X57681905Y-86336190D01*
X59158096Y-85812381D02*
X58681905Y-85812381D01*
X58634286Y-86288571D01*
X58681905Y-86240952D01*
X58777143Y-86193333D01*
X59015239Y-86193333D01*
X59110477Y-86240952D01*
X59158096Y-86288571D01*
X59205715Y-86383810D01*
X59205715Y-86621905D01*
X59158096Y-86717143D01*
X59110477Y-86764762D01*
X59015239Y-86812381D01*
X58777143Y-86812381D01*
X58681905Y-86764762D01*
X58634286Y-86717143D01*
X58872381Y-54776666D02*
X58396190Y-55110000D01*
X58872381Y-55348095D02*
X57872381Y-55348095D01*
X57872381Y-54967142D01*
X57920000Y-54871904D01*
X57967619Y-54824285D01*
X58062857Y-54776666D01*
X58205714Y-54776666D01*
X58300952Y-54824285D01*
X58348571Y-54871904D01*
X58396190Y-54967142D01*
X58396190Y-55348095D01*
X58872381Y-53824285D02*
X58872381Y-54395714D01*
X58872381Y-54110000D02*
X57872381Y-54110000D01*
X58015238Y-54205238D01*
X58110476Y-54300476D01*
X58158095Y-54395714D01*
X66492381Y-54776666D02*
X66016190Y-55110000D01*
X66492381Y-55348095D02*
X65492381Y-55348095D01*
X65492381Y-54967142D01*
X65540000Y-54871904D01*
X65587619Y-54824285D01*
X65682857Y-54776666D01*
X65825714Y-54776666D01*
X65920952Y-54824285D01*
X65968571Y-54871904D01*
X66016190Y-54967142D01*
X66016190Y-55348095D01*
X65587619Y-54395714D02*
X65540000Y-54348095D01*
X65492381Y-54252857D01*
X65492381Y-54014761D01*
X65540000Y-53919523D01*
X65587619Y-53871904D01*
X65682857Y-53824285D01*
X65778095Y-53824285D01*
X65920952Y-53871904D01*
X66492381Y-54443333D01*
X66492381Y-53824285D01*
M02*
