%TF.GenerationSoftware,KiCad,Pcbnew,4.0.2-stable*%
%TF.CreationDate,2016-04-01T20:16:44-04:00*%
%TF.ProjectId,MS56110 Breakout,4D53353631313020427265616B6F7574,rev?*%
%TF.FileFunction,Copper,L2,Bot,Signal*%
%FSLAX46Y46*%
G04 Gerber Fmt 4.6, Leading zero omitted, Abs format (unit mm)*
G04 Created by KiCad (PCBNEW 4.0.2-stable) date 4/1/2016 8:16:44 PM*
%MOMM*%
G01*
G04 APERTURE LIST*
%ADD10C,0.127000*%
%ADD11R,2.032000X1.727200*%
%ADD12O,2.032000X1.727200*%
%ADD13C,0.685800*%
%ADD14C,0.300000*%
%ADD15C,0.254000*%
G04 APERTURE END LIST*
D10*
D11*
X135890000Y-104140000D03*
D12*
X135890000Y-106680000D03*
X135890000Y-109220000D03*
X135890000Y-111760000D03*
D13*
X142240000Y-104140000D03*
D14*
X135890000Y-109220000D02*
X137160000Y-109220000D01*
X137160000Y-109220000D02*
X142240000Y-104140000D01*
D15*
G36*
X148907500Y-113347500D02*
X134302500Y-113347500D01*
X134302500Y-111760000D01*
X134465631Y-111760000D01*
X134560371Y-112236288D01*
X134830166Y-112640065D01*
X135233943Y-112909860D01*
X135710231Y-113004600D01*
X136069769Y-113004600D01*
X136546057Y-112909860D01*
X136949834Y-112640065D01*
X137219629Y-112236288D01*
X137314369Y-111760000D01*
X137219629Y-111283712D01*
X136949834Y-110879935D01*
X136546057Y-110610140D01*
X136069769Y-110515400D01*
X135710231Y-110515400D01*
X135233943Y-110610140D01*
X134830166Y-110879935D01*
X134560371Y-111283712D01*
X134465631Y-111760000D01*
X134302500Y-111760000D01*
X134302500Y-107090516D01*
X134539268Y-107582036D01*
X134975680Y-107971954D01*
X135248243Y-108067296D01*
X135233943Y-108070140D01*
X134830166Y-108339935D01*
X134560371Y-108743712D01*
X134465631Y-109220000D01*
X134560371Y-109696288D01*
X134830166Y-110100065D01*
X135233943Y-110369860D01*
X135710231Y-110464600D01*
X136069769Y-110464600D01*
X136546057Y-110369860D01*
X136949834Y-110100065D01*
X137186608Y-109745707D01*
X137363205Y-109710580D01*
X137535474Y-109595474D01*
X142267024Y-104863924D01*
X142383361Y-104864025D01*
X142649521Y-104754050D01*
X142853335Y-104550592D01*
X142963774Y-104284624D01*
X142964025Y-103996639D01*
X142854050Y-103730479D01*
X142650592Y-103526665D01*
X142384624Y-103416226D01*
X142096639Y-103415975D01*
X141830479Y-103525950D01*
X141626665Y-103729408D01*
X141516226Y-103995376D01*
X141516124Y-104112928D01*
X137085732Y-108543320D01*
X136949834Y-108339935D01*
X136546057Y-108070140D01*
X136531757Y-108067296D01*
X136804320Y-107971954D01*
X137240732Y-107582036D01*
X137494709Y-107054791D01*
X137497358Y-107039026D01*
X137376217Y-106807000D01*
X136017000Y-106807000D01*
X136017000Y-106827000D01*
X135763000Y-106827000D01*
X135763000Y-106807000D01*
X135743000Y-106807000D01*
X135743000Y-106553000D01*
X135763000Y-106553000D01*
X135763000Y-106533000D01*
X136017000Y-106533000D01*
X136017000Y-106553000D01*
X137376217Y-106553000D01*
X137497358Y-106320974D01*
X137494709Y-106305209D01*
X137240732Y-105777964D01*
X136808817Y-105392064D01*
X136906000Y-105392064D01*
X137047190Y-105365497D01*
X137176865Y-105282054D01*
X137263859Y-105154734D01*
X137294464Y-105003600D01*
X137294464Y-103276400D01*
X137267897Y-103135210D01*
X137184454Y-103005535D01*
X137057134Y-102918541D01*
X136906000Y-102887936D01*
X134874000Y-102887936D01*
X134732810Y-102914503D01*
X134603135Y-102997946D01*
X134516141Y-103125266D01*
X134485536Y-103276400D01*
X134485536Y-105003600D01*
X134512103Y-105144790D01*
X134595546Y-105274465D01*
X134722866Y-105361459D01*
X134874000Y-105392064D01*
X134971183Y-105392064D01*
X134539268Y-105777964D01*
X134302500Y-106269484D01*
X134302500Y-102552500D01*
X148907500Y-102552500D01*
X148907500Y-113347500D01*
X148907500Y-113347500D01*
G37*
X148907500Y-113347500D02*
X134302500Y-113347500D01*
X134302500Y-111760000D01*
X134465631Y-111760000D01*
X134560371Y-112236288D01*
X134830166Y-112640065D01*
X135233943Y-112909860D01*
X135710231Y-113004600D01*
X136069769Y-113004600D01*
X136546057Y-112909860D01*
X136949834Y-112640065D01*
X137219629Y-112236288D01*
X137314369Y-111760000D01*
X137219629Y-111283712D01*
X136949834Y-110879935D01*
X136546057Y-110610140D01*
X136069769Y-110515400D01*
X135710231Y-110515400D01*
X135233943Y-110610140D01*
X134830166Y-110879935D01*
X134560371Y-111283712D01*
X134465631Y-111760000D01*
X134302500Y-111760000D01*
X134302500Y-107090516D01*
X134539268Y-107582036D01*
X134975680Y-107971954D01*
X135248243Y-108067296D01*
X135233943Y-108070140D01*
X134830166Y-108339935D01*
X134560371Y-108743712D01*
X134465631Y-109220000D01*
X134560371Y-109696288D01*
X134830166Y-110100065D01*
X135233943Y-110369860D01*
X135710231Y-110464600D01*
X136069769Y-110464600D01*
X136546057Y-110369860D01*
X136949834Y-110100065D01*
X137186608Y-109745707D01*
X137363205Y-109710580D01*
X137535474Y-109595474D01*
X142267024Y-104863924D01*
X142383361Y-104864025D01*
X142649521Y-104754050D01*
X142853335Y-104550592D01*
X142963774Y-104284624D01*
X142964025Y-103996639D01*
X142854050Y-103730479D01*
X142650592Y-103526665D01*
X142384624Y-103416226D01*
X142096639Y-103415975D01*
X141830479Y-103525950D01*
X141626665Y-103729408D01*
X141516226Y-103995376D01*
X141516124Y-104112928D01*
X137085732Y-108543320D01*
X136949834Y-108339935D01*
X136546057Y-108070140D01*
X136531757Y-108067296D01*
X136804320Y-107971954D01*
X137240732Y-107582036D01*
X137494709Y-107054791D01*
X137497358Y-107039026D01*
X137376217Y-106807000D01*
X136017000Y-106807000D01*
X136017000Y-106827000D01*
X135763000Y-106827000D01*
X135763000Y-106807000D01*
X135743000Y-106807000D01*
X135743000Y-106553000D01*
X135763000Y-106553000D01*
X135763000Y-106533000D01*
X136017000Y-106533000D01*
X136017000Y-106553000D01*
X137376217Y-106553000D01*
X137497358Y-106320974D01*
X137494709Y-106305209D01*
X137240732Y-105777964D01*
X136808817Y-105392064D01*
X136906000Y-105392064D01*
X137047190Y-105365497D01*
X137176865Y-105282054D01*
X137263859Y-105154734D01*
X137294464Y-105003600D01*
X137294464Y-103276400D01*
X137267897Y-103135210D01*
X137184454Y-103005535D01*
X137057134Y-102918541D01*
X136906000Y-102887936D01*
X134874000Y-102887936D01*
X134732810Y-102914503D01*
X134603135Y-102997946D01*
X134516141Y-103125266D01*
X134485536Y-103276400D01*
X134485536Y-105003600D01*
X134512103Y-105144790D01*
X134595546Y-105274465D01*
X134722866Y-105361459D01*
X134874000Y-105392064D01*
X134971183Y-105392064D01*
X134539268Y-105777964D01*
X134302500Y-106269484D01*
X134302500Y-102552500D01*
X148907500Y-102552500D01*
X148907500Y-113347500D01*
M02*
