%TF.GenerationSoftware,KiCad,Pcbnew,4.0.2-stable*%
%TF.CreationDate,2016-04-05T17:50:52-04:00*%
%TF.ProjectId,ADXL345 Breakout,4144584C33343520427265616B6F7574,rev?*%
%TF.FileFunction,Copper,L2,Bot,Signal*%
%FSLAX46Y46*%
G04 Gerber Fmt 4.6, Leading zero omitted, Abs format (unit mm)*
G04 Created by KiCad (PCBNEW 4.0.2-stable) date 4/5/2016 5:50:52 PM*
%MOMM*%
G01*
G04 APERTURE LIST*
%ADD10C,0.127000*%
%ADD11R,2.032000X1.727200*%
%ADD12O,2.032000X1.727200*%
%ADD13C,0.685800*%
%ADD14C,0.500000*%
%ADD15C,0.254000*%
G04 APERTURE END LIST*
D10*
D11*
X165100000Y-108712000D03*
D12*
X165100000Y-106172000D03*
X165100000Y-103632000D03*
X165100000Y-101092000D03*
X165100000Y-98552000D03*
X165100000Y-96012000D03*
D13*
X168656000Y-99568000D03*
X178308000Y-104140000D03*
X172212000Y-108204000D03*
D14*
X165100000Y-108712000D02*
X166624000Y-108712000D01*
X168656000Y-106680000D02*
X168656000Y-99568000D01*
X166624000Y-108712000D02*
X168656000Y-106680000D01*
X172212000Y-108204000D02*
X174244000Y-108204000D01*
X174244000Y-108204000D02*
X178308000Y-104140000D01*
X165100000Y-108712000D02*
X171704000Y-108712000D01*
X171704000Y-108712000D02*
X172212000Y-108204000D01*
D15*
G36*
X182943500Y-110807500D02*
X163512500Y-110807500D01*
X163512500Y-106582516D01*
X163749268Y-107074036D01*
X164181183Y-107459936D01*
X164084000Y-107459936D01*
X163942810Y-107486503D01*
X163813135Y-107569946D01*
X163726141Y-107697266D01*
X163695536Y-107848400D01*
X163695536Y-109575600D01*
X163722103Y-109716790D01*
X163805546Y-109846465D01*
X163932866Y-109933459D01*
X164084000Y-109964064D01*
X166116000Y-109964064D01*
X166257190Y-109937497D01*
X166386865Y-109854054D01*
X166473859Y-109726734D01*
X166504464Y-109575600D01*
X166504464Y-109343000D01*
X171704000Y-109343000D01*
X171945473Y-109294968D01*
X172150184Y-109158184D01*
X172397934Y-108910434D01*
X172580499Y-108835000D01*
X174244000Y-108835000D01*
X174485473Y-108786968D01*
X174690184Y-108650184D01*
X178493934Y-104846434D01*
X178717521Y-104754050D01*
X178921335Y-104550592D01*
X179031774Y-104284624D01*
X179032025Y-103996639D01*
X178922050Y-103730479D01*
X178718592Y-103526665D01*
X178452624Y-103416226D01*
X178164639Y-103415975D01*
X177898479Y-103525950D01*
X177694665Y-103729408D01*
X177601247Y-103954385D01*
X173982632Y-107573000D01*
X172580050Y-107573000D01*
X172356624Y-107480226D01*
X172068639Y-107479975D01*
X171802479Y-107589950D01*
X171598665Y-107793408D01*
X171505247Y-108018384D01*
X171442632Y-108081000D01*
X168147368Y-108081000D01*
X169102184Y-107126184D01*
X169238968Y-106921473D01*
X169287000Y-106680000D01*
X169287000Y-99936050D01*
X169379774Y-99712624D01*
X169380025Y-99424639D01*
X169270050Y-99158479D01*
X169066592Y-98954665D01*
X168800624Y-98844226D01*
X168512639Y-98843975D01*
X168246479Y-98953950D01*
X168042665Y-99157408D01*
X167932226Y-99423376D01*
X167931975Y-99711361D01*
X168025000Y-99936499D01*
X168025000Y-106418632D01*
X166504464Y-107939168D01*
X166504464Y-107848400D01*
X166477897Y-107707210D01*
X166394454Y-107577535D01*
X166267134Y-107490541D01*
X166116000Y-107459936D01*
X166018817Y-107459936D01*
X166450732Y-107074036D01*
X166704709Y-106546791D01*
X166707358Y-106531026D01*
X166586217Y-106299000D01*
X165227000Y-106299000D01*
X165227000Y-106319000D01*
X164973000Y-106319000D01*
X164973000Y-106299000D01*
X164953000Y-106299000D01*
X164953000Y-106045000D01*
X164973000Y-106045000D01*
X164973000Y-106025000D01*
X165227000Y-106025000D01*
X165227000Y-106045000D01*
X166586217Y-106045000D01*
X166707358Y-105812974D01*
X166704709Y-105797209D01*
X166450732Y-105269964D01*
X166014320Y-104880046D01*
X165741757Y-104784704D01*
X165756057Y-104781860D01*
X166159834Y-104512065D01*
X166429629Y-104108288D01*
X166524369Y-103632000D01*
X166429629Y-103155712D01*
X166159834Y-102751935D01*
X165756057Y-102482140D01*
X165279769Y-102387400D01*
X164920231Y-102387400D01*
X164443943Y-102482140D01*
X164040166Y-102751935D01*
X163770371Y-103155712D01*
X163675631Y-103632000D01*
X163770371Y-104108288D01*
X164040166Y-104512065D01*
X164443943Y-104781860D01*
X164458243Y-104784704D01*
X164185680Y-104880046D01*
X163749268Y-105269964D01*
X163512500Y-105761484D01*
X163512500Y-101092000D01*
X163675631Y-101092000D01*
X163770371Y-101568288D01*
X164040166Y-101972065D01*
X164443943Y-102241860D01*
X164920231Y-102336600D01*
X165279769Y-102336600D01*
X165756057Y-102241860D01*
X166159834Y-101972065D01*
X166429629Y-101568288D01*
X166524369Y-101092000D01*
X166429629Y-100615712D01*
X166159834Y-100211935D01*
X165756057Y-99942140D01*
X165279769Y-99847400D01*
X164920231Y-99847400D01*
X164443943Y-99942140D01*
X164040166Y-100211935D01*
X163770371Y-100615712D01*
X163675631Y-101092000D01*
X163512500Y-101092000D01*
X163512500Y-98552000D01*
X163675631Y-98552000D01*
X163770371Y-99028288D01*
X164040166Y-99432065D01*
X164443943Y-99701860D01*
X164920231Y-99796600D01*
X165279769Y-99796600D01*
X165756057Y-99701860D01*
X166159834Y-99432065D01*
X166429629Y-99028288D01*
X166524369Y-98552000D01*
X166429629Y-98075712D01*
X166159834Y-97671935D01*
X165756057Y-97402140D01*
X165279769Y-97307400D01*
X164920231Y-97307400D01*
X164443943Y-97402140D01*
X164040166Y-97671935D01*
X163770371Y-98075712D01*
X163675631Y-98552000D01*
X163512500Y-98552000D01*
X163512500Y-96012000D01*
X163675631Y-96012000D01*
X163770371Y-96488288D01*
X164040166Y-96892065D01*
X164443943Y-97161860D01*
X164920231Y-97256600D01*
X165279769Y-97256600D01*
X165756057Y-97161860D01*
X166159834Y-96892065D01*
X166429629Y-96488288D01*
X166524369Y-96012000D01*
X166429629Y-95535712D01*
X166159834Y-95131935D01*
X165756057Y-94862140D01*
X165279769Y-94767400D01*
X164920231Y-94767400D01*
X164443943Y-94862140D01*
X164040166Y-95131935D01*
X163770371Y-95535712D01*
X163675631Y-96012000D01*
X163512500Y-96012000D01*
X163512500Y-94424500D01*
X182943500Y-94424500D01*
X182943500Y-110807500D01*
X182943500Y-110807500D01*
G37*
X182943500Y-110807500D02*
X163512500Y-110807500D01*
X163512500Y-106582516D01*
X163749268Y-107074036D01*
X164181183Y-107459936D01*
X164084000Y-107459936D01*
X163942810Y-107486503D01*
X163813135Y-107569946D01*
X163726141Y-107697266D01*
X163695536Y-107848400D01*
X163695536Y-109575600D01*
X163722103Y-109716790D01*
X163805546Y-109846465D01*
X163932866Y-109933459D01*
X164084000Y-109964064D01*
X166116000Y-109964064D01*
X166257190Y-109937497D01*
X166386865Y-109854054D01*
X166473859Y-109726734D01*
X166504464Y-109575600D01*
X166504464Y-109343000D01*
X171704000Y-109343000D01*
X171945473Y-109294968D01*
X172150184Y-109158184D01*
X172397934Y-108910434D01*
X172580499Y-108835000D01*
X174244000Y-108835000D01*
X174485473Y-108786968D01*
X174690184Y-108650184D01*
X178493934Y-104846434D01*
X178717521Y-104754050D01*
X178921335Y-104550592D01*
X179031774Y-104284624D01*
X179032025Y-103996639D01*
X178922050Y-103730479D01*
X178718592Y-103526665D01*
X178452624Y-103416226D01*
X178164639Y-103415975D01*
X177898479Y-103525950D01*
X177694665Y-103729408D01*
X177601247Y-103954385D01*
X173982632Y-107573000D01*
X172580050Y-107573000D01*
X172356624Y-107480226D01*
X172068639Y-107479975D01*
X171802479Y-107589950D01*
X171598665Y-107793408D01*
X171505247Y-108018384D01*
X171442632Y-108081000D01*
X168147368Y-108081000D01*
X169102184Y-107126184D01*
X169238968Y-106921473D01*
X169287000Y-106680000D01*
X169287000Y-99936050D01*
X169379774Y-99712624D01*
X169380025Y-99424639D01*
X169270050Y-99158479D01*
X169066592Y-98954665D01*
X168800624Y-98844226D01*
X168512639Y-98843975D01*
X168246479Y-98953950D01*
X168042665Y-99157408D01*
X167932226Y-99423376D01*
X167931975Y-99711361D01*
X168025000Y-99936499D01*
X168025000Y-106418632D01*
X166504464Y-107939168D01*
X166504464Y-107848400D01*
X166477897Y-107707210D01*
X166394454Y-107577535D01*
X166267134Y-107490541D01*
X166116000Y-107459936D01*
X166018817Y-107459936D01*
X166450732Y-107074036D01*
X166704709Y-106546791D01*
X166707358Y-106531026D01*
X166586217Y-106299000D01*
X165227000Y-106299000D01*
X165227000Y-106319000D01*
X164973000Y-106319000D01*
X164973000Y-106299000D01*
X164953000Y-106299000D01*
X164953000Y-106045000D01*
X164973000Y-106045000D01*
X164973000Y-106025000D01*
X165227000Y-106025000D01*
X165227000Y-106045000D01*
X166586217Y-106045000D01*
X166707358Y-105812974D01*
X166704709Y-105797209D01*
X166450732Y-105269964D01*
X166014320Y-104880046D01*
X165741757Y-104784704D01*
X165756057Y-104781860D01*
X166159834Y-104512065D01*
X166429629Y-104108288D01*
X166524369Y-103632000D01*
X166429629Y-103155712D01*
X166159834Y-102751935D01*
X165756057Y-102482140D01*
X165279769Y-102387400D01*
X164920231Y-102387400D01*
X164443943Y-102482140D01*
X164040166Y-102751935D01*
X163770371Y-103155712D01*
X163675631Y-103632000D01*
X163770371Y-104108288D01*
X164040166Y-104512065D01*
X164443943Y-104781860D01*
X164458243Y-104784704D01*
X164185680Y-104880046D01*
X163749268Y-105269964D01*
X163512500Y-105761484D01*
X163512500Y-101092000D01*
X163675631Y-101092000D01*
X163770371Y-101568288D01*
X164040166Y-101972065D01*
X164443943Y-102241860D01*
X164920231Y-102336600D01*
X165279769Y-102336600D01*
X165756057Y-102241860D01*
X166159834Y-101972065D01*
X166429629Y-101568288D01*
X166524369Y-101092000D01*
X166429629Y-100615712D01*
X166159834Y-100211935D01*
X165756057Y-99942140D01*
X165279769Y-99847400D01*
X164920231Y-99847400D01*
X164443943Y-99942140D01*
X164040166Y-100211935D01*
X163770371Y-100615712D01*
X163675631Y-101092000D01*
X163512500Y-101092000D01*
X163512500Y-98552000D01*
X163675631Y-98552000D01*
X163770371Y-99028288D01*
X164040166Y-99432065D01*
X164443943Y-99701860D01*
X164920231Y-99796600D01*
X165279769Y-99796600D01*
X165756057Y-99701860D01*
X166159834Y-99432065D01*
X166429629Y-99028288D01*
X166524369Y-98552000D01*
X166429629Y-98075712D01*
X166159834Y-97671935D01*
X165756057Y-97402140D01*
X165279769Y-97307400D01*
X164920231Y-97307400D01*
X164443943Y-97402140D01*
X164040166Y-97671935D01*
X163770371Y-98075712D01*
X163675631Y-98552000D01*
X163512500Y-98552000D01*
X163512500Y-96012000D01*
X163675631Y-96012000D01*
X163770371Y-96488288D01*
X164040166Y-96892065D01*
X164443943Y-97161860D01*
X164920231Y-97256600D01*
X165279769Y-97256600D01*
X165756057Y-97161860D01*
X166159834Y-96892065D01*
X166429629Y-96488288D01*
X166524369Y-96012000D01*
X166429629Y-95535712D01*
X166159834Y-95131935D01*
X165756057Y-94862140D01*
X165279769Y-94767400D01*
X164920231Y-94767400D01*
X164443943Y-94862140D01*
X164040166Y-95131935D01*
X163770371Y-95535712D01*
X163675631Y-96012000D01*
X163512500Y-96012000D01*
X163512500Y-94424500D01*
X182943500Y-94424500D01*
X182943500Y-110807500D01*
M02*
