%TF.GenerationSoftware,KiCad,Pcbnew,4.0.2-stable*%
%TF.CreationDate,2016-04-05T17:50:52-04:00*%
%TF.ProjectId,ADXL345 Breakout,4144584C33343520427265616B6F7574,rev?*%
%TF.FileFunction,Copper,L1,Top,Signal*%
%FSLAX46Y46*%
G04 Gerber Fmt 4.6, Leading zero omitted, Abs format (unit mm)*
G04 Created by KiCad (PCBNEW 4.0.2-stable) date 4/5/2016 5:50:52 PM*
%MOMM*%
G01*
G04 APERTURE LIST*
%ADD10C,0.127000*%
%ADD11R,2.999740X1.501140*%
%ADD12R,2.000000X1.600000*%
%ADD13R,2.032000X1.727200*%
%ADD14O,2.032000X1.727200*%
%ADD15R,1.145000X0.550000*%
%ADD16R,0.550000X1.145000*%
%ADD17C,0.685800*%
%ADD18C,0.500000*%
%ADD19C,0.254000*%
G04 APERTURE END LIST*
D10*
D11*
X181068980Y-108712000D03*
X177071020Y-108712000D03*
D12*
X172180000Y-106172000D03*
X168180000Y-106172000D03*
X176816000Y-106172000D03*
X180816000Y-106172000D03*
D13*
X165100000Y-108712000D03*
D14*
X165100000Y-106172000D03*
X165100000Y-103632000D03*
X165100000Y-101092000D03*
X165100000Y-98552000D03*
X165100000Y-96012000D03*
D15*
X171892500Y-102362000D03*
X176087500Y-102362000D03*
D16*
X171990000Y-101264500D03*
X171990000Y-103459500D03*
X172790000Y-101264500D03*
X172790000Y-103459500D03*
X173590000Y-101264500D03*
X173590000Y-103459500D03*
X174390000Y-101264500D03*
X174390000Y-103459500D03*
X175190000Y-101264500D03*
X175190000Y-103459500D03*
X175990000Y-101264500D03*
X175990000Y-103459500D03*
D17*
X168656000Y-99568000D03*
X178308000Y-104140000D03*
X172212000Y-108204000D03*
D18*
X168180000Y-106172000D02*
X168180000Y-106712000D01*
X168180000Y-106712000D02*
X171196000Y-109728000D01*
X171196000Y-109728000D02*
X174390000Y-109728000D01*
X180816000Y-106172000D02*
X180816000Y-108459020D01*
X180816000Y-108459020D02*
X181068980Y-108712000D01*
X181068980Y-108712000D02*
X181068980Y-109507020D01*
X174390000Y-109874000D02*
X174390000Y-109728000D01*
X174390000Y-109728000D02*
X174390000Y-103459500D01*
X174752000Y-110236000D02*
X174390000Y-109874000D01*
X180340000Y-110236000D02*
X174752000Y-110236000D01*
X181068980Y-109507020D02*
X180340000Y-110236000D01*
X165100000Y-106172000D02*
X168180000Y-106172000D01*
D19*
X172790000Y-103459500D02*
X172790000Y-104210000D01*
D18*
X174390000Y-103459500D02*
X174390000Y-104648000D01*
D19*
X172790000Y-104210000D02*
X173228000Y-104648000D01*
X173228000Y-104648000D02*
X174390000Y-104648000D01*
D18*
X180816000Y-108459020D02*
X181068980Y-108712000D01*
X174390000Y-103459500D02*
X175190000Y-103459500D01*
X172790000Y-100146000D02*
X172790000Y-101264500D01*
X172212000Y-99568000D02*
X172790000Y-100146000D01*
X171704000Y-99568000D02*
X172212000Y-99568000D01*
X168656000Y-99568000D02*
X171704000Y-99568000D01*
X178308000Y-104140000D02*
X176816000Y-105632000D01*
X176816000Y-105632000D02*
X176816000Y-106172000D01*
X172180000Y-108172000D02*
X172180000Y-106172000D01*
X172212000Y-108204000D02*
X172180000Y-108172000D01*
X176816000Y-106172000D02*
X176816000Y-108456980D01*
X176816000Y-108456980D02*
X177071020Y-108712000D01*
X175990000Y-103459500D02*
X175990000Y-105346000D01*
X175990000Y-105346000D02*
X176816000Y-106172000D01*
X175990000Y-103459500D02*
X175990000Y-102459500D01*
X175990000Y-102459500D02*
X176087500Y-102362000D01*
X172180000Y-106172000D02*
X172180000Y-105632000D01*
X172180000Y-105632000D02*
X171990000Y-105442000D01*
X171990000Y-105442000D02*
X171990000Y-103459500D01*
X177071020Y-106427020D02*
X176816000Y-106172000D01*
X165100000Y-103632000D02*
X168148000Y-103632000D01*
X169418000Y-102362000D02*
X171892500Y-102362000D01*
X168148000Y-103632000D02*
X169418000Y-102362000D01*
X165100000Y-101092000D02*
X171817500Y-101092000D01*
X171817500Y-101092000D02*
X171990000Y-101264500D01*
X165100000Y-98552000D02*
X166116000Y-98552000D01*
X166116000Y-98552000D02*
X167640000Y-97028000D01*
X167640000Y-97028000D02*
X172720000Y-97028000D01*
X175190000Y-99498000D02*
X175190000Y-101264500D01*
X172720000Y-97028000D02*
X175190000Y-99498000D01*
X165100000Y-96012000D02*
X174244000Y-96012000D01*
X175990000Y-97758000D02*
X175990000Y-101218502D01*
X174244000Y-96012000D02*
X175990000Y-97758000D01*
M02*
