G04 #@! TF.FileFunction,Copper,L1,Top,Signal*
%FSLAX46Y46*%
G04 Gerber Fmt 4.6, Leading zero omitted, Abs format (unit mm)*
G04 Created by KiCad (PCBNEW 4.0.2-stable) date 5/28/2016 11:57:46 PM*
%MOMM*%
G01*
G04 APERTURE LIST*
%ADD10C,0.127000*%
%ADD11R,0.230000X1.000000*%
%ADD12R,1.000000X0.230000*%
%ADD13R,0.600000X1.100000*%
%ADD14O,1.998980X2.999740*%
%ADD15O,2.999740X1.998980*%
%ADD16R,2.000000X2.000000*%
%ADD17C,2.000000*%
%ADD18O,1.524000X2.032000*%
%ADD19R,1.600000X2.000000*%
%ADD20R,2.032000X1.524000*%
%ADD21R,2.032000X1.727200*%
%ADD22O,2.032000X1.727200*%
%ADD23R,1.727200X1.727200*%
%ADD24O,1.727200X1.727200*%
%ADD25R,1.700000X2.000000*%
%ADD26R,2.000000X1.700000*%
%ADD27R,3.657600X2.032000*%
%ADD28R,1.016000X2.032000*%
%ADD29R,2.000000X0.600000*%
%ADD30R,1.350000X0.600000*%
%ADD31R,1.350000X0.400000*%
%ADD32C,1.500000*%
%ADD33R,2.000000X1.600000*%
%ADD34R,1.501140X2.999740*%
%ADD35R,6.300000X2.200000*%
%ADD36O,0.350000X0.800000*%
%ADD37O,0.800000X0.350000*%
%ADD38R,1.350000X1.350000*%
%ADD39R,0.550000X1.145000*%
%ADD40R,1.145000X0.550000*%
%ADD41R,1.060000X0.650000*%
%ADD42R,1.800860X1.597660*%
%ADD43R,1.597660X1.800860*%
%ADD44R,1.600000X0.550000*%
%ADD45R,0.550000X1.600000*%
%ADD46R,2.000000X2.500000*%
%ADD47C,1.778000*%
%ADD48C,1.200000*%
%ADD49C,1.300000*%
%ADD50R,0.800000X0.400000*%
%ADD51R,2.301240X2.499360*%
%ADD52R,2.499360X2.301240*%
%ADD53O,4.572000X4.572000*%
%ADD54O,4.064000X4.064000*%
%ADD55O,3.500120X3.500120*%
%ADD56C,0.685800*%
%ADD57C,0.600000*%
%ADD58C,0.400000*%
%ADD59C,0.200000*%
%ADD60C,0.500000*%
%ADD61C,0.300000*%
%ADD62C,0.800000*%
%ADD63C,0.250000*%
%ADD64C,0.254000*%
G04 APERTURE END LIST*
D10*
D11*
X104150000Y-113950000D03*
X104550000Y-113950000D03*
X104950000Y-113950000D03*
X105350000Y-113950000D03*
X105750000Y-113950000D03*
X106150000Y-113950000D03*
X106550000Y-113950000D03*
X106950000Y-113950000D03*
X107350000Y-113950000D03*
X107750000Y-113950000D03*
X108150000Y-113950000D03*
X108550000Y-113950000D03*
X108950000Y-113950000D03*
X109350000Y-113950000D03*
X109750000Y-113950000D03*
X110150000Y-113950000D03*
X110550000Y-113950000D03*
X110950000Y-113950000D03*
X111350000Y-113950000D03*
X111750000Y-113950000D03*
D12*
X113950000Y-111750000D03*
X113950000Y-111350000D03*
X113950000Y-110950000D03*
X113950000Y-110550000D03*
X113950000Y-110150000D03*
X113950000Y-109750000D03*
X113950000Y-109350000D03*
X113950000Y-108950000D03*
X113950000Y-108550000D03*
X113950000Y-108150000D03*
X113950000Y-107750000D03*
X113950000Y-107350000D03*
X113950000Y-106950000D03*
X113950000Y-106550000D03*
X113950000Y-106150000D03*
X113950000Y-105750000D03*
X113950000Y-105350000D03*
X113950000Y-104950000D03*
X113950000Y-104550000D03*
X113950000Y-104150000D03*
D11*
X111750000Y-101950000D03*
X111350000Y-101950000D03*
X110950000Y-101950000D03*
X110550000Y-101950000D03*
X110150000Y-101950000D03*
X109750000Y-101950000D03*
X109350000Y-101950000D03*
X108950000Y-101950000D03*
X108550000Y-101950000D03*
X108150000Y-101950000D03*
X107750000Y-101950000D03*
X107350000Y-101950000D03*
X106950000Y-101950000D03*
X106550000Y-101950000D03*
X106150000Y-101950000D03*
X105750000Y-101950000D03*
X105350000Y-101950000D03*
X104950000Y-101950000D03*
X104550000Y-101950000D03*
X104150000Y-101950000D03*
D12*
X101950000Y-104150000D03*
X101950000Y-104550000D03*
X101950000Y-104950000D03*
X101950000Y-105350000D03*
X101950000Y-105750000D03*
X101950000Y-106150000D03*
X101950000Y-106550000D03*
X101950000Y-106950000D03*
X101950000Y-107350000D03*
X101950000Y-107750000D03*
X101950000Y-108150000D03*
X101950000Y-108550000D03*
X101950000Y-108950000D03*
X101950000Y-109350000D03*
X101950000Y-109750000D03*
X101950000Y-110150000D03*
X101950000Y-110550000D03*
X101950000Y-110950000D03*
X101950000Y-111350000D03*
X101950000Y-111750000D03*
D13*
X131923000Y-94572000D03*
X131923000Y-92372000D03*
X130673000Y-94572000D03*
X130673000Y-92372000D03*
X129423000Y-94572000D03*
X129423000Y-92372000D03*
X128173000Y-94572000D03*
X128173000Y-92372000D03*
D14*
X49530000Y-153670000D03*
D15*
X46990000Y-156210000D03*
X52070000Y-156210000D03*
D16*
X70612000Y-162814000D03*
D17*
X73152000Y-162814000D03*
D18*
X134099300Y-153670000D03*
X107200700Y-154940000D03*
X134099300Y-156210000D03*
D19*
X123190000Y-128810000D03*
X123190000Y-132810000D03*
D20*
X60325000Y-108966000D03*
X60325000Y-105664000D03*
X50165000Y-108966000D03*
X50165000Y-105664000D03*
D19*
X91440000Y-149320000D03*
X91440000Y-145320000D03*
X88900000Y-149320000D03*
X88900000Y-145320000D03*
D21*
X118110000Y-128270000D03*
D22*
X118110000Y-130810000D03*
X118110000Y-133350000D03*
X118110000Y-135890000D03*
D21*
X105410000Y-128270000D03*
D22*
X105410000Y-130810000D03*
X105410000Y-133350000D03*
X105410000Y-135890000D03*
D21*
X111760000Y-128270000D03*
D22*
X111760000Y-130810000D03*
X111760000Y-133350000D03*
X111760000Y-135890000D03*
D23*
X85090000Y-153670000D03*
D24*
X82550000Y-153670000D03*
X85090000Y-156210000D03*
X82550000Y-156210000D03*
X85090000Y-158750000D03*
X82550000Y-158750000D03*
X85090000Y-161290000D03*
X82550000Y-161290000D03*
X85090000Y-163830000D03*
X82550000Y-163830000D03*
X85090000Y-166370000D03*
X82550000Y-166370000D03*
X85090000Y-168910000D03*
X82550000Y-168910000D03*
D25*
X50880000Y-161670000D03*
X50880000Y-165670000D03*
D26*
X69882000Y-158750000D03*
X73882000Y-158750000D03*
D25*
X48340000Y-161670000D03*
X48340000Y-165670000D03*
D27*
X55245000Y-102108000D03*
D28*
X55245000Y-108712000D03*
X57531000Y-108712000D03*
X52959000Y-108712000D03*
D29*
X135460000Y-125095000D03*
X126160000Y-125095000D03*
X135460000Y-126365000D03*
X126160000Y-126365000D03*
X135460000Y-127635000D03*
X126160000Y-127635000D03*
X135460000Y-128905000D03*
X126160000Y-128905000D03*
X135460000Y-130175000D03*
X126160000Y-130175000D03*
X135460000Y-131445000D03*
X126160000Y-131445000D03*
X135460000Y-132715000D03*
X126160000Y-132715000D03*
X135460000Y-133985000D03*
X126160000Y-133985000D03*
X135460000Y-135255000D03*
X126160000Y-135255000D03*
X135460000Y-136525000D03*
X126160000Y-136525000D03*
D30*
X80895000Y-150345000D03*
X86745000Y-150345000D03*
D31*
X80895000Y-149595000D03*
X86745000Y-149595000D03*
X80895000Y-148945000D03*
X86745000Y-148945000D03*
X80895000Y-148295000D03*
X86745000Y-148295000D03*
X80895000Y-147645000D03*
X86745000Y-147645000D03*
X80895000Y-146995000D03*
X86745000Y-146995000D03*
X80895000Y-146345000D03*
X86745000Y-146345000D03*
X80895000Y-145695000D03*
X86745000Y-145695000D03*
X80895000Y-145045000D03*
X86745000Y-145045000D03*
D30*
X80895000Y-144295000D03*
X86745000Y-144295000D03*
D32*
X49530000Y-147310000D03*
X49530000Y-139710000D03*
D26*
X62135000Y-153670000D03*
X66135000Y-153670000D03*
D33*
X123476000Y-121920000D03*
X127476000Y-121920000D03*
D34*
X134112000Y-103665020D03*
X134112000Y-107662980D03*
D33*
X134144000Y-113284000D03*
X138144000Y-113284000D03*
X91345000Y-130175000D03*
X95345000Y-130175000D03*
D19*
X136144000Y-108172000D03*
X136144000Y-104172000D03*
D33*
X91345000Y-132715000D03*
X95345000Y-132715000D03*
X91345000Y-127635000D03*
X95345000Y-127635000D03*
D19*
X125476000Y-115348000D03*
X125476000Y-119348000D03*
X60960000Y-133890000D03*
X60960000Y-137890000D03*
X60960000Y-145510000D03*
X60960000Y-141510000D03*
X93980000Y-159480000D03*
X93980000Y-155480000D03*
D33*
X60230000Y-124460000D03*
X64230000Y-124460000D03*
X49435000Y-120015000D03*
X53435000Y-120015000D03*
D19*
X60325000Y-112935000D03*
X60325000Y-116935000D03*
D33*
X132175000Y-89535000D03*
X128175000Y-89535000D03*
D35*
X55245000Y-116985000D03*
X55245000Y-112885000D03*
D26*
X91345000Y-135255000D03*
X95345000Y-135255000D03*
D25*
X91440000Y-159480000D03*
X91440000Y-155480000D03*
D26*
X60420000Y-128270000D03*
X56420000Y-128270000D03*
D25*
X45720000Y-121190000D03*
X45720000Y-125190000D03*
X47625000Y-109315000D03*
X47625000Y-105315000D03*
X45085000Y-112935000D03*
X45085000Y-116935000D03*
D36*
X129835000Y-121380000D03*
X130485000Y-121380000D03*
X131135000Y-121380000D03*
X131785000Y-121380000D03*
D37*
X132810000Y-120355000D03*
X132810000Y-119705000D03*
X132810000Y-119055000D03*
X132810000Y-118405000D03*
D36*
X131785000Y-117380000D03*
X131135000Y-117380000D03*
X130485000Y-117380000D03*
X129835000Y-117380000D03*
D37*
X128810000Y-118405000D03*
X128810000Y-119055000D03*
X128810000Y-119705000D03*
X128810000Y-120355000D03*
D38*
X131485000Y-118705000D03*
X130135000Y-118705000D03*
X131485000Y-120055000D03*
X130135000Y-120055000D03*
D39*
X131064000Y-112841500D03*
X131064000Y-108646500D03*
D40*
X129966500Y-112744000D03*
X132161500Y-112744000D03*
X129966500Y-111944000D03*
X132161500Y-111944000D03*
X129966500Y-111144000D03*
X132161500Y-111144000D03*
X129966500Y-110344000D03*
X132161500Y-110344000D03*
X129966500Y-109544000D03*
X132161500Y-109544000D03*
X129966500Y-108744000D03*
X132161500Y-108744000D03*
D41*
X54145000Y-122875000D03*
X54145000Y-123825000D03*
X54145000Y-124775000D03*
X56345000Y-124775000D03*
X56345000Y-122875000D03*
X56345000Y-123825000D03*
D42*
X98425000Y-134769860D03*
X98425000Y-131930140D03*
D43*
X47475140Y-102235000D03*
X50314860Y-102235000D03*
D44*
X78935000Y-126740000D03*
X78935000Y-127540000D03*
X78935000Y-128340000D03*
X78935000Y-129140000D03*
X78935000Y-129940000D03*
X78935000Y-130740000D03*
X78935000Y-131540000D03*
X78935000Y-132340000D03*
D45*
X80385000Y-133790000D03*
X81185000Y-133790000D03*
X81985000Y-133790000D03*
X82785000Y-133790000D03*
X83585000Y-133790000D03*
X84385000Y-133790000D03*
X85185000Y-133790000D03*
X85985000Y-133790000D03*
D44*
X87435000Y-132340000D03*
X87435000Y-131540000D03*
X87435000Y-130740000D03*
X87435000Y-129940000D03*
X87435000Y-129140000D03*
X87435000Y-128340000D03*
X87435000Y-127540000D03*
X87435000Y-126740000D03*
D45*
X85985000Y-125290000D03*
X85185000Y-125290000D03*
X84385000Y-125290000D03*
X83585000Y-125290000D03*
X82785000Y-125290000D03*
X81985000Y-125290000D03*
X81185000Y-125290000D03*
X80385000Y-125290000D03*
D46*
X102362000Y-145007000D03*
X102362000Y-151157000D03*
D47*
X64920000Y-137460000D03*
X64920000Y-142540000D03*
D21*
X102362000Y-156464000D03*
D22*
X102362000Y-159004000D03*
X102362000Y-161544000D03*
X102362000Y-164084000D03*
X102362000Y-166624000D03*
X102362000Y-169164000D03*
D33*
X66135000Y-151130000D03*
X62135000Y-151130000D03*
X69755000Y-156210000D03*
X73755000Y-156210000D03*
X66135000Y-168910000D03*
X62135000Y-168910000D03*
D26*
X62135000Y-161290000D03*
X66135000Y-161290000D03*
X62135000Y-158750000D03*
X66135000Y-158750000D03*
X62135000Y-156210000D03*
X66135000Y-156210000D03*
X62135000Y-163830000D03*
X66135000Y-163830000D03*
X62135000Y-166370000D03*
X66135000Y-166370000D03*
D21*
X57785000Y-158750000D03*
D22*
X57785000Y-161290000D03*
X57785000Y-163830000D03*
X57785000Y-166370000D03*
X57785000Y-168910000D03*
D19*
X81280000Y-108490000D03*
X81280000Y-112490000D03*
X81280000Y-118840000D03*
X81280000Y-114840000D03*
X114300000Y-117380000D03*
X114300000Y-121380000D03*
X111760000Y-117380000D03*
X111760000Y-121380000D03*
X109220000Y-117380000D03*
X109220000Y-121380000D03*
D33*
X70644000Y-87376000D03*
X74644000Y-87376000D03*
X118650000Y-107950000D03*
X122650000Y-107950000D03*
X97250000Y-106680000D03*
X93250000Y-106680000D03*
D19*
X106680000Y-117380000D03*
X106680000Y-121380000D03*
D33*
X97250000Y-109220000D03*
X93250000Y-109220000D03*
D19*
X116840000Y-117380000D03*
X116840000Y-121380000D03*
X104140000Y-117380000D03*
X104140000Y-121380000D03*
X119380000Y-117380000D03*
X119380000Y-121380000D03*
D33*
X118650000Y-105410000D03*
X122650000Y-105410000D03*
D43*
X104289860Y-96012000D03*
X101450140Y-96012000D03*
X104289860Y-93472000D03*
X101450140Y-93472000D03*
X104289860Y-90932000D03*
X101450140Y-90932000D03*
X104289860Y-83312000D03*
X101450140Y-83312000D03*
X104289860Y-88392000D03*
X101450140Y-88392000D03*
X104289860Y-85852000D03*
X101450140Y-85852000D03*
D17*
X94105000Y-95760000D03*
X78615000Y-95760000D03*
D48*
X86995000Y-101600000D03*
X84455000Y-101600000D03*
X81915000Y-101600000D03*
X89535000Y-101600000D03*
X90805000Y-99060000D03*
X88265000Y-99060000D03*
X85725000Y-99060000D03*
X83185000Y-99060000D03*
D49*
X79735000Y-87810000D03*
X82275000Y-87810000D03*
X92985000Y-87810000D03*
X90445000Y-87810000D03*
D23*
X93980000Y-168910000D03*
D24*
X91440000Y-168910000D03*
X93980000Y-166370000D03*
X91440000Y-166370000D03*
X93980000Y-163830000D03*
X91440000Y-163830000D03*
D25*
X101600000Y-121380000D03*
X101600000Y-117380000D03*
D26*
X111220000Y-98552000D03*
X107220000Y-98552000D03*
X122650000Y-110490000D03*
X118650000Y-110490000D03*
X93250000Y-111760000D03*
X97250000Y-111760000D03*
D25*
X99060000Y-117380000D03*
X99060000Y-121380000D03*
D26*
X107220000Y-96012000D03*
X111220000Y-96012000D03*
X107220000Y-93472000D03*
X111220000Y-93472000D03*
X107220000Y-90932000D03*
X111220000Y-90932000D03*
X107220000Y-83312000D03*
X111220000Y-83312000D03*
X107220000Y-88392000D03*
X111220000Y-88392000D03*
X107220000Y-85852000D03*
X111220000Y-85852000D03*
X74644000Y-89916000D03*
X70644000Y-89916000D03*
X74644000Y-92456000D03*
X70644000Y-92456000D03*
D25*
X109220000Y-130080000D03*
X109220000Y-134080000D03*
X115570000Y-130080000D03*
X115570000Y-134080000D03*
D47*
X85090000Y-111760000D03*
X85090000Y-116840000D03*
D19*
X117856000Y-92996000D03*
X117856000Y-96996000D03*
D50*
X121604000Y-94346000D03*
X120204000Y-94346000D03*
X121604000Y-94996000D03*
X120204000Y-94996000D03*
X121604000Y-95646000D03*
X120204000Y-95646000D03*
D51*
X49022000Y-116956840D03*
X49022000Y-112659160D03*
D52*
X61351160Y-120650000D03*
X65648840Y-120650000D03*
D53*
X63754000Y-95504000D03*
D54*
X63754000Y-88900000D03*
D55*
X59309000Y-92710000D03*
D56*
X101600000Y-103124000D03*
X88646000Y-151130000D03*
X53086000Y-106934000D03*
X102362000Y-147828000D03*
X85852000Y-129032000D03*
X123444000Y-134874000D03*
X110236000Y-112522000D03*
X108966000Y-115316000D03*
X107188000Y-115316000D03*
X124460000Y-107950000D03*
X124460000Y-105410000D03*
X61722000Y-116840000D03*
X53086000Y-123698000D03*
X47244000Y-125222000D03*
X50292000Y-100838000D03*
X51816000Y-105664000D03*
X61976000Y-105664000D03*
X68834000Y-120650000D03*
X65786000Y-124460000D03*
X105156000Y-115316000D03*
X77470000Y-129794000D03*
X77470000Y-128270000D03*
X100076000Y-132080000D03*
X93472000Y-132334000D03*
X96774000Y-130048000D03*
X97028000Y-127762000D03*
X63246000Y-134366000D03*
X63246000Y-145796000D03*
X59944000Y-151130000D03*
X64262000Y-168910000D03*
X75438000Y-156210000D03*
X91186000Y-151130000D03*
X78994000Y-147320000D03*
X100584000Y-111252000D03*
X100584000Y-106680000D03*
X112014000Y-107696000D03*
X112014000Y-106172000D03*
X110998000Y-103124000D03*
X76200000Y-87376000D03*
X79756000Y-112776000D03*
X79756000Y-114808000D03*
X129540000Y-90932000D03*
X127000000Y-92456000D03*
X118364000Y-94996000D03*
X116332000Y-97028000D03*
X119380000Y-97028000D03*
X128016000Y-87376000D03*
X135128000Y-111760000D03*
X134112000Y-111252000D03*
X134112000Y-110236000D03*
X138176000Y-115316000D03*
X136144000Y-102108000D03*
X134112000Y-101092000D03*
X125476000Y-113284000D03*
X129540000Y-122428000D03*
X130048000Y-123444000D03*
X133604000Y-126492000D03*
X133604000Y-131572000D03*
X133604000Y-133096000D03*
X133604000Y-134112000D03*
X133604000Y-135636000D03*
X133604000Y-136652000D03*
X128016000Y-136144000D03*
X128016000Y-135128000D03*
X128016000Y-133604000D03*
X128016000Y-132588000D03*
X128016000Y-125984000D03*
X128016000Y-124968000D03*
X123444000Y-89408000D03*
X97536000Y-117348000D03*
X91440000Y-109220000D03*
X91440000Y-106680000D03*
X104140000Y-123190000D03*
X106680000Y-123190000D03*
X109220000Y-123190000D03*
X111760000Y-123190000D03*
X114300000Y-123190000D03*
X116840000Y-123190000D03*
X119380000Y-123190000D03*
X81788000Y-132080000D03*
X58674000Y-132588000D03*
X127254000Y-104648000D03*
X128778000Y-104902000D03*
X67818000Y-163830000D03*
X93726000Y-145288000D03*
X128016000Y-83820000D03*
X116332000Y-91948000D03*
X72136000Y-121666000D03*
X85344000Y-149098000D03*
X119380000Y-91694000D03*
X131135000Y-124460000D03*
X131064000Y-115316000D03*
X105410000Y-133350000D03*
X83820000Y-127508000D03*
X88646000Y-139954000D03*
X124460000Y-97028000D03*
X85852000Y-128016000D03*
X121412000Y-92456000D03*
X129540000Y-132842000D03*
X129540000Y-137922000D03*
X97282000Y-97536000D03*
X128778000Y-108966000D03*
X75692000Y-125222000D03*
X75692000Y-144526000D03*
X110998000Y-108712000D03*
X100076000Y-156972000D03*
X97282000Y-96012000D03*
X129286000Y-107442000D03*
X90932000Y-137922000D03*
X82296000Y-129032000D03*
X82296000Y-131064000D03*
X92710000Y-138430000D03*
X93980000Y-157480000D03*
X96774000Y-139446000D03*
X84582000Y-135890000D03*
X115316000Y-108712000D03*
X115824000Y-109982000D03*
X102362000Y-153670000D03*
X94996000Y-152400000D03*
X80772000Y-123444000D03*
X121412000Y-118618000D03*
X120904000Y-115570000D03*
X95250000Y-109220000D03*
X106680000Y-119380000D03*
X99060000Y-108204000D03*
X106680000Y-111760000D03*
X108204000Y-110744000D03*
X107442000Y-111252000D03*
X106680000Y-110744000D03*
X79756000Y-139446000D03*
X126238000Y-94996000D03*
X116840000Y-102362000D03*
D57*
X134099300Y-156210000D02*
X134099300Y-153670000D01*
D58*
X135460000Y-130175000D02*
X133477000Y-130175000D01*
X132588000Y-152158700D02*
X134099300Y-153670000D01*
X132588000Y-131064000D02*
X132588000Y-152158700D01*
X133477000Y-130175000D02*
X132588000Y-131064000D01*
D59*
X101950000Y-105750000D02*
X103038000Y-105750000D01*
X103124000Y-105664000D02*
X103124000Y-105156000D01*
X103038000Y-105750000D02*
X103124000Y-105664000D01*
X101950000Y-105350000D02*
X102930000Y-105350000D01*
X103124000Y-105156000D02*
X103124000Y-104648000D01*
X102930000Y-105350000D02*
X103124000Y-105156000D01*
X101950000Y-104950000D02*
X102822000Y-104950000D01*
X102108000Y-103124000D02*
X101600000Y-103124000D01*
X103124000Y-104140000D02*
X102108000Y-103124000D01*
X103124000Y-104648000D02*
X103124000Y-104140000D01*
X102822000Y-104950000D02*
X103124000Y-104648000D01*
D60*
X85090000Y-153670000D02*
X86106000Y-153670000D01*
D61*
X88900000Y-150876000D02*
X88646000Y-151130000D01*
X88900000Y-150876000D02*
X88900000Y-149320000D01*
D60*
X86106000Y-153670000D02*
X88646000Y-151130000D01*
X102362000Y-166624000D02*
X102362000Y-169164000D01*
D57*
X52959000Y-108712000D02*
X52959000Y-107061000D01*
X52959000Y-107061000D02*
X53086000Y-106934000D01*
D61*
X102362000Y-145007000D02*
X102362000Y-147828000D01*
D59*
X87435000Y-129140000D02*
X85960000Y-129140000D01*
X85960000Y-129140000D02*
X85852000Y-129032000D01*
D60*
X123190000Y-132810000D02*
X123190000Y-134620000D01*
X123190000Y-134620000D02*
X123444000Y-134874000D01*
D59*
X110550000Y-113950000D02*
X110550000Y-112836000D01*
X110550000Y-112836000D02*
X110236000Y-112522000D01*
X109350000Y-113950000D02*
X109350000Y-114932000D01*
X108950000Y-115300000D02*
X108966000Y-115316000D01*
X108950000Y-115300000D02*
X108950000Y-113950000D01*
X109350000Y-114932000D02*
X108966000Y-115316000D01*
X107750000Y-113950000D02*
X107750000Y-114754000D01*
X107750000Y-114754000D02*
X107188000Y-115316000D01*
D58*
X122650000Y-107950000D02*
X124460000Y-107950000D01*
X122650000Y-105410000D02*
X124460000Y-105410000D01*
X60325000Y-116935000D02*
X61627000Y-116935000D01*
X61627000Y-116935000D02*
X61722000Y-116840000D01*
X54145000Y-123825000D02*
X53213000Y-123825000D01*
X53213000Y-123825000D02*
X53086000Y-123698000D01*
X45720000Y-125190000D02*
X47212000Y-125190000D01*
X47212000Y-125190000D02*
X47244000Y-125222000D01*
X50314860Y-102235000D02*
X50314860Y-100860860D01*
X50314860Y-100860860D02*
X50292000Y-100838000D01*
X50165000Y-105664000D02*
X51816000Y-105664000D01*
X60325000Y-105664000D02*
X61976000Y-105664000D01*
X66400680Y-120650000D02*
X68834000Y-120650000D01*
X64230000Y-124460000D02*
X65786000Y-124460000D01*
D59*
X105350000Y-113950000D02*
X105350000Y-115122000D01*
X105350000Y-115122000D02*
X105156000Y-115316000D01*
D61*
X78935000Y-129940000D02*
X77616000Y-129940000D01*
X77616000Y-129940000D02*
X77470000Y-129794000D01*
X78935000Y-128340000D02*
X77540000Y-128340000D01*
X77540000Y-128340000D02*
X77470000Y-128270000D01*
D60*
X98425000Y-131930140D02*
X99926140Y-131930140D01*
X99926140Y-131930140D02*
X100076000Y-132080000D01*
X95345000Y-132715000D02*
X93853000Y-132715000D01*
X93853000Y-132715000D02*
X93472000Y-132334000D01*
X95345000Y-130175000D02*
X96647000Y-130175000D01*
X96647000Y-130175000D02*
X96774000Y-130048000D01*
X95345000Y-127635000D02*
X96901000Y-127635000D01*
X96901000Y-127635000D02*
X97028000Y-127762000D01*
D61*
X60960000Y-133890000D02*
X62770000Y-133890000D01*
X62770000Y-133890000D02*
X63246000Y-134366000D01*
X60960000Y-145510000D02*
X62960000Y-145510000D01*
X62960000Y-145510000D02*
X63246000Y-145796000D01*
X62135000Y-151130000D02*
X59944000Y-151130000D01*
X62135000Y-168910000D02*
X64262000Y-168910000D01*
X73755000Y-156210000D02*
X75438000Y-156210000D01*
X91440000Y-149320000D02*
X91440000Y-150876000D01*
X91440000Y-150876000D02*
X91186000Y-151130000D01*
X80895000Y-146995000D02*
X79319000Y-146995000D01*
X79319000Y-146995000D02*
X78994000Y-147320000D01*
D59*
X101950000Y-110550000D02*
X101286000Y-110550000D01*
X101286000Y-110550000D02*
X100584000Y-111252000D01*
X101950000Y-106950000D02*
X100854000Y-106950000D01*
X100854000Y-106950000D02*
X100584000Y-106680000D01*
X113950000Y-107350000D02*
X112360000Y-107350000D01*
X112360000Y-107350000D02*
X112014000Y-107696000D01*
X113950000Y-106550000D02*
X112392000Y-106550000D01*
X112392000Y-106550000D02*
X112014000Y-106172000D01*
X113950000Y-106150000D02*
X112036000Y-106150000D01*
X112036000Y-106150000D02*
X112014000Y-106172000D01*
X113950000Y-105750000D02*
X112436000Y-105750000D01*
X112836000Y-105350000D02*
X112014000Y-106172000D01*
X112836000Y-105350000D02*
X113950000Y-105350000D01*
X112436000Y-105750000D02*
X112014000Y-106172000D01*
X110950000Y-101950000D02*
X110950000Y-103076000D01*
X110950000Y-103076000D02*
X110998000Y-103124000D01*
D58*
X74644000Y-87376000D02*
X76200000Y-87376000D01*
D57*
X81280000Y-112490000D02*
X80042000Y-112490000D01*
X80042000Y-112490000D02*
X79756000Y-112776000D01*
X81280000Y-114840000D02*
X79788000Y-114840000D01*
X79788000Y-114840000D02*
X79756000Y-114808000D01*
D58*
X129423000Y-92372000D02*
X129423000Y-91049000D01*
X129423000Y-91049000D02*
X129540000Y-90932000D01*
X128173000Y-92372000D02*
X127084000Y-92372000D01*
X127084000Y-92372000D02*
X127000000Y-92456000D01*
X120204000Y-94996000D02*
X118364000Y-94996000D01*
X117856000Y-96996000D02*
X116364000Y-96996000D01*
X116364000Y-96996000D02*
X116332000Y-97028000D01*
X120204000Y-95646000D02*
X120204000Y-96204000D01*
X120204000Y-96204000D02*
X119380000Y-97028000D01*
X128175000Y-89535000D02*
X128175000Y-87535000D01*
X128175000Y-87535000D02*
X128016000Y-87376000D01*
X132161500Y-111944000D02*
X134944000Y-111944000D01*
X134944000Y-111944000D02*
X135128000Y-111760000D01*
X132161500Y-110344000D02*
X133204000Y-110344000D01*
X133204000Y-110344000D02*
X134112000Y-111252000D01*
X132161500Y-109544000D02*
X133420000Y-109544000D01*
X133420000Y-109544000D02*
X134112000Y-110236000D01*
X138144000Y-113284000D02*
X138176000Y-113316000D01*
X138176000Y-113316000D02*
X138176000Y-115316000D01*
X136144000Y-104172000D02*
X136144000Y-102108000D01*
X134112000Y-103665020D02*
X134112000Y-101092000D01*
X125476000Y-115348000D02*
X125476000Y-113284000D01*
X127476000Y-121920000D02*
X129032000Y-121920000D01*
X129835000Y-122133000D02*
X129540000Y-122428000D01*
X129835000Y-122133000D02*
X129835000Y-121380000D01*
X129032000Y-121920000D02*
X129540000Y-122428000D01*
X130485000Y-121380000D02*
X130485000Y-123007000D01*
X130485000Y-123007000D02*
X130048000Y-123444000D01*
X135460000Y-126365000D02*
X133731000Y-126365000D01*
X133731000Y-126365000D02*
X133604000Y-126492000D01*
X135460000Y-131445000D02*
X133731000Y-131445000D01*
X133731000Y-131445000D02*
X133604000Y-131572000D01*
X135460000Y-132715000D02*
X133985000Y-132715000D01*
X133985000Y-132715000D02*
X133604000Y-133096000D01*
X135460000Y-133985000D02*
X133731000Y-133985000D01*
X133731000Y-133985000D02*
X133604000Y-134112000D01*
X135460000Y-135255000D02*
X133985000Y-135255000D01*
X133985000Y-135255000D02*
X133604000Y-135636000D01*
X135460000Y-136525000D02*
X133731000Y-136525000D01*
X133731000Y-136525000D02*
X133604000Y-136652000D01*
X126160000Y-136525000D02*
X127635000Y-136525000D01*
X127635000Y-136525000D02*
X128016000Y-136144000D01*
X126160000Y-135255000D02*
X127889000Y-135255000D01*
X127889000Y-135255000D02*
X128016000Y-135128000D01*
X126160000Y-133985000D02*
X127635000Y-133985000D01*
X127635000Y-133985000D02*
X128016000Y-133604000D01*
X126160000Y-132715000D02*
X127889000Y-132715000D01*
X127889000Y-132715000D02*
X128016000Y-132588000D01*
X126160000Y-126365000D02*
X127635000Y-126365000D01*
X127635000Y-126365000D02*
X128016000Y-125984000D01*
X126160000Y-125095000D02*
X127889000Y-125095000D01*
X127889000Y-125095000D02*
X128016000Y-124968000D01*
D62*
X99060000Y-117380000D02*
X97568000Y-117380000D01*
X97568000Y-117380000D02*
X97536000Y-117348000D01*
X93250000Y-109220000D02*
X91440000Y-109220000D01*
X93250000Y-106680000D02*
X91440000Y-106680000D01*
X104140000Y-121380000D02*
X104140000Y-123190000D01*
X106680000Y-121380000D02*
X106680000Y-123190000D01*
X109220000Y-121380000D02*
X109220000Y-123190000D01*
X111760000Y-121380000D02*
X111760000Y-123190000D01*
X114300000Y-121380000D02*
X114300000Y-123190000D01*
X116840000Y-121380000D02*
X116840000Y-123190000D01*
X119380000Y-121380000D02*
X119380000Y-123190000D01*
X116840000Y-121380000D02*
X119380000Y-121380000D01*
X114300000Y-121380000D02*
X116840000Y-121380000D01*
X111760000Y-121380000D02*
X114300000Y-121380000D01*
X109220000Y-121380000D02*
X111760000Y-121380000D01*
X106680000Y-121380000D02*
X109220000Y-121380000D01*
X104140000Y-121380000D02*
X106680000Y-121380000D01*
D60*
X46990000Y-96266000D02*
X62992000Y-96266000D01*
X62992000Y-96266000D02*
X63754000Y-95504000D01*
D57*
X60420000Y-128270000D02*
X60420000Y-124650000D01*
X60420000Y-124650000D02*
X60230000Y-124460000D01*
X57880000Y-130810000D02*
X60420000Y-128270000D01*
X47244000Y-130810000D02*
X57880000Y-130810000D01*
X42418000Y-125984000D02*
X47244000Y-130810000D01*
X42418000Y-100838000D02*
X42418000Y-125984000D01*
X46990000Y-96266000D02*
X42418000Y-100838000D01*
X56345000Y-123825000D02*
X59595000Y-123825000D01*
X59595000Y-123825000D02*
X60230000Y-124460000D01*
D61*
X60420000Y-128270000D02*
X60420000Y-128820000D01*
D60*
X60420000Y-128820000D02*
X49530000Y-139710000D01*
X78935000Y-130740000D02*
X60522000Y-130740000D01*
X60522000Y-130740000D02*
X58674000Y-132588000D01*
D57*
X50165000Y-108966000D02*
X50165000Y-109855000D01*
X54356000Y-110490000D02*
X55245000Y-109601000D01*
X50800000Y-110490000D02*
X54356000Y-110490000D01*
X50165000Y-109855000D02*
X50800000Y-110490000D01*
X55245000Y-109601000D02*
X55245000Y-108712000D01*
X50165000Y-108966000D02*
X50165000Y-108839000D01*
X47625000Y-109315000D02*
X49816000Y-109315000D01*
X49816000Y-109315000D02*
X50165000Y-108966000D01*
D60*
X111760000Y-128270000D02*
X118110000Y-128270000D01*
X105410000Y-128270000D02*
X111760000Y-128270000D01*
D58*
X111220000Y-83312000D02*
X120650000Y-83312000D01*
X121158000Y-83820000D02*
X128016000Y-83820000D01*
X120650000Y-83312000D02*
X121158000Y-83820000D01*
D59*
X104140000Y-117380000D02*
X104140000Y-118618000D01*
X103632000Y-124206000D02*
X123190000Y-124206000D01*
X102870000Y-123444000D02*
X103632000Y-124206000D01*
X102870000Y-119888000D02*
X102870000Y-123444000D01*
X104140000Y-118618000D02*
X102870000Y-119888000D01*
D58*
X119380000Y-117380000D02*
X123508000Y-117380000D01*
X123508000Y-117380000D02*
X125476000Y-119348000D01*
X123190000Y-128810000D02*
X123190000Y-124206000D01*
X123190000Y-124206000D02*
X123190000Y-122206000D01*
X123190000Y-122206000D02*
X123476000Y-121920000D01*
X131064000Y-107696000D02*
X131064000Y-107188000D01*
X128778000Y-104902000D02*
X131064000Y-107188000D01*
X122650000Y-110490000D02*
X122650000Y-116522000D01*
X122650000Y-116522000D02*
X125476000Y-119348000D01*
X136144000Y-108172000D02*
X136144000Y-110744000D01*
X135382000Y-113284000D02*
X134144000Y-113284000D01*
X135890000Y-112776000D02*
X135382000Y-113284000D01*
X135890000Y-110998000D02*
X135890000Y-112776000D01*
X136144000Y-110744000D02*
X135890000Y-110998000D01*
X118650000Y-102648000D02*
X125254000Y-102648000D01*
X125254000Y-102648000D02*
X127254000Y-104648000D01*
X126492000Y-110490000D02*
X122650000Y-110490000D01*
X127254000Y-104648000D02*
X127254000Y-109728000D01*
X127254000Y-109728000D02*
X126492000Y-110490000D01*
X78935000Y-129140000D02*
X80118000Y-129140000D01*
X80194000Y-129216000D02*
X80194000Y-130740000D01*
X80118000Y-129140000D02*
X80194000Y-129216000D01*
X78935000Y-130740000D02*
X80194000Y-130740000D01*
X85630000Y-131540000D02*
X87435000Y-131540000D01*
X81788000Y-132080000D02*
X85090000Y-132080000D01*
X85090000Y-132080000D02*
X85630000Y-131540000D01*
X81534000Y-132080000D02*
X81788000Y-132080000D01*
X80194000Y-130740000D02*
X81534000Y-132080000D01*
X66135000Y-163830000D02*
X67564000Y-163830000D01*
X67564000Y-163830000D02*
X67818000Y-163830000D01*
X88900000Y-145320000D02*
X91440000Y-145320000D01*
X91440000Y-145320000D02*
X93694000Y-145320000D01*
X93694000Y-145320000D02*
X93726000Y-145288000D01*
D60*
X91345000Y-130175000D02*
X91345000Y-130365000D01*
X91345000Y-130365000D02*
X90170000Y-131540000D01*
X87435000Y-131540000D02*
X90170000Y-131540000D01*
X90170000Y-131540000D02*
X91345000Y-132715000D01*
D58*
X91440000Y-168910000D02*
X91440000Y-169926000D01*
X91440000Y-169926000D02*
X92456000Y-170942000D01*
X92456000Y-170942000D02*
X95504000Y-170942000D01*
X95504000Y-170942000D02*
X102362000Y-164084000D01*
X91440000Y-159480000D02*
X90456000Y-159480000D01*
X90456000Y-159480000D02*
X89154000Y-160782000D01*
X89154000Y-160782000D02*
X89154000Y-166624000D01*
X89154000Y-166624000D02*
X91440000Y-168910000D01*
X86745000Y-147645000D02*
X88575000Y-147645000D01*
X88900000Y-147320000D02*
X88900000Y-145320000D01*
X88575000Y-147645000D02*
X88900000Y-147320000D01*
X86745000Y-146995000D02*
X87225000Y-146995000D01*
X87225000Y-146995000D02*
X88900000Y-145320000D01*
X86745000Y-146345000D02*
X87875000Y-146345000D01*
X87875000Y-146345000D02*
X88900000Y-145320000D01*
X86745000Y-145045000D02*
X88625000Y-145045000D01*
X88625000Y-145045000D02*
X88900000Y-145320000D01*
D61*
X66135000Y-161290000D02*
X66135000Y-158750000D01*
X66135000Y-163830000D02*
X66135000Y-161290000D01*
D57*
X119380000Y-117380000D02*
X116840000Y-117380000D01*
X70644000Y-87376000D02*
X70866000Y-87376000D01*
X70866000Y-87376000D02*
X76708000Y-81534000D01*
X109442000Y-81534000D02*
X111220000Y-83312000D01*
X76708000Y-81534000D02*
X109442000Y-81534000D01*
X111220000Y-83312000D02*
X111220000Y-85852000D01*
X111220000Y-85852000D02*
X111220000Y-88392000D01*
X111220000Y-93472000D02*
X111220000Y-90932000D01*
X111220000Y-96012000D02*
X111220000Y-93472000D01*
X111220000Y-98552000D02*
X111220000Y-96012000D01*
X111220000Y-90932000D02*
X111220000Y-88392000D01*
X111220000Y-98552000D02*
X114554000Y-98552000D01*
X118650000Y-102648000D02*
X118650000Y-105410000D01*
X114554000Y-98552000D02*
X118650000Y-102648000D01*
D59*
X110550000Y-101950000D02*
X110550000Y-99222000D01*
X110550000Y-99222000D02*
X111220000Y-98552000D01*
D60*
X85725000Y-99060000D02*
X86995000Y-100330000D01*
X86995000Y-100330000D02*
X86995000Y-101600000D01*
X70644000Y-94996000D02*
X73692000Y-98044000D01*
X84709000Y-98044000D02*
X85725000Y-99060000D01*
X82042000Y-98044000D02*
X84709000Y-98044000D01*
X81280000Y-98044000D02*
X82042000Y-98044000D01*
X73692000Y-98044000D02*
X81280000Y-98044000D01*
D59*
X110550000Y-96682000D02*
X111220000Y-96012000D01*
D58*
X132175000Y-87979000D02*
X132175000Y-89535000D01*
X128016000Y-83820000D02*
X132175000Y-87979000D01*
X111220000Y-93472000D02*
X117380000Y-93472000D01*
X117380000Y-93472000D02*
X117856000Y-92996000D01*
D57*
X55245000Y-108712000D02*
X55245000Y-107569000D01*
X55245000Y-107569000D02*
X55245000Y-107315000D01*
X70644000Y-98012000D02*
X70644000Y-94996000D01*
X68072000Y-100584000D02*
X70644000Y-98012000D01*
X61976000Y-100584000D02*
X68072000Y-100584000D01*
X55245000Y-107315000D02*
X61976000Y-100584000D01*
D58*
X131923000Y-92372000D02*
X131923000Y-89787000D01*
X131923000Y-89787000D02*
X132175000Y-89535000D01*
X130673000Y-92372000D02*
X130673000Y-91037000D01*
X130673000Y-91037000D02*
X132175000Y-89535000D01*
X117856000Y-92996000D02*
X117380000Y-92996000D01*
X117380000Y-92996000D02*
X116332000Y-91948000D01*
X132050000Y-89660000D02*
X132175000Y-89535000D01*
D63*
X129966500Y-111944000D02*
X130880000Y-111944000D01*
X131064000Y-111760000D02*
X131064000Y-108646500D01*
X130880000Y-111944000D02*
X131064000Y-111760000D01*
D58*
X131064000Y-108646500D02*
X131064000Y-107696000D01*
X131097020Y-107662980D02*
X134112000Y-107662980D01*
X131064000Y-107696000D02*
X131097020Y-107662980D01*
X136144000Y-108172000D02*
X134621020Y-108172000D01*
X134621020Y-108172000D02*
X134112000Y-107662980D01*
X132161500Y-108744000D02*
X133030980Y-108744000D01*
X133030980Y-108744000D02*
X134112000Y-107662980D01*
X132161500Y-112744000D02*
X133604000Y-112744000D01*
X133604000Y-112744000D02*
X134144000Y-113284000D01*
X128810000Y-120355000D02*
X128769000Y-120396000D01*
X128769000Y-120396000D02*
X126524000Y-120396000D01*
X126524000Y-120396000D02*
X125476000Y-119348000D01*
X125476000Y-119348000D02*
X125833000Y-119705000D01*
X125833000Y-119705000D02*
X128810000Y-119705000D01*
X123476000Y-121920000D02*
X125476000Y-119920000D01*
X125476000Y-119920000D02*
X125476000Y-119348000D01*
X125730000Y-119666000D02*
X125730000Y-118840000D01*
X125730000Y-118840000D02*
X125952000Y-118840000D01*
X123190000Y-128810000D02*
X123285000Y-128905000D01*
X123285000Y-128905000D02*
X126160000Y-128905000D01*
X118110000Y-128270000D02*
X122650000Y-128270000D01*
X122650000Y-128270000D02*
X123190000Y-128810000D01*
D60*
X70644000Y-92456000D02*
X70644000Y-94996000D01*
X70644000Y-89916000D02*
X70644000Y-92456000D01*
X70644000Y-87376000D02*
X70644000Y-89916000D01*
D61*
X117856000Y-92996000D02*
X118854000Y-92996000D01*
X118854000Y-92996000D02*
X120204000Y-94346000D01*
D59*
X119380000Y-117380000D02*
X119380000Y-116332000D01*
X108550000Y-112938000D02*
X108550000Y-113950000D01*
X109728000Y-111760000D02*
X108550000Y-112938000D01*
X111760000Y-111760000D02*
X109728000Y-111760000D01*
X114808000Y-114808000D02*
X111760000Y-111760000D01*
X117856000Y-114808000D02*
X114808000Y-114808000D01*
X119380000Y-116332000D02*
X117856000Y-114808000D01*
X110950000Y-113950000D02*
X110950000Y-113078000D01*
X110950000Y-113078000D02*
X111252000Y-112776000D01*
X111252000Y-112776000D02*
X112236000Y-112776000D01*
X112236000Y-112776000D02*
X116840000Y-117380000D01*
X104550000Y-113950000D02*
X104550000Y-116970000D01*
X104550000Y-116970000D02*
X104140000Y-117380000D01*
D62*
X109220000Y-130080000D02*
X111030000Y-128270000D01*
X111030000Y-128270000D02*
X111760000Y-128270000D01*
X115570000Y-130080000D02*
X117380000Y-128270000D01*
X117380000Y-128270000D02*
X118110000Y-128270000D01*
D60*
X63405000Y-112935000D02*
X60325000Y-112935000D01*
X72136000Y-121666000D02*
X63405000Y-112935000D01*
D61*
X73152000Y-162814000D02*
X73152000Y-159480000D01*
X73152000Y-159480000D02*
X73882000Y-158750000D01*
D58*
X86745000Y-149595000D02*
X85841000Y-149595000D01*
X85841000Y-149595000D02*
X85344000Y-149098000D01*
D63*
X121604000Y-95646000D02*
X121046000Y-95646000D01*
X120904000Y-93218000D02*
X119380000Y-91694000D01*
X120904000Y-95504000D02*
X120904000Y-93218000D01*
X121046000Y-95646000D02*
X120904000Y-95504000D01*
D58*
X86734000Y-149606000D02*
X86745000Y-149595000D01*
X131923000Y-94572000D02*
X131923000Y-95347000D01*
X135128000Y-115316000D02*
X131064000Y-115316000D01*
X136652000Y-113792000D02*
X135128000Y-115316000D01*
X136652000Y-111760000D02*
X136652000Y-113792000D01*
X137668000Y-110744000D02*
X136652000Y-111760000D01*
X137668000Y-101092000D02*
X137668000Y-110744000D01*
X131923000Y-95347000D02*
X137668000Y-101092000D01*
X121604000Y-95646000D02*
X125618000Y-95646000D01*
X131923000Y-95661000D02*
X131923000Y-94572000D01*
X131064000Y-96520000D02*
X131923000Y-95661000D01*
X126492000Y-96520000D02*
X131064000Y-96520000D01*
X125618000Y-95646000D02*
X126492000Y-96520000D01*
X131064000Y-112841500D02*
X131064000Y-115316000D01*
X133604000Y-127635000D02*
X133223000Y-127635000D01*
X131135000Y-125547000D02*
X131135000Y-124460000D01*
X131135000Y-124460000D02*
X131135000Y-121380000D01*
X133223000Y-127635000D02*
X131135000Y-125547000D01*
X118110000Y-133350000D02*
X120142000Y-133350000D01*
X133477000Y-127635000D02*
X133604000Y-127635000D01*
X133604000Y-127635000D02*
X135460000Y-127635000D01*
X130556000Y-130556000D02*
X133477000Y-127635000D01*
X130556000Y-134858180D02*
X130556000Y-130556000D01*
X127788182Y-137625998D02*
X130556000Y-134858180D01*
X124417998Y-137625998D02*
X127788182Y-137625998D01*
X120142000Y-133350000D02*
X124417998Y-137625998D01*
X111760000Y-133350000D02*
X114840000Y-133350000D01*
X114840000Y-133350000D02*
X115570000Y-134080000D01*
X105410000Y-133350000D02*
X106680000Y-132080000D01*
X106680000Y-132080000D02*
X110490000Y-132080000D01*
X110490000Y-132080000D02*
X111760000Y-133350000D01*
X83585000Y-125290000D02*
X83585000Y-127273000D01*
X83585000Y-127273000D02*
X83820000Y-127508000D01*
D62*
X115570000Y-134080000D02*
X116300000Y-133350000D01*
X116300000Y-133350000D02*
X118110000Y-133350000D01*
D58*
X86745000Y-148295000D02*
X85811000Y-148295000D01*
X85598000Y-143002000D02*
X88646000Y-139954000D01*
X85598000Y-148082000D02*
X85598000Y-143002000D01*
X85811000Y-148295000D02*
X85598000Y-148082000D01*
X129966500Y-112744000D02*
X128556000Y-112744000D01*
X128016000Y-100584000D02*
X124460000Y-97028000D01*
X128016000Y-112204000D02*
X128016000Y-100584000D01*
X128556000Y-112744000D02*
X128016000Y-112204000D01*
X121604000Y-94346000D02*
X125618000Y-94346000D01*
X130048000Y-93472000D02*
X130673000Y-94097000D01*
X126492000Y-93472000D02*
X130048000Y-93472000D01*
X125618000Y-94346000D02*
X126492000Y-93472000D01*
X130673000Y-94097000D02*
X130673000Y-94572000D01*
X129966500Y-112744000D02*
X129966500Y-115742500D01*
X134112000Y-117856000D02*
X134112000Y-121920000D01*
X132588000Y-116332000D02*
X134112000Y-117856000D01*
X130556000Y-116332000D02*
X132588000Y-116332000D01*
X129966500Y-115742500D02*
X130556000Y-116332000D01*
X135460000Y-128905000D02*
X136271000Y-128905000D01*
X136271000Y-128905000D02*
X137160000Y-128016000D01*
X133572000Y-121380000D02*
X131785000Y-121380000D01*
X137160000Y-124968000D02*
X134620000Y-122428000D01*
X134620000Y-122428000D02*
X134112000Y-121920000D01*
X134112000Y-121920000D02*
X133572000Y-121380000D01*
X137160000Y-128016000D02*
X137160000Y-124968000D01*
X118110000Y-135890000D02*
X121666000Y-135890000D01*
X133731000Y-128905000D02*
X135460000Y-128905000D01*
X131572000Y-131064000D02*
X133731000Y-128905000D01*
X131572000Y-134620000D02*
X131572000Y-131064000D01*
X128016000Y-138176000D02*
X131572000Y-134620000D01*
X123952000Y-138176000D02*
X128016000Y-138176000D01*
X121666000Y-135890000D02*
X123952000Y-138176000D01*
X111760000Y-135890000D02*
X118110000Y-135890000D01*
X105410000Y-135890000D02*
X107410000Y-135890000D01*
X107410000Y-135890000D02*
X109220000Y-134080000D01*
X84385000Y-125290000D02*
X84385000Y-126549000D01*
X84385000Y-126549000D02*
X85852000Y-128016000D01*
D61*
X121604000Y-92648000D02*
X121604000Y-94346000D01*
X121412000Y-92456000D02*
X121604000Y-92648000D01*
D62*
X109220000Y-134080000D02*
X111030000Y-135890000D01*
X111030000Y-135890000D02*
X111760000Y-135890000D01*
D58*
X86745000Y-144295000D02*
X86845000Y-144295000D01*
X86845000Y-144295000D02*
X88138000Y-143002000D01*
X95504000Y-148844000D02*
X89154000Y-155194000D01*
X95504000Y-146050000D02*
X95504000Y-148844000D01*
X92456000Y-143002000D02*
X95504000Y-146050000D01*
X88138000Y-143002000D02*
X92456000Y-143002000D01*
D61*
X82550000Y-156210000D02*
X82550000Y-156464000D01*
X82550000Y-156464000D02*
X83820000Y-157734000D01*
X83820000Y-157734000D02*
X83820000Y-159512000D01*
X83820000Y-159512000D02*
X84328000Y-160020000D01*
X84328000Y-160020000D02*
X85598000Y-160020000D01*
X85598000Y-160020000D02*
X89154000Y-156464000D01*
X89154000Y-156464000D02*
X89154000Y-155194000D01*
X80895000Y-144295000D02*
X82319000Y-144295000D01*
X83820000Y-156972000D02*
X85090000Y-158242000D01*
X83820000Y-145796000D02*
X83820000Y-156972000D01*
X82319000Y-144295000D02*
X83820000Y-145796000D01*
X85090000Y-158242000D02*
X85090000Y-158750000D01*
X82550000Y-158750000D02*
X82296000Y-158750000D01*
X82296000Y-158750000D02*
X81280000Y-157734000D01*
X81280000Y-157734000D02*
X81280000Y-152908000D01*
X81280000Y-152908000D02*
X82550000Y-151638000D01*
X82550000Y-151638000D02*
X82550000Y-145542000D01*
X82550000Y-145542000D02*
X82053000Y-145045000D01*
X82053000Y-145045000D02*
X80895000Y-145045000D01*
X85090000Y-166370000D02*
X85344000Y-166370000D01*
X85344000Y-166370000D02*
X86868000Y-167894000D01*
X86868000Y-167894000D02*
X86868000Y-169164000D01*
X86868000Y-169164000D02*
X85344000Y-170688000D01*
X85344000Y-170688000D02*
X81280000Y-170688000D01*
X81280000Y-170688000D02*
X79248000Y-168656000D01*
X79248000Y-168656000D02*
X79248000Y-148082000D01*
X79248000Y-148082000D02*
X79685000Y-147645000D01*
X79685000Y-147645000D02*
X80895000Y-147645000D01*
X82550000Y-166370000D02*
X82296000Y-166370000D01*
X82296000Y-166370000D02*
X80714002Y-164788002D01*
X80714002Y-164788002D02*
X80714002Y-152711998D01*
X80714002Y-152711998D02*
X82042000Y-151384000D01*
X82042000Y-151384000D02*
X82042000Y-148590000D01*
X82042000Y-148590000D02*
X81747000Y-148295000D01*
X81747000Y-148295000D02*
X80895000Y-148295000D01*
X85090000Y-168910000D02*
X84582000Y-168910000D01*
X84582000Y-168910000D02*
X83312000Y-170180000D01*
X83312000Y-170180000D02*
X81534000Y-170180000D01*
X81534000Y-170180000D02*
X79756000Y-168402000D01*
X79756000Y-168402000D02*
X79756000Y-149860000D01*
X79756000Y-149860000D02*
X80021000Y-149595000D01*
X80021000Y-149595000D02*
X80895000Y-149595000D01*
X80895000Y-150345000D02*
X80795000Y-150345000D01*
X80795000Y-150345000D02*
X80264000Y-150876000D01*
X80264000Y-150876000D02*
X80264000Y-166624000D01*
X80264000Y-166624000D02*
X82550000Y-168910000D01*
X49530000Y-153670000D02*
X49530000Y-159004000D01*
X48340000Y-160194000D02*
X48340000Y-161670000D01*
X49530000Y-159004000D02*
X48340000Y-160194000D01*
D58*
X50880000Y-165670000D02*
X50880000Y-166958000D01*
X129540000Y-132842000D02*
X126873000Y-130175000D01*
X129540000Y-146812000D02*
X129540000Y-137922000D01*
X104648000Y-171704000D02*
X129540000Y-146812000D01*
X55626000Y-171704000D02*
X104648000Y-171704000D01*
X50880000Y-166958000D02*
X55626000Y-171704000D01*
X126873000Y-130175000D02*
X126160000Y-130175000D01*
D61*
X48340000Y-165670000D02*
X50880000Y-165670000D01*
D58*
X87435000Y-129940000D02*
X88754000Y-129940000D01*
X88754000Y-129940000D02*
X91059000Y-127635000D01*
X91059000Y-127635000D02*
X91345000Y-127635000D01*
D61*
X78935000Y-131540000D02*
X70840000Y-131540000D01*
X70840000Y-131540000D02*
X64920000Y-137460000D01*
X60960000Y-137890000D02*
X64490000Y-137890000D01*
X64490000Y-137890000D02*
X64920000Y-137460000D01*
X64920000Y-142540000D02*
X64920000Y-139804000D01*
X72384000Y-132340000D02*
X78935000Y-132340000D01*
X64920000Y-139804000D02*
X72384000Y-132340000D01*
X60960000Y-141510000D02*
X63890000Y-141510000D01*
X63890000Y-141510000D02*
X64920000Y-142540000D01*
D57*
X49435000Y-120015000D02*
X49435000Y-117369840D01*
X49435000Y-117369840D02*
X49022000Y-116956840D01*
X49435000Y-120015000D02*
X49435000Y-121825000D01*
X50485000Y-122875000D02*
X54145000Y-122875000D01*
X49435000Y-121825000D02*
X50485000Y-122875000D01*
D61*
X50880000Y-161670000D02*
X50880000Y-160448000D01*
X80385000Y-133737000D02*
X80385000Y-133790000D01*
X66548000Y-147574000D02*
X80385000Y-133737000D01*
X61214000Y-147574000D02*
X66548000Y-147574000D01*
X56642000Y-152146000D02*
X61214000Y-147574000D01*
X56642000Y-154686000D02*
X56642000Y-152146000D01*
X50880000Y-160448000D02*
X56642000Y-154686000D01*
X78935000Y-126740000D02*
X76194000Y-126740000D01*
X90170000Y-104648000D02*
X97282000Y-97536000D01*
X81280000Y-104648000D02*
X90170000Y-104648000D01*
X73660000Y-112268000D02*
X81280000Y-104648000D01*
X73660000Y-124206000D02*
X73660000Y-112268000D01*
X76194000Y-126740000D02*
X73660000Y-124206000D01*
X129966500Y-109544000D02*
X129356000Y-109544000D01*
X129356000Y-109544000D02*
X128778000Y-108966000D01*
D58*
X66135000Y-166370000D02*
X72898000Y-166370000D01*
X78793000Y-123698000D02*
X80385000Y-125290000D01*
X77216000Y-123698000D02*
X78793000Y-123698000D01*
X75692000Y-125222000D02*
X77216000Y-123698000D01*
X77643509Y-146558432D02*
X75692000Y-144526000D01*
X77724000Y-161544000D02*
X77643509Y-146558432D01*
X72898000Y-166370000D02*
X77724000Y-161544000D01*
D61*
X66135000Y-168910000D02*
X66135000Y-166370000D01*
D59*
X113084000Y-108150000D02*
X113950000Y-108150000D01*
X110998000Y-108712000D02*
X113084000Y-108150000D01*
D58*
X91345000Y-135255000D02*
X100076000Y-143986000D01*
X100076000Y-143986000D02*
X100076000Y-156972000D01*
X87435000Y-132340000D02*
X90350000Y-135255000D01*
X90350000Y-135255000D02*
X91345000Y-135255000D01*
D60*
X95345000Y-135255000D02*
X97939860Y-135255000D01*
X97939860Y-135255000D02*
X98425000Y-134769860D01*
D57*
X56345000Y-124775000D02*
X56345000Y-128195000D01*
X56345000Y-128195000D02*
X56420000Y-128270000D01*
X54145000Y-124775000D02*
X49305000Y-124775000D01*
X49305000Y-124775000D02*
X45720000Y-121190000D01*
D62*
X45085000Y-116935000D02*
X45085000Y-120555000D01*
X45085000Y-120555000D02*
X45720000Y-121190000D01*
D57*
X47475140Y-102235000D02*
X47475140Y-105165140D01*
X47475140Y-105165140D02*
X47625000Y-105315000D01*
D59*
X131135000Y-117380000D02*
X131135000Y-117165000D01*
X131135000Y-117165000D02*
X130810000Y-116840000D01*
X130485000Y-117380000D02*
X130485000Y-117165000D01*
X130485000Y-117165000D02*
X130810000Y-116840000D01*
D61*
X129966500Y-108744000D02*
X129966500Y-108122500D01*
X76232000Y-127540000D02*
X78935000Y-127540000D01*
X73152000Y-124460000D02*
X76232000Y-127540000D01*
X73152000Y-112014000D02*
X73152000Y-124460000D01*
X81026000Y-104140000D02*
X73152000Y-112014000D01*
X89154000Y-104140000D02*
X81026000Y-104140000D01*
X97282000Y-96012000D02*
X89154000Y-104140000D01*
X129966500Y-108122500D02*
X129286000Y-107442000D01*
D58*
X66135000Y-151130000D02*
X66135000Y-149003000D01*
X81185000Y-135223000D02*
X81185000Y-133790000D01*
X80518000Y-135890000D02*
X81185000Y-135223000D01*
X79248000Y-135890000D02*
X80518000Y-135890000D01*
X66135000Y-149003000D02*
X79248000Y-135890000D01*
X66135000Y-153670000D02*
X66135000Y-151130000D01*
X69755000Y-156210000D02*
X69755000Y-146399000D01*
X81985000Y-135693000D02*
X81985000Y-133790000D01*
X80772000Y-136906000D02*
X81985000Y-135693000D01*
X79248000Y-136906000D02*
X80772000Y-136906000D01*
X69755000Y-146399000D02*
X79248000Y-136906000D01*
D61*
X66135000Y-156210000D02*
X69755000Y-156210000D01*
D58*
X74676000Y-142494000D02*
X79502000Y-137668000D01*
X71628000Y-145542000D02*
X74676000Y-142494000D01*
X71628000Y-157734000D02*
X71628000Y-145542000D01*
X70612000Y-158750000D02*
X71628000Y-157734000D01*
X82785000Y-136163000D02*
X82785000Y-133790000D01*
X81280000Y-137668000D02*
X82785000Y-136163000D01*
X79502000Y-137668000D02*
X81280000Y-137668000D01*
X69882000Y-158750000D02*
X70612000Y-158750000D01*
X102362000Y-161544000D02*
X102108000Y-161544000D01*
X102108000Y-161544000D02*
X98552000Y-157988000D01*
X98552000Y-157988000D02*
X98552000Y-145542000D01*
X98552000Y-145542000D02*
X90932000Y-137922000D01*
X82296000Y-129032000D02*
X81985000Y-128721000D01*
X81985000Y-128721000D02*
X81985000Y-125290000D01*
X102362000Y-159004000D02*
X100584000Y-159004000D01*
X81185000Y-129953000D02*
X81185000Y-125290000D01*
X82296000Y-131064000D02*
X81185000Y-129953000D01*
X99314000Y-145034000D02*
X92710000Y-138430000D01*
X99314000Y-157734000D02*
X99314000Y-145034000D01*
X100584000Y-159004000D02*
X99314000Y-157734000D01*
X49530000Y-147310000D02*
X49530000Y-149352000D01*
X52070000Y-151892000D02*
X52070000Y-156210000D01*
X49530000Y-149352000D02*
X52070000Y-151892000D01*
X93980000Y-157480000D02*
X93980000Y-159480000D01*
D61*
X62135000Y-153670000D02*
X62484000Y-153670000D01*
X62484000Y-153670000D02*
X63754000Y-154940000D01*
X63754000Y-154940000D02*
X63754000Y-159671000D01*
X63754000Y-159671000D02*
X62135000Y-161290000D01*
X57785000Y-163830000D02*
X59595000Y-163830000D01*
X59595000Y-163830000D02*
X62135000Y-161290000D01*
X57785000Y-161290000D02*
X59595000Y-161290000D01*
X59595000Y-161290000D02*
X62135000Y-158750000D01*
X62135000Y-156210000D02*
X62135000Y-158750000D01*
X62135000Y-166370000D02*
X62135000Y-163830000D01*
X57785000Y-168910000D02*
X59595000Y-168910000D01*
X59595000Y-168910000D02*
X62135000Y-166370000D01*
D59*
X101854000Y-114300000D02*
X101346000Y-114808000D01*
X101346000Y-114808000D02*
X98806000Y-114808000D01*
X98806000Y-114808000D02*
X94742000Y-118872000D01*
X94742000Y-118872000D02*
X94742000Y-123444000D01*
X94742000Y-123444000D02*
X92710000Y-125476000D01*
X92710000Y-125476000D02*
X92710000Y-134366000D01*
X92710000Y-134366000D02*
X93472000Y-135128000D01*
X93472000Y-135128000D02*
X93472000Y-136144000D01*
X93472000Y-136144000D02*
X96774000Y-139446000D01*
X101854000Y-114046000D02*
X101854000Y-114300000D01*
X84385000Y-135693000D02*
X84385000Y-133790000D01*
X84582000Y-135890000D02*
X84385000Y-135693000D01*
X113950000Y-108550000D02*
X113192000Y-108550000D01*
X101854000Y-114046000D02*
X101847489Y-114039489D01*
X106426000Y-109474000D02*
X101854000Y-114046000D01*
X112268000Y-109474000D02*
X106426000Y-109474000D01*
X113192000Y-108550000D02*
X112268000Y-109474000D01*
X115078000Y-108950000D02*
X115316000Y-108712000D01*
X113950000Y-108950000D02*
X115078000Y-108950000D01*
D58*
X91440000Y-166370000D02*
X92710000Y-167640000D01*
X85185000Y-134715000D02*
X85185000Y-133790000D01*
X97028000Y-146558000D02*
X85185000Y-134715000D01*
X97028000Y-166116000D02*
X97028000Y-146558000D01*
X95504000Y-167640000D02*
X97028000Y-166116000D01*
X92710000Y-167640000D02*
X95504000Y-167640000D01*
D59*
X115192000Y-109350000D02*
X115824000Y-109982000D01*
X115192000Y-109350000D02*
X113950000Y-109350000D01*
D58*
X85985000Y-133790000D02*
X85985000Y-134245000D01*
X85985000Y-134245000D02*
X97790000Y-146050000D01*
X97790000Y-146050000D02*
X97790000Y-166370000D01*
X97790000Y-166370000D02*
X95250000Y-168910000D01*
X95250000Y-168910000D02*
X93980000Y-168910000D01*
D61*
X93980000Y-155480000D02*
X93980000Y-153416000D01*
X102362000Y-153670000D02*
X102362000Y-151157000D01*
X93980000Y-153416000D02*
X94996000Y-152400000D01*
D58*
X82785000Y-125290000D02*
X82785000Y-123971000D01*
X82258000Y-123444000D02*
X80772000Y-123444000D01*
X82785000Y-123971000D02*
X82258000Y-123444000D01*
X93980000Y-163830000D02*
X94234000Y-163830000D01*
X94234000Y-163830000D02*
X96266000Y-161798000D01*
X96266000Y-161798000D02*
X96266000Y-157766000D01*
X96266000Y-157766000D02*
X93980000Y-155480000D01*
X91440000Y-155480000D02*
X93980000Y-155480000D01*
D59*
X101950000Y-109750000D02*
X101928000Y-109728000D01*
X101928000Y-109728000D02*
X100330000Y-109728000D01*
X100330000Y-109728000D02*
X99568000Y-110490000D01*
D61*
X93250000Y-111760000D02*
X94520000Y-110490000D01*
D59*
X99060000Y-110490000D02*
X99568000Y-110490000D01*
D61*
X94520000Y-110490000D02*
X99060000Y-110490000D01*
D60*
X85090000Y-111760000D02*
X93250000Y-111760000D01*
X85090000Y-111760000D02*
X81820000Y-108490000D01*
X81820000Y-108490000D02*
X81280000Y-108490000D01*
X85090000Y-116840000D02*
X87630000Y-114300000D01*
X94710000Y-114300000D02*
X97250000Y-111760000D01*
X87630000Y-114300000D02*
X94710000Y-114300000D01*
X81280000Y-118840000D02*
X83280000Y-116840000D01*
X83280000Y-116840000D02*
X85090000Y-116840000D01*
D59*
X101950000Y-110150000D02*
X100670000Y-110150000D01*
X100670000Y-110150000D02*
X99060000Y-111760000D01*
X99060000Y-111760000D02*
X97250000Y-111760000D01*
X118650000Y-107950000D02*
X119380000Y-107950000D01*
X119380000Y-107950000D02*
X120904000Y-109474000D01*
X114300000Y-118618000D02*
X114300000Y-117380000D01*
X115062000Y-119380000D02*
X114300000Y-118618000D01*
X120650000Y-119380000D02*
X115062000Y-119380000D01*
X121412000Y-118618000D02*
X120650000Y-119380000D01*
X120904000Y-109474000D02*
X120904000Y-115570000D01*
X106680000Y-117380000D02*
X106680000Y-119380000D01*
X95250000Y-109220000D02*
X97250000Y-109220000D01*
D58*
X97250000Y-106680000D02*
X97250000Y-109220000D01*
D57*
X109220000Y-117380000D02*
X106680000Y-117380000D01*
X111760000Y-117380000D02*
X109220000Y-117380000D01*
X114300000Y-117380000D02*
X111760000Y-117380000D01*
D59*
X97250000Y-106680000D02*
X97920000Y-107350000D01*
X97920000Y-107350000D02*
X101950000Y-107350000D01*
X97250000Y-109220000D02*
X97380000Y-109350000D01*
X97380000Y-109350000D02*
X101950000Y-109350000D01*
X118650000Y-107950000D02*
X117650000Y-106950000D01*
X117650000Y-106950000D02*
X113950000Y-106950000D01*
X114300000Y-117380000D02*
X112490000Y-115570000D01*
X112490000Y-115570000D02*
X110490000Y-115570000D01*
X110490000Y-115570000D02*
X110150000Y-115230000D01*
X110150000Y-115230000D02*
X110150000Y-113950000D01*
X111760000Y-117380000D02*
X109750000Y-115370000D01*
X109750000Y-115370000D02*
X109750000Y-113950000D01*
X109220000Y-117380000D02*
X108150000Y-116310000D01*
X108150000Y-116310000D02*
X108150000Y-113950000D01*
X106680000Y-117380000D02*
X106550000Y-117250000D01*
X106550000Y-117250000D02*
X106550000Y-113950000D01*
D62*
X104289860Y-96012000D02*
X107220000Y-96012000D01*
D59*
X101450140Y-96012000D02*
X101450140Y-100434140D01*
X103394000Y-108950000D02*
X101950000Y-108950000D01*
X105156000Y-107188000D02*
X103394000Y-108950000D01*
X105156000Y-104140000D02*
X105156000Y-107188000D01*
X101450140Y-100434140D02*
X105156000Y-104140000D01*
D58*
X104289860Y-93472000D02*
X107220000Y-93472000D01*
D59*
X101450140Y-93472000D02*
X101092000Y-93472000D01*
X101092000Y-93472000D02*
X100076000Y-94488000D01*
X100076000Y-94488000D02*
X100076000Y-99568000D01*
X100076000Y-99568000D02*
X104648000Y-104140000D01*
X104648000Y-104140000D02*
X104648000Y-107188000D01*
X104648000Y-107188000D02*
X103286000Y-108550000D01*
X103286000Y-108550000D02*
X101950000Y-108550000D01*
D62*
X104289860Y-90932000D02*
X107220000Y-90932000D01*
D59*
X101450140Y-90932000D02*
X101092000Y-90932000D01*
X101092000Y-90932000D02*
X99568000Y-92456000D01*
X99568000Y-92456000D02*
X99568000Y-99568000D01*
X99568000Y-99568000D02*
X104140000Y-104140000D01*
X104140000Y-104140000D02*
X104140000Y-107188000D01*
X104140000Y-107188000D02*
X103178000Y-108150000D01*
X103178000Y-108150000D02*
X101950000Y-108150000D01*
D62*
X104289860Y-83312000D02*
X107220000Y-83312000D01*
D59*
X101950000Y-107750000D02*
X99514000Y-107750000D01*
X99514000Y-107750000D02*
X99060000Y-108204000D01*
D58*
X101450140Y-83312000D02*
X86773000Y-83312000D01*
X86773000Y-83312000D02*
X82275000Y-87810000D01*
D62*
X104289860Y-88392000D02*
X107220000Y-88392000D01*
D59*
X101450140Y-88392000D02*
X100584000Y-88392000D01*
X103254000Y-106550000D02*
X101950000Y-106550000D01*
X103632000Y-106172000D02*
X103254000Y-106550000D01*
X103632000Y-104140000D02*
X103632000Y-106172000D01*
X99060000Y-99568000D02*
X103632000Y-104140000D01*
X99060000Y-89916000D02*
X99060000Y-99568000D01*
X100584000Y-88392000D02*
X99060000Y-89916000D01*
X101450140Y-88392000D02*
X101092000Y-88392000D01*
D62*
X104289860Y-85852000D02*
X107220000Y-85852000D01*
D59*
X101450140Y-85852000D02*
X100584000Y-85852000D01*
X101070000Y-106150000D02*
X101950000Y-106150000D01*
X98552000Y-103632000D02*
X101070000Y-106150000D01*
X98552000Y-87884000D02*
X98552000Y-103632000D01*
X100584000Y-85852000D02*
X98552000Y-87884000D01*
D58*
X90445000Y-87810000D02*
X90498000Y-87810000D01*
X90498000Y-87810000D02*
X92456000Y-85852000D01*
X92456000Y-85852000D02*
X101450140Y-85852000D01*
D59*
X106150000Y-113950000D02*
X106150000Y-112290000D01*
X106150000Y-112290000D02*
X106680000Y-111760000D01*
X107350000Y-113950000D02*
X107350000Y-112868000D01*
X108204000Y-112014000D02*
X108204000Y-110744000D01*
X107350000Y-112868000D02*
X108204000Y-112014000D01*
X106950000Y-113950000D02*
X106950000Y-112506000D01*
X107442000Y-112014000D02*
X107442000Y-111252000D01*
X106950000Y-112506000D02*
X107442000Y-112014000D01*
X105750000Y-113950000D02*
X105750000Y-111674000D01*
X105750000Y-111674000D02*
X106680000Y-110744000D01*
D60*
X74644000Y-89916000D02*
X77629000Y-89916000D01*
X77629000Y-89916000D02*
X79735000Y-87810000D01*
X74644000Y-92456000D02*
X77216000Y-92456000D01*
X91387000Y-89408000D02*
X92985000Y-87810000D01*
X80264000Y-89408000D02*
X91387000Y-89408000D01*
X77216000Y-92456000D02*
X80264000Y-89408000D01*
D62*
X99060000Y-121380000D02*
X101600000Y-121380000D01*
D59*
X101600000Y-117380000D02*
X101600000Y-117348000D01*
X101600000Y-117348000D02*
X104150000Y-114798000D01*
X104150000Y-114798000D02*
X104150000Y-113950000D01*
X104550000Y-101950000D02*
X104550000Y-100428000D01*
X104550000Y-100428000D02*
X106426000Y-98552000D01*
X106426000Y-98552000D02*
X107220000Y-98552000D01*
X118650000Y-110490000D02*
X118618000Y-110490000D01*
X118618000Y-110490000D02*
X115878000Y-107750000D01*
X115878000Y-107750000D02*
X113950000Y-107750000D01*
D61*
X83585000Y-136379000D02*
X83585000Y-133790000D01*
X81534000Y-138430000D02*
X83585000Y-136379000D01*
X80772000Y-138430000D02*
X81534000Y-138430000D01*
X79756000Y-139446000D02*
X80772000Y-138430000D01*
D63*
X87435000Y-127540000D02*
X88360000Y-127540000D01*
X126238000Y-94996000D02*
X121604000Y-94996000D01*
X113030000Y-102362000D02*
X116840000Y-102362000D01*
D59*
X101092000Y-114300000D02*
X113030000Y-102362000D01*
D63*
X98552000Y-114300000D02*
X101092000Y-114300000D01*
X94234000Y-118618000D02*
X98552000Y-114300000D01*
X94234000Y-121666000D02*
X94234000Y-118618000D01*
X88360000Y-127540000D02*
X94234000Y-121666000D01*
D64*
G36*
X62103000Y-114173000D02*
X43942000Y-114173000D01*
X43942000Y-111252000D01*
X56515000Y-111252000D01*
X56564410Y-111241994D01*
X56606035Y-111213553D01*
X56633315Y-111171159D01*
X56642000Y-111125000D01*
X56642000Y-107442000D01*
X62103000Y-107442000D01*
X62103000Y-114173000D01*
X62103000Y-114173000D01*
G37*
X62103000Y-114173000D02*
X43942000Y-114173000D01*
X43942000Y-111252000D01*
X56515000Y-111252000D01*
X56564410Y-111241994D01*
X56606035Y-111213553D01*
X56633315Y-111171159D01*
X56642000Y-111125000D01*
X56642000Y-107442000D01*
X62103000Y-107442000D01*
X62103000Y-114173000D01*
G36*
X58547000Y-119126000D02*
X58557006Y-119175410D01*
X58585447Y-119217035D01*
X58627841Y-119244315D01*
X58674000Y-119253000D01*
X62865000Y-119253000D01*
X62865000Y-123063000D01*
X55753000Y-123063000D01*
X55753000Y-121412000D01*
X55742994Y-121362590D01*
X55714553Y-121320965D01*
X55672159Y-121293685D01*
X55626000Y-121285000D01*
X51943000Y-121285000D01*
X51943000Y-115697000D01*
X58547000Y-115697000D01*
X58547000Y-119126000D01*
X58547000Y-119126000D01*
G37*
X58547000Y-119126000D02*
X58557006Y-119175410D01*
X58585447Y-119217035D01*
X58627841Y-119244315D01*
X58674000Y-119253000D01*
X62865000Y-119253000D01*
X62865000Y-123063000D01*
X55753000Y-123063000D01*
X55753000Y-121412000D01*
X55742994Y-121362590D01*
X55714553Y-121320965D01*
X55672159Y-121293685D01*
X55626000Y-121285000D01*
X51943000Y-121285000D01*
X51943000Y-115697000D01*
X58547000Y-115697000D01*
X58547000Y-119126000D01*
M02*
