G04 #@! TF.FileFunction,Legend,Top*
%FSLAX46Y46*%
G04 Gerber Fmt 4.6, Leading zero omitted, Abs format (unit mm)*
G04 Created by KiCad (PCBNEW 4.0.2-stable) date 5/28/2016 11:57:46 PM*
%MOMM*%
G01*
G04 APERTURE LIST*
%ADD10C,0.127000*%
%ADD11C,0.150000*%
%ADD12C,0.010000*%
%ADD13C,0.635000*%
G04 APERTURE END LIST*
D10*
X55668857Y-169498571D02*
X55668857Y-169041428D01*
X55668857Y-168755714D02*
X55668857Y-168298571D01*
X55583143Y-168012857D02*
X55583143Y-167812857D01*
X55897429Y-167727143D02*
X55897429Y-168012857D01*
X55297429Y-168012857D01*
X55297429Y-167727143D01*
X55497429Y-167470000D02*
X55897429Y-167470000D01*
X55554571Y-167470000D02*
X55526000Y-167441428D01*
X55497429Y-167384286D01*
X55497429Y-167298571D01*
X55526000Y-167241428D01*
X55583143Y-167212857D01*
X55897429Y-167212857D01*
X55868857Y-166670000D02*
X55897429Y-166727143D01*
X55897429Y-166841429D01*
X55868857Y-166898571D01*
X55840286Y-166927143D01*
X55783143Y-166955714D01*
X55611714Y-166955714D01*
X55554571Y-166927143D01*
X55526000Y-166898571D01*
X55497429Y-166841429D01*
X55497429Y-166727143D01*
X55526000Y-166670000D01*
X55897429Y-166327143D02*
X55868857Y-166384285D01*
X55840286Y-166412857D01*
X55783143Y-166441428D01*
X55611714Y-166441428D01*
X55554571Y-166412857D01*
X55526000Y-166384285D01*
X55497429Y-166327143D01*
X55497429Y-166241428D01*
X55526000Y-166184285D01*
X55554571Y-166155714D01*
X55611714Y-166127143D01*
X55783143Y-166127143D01*
X55840286Y-166155714D01*
X55868857Y-166184285D01*
X55897429Y-166241428D01*
X55897429Y-166327143D01*
X55897429Y-165612857D02*
X55297429Y-165612857D01*
X55868857Y-165612857D02*
X55897429Y-165670000D01*
X55897429Y-165784286D01*
X55868857Y-165841428D01*
X55840286Y-165870000D01*
X55783143Y-165898571D01*
X55611714Y-165898571D01*
X55554571Y-165870000D01*
X55526000Y-165841428D01*
X55497429Y-165784286D01*
X55497429Y-165670000D01*
X55526000Y-165612857D01*
X55868857Y-165098571D02*
X55897429Y-165155714D01*
X55897429Y-165270000D01*
X55868857Y-165327143D01*
X55811714Y-165355714D01*
X55583143Y-165355714D01*
X55526000Y-165327143D01*
X55497429Y-165270000D01*
X55497429Y-165155714D01*
X55526000Y-165098571D01*
X55583143Y-165070000D01*
X55640286Y-165070000D01*
X55697429Y-165355714D01*
X55897429Y-164812857D02*
X55497429Y-164812857D01*
X55611714Y-164812857D02*
X55554571Y-164784285D01*
X55526000Y-164755714D01*
X55497429Y-164698571D01*
X55497429Y-164641428D01*
X55668857Y-164441428D02*
X55668857Y-163984285D01*
X55668857Y-163698571D02*
X55668857Y-163241428D01*
X55668857Y-162077142D02*
X55668857Y-161619999D01*
X55583143Y-161134285D02*
X55611714Y-161048571D01*
X55640286Y-161019999D01*
X55697429Y-160991428D01*
X55783143Y-160991428D01*
X55840286Y-161019999D01*
X55868857Y-161048571D01*
X55897429Y-161105713D01*
X55897429Y-161334285D01*
X55297429Y-161334285D01*
X55297429Y-161134285D01*
X55326000Y-161077142D01*
X55354571Y-161048571D01*
X55411714Y-161019999D01*
X55468857Y-161019999D01*
X55526000Y-161048571D01*
X55554571Y-161077142D01*
X55583143Y-161134285D01*
X55583143Y-161334285D01*
X55497429Y-160477142D02*
X55897429Y-160477142D01*
X55497429Y-160734285D02*
X55811714Y-160734285D01*
X55868857Y-160705713D01*
X55897429Y-160648571D01*
X55897429Y-160562856D01*
X55868857Y-160505713D01*
X55840286Y-160477142D01*
X55497429Y-160277142D02*
X55497429Y-160048571D01*
X55297429Y-160191428D02*
X55811714Y-160191428D01*
X55868857Y-160162856D01*
X55897429Y-160105714D01*
X55897429Y-160048571D01*
X55497429Y-159934285D02*
X55497429Y-159705714D01*
X55297429Y-159848571D02*
X55811714Y-159848571D01*
X55868857Y-159819999D01*
X55897429Y-159762857D01*
X55897429Y-159705714D01*
X55897429Y-159420000D02*
X55868857Y-159477142D01*
X55840286Y-159505714D01*
X55783143Y-159534285D01*
X55611714Y-159534285D01*
X55554571Y-159505714D01*
X55526000Y-159477142D01*
X55497429Y-159420000D01*
X55497429Y-159334285D01*
X55526000Y-159277142D01*
X55554571Y-159248571D01*
X55611714Y-159220000D01*
X55783143Y-159220000D01*
X55840286Y-159248571D01*
X55868857Y-159277142D01*
X55897429Y-159334285D01*
X55897429Y-159420000D01*
X55497429Y-158962857D02*
X55897429Y-158962857D01*
X55554571Y-158962857D02*
X55526000Y-158934285D01*
X55497429Y-158877143D01*
X55497429Y-158791428D01*
X55526000Y-158734285D01*
X55583143Y-158705714D01*
X55897429Y-158705714D01*
X55668857Y-158420000D02*
X55668857Y-157962857D01*
X88411142Y-168581429D02*
X88782571Y-168581429D01*
X88582571Y-168810000D01*
X88668285Y-168810000D01*
X88725428Y-168838571D01*
X88753999Y-168867143D01*
X88782571Y-168924286D01*
X88782571Y-169067143D01*
X88753999Y-169124286D01*
X88725428Y-169152857D01*
X88668285Y-169181429D01*
X88496857Y-169181429D01*
X88439714Y-169152857D01*
X88411142Y-169124286D01*
X88954000Y-168581429D02*
X89154000Y-169181429D01*
X89354000Y-168581429D01*
X89496857Y-168581429D02*
X89868286Y-168581429D01*
X89668286Y-168810000D01*
X89754000Y-168810000D01*
X89811143Y-168838571D01*
X89839714Y-168867143D01*
X89868286Y-168924286D01*
X89868286Y-169067143D01*
X89839714Y-169124286D01*
X89811143Y-169152857D01*
X89754000Y-169181429D01*
X89582572Y-169181429D01*
X89525429Y-169152857D01*
X89496857Y-169124286D01*
X87957143Y-166641429D02*
X87957143Y-166041429D01*
X88157143Y-166470000D01*
X88357143Y-166041429D01*
X88357143Y-166641429D01*
X88757143Y-166041429D02*
X88871429Y-166041429D01*
X88928571Y-166070000D01*
X88985714Y-166127143D01*
X89014286Y-166241429D01*
X89014286Y-166441429D01*
X88985714Y-166555714D01*
X88928571Y-166612857D01*
X88871429Y-166641429D01*
X88757143Y-166641429D01*
X88700000Y-166612857D01*
X88642857Y-166555714D01*
X88614286Y-166441429D01*
X88614286Y-166241429D01*
X88642857Y-166127143D01*
X88700000Y-166070000D01*
X88757143Y-166041429D01*
X89242857Y-166612857D02*
X89328571Y-166641429D01*
X89471428Y-166641429D01*
X89528571Y-166612857D01*
X89557142Y-166584286D01*
X89585714Y-166527143D01*
X89585714Y-166470000D01*
X89557142Y-166412857D01*
X89528571Y-166384286D01*
X89471428Y-166355714D01*
X89357142Y-166327143D01*
X89300000Y-166298571D01*
X89271428Y-166270000D01*
X89242857Y-166212857D01*
X89242857Y-166155714D01*
X89271428Y-166098571D01*
X89300000Y-166070000D01*
X89357142Y-166041429D01*
X89500000Y-166041429D01*
X89585714Y-166070000D01*
X89842857Y-166641429D02*
X89842857Y-166041429D01*
X88696858Y-163530000D02*
X88639715Y-163501429D01*
X88554001Y-163501429D01*
X88468286Y-163530000D01*
X88411144Y-163587143D01*
X88382572Y-163644286D01*
X88354001Y-163758571D01*
X88354001Y-163844286D01*
X88382572Y-163958571D01*
X88411144Y-164015714D01*
X88468286Y-164072857D01*
X88554001Y-164101429D01*
X88611144Y-164101429D01*
X88696858Y-164072857D01*
X88725429Y-164044286D01*
X88725429Y-163844286D01*
X88611144Y-163844286D01*
X88982572Y-164101429D02*
X88982572Y-163501429D01*
X89325429Y-164101429D01*
X89325429Y-163501429D01*
X89611143Y-164101429D02*
X89611143Y-163501429D01*
X89754000Y-163501429D01*
X89839715Y-163530000D01*
X89896857Y-163587143D01*
X89925429Y-163644286D01*
X89954000Y-163758571D01*
X89954000Y-163844286D01*
X89925429Y-163958571D01*
X89896857Y-164015714D01*
X89839715Y-164072857D01*
X89754000Y-164101429D01*
X89611143Y-164101429D01*
X95902571Y-164101429D02*
X95702571Y-163815714D01*
X95559714Y-164101429D02*
X95559714Y-163501429D01*
X95788286Y-163501429D01*
X95845428Y-163530000D01*
X95874000Y-163558571D01*
X95902571Y-163615714D01*
X95902571Y-163701429D01*
X95874000Y-163758571D01*
X95845428Y-163787143D01*
X95788286Y-163815714D01*
X95559714Y-163815714D01*
X96159714Y-163787143D02*
X96359714Y-163787143D01*
X96445428Y-164101429D02*
X96159714Y-164101429D01*
X96159714Y-163501429D01*
X96445428Y-163501429D01*
X96674000Y-164072857D02*
X96759714Y-164101429D01*
X96902571Y-164101429D01*
X96959714Y-164072857D01*
X96988285Y-164044286D01*
X97016857Y-163987143D01*
X97016857Y-163930000D01*
X96988285Y-163872857D01*
X96959714Y-163844286D01*
X96902571Y-163815714D01*
X96788285Y-163787143D01*
X96731143Y-163758571D01*
X96702571Y-163730000D01*
X96674000Y-163672857D01*
X96674000Y-163615714D01*
X96702571Y-163558571D01*
X96731143Y-163530000D01*
X96788285Y-163501429D01*
X96931143Y-163501429D01*
X97016857Y-163530000D01*
X97274000Y-163787143D02*
X97474000Y-163787143D01*
X97559714Y-164101429D02*
X97274000Y-164101429D01*
X97274000Y-163501429D01*
X97559714Y-163501429D01*
X97731143Y-163501429D02*
X98074000Y-163501429D01*
X97902571Y-164101429D02*
X97902571Y-163501429D01*
X95494572Y-166612857D02*
X95580286Y-166641429D01*
X95723143Y-166641429D01*
X95780286Y-166612857D01*
X95808857Y-166584286D01*
X95837429Y-166527143D01*
X95837429Y-166470000D01*
X95808857Y-166412857D01*
X95780286Y-166384286D01*
X95723143Y-166355714D01*
X95608857Y-166327143D01*
X95551715Y-166298571D01*
X95523143Y-166270000D01*
X95494572Y-166212857D01*
X95494572Y-166155714D01*
X95523143Y-166098571D01*
X95551715Y-166070000D01*
X95608857Y-166041429D01*
X95751715Y-166041429D01*
X95837429Y-166070000D01*
X96437429Y-166584286D02*
X96408858Y-166612857D01*
X96323144Y-166641429D01*
X96266001Y-166641429D01*
X96180286Y-166612857D01*
X96123144Y-166555714D01*
X96094572Y-166498571D01*
X96066001Y-166384286D01*
X96066001Y-166298571D01*
X96094572Y-166184286D01*
X96123144Y-166127143D01*
X96180286Y-166070000D01*
X96266001Y-166041429D01*
X96323144Y-166041429D01*
X96408858Y-166070000D01*
X96437429Y-166098571D01*
X96694572Y-166641429D02*
X96694572Y-166041429D01*
X97037429Y-166641429D02*
X96780286Y-166298571D01*
X97037429Y-166041429D02*
X96694572Y-166384286D01*
X95831143Y-169181429D02*
X95831143Y-168581429D01*
X96031143Y-169010000D01*
X96231143Y-168581429D01*
X96231143Y-169181429D01*
X96516857Y-169181429D02*
X96516857Y-168581429D01*
X96774000Y-169152857D02*
X96859714Y-169181429D01*
X97002571Y-169181429D01*
X97059714Y-169152857D01*
X97088285Y-169124286D01*
X97116857Y-169067143D01*
X97116857Y-169010000D01*
X97088285Y-168952857D01*
X97059714Y-168924286D01*
X97002571Y-168895714D01*
X96888285Y-168867143D01*
X96831143Y-168838571D01*
X96802571Y-168810000D01*
X96774000Y-168752857D01*
X96774000Y-168695714D01*
X96802571Y-168638571D01*
X96831143Y-168610000D01*
X96888285Y-168581429D01*
X97031143Y-168581429D01*
X97116857Y-168610000D01*
X97488286Y-168581429D02*
X97602572Y-168581429D01*
X97659714Y-168610000D01*
X97716857Y-168667143D01*
X97745429Y-168781429D01*
X97745429Y-168981429D01*
X97716857Y-169095714D01*
X97659714Y-169152857D01*
X97602572Y-169181429D01*
X97488286Y-169181429D01*
X97431143Y-169152857D01*
X97374000Y-169095714D01*
X97345429Y-168981429D01*
X97345429Y-168781429D01*
X97374000Y-168667143D01*
X97431143Y-168610000D01*
X97488286Y-168581429D01*
X103708286Y-156735429D02*
X103708286Y-156135429D01*
X103851143Y-156135429D01*
X103936858Y-156164000D01*
X103994000Y-156221143D01*
X104022572Y-156278286D01*
X104051143Y-156392571D01*
X104051143Y-156478286D01*
X104022572Y-156592571D01*
X103994000Y-156649714D01*
X103936858Y-156706857D01*
X103851143Y-156735429D01*
X103708286Y-156735429D01*
X104222572Y-156135429D02*
X104565429Y-156135429D01*
X104394000Y-156735429D02*
X104394000Y-156135429D01*
X105108286Y-156735429D02*
X104908286Y-156449714D01*
X104765429Y-156735429D02*
X104765429Y-156135429D01*
X104994001Y-156135429D01*
X105051143Y-156164000D01*
X105079715Y-156192571D01*
X105108286Y-156249714D01*
X105108286Y-156335429D01*
X105079715Y-156392571D01*
X105051143Y-156421143D01*
X104994001Y-156449714D01*
X104765429Y-156449714D01*
X103876572Y-158675429D02*
X104219429Y-158675429D01*
X104048000Y-159275429D02*
X104048000Y-158675429D01*
X104362286Y-158675429D02*
X104762286Y-159275429D01*
X104762286Y-158675429D02*
X104362286Y-159275429D01*
X105105144Y-158675429D02*
X105219430Y-158675429D01*
X105276572Y-158704000D01*
X105333715Y-158761143D01*
X105362287Y-158875429D01*
X105362287Y-159075429D01*
X105333715Y-159189714D01*
X105276572Y-159246857D01*
X105219430Y-159275429D01*
X105105144Y-159275429D01*
X105048001Y-159246857D01*
X104990858Y-159189714D01*
X104962287Y-159075429D01*
X104962287Y-158875429D01*
X104990858Y-158761143D01*
X105048001Y-158704000D01*
X105105144Y-158675429D01*
X104405143Y-161815429D02*
X104205143Y-161529714D01*
X104062286Y-161815429D02*
X104062286Y-161215429D01*
X104290858Y-161215429D01*
X104348000Y-161244000D01*
X104376572Y-161272571D01*
X104405143Y-161329714D01*
X104405143Y-161415429D01*
X104376572Y-161472571D01*
X104348000Y-161501143D01*
X104290858Y-161529714D01*
X104062286Y-161529714D01*
X104605143Y-161215429D02*
X105005143Y-161815429D01*
X105005143Y-161215429D02*
X104605143Y-161815429D01*
X105233715Y-161815429D02*
X105233715Y-161215429D01*
X103905142Y-163755429D02*
X104276571Y-163755429D01*
X104076571Y-163984000D01*
X104162285Y-163984000D01*
X104219428Y-164012571D01*
X104247999Y-164041143D01*
X104276571Y-164098286D01*
X104276571Y-164241143D01*
X104247999Y-164298286D01*
X104219428Y-164326857D01*
X104162285Y-164355429D01*
X103990857Y-164355429D01*
X103933714Y-164326857D01*
X103905142Y-164298286D01*
X104448000Y-163755429D02*
X104648000Y-164355429D01*
X104848000Y-163755429D01*
X104990857Y-163755429D02*
X105362286Y-163755429D01*
X105162286Y-163984000D01*
X105248000Y-163984000D01*
X105305143Y-164012571D01*
X105333714Y-164041143D01*
X105362286Y-164098286D01*
X105362286Y-164241143D01*
X105333714Y-164298286D01*
X105305143Y-164326857D01*
X105248000Y-164355429D01*
X105076572Y-164355429D01*
X105019429Y-164326857D01*
X104990857Y-164298286D01*
X104190858Y-166324000D02*
X104133715Y-166295429D01*
X104048001Y-166295429D01*
X103962286Y-166324000D01*
X103905144Y-166381143D01*
X103876572Y-166438286D01*
X103848001Y-166552571D01*
X103848001Y-166638286D01*
X103876572Y-166752571D01*
X103905144Y-166809714D01*
X103962286Y-166866857D01*
X104048001Y-166895429D01*
X104105144Y-166895429D01*
X104190858Y-166866857D01*
X104219429Y-166838286D01*
X104219429Y-166638286D01*
X104105144Y-166638286D01*
X104476572Y-166895429D02*
X104476572Y-166295429D01*
X104819429Y-166895429D01*
X104819429Y-166295429D01*
X105105143Y-166895429D02*
X105105143Y-166295429D01*
X105248000Y-166295429D01*
X105333715Y-166324000D01*
X105390857Y-166381143D01*
X105419429Y-166438286D01*
X105448000Y-166552571D01*
X105448000Y-166638286D01*
X105419429Y-166752571D01*
X105390857Y-166809714D01*
X105333715Y-166866857D01*
X105248000Y-166895429D01*
X105105143Y-166895429D01*
X104190858Y-168864000D02*
X104133715Y-168835429D01*
X104048001Y-168835429D01*
X103962286Y-168864000D01*
X103905144Y-168921143D01*
X103876572Y-168978286D01*
X103848001Y-169092571D01*
X103848001Y-169178286D01*
X103876572Y-169292571D01*
X103905144Y-169349714D01*
X103962286Y-169406857D01*
X104048001Y-169435429D01*
X104105144Y-169435429D01*
X104190858Y-169406857D01*
X104219429Y-169378286D01*
X104219429Y-169178286D01*
X104105144Y-169178286D01*
X104476572Y-169435429D02*
X104476572Y-168835429D01*
X104819429Y-169435429D01*
X104819429Y-168835429D01*
X105105143Y-169435429D02*
X105105143Y-168835429D01*
X105248000Y-168835429D01*
X105333715Y-168864000D01*
X105390857Y-168921143D01*
X105419429Y-168978286D01*
X105448000Y-169092571D01*
X105448000Y-169178286D01*
X105419429Y-169292571D01*
X105390857Y-169349714D01*
X105333715Y-169406857D01*
X105248000Y-169435429D01*
X105105143Y-169435429D01*
D11*
X103750000Y-114950000D02*
X100950000Y-112150000D01*
X100950000Y-103750000D02*
X100950000Y-100950000D01*
X100950000Y-100950000D02*
X103750000Y-100950000D01*
X114950000Y-112150000D02*
X114950000Y-114950000D01*
X114950000Y-114950000D02*
X112150000Y-114950000D01*
X114950000Y-103750000D02*
X114950000Y-100950000D01*
X114950000Y-100950000D02*
X112150000Y-100950000D01*
X132334000Y-91440000D02*
G75*
G03X132588000Y-91694000I254000J0D01*
G01*
X132723000Y-95622000D02*
X132723000Y-91322000D01*
X132723000Y-91322000D02*
X127373000Y-91322000D01*
X127373000Y-91322000D02*
X127373000Y-95622000D01*
X127373000Y-95622000D02*
X132723000Y-95622000D01*
X48280001Y-154160000D02*
G75*
G03X47480000Y-154960000I1249999J-2050000D01*
G01*
X50779999Y-154160000D02*
G75*
G02X51580000Y-154960000I-1249999J-2050000D01*
G01*
X47491274Y-157484203D02*
G75*
G03X47830000Y-157910000I2038726J1274203D01*
G01*
X51568726Y-157484203D02*
G75*
G02X51230000Y-157910000I-2038726J1274203D01*
G01*
X47830000Y-157910000D02*
X51230000Y-157910000D01*
X70413000Y-164128000D02*
X70413000Y-163928000D01*
X70413000Y-161534000D02*
X70413000Y-161714000D01*
X73640744Y-161844357D02*
G75*
G03X70413000Y-161528000I-1727744J-1003643D01*
G01*
X72965006Y-161714932D02*
G75*
G03X70862000Y-161714000I-1052006J-1133068D01*
G01*
X70425780Y-164154726D02*
G75*
G03X73663000Y-163808000I1497220J1306726D01*
G01*
X70899111Y-163927253D02*
G75*
G03X72947000Y-163908000I1013889J1079253D01*
G01*
X135890000Y-154940000D02*
G75*
G03X135890000Y-154940000I-15240000J0D01*
G01*
X124215000Y-131810000D02*
X124215000Y-129810000D01*
X122165000Y-129810000D02*
X122165000Y-131810000D01*
X59182000Y-109855000D02*
X59182000Y-110109000D01*
X59182000Y-110109000D02*
X61468000Y-110109000D01*
X61468000Y-110109000D02*
X61468000Y-109855000D01*
X59182000Y-109855000D02*
X61468000Y-109855000D01*
X61468000Y-109855000D02*
X61468000Y-108204000D01*
X59182000Y-106426000D02*
X59182000Y-104775000D01*
X59182000Y-104775000D02*
X61468000Y-104775000D01*
X61468000Y-104775000D02*
X61468000Y-106426000D01*
X59182000Y-108204000D02*
X59182000Y-109855000D01*
X49022000Y-109855000D02*
X49022000Y-110109000D01*
X49022000Y-110109000D02*
X51308000Y-110109000D01*
X51308000Y-110109000D02*
X51308000Y-109855000D01*
X49022000Y-109855000D02*
X51308000Y-109855000D01*
X51308000Y-109855000D02*
X51308000Y-108204000D01*
X49022000Y-106426000D02*
X49022000Y-104775000D01*
X49022000Y-104775000D02*
X51308000Y-104775000D01*
X51308000Y-104775000D02*
X51308000Y-106426000D01*
X49022000Y-108204000D02*
X49022000Y-109855000D01*
X90415000Y-146320000D02*
X90415000Y-148320000D01*
X92465000Y-148320000D02*
X92465000Y-146320000D01*
X87875000Y-146320000D02*
X87875000Y-148320000D01*
X89925000Y-148320000D02*
X89925000Y-146320000D01*
X116840000Y-129540000D02*
X116840000Y-137160000D01*
X119380000Y-129540000D02*
X119380000Y-137160000D01*
X119660000Y-126720000D02*
X119660000Y-128270000D01*
X116840000Y-137160000D02*
X119380000Y-137160000D01*
X119380000Y-129540000D02*
X116840000Y-129540000D01*
X116560000Y-128270000D02*
X116560000Y-126720000D01*
X116560000Y-126720000D02*
X119660000Y-126720000D01*
X104140000Y-129540000D02*
X104140000Y-137160000D01*
X106680000Y-129540000D02*
X106680000Y-137160000D01*
X106960000Y-126720000D02*
X106960000Y-128270000D01*
X104140000Y-137160000D02*
X106680000Y-137160000D01*
X106680000Y-129540000D02*
X104140000Y-129540000D01*
X103860000Y-128270000D02*
X103860000Y-126720000D01*
X103860000Y-126720000D02*
X106960000Y-126720000D01*
X110490000Y-129540000D02*
X110490000Y-137160000D01*
X113030000Y-129540000D02*
X113030000Y-137160000D01*
X113310000Y-126720000D02*
X113310000Y-128270000D01*
X110490000Y-137160000D02*
X113030000Y-137160000D01*
X113030000Y-129540000D02*
X110490000Y-129540000D01*
X110210000Y-128270000D02*
X110210000Y-126720000D01*
X110210000Y-126720000D02*
X113310000Y-126720000D01*
X49805000Y-164670000D02*
X49805000Y-162670000D01*
X51955000Y-162670000D02*
X51955000Y-164670000D01*
X72882000Y-159825000D02*
X70882000Y-159825000D01*
X70882000Y-157675000D02*
X72882000Y-157675000D01*
X47265000Y-164670000D02*
X47265000Y-162670000D01*
X49415000Y-162670000D02*
X49415000Y-164670000D01*
X51689000Y-106934000D02*
X51689000Y-109982000D01*
X51689000Y-109982000D02*
X58801000Y-109982000D01*
X58801000Y-109982000D02*
X58801000Y-106934000D01*
X51689000Y-103886000D02*
X51689000Y-103124000D01*
X51689000Y-103124000D02*
X53213000Y-100838000D01*
X53213000Y-100838000D02*
X57277000Y-100838000D01*
X57277000Y-100838000D02*
X58801000Y-103124000D01*
X58801000Y-103124000D02*
X58801000Y-103886000D01*
X136960000Y-125295000D02*
X135960000Y-124295000D01*
X135960000Y-124295000D02*
X124660000Y-124295000D01*
X124660000Y-124295000D02*
X124660000Y-137325000D01*
X124660000Y-137325000D02*
X136960000Y-137325000D01*
X136960000Y-137325000D02*
X136960000Y-125295000D01*
X79720000Y-149945000D02*
X80720000Y-150945000D01*
X80720000Y-150945000D02*
X87920000Y-150945000D01*
X87920000Y-150945000D02*
X87920000Y-143695000D01*
X87920000Y-143695000D02*
X79720000Y-143695000D01*
X79720000Y-143695000D02*
X79720000Y-149945000D01*
X56430000Y-143510000D02*
G75*
G03X56430000Y-143510000I-6900000J0D01*
G01*
X65135000Y-154745000D02*
X63135000Y-154745000D01*
X63135000Y-152595000D02*
X65135000Y-152595000D01*
X126476000Y-120895000D02*
X124476000Y-120895000D01*
X124476000Y-122945000D02*
X126476000Y-122945000D01*
X135310880Y-108264960D02*
X135310880Y-103063040D01*
X132913120Y-103063040D02*
X132913120Y-108264960D01*
X131813300Y-110263940D02*
X132913120Y-110263940D01*
X132313680Y-110863380D02*
X132313680Y-109664500D01*
X132913120Y-109659420D02*
X135310880Y-109659420D01*
X137144000Y-112259000D02*
X135144000Y-112259000D01*
X135144000Y-114309000D02*
X137144000Y-114309000D01*
X94345000Y-129150000D02*
X92345000Y-129150000D01*
X92345000Y-131200000D02*
X94345000Y-131200000D01*
X135119000Y-105172000D02*
X135119000Y-107172000D01*
X137169000Y-107172000D02*
X137169000Y-105172000D01*
X94345000Y-131690000D02*
X92345000Y-131690000D01*
X92345000Y-133740000D02*
X94345000Y-133740000D01*
X94345000Y-126610000D02*
X92345000Y-126610000D01*
X92345000Y-128660000D02*
X94345000Y-128660000D01*
X126501000Y-118348000D02*
X126501000Y-116348000D01*
X124451000Y-116348000D02*
X124451000Y-118348000D01*
X61985000Y-136890000D02*
X61985000Y-134890000D01*
X59935000Y-134890000D02*
X59935000Y-136890000D01*
X59935000Y-142510000D02*
X59935000Y-144510000D01*
X61985000Y-144510000D02*
X61985000Y-142510000D01*
X92955000Y-156480000D02*
X92955000Y-158480000D01*
X95005000Y-158480000D02*
X95005000Y-156480000D01*
X63230000Y-123435000D02*
X61230000Y-123435000D01*
X61230000Y-125485000D02*
X63230000Y-125485000D01*
X52435000Y-118990000D02*
X50435000Y-118990000D01*
X50435000Y-121040000D02*
X52435000Y-121040000D01*
X61350000Y-115935000D02*
X61350000Y-113935000D01*
X59300000Y-113935000D02*
X59300000Y-115935000D01*
X129175000Y-90560000D02*
X131175000Y-90560000D01*
X131175000Y-88510000D02*
X129175000Y-88510000D01*
D12*
X57445000Y-114935000D02*
G75*
G03X57445000Y-114935000I-2200000J0D01*
G01*
D11*
X51595000Y-117585000D02*
X52595000Y-118585000D01*
X52595000Y-118585000D02*
X58895000Y-118585000D01*
X58895000Y-118585000D02*
X58895000Y-111285000D01*
X58895000Y-111285000D02*
X51595000Y-111285000D01*
X51595000Y-111285000D02*
X51595000Y-117585000D01*
X94345000Y-136330000D02*
X92345000Y-136330000D01*
X92345000Y-134180000D02*
X94345000Y-134180000D01*
X92515000Y-156480000D02*
X92515000Y-158480000D01*
X90365000Y-158480000D02*
X90365000Y-156480000D01*
X57420000Y-127195000D02*
X59420000Y-127195000D01*
X59420000Y-129345000D02*
X57420000Y-129345000D01*
X44645000Y-124190000D02*
X44645000Y-122190000D01*
X46795000Y-122190000D02*
X46795000Y-124190000D01*
X48700000Y-106315000D02*
X48700000Y-108315000D01*
X46550000Y-108315000D02*
X46550000Y-106315000D01*
X44010000Y-115935000D02*
X44010000Y-113935000D01*
X46160000Y-113935000D02*
X46160000Y-115935000D01*
X128635000Y-117205000D02*
X129435000Y-117205000D01*
X132985000Y-121555000D02*
X132185000Y-121555000D01*
X132985000Y-117205000D02*
X132185000Y-117205000D01*
X128635000Y-121555000D02*
X128635000Y-120755000D01*
X132985000Y-121555000D02*
X132985000Y-120755000D01*
X132985000Y-117205000D02*
X132985000Y-118005000D01*
X128635000Y-117205000D02*
X128635000Y-118005000D01*
X133064000Y-113744000D02*
X134364000Y-113744000D01*
X134364000Y-113744000D02*
X134364000Y-113344000D01*
X134364000Y-113344000D02*
X133964000Y-113344000D01*
X133964000Y-113344000D02*
X133964000Y-113744000D01*
X129064000Y-113744000D02*
X133064000Y-113744000D01*
X133064000Y-113744000D02*
X133064000Y-107744000D01*
X133064000Y-107744000D02*
X129064000Y-107744000D01*
X129064000Y-107744000D02*
X129064000Y-113744000D01*
X54945000Y-122125000D02*
G75*
G03X54945000Y-122125000I-100000J0D01*
G01*
X55495000Y-122375000D02*
X54995000Y-122375000D01*
X55495000Y-125275000D02*
X55495000Y-122375000D01*
X54995000Y-125275000D02*
X55495000Y-125275000D01*
X54995000Y-122375000D02*
X54995000Y-125275000D01*
X97375000Y-131200000D02*
X97375000Y-134800000D01*
X99475000Y-131200000D02*
X99475000Y-134800000D01*
X98725000Y-133250000D02*
X98125000Y-133250000D01*
X98125000Y-133250000D02*
X98425000Y-132950000D01*
X98425000Y-132950000D02*
X98625000Y-133150000D01*
X98625000Y-133150000D02*
X98375000Y-133150000D01*
X98375000Y-133150000D02*
X98425000Y-133100000D01*
X98925000Y-132850000D02*
X97925000Y-132850000D01*
X98425000Y-133350000D02*
X98425000Y-133850000D01*
X98425000Y-132850000D02*
X98925000Y-133350000D01*
X98925000Y-133350000D02*
X97925000Y-133350000D01*
X97925000Y-133350000D02*
X98425000Y-132850000D01*
X51045000Y-101185000D02*
X47445000Y-101185000D01*
X51045000Y-103285000D02*
X47445000Y-103285000D01*
X48995000Y-102535000D02*
X48995000Y-101935000D01*
X48995000Y-101935000D02*
X49295000Y-102235000D01*
X49295000Y-102235000D02*
X49095000Y-102435000D01*
X49095000Y-102435000D02*
X49095000Y-102185000D01*
X49095000Y-102185000D02*
X49145000Y-102235000D01*
X49395000Y-102735000D02*
X49395000Y-101735000D01*
X48895000Y-102235000D02*
X48395000Y-102235000D01*
X49395000Y-102235000D02*
X48895000Y-102735000D01*
X48895000Y-102735000D02*
X48895000Y-101735000D01*
X48895000Y-101735000D02*
X49395000Y-102235000D01*
X79560000Y-125915000D02*
X79560000Y-126240000D01*
X86810000Y-125915000D02*
X86810000Y-126240000D01*
X86810000Y-133165000D02*
X86810000Y-132840000D01*
X79560000Y-133165000D02*
X79560000Y-132840000D01*
X79560000Y-125915000D02*
X79885000Y-125915000D01*
X79560000Y-133165000D02*
X79885000Y-133165000D01*
X86810000Y-133165000D02*
X86485000Y-133165000D01*
X86810000Y-125915000D02*
X86485000Y-125915000D01*
X79560000Y-126240000D02*
X78135000Y-126240000D01*
X103112000Y-152582000D02*
X103612000Y-152582000D01*
X103612000Y-152582000D02*
X103612000Y-143582000D01*
X103612000Y-143582000D02*
X103112000Y-143582000D01*
X101612000Y-143582000D02*
X101112000Y-143582000D01*
X101112000Y-143582000D02*
X101112000Y-152582000D01*
X101112000Y-152582000D02*
X101612000Y-152582000D01*
X66190000Y-133015000D02*
X67460000Y-134285000D01*
X67460000Y-145715000D02*
X66190000Y-146985000D01*
X63650000Y-146985000D02*
X62380000Y-145715000D01*
X63650000Y-133015000D02*
X62380000Y-134285000D01*
X67460000Y-134285000D02*
X67460000Y-145715000D01*
X66190000Y-133015000D02*
X63650000Y-133015000D01*
X62380000Y-134285000D02*
X62380000Y-145715000D01*
X63650000Y-146985000D02*
X66190000Y-146985000D01*
X103632000Y-157734000D02*
X103632000Y-170434000D01*
X103632000Y-170434000D02*
X101092000Y-170434000D01*
X101092000Y-170434000D02*
X101092000Y-157734000D01*
X103912000Y-154914000D02*
X103912000Y-156464000D01*
X103632000Y-157734000D02*
X101092000Y-157734000D01*
X100812000Y-156464000D02*
X100812000Y-154914000D01*
X100812000Y-154914000D02*
X103912000Y-154914000D01*
X63135000Y-152155000D02*
X65135000Y-152155000D01*
X65135000Y-150105000D02*
X63135000Y-150105000D01*
X72755000Y-155185000D02*
X70755000Y-155185000D01*
X70755000Y-157235000D02*
X72755000Y-157235000D01*
X63135000Y-169935000D02*
X65135000Y-169935000D01*
X65135000Y-167885000D02*
X63135000Y-167885000D01*
X65135000Y-162365000D02*
X63135000Y-162365000D01*
X63135000Y-160215000D02*
X65135000Y-160215000D01*
X65135000Y-159825000D02*
X63135000Y-159825000D01*
X63135000Y-157675000D02*
X65135000Y-157675000D01*
X65135000Y-157285000D02*
X63135000Y-157285000D01*
X63135000Y-155135000D02*
X65135000Y-155135000D01*
X65135000Y-164905000D02*
X63135000Y-164905000D01*
X63135000Y-162755000D02*
X65135000Y-162755000D01*
X65135000Y-167445000D02*
X63135000Y-167445000D01*
X63135000Y-165295000D02*
X65135000Y-165295000D01*
X56235000Y-158750000D02*
X56235000Y-157200000D01*
X56235000Y-157200000D02*
X59335000Y-157200000D01*
X59335000Y-157200000D02*
X59335000Y-158750000D01*
X59055000Y-160020000D02*
X59055000Y-170180000D01*
X59055000Y-170180000D02*
X56515000Y-170180000D01*
X56515000Y-170180000D02*
X56515000Y-160020000D01*
X59055000Y-160020000D02*
X56515000Y-160020000D01*
X82305000Y-111490000D02*
X82305000Y-109490000D01*
X80255000Y-109490000D02*
X80255000Y-111490000D01*
X80255000Y-115840000D02*
X80255000Y-117840000D01*
X82305000Y-117840000D02*
X82305000Y-115840000D01*
X115325000Y-120380000D02*
X115325000Y-118380000D01*
X113275000Y-118380000D02*
X113275000Y-120380000D01*
X112785000Y-120380000D02*
X112785000Y-118380000D01*
X110735000Y-118380000D02*
X110735000Y-120380000D01*
X110245000Y-120380000D02*
X110245000Y-118380000D01*
X108195000Y-118380000D02*
X108195000Y-120380000D01*
X73644000Y-86351000D02*
X71644000Y-86351000D01*
X71644000Y-88401000D02*
X73644000Y-88401000D01*
X121650000Y-106925000D02*
X119650000Y-106925000D01*
X119650000Y-108975000D02*
X121650000Y-108975000D01*
X94250000Y-107705000D02*
X96250000Y-107705000D01*
X96250000Y-105655000D02*
X94250000Y-105655000D01*
X107705000Y-120380000D02*
X107705000Y-118380000D01*
X105655000Y-118380000D02*
X105655000Y-120380000D01*
X94250000Y-110245000D02*
X96250000Y-110245000D01*
X96250000Y-108195000D02*
X94250000Y-108195000D01*
X117865000Y-120380000D02*
X117865000Y-118380000D01*
X115815000Y-118380000D02*
X115815000Y-120380000D01*
X105165000Y-120380000D02*
X105165000Y-118380000D01*
X103115000Y-118380000D02*
X103115000Y-120380000D01*
X120405000Y-120380000D02*
X120405000Y-118380000D01*
X118355000Y-118380000D02*
X118355000Y-120380000D01*
X121650000Y-104385000D02*
X119650000Y-104385000D01*
X119650000Y-106435000D02*
X121650000Y-106435000D01*
X100720000Y-97062000D02*
X104320000Y-97062000D01*
X100720000Y-94962000D02*
X104320000Y-94962000D01*
X102770000Y-95712000D02*
X102770000Y-96312000D01*
X102770000Y-96312000D02*
X102470000Y-96012000D01*
X102470000Y-96012000D02*
X102670000Y-95812000D01*
X102670000Y-95812000D02*
X102670000Y-96062000D01*
X102670000Y-96062000D02*
X102620000Y-96012000D01*
X102370000Y-95512000D02*
X102370000Y-96512000D01*
X102870000Y-96012000D02*
X103370000Y-96012000D01*
X102370000Y-96012000D02*
X102870000Y-95512000D01*
X102870000Y-95512000D02*
X102870000Y-96512000D01*
X102870000Y-96512000D02*
X102370000Y-96012000D01*
X100720000Y-94522000D02*
X104320000Y-94522000D01*
X100720000Y-92422000D02*
X104320000Y-92422000D01*
X102770000Y-93172000D02*
X102770000Y-93772000D01*
X102770000Y-93772000D02*
X102470000Y-93472000D01*
X102470000Y-93472000D02*
X102670000Y-93272000D01*
X102670000Y-93272000D02*
X102670000Y-93522000D01*
X102670000Y-93522000D02*
X102620000Y-93472000D01*
X102370000Y-92972000D02*
X102370000Y-93972000D01*
X102870000Y-93472000D02*
X103370000Y-93472000D01*
X102370000Y-93472000D02*
X102870000Y-92972000D01*
X102870000Y-92972000D02*
X102870000Y-93972000D01*
X102870000Y-93972000D02*
X102370000Y-93472000D01*
X100720000Y-91982000D02*
X104320000Y-91982000D01*
X100720000Y-89882000D02*
X104320000Y-89882000D01*
X102770000Y-90632000D02*
X102770000Y-91232000D01*
X102770000Y-91232000D02*
X102470000Y-90932000D01*
X102470000Y-90932000D02*
X102670000Y-90732000D01*
X102670000Y-90732000D02*
X102670000Y-90982000D01*
X102670000Y-90982000D02*
X102620000Y-90932000D01*
X102370000Y-90432000D02*
X102370000Y-91432000D01*
X102870000Y-90932000D02*
X103370000Y-90932000D01*
X102370000Y-90932000D02*
X102870000Y-90432000D01*
X102870000Y-90432000D02*
X102870000Y-91432000D01*
X102870000Y-91432000D02*
X102370000Y-90932000D01*
X100720000Y-84362000D02*
X104320000Y-84362000D01*
X100720000Y-82262000D02*
X104320000Y-82262000D01*
X102770000Y-83012000D02*
X102770000Y-83612000D01*
X102770000Y-83612000D02*
X102470000Y-83312000D01*
X102470000Y-83312000D02*
X102670000Y-83112000D01*
X102670000Y-83112000D02*
X102670000Y-83362000D01*
X102670000Y-83362000D02*
X102620000Y-83312000D01*
X102370000Y-82812000D02*
X102370000Y-83812000D01*
X102870000Y-83312000D02*
X103370000Y-83312000D01*
X102370000Y-83312000D02*
X102870000Y-82812000D01*
X102870000Y-82812000D02*
X102870000Y-83812000D01*
X102870000Y-83812000D02*
X102370000Y-83312000D01*
X100720000Y-89442000D02*
X104320000Y-89442000D01*
X100720000Y-87342000D02*
X104320000Y-87342000D01*
X102770000Y-88092000D02*
X102770000Y-88692000D01*
X102770000Y-88692000D02*
X102470000Y-88392000D01*
X102470000Y-88392000D02*
X102670000Y-88192000D01*
X102670000Y-88192000D02*
X102670000Y-88442000D01*
X102670000Y-88442000D02*
X102620000Y-88392000D01*
X102370000Y-87892000D02*
X102370000Y-88892000D01*
X102870000Y-88392000D02*
X103370000Y-88392000D01*
X102370000Y-88392000D02*
X102870000Y-87892000D01*
X102870000Y-87892000D02*
X102870000Y-88892000D01*
X102870000Y-88892000D02*
X102370000Y-88392000D01*
X100720000Y-86902000D02*
X104320000Y-86902000D01*
X100720000Y-84802000D02*
X104320000Y-84802000D01*
X102770000Y-85552000D02*
X102770000Y-86152000D01*
X102770000Y-86152000D02*
X102470000Y-85852000D01*
X102470000Y-85852000D02*
X102670000Y-85652000D01*
X102670000Y-85652000D02*
X102670000Y-85902000D01*
X102670000Y-85902000D02*
X102620000Y-85852000D01*
X102370000Y-85352000D02*
X102370000Y-86352000D01*
X102870000Y-85852000D02*
X103370000Y-85852000D01*
X102370000Y-85852000D02*
X102870000Y-85352000D01*
X102870000Y-85352000D02*
X102870000Y-86352000D01*
X102870000Y-86352000D02*
X102370000Y-85852000D01*
X78360000Y-81710000D02*
X78360000Y-103710000D01*
X78360000Y-103710000D02*
X94360000Y-103710000D01*
X94360000Y-103710000D02*
X94360000Y-81710000D01*
X94360000Y-81710000D02*
X78360000Y-81710000D01*
X95250000Y-167640000D02*
X95250000Y-162560000D01*
X95530000Y-170460000D02*
X93980000Y-170460000D01*
X92710000Y-170180000D02*
X92710000Y-167640000D01*
X92710000Y-167640000D02*
X95250000Y-167640000D01*
X95250000Y-162560000D02*
X90170000Y-162560000D01*
X90170000Y-162560000D02*
X90170000Y-167640000D01*
X95530000Y-170460000D02*
X95530000Y-168910000D01*
X90170000Y-170180000D02*
X92710000Y-170180000D01*
X90170000Y-167640000D02*
X90170000Y-170180000D01*
X102675000Y-118380000D02*
X102675000Y-120380000D01*
X100525000Y-120380000D02*
X100525000Y-118380000D01*
X108220000Y-97477000D02*
X110220000Y-97477000D01*
X110220000Y-99627000D02*
X108220000Y-99627000D01*
X119650000Y-109415000D02*
X121650000Y-109415000D01*
X121650000Y-111565000D02*
X119650000Y-111565000D01*
X96250000Y-112835000D02*
X94250000Y-112835000D01*
X94250000Y-110685000D02*
X96250000Y-110685000D01*
X97985000Y-120380000D02*
X97985000Y-118380000D01*
X100135000Y-118380000D02*
X100135000Y-120380000D01*
X110220000Y-97087000D02*
X108220000Y-97087000D01*
X108220000Y-94937000D02*
X110220000Y-94937000D01*
X110220000Y-94547000D02*
X108220000Y-94547000D01*
X108220000Y-92397000D02*
X110220000Y-92397000D01*
X110220000Y-92007000D02*
X108220000Y-92007000D01*
X108220000Y-89857000D02*
X110220000Y-89857000D01*
X110220000Y-84387000D02*
X108220000Y-84387000D01*
X108220000Y-82237000D02*
X110220000Y-82237000D01*
X110220000Y-89467000D02*
X108220000Y-89467000D01*
X108220000Y-87317000D02*
X110220000Y-87317000D01*
X110220000Y-86927000D02*
X108220000Y-86927000D01*
X108220000Y-84777000D02*
X110220000Y-84777000D01*
X71644000Y-88841000D02*
X73644000Y-88841000D01*
X73644000Y-90991000D02*
X71644000Y-90991000D01*
X71644000Y-91381000D02*
X73644000Y-91381000D01*
X73644000Y-93531000D02*
X71644000Y-93531000D01*
X108145000Y-133080000D02*
X108145000Y-131080000D01*
X110295000Y-131080000D02*
X110295000Y-133080000D01*
X114495000Y-133080000D02*
X114495000Y-131080000D01*
X116645000Y-131080000D02*
X116645000Y-133080000D01*
X86360000Y-107315000D02*
X87630000Y-108585000D01*
X87630000Y-120015000D02*
X86360000Y-121285000D01*
X83820000Y-121285000D02*
X82550000Y-120015000D01*
X83820000Y-107315000D02*
X82550000Y-108585000D01*
X87630000Y-108585000D02*
X87630000Y-120015000D01*
X86360000Y-107315000D02*
X83820000Y-107315000D01*
X82550000Y-108585000D02*
X82550000Y-120015000D01*
X83820000Y-121285000D02*
X86360000Y-121285000D01*
X118881000Y-95996000D02*
X118881000Y-93996000D01*
X116831000Y-93996000D02*
X116831000Y-95996000D01*
X119634000Y-93726000D02*
X118364000Y-92456000D01*
X122504000Y-94646000D02*
X121504000Y-93646000D01*
X121504000Y-93646000D02*
X119304000Y-93646000D01*
X119304000Y-93646000D02*
X119304000Y-96346000D01*
X119304000Y-96346000D02*
X122504000Y-96346000D01*
X122504000Y-96346000D02*
X122504000Y-94646000D01*
X50822000Y-117114320D02*
X50622200Y-117114320D01*
X50772000Y-116657280D02*
X50623000Y-116657280D01*
X50822000Y-112511840D02*
X50673000Y-112511840D01*
X47222000Y-117109240D02*
X47371000Y-117109240D01*
X47222000Y-116657280D02*
X47371000Y-116657280D01*
X47222000Y-112506760D02*
X47371000Y-112506760D01*
X50970980Y-116657280D02*
X50772860Y-116657280D01*
X47023020Y-116657280D02*
X47221140Y-116657280D01*
X51018440Y-112511840D02*
X50820320Y-112511840D01*
X51018440Y-117114320D02*
X51018440Y-112511840D01*
X51018440Y-117114320D02*
X50820320Y-117114320D01*
X47023020Y-117109240D02*
X47221140Y-117109240D01*
X47023020Y-117109240D02*
X47023020Y-112506760D01*
X47023020Y-112506760D02*
X47221140Y-112506760D01*
X61193680Y-122450000D02*
X61193680Y-122250200D01*
X61650720Y-122400000D02*
X61650720Y-122251000D01*
X65796160Y-122450000D02*
X65796160Y-122301000D01*
X61198760Y-118850000D02*
X61198760Y-118999000D01*
X61650720Y-118850000D02*
X61650720Y-118999000D01*
X65801240Y-118850000D02*
X65801240Y-118999000D01*
X61650720Y-122598980D02*
X61650720Y-122400860D01*
X61650720Y-118651020D02*
X61650720Y-118849140D01*
X65796160Y-122646440D02*
X65796160Y-122448320D01*
X61193680Y-122646440D02*
X65796160Y-122646440D01*
X61193680Y-122646440D02*
X61193680Y-122448320D01*
X61198760Y-118651020D02*
X61198760Y-118849140D01*
X61198760Y-118651020D02*
X65801240Y-118651020D01*
X65801240Y-118651020D02*
X65801240Y-118849140D01*
X68254880Y-84899500D02*
X59253120Y-84899500D01*
X68254880Y-81399380D02*
X59253120Y-81399380D01*
X59253120Y-81399380D02*
X59253120Y-95900240D01*
X59253120Y-95900240D02*
X68254880Y-95900240D01*
X68254880Y-95900240D02*
X68254880Y-81399380D01*
X99592857Y-109435714D02*
X100564286Y-109435714D01*
X100678571Y-109378571D01*
X100735714Y-109321428D01*
X100792857Y-109207142D01*
X100792857Y-108978571D01*
X100735714Y-108864285D01*
X100678571Y-108807142D01*
X100564286Y-108749999D01*
X99592857Y-108749999D01*
X100792857Y-107549999D02*
X100792857Y-108235714D01*
X100792857Y-107892856D02*
X99592857Y-107892856D01*
X99764286Y-108007142D01*
X99878571Y-108121428D01*
X99935714Y-108235714D01*
X99592857Y-106807142D02*
X99592857Y-106692857D01*
X99650000Y-106578571D01*
X99707143Y-106521428D01*
X99821429Y-106464285D01*
X100050000Y-106407142D01*
X100335714Y-106407142D01*
X100564286Y-106464285D01*
X100678571Y-106521428D01*
X100735714Y-106578571D01*
X100792857Y-106692857D01*
X100792857Y-106807142D01*
X100735714Y-106921428D01*
X100678571Y-106978571D01*
X100564286Y-107035714D01*
X100335714Y-107092857D01*
X100050000Y-107092857D01*
X99821429Y-107035714D01*
X99707143Y-106978571D01*
X99650000Y-106921428D01*
X99592857Y-106807142D01*
X125580857Y-94386286D02*
X126552286Y-94386286D01*
X126666571Y-94329143D01*
X126723714Y-94272000D01*
X126780857Y-94157714D01*
X126780857Y-93929143D01*
X126723714Y-93814857D01*
X126666571Y-93757714D01*
X126552286Y-93700571D01*
X125580857Y-93700571D01*
X126095143Y-92957714D02*
X126038000Y-93072000D01*
X125980857Y-93129143D01*
X125866571Y-93186286D01*
X125809429Y-93186286D01*
X125695143Y-93129143D01*
X125638000Y-93072000D01*
X125580857Y-92957714D01*
X125580857Y-92729143D01*
X125638000Y-92614857D01*
X125695143Y-92557714D01*
X125809429Y-92500571D01*
X125866571Y-92500571D01*
X125980857Y-92557714D01*
X126038000Y-92614857D01*
X126095143Y-92729143D01*
X126095143Y-92957714D01*
X126152286Y-93072000D01*
X126209429Y-93129143D01*
X126323714Y-93186286D01*
X126552286Y-93186286D01*
X126666571Y-93129143D01*
X126723714Y-93072000D01*
X126780857Y-92957714D01*
X126780857Y-92729143D01*
X126723714Y-92614857D01*
X126666571Y-92557714D01*
X126552286Y-92500571D01*
X126323714Y-92500571D01*
X126209429Y-92557714D01*
X126152286Y-92614857D01*
X126095143Y-92729143D01*
X49434762Y-157773619D02*
X49339524Y-157726000D01*
X49244286Y-157630762D01*
X49101429Y-157487905D01*
X49006190Y-157440286D01*
X48910952Y-157440286D01*
X48958571Y-157678381D02*
X48863333Y-157630762D01*
X48768095Y-157535524D01*
X48720476Y-157345048D01*
X48720476Y-157011714D01*
X48768095Y-156821238D01*
X48863333Y-156726000D01*
X48958571Y-156678381D01*
X49149048Y-156678381D01*
X49244286Y-156726000D01*
X49339524Y-156821238D01*
X49387143Y-157011714D01*
X49387143Y-157345048D01*
X49339524Y-157535524D01*
X49244286Y-157630762D01*
X49149048Y-157678381D01*
X48958571Y-157678381D01*
X49720476Y-156678381D02*
X50339524Y-156678381D01*
X50006190Y-157059333D01*
X50149048Y-157059333D01*
X50244286Y-157106952D01*
X50291905Y-157154571D01*
X50339524Y-157249810D01*
X50339524Y-157487905D01*
X50291905Y-157583143D01*
X50244286Y-157630762D01*
X50149048Y-157678381D01*
X49863333Y-157678381D01*
X49768095Y-157630762D01*
X49720476Y-157583143D01*
X120164286Y-157570286D02*
X120335715Y-157627429D01*
X120392858Y-157684571D01*
X120450001Y-157798857D01*
X120450001Y-157970286D01*
X120392858Y-158084571D01*
X120335715Y-158141714D01*
X120221429Y-158198857D01*
X119764286Y-158198857D01*
X119764286Y-156998857D01*
X120164286Y-156998857D01*
X120278572Y-157056000D01*
X120335715Y-157113143D01*
X120392858Y-157227429D01*
X120392858Y-157341714D01*
X120335715Y-157456000D01*
X120278572Y-157513143D01*
X120164286Y-157570286D01*
X119764286Y-157570286D01*
X121592858Y-158198857D02*
X120907143Y-158198857D01*
X121250001Y-158198857D02*
X121250001Y-156998857D01*
X121135715Y-157170286D01*
X121021429Y-157284571D01*
X120907143Y-157341714D01*
D13*
X129842381Y-155121429D02*
X131777619Y-155121429D01*
X130810000Y-156089048D02*
X130810000Y-154153810D01*
D11*
X123023334Y-127357143D02*
X122975715Y-127404762D01*
X122832858Y-127452381D01*
X122737620Y-127452381D01*
X122594762Y-127404762D01*
X122499524Y-127309524D01*
X122451905Y-127214286D01*
X122404286Y-127023810D01*
X122404286Y-126880952D01*
X122451905Y-126690476D01*
X122499524Y-126595238D01*
X122594762Y-126500000D01*
X122737620Y-126452381D01*
X122832858Y-126452381D01*
X122975715Y-126500000D01*
X123023334Y-126547619D01*
X123404286Y-126547619D02*
X123451905Y-126500000D01*
X123547143Y-126452381D01*
X123785239Y-126452381D01*
X123880477Y-126500000D01*
X123928096Y-126547619D01*
X123975715Y-126642857D01*
X123975715Y-126738095D01*
X123928096Y-126880952D01*
X123356667Y-127452381D01*
X123975715Y-127452381D01*
X62841143Y-109132666D02*
X62888762Y-109180285D01*
X62936381Y-109323142D01*
X62936381Y-109418380D01*
X62888762Y-109561238D01*
X62793524Y-109656476D01*
X62698286Y-109704095D01*
X62507810Y-109751714D01*
X62364952Y-109751714D01*
X62174476Y-109704095D01*
X62079238Y-109656476D01*
X61984000Y-109561238D01*
X61936381Y-109418380D01*
X61936381Y-109323142D01*
X61984000Y-109180285D01*
X62031619Y-109132666D01*
X61936381Y-108799333D02*
X61936381Y-108180285D01*
X62317333Y-108513619D01*
X62317333Y-108370761D01*
X62364952Y-108275523D01*
X62412571Y-108227904D01*
X62507810Y-108180285D01*
X62745905Y-108180285D01*
X62841143Y-108227904D01*
X62888762Y-108275523D01*
X62936381Y-108370761D01*
X62936381Y-108656476D01*
X62888762Y-108751714D01*
X62841143Y-108799333D01*
X49871334Y-104497143D02*
X49823715Y-104544762D01*
X49680858Y-104592381D01*
X49585620Y-104592381D01*
X49442762Y-104544762D01*
X49347524Y-104449524D01*
X49299905Y-104354286D01*
X49252286Y-104163810D01*
X49252286Y-104020952D01*
X49299905Y-103830476D01*
X49347524Y-103735238D01*
X49442762Y-103640000D01*
X49585620Y-103592381D01*
X49680858Y-103592381D01*
X49823715Y-103640000D01*
X49871334Y-103687619D01*
X50728477Y-103925714D02*
X50728477Y-104592381D01*
X50490381Y-103544762D02*
X50252286Y-104259048D01*
X50871334Y-104259048D01*
X91273334Y-147677143D02*
X91225715Y-147724762D01*
X91082858Y-147772381D01*
X90987620Y-147772381D01*
X90844762Y-147724762D01*
X90749524Y-147629524D01*
X90701905Y-147534286D01*
X90654286Y-147343810D01*
X90654286Y-147200952D01*
X90701905Y-147010476D01*
X90749524Y-146915238D01*
X90844762Y-146820000D01*
X90987620Y-146772381D01*
X91082858Y-146772381D01*
X91225715Y-146820000D01*
X91273334Y-146867619D01*
X92178096Y-146772381D02*
X91701905Y-146772381D01*
X91654286Y-147248571D01*
X91701905Y-147200952D01*
X91797143Y-147153333D01*
X92035239Y-147153333D01*
X92130477Y-147200952D01*
X92178096Y-147248571D01*
X92225715Y-147343810D01*
X92225715Y-147581905D01*
X92178096Y-147677143D01*
X92130477Y-147724762D01*
X92035239Y-147772381D01*
X91797143Y-147772381D01*
X91701905Y-147724762D01*
X91654286Y-147677143D01*
X88733334Y-147677143D02*
X88685715Y-147724762D01*
X88542858Y-147772381D01*
X88447620Y-147772381D01*
X88304762Y-147724762D01*
X88209524Y-147629524D01*
X88161905Y-147534286D01*
X88114286Y-147343810D01*
X88114286Y-147200952D01*
X88161905Y-147010476D01*
X88209524Y-146915238D01*
X88304762Y-146820000D01*
X88447620Y-146772381D01*
X88542858Y-146772381D01*
X88685715Y-146820000D01*
X88733334Y-146867619D01*
X89590477Y-146772381D02*
X89400000Y-146772381D01*
X89304762Y-146820000D01*
X89257143Y-146867619D01*
X89161905Y-147010476D01*
X89114286Y-147200952D01*
X89114286Y-147581905D01*
X89161905Y-147677143D01*
X89209524Y-147724762D01*
X89304762Y-147772381D01*
X89495239Y-147772381D01*
X89590477Y-147724762D01*
X89638096Y-147677143D01*
X89685715Y-147581905D01*
X89685715Y-147343810D01*
X89638096Y-147248571D01*
X89590477Y-147200952D01*
X89495239Y-147153333D01*
X89304762Y-147153333D01*
X89209524Y-147200952D01*
X89161905Y-147248571D01*
X89114286Y-147343810D01*
X50713334Y-164122381D02*
X50380000Y-163646190D01*
X50141905Y-164122381D02*
X50141905Y-163122381D01*
X50522858Y-163122381D01*
X50618096Y-163170000D01*
X50665715Y-163217619D01*
X50713334Y-163312857D01*
X50713334Y-163455714D01*
X50665715Y-163550952D01*
X50618096Y-163598571D01*
X50522858Y-163646190D01*
X50141905Y-163646190D01*
X51046667Y-163122381D02*
X51665715Y-163122381D01*
X51332381Y-163503333D01*
X51475239Y-163503333D01*
X51570477Y-163550952D01*
X51618096Y-163598571D01*
X51665715Y-163693810D01*
X51665715Y-163931905D01*
X51618096Y-164027143D01*
X51570477Y-164074762D01*
X51475239Y-164122381D01*
X51189524Y-164122381D01*
X51094286Y-164074762D01*
X51046667Y-164027143D01*
X76033334Y-159202381D02*
X75700000Y-158726190D01*
X75461905Y-159202381D02*
X75461905Y-158202381D01*
X75842858Y-158202381D01*
X75938096Y-158250000D01*
X75985715Y-158297619D01*
X76033334Y-158392857D01*
X76033334Y-158535714D01*
X75985715Y-158630952D01*
X75938096Y-158678571D01*
X75842858Y-158726190D01*
X75461905Y-158726190D01*
X76938096Y-158202381D02*
X76461905Y-158202381D01*
X76414286Y-158678571D01*
X76461905Y-158630952D01*
X76557143Y-158583333D01*
X76795239Y-158583333D01*
X76890477Y-158630952D01*
X76938096Y-158678571D01*
X76985715Y-158773810D01*
X76985715Y-159011905D01*
X76938096Y-159107143D01*
X76890477Y-159154762D01*
X76795239Y-159202381D01*
X76557143Y-159202381D01*
X76461905Y-159154762D01*
X76414286Y-159107143D01*
X48173334Y-164122381D02*
X47840000Y-163646190D01*
X47601905Y-164122381D02*
X47601905Y-163122381D01*
X47982858Y-163122381D01*
X48078096Y-163170000D01*
X48125715Y-163217619D01*
X48173334Y-163312857D01*
X48173334Y-163455714D01*
X48125715Y-163550952D01*
X48078096Y-163598571D01*
X47982858Y-163646190D01*
X47601905Y-163646190D01*
X48506667Y-163122381D02*
X49173334Y-163122381D01*
X48744762Y-164122381D01*
X54483095Y-104100381D02*
X54483095Y-104909905D01*
X54530714Y-105005143D01*
X54578333Y-105052762D01*
X54673571Y-105100381D01*
X54864048Y-105100381D01*
X54959286Y-105052762D01*
X55006905Y-105005143D01*
X55054524Y-104909905D01*
X55054524Y-104100381D01*
X55483095Y-104195619D02*
X55530714Y-104148000D01*
X55625952Y-104100381D01*
X55864048Y-104100381D01*
X55959286Y-104148000D01*
X56006905Y-104195619D01*
X56054524Y-104290857D01*
X56054524Y-104386095D01*
X56006905Y-104528952D01*
X55435476Y-105100381D01*
X56054524Y-105100381D01*
X129895714Y-129898857D02*
X129895714Y-130870286D01*
X129952857Y-130984571D01*
X130010000Y-131041714D01*
X130124286Y-131098857D01*
X130352857Y-131098857D01*
X130467143Y-131041714D01*
X130524286Y-130984571D01*
X130581429Y-130870286D01*
X130581429Y-129898857D01*
X131667143Y-130298857D02*
X131667143Y-131098857D01*
X131381429Y-129841714D02*
X131095714Y-130698857D01*
X131838572Y-130698857D01*
X83159714Y-144122857D02*
X83159714Y-145094286D01*
X83216857Y-145208571D01*
X83274000Y-145265714D01*
X83388286Y-145322857D01*
X83616857Y-145322857D01*
X83731143Y-145265714D01*
X83788286Y-145208571D01*
X83845429Y-145094286D01*
X83845429Y-144122857D01*
X84988286Y-144122857D02*
X84416857Y-144122857D01*
X84359714Y-144694286D01*
X84416857Y-144637143D01*
X84531143Y-144580000D01*
X84816857Y-144580000D01*
X84931143Y-144637143D01*
X84988286Y-144694286D01*
X85045429Y-144808571D01*
X85045429Y-145094286D01*
X84988286Y-145208571D01*
X84931143Y-145265714D01*
X84816857Y-145322857D01*
X84531143Y-145322857D01*
X84416857Y-145265714D01*
X84359714Y-145208571D01*
X49601429Y-141350952D02*
X49601429Y-140589047D01*
X49982381Y-140969999D02*
X49220476Y-140969999D01*
X68159334Y-154122381D02*
X67826000Y-153646190D01*
X67587905Y-154122381D02*
X67587905Y-153122381D01*
X67968858Y-153122381D01*
X68064096Y-153170000D01*
X68111715Y-153217619D01*
X68159334Y-153312857D01*
X68159334Y-153455714D01*
X68111715Y-153550952D01*
X68064096Y-153598571D01*
X67968858Y-153646190D01*
X67587905Y-153646190D01*
X68730762Y-153550952D02*
X68635524Y-153503333D01*
X68587905Y-153455714D01*
X68540286Y-153360476D01*
X68540286Y-153312857D01*
X68587905Y-153217619D01*
X68635524Y-153170000D01*
X68730762Y-153122381D01*
X68921239Y-153122381D01*
X69016477Y-153170000D01*
X69064096Y-153217619D01*
X69111715Y-153312857D01*
X69111715Y-153360476D01*
X69064096Y-153455714D01*
X69016477Y-153503333D01*
X68921239Y-153550952D01*
X68730762Y-153550952D01*
X68635524Y-153598571D01*
X68587905Y-153646190D01*
X68540286Y-153741429D01*
X68540286Y-153931905D01*
X68587905Y-154027143D01*
X68635524Y-154074762D01*
X68730762Y-154122381D01*
X68921239Y-154122381D01*
X69016477Y-154074762D01*
X69064096Y-154027143D01*
X69111715Y-153931905D01*
X69111715Y-153741429D01*
X69064096Y-153646190D01*
X69016477Y-153598571D01*
X68921239Y-153550952D01*
X125833143Y-122086666D02*
X125880762Y-122134285D01*
X125928381Y-122277142D01*
X125928381Y-122372380D01*
X125880762Y-122515238D01*
X125785524Y-122610476D01*
X125690286Y-122658095D01*
X125499810Y-122705714D01*
X125356952Y-122705714D01*
X125166476Y-122658095D01*
X125071238Y-122610476D01*
X124976000Y-122515238D01*
X124928381Y-122372380D01*
X124928381Y-122277142D01*
X124976000Y-122134285D01*
X125023619Y-122086666D01*
X125928381Y-121134285D02*
X125928381Y-121705714D01*
X125928381Y-121420000D02*
X124928381Y-121420000D01*
X125071238Y-121515238D01*
X125166476Y-121610476D01*
X125214095Y-121705714D01*
X134469143Y-101004666D02*
X134516762Y-101052285D01*
X134564381Y-101195142D01*
X134564381Y-101290380D01*
X134516762Y-101433238D01*
X134421524Y-101528476D01*
X134326286Y-101576095D01*
X134135810Y-101623714D01*
X133992952Y-101623714D01*
X133802476Y-101576095D01*
X133707238Y-101528476D01*
X133612000Y-101433238D01*
X133564381Y-101290380D01*
X133564381Y-101195142D01*
X133612000Y-101052285D01*
X133659619Y-101004666D01*
X133564381Y-100671333D02*
X133564381Y-100004666D01*
X134564381Y-100433238D01*
X132382569Y-110644892D02*
X132382569Y-109882987D01*
X132763521Y-110263939D02*
X132001616Y-110263939D01*
X133945334Y-115419143D02*
X133897715Y-115466762D01*
X133754858Y-115514381D01*
X133659620Y-115514381D01*
X133516762Y-115466762D01*
X133421524Y-115371524D01*
X133373905Y-115276286D01*
X133326286Y-115085810D01*
X133326286Y-114942952D01*
X133373905Y-114752476D01*
X133421524Y-114657238D01*
X133516762Y-114562000D01*
X133659620Y-114514381D01*
X133754858Y-114514381D01*
X133897715Y-114562000D01*
X133945334Y-114609619D01*
X134516762Y-114942952D02*
X134421524Y-114895333D01*
X134373905Y-114847714D01*
X134326286Y-114752476D01*
X134326286Y-114704857D01*
X134373905Y-114609619D01*
X134421524Y-114562000D01*
X134516762Y-114514381D01*
X134707239Y-114514381D01*
X134802477Y-114562000D01*
X134850096Y-114609619D01*
X134897715Y-114704857D01*
X134897715Y-114752476D01*
X134850096Y-114847714D01*
X134802477Y-114895333D01*
X134707239Y-114942952D01*
X134516762Y-114942952D01*
X134421524Y-114990571D01*
X134373905Y-115038190D01*
X134326286Y-115133429D01*
X134326286Y-115323905D01*
X134373905Y-115419143D01*
X134421524Y-115466762D01*
X134516762Y-115514381D01*
X134707239Y-115514381D01*
X134802477Y-115466762D01*
X134850096Y-115419143D01*
X134897715Y-115323905D01*
X134897715Y-115133429D01*
X134850096Y-115038190D01*
X134802477Y-114990571D01*
X134707239Y-114942952D01*
X97623334Y-130532143D02*
X97575715Y-130579762D01*
X97432858Y-130627381D01*
X97337620Y-130627381D01*
X97194762Y-130579762D01*
X97099524Y-130484524D01*
X97051905Y-130389286D01*
X97004286Y-130198810D01*
X97004286Y-130055952D01*
X97051905Y-129865476D01*
X97099524Y-129770238D01*
X97194762Y-129675000D01*
X97337620Y-129627381D01*
X97432858Y-129627381D01*
X97575715Y-129675000D01*
X97623334Y-129722619D01*
X98099524Y-130627381D02*
X98290000Y-130627381D01*
X98385239Y-130579762D01*
X98432858Y-130532143D01*
X98528096Y-130389286D01*
X98575715Y-130198810D01*
X98575715Y-129817857D01*
X98528096Y-129722619D01*
X98480477Y-129675000D01*
X98385239Y-129627381D01*
X98194762Y-129627381D01*
X98099524Y-129675000D01*
X98051905Y-129722619D01*
X98004286Y-129817857D01*
X98004286Y-130055952D01*
X98051905Y-130151190D01*
X98099524Y-130198810D01*
X98194762Y-130246429D01*
X98385239Y-130246429D01*
X98480477Y-130198810D01*
X98528096Y-130151190D01*
X98575715Y-130055952D01*
X136501143Y-102242857D02*
X136548762Y-102290476D01*
X136596381Y-102433333D01*
X136596381Y-102528571D01*
X136548762Y-102671429D01*
X136453524Y-102766667D01*
X136358286Y-102814286D01*
X136167810Y-102861905D01*
X136024952Y-102861905D01*
X135834476Y-102814286D01*
X135739238Y-102766667D01*
X135644000Y-102671429D01*
X135596381Y-102528571D01*
X135596381Y-102433333D01*
X135644000Y-102290476D01*
X135691619Y-102242857D01*
X136596381Y-101290476D02*
X136596381Y-101861905D01*
X136596381Y-101576191D02*
X135596381Y-101576191D01*
X135739238Y-101671429D01*
X135834476Y-101766667D01*
X135882095Y-101861905D01*
X135596381Y-100671429D02*
X135596381Y-100576190D01*
X135644000Y-100480952D01*
X135691619Y-100433333D01*
X135786857Y-100385714D01*
X135977333Y-100338095D01*
X136215429Y-100338095D01*
X136405905Y-100385714D01*
X136501143Y-100433333D01*
X136548762Y-100480952D01*
X136596381Y-100576190D01*
X136596381Y-100671429D01*
X136548762Y-100766667D01*
X136501143Y-100814286D01*
X136405905Y-100861905D01*
X136215429Y-100909524D01*
X135977333Y-100909524D01*
X135786857Y-100861905D01*
X135691619Y-100814286D01*
X135644000Y-100766667D01*
X135596381Y-100671429D01*
X88257143Y-133072143D02*
X88209524Y-133119762D01*
X88066667Y-133167381D01*
X87971429Y-133167381D01*
X87828571Y-133119762D01*
X87733333Y-133024524D01*
X87685714Y-132929286D01*
X87638095Y-132738810D01*
X87638095Y-132595952D01*
X87685714Y-132405476D01*
X87733333Y-132310238D01*
X87828571Y-132215000D01*
X87971429Y-132167381D01*
X88066667Y-132167381D01*
X88209524Y-132215000D01*
X88257143Y-132262619D01*
X89209524Y-133167381D02*
X88638095Y-133167381D01*
X88923809Y-133167381D02*
X88923809Y-132167381D01*
X88828571Y-132310238D01*
X88733333Y-132405476D01*
X88638095Y-132453095D01*
X90161905Y-133167381D02*
X89590476Y-133167381D01*
X89876190Y-133167381D02*
X89876190Y-132167381D01*
X89780952Y-132310238D01*
X89685714Y-132405476D01*
X89590476Y-132453095D01*
X97147143Y-127992143D02*
X97099524Y-128039762D01*
X96956667Y-128087381D01*
X96861429Y-128087381D01*
X96718571Y-128039762D01*
X96623333Y-127944524D01*
X96575714Y-127849286D01*
X96528095Y-127658810D01*
X96528095Y-127515952D01*
X96575714Y-127325476D01*
X96623333Y-127230238D01*
X96718571Y-127135000D01*
X96861429Y-127087381D01*
X96956667Y-127087381D01*
X97099524Y-127135000D01*
X97147143Y-127182619D01*
X98099524Y-128087381D02*
X97528095Y-128087381D01*
X97813809Y-128087381D02*
X97813809Y-127087381D01*
X97718571Y-127230238D01*
X97623333Y-127325476D01*
X97528095Y-127373095D01*
X98480476Y-127182619D02*
X98528095Y-127135000D01*
X98623333Y-127087381D01*
X98861429Y-127087381D01*
X98956667Y-127135000D01*
X99004286Y-127182619D01*
X99051905Y-127277857D01*
X99051905Y-127373095D01*
X99004286Y-127515952D01*
X98432857Y-128087381D01*
X99051905Y-128087381D01*
X125833143Y-113545857D02*
X125880762Y-113593476D01*
X125928381Y-113736333D01*
X125928381Y-113831571D01*
X125880762Y-113974429D01*
X125785524Y-114069667D01*
X125690286Y-114117286D01*
X125499810Y-114164905D01*
X125356952Y-114164905D01*
X125166476Y-114117286D01*
X125071238Y-114069667D01*
X124976000Y-113974429D01*
X124928381Y-113831571D01*
X124928381Y-113736333D01*
X124976000Y-113593476D01*
X125023619Y-113545857D01*
X125928381Y-112593476D02*
X125928381Y-113164905D01*
X125928381Y-112879191D02*
X124928381Y-112879191D01*
X125071238Y-112974429D01*
X125166476Y-113069667D01*
X125214095Y-113164905D01*
X124928381Y-112260143D02*
X124928381Y-111641095D01*
X125309333Y-111974429D01*
X125309333Y-111831571D01*
X125356952Y-111736333D01*
X125404571Y-111688714D01*
X125499810Y-111641095D01*
X125737905Y-111641095D01*
X125833143Y-111688714D01*
X125880762Y-111736333D01*
X125928381Y-111831571D01*
X125928381Y-112117286D01*
X125880762Y-112212524D01*
X125833143Y-112260143D01*
X59412143Y-136532857D02*
X59459762Y-136580476D01*
X59507381Y-136723333D01*
X59507381Y-136818571D01*
X59459762Y-136961429D01*
X59364524Y-137056667D01*
X59269286Y-137104286D01*
X59078810Y-137151905D01*
X58935952Y-137151905D01*
X58745476Y-137104286D01*
X58650238Y-137056667D01*
X58555000Y-136961429D01*
X58507381Y-136818571D01*
X58507381Y-136723333D01*
X58555000Y-136580476D01*
X58602619Y-136532857D01*
X59507381Y-135580476D02*
X59507381Y-136151905D01*
X59507381Y-135866191D02*
X58507381Y-135866191D01*
X58650238Y-135961429D01*
X58745476Y-136056667D01*
X58793095Y-136151905D01*
X58840714Y-134723333D02*
X59507381Y-134723333D01*
X58459762Y-134961429D02*
X59174048Y-135199524D01*
X59174048Y-134580476D01*
X59412143Y-144152857D02*
X59459762Y-144200476D01*
X59507381Y-144343333D01*
X59507381Y-144438571D01*
X59459762Y-144581429D01*
X59364524Y-144676667D01*
X59269286Y-144724286D01*
X59078810Y-144771905D01*
X58935952Y-144771905D01*
X58745476Y-144724286D01*
X58650238Y-144676667D01*
X58555000Y-144581429D01*
X58507381Y-144438571D01*
X58507381Y-144343333D01*
X58555000Y-144200476D01*
X58602619Y-144152857D01*
X59507381Y-143200476D02*
X59507381Y-143771905D01*
X59507381Y-143486191D02*
X58507381Y-143486191D01*
X58650238Y-143581429D01*
X58745476Y-143676667D01*
X58793095Y-143771905D01*
X58507381Y-142295714D02*
X58507381Y-142771905D01*
X58983571Y-142819524D01*
X58935952Y-142771905D01*
X58888333Y-142676667D01*
X58888333Y-142438571D01*
X58935952Y-142343333D01*
X58983571Y-142295714D01*
X59078810Y-142248095D01*
X59316905Y-142248095D01*
X59412143Y-142295714D01*
X59459762Y-142343333D01*
X59507381Y-142438571D01*
X59507381Y-142676667D01*
X59459762Y-142771905D01*
X59412143Y-142819524D01*
X93337143Y-154027143D02*
X93289524Y-154074762D01*
X93146667Y-154122381D01*
X93051429Y-154122381D01*
X92908571Y-154074762D01*
X92813333Y-153979524D01*
X92765714Y-153884286D01*
X92718095Y-153693810D01*
X92718095Y-153550952D01*
X92765714Y-153360476D01*
X92813333Y-153265238D01*
X92908571Y-153170000D01*
X93051429Y-153122381D01*
X93146667Y-153122381D01*
X93289524Y-153170000D01*
X93337143Y-153217619D01*
X94289524Y-154122381D02*
X93718095Y-154122381D01*
X94003809Y-154122381D02*
X94003809Y-153122381D01*
X93908571Y-153265238D01*
X93813333Y-153360476D01*
X93718095Y-153408095D01*
X95146667Y-153122381D02*
X94956190Y-153122381D01*
X94860952Y-153170000D01*
X94813333Y-153217619D01*
X94718095Y-153360476D01*
X94670476Y-153550952D01*
X94670476Y-153931905D01*
X94718095Y-154027143D01*
X94765714Y-154074762D01*
X94860952Y-154122381D01*
X95051429Y-154122381D01*
X95146667Y-154074762D01*
X95194286Y-154027143D01*
X95241905Y-153931905D01*
X95241905Y-153693810D01*
X95194286Y-153598571D01*
X95146667Y-153550952D01*
X95051429Y-153503333D01*
X94860952Y-153503333D01*
X94765714Y-153550952D01*
X94718095Y-153598571D01*
X94670476Y-153693810D01*
X66032143Y-124817143D02*
X65984524Y-124864762D01*
X65841667Y-124912381D01*
X65746429Y-124912381D01*
X65603571Y-124864762D01*
X65508333Y-124769524D01*
X65460714Y-124674286D01*
X65413095Y-124483810D01*
X65413095Y-124340952D01*
X65460714Y-124150476D01*
X65508333Y-124055238D01*
X65603571Y-123960000D01*
X65746429Y-123912381D01*
X65841667Y-123912381D01*
X65984524Y-123960000D01*
X66032143Y-124007619D01*
X66984524Y-124912381D02*
X66413095Y-124912381D01*
X66698809Y-124912381D02*
X66698809Y-123912381D01*
X66603571Y-124055238D01*
X66508333Y-124150476D01*
X66413095Y-124198095D01*
X67317857Y-123912381D02*
X67984524Y-123912381D01*
X67555952Y-124912381D01*
X48633143Y-122023143D02*
X48585524Y-122070762D01*
X48442667Y-122118381D01*
X48347429Y-122118381D01*
X48204571Y-122070762D01*
X48109333Y-121975524D01*
X48061714Y-121880286D01*
X48014095Y-121689810D01*
X48014095Y-121546952D01*
X48061714Y-121356476D01*
X48109333Y-121261238D01*
X48204571Y-121166000D01*
X48347429Y-121118381D01*
X48442667Y-121118381D01*
X48585524Y-121166000D01*
X48633143Y-121213619D01*
X49585524Y-122118381D02*
X49014095Y-122118381D01*
X49299809Y-122118381D02*
X49299809Y-121118381D01*
X49204571Y-121261238D01*
X49109333Y-121356476D01*
X49014095Y-121404095D01*
X50156952Y-121546952D02*
X50061714Y-121499333D01*
X50014095Y-121451714D01*
X49966476Y-121356476D01*
X49966476Y-121308857D01*
X50014095Y-121213619D01*
X50061714Y-121166000D01*
X50156952Y-121118381D01*
X50347429Y-121118381D01*
X50442667Y-121166000D01*
X50490286Y-121213619D01*
X50537905Y-121308857D01*
X50537905Y-121356476D01*
X50490286Y-121451714D01*
X50442667Y-121499333D01*
X50347429Y-121546952D01*
X50156952Y-121546952D01*
X50061714Y-121594571D01*
X50014095Y-121642190D01*
X49966476Y-121737429D01*
X49966476Y-121927905D01*
X50014095Y-122023143D01*
X50061714Y-122070762D01*
X50156952Y-122118381D01*
X50347429Y-122118381D01*
X50442667Y-122070762D01*
X50490286Y-122023143D01*
X50537905Y-121927905D01*
X50537905Y-121737429D01*
X50490286Y-121642190D01*
X50442667Y-121594571D01*
X50347429Y-121546952D01*
X62587143Y-113672857D02*
X62634762Y-113720476D01*
X62682381Y-113863333D01*
X62682381Y-113958571D01*
X62634762Y-114101429D01*
X62539524Y-114196667D01*
X62444286Y-114244286D01*
X62253810Y-114291905D01*
X62110952Y-114291905D01*
X61920476Y-114244286D01*
X61825238Y-114196667D01*
X61730000Y-114101429D01*
X61682381Y-113958571D01*
X61682381Y-113863333D01*
X61730000Y-113720476D01*
X61777619Y-113672857D01*
X62682381Y-112720476D02*
X62682381Y-113291905D01*
X62682381Y-113006191D02*
X61682381Y-113006191D01*
X61825238Y-113101429D01*
X61920476Y-113196667D01*
X61968095Y-113291905D01*
X62682381Y-112244286D02*
X62682381Y-112053810D01*
X62634762Y-111958571D01*
X62587143Y-111910952D01*
X62444286Y-111815714D01*
X62253810Y-111768095D01*
X61872857Y-111768095D01*
X61777619Y-111815714D01*
X61730000Y-111863333D01*
X61682381Y-111958571D01*
X61682381Y-112149048D01*
X61730000Y-112244286D01*
X61777619Y-112291905D01*
X61872857Y-112339524D01*
X62110952Y-112339524D01*
X62206190Y-112291905D01*
X62253810Y-112244286D01*
X62301429Y-112149048D01*
X62301429Y-111958571D01*
X62253810Y-111863333D01*
X62206190Y-111815714D01*
X62110952Y-111768095D01*
X134231143Y-90019143D02*
X134183524Y-90066762D01*
X134040667Y-90114381D01*
X133945429Y-90114381D01*
X133802571Y-90066762D01*
X133707333Y-89971524D01*
X133659714Y-89876286D01*
X133612095Y-89685810D01*
X133612095Y-89542952D01*
X133659714Y-89352476D01*
X133707333Y-89257238D01*
X133802571Y-89162000D01*
X133945429Y-89114381D01*
X134040667Y-89114381D01*
X134183524Y-89162000D01*
X134231143Y-89209619D01*
X134612095Y-89209619D02*
X134659714Y-89162000D01*
X134754952Y-89114381D01*
X134993048Y-89114381D01*
X135088286Y-89162000D01*
X135135905Y-89209619D01*
X135183524Y-89304857D01*
X135183524Y-89400095D01*
X135135905Y-89542952D01*
X134564476Y-90114381D01*
X135183524Y-90114381D01*
X135802571Y-89114381D02*
X135897810Y-89114381D01*
X135993048Y-89162000D01*
X136040667Y-89209619D01*
X136088286Y-89304857D01*
X136135905Y-89495333D01*
X136135905Y-89733429D01*
X136088286Y-89923905D01*
X136040667Y-90019143D01*
X135993048Y-90066762D01*
X135897810Y-90114381D01*
X135802571Y-90114381D01*
X135707333Y-90066762D01*
X135659714Y-90019143D01*
X135612095Y-89923905D01*
X135564476Y-89733429D01*
X135564476Y-89495333D01*
X135612095Y-89304857D01*
X135659714Y-89209619D01*
X135707333Y-89162000D01*
X135802571Y-89114381D01*
X88257143Y-135707381D02*
X87923809Y-135231190D01*
X87685714Y-135707381D02*
X87685714Y-134707381D01*
X88066667Y-134707381D01*
X88161905Y-134755000D01*
X88209524Y-134802619D01*
X88257143Y-134897857D01*
X88257143Y-135040714D01*
X88209524Y-135135952D01*
X88161905Y-135183571D01*
X88066667Y-135231190D01*
X87685714Y-135231190D01*
X89209524Y-135707381D02*
X88638095Y-135707381D01*
X88923809Y-135707381D02*
X88923809Y-134707381D01*
X88828571Y-134850238D01*
X88733333Y-134945476D01*
X88638095Y-134993095D01*
X89828571Y-134707381D02*
X89923810Y-134707381D01*
X90019048Y-134755000D01*
X90066667Y-134802619D01*
X90114286Y-134897857D01*
X90161905Y-135088333D01*
X90161905Y-135326429D01*
X90114286Y-135516905D01*
X90066667Y-135612143D01*
X90019048Y-135659762D01*
X89923810Y-135707381D01*
X89828571Y-135707381D01*
X89733333Y-135659762D01*
X89685714Y-135612143D01*
X89638095Y-135516905D01*
X89590476Y-135326429D01*
X89590476Y-135088333D01*
X89638095Y-134897857D01*
X89685714Y-134802619D01*
X89733333Y-134755000D01*
X89828571Y-134707381D01*
X90797143Y-154122381D02*
X90463809Y-153646190D01*
X90225714Y-154122381D02*
X90225714Y-153122381D01*
X90606667Y-153122381D01*
X90701905Y-153170000D01*
X90749524Y-153217619D01*
X90797143Y-153312857D01*
X90797143Y-153455714D01*
X90749524Y-153550952D01*
X90701905Y-153598571D01*
X90606667Y-153646190D01*
X90225714Y-153646190D01*
X91749524Y-154122381D02*
X91178095Y-154122381D01*
X91463809Y-154122381D02*
X91463809Y-153122381D01*
X91368571Y-153265238D01*
X91273333Y-153360476D01*
X91178095Y-153408095D01*
X92701905Y-154122381D02*
X92130476Y-154122381D01*
X92416190Y-154122381D02*
X92416190Y-153122381D01*
X92320952Y-153265238D01*
X92225714Y-153360476D01*
X92130476Y-153408095D01*
X52951143Y-128595381D02*
X52617809Y-128119190D01*
X52379714Y-128595381D02*
X52379714Y-127595381D01*
X52760667Y-127595381D01*
X52855905Y-127643000D01*
X52903524Y-127690619D01*
X52951143Y-127785857D01*
X52951143Y-127928714D01*
X52903524Y-128023952D01*
X52855905Y-128071571D01*
X52760667Y-128119190D01*
X52379714Y-128119190D01*
X53903524Y-128595381D02*
X53332095Y-128595381D01*
X53617809Y-128595381D02*
X53617809Y-127595381D01*
X53522571Y-127738238D01*
X53427333Y-127833476D01*
X53332095Y-127881095D01*
X54284476Y-127690619D02*
X54332095Y-127643000D01*
X54427333Y-127595381D01*
X54665429Y-127595381D01*
X54760667Y-127643000D01*
X54808286Y-127690619D01*
X54855905Y-127785857D01*
X54855905Y-127881095D01*
X54808286Y-128023952D01*
X54236857Y-128595381D01*
X54855905Y-128595381D01*
X44394381Y-125610857D02*
X43918190Y-125944191D01*
X44394381Y-126182286D02*
X43394381Y-126182286D01*
X43394381Y-125801333D01*
X43442000Y-125706095D01*
X43489619Y-125658476D01*
X43584857Y-125610857D01*
X43727714Y-125610857D01*
X43822952Y-125658476D01*
X43870571Y-125706095D01*
X43918190Y-125801333D01*
X43918190Y-126182286D01*
X44394381Y-124658476D02*
X44394381Y-125229905D01*
X44394381Y-124944191D02*
X43394381Y-124944191D01*
X43537238Y-125039429D01*
X43632476Y-125134667D01*
X43680095Y-125229905D01*
X43394381Y-124325143D02*
X43394381Y-123706095D01*
X43775333Y-124039429D01*
X43775333Y-123896571D01*
X43822952Y-123801333D01*
X43870571Y-123753714D01*
X43965810Y-123706095D01*
X44203905Y-123706095D01*
X44299143Y-123753714D01*
X44346762Y-123801333D01*
X44394381Y-123896571D01*
X44394381Y-124182286D01*
X44346762Y-124277524D01*
X44299143Y-124325143D01*
X45777381Y-107957857D02*
X45301190Y-108291191D01*
X45777381Y-108529286D02*
X44777381Y-108529286D01*
X44777381Y-108148333D01*
X44825000Y-108053095D01*
X44872619Y-108005476D01*
X44967857Y-107957857D01*
X45110714Y-107957857D01*
X45205952Y-108005476D01*
X45253571Y-108053095D01*
X45301190Y-108148333D01*
X45301190Y-108529286D01*
X45777381Y-107005476D02*
X45777381Y-107576905D01*
X45777381Y-107291191D02*
X44777381Y-107291191D01*
X44920238Y-107386429D01*
X45015476Y-107481667D01*
X45063095Y-107576905D01*
X45110714Y-106148333D02*
X45777381Y-106148333D01*
X44729762Y-106386429D02*
X45444048Y-106624524D01*
X45444048Y-106005476D01*
X43886381Y-117482857D02*
X43410190Y-117816191D01*
X43886381Y-118054286D02*
X42886381Y-118054286D01*
X42886381Y-117673333D01*
X42934000Y-117578095D01*
X42981619Y-117530476D01*
X43076857Y-117482857D01*
X43219714Y-117482857D01*
X43314952Y-117530476D01*
X43362571Y-117578095D01*
X43410190Y-117673333D01*
X43410190Y-118054286D01*
X43886381Y-116530476D02*
X43886381Y-117101905D01*
X43886381Y-116816191D02*
X42886381Y-116816191D01*
X43029238Y-116911429D01*
X43124476Y-117006667D01*
X43172095Y-117101905D01*
X42886381Y-115625714D02*
X42886381Y-116101905D01*
X43362571Y-116149524D01*
X43314952Y-116101905D01*
X43267333Y-116006667D01*
X43267333Y-115768571D01*
X43314952Y-115673333D01*
X43362571Y-115625714D01*
X43457810Y-115578095D01*
X43695905Y-115578095D01*
X43791143Y-115625714D01*
X43838762Y-115673333D01*
X43886381Y-115768571D01*
X43886381Y-116006667D01*
X43838762Y-116101905D01*
X43791143Y-116149524D01*
X133437381Y-120141905D02*
X134246905Y-120141905D01*
X134342143Y-120094286D01*
X134389762Y-120046667D01*
X134437381Y-119951429D01*
X134437381Y-119760952D01*
X134389762Y-119665714D01*
X134342143Y-119618095D01*
X134246905Y-119570476D01*
X133437381Y-119570476D01*
X134437381Y-118570476D02*
X134437381Y-119141905D01*
X134437381Y-118856191D02*
X133437381Y-118856191D01*
X133580238Y-118951429D01*
X133675476Y-119046667D01*
X133723095Y-119141905D01*
X130149714Y-114061857D02*
X130149714Y-115033286D01*
X130206857Y-115147571D01*
X130264000Y-115204714D01*
X130378286Y-115261857D01*
X130606857Y-115261857D01*
X130721143Y-115204714D01*
X130778286Y-115147571D01*
X130835429Y-115033286D01*
X130835429Y-114061857D01*
X131292572Y-114061857D02*
X132035429Y-114061857D01*
X131635429Y-114519000D01*
X131806857Y-114519000D01*
X131921143Y-114576143D01*
X131978286Y-114633286D01*
X132035429Y-114747571D01*
X132035429Y-115033286D01*
X131978286Y-115147571D01*
X131921143Y-115204714D01*
X131806857Y-115261857D01*
X131464000Y-115261857D01*
X131349714Y-115204714D01*
X131292572Y-115147571D01*
X100877381Y-134088095D02*
X99877381Y-134088095D01*
X99877381Y-133850000D01*
X99925000Y-133707142D01*
X100020238Y-133611904D01*
X100115476Y-133564285D01*
X100305952Y-133516666D01*
X100448810Y-133516666D01*
X100639286Y-133564285D01*
X100734524Y-133611904D01*
X100829762Y-133707142D01*
X100877381Y-133850000D01*
X100877381Y-134088095D01*
X99972619Y-133135714D02*
X99925000Y-133088095D01*
X99877381Y-132992857D01*
X99877381Y-132754761D01*
X99925000Y-132659523D01*
X99972619Y-132611904D01*
X100067857Y-132564285D01*
X100163095Y-132564285D01*
X100305952Y-132611904D01*
X100877381Y-133183333D01*
X100877381Y-132564285D01*
X46172381Y-102973095D02*
X45172381Y-102973095D01*
X45172381Y-102735000D01*
X45220000Y-102592142D01*
X45315238Y-102496904D01*
X45410476Y-102449285D01*
X45600952Y-102401666D01*
X45743810Y-102401666D01*
X45934286Y-102449285D01*
X46029524Y-102496904D01*
X46124762Y-102592142D01*
X46172381Y-102735000D01*
X46172381Y-102973095D01*
X45505714Y-101544523D02*
X46172381Y-101544523D01*
X45124762Y-101782619D02*
X45839048Y-102020714D01*
X45839048Y-101401666D01*
X82843810Y-129992381D02*
X82843810Y-128992381D01*
X83891429Y-129897143D02*
X83843810Y-129944762D01*
X83700953Y-129992381D01*
X83605715Y-129992381D01*
X83462857Y-129944762D01*
X83367619Y-129849524D01*
X83320000Y-129754286D01*
X83272381Y-129563810D01*
X83272381Y-129420952D01*
X83320000Y-129230476D01*
X83367619Y-129135238D01*
X83462857Y-129040000D01*
X83605715Y-128992381D01*
X83700953Y-128992381D01*
X83843810Y-129040000D01*
X83891429Y-129087619D01*
X84843810Y-129992381D02*
X84272381Y-129992381D01*
X84558095Y-129992381D02*
X84558095Y-128992381D01*
X84462857Y-129135238D01*
X84367619Y-129230476D01*
X84272381Y-129278095D01*
X102766762Y-149415333D02*
X102814381Y-149272476D01*
X102814381Y-149034380D01*
X102766762Y-148939142D01*
X102719143Y-148891523D01*
X102623905Y-148843904D01*
X102528667Y-148843904D01*
X102433429Y-148891523D01*
X102385810Y-148939142D01*
X102338190Y-149034380D01*
X102290571Y-149224857D01*
X102242952Y-149320095D01*
X102195333Y-149367714D01*
X102100095Y-149415333D01*
X102004857Y-149415333D01*
X101909619Y-149367714D01*
X101862000Y-149320095D01*
X101814381Y-149224857D01*
X101814381Y-148986761D01*
X101862000Y-148843904D01*
X101814381Y-148510571D02*
X102814381Y-148272476D01*
X102100095Y-148081999D01*
X102814381Y-147891523D01*
X101814381Y-147653428D01*
X101909619Y-147320095D02*
X101862000Y-147272476D01*
X101814381Y-147177238D01*
X101814381Y-146939142D01*
X101862000Y-146843904D01*
X101909619Y-146796285D01*
X102004857Y-146748666D01*
X102100095Y-146748666D01*
X102242952Y-146796285D01*
X102814381Y-147367714D01*
X102814381Y-146748666D01*
X66674190Y-140349191D02*
X67150381Y-140349191D01*
X66150381Y-140682524D02*
X66674190Y-140349191D01*
X66150381Y-140015857D01*
X67150381Y-139158714D02*
X67150381Y-139730143D01*
X67150381Y-139444429D02*
X66150381Y-139444429D01*
X66293238Y-139539667D01*
X66388476Y-139634905D01*
X66436095Y-139730143D01*
X100909381Y-163552095D02*
X99909381Y-163552095D01*
X99909381Y-163171142D01*
X99957000Y-163075904D01*
X100004619Y-163028285D01*
X100099857Y-162980666D01*
X100242714Y-162980666D01*
X100337952Y-163028285D01*
X100385571Y-163075904D01*
X100433190Y-163171142D01*
X100433190Y-163552095D01*
X99909381Y-162123523D02*
X99909381Y-162314000D01*
X99957000Y-162409238D01*
X100004619Y-162456857D01*
X100147476Y-162552095D01*
X100337952Y-162599714D01*
X100718905Y-162599714D01*
X100814143Y-162552095D01*
X100861762Y-162504476D01*
X100909381Y-162409238D01*
X100909381Y-162218761D01*
X100861762Y-162123523D01*
X100814143Y-162075904D01*
X100718905Y-162028285D01*
X100480810Y-162028285D01*
X100385571Y-162075904D01*
X100337952Y-162123523D01*
X100290333Y-162218761D01*
X100290333Y-162409238D01*
X100337952Y-162504476D01*
X100385571Y-162552095D01*
X100480810Y-162599714D01*
X68191143Y-151741143D02*
X68143524Y-151788762D01*
X68000667Y-151836381D01*
X67905429Y-151836381D01*
X67762571Y-151788762D01*
X67667333Y-151693524D01*
X67619714Y-151598286D01*
X67572095Y-151407810D01*
X67572095Y-151264952D01*
X67619714Y-151074476D01*
X67667333Y-150979238D01*
X67762571Y-150884000D01*
X67905429Y-150836381D01*
X68000667Y-150836381D01*
X68143524Y-150884000D01*
X68191143Y-150931619D01*
X68572095Y-150931619D02*
X68619714Y-150884000D01*
X68714952Y-150836381D01*
X68953048Y-150836381D01*
X69048286Y-150884000D01*
X69095905Y-150931619D01*
X69143524Y-151026857D01*
X69143524Y-151122095D01*
X69095905Y-151264952D01*
X68524476Y-151836381D01*
X69143524Y-151836381D01*
X70095905Y-151836381D02*
X69524476Y-151836381D01*
X69810190Y-151836381D02*
X69810190Y-150836381D01*
X69714952Y-150979238D01*
X69619714Y-151074476D01*
X69524476Y-151122095D01*
X75811143Y-156567143D02*
X75763524Y-156614762D01*
X75620667Y-156662381D01*
X75525429Y-156662381D01*
X75382571Y-156614762D01*
X75287333Y-156519524D01*
X75239714Y-156424286D01*
X75192095Y-156233810D01*
X75192095Y-156090952D01*
X75239714Y-155900476D01*
X75287333Y-155805238D01*
X75382571Y-155710000D01*
X75525429Y-155662381D01*
X75620667Y-155662381D01*
X75763524Y-155710000D01*
X75811143Y-155757619D01*
X76192095Y-155757619D02*
X76239714Y-155710000D01*
X76334952Y-155662381D01*
X76573048Y-155662381D01*
X76668286Y-155710000D01*
X76715905Y-155757619D01*
X76763524Y-155852857D01*
X76763524Y-155948095D01*
X76715905Y-156090952D01*
X76144476Y-156662381D01*
X76763524Y-156662381D01*
X77144476Y-155757619D02*
X77192095Y-155710000D01*
X77287333Y-155662381D01*
X77525429Y-155662381D01*
X77620667Y-155710000D01*
X77668286Y-155757619D01*
X77715905Y-155852857D01*
X77715905Y-155948095D01*
X77668286Y-156090952D01*
X77096857Y-156662381D01*
X77715905Y-156662381D01*
X68191143Y-169267143D02*
X68143524Y-169314762D01*
X68000667Y-169362381D01*
X67905429Y-169362381D01*
X67762571Y-169314762D01*
X67667333Y-169219524D01*
X67619714Y-169124286D01*
X67572095Y-168933810D01*
X67572095Y-168790952D01*
X67619714Y-168600476D01*
X67667333Y-168505238D01*
X67762571Y-168410000D01*
X67905429Y-168362381D01*
X68000667Y-168362381D01*
X68143524Y-168410000D01*
X68191143Y-168457619D01*
X68572095Y-168457619D02*
X68619714Y-168410000D01*
X68714952Y-168362381D01*
X68953048Y-168362381D01*
X69048286Y-168410000D01*
X69095905Y-168457619D01*
X69143524Y-168552857D01*
X69143524Y-168648095D01*
X69095905Y-168790952D01*
X68524476Y-169362381D01*
X69143524Y-169362381D01*
X69476857Y-168362381D02*
X70095905Y-168362381D01*
X69762571Y-168743333D01*
X69905429Y-168743333D01*
X70000667Y-168790952D01*
X70048286Y-168838571D01*
X70095905Y-168933810D01*
X70095905Y-169171905D01*
X70048286Y-169267143D01*
X70000667Y-169314762D01*
X69905429Y-169362381D01*
X69619714Y-169362381D01*
X69524476Y-169314762D01*
X69476857Y-169267143D01*
X68159334Y-161742381D02*
X67826000Y-161266190D01*
X67587905Y-161742381D02*
X67587905Y-160742381D01*
X67968858Y-160742381D01*
X68064096Y-160790000D01*
X68111715Y-160837619D01*
X68159334Y-160932857D01*
X68159334Y-161075714D01*
X68111715Y-161170952D01*
X68064096Y-161218571D01*
X67968858Y-161266190D01*
X67587905Y-161266190D01*
X68635524Y-161742381D02*
X68826000Y-161742381D01*
X68921239Y-161694762D01*
X68968858Y-161647143D01*
X69064096Y-161504286D01*
X69111715Y-161313810D01*
X69111715Y-160932857D01*
X69064096Y-160837619D01*
X69016477Y-160790000D01*
X68921239Y-160742381D01*
X68730762Y-160742381D01*
X68635524Y-160790000D01*
X68587905Y-160837619D01*
X68540286Y-160932857D01*
X68540286Y-161170952D01*
X68587905Y-161266190D01*
X68635524Y-161313810D01*
X68730762Y-161361429D01*
X68921239Y-161361429D01*
X69016477Y-161313810D01*
X69064096Y-161266190D01*
X69111715Y-161170952D01*
X68524381Y-159392857D02*
X68048190Y-159726191D01*
X68524381Y-159964286D02*
X67524381Y-159964286D01*
X67524381Y-159583333D01*
X67572000Y-159488095D01*
X67619619Y-159440476D01*
X67714857Y-159392857D01*
X67857714Y-159392857D01*
X67952952Y-159440476D01*
X68000571Y-159488095D01*
X68048190Y-159583333D01*
X68048190Y-159964286D01*
X68524381Y-158440476D02*
X68524381Y-159011905D01*
X68524381Y-158726191D02*
X67524381Y-158726191D01*
X67667238Y-158821429D01*
X67762476Y-158916667D01*
X67810095Y-159011905D01*
X67524381Y-157583333D02*
X67524381Y-157773810D01*
X67572000Y-157869048D01*
X67619619Y-157916667D01*
X67762476Y-158011905D01*
X67952952Y-158059524D01*
X68333905Y-158059524D01*
X68429143Y-158011905D01*
X68476762Y-157964286D01*
X68524381Y-157869048D01*
X68524381Y-157678571D01*
X68476762Y-157583333D01*
X68429143Y-157535714D01*
X68333905Y-157488095D01*
X68095810Y-157488095D01*
X68000571Y-157535714D01*
X67952952Y-157583333D01*
X67905333Y-157678571D01*
X67905333Y-157869048D01*
X67952952Y-157964286D01*
X68000571Y-158011905D01*
X68095810Y-158059524D01*
X68524381Y-156598857D02*
X68048190Y-156932191D01*
X68524381Y-157170286D02*
X67524381Y-157170286D01*
X67524381Y-156789333D01*
X67572000Y-156694095D01*
X67619619Y-156646476D01*
X67714857Y-156598857D01*
X67857714Y-156598857D01*
X67952952Y-156646476D01*
X68000571Y-156694095D01*
X68048190Y-156789333D01*
X68048190Y-157170286D01*
X68524381Y-155646476D02*
X68524381Y-156217905D01*
X68524381Y-155932191D02*
X67524381Y-155932191D01*
X67667238Y-156027429D01*
X67762476Y-156122667D01*
X67810095Y-156217905D01*
X67524381Y-155313143D02*
X67524381Y-154646476D01*
X68524381Y-155075048D01*
X68191143Y-165552381D02*
X67857809Y-165076190D01*
X67619714Y-165552381D02*
X67619714Y-164552381D01*
X68000667Y-164552381D01*
X68095905Y-164600000D01*
X68143524Y-164647619D01*
X68191143Y-164742857D01*
X68191143Y-164885714D01*
X68143524Y-164980952D01*
X68095905Y-165028571D01*
X68000667Y-165076190D01*
X67619714Y-165076190D01*
X69143524Y-165552381D02*
X68572095Y-165552381D01*
X68857809Y-165552381D02*
X68857809Y-164552381D01*
X68762571Y-164695238D01*
X68667333Y-164790476D01*
X68572095Y-164838095D01*
X69714952Y-164980952D02*
X69619714Y-164933333D01*
X69572095Y-164885714D01*
X69524476Y-164790476D01*
X69524476Y-164742857D01*
X69572095Y-164647619D01*
X69619714Y-164600000D01*
X69714952Y-164552381D01*
X69905429Y-164552381D01*
X70000667Y-164600000D01*
X70048286Y-164647619D01*
X70095905Y-164742857D01*
X70095905Y-164790476D01*
X70048286Y-164885714D01*
X70000667Y-164933333D01*
X69905429Y-164980952D01*
X69714952Y-164980952D01*
X69619714Y-165028571D01*
X69572095Y-165076190D01*
X69524476Y-165171429D01*
X69524476Y-165361905D01*
X69572095Y-165457143D01*
X69619714Y-165504762D01*
X69714952Y-165552381D01*
X69905429Y-165552381D01*
X70000667Y-165504762D01*
X70048286Y-165457143D01*
X70095905Y-165361905D01*
X70095905Y-165171429D01*
X70048286Y-165076190D01*
X70000667Y-165028571D01*
X69905429Y-164980952D01*
X68191143Y-166822381D02*
X67857809Y-166346190D01*
X67619714Y-166822381D02*
X67619714Y-165822381D01*
X68000667Y-165822381D01*
X68095905Y-165870000D01*
X68143524Y-165917619D01*
X68191143Y-166012857D01*
X68191143Y-166155714D01*
X68143524Y-166250952D01*
X68095905Y-166298571D01*
X68000667Y-166346190D01*
X67619714Y-166346190D01*
X69143524Y-166822381D02*
X68572095Y-166822381D01*
X68857809Y-166822381D02*
X68857809Y-165822381D01*
X68762571Y-165965238D01*
X68667333Y-166060476D01*
X68572095Y-166108095D01*
X69619714Y-166822381D02*
X69810190Y-166822381D01*
X69905429Y-166774762D01*
X69953048Y-166727143D01*
X70048286Y-166584286D01*
X70095905Y-166393810D01*
X70095905Y-166012857D01*
X70048286Y-165917619D01*
X70000667Y-165870000D01*
X69905429Y-165822381D01*
X69714952Y-165822381D01*
X69619714Y-165870000D01*
X69572095Y-165917619D01*
X69524476Y-166012857D01*
X69524476Y-166250952D01*
X69572095Y-166346190D01*
X69619714Y-166393810D01*
X69714952Y-166441429D01*
X69905429Y-166441429D01*
X70000667Y-166393810D01*
X70048286Y-166346190D01*
X70095905Y-166250952D01*
X83937143Y-111132857D02*
X83984762Y-111180476D01*
X84032381Y-111323333D01*
X84032381Y-111418571D01*
X83984762Y-111561429D01*
X83889524Y-111656667D01*
X83794286Y-111704286D01*
X83603810Y-111751905D01*
X83460952Y-111751905D01*
X83270476Y-111704286D01*
X83175238Y-111656667D01*
X83080000Y-111561429D01*
X83032381Y-111418571D01*
X83032381Y-111323333D01*
X83080000Y-111180476D01*
X83127619Y-111132857D01*
X83127619Y-110751905D02*
X83080000Y-110704286D01*
X83032381Y-110609048D01*
X83032381Y-110370952D01*
X83080000Y-110275714D01*
X83127619Y-110228095D01*
X83222857Y-110180476D01*
X83318095Y-110180476D01*
X83460952Y-110228095D01*
X84032381Y-110799524D01*
X84032381Y-110180476D01*
X83365714Y-109323333D02*
X84032381Y-109323333D01*
X82984762Y-109561429D02*
X83699048Y-109799524D01*
X83699048Y-109180476D01*
X79337143Y-117482857D02*
X79384762Y-117530476D01*
X79432381Y-117673333D01*
X79432381Y-117768571D01*
X79384762Y-117911429D01*
X79289524Y-118006667D01*
X79194286Y-118054286D01*
X79003810Y-118101905D01*
X78860952Y-118101905D01*
X78670476Y-118054286D01*
X78575238Y-118006667D01*
X78480000Y-117911429D01*
X78432381Y-117768571D01*
X78432381Y-117673333D01*
X78480000Y-117530476D01*
X78527619Y-117482857D01*
X78527619Y-117101905D02*
X78480000Y-117054286D01*
X78432381Y-116959048D01*
X78432381Y-116720952D01*
X78480000Y-116625714D01*
X78527619Y-116578095D01*
X78622857Y-116530476D01*
X78718095Y-116530476D01*
X78860952Y-116578095D01*
X79432381Y-117149524D01*
X79432381Y-116530476D01*
X78432381Y-115625714D02*
X78432381Y-116101905D01*
X78908571Y-116149524D01*
X78860952Y-116101905D01*
X78813333Y-116006667D01*
X78813333Y-115768571D01*
X78860952Y-115673333D01*
X78908571Y-115625714D01*
X79003810Y-115578095D01*
X79241905Y-115578095D01*
X79337143Y-115625714D01*
X79384762Y-115673333D01*
X79432381Y-115768571D01*
X79432381Y-116006667D01*
X79384762Y-116101905D01*
X79337143Y-116149524D01*
X114657143Y-125102857D02*
X114704762Y-125150476D01*
X114752381Y-125293333D01*
X114752381Y-125388571D01*
X114704762Y-125531429D01*
X114609524Y-125626667D01*
X114514286Y-125674286D01*
X114323810Y-125721905D01*
X114180952Y-125721905D01*
X113990476Y-125674286D01*
X113895238Y-125626667D01*
X113800000Y-125531429D01*
X113752381Y-125388571D01*
X113752381Y-125293333D01*
X113800000Y-125150476D01*
X113847619Y-125102857D01*
X113847619Y-124721905D02*
X113800000Y-124674286D01*
X113752381Y-124579048D01*
X113752381Y-124340952D01*
X113800000Y-124245714D01*
X113847619Y-124198095D01*
X113942857Y-124150476D01*
X114038095Y-124150476D01*
X114180952Y-124198095D01*
X114752381Y-124769524D01*
X114752381Y-124150476D01*
X113752381Y-123293333D02*
X113752381Y-123483810D01*
X113800000Y-123579048D01*
X113847619Y-123626667D01*
X113990476Y-123721905D01*
X114180952Y-123769524D01*
X114561905Y-123769524D01*
X114657143Y-123721905D01*
X114704762Y-123674286D01*
X114752381Y-123579048D01*
X114752381Y-123388571D01*
X114704762Y-123293333D01*
X114657143Y-123245714D01*
X114561905Y-123198095D01*
X114323810Y-123198095D01*
X114228571Y-123245714D01*
X114180952Y-123293333D01*
X114133333Y-123388571D01*
X114133333Y-123579048D01*
X114180952Y-123674286D01*
X114228571Y-123721905D01*
X114323810Y-123769524D01*
X112117143Y-125102857D02*
X112164762Y-125150476D01*
X112212381Y-125293333D01*
X112212381Y-125388571D01*
X112164762Y-125531429D01*
X112069524Y-125626667D01*
X111974286Y-125674286D01*
X111783810Y-125721905D01*
X111640952Y-125721905D01*
X111450476Y-125674286D01*
X111355238Y-125626667D01*
X111260000Y-125531429D01*
X111212381Y-125388571D01*
X111212381Y-125293333D01*
X111260000Y-125150476D01*
X111307619Y-125102857D01*
X111307619Y-124721905D02*
X111260000Y-124674286D01*
X111212381Y-124579048D01*
X111212381Y-124340952D01*
X111260000Y-124245714D01*
X111307619Y-124198095D01*
X111402857Y-124150476D01*
X111498095Y-124150476D01*
X111640952Y-124198095D01*
X112212381Y-124769524D01*
X112212381Y-124150476D01*
X111212381Y-123817143D02*
X111212381Y-123150476D01*
X112212381Y-123579048D01*
X109577143Y-125102857D02*
X109624762Y-125150476D01*
X109672381Y-125293333D01*
X109672381Y-125388571D01*
X109624762Y-125531429D01*
X109529524Y-125626667D01*
X109434286Y-125674286D01*
X109243810Y-125721905D01*
X109100952Y-125721905D01*
X108910476Y-125674286D01*
X108815238Y-125626667D01*
X108720000Y-125531429D01*
X108672381Y-125388571D01*
X108672381Y-125293333D01*
X108720000Y-125150476D01*
X108767619Y-125102857D01*
X108767619Y-124721905D02*
X108720000Y-124674286D01*
X108672381Y-124579048D01*
X108672381Y-124340952D01*
X108720000Y-124245714D01*
X108767619Y-124198095D01*
X108862857Y-124150476D01*
X108958095Y-124150476D01*
X109100952Y-124198095D01*
X109672381Y-124769524D01*
X109672381Y-124150476D01*
X109100952Y-123579048D02*
X109053333Y-123674286D01*
X109005714Y-123721905D01*
X108910476Y-123769524D01*
X108862857Y-123769524D01*
X108767619Y-123721905D01*
X108720000Y-123674286D01*
X108672381Y-123579048D01*
X108672381Y-123388571D01*
X108720000Y-123293333D01*
X108767619Y-123245714D01*
X108862857Y-123198095D01*
X108910476Y-123198095D01*
X109005714Y-123245714D01*
X109053333Y-123293333D01*
X109100952Y-123388571D01*
X109100952Y-123579048D01*
X109148571Y-123674286D01*
X109196190Y-123721905D01*
X109291429Y-123769524D01*
X109481905Y-123769524D01*
X109577143Y-123721905D01*
X109624762Y-123674286D01*
X109672381Y-123579048D01*
X109672381Y-123388571D01*
X109624762Y-123293333D01*
X109577143Y-123245714D01*
X109481905Y-123198095D01*
X109291429Y-123198095D01*
X109196190Y-123245714D01*
X109148571Y-123293333D01*
X109100952Y-123388571D01*
X77081143Y-87733143D02*
X77033524Y-87780762D01*
X76890667Y-87828381D01*
X76795429Y-87828381D01*
X76652571Y-87780762D01*
X76557333Y-87685524D01*
X76509714Y-87590286D01*
X76462095Y-87399810D01*
X76462095Y-87256952D01*
X76509714Y-87066476D01*
X76557333Y-86971238D01*
X76652571Y-86876000D01*
X76795429Y-86828381D01*
X76890667Y-86828381D01*
X77033524Y-86876000D01*
X77081143Y-86923619D01*
X77462095Y-86923619D02*
X77509714Y-86876000D01*
X77604952Y-86828381D01*
X77843048Y-86828381D01*
X77938286Y-86876000D01*
X77985905Y-86923619D01*
X78033524Y-87018857D01*
X78033524Y-87114095D01*
X77985905Y-87256952D01*
X77414476Y-87828381D01*
X78033524Y-87828381D01*
X78509714Y-87828381D02*
X78700190Y-87828381D01*
X78795429Y-87780762D01*
X78843048Y-87733143D01*
X78938286Y-87590286D01*
X78985905Y-87399810D01*
X78985905Y-87018857D01*
X78938286Y-86923619D01*
X78890667Y-86876000D01*
X78795429Y-86828381D01*
X78604952Y-86828381D01*
X78509714Y-86876000D01*
X78462095Y-86923619D01*
X78414476Y-87018857D01*
X78414476Y-87256952D01*
X78462095Y-87352190D01*
X78509714Y-87399810D01*
X78604952Y-87447429D01*
X78795429Y-87447429D01*
X78890667Y-87399810D01*
X78938286Y-87352190D01*
X78985905Y-87256952D01*
X125087143Y-108307143D02*
X125039524Y-108354762D01*
X124896667Y-108402381D01*
X124801429Y-108402381D01*
X124658571Y-108354762D01*
X124563333Y-108259524D01*
X124515714Y-108164286D01*
X124468095Y-107973810D01*
X124468095Y-107830952D01*
X124515714Y-107640476D01*
X124563333Y-107545238D01*
X124658571Y-107450000D01*
X124801429Y-107402381D01*
X124896667Y-107402381D01*
X125039524Y-107450000D01*
X125087143Y-107497619D01*
X125420476Y-107402381D02*
X126039524Y-107402381D01*
X125706190Y-107783333D01*
X125849048Y-107783333D01*
X125944286Y-107830952D01*
X125991905Y-107878571D01*
X126039524Y-107973810D01*
X126039524Y-108211905D01*
X125991905Y-108307143D01*
X125944286Y-108354762D01*
X125849048Y-108402381D01*
X125563333Y-108402381D01*
X125468095Y-108354762D01*
X125420476Y-108307143D01*
X126658571Y-107402381D02*
X126753810Y-107402381D01*
X126849048Y-107450000D01*
X126896667Y-107497619D01*
X126944286Y-107592857D01*
X126991905Y-107783333D01*
X126991905Y-108021429D01*
X126944286Y-108211905D01*
X126896667Y-108307143D01*
X126849048Y-108354762D01*
X126753810Y-108402381D01*
X126658571Y-108402381D01*
X126563333Y-108354762D01*
X126515714Y-108307143D01*
X126468095Y-108211905D01*
X126420476Y-108021429D01*
X126420476Y-107783333D01*
X126468095Y-107592857D01*
X126515714Y-107497619D01*
X126563333Y-107450000D01*
X126658571Y-107402381D01*
X89527143Y-107037143D02*
X89479524Y-107084762D01*
X89336667Y-107132381D01*
X89241429Y-107132381D01*
X89098571Y-107084762D01*
X89003333Y-106989524D01*
X88955714Y-106894286D01*
X88908095Y-106703810D01*
X88908095Y-106560952D01*
X88955714Y-106370476D01*
X89003333Y-106275238D01*
X89098571Y-106180000D01*
X89241429Y-106132381D01*
X89336667Y-106132381D01*
X89479524Y-106180000D01*
X89527143Y-106227619D01*
X89860476Y-106132381D02*
X90479524Y-106132381D01*
X90146190Y-106513333D01*
X90289048Y-106513333D01*
X90384286Y-106560952D01*
X90431905Y-106608571D01*
X90479524Y-106703810D01*
X90479524Y-106941905D01*
X90431905Y-107037143D01*
X90384286Y-107084762D01*
X90289048Y-107132381D01*
X90003333Y-107132381D01*
X89908095Y-107084762D01*
X89860476Y-107037143D01*
X91431905Y-107132381D02*
X90860476Y-107132381D01*
X91146190Y-107132381D02*
X91146190Y-106132381D01*
X91050952Y-106275238D01*
X90955714Y-106370476D01*
X90860476Y-106418095D01*
X107037143Y-125102857D02*
X107084762Y-125150476D01*
X107132381Y-125293333D01*
X107132381Y-125388571D01*
X107084762Y-125531429D01*
X106989524Y-125626667D01*
X106894286Y-125674286D01*
X106703810Y-125721905D01*
X106560952Y-125721905D01*
X106370476Y-125674286D01*
X106275238Y-125626667D01*
X106180000Y-125531429D01*
X106132381Y-125388571D01*
X106132381Y-125293333D01*
X106180000Y-125150476D01*
X106227619Y-125102857D01*
X106132381Y-124769524D02*
X106132381Y-124150476D01*
X106513333Y-124483810D01*
X106513333Y-124340952D01*
X106560952Y-124245714D01*
X106608571Y-124198095D01*
X106703810Y-124150476D01*
X106941905Y-124150476D01*
X107037143Y-124198095D01*
X107084762Y-124245714D01*
X107132381Y-124340952D01*
X107132381Y-124626667D01*
X107084762Y-124721905D01*
X107037143Y-124769524D01*
X106227619Y-123769524D02*
X106180000Y-123721905D01*
X106132381Y-123626667D01*
X106132381Y-123388571D01*
X106180000Y-123293333D01*
X106227619Y-123245714D01*
X106322857Y-123198095D01*
X106418095Y-123198095D01*
X106560952Y-123245714D01*
X107132381Y-123817143D01*
X107132381Y-123198095D01*
X89527143Y-113387143D02*
X89479524Y-113434762D01*
X89336667Y-113482381D01*
X89241429Y-113482381D01*
X89098571Y-113434762D01*
X89003333Y-113339524D01*
X88955714Y-113244286D01*
X88908095Y-113053810D01*
X88908095Y-112910952D01*
X88955714Y-112720476D01*
X89003333Y-112625238D01*
X89098571Y-112530000D01*
X89241429Y-112482381D01*
X89336667Y-112482381D01*
X89479524Y-112530000D01*
X89527143Y-112577619D01*
X89860476Y-112482381D02*
X90479524Y-112482381D01*
X90146190Y-112863333D01*
X90289048Y-112863333D01*
X90384286Y-112910952D01*
X90431905Y-112958571D01*
X90479524Y-113053810D01*
X90479524Y-113291905D01*
X90431905Y-113387143D01*
X90384286Y-113434762D01*
X90289048Y-113482381D01*
X90003333Y-113482381D01*
X89908095Y-113434762D01*
X89860476Y-113387143D01*
X90812857Y-112482381D02*
X91431905Y-112482381D01*
X91098571Y-112863333D01*
X91241429Y-112863333D01*
X91336667Y-112910952D01*
X91384286Y-112958571D01*
X91431905Y-113053810D01*
X91431905Y-113291905D01*
X91384286Y-113387143D01*
X91336667Y-113434762D01*
X91241429Y-113482381D01*
X90955714Y-113482381D01*
X90860476Y-113434762D01*
X90812857Y-113387143D01*
X117197143Y-125102857D02*
X117244762Y-125150476D01*
X117292381Y-125293333D01*
X117292381Y-125388571D01*
X117244762Y-125531429D01*
X117149524Y-125626667D01*
X117054286Y-125674286D01*
X116863810Y-125721905D01*
X116720952Y-125721905D01*
X116530476Y-125674286D01*
X116435238Y-125626667D01*
X116340000Y-125531429D01*
X116292381Y-125388571D01*
X116292381Y-125293333D01*
X116340000Y-125150476D01*
X116387619Y-125102857D01*
X116292381Y-124769524D02*
X116292381Y-124150476D01*
X116673333Y-124483810D01*
X116673333Y-124340952D01*
X116720952Y-124245714D01*
X116768571Y-124198095D01*
X116863810Y-124150476D01*
X117101905Y-124150476D01*
X117197143Y-124198095D01*
X117244762Y-124245714D01*
X117292381Y-124340952D01*
X117292381Y-124626667D01*
X117244762Y-124721905D01*
X117197143Y-124769524D01*
X116292381Y-123245714D02*
X116292381Y-123721905D01*
X116768571Y-123769524D01*
X116720952Y-123721905D01*
X116673333Y-123626667D01*
X116673333Y-123388571D01*
X116720952Y-123293333D01*
X116768571Y-123245714D01*
X116863810Y-123198095D01*
X117101905Y-123198095D01*
X117197143Y-123245714D01*
X117244762Y-123293333D01*
X117292381Y-123388571D01*
X117292381Y-123626667D01*
X117244762Y-123721905D01*
X117197143Y-123769524D01*
X104497143Y-125102857D02*
X104544762Y-125150476D01*
X104592381Y-125293333D01*
X104592381Y-125388571D01*
X104544762Y-125531429D01*
X104449524Y-125626667D01*
X104354286Y-125674286D01*
X104163810Y-125721905D01*
X104020952Y-125721905D01*
X103830476Y-125674286D01*
X103735238Y-125626667D01*
X103640000Y-125531429D01*
X103592381Y-125388571D01*
X103592381Y-125293333D01*
X103640000Y-125150476D01*
X103687619Y-125102857D01*
X103592381Y-124769524D02*
X103592381Y-124150476D01*
X103973333Y-124483810D01*
X103973333Y-124340952D01*
X104020952Y-124245714D01*
X104068571Y-124198095D01*
X104163810Y-124150476D01*
X104401905Y-124150476D01*
X104497143Y-124198095D01*
X104544762Y-124245714D01*
X104592381Y-124340952D01*
X104592381Y-124626667D01*
X104544762Y-124721905D01*
X104497143Y-124769524D01*
X103592381Y-123293333D02*
X103592381Y-123483810D01*
X103640000Y-123579048D01*
X103687619Y-123626667D01*
X103830476Y-123721905D01*
X104020952Y-123769524D01*
X104401905Y-123769524D01*
X104497143Y-123721905D01*
X104544762Y-123674286D01*
X104592381Y-123579048D01*
X104592381Y-123388571D01*
X104544762Y-123293333D01*
X104497143Y-123245714D01*
X104401905Y-123198095D01*
X104163810Y-123198095D01*
X104068571Y-123245714D01*
X104020952Y-123293333D01*
X103973333Y-123388571D01*
X103973333Y-123579048D01*
X104020952Y-123674286D01*
X104068571Y-123721905D01*
X104163810Y-123769524D01*
X119737143Y-125102857D02*
X119784762Y-125150476D01*
X119832381Y-125293333D01*
X119832381Y-125388571D01*
X119784762Y-125531429D01*
X119689524Y-125626667D01*
X119594286Y-125674286D01*
X119403810Y-125721905D01*
X119260952Y-125721905D01*
X119070476Y-125674286D01*
X118975238Y-125626667D01*
X118880000Y-125531429D01*
X118832381Y-125388571D01*
X118832381Y-125293333D01*
X118880000Y-125150476D01*
X118927619Y-125102857D01*
X118832381Y-124769524D02*
X118832381Y-124150476D01*
X119213333Y-124483810D01*
X119213333Y-124340952D01*
X119260952Y-124245714D01*
X119308571Y-124198095D01*
X119403810Y-124150476D01*
X119641905Y-124150476D01*
X119737143Y-124198095D01*
X119784762Y-124245714D01*
X119832381Y-124340952D01*
X119832381Y-124626667D01*
X119784762Y-124721905D01*
X119737143Y-124769524D01*
X118832381Y-123817143D02*
X118832381Y-123150476D01*
X119832381Y-123579048D01*
X125087143Y-105767143D02*
X125039524Y-105814762D01*
X124896667Y-105862381D01*
X124801429Y-105862381D01*
X124658571Y-105814762D01*
X124563333Y-105719524D01*
X124515714Y-105624286D01*
X124468095Y-105433810D01*
X124468095Y-105290952D01*
X124515714Y-105100476D01*
X124563333Y-105005238D01*
X124658571Y-104910000D01*
X124801429Y-104862381D01*
X124896667Y-104862381D01*
X125039524Y-104910000D01*
X125087143Y-104957619D01*
X125420476Y-104862381D02*
X126039524Y-104862381D01*
X125706190Y-105243333D01*
X125849048Y-105243333D01*
X125944286Y-105290952D01*
X125991905Y-105338571D01*
X126039524Y-105433810D01*
X126039524Y-105671905D01*
X125991905Y-105767143D01*
X125944286Y-105814762D01*
X125849048Y-105862381D01*
X125563333Y-105862381D01*
X125468095Y-105814762D01*
X125420476Y-105767143D01*
X126610952Y-105290952D02*
X126515714Y-105243333D01*
X126468095Y-105195714D01*
X126420476Y-105100476D01*
X126420476Y-105052857D01*
X126468095Y-104957619D01*
X126515714Y-104910000D01*
X126610952Y-104862381D01*
X126801429Y-104862381D01*
X126896667Y-104910000D01*
X126944286Y-104957619D01*
X126991905Y-105052857D01*
X126991905Y-105100476D01*
X126944286Y-105195714D01*
X126896667Y-105243333D01*
X126801429Y-105290952D01*
X126610952Y-105290952D01*
X126515714Y-105338571D01*
X126468095Y-105386190D01*
X126420476Y-105481429D01*
X126420476Y-105671905D01*
X126468095Y-105767143D01*
X126515714Y-105814762D01*
X126610952Y-105862381D01*
X126801429Y-105862381D01*
X126896667Y-105814762D01*
X126944286Y-105767143D01*
X126991905Y-105671905D01*
X126991905Y-105481429D01*
X126944286Y-105386190D01*
X126896667Y-105338571D01*
X126801429Y-105290952D01*
X98321905Y-96464381D02*
X98321905Y-95464381D01*
X98560000Y-95464381D01*
X98702858Y-95512000D01*
X98798096Y-95607238D01*
X98845715Y-95702476D01*
X98893334Y-95892952D01*
X98893334Y-96035810D01*
X98845715Y-96226286D01*
X98798096Y-96321524D01*
X98702858Y-96416762D01*
X98560000Y-96464381D01*
X98321905Y-96464381D01*
X99750477Y-95464381D02*
X99560000Y-95464381D01*
X99464762Y-95512000D01*
X99417143Y-95559619D01*
X99321905Y-95702476D01*
X99274286Y-95892952D01*
X99274286Y-96273905D01*
X99321905Y-96369143D01*
X99369524Y-96416762D01*
X99464762Y-96464381D01*
X99655239Y-96464381D01*
X99750477Y-96416762D01*
X99798096Y-96369143D01*
X99845715Y-96273905D01*
X99845715Y-96035810D01*
X99798096Y-95940571D01*
X99750477Y-95892952D01*
X99655239Y-95845333D01*
X99464762Y-95845333D01*
X99369524Y-95892952D01*
X99321905Y-95940571D01*
X99274286Y-96035810D01*
X98321905Y-93924381D02*
X98321905Y-92924381D01*
X98560000Y-92924381D01*
X98702858Y-92972000D01*
X98798096Y-93067238D01*
X98845715Y-93162476D01*
X98893334Y-93352952D01*
X98893334Y-93495810D01*
X98845715Y-93686286D01*
X98798096Y-93781524D01*
X98702858Y-93876762D01*
X98560000Y-93924381D01*
X98321905Y-93924381D01*
X99226667Y-92924381D02*
X99893334Y-92924381D01*
X99464762Y-93924381D01*
X98321905Y-91384381D02*
X98321905Y-90384381D01*
X98560000Y-90384381D01*
X98702858Y-90432000D01*
X98798096Y-90527238D01*
X98845715Y-90622476D01*
X98893334Y-90812952D01*
X98893334Y-90955810D01*
X98845715Y-91146286D01*
X98798096Y-91241524D01*
X98702858Y-91336762D01*
X98560000Y-91384381D01*
X98321905Y-91384381D01*
X99464762Y-90812952D02*
X99369524Y-90765333D01*
X99321905Y-90717714D01*
X99274286Y-90622476D01*
X99274286Y-90574857D01*
X99321905Y-90479619D01*
X99369524Y-90432000D01*
X99464762Y-90384381D01*
X99655239Y-90384381D01*
X99750477Y-90432000D01*
X99798096Y-90479619D01*
X99845715Y-90574857D01*
X99845715Y-90622476D01*
X99798096Y-90717714D01*
X99750477Y-90765333D01*
X99655239Y-90812952D01*
X99464762Y-90812952D01*
X99369524Y-90860571D01*
X99321905Y-90908190D01*
X99274286Y-91003429D01*
X99274286Y-91193905D01*
X99321905Y-91289143D01*
X99369524Y-91336762D01*
X99464762Y-91384381D01*
X99655239Y-91384381D01*
X99750477Y-91336762D01*
X99798096Y-91289143D01*
X99845715Y-91193905D01*
X99845715Y-91003429D01*
X99798096Y-90908190D01*
X99750477Y-90860571D01*
X99655239Y-90812952D01*
X98321905Y-83764381D02*
X98321905Y-82764381D01*
X98560000Y-82764381D01*
X98702858Y-82812000D01*
X98798096Y-82907238D01*
X98845715Y-83002476D01*
X98893334Y-83192952D01*
X98893334Y-83335810D01*
X98845715Y-83526286D01*
X98798096Y-83621524D01*
X98702858Y-83716762D01*
X98560000Y-83764381D01*
X98321905Y-83764381D01*
X99369524Y-83764381D02*
X99560000Y-83764381D01*
X99655239Y-83716762D01*
X99702858Y-83669143D01*
X99798096Y-83526286D01*
X99845715Y-83335810D01*
X99845715Y-82954857D01*
X99798096Y-82859619D01*
X99750477Y-82812000D01*
X99655239Y-82764381D01*
X99464762Y-82764381D01*
X99369524Y-82812000D01*
X99321905Y-82859619D01*
X99274286Y-82954857D01*
X99274286Y-83192952D01*
X99321905Y-83288190D01*
X99369524Y-83335810D01*
X99464762Y-83383429D01*
X99655239Y-83383429D01*
X99750477Y-83335810D01*
X99798096Y-83288190D01*
X99845715Y-83192952D01*
X97845714Y-88844381D02*
X97845714Y-87844381D01*
X98083809Y-87844381D01*
X98226667Y-87892000D01*
X98321905Y-87987238D01*
X98369524Y-88082476D01*
X98417143Y-88272952D01*
X98417143Y-88415810D01*
X98369524Y-88606286D01*
X98321905Y-88701524D01*
X98226667Y-88796762D01*
X98083809Y-88844381D01*
X97845714Y-88844381D01*
X99369524Y-88844381D02*
X98798095Y-88844381D01*
X99083809Y-88844381D02*
X99083809Y-87844381D01*
X98988571Y-87987238D01*
X98893333Y-88082476D01*
X98798095Y-88130095D01*
X99988571Y-87844381D02*
X100083810Y-87844381D01*
X100179048Y-87892000D01*
X100226667Y-87939619D01*
X100274286Y-88034857D01*
X100321905Y-88225333D01*
X100321905Y-88463429D01*
X100274286Y-88653905D01*
X100226667Y-88749143D01*
X100179048Y-88796762D01*
X100083810Y-88844381D01*
X99988571Y-88844381D01*
X99893333Y-88796762D01*
X99845714Y-88749143D01*
X99798095Y-88653905D01*
X99750476Y-88463429D01*
X99750476Y-88225333D01*
X99798095Y-88034857D01*
X99845714Y-87939619D01*
X99893333Y-87892000D01*
X99988571Y-87844381D01*
X97845714Y-86304381D02*
X97845714Y-85304381D01*
X98083809Y-85304381D01*
X98226667Y-85352000D01*
X98321905Y-85447238D01*
X98369524Y-85542476D01*
X98417143Y-85732952D01*
X98417143Y-85875810D01*
X98369524Y-86066286D01*
X98321905Y-86161524D01*
X98226667Y-86256762D01*
X98083809Y-86304381D01*
X97845714Y-86304381D01*
X99369524Y-86304381D02*
X98798095Y-86304381D01*
X99083809Y-86304381D02*
X99083809Y-85304381D01*
X98988571Y-85447238D01*
X98893333Y-85542476D01*
X98798095Y-85590095D01*
X100321905Y-86304381D02*
X99750476Y-86304381D01*
X100036190Y-86304381D02*
X100036190Y-85304381D01*
X99940952Y-85447238D01*
X99845714Y-85542476D01*
X99750476Y-85590095D01*
X102052381Y-124626666D02*
X101576190Y-124960000D01*
X102052381Y-125198095D02*
X101052381Y-125198095D01*
X101052381Y-124817142D01*
X101100000Y-124721904D01*
X101147619Y-124674285D01*
X101242857Y-124626666D01*
X101385714Y-124626666D01*
X101480952Y-124674285D01*
X101528571Y-124721904D01*
X101576190Y-124817142D01*
X101576190Y-125198095D01*
X102052381Y-123674285D02*
X102052381Y-124245714D01*
X102052381Y-123960000D02*
X101052381Y-123960000D01*
X101195238Y-124055238D01*
X101290476Y-124150476D01*
X101338095Y-124245714D01*
X113625334Y-99004381D02*
X113292000Y-98528190D01*
X113053905Y-99004381D02*
X113053905Y-98004381D01*
X113434858Y-98004381D01*
X113530096Y-98052000D01*
X113577715Y-98099619D01*
X113625334Y-98194857D01*
X113625334Y-98337714D01*
X113577715Y-98432952D01*
X113530096Y-98480571D01*
X113434858Y-98528190D01*
X113053905Y-98528190D01*
X114006286Y-98099619D02*
X114053905Y-98052000D01*
X114149143Y-98004381D01*
X114387239Y-98004381D01*
X114482477Y-98052000D01*
X114530096Y-98099619D01*
X114577715Y-98194857D01*
X114577715Y-98290095D01*
X114530096Y-98432952D01*
X113958667Y-99004381D01*
X114577715Y-99004381D01*
X125563334Y-110942381D02*
X125230000Y-110466190D01*
X124991905Y-110942381D02*
X124991905Y-109942381D01*
X125372858Y-109942381D01*
X125468096Y-109990000D01*
X125515715Y-110037619D01*
X125563334Y-110132857D01*
X125563334Y-110275714D01*
X125515715Y-110370952D01*
X125468096Y-110418571D01*
X125372858Y-110466190D01*
X124991905Y-110466190D01*
X126420477Y-110275714D02*
X126420477Y-110942381D01*
X126182381Y-109894762D02*
X125944286Y-110609048D01*
X126563334Y-110609048D01*
X90003334Y-108402381D02*
X89670000Y-107926190D01*
X89431905Y-108402381D02*
X89431905Y-107402381D01*
X89812858Y-107402381D01*
X89908096Y-107450000D01*
X89955715Y-107497619D01*
X90003334Y-107592857D01*
X90003334Y-107735714D01*
X89955715Y-107830952D01*
X89908096Y-107878571D01*
X89812858Y-107926190D01*
X89431905Y-107926190D01*
X90860477Y-107402381D02*
X90670000Y-107402381D01*
X90574762Y-107450000D01*
X90527143Y-107497619D01*
X90431905Y-107640476D01*
X90384286Y-107830952D01*
X90384286Y-108211905D01*
X90431905Y-108307143D01*
X90479524Y-108354762D01*
X90574762Y-108402381D01*
X90765239Y-108402381D01*
X90860477Y-108354762D01*
X90908096Y-108307143D01*
X90955715Y-108211905D01*
X90955715Y-107973810D01*
X90908096Y-107878571D01*
X90860477Y-107830952D01*
X90765239Y-107783333D01*
X90574762Y-107783333D01*
X90479524Y-107830952D01*
X90431905Y-107878571D01*
X90384286Y-107973810D01*
X99512381Y-125102857D02*
X99036190Y-125436191D01*
X99512381Y-125674286D02*
X98512381Y-125674286D01*
X98512381Y-125293333D01*
X98560000Y-125198095D01*
X98607619Y-125150476D01*
X98702857Y-125102857D01*
X98845714Y-125102857D01*
X98940952Y-125150476D01*
X98988571Y-125198095D01*
X99036190Y-125293333D01*
X99036190Y-125674286D01*
X98607619Y-124721905D02*
X98560000Y-124674286D01*
X98512381Y-124579048D01*
X98512381Y-124340952D01*
X98560000Y-124245714D01*
X98607619Y-124198095D01*
X98702857Y-124150476D01*
X98798095Y-124150476D01*
X98940952Y-124198095D01*
X99512381Y-124769524D01*
X99512381Y-124150476D01*
X98512381Y-123531429D02*
X98512381Y-123436190D01*
X98560000Y-123340952D01*
X98607619Y-123293333D01*
X98702857Y-123245714D01*
X98893333Y-123198095D01*
X99131429Y-123198095D01*
X99321905Y-123245714D01*
X99417143Y-123293333D01*
X99464762Y-123340952D01*
X99512381Y-123436190D01*
X99512381Y-123531429D01*
X99464762Y-123626667D01*
X99417143Y-123674286D01*
X99321905Y-123721905D01*
X99131429Y-123769524D01*
X98893333Y-123769524D01*
X98702857Y-123721905D01*
X98607619Y-123674286D01*
X98560000Y-123626667D01*
X98512381Y-123531429D01*
X113657143Y-96464381D02*
X113323809Y-95988190D01*
X113085714Y-96464381D02*
X113085714Y-95464381D01*
X113466667Y-95464381D01*
X113561905Y-95512000D01*
X113609524Y-95559619D01*
X113657143Y-95654857D01*
X113657143Y-95797714D01*
X113609524Y-95892952D01*
X113561905Y-95940571D01*
X113466667Y-95988190D01*
X113085714Y-95988190D01*
X114038095Y-95559619D02*
X114085714Y-95512000D01*
X114180952Y-95464381D01*
X114419048Y-95464381D01*
X114514286Y-95512000D01*
X114561905Y-95559619D01*
X114609524Y-95654857D01*
X114609524Y-95750095D01*
X114561905Y-95892952D01*
X113990476Y-96464381D01*
X114609524Y-96464381D01*
X115561905Y-96464381D02*
X114990476Y-96464381D01*
X115276190Y-96464381D02*
X115276190Y-95464381D01*
X115180952Y-95607238D01*
X115085714Y-95702476D01*
X114990476Y-95750095D01*
X113657143Y-93924381D02*
X113323809Y-93448190D01*
X113085714Y-93924381D02*
X113085714Y-92924381D01*
X113466667Y-92924381D01*
X113561905Y-92972000D01*
X113609524Y-93019619D01*
X113657143Y-93114857D01*
X113657143Y-93257714D01*
X113609524Y-93352952D01*
X113561905Y-93400571D01*
X113466667Y-93448190D01*
X113085714Y-93448190D01*
X114038095Y-93019619D02*
X114085714Y-92972000D01*
X114180952Y-92924381D01*
X114419048Y-92924381D01*
X114514286Y-92972000D01*
X114561905Y-93019619D01*
X114609524Y-93114857D01*
X114609524Y-93210095D01*
X114561905Y-93352952D01*
X113990476Y-93924381D01*
X114609524Y-93924381D01*
X114990476Y-93019619D02*
X115038095Y-92972000D01*
X115133333Y-92924381D01*
X115371429Y-92924381D01*
X115466667Y-92972000D01*
X115514286Y-93019619D01*
X115561905Y-93114857D01*
X115561905Y-93210095D01*
X115514286Y-93352952D01*
X114942857Y-93924381D01*
X115561905Y-93924381D01*
X113657143Y-91384381D02*
X113323809Y-90908190D01*
X113085714Y-91384381D02*
X113085714Y-90384381D01*
X113466667Y-90384381D01*
X113561905Y-90432000D01*
X113609524Y-90479619D01*
X113657143Y-90574857D01*
X113657143Y-90717714D01*
X113609524Y-90812952D01*
X113561905Y-90860571D01*
X113466667Y-90908190D01*
X113085714Y-90908190D01*
X114038095Y-90479619D02*
X114085714Y-90432000D01*
X114180952Y-90384381D01*
X114419048Y-90384381D01*
X114514286Y-90432000D01*
X114561905Y-90479619D01*
X114609524Y-90574857D01*
X114609524Y-90670095D01*
X114561905Y-90812952D01*
X113990476Y-91384381D01*
X114609524Y-91384381D01*
X114942857Y-90384381D02*
X115561905Y-90384381D01*
X115228571Y-90765333D01*
X115371429Y-90765333D01*
X115466667Y-90812952D01*
X115514286Y-90860571D01*
X115561905Y-90955810D01*
X115561905Y-91193905D01*
X115514286Y-91289143D01*
X115466667Y-91336762D01*
X115371429Y-91384381D01*
X115085714Y-91384381D01*
X114990476Y-91336762D01*
X114942857Y-91289143D01*
X113657143Y-83764381D02*
X113323809Y-83288190D01*
X113085714Y-83764381D02*
X113085714Y-82764381D01*
X113466667Y-82764381D01*
X113561905Y-82812000D01*
X113609524Y-82859619D01*
X113657143Y-82954857D01*
X113657143Y-83097714D01*
X113609524Y-83192952D01*
X113561905Y-83240571D01*
X113466667Y-83288190D01*
X113085714Y-83288190D01*
X114038095Y-82859619D02*
X114085714Y-82812000D01*
X114180952Y-82764381D01*
X114419048Y-82764381D01*
X114514286Y-82812000D01*
X114561905Y-82859619D01*
X114609524Y-82954857D01*
X114609524Y-83050095D01*
X114561905Y-83192952D01*
X113990476Y-83764381D01*
X114609524Y-83764381D01*
X115466667Y-83097714D02*
X115466667Y-83764381D01*
X115228571Y-82716762D02*
X114990476Y-83431048D01*
X115609524Y-83431048D01*
X113657143Y-88844381D02*
X113323809Y-88368190D01*
X113085714Y-88844381D02*
X113085714Y-87844381D01*
X113466667Y-87844381D01*
X113561905Y-87892000D01*
X113609524Y-87939619D01*
X113657143Y-88034857D01*
X113657143Y-88177714D01*
X113609524Y-88272952D01*
X113561905Y-88320571D01*
X113466667Y-88368190D01*
X113085714Y-88368190D01*
X114038095Y-87939619D02*
X114085714Y-87892000D01*
X114180952Y-87844381D01*
X114419048Y-87844381D01*
X114514286Y-87892000D01*
X114561905Y-87939619D01*
X114609524Y-88034857D01*
X114609524Y-88130095D01*
X114561905Y-88272952D01*
X113990476Y-88844381D01*
X114609524Y-88844381D01*
X115514286Y-87844381D02*
X115038095Y-87844381D01*
X114990476Y-88320571D01*
X115038095Y-88272952D01*
X115133333Y-88225333D01*
X115371429Y-88225333D01*
X115466667Y-88272952D01*
X115514286Y-88320571D01*
X115561905Y-88415810D01*
X115561905Y-88653905D01*
X115514286Y-88749143D01*
X115466667Y-88796762D01*
X115371429Y-88844381D01*
X115133333Y-88844381D01*
X115038095Y-88796762D01*
X114990476Y-88749143D01*
X113657143Y-86304381D02*
X113323809Y-85828190D01*
X113085714Y-86304381D02*
X113085714Y-85304381D01*
X113466667Y-85304381D01*
X113561905Y-85352000D01*
X113609524Y-85399619D01*
X113657143Y-85494857D01*
X113657143Y-85637714D01*
X113609524Y-85732952D01*
X113561905Y-85780571D01*
X113466667Y-85828190D01*
X113085714Y-85828190D01*
X114038095Y-85399619D02*
X114085714Y-85352000D01*
X114180952Y-85304381D01*
X114419048Y-85304381D01*
X114514286Y-85352000D01*
X114561905Y-85399619D01*
X114609524Y-85494857D01*
X114609524Y-85590095D01*
X114561905Y-85732952D01*
X113990476Y-86304381D01*
X114609524Y-86304381D01*
X115466667Y-85304381D02*
X115276190Y-85304381D01*
X115180952Y-85352000D01*
X115133333Y-85399619D01*
X115038095Y-85542476D01*
X114990476Y-85732952D01*
X114990476Y-86113905D01*
X115038095Y-86209143D01*
X115085714Y-86256762D01*
X115180952Y-86304381D01*
X115371429Y-86304381D01*
X115466667Y-86256762D01*
X115514286Y-86209143D01*
X115561905Y-86113905D01*
X115561905Y-85875810D01*
X115514286Y-85780571D01*
X115466667Y-85732952D01*
X115371429Y-85685333D01*
X115180952Y-85685333D01*
X115085714Y-85732952D01*
X115038095Y-85780571D01*
X114990476Y-85875810D01*
X77081143Y-90368381D02*
X76747809Y-89892190D01*
X76509714Y-90368381D02*
X76509714Y-89368381D01*
X76890667Y-89368381D01*
X76985905Y-89416000D01*
X77033524Y-89463619D01*
X77081143Y-89558857D01*
X77081143Y-89701714D01*
X77033524Y-89796952D01*
X76985905Y-89844571D01*
X76890667Y-89892190D01*
X76509714Y-89892190D01*
X77462095Y-89463619D02*
X77509714Y-89416000D01*
X77604952Y-89368381D01*
X77843048Y-89368381D01*
X77938286Y-89416000D01*
X77985905Y-89463619D01*
X78033524Y-89558857D01*
X78033524Y-89654095D01*
X77985905Y-89796952D01*
X77414476Y-90368381D01*
X78033524Y-90368381D01*
X78366857Y-89368381D02*
X79033524Y-89368381D01*
X78604952Y-90368381D01*
X77081143Y-92908381D02*
X76747809Y-92432190D01*
X76509714Y-92908381D02*
X76509714Y-91908381D01*
X76890667Y-91908381D01*
X76985905Y-91956000D01*
X77033524Y-92003619D01*
X77081143Y-92098857D01*
X77081143Y-92241714D01*
X77033524Y-92336952D01*
X76985905Y-92384571D01*
X76890667Y-92432190D01*
X76509714Y-92432190D01*
X77462095Y-92003619D02*
X77509714Y-91956000D01*
X77604952Y-91908381D01*
X77843048Y-91908381D01*
X77938286Y-91956000D01*
X77985905Y-92003619D01*
X78033524Y-92098857D01*
X78033524Y-92194095D01*
X77985905Y-92336952D01*
X77414476Y-92908381D01*
X78033524Y-92908381D01*
X78604952Y-92336952D02*
X78509714Y-92289333D01*
X78462095Y-92241714D01*
X78414476Y-92146476D01*
X78414476Y-92098857D01*
X78462095Y-92003619D01*
X78509714Y-91956000D01*
X78604952Y-91908381D01*
X78795429Y-91908381D01*
X78890667Y-91956000D01*
X78938286Y-92003619D01*
X78985905Y-92098857D01*
X78985905Y-92146476D01*
X78938286Y-92241714D01*
X78890667Y-92289333D01*
X78795429Y-92336952D01*
X78604952Y-92336952D01*
X78509714Y-92384571D01*
X78462095Y-92432190D01*
X78414476Y-92527429D01*
X78414476Y-92717905D01*
X78462095Y-92813143D01*
X78509714Y-92860762D01*
X78604952Y-92908381D01*
X78795429Y-92908381D01*
X78890667Y-92860762D01*
X78938286Y-92813143D01*
X78985905Y-92717905D01*
X78985905Y-92527429D01*
X78938286Y-92432190D01*
X78890667Y-92384571D01*
X78795429Y-92336952D01*
X111972381Y-132722857D02*
X111496190Y-133056191D01*
X111972381Y-133294286D02*
X110972381Y-133294286D01*
X110972381Y-132913333D01*
X111020000Y-132818095D01*
X111067619Y-132770476D01*
X111162857Y-132722857D01*
X111305714Y-132722857D01*
X111400952Y-132770476D01*
X111448571Y-132818095D01*
X111496190Y-132913333D01*
X111496190Y-133294286D01*
X111067619Y-132341905D02*
X111020000Y-132294286D01*
X110972381Y-132199048D01*
X110972381Y-131960952D01*
X111020000Y-131865714D01*
X111067619Y-131818095D01*
X111162857Y-131770476D01*
X111258095Y-131770476D01*
X111400952Y-131818095D01*
X111972381Y-132389524D01*
X111972381Y-131770476D01*
X111972381Y-131294286D02*
X111972381Y-131103810D01*
X111924762Y-131008571D01*
X111877143Y-130960952D01*
X111734286Y-130865714D01*
X111543810Y-130818095D01*
X111162857Y-130818095D01*
X111067619Y-130865714D01*
X111020000Y-130913333D01*
X110972381Y-131008571D01*
X110972381Y-131199048D01*
X111020000Y-131294286D01*
X111067619Y-131341905D01*
X111162857Y-131389524D01*
X111400952Y-131389524D01*
X111496190Y-131341905D01*
X111543810Y-131294286D01*
X111591429Y-131199048D01*
X111591429Y-131008571D01*
X111543810Y-130913333D01*
X111496190Y-130865714D01*
X111400952Y-130818095D01*
X118322381Y-132722857D02*
X117846190Y-133056191D01*
X118322381Y-133294286D02*
X117322381Y-133294286D01*
X117322381Y-132913333D01*
X117370000Y-132818095D01*
X117417619Y-132770476D01*
X117512857Y-132722857D01*
X117655714Y-132722857D01*
X117750952Y-132770476D01*
X117798571Y-132818095D01*
X117846190Y-132913333D01*
X117846190Y-133294286D01*
X117322381Y-132389524D02*
X117322381Y-131770476D01*
X117703333Y-132103810D01*
X117703333Y-131960952D01*
X117750952Y-131865714D01*
X117798571Y-131818095D01*
X117893810Y-131770476D01*
X118131905Y-131770476D01*
X118227143Y-131818095D01*
X118274762Y-131865714D01*
X118322381Y-131960952D01*
X118322381Y-132246667D01*
X118274762Y-132341905D01*
X118227143Y-132389524D01*
X117322381Y-131151429D02*
X117322381Y-131056190D01*
X117370000Y-130960952D01*
X117417619Y-130913333D01*
X117512857Y-130865714D01*
X117703333Y-130818095D01*
X117941429Y-130818095D01*
X118131905Y-130865714D01*
X118227143Y-130913333D01*
X118274762Y-130960952D01*
X118322381Y-131056190D01*
X118322381Y-131151429D01*
X118274762Y-131246667D01*
X118227143Y-131294286D01*
X118131905Y-131341905D01*
X117941429Y-131389524D01*
X117703333Y-131389524D01*
X117512857Y-131341905D01*
X117417619Y-131294286D01*
X117370000Y-131246667D01*
X117322381Y-131151429D01*
X86844190Y-114649191D02*
X87320381Y-114649191D01*
X86320381Y-114982524D02*
X86844190Y-114649191D01*
X86320381Y-114315857D01*
X86415619Y-114030143D02*
X86368000Y-113982524D01*
X86320381Y-113887286D01*
X86320381Y-113649190D01*
X86368000Y-113553952D01*
X86415619Y-113506333D01*
X86510857Y-113458714D01*
X86606095Y-113458714D01*
X86748952Y-113506333D01*
X87320381Y-114077762D01*
X87320381Y-113458714D01*
X118213143Y-100210857D02*
X118260762Y-100258476D01*
X118308381Y-100401333D01*
X118308381Y-100496571D01*
X118260762Y-100639429D01*
X118165524Y-100734667D01*
X118070286Y-100782286D01*
X117879810Y-100829905D01*
X117736952Y-100829905D01*
X117546476Y-100782286D01*
X117451238Y-100734667D01*
X117356000Y-100639429D01*
X117308381Y-100496571D01*
X117308381Y-100401333D01*
X117356000Y-100258476D01*
X117403619Y-100210857D01*
X117308381Y-99877524D02*
X117308381Y-99258476D01*
X117689333Y-99591810D01*
X117689333Y-99448952D01*
X117736952Y-99353714D01*
X117784571Y-99306095D01*
X117879810Y-99258476D01*
X118117905Y-99258476D01*
X118213143Y-99306095D01*
X118260762Y-99353714D01*
X118308381Y-99448952D01*
X118308381Y-99734667D01*
X118260762Y-99829905D01*
X118213143Y-99877524D01*
X117641714Y-98401333D02*
X118308381Y-98401333D01*
X117260762Y-98639429D02*
X117975048Y-98877524D01*
X117975048Y-98258476D01*
X119418286Y-91788857D02*
X119418286Y-92760286D01*
X119475429Y-92874571D01*
X119532572Y-92931714D01*
X119646858Y-92988857D01*
X119875429Y-92988857D01*
X119989715Y-92931714D01*
X120046858Y-92874571D01*
X120104001Y-92760286D01*
X120104001Y-91788857D01*
X121304001Y-92988857D02*
X120618286Y-92988857D01*
X120961144Y-92988857D02*
X120961144Y-91788857D01*
X120846858Y-91960286D01*
X120732572Y-92074571D01*
X120618286Y-92131714D01*
X122446858Y-92988857D02*
X121761143Y-92988857D01*
X122104001Y-92988857D02*
X122104001Y-91788857D01*
X121989715Y-91960286D01*
X121875429Y-92074571D01*
X121761143Y-92131714D01*
X47442381Y-117832095D02*
X46442381Y-117832095D01*
X46442381Y-117594000D01*
X46490000Y-117451142D01*
X46585238Y-117355904D01*
X46680476Y-117308285D01*
X46870952Y-117260666D01*
X47013810Y-117260666D01*
X47204286Y-117308285D01*
X47299524Y-117355904D01*
X47394762Y-117451142D01*
X47442381Y-117594000D01*
X47442381Y-117832095D01*
X46442381Y-116355904D02*
X46442381Y-116832095D01*
X46918571Y-116879714D01*
X46870952Y-116832095D01*
X46823333Y-116736857D01*
X46823333Y-116498761D01*
X46870952Y-116403523D01*
X46918571Y-116355904D01*
X47013810Y-116308285D01*
X47251905Y-116308285D01*
X47347143Y-116355904D01*
X47394762Y-116403523D01*
X47442381Y-116498761D01*
X47442381Y-116736857D01*
X47394762Y-116832095D01*
X47347143Y-116879714D01*
X52774381Y-118319905D02*
X51774381Y-118319905D01*
X52774381Y-117748476D02*
X52202952Y-118177048D01*
X51774381Y-117748476D02*
X52345810Y-118319905D01*
X52388667Y-112046095D02*
X52388667Y-111569904D01*
X52674381Y-112141333D02*
X51674381Y-111808000D01*
X52674381Y-111474666D01*
X62811905Y-118002381D02*
X62811905Y-117002381D01*
X63050000Y-117002381D01*
X63192858Y-117050000D01*
X63288096Y-117145238D01*
X63335715Y-117240476D01*
X63383334Y-117430952D01*
X63383334Y-117573810D01*
X63335715Y-117764286D01*
X63288096Y-117859524D01*
X63192858Y-117954762D01*
X63050000Y-118002381D01*
X62811905Y-118002381D01*
X63716667Y-117002381D02*
X64335715Y-117002381D01*
X64002381Y-117383333D01*
X64145239Y-117383333D01*
X64240477Y-117430952D01*
X64288096Y-117478571D01*
X64335715Y-117573810D01*
X64335715Y-117811905D01*
X64288096Y-117907143D01*
X64240477Y-117954762D01*
X64145239Y-118002381D01*
X63859524Y-118002381D01*
X63764286Y-117954762D01*
X63716667Y-117907143D01*
X59988095Y-124402381D02*
X59988095Y-123402381D01*
X60559524Y-124402381D02*
X60130952Y-123830952D01*
X60559524Y-123402381D02*
X59988095Y-123973810D01*
X66261905Y-124016667D02*
X66738096Y-124016667D01*
X66166667Y-124302381D02*
X66500000Y-123302381D01*
X66833334Y-124302381D01*
X62539715Y-99356183D02*
X62492096Y-99403802D01*
X62349239Y-99451421D01*
X62254001Y-99451421D01*
X62111143Y-99403802D01*
X62015905Y-99308564D01*
X61968286Y-99213326D01*
X61920667Y-99022850D01*
X61920667Y-98879992D01*
X61968286Y-98689516D01*
X62015905Y-98594278D01*
X62111143Y-98499040D01*
X62254001Y-98451421D01*
X62349239Y-98451421D01*
X62492096Y-98499040D01*
X62539715Y-98546659D01*
X63158762Y-98451421D02*
X63349239Y-98451421D01*
X63444477Y-98499040D01*
X63539715Y-98594278D01*
X63587334Y-98784754D01*
X63587334Y-99118088D01*
X63539715Y-99308564D01*
X63444477Y-99403802D01*
X63349239Y-99451421D01*
X63158762Y-99451421D01*
X63063524Y-99403802D01*
X62968286Y-99308564D01*
X62920667Y-99118088D01*
X62920667Y-98784754D01*
X62968286Y-98594278D01*
X63063524Y-98499040D01*
X63158762Y-98451421D01*
X64015905Y-99451421D02*
X64015905Y-98451421D01*
X64587334Y-99451421D01*
X64587334Y-98451421D01*
X65587334Y-99451421D02*
X65015905Y-99451421D01*
X65301619Y-99451421D02*
X65301619Y-98451421D01*
X65206381Y-98594278D01*
X65111143Y-98689516D01*
X65015905Y-98737135D01*
M02*
