G04 #@! TF.FileFunction,Soldermask,Bot*
%FSLAX46Y46*%
G04 Gerber Fmt 4.6, Leading zero omitted, Abs format (unit mm)*
G04 Created by KiCad (PCBNEW 4.0.2-stable) date 5/28/2016 11:57:46 PM*
%MOMM*%
G01*
G04 APERTURE LIST*
%ADD10C,0.127000*%
%ADD11O,1.998980X2.999740*%
%ADD12O,2.999740X1.998980*%
%ADD13R,2.000000X2.000000*%
%ADD14C,2.000000*%
%ADD15O,1.524000X2.032000*%
%ADD16R,2.032000X1.727200*%
%ADD17O,2.032000X1.727200*%
%ADD18R,1.727200X1.727200*%
%ADD19O,1.727200X1.727200*%
%ADD20C,1.500000*%
%ADD21C,1.778000*%
%ADD22C,3.250000*%
%ADD23C,1.200000*%
%ADD24C,1.300000*%
%ADD25R,1.600000X2.000000*%
%ADD26R,1.800860X1.597660*%
%ADD27R,1.700000X2.000000*%
%ADD28R,0.300000X0.800000*%
%ADD29R,0.800000X0.300000*%
%ADD30O,4.572000X4.572000*%
%ADD31O,4.064000X4.064000*%
%ADD32O,3.500120X3.500120*%
G04 APERTURE END LIST*
D10*
D11*
X49530000Y-153670000D03*
D12*
X46990000Y-156210000D03*
X52070000Y-156210000D03*
D13*
X70612000Y-162814000D03*
D14*
X73152000Y-162814000D03*
D15*
X134099300Y-153670000D03*
X107200700Y-154940000D03*
X134099300Y-156210000D03*
D16*
X118110000Y-128270000D03*
D17*
X118110000Y-130810000D03*
X118110000Y-133350000D03*
X118110000Y-135890000D03*
D16*
X105410000Y-128270000D03*
D17*
X105410000Y-130810000D03*
X105410000Y-133350000D03*
X105410000Y-135890000D03*
D16*
X111760000Y-128270000D03*
D17*
X111760000Y-130810000D03*
X111760000Y-133350000D03*
X111760000Y-135890000D03*
D18*
X85090000Y-153670000D03*
D19*
X82550000Y-153670000D03*
X85090000Y-156210000D03*
X82550000Y-156210000D03*
X85090000Y-158750000D03*
X82550000Y-158750000D03*
X85090000Y-161290000D03*
X82550000Y-161290000D03*
X85090000Y-163830000D03*
X82550000Y-163830000D03*
X85090000Y-166370000D03*
X82550000Y-166370000D03*
X85090000Y-168910000D03*
X82550000Y-168910000D03*
D20*
X49530000Y-147310000D03*
X49530000Y-139710000D03*
D21*
X64920000Y-137460000D03*
X64920000Y-142540000D03*
D16*
X102362000Y-156464000D03*
D17*
X102362000Y-159004000D03*
X102362000Y-161544000D03*
X102362000Y-164084000D03*
X102362000Y-166624000D03*
X102362000Y-169164000D03*
D16*
X57785000Y-158750000D03*
D17*
X57785000Y-161290000D03*
X57785000Y-163830000D03*
X57785000Y-166370000D03*
X57785000Y-168910000D03*
D22*
X80645000Y-92710000D03*
X92075000Y-92710000D03*
D14*
X94105000Y-95760000D03*
X78615000Y-95760000D03*
D23*
X86995000Y-101600000D03*
X84455000Y-101600000D03*
X81915000Y-101600000D03*
X89535000Y-101600000D03*
X90805000Y-99060000D03*
X88265000Y-99060000D03*
X85725000Y-99060000D03*
X83185000Y-99060000D03*
D24*
X79735000Y-87810000D03*
X82275000Y-87810000D03*
X92985000Y-87810000D03*
X90445000Y-87810000D03*
D18*
X93980000Y-168910000D03*
D19*
X91440000Y-168910000D03*
X93980000Y-166370000D03*
X91440000Y-166370000D03*
X93980000Y-163830000D03*
X91440000Y-163830000D03*
D21*
X85090000Y-111760000D03*
X85090000Y-116840000D03*
D25*
X117856000Y-90392000D03*
X117856000Y-86392000D03*
X122428000Y-85820000D03*
X122428000Y-81820000D03*
D26*
X124460000Y-87988140D03*
X124460000Y-90827860D03*
D27*
X124460000Y-85820000D03*
X124460000Y-81820000D03*
D28*
X121412000Y-90608000D03*
D29*
X120462000Y-90408000D03*
X122362000Y-90408000D03*
X120462000Y-89908000D03*
X122362000Y-89908000D03*
X120462000Y-89408000D03*
X122362000Y-89408000D03*
X120462000Y-88908000D03*
X122362000Y-88908000D03*
D28*
X121412000Y-88708000D03*
D30*
X63754000Y-95504000D03*
D31*
X63754000Y-88900000D03*
D32*
X59309000Y-92710000D03*
M02*
