M48
;DRILL file {KiCad 4.0.2-stable} date 5/28/2016 11:57:49 PM
;FORMAT={-:-/ absolute / inch / decimal}
FMAT,2
INCH,TZ
T1C0.013
T2C0.028
T3C0.032
T4C0.035
T5C0.039
T6C0.039
T7C0.040
T8C0.041
T9C0.065
T10C0.080
T11C0.100
T12C0.128
%
G90
G05
M72
T1
X1.86Y-4.93
X1.98Y-3.97
X2.04Y-4.16
X2.09Y-4.21
X2.09Y-4.87
X2.31Y-5.22
X2.36Y-5.95
X2.43Y-4.6
X2.44Y-4.16
X2.49Y-5.29
X2.49Y-5.74
X2.53Y-6.65
X2.59Y-4.9
X2.67Y-6.45
X2.71Y-4.75
X2.84Y-4.79
X2.97Y-6.15
X2.98Y-4.93
X2.98Y-5.69
X3.Y-3.44
X3.05Y-5.05
X3.05Y-5.11
X3.11Y-5.8
X3.14Y-4.44
X3.14Y-4.52
X3.14Y-5.49
X3.18Y-4.86
X3.22Y-5.2
X3.24Y-5.08
X3.24Y-5.16
X3.3Y-5.02
X3.33Y-5.35
X3.36Y-5.87
X3.38Y-5.04
X3.38Y-5.08
X3.49Y-5.51
X3.49Y-5.95
X3.58Y-5.43
X3.59Y-5.95
X3.6Y-4.2
X3.6Y-4.3
X3.65Y-5.45
X3.68Y-5.21
X3.69Y-5.72
X3.7Y-6.2
X3.74Y-6.
X3.75Y-4.3
X3.81Y-5.12
X3.81Y-5.49
X3.82Y-5.03
X3.83Y-3.78
X3.83Y-3.84
X3.84Y-4.62
X3.9Y-4.26
X3.94Y-5.2
X3.94Y-6.18
X3.96Y-4.2
X3.96Y-4.38
X4.Y-4.06
X4.03Y-5.82
X4.03Y-6.05
X4.1Y-4.85
X4.14Y-4.54
X4.15Y-5.25
X4.2Y-4.36
X4.2Y-4.4
X4.2Y-4.7
X4.2Y-4.85
X4.22Y-4.54
X4.23Y-4.38
X4.26Y-4.36
X4.29Y-4.54
X4.3Y-4.85
X4.34Y-4.43
X4.37Y-4.06
X4.37Y-4.28
X4.4Y-4.85
X4.41Y-4.18
X4.41Y-4.24
X4.5Y-4.85
X4.54Y-4.28
X4.56Y-4.33
X4.58Y-3.62
X4.58Y-3.82
X4.6Y-4.03
X4.6Y-4.85
X4.66Y-3.74
X4.7Y-3.61
X4.7Y-3.82
X4.7Y-4.85
X4.76Y-4.55
X4.78Y-3.64
X4.78Y-4.67
X4.86Y-3.52
X4.86Y-5.31
X4.9Y-3.82
X4.9Y-4.15
X4.9Y-4.25
X4.94Y-4.46
X4.97Y-3.74
X5.Y-3.64
X5.01Y-4.12
X5.04Y-3.3
X5.04Y-3.44
X5.04Y-4.92
X5.04Y-4.96
X5.04Y-5.22
X5.04Y-5.26
X5.04Y-5.32
X5.04Y-5.36
X5.07Y-4.13
X5.07Y-4.29
X5.09Y-4.23
X5.1Y-3.58
X5.1Y-4.82
X5.1Y-5.23
X5.1Y-5.43
X5.12Y-4.86
X5.16Y-4.54
X5.1628Y-4.9
X5.26Y-4.98
X5.26Y-5.18
X5.26Y-5.24
X5.26Y-5.28
X5.26Y-5.34
X5.26Y-5.38
X5.28Y-3.98
X5.28Y-4.34
X5.28Y-4.38
X5.32Y-4.4
X5.36Y-4.02
X5.44Y-4.54
T2
X1.95Y-5.5004
X1.95Y-5.7996
T3
X2.5559Y-5.4118
X2.5559Y-5.6118
X3.35Y-4.4
X3.35Y-4.6
T4
X3.225Y-4.
X3.275Y-3.9
X3.325Y-4.
X3.375Y-3.9
X3.425Y-4.
X3.475Y-3.9
X3.525Y-4.
X3.575Y-3.9
T5
X1.85Y-6.15
X1.95Y-6.05
X2.05Y-6.15
T6
X2.78Y-6.41
X2.88Y-6.41
T7
X2.275Y-6.25
X2.275Y-6.35
X2.275Y-6.45
X2.275Y-6.55
X2.275Y-6.65
X3.25Y-6.05
X3.25Y-6.15
X3.25Y-6.25
X3.25Y-6.35
X3.25Y-6.45
X3.25Y-6.55
X3.25Y-6.65
X3.35Y-6.05
X3.35Y-6.15
X3.35Y-6.25
X3.35Y-6.35
X3.35Y-6.45
X3.35Y-6.55
X3.35Y-6.65
X3.6Y-6.45
X3.6Y-6.55
X3.6Y-6.65
X3.7Y-6.45
X3.7Y-6.55
X3.7Y-6.65
X4.03Y-6.16
X4.03Y-6.26
X4.03Y-6.36
X4.03Y-6.46
X4.03Y-6.56
X4.03Y-6.66
X4.15Y-5.05
X4.15Y-5.15
X4.15Y-5.25
X4.15Y-5.35
X4.2205Y-6.1
X4.4Y-5.05
X4.4Y-5.15
X4.4Y-5.25
X4.4Y-5.35
X4.65Y-5.05
X4.65Y-5.15
X4.65Y-5.25
X4.65Y-5.35
X5.2795Y-6.05
X5.2795Y-6.15
T8
X3.1392Y-3.4571
X3.2392Y-3.4571
X3.5608Y-3.4571
X3.6608Y-3.4571
T9
X3.0951Y-3.7701
X3.7049Y-3.7701
T10
X2.335Y-3.65
T11
X2.51Y-3.5
X2.51Y-3.76
T12
X3.175Y-3.65
X3.625Y-3.65
T0
M30
