%TF.GenerationSoftware,KiCad,Pcbnew,4.0.2-stable*%
%TF.CreationDate,2016-05-01T09:37:51-04:00*%
%TF.ProjectId,RGB-Controller,5247422D436F6E74726F6C6C65722E6B,rev?*%
%TF.FileFunction,Soldermask,Top*%
%FSLAX46Y46*%
G04 Gerber Fmt 4.6, Leading zero omitted, Abs format (unit mm)*
G04 Created by KiCad (PCBNEW 4.0.2-stable) date 5/1/2016 9:37:51 AM*
%MOMM*%
G01*
G04 APERTURE LIST*
%ADD10C,0.127000*%
%ADD11R,1.700000X2.100000*%
%ADD12R,2.401240X2.599360*%
%ADD13O,1.624000X2.132000*%
%ADD14R,2.100000X1.700000*%
%ADD15C,4.164000*%
%ADD16R,2.300000X6.400000*%
%ADD17R,1.827200X2.132000*%
%ADD18O,1.827200X2.132000*%
%ADD19R,2.100000X1.800000*%
%ADD20R,1.800000X2.100000*%
%ADD21R,0.750000X1.160000*%
%ADD22R,1.850000X0.750000*%
%ADD23O,1.573200X0.709600*%
%ADD24R,2.599360X2.401240*%
%ADD25O,4.672000X4.672000*%
%ADD26O,4.164000X4.164000*%
%ADD27O,3.600120X3.600120*%
%ADD28R,1.400000X1.400000*%
%ADD29C,1.400000*%
G04 APERTURE END LIST*
D10*
D11*
X139700000Y-87535000D03*
X139700000Y-91535000D03*
D12*
X139700000Y-94371160D03*
X139700000Y-98668840D03*
D13*
X147320000Y-102870000D03*
X147320000Y-80010000D03*
X144780000Y-102870000D03*
X144780000Y-80010000D03*
X142240000Y-102870000D03*
X142240000Y-80010000D03*
X139700000Y-102870000D03*
X139700000Y-80010000D03*
X137160000Y-102870000D03*
X137160000Y-80010000D03*
X134620000Y-102870000D03*
X134620000Y-80010000D03*
X132080000Y-102870000D03*
X132080000Y-80010000D03*
X129540000Y-102870000D03*
X129540000Y-80010000D03*
D14*
X138970000Y-82550000D03*
X142970000Y-82550000D03*
D15*
X151130000Y-91440000D03*
D11*
X135890000Y-91980000D03*
X135890000Y-95980000D03*
D16*
X142730000Y-93345000D03*
X146830000Y-93345000D03*
D17*
X113030000Y-78740000D03*
D18*
X110490000Y-78740000D03*
X107950000Y-78740000D03*
X105410000Y-78740000D03*
D17*
X113030000Y-83820000D03*
D18*
X110490000Y-83820000D03*
X107950000Y-83820000D03*
X105410000Y-83820000D03*
D17*
X113030000Y-88900000D03*
D18*
X110490000Y-88900000D03*
X107950000Y-88900000D03*
X105410000Y-88900000D03*
D19*
X139160000Y-84455000D03*
X135160000Y-84455000D03*
D20*
X132715000Y-88360000D03*
X132715000Y-84360000D03*
X132715000Y-94710000D03*
X132715000Y-90710000D03*
D21*
X136840000Y-87800000D03*
X135890000Y-87800000D03*
X134940000Y-87800000D03*
X134940000Y-90000000D03*
X136840000Y-90000000D03*
X135890000Y-90000000D03*
D22*
X120390000Y-100965000D03*
X125990000Y-100965000D03*
X120390000Y-99695000D03*
X125990000Y-99695000D03*
X120390000Y-98425000D03*
X125990000Y-98425000D03*
X120390000Y-97155000D03*
X125990000Y-97155000D03*
X120390000Y-81915000D03*
X125990000Y-81915000D03*
X120390000Y-80645000D03*
X125990000Y-80645000D03*
X120390000Y-79375000D03*
X125990000Y-79375000D03*
X120390000Y-78105000D03*
X125990000Y-78105000D03*
D23*
X123444000Y-94107000D03*
X123444000Y-92837000D03*
X123444000Y-91567000D03*
X123444000Y-90297000D03*
X117856000Y-90297000D03*
X117856000Y-91567000D03*
X117856000Y-92837000D03*
X117856000Y-94107000D03*
X123444000Y-88519000D03*
X123444000Y-87249000D03*
X123444000Y-85979000D03*
X123444000Y-84709000D03*
X117856000Y-84709000D03*
X117856000Y-85979000D03*
X117856000Y-87249000D03*
X117856000Y-88519000D03*
D15*
X100330000Y-91440000D03*
D24*
X142631160Y-87630000D03*
X146928840Y-87630000D03*
D11*
X116205000Y-97695000D03*
X116205000Y-101695000D03*
X118110000Y-78010000D03*
X118110000Y-82010000D03*
X116205000Y-78010000D03*
X116205000Y-82010000D03*
X118110000Y-97695000D03*
X118110000Y-101695000D03*
D25*
X112014000Y-99060000D03*
D26*
X105410000Y-99060000D03*
D27*
X109220000Y-103505000D03*
D28*
X100965000Y-78105000D03*
D29*
X100965000Y-80605000D03*
D28*
X100965000Y-86995000D03*
D29*
X100965000Y-84495000D03*
M02*
