G04 #@! TF.FileFunction,Copper,L2,Bot,Signal*
%FSLAX46Y46*%
G04 Gerber Fmt 4.6, Leading zero omitted, Abs format (unit mm)*
G04 Created by KiCad (PCBNEW 4.0.2-stable) date 5/4/2016 5:53:34 PM*
%MOMM*%
G01*
G04 APERTURE LIST*
%ADD10C,0.127000*%
%ADD11O,2.999740X1.998980*%
%ADD12O,1.998980X2.999740*%
%ADD13R,2.000000X2.000000*%
%ADD14C,2.000000*%
%ADD15O,1.524000X2.032000*%
%ADD16R,1.727200X2.032000*%
%ADD17O,1.727200X2.032000*%
%ADD18R,1.727200X1.727200*%
%ADD19O,1.727200X1.727200*%
%ADD20C,1.500000*%
%ADD21C,1.778000*%
%ADD22R,2.032000X1.727200*%
%ADD23O,2.032000X1.727200*%
%ADD24O,4.572000X4.572000*%
%ADD25O,4.064000X4.064000*%
%ADD26O,3.500120X3.500120*%
%ADD27C,4.064000*%
%ADD28C,0.685800*%
%ADD29C,0.500000*%
%ADD30C,0.600000*%
%ADD31C,0.400000*%
%ADD32C,0.300000*%
%ADD33C,0.254000*%
G04 APERTURE END LIST*
D10*
D11*
X63500000Y-125730000D03*
D12*
X60960000Y-123190000D03*
X60960000Y-128270000D03*
D13*
X70485000Y-166370000D03*
D14*
X70485000Y-163830000D03*
D15*
X107429300Y-135890000D03*
X80530700Y-137160000D03*
X107429300Y-138430000D03*
D16*
X118110000Y-134620000D03*
D17*
X115570000Y-134620000D03*
X113030000Y-134620000D03*
X110490000Y-134620000D03*
D16*
X118110000Y-121920000D03*
D17*
X115570000Y-121920000D03*
X113030000Y-121920000D03*
X110490000Y-121920000D03*
D16*
X118110000Y-128270000D03*
D17*
X115570000Y-128270000D03*
X113030000Y-128270000D03*
X110490000Y-128270000D03*
D18*
X80010000Y-151130000D03*
D19*
X77470000Y-151130000D03*
X80010000Y-153670000D03*
X77470000Y-153670000D03*
X80010000Y-156210000D03*
X77470000Y-156210000D03*
X80010000Y-158750000D03*
X77470000Y-158750000D03*
X80010000Y-161290000D03*
X77470000Y-161290000D03*
X80010000Y-163830000D03*
X77470000Y-163830000D03*
X80010000Y-166370000D03*
X77470000Y-166370000D03*
D20*
X48895000Y-134610000D03*
X48895000Y-127010000D03*
D21*
X76200000Y-100330000D03*
X71120000Y-100330000D03*
D22*
X118110000Y-153670000D03*
D23*
X118110000Y-156210000D03*
X118110000Y-158750000D03*
X118110000Y-161290000D03*
X118110000Y-163830000D03*
X118110000Y-166370000D03*
D22*
X57785000Y-156210000D03*
D23*
X57785000Y-158750000D03*
X57785000Y-161290000D03*
X57785000Y-163830000D03*
X57785000Y-166370000D03*
D24*
X63500000Y-96774000D03*
D25*
X63500000Y-90170000D03*
D26*
X59055000Y-93980000D03*
D18*
X100330000Y-166370000D03*
D19*
X97790000Y-166370000D03*
X100330000Y-163830000D03*
X97790000Y-163830000D03*
X100330000Y-161290000D03*
X97790000Y-161290000D03*
X100330000Y-158750000D03*
X97790000Y-158750000D03*
X100330000Y-156210000D03*
X97790000Y-156210000D03*
D27*
X43180000Y-167640000D03*
X43180000Y-86360000D03*
X116840000Y-142240000D03*
X116840000Y-111760000D03*
D28*
X92075000Y-155575000D03*
X85090000Y-158750000D03*
X107950000Y-102235000D03*
X80010000Y-107950000D03*
X109855000Y-94615000D03*
X109855000Y-108585000D03*
X102235000Y-108585000D03*
X100965000Y-107315000D03*
X99695000Y-108585000D03*
X98425000Y-107315000D03*
X108585000Y-116840000D03*
X103505000Y-116840000D03*
X102235000Y-118110000D03*
X100965000Y-116840000D03*
X99695000Y-118110000D03*
X98425000Y-116840000D03*
X48260000Y-117475000D03*
X53975000Y-98425000D03*
X49530000Y-97790000D03*
X50165000Y-99695000D03*
X48260000Y-99060000D03*
X64770000Y-114300000D03*
X62230000Y-118110000D03*
X41910000Y-120650000D03*
X59690000Y-148590000D03*
X101600000Y-91440000D03*
X95250000Y-88265000D03*
X78740000Y-102870000D03*
X83820000Y-94615000D03*
X80010000Y-111125000D03*
X71120000Y-93980000D03*
X109855000Y-88900000D03*
X78740000Y-123825000D03*
X81280000Y-123825000D03*
X107315000Y-94615000D03*
X59055000Y-109220000D03*
X60325000Y-109220000D03*
X61595000Y-109220000D03*
X62865000Y-109220000D03*
X63500000Y-110490000D03*
X62230000Y-110490000D03*
X60960000Y-110490000D03*
X59690000Y-110490000D03*
X58420000Y-110490000D03*
X108585000Y-107315000D03*
X59690000Y-166370000D03*
X59055000Y-120650000D03*
X97790000Y-166370000D03*
X69850000Y-144780000D03*
X66040000Y-143510000D03*
X104140000Y-109855000D03*
X81915000Y-109220000D03*
X95250000Y-100965000D03*
X97155000Y-98425000D03*
X81280000Y-109855000D03*
X102870000Y-111125000D03*
X58420000Y-138430000D03*
X105410000Y-109855000D03*
X97155000Y-97155000D03*
X90170000Y-103505000D03*
X88900000Y-102235000D03*
X95885000Y-97155000D03*
D29*
X61595000Y-109220000D02*
X60325000Y-109220000D01*
X62865000Y-109855000D02*
X62865000Y-109220000D01*
X63500000Y-110490000D02*
X62865000Y-109855000D01*
X60960000Y-110490000D02*
X62230000Y-110490000D01*
X58420000Y-110490000D02*
X59690000Y-110490000D01*
D30*
X63500000Y-96774000D02*
X63500000Y-107950000D01*
X61595000Y-120650000D02*
X59055000Y-120650000D01*
X63500000Y-118745000D02*
X61595000Y-120650000D01*
X63500000Y-113665000D02*
X63500000Y-118745000D01*
X64770000Y-112395000D02*
X63500000Y-113665000D01*
X64770000Y-109220000D02*
X64770000Y-112395000D01*
X63500000Y-107950000D02*
X64770000Y-109220000D01*
D31*
X97790000Y-166370000D02*
X99695000Y-168275000D01*
X111125000Y-168275000D02*
X118110000Y-161290000D01*
X99695000Y-168275000D02*
X111125000Y-168275000D01*
D29*
X69850000Y-144780000D02*
X68580000Y-143510000D01*
X68580000Y-143510000D02*
X66040000Y-143510000D01*
D32*
X82550000Y-109855000D02*
X104140000Y-109855000D01*
X81915000Y-109220000D02*
X82550000Y-109855000D01*
X95250000Y-100330000D02*
X97155000Y-98425000D01*
X95250000Y-100965000D02*
X95250000Y-100330000D01*
X81280000Y-109855000D02*
X82550000Y-111125000D01*
X82550000Y-111125000D02*
X102870000Y-111125000D01*
X69850000Y-138430000D02*
X58420000Y-138430000D01*
X95885000Y-112395000D02*
X69850000Y-138430000D01*
X102870000Y-112395000D02*
X95885000Y-112395000D01*
X105410000Y-109855000D02*
X102870000Y-112395000D01*
X90805000Y-103505000D02*
X97155000Y-97155000D01*
X90170000Y-103505000D02*
X90805000Y-103505000D01*
X90805000Y-102235000D02*
X88900000Y-102235000D01*
X95885000Y-97155000D02*
X90805000Y-102235000D01*
D33*
G36*
X121475500Y-171005500D02*
X38544500Y-171005500D01*
X38544500Y-168117870D01*
X40766583Y-168117870D01*
X41133166Y-169005069D01*
X41811361Y-169684449D01*
X42697919Y-170052580D01*
X43657870Y-170053417D01*
X44545069Y-169686834D01*
X45224449Y-169008639D01*
X45592580Y-168122081D01*
X45593417Y-167162130D01*
X45226834Y-166274931D01*
X44548639Y-165595551D01*
X43662081Y-165227420D01*
X42702130Y-165226583D01*
X41814931Y-165593166D01*
X41135551Y-166271361D01*
X40767420Y-167157919D01*
X40766583Y-168117870D01*
X38544500Y-168117870D01*
X38544500Y-164189026D01*
X56177642Y-164189026D01*
X56180291Y-164204791D01*
X56434268Y-164732036D01*
X56870680Y-165121954D01*
X57143243Y-165217296D01*
X57128943Y-165220140D01*
X56725166Y-165489935D01*
X56455371Y-165893712D01*
X56360631Y-166370000D01*
X56455371Y-166846288D01*
X56725166Y-167250065D01*
X57128943Y-167519860D01*
X57605231Y-167614600D01*
X57964769Y-167614600D01*
X58441057Y-167519860D01*
X58844834Y-167250065D01*
X59114629Y-166846288D01*
X59152529Y-166655750D01*
X68850000Y-166655750D01*
X68850000Y-167496310D01*
X68946673Y-167729699D01*
X69125302Y-167908327D01*
X69358691Y-168005000D01*
X70199250Y-168005000D01*
X70358000Y-167846250D01*
X70358000Y-166497000D01*
X70612000Y-166497000D01*
X70612000Y-167846250D01*
X70770750Y-168005000D01*
X71611309Y-168005000D01*
X71844698Y-167908327D01*
X72023327Y-167729699D01*
X72120000Y-167496310D01*
X72120000Y-166655750D01*
X71961250Y-166497000D01*
X70612000Y-166497000D01*
X70358000Y-166497000D01*
X69008750Y-166497000D01*
X68850000Y-166655750D01*
X59152529Y-166655750D01*
X59209369Y-166370000D01*
X76201017Y-166370000D01*
X76295757Y-166846288D01*
X76565552Y-167250065D01*
X76969329Y-167519860D01*
X77445617Y-167614600D01*
X77494383Y-167614600D01*
X77970671Y-167519860D01*
X78374448Y-167250065D01*
X78644243Y-166846288D01*
X78738983Y-166370000D01*
X78741017Y-166370000D01*
X78835757Y-166846288D01*
X79105552Y-167250065D01*
X79509329Y-167519860D01*
X79985617Y-167614600D01*
X80034383Y-167614600D01*
X80510671Y-167519860D01*
X80914448Y-167250065D01*
X81184243Y-166846288D01*
X81278983Y-166370000D01*
X96521017Y-166370000D01*
X96615757Y-166846288D01*
X96885552Y-167250065D01*
X97289329Y-167519860D01*
X97765617Y-167614600D01*
X97814383Y-167614600D01*
X98146817Y-167548475D01*
X99284171Y-168685829D01*
X99472661Y-168811774D01*
X99695000Y-168856000D01*
X111125000Y-168856000D01*
X111347339Y-168811774D01*
X111535829Y-168685829D01*
X113492632Y-166729026D01*
X116502642Y-166729026D01*
X116505291Y-166744791D01*
X116759268Y-167272036D01*
X117195680Y-167661954D01*
X117748087Y-167855184D01*
X117983000Y-167710924D01*
X117983000Y-166497000D01*
X118237000Y-166497000D01*
X118237000Y-167710924D01*
X118471913Y-167855184D01*
X119024320Y-167661954D01*
X119460732Y-167272036D01*
X119714709Y-166744791D01*
X119717358Y-166729026D01*
X119596217Y-166497000D01*
X118237000Y-166497000D01*
X117983000Y-166497000D01*
X116623783Y-166497000D01*
X116502642Y-166729026D01*
X113492632Y-166729026D01*
X116032632Y-164189026D01*
X116502642Y-164189026D01*
X116505291Y-164204791D01*
X116759268Y-164732036D01*
X117171108Y-165100000D01*
X116759268Y-165467964D01*
X116505291Y-165995209D01*
X116502642Y-166010974D01*
X116623783Y-166243000D01*
X117983000Y-166243000D01*
X117983000Y-163957000D01*
X118237000Y-163957000D01*
X118237000Y-166243000D01*
X119596217Y-166243000D01*
X119717358Y-166010974D01*
X119714709Y-165995209D01*
X119460732Y-165467964D01*
X119048892Y-165100000D01*
X119460732Y-164732036D01*
X119714709Y-164204791D01*
X119717358Y-164189026D01*
X119596217Y-163957000D01*
X118237000Y-163957000D01*
X117983000Y-163957000D01*
X116623783Y-163957000D01*
X116502642Y-164189026D01*
X116032632Y-164189026D01*
X116587724Y-163633934D01*
X116623783Y-163703000D01*
X117983000Y-163703000D01*
X117983000Y-163683000D01*
X118237000Y-163683000D01*
X118237000Y-163703000D01*
X119596217Y-163703000D01*
X119717358Y-163470974D01*
X119714709Y-163455209D01*
X119460732Y-162927964D01*
X119024320Y-162538046D01*
X118751757Y-162442704D01*
X118766057Y-162439860D01*
X119169834Y-162170065D01*
X119439629Y-161766288D01*
X119534369Y-161290000D01*
X119439629Y-160813712D01*
X119169834Y-160409935D01*
X118766057Y-160140140D01*
X118289769Y-160045400D01*
X117930231Y-160045400D01*
X117453943Y-160140140D01*
X117050166Y-160409935D01*
X116780371Y-160813712D01*
X116685631Y-161290000D01*
X116780371Y-161766288D01*
X116793061Y-161785281D01*
X110884342Y-167694000D01*
X101631225Y-167694000D01*
X101731927Y-167593299D01*
X101828600Y-167359910D01*
X101828600Y-166655750D01*
X101669850Y-166497000D01*
X100457000Y-166497000D01*
X100457000Y-166517000D01*
X100203000Y-166517000D01*
X100203000Y-166497000D01*
X100183000Y-166497000D01*
X100183000Y-166243000D01*
X100203000Y-166243000D01*
X100203000Y-166223000D01*
X100457000Y-166223000D01*
X100457000Y-166243000D01*
X101669850Y-166243000D01*
X101828600Y-166084250D01*
X101828600Y-165380090D01*
X101731927Y-165146701D01*
X101553298Y-164968073D01*
X101319909Y-164871400D01*
X100992993Y-164871400D01*
X101234448Y-164710065D01*
X101504243Y-164306288D01*
X101598983Y-163830000D01*
X101504243Y-163353712D01*
X101234448Y-162949935D01*
X100830671Y-162680140D01*
X100354383Y-162585400D01*
X100305617Y-162585400D01*
X99829329Y-162680140D01*
X99425552Y-162949935D01*
X99155757Y-163353712D01*
X99061017Y-163830000D01*
X99155757Y-164306288D01*
X99425552Y-164710065D01*
X99667007Y-164871400D01*
X99340091Y-164871400D01*
X99106702Y-164968073D01*
X98928073Y-165146701D01*
X98831400Y-165380090D01*
X98831400Y-165694898D01*
X98694448Y-165489935D01*
X98290671Y-165220140D01*
X97814383Y-165125400D01*
X97765617Y-165125400D01*
X97289329Y-165220140D01*
X96885552Y-165489935D01*
X96615757Y-165893712D01*
X96521017Y-166370000D01*
X81278983Y-166370000D01*
X81184243Y-165893712D01*
X80914448Y-165489935D01*
X80510671Y-165220140D01*
X80034383Y-165125400D01*
X79985617Y-165125400D01*
X79509329Y-165220140D01*
X79105552Y-165489935D01*
X78835757Y-165893712D01*
X78741017Y-166370000D01*
X78738983Y-166370000D01*
X78644243Y-165893712D01*
X78374448Y-165489935D01*
X77970671Y-165220140D01*
X77494383Y-165125400D01*
X77445617Y-165125400D01*
X76969329Y-165220140D01*
X76565552Y-165489935D01*
X76295757Y-165893712D01*
X76201017Y-166370000D01*
X59209369Y-166370000D01*
X59114629Y-165893712D01*
X58844834Y-165489935D01*
X58476303Y-165243690D01*
X68850000Y-165243690D01*
X68850000Y-166084250D01*
X69008750Y-166243000D01*
X70358000Y-166243000D01*
X70358000Y-166223000D01*
X70612000Y-166223000D01*
X70612000Y-166243000D01*
X71961250Y-166243000D01*
X72120000Y-166084250D01*
X72120000Y-165243690D01*
X72023327Y-165010301D01*
X71844698Y-164831673D01*
X71611309Y-164735000D01*
X71533154Y-164735000D01*
X71655072Y-164613295D01*
X71865759Y-164105903D01*
X71866000Y-163830000D01*
X76201017Y-163830000D01*
X76295757Y-164306288D01*
X76565552Y-164710065D01*
X76969329Y-164979860D01*
X77445617Y-165074600D01*
X77494383Y-165074600D01*
X77970671Y-164979860D01*
X78374448Y-164710065D01*
X78644243Y-164306288D01*
X78738983Y-163830000D01*
X78741017Y-163830000D01*
X78835757Y-164306288D01*
X79105552Y-164710065D01*
X79509329Y-164979860D01*
X79985617Y-165074600D01*
X80034383Y-165074600D01*
X80510671Y-164979860D01*
X80914448Y-164710065D01*
X81184243Y-164306288D01*
X81278983Y-163830000D01*
X96521017Y-163830000D01*
X96615757Y-164306288D01*
X96885552Y-164710065D01*
X97289329Y-164979860D01*
X97765617Y-165074600D01*
X97814383Y-165074600D01*
X98290671Y-164979860D01*
X98694448Y-164710065D01*
X98964243Y-164306288D01*
X99058983Y-163830000D01*
X98964243Y-163353712D01*
X98694448Y-162949935D01*
X98290671Y-162680140D01*
X97814383Y-162585400D01*
X97765617Y-162585400D01*
X97289329Y-162680140D01*
X96885552Y-162949935D01*
X96615757Y-163353712D01*
X96521017Y-163830000D01*
X81278983Y-163830000D01*
X81184243Y-163353712D01*
X80914448Y-162949935D01*
X80510671Y-162680140D01*
X80034383Y-162585400D01*
X79985617Y-162585400D01*
X79509329Y-162680140D01*
X79105552Y-162949935D01*
X78835757Y-163353712D01*
X78741017Y-163830000D01*
X78738983Y-163830000D01*
X78644243Y-163353712D01*
X78374448Y-162949935D01*
X77970671Y-162680140D01*
X77494383Y-162585400D01*
X77445617Y-162585400D01*
X76969329Y-162680140D01*
X76565552Y-162949935D01*
X76295757Y-163353712D01*
X76201017Y-163830000D01*
X71866000Y-163830000D01*
X71866239Y-163556507D01*
X71656437Y-163048749D01*
X71268295Y-162659928D01*
X70760903Y-162449241D01*
X70211507Y-162448761D01*
X69703749Y-162658563D01*
X69314928Y-163046705D01*
X69104241Y-163554097D01*
X69103761Y-164103493D01*
X69313563Y-164611251D01*
X69437096Y-164735000D01*
X69358691Y-164735000D01*
X69125302Y-164831673D01*
X68946673Y-165010301D01*
X68850000Y-165243690D01*
X58476303Y-165243690D01*
X58441057Y-165220140D01*
X58426757Y-165217296D01*
X58699320Y-165121954D01*
X59135732Y-164732036D01*
X59389709Y-164204791D01*
X59392358Y-164189026D01*
X59271217Y-163957000D01*
X57912000Y-163957000D01*
X57912000Y-163977000D01*
X57658000Y-163977000D01*
X57658000Y-163957000D01*
X56298783Y-163957000D01*
X56177642Y-164189026D01*
X38544500Y-164189026D01*
X38544500Y-163470974D01*
X56177642Y-163470974D01*
X56298783Y-163703000D01*
X57658000Y-163703000D01*
X57658000Y-163683000D01*
X57912000Y-163683000D01*
X57912000Y-163703000D01*
X59271217Y-163703000D01*
X59392358Y-163470974D01*
X59389709Y-163455209D01*
X59135732Y-162927964D01*
X58699320Y-162538046D01*
X58426757Y-162442704D01*
X58441057Y-162439860D01*
X58844834Y-162170065D01*
X59114629Y-161766288D01*
X59209369Y-161290000D01*
X76201017Y-161290000D01*
X76295757Y-161766288D01*
X76565552Y-162170065D01*
X76969329Y-162439860D01*
X77445617Y-162534600D01*
X77494383Y-162534600D01*
X77970671Y-162439860D01*
X78374448Y-162170065D01*
X78644243Y-161766288D01*
X78738983Y-161290000D01*
X78741017Y-161290000D01*
X78835757Y-161766288D01*
X79105552Y-162170065D01*
X79509329Y-162439860D01*
X79985617Y-162534600D01*
X80034383Y-162534600D01*
X80510671Y-162439860D01*
X80914448Y-162170065D01*
X81184243Y-161766288D01*
X81278983Y-161290000D01*
X96521017Y-161290000D01*
X96615757Y-161766288D01*
X96885552Y-162170065D01*
X97289329Y-162439860D01*
X97765617Y-162534600D01*
X97814383Y-162534600D01*
X98290671Y-162439860D01*
X98694448Y-162170065D01*
X98964243Y-161766288D01*
X99058983Y-161290000D01*
X99061017Y-161290000D01*
X99155757Y-161766288D01*
X99425552Y-162170065D01*
X99829329Y-162439860D01*
X100305617Y-162534600D01*
X100354383Y-162534600D01*
X100830671Y-162439860D01*
X101234448Y-162170065D01*
X101504243Y-161766288D01*
X101598983Y-161290000D01*
X101504243Y-160813712D01*
X101234448Y-160409935D01*
X100830671Y-160140140D01*
X100354383Y-160045400D01*
X100305617Y-160045400D01*
X99829329Y-160140140D01*
X99425552Y-160409935D01*
X99155757Y-160813712D01*
X99061017Y-161290000D01*
X99058983Y-161290000D01*
X98964243Y-160813712D01*
X98694448Y-160409935D01*
X98290671Y-160140140D01*
X97814383Y-160045400D01*
X97765617Y-160045400D01*
X97289329Y-160140140D01*
X96885552Y-160409935D01*
X96615757Y-160813712D01*
X96521017Y-161290000D01*
X81278983Y-161290000D01*
X81184243Y-160813712D01*
X80914448Y-160409935D01*
X80510671Y-160140140D01*
X80034383Y-160045400D01*
X79985617Y-160045400D01*
X79509329Y-160140140D01*
X79105552Y-160409935D01*
X78835757Y-160813712D01*
X78741017Y-161290000D01*
X78738983Y-161290000D01*
X78644243Y-160813712D01*
X78374448Y-160409935D01*
X77970671Y-160140140D01*
X77494383Y-160045400D01*
X77445617Y-160045400D01*
X76969329Y-160140140D01*
X76565552Y-160409935D01*
X76295757Y-160813712D01*
X76201017Y-161290000D01*
X59209369Y-161290000D01*
X59114629Y-160813712D01*
X58844834Y-160409935D01*
X58441057Y-160140140D01*
X57964769Y-160045400D01*
X57605231Y-160045400D01*
X57128943Y-160140140D01*
X56725166Y-160409935D01*
X56455371Y-160813712D01*
X56360631Y-161290000D01*
X56455371Y-161766288D01*
X56725166Y-162170065D01*
X57128943Y-162439860D01*
X57143243Y-162442704D01*
X56870680Y-162538046D01*
X56434268Y-162927964D01*
X56180291Y-163455209D01*
X56177642Y-163470974D01*
X38544500Y-163470974D01*
X38544500Y-156495750D01*
X56134000Y-156495750D01*
X56134000Y-157199910D01*
X56230673Y-157433299D01*
X56409302Y-157611927D01*
X56642691Y-157708600D01*
X56966621Y-157708600D01*
X56725166Y-157869935D01*
X56455371Y-158273712D01*
X56360631Y-158750000D01*
X56455371Y-159226288D01*
X56725166Y-159630065D01*
X57128943Y-159899860D01*
X57605231Y-159994600D01*
X57964769Y-159994600D01*
X58441057Y-159899860D01*
X58844834Y-159630065D01*
X59114629Y-159226288D01*
X59209369Y-158750000D01*
X76201017Y-158750000D01*
X76295757Y-159226288D01*
X76565552Y-159630065D01*
X76969329Y-159899860D01*
X77445617Y-159994600D01*
X77494383Y-159994600D01*
X77970671Y-159899860D01*
X78374448Y-159630065D01*
X78644243Y-159226288D01*
X78738983Y-158750000D01*
X78741017Y-158750000D01*
X78835757Y-159226288D01*
X79105552Y-159630065D01*
X79509329Y-159899860D01*
X79985617Y-159994600D01*
X80034383Y-159994600D01*
X80510671Y-159899860D01*
X80914448Y-159630065D01*
X81184243Y-159226288D01*
X81278983Y-158750000D01*
X96521017Y-158750000D01*
X96615757Y-159226288D01*
X96885552Y-159630065D01*
X97289329Y-159899860D01*
X97765617Y-159994600D01*
X97814383Y-159994600D01*
X98290671Y-159899860D01*
X98694448Y-159630065D01*
X98964243Y-159226288D01*
X99058983Y-158750000D01*
X99061017Y-158750000D01*
X99155757Y-159226288D01*
X99425552Y-159630065D01*
X99829329Y-159899860D01*
X100305617Y-159994600D01*
X100354383Y-159994600D01*
X100830671Y-159899860D01*
X101234448Y-159630065D01*
X101504243Y-159226288D01*
X101598983Y-158750000D01*
X116685631Y-158750000D01*
X116780371Y-159226288D01*
X117050166Y-159630065D01*
X117453943Y-159899860D01*
X117930231Y-159994600D01*
X118289769Y-159994600D01*
X118766057Y-159899860D01*
X119169834Y-159630065D01*
X119439629Y-159226288D01*
X119534369Y-158750000D01*
X119439629Y-158273712D01*
X119169834Y-157869935D01*
X118766057Y-157600140D01*
X118289769Y-157505400D01*
X117930231Y-157505400D01*
X117453943Y-157600140D01*
X117050166Y-157869935D01*
X116780371Y-158273712D01*
X116685631Y-158750000D01*
X101598983Y-158750000D01*
X101504243Y-158273712D01*
X101234448Y-157869935D01*
X100830671Y-157600140D01*
X100354383Y-157505400D01*
X100305617Y-157505400D01*
X99829329Y-157600140D01*
X99425552Y-157869935D01*
X99155757Y-158273712D01*
X99061017Y-158750000D01*
X99058983Y-158750000D01*
X98964243Y-158273712D01*
X98694448Y-157869935D01*
X98290671Y-157600140D01*
X97814383Y-157505400D01*
X97765617Y-157505400D01*
X97289329Y-157600140D01*
X96885552Y-157869935D01*
X96615757Y-158273712D01*
X96521017Y-158750000D01*
X81278983Y-158750000D01*
X81184243Y-158273712D01*
X80914448Y-157869935D01*
X80510671Y-157600140D01*
X80034383Y-157505400D01*
X79985617Y-157505400D01*
X79509329Y-157600140D01*
X79105552Y-157869935D01*
X78835757Y-158273712D01*
X78741017Y-158750000D01*
X78738983Y-158750000D01*
X78644243Y-158273712D01*
X78374448Y-157869935D01*
X77970671Y-157600140D01*
X77494383Y-157505400D01*
X77445617Y-157505400D01*
X76969329Y-157600140D01*
X76565552Y-157869935D01*
X76295757Y-158273712D01*
X76201017Y-158750000D01*
X59209369Y-158750000D01*
X59114629Y-158273712D01*
X58844834Y-157869935D01*
X58603379Y-157708600D01*
X58927309Y-157708600D01*
X59160698Y-157611927D01*
X59339327Y-157433299D01*
X59436000Y-157199910D01*
X59436000Y-156495750D01*
X59277250Y-156337000D01*
X57912000Y-156337000D01*
X57912000Y-156357000D01*
X57658000Y-156357000D01*
X57658000Y-156337000D01*
X56292750Y-156337000D01*
X56134000Y-156495750D01*
X38544500Y-156495750D01*
X38544500Y-156210000D01*
X76201017Y-156210000D01*
X76295757Y-156686288D01*
X76565552Y-157090065D01*
X76969329Y-157359860D01*
X77445617Y-157454600D01*
X77494383Y-157454600D01*
X77970671Y-157359860D01*
X78374448Y-157090065D01*
X78644243Y-156686288D01*
X78738983Y-156210000D01*
X78741017Y-156210000D01*
X78835757Y-156686288D01*
X79105552Y-157090065D01*
X79509329Y-157359860D01*
X79985617Y-157454600D01*
X80034383Y-157454600D01*
X80510671Y-157359860D01*
X80914448Y-157090065D01*
X81184243Y-156686288D01*
X81278983Y-156210000D01*
X96521017Y-156210000D01*
X96615757Y-156686288D01*
X96885552Y-157090065D01*
X97289329Y-157359860D01*
X97765617Y-157454600D01*
X97814383Y-157454600D01*
X98290671Y-157359860D01*
X98694448Y-157090065D01*
X98964243Y-156686288D01*
X99058983Y-156210000D01*
X99061017Y-156210000D01*
X99155757Y-156686288D01*
X99425552Y-157090065D01*
X99829329Y-157359860D01*
X100305617Y-157454600D01*
X100354383Y-157454600D01*
X100830671Y-157359860D01*
X101234448Y-157090065D01*
X101504243Y-156686288D01*
X101598983Y-156210000D01*
X116685631Y-156210000D01*
X116780371Y-156686288D01*
X117050166Y-157090065D01*
X117453943Y-157359860D01*
X117930231Y-157454600D01*
X118289769Y-157454600D01*
X118766057Y-157359860D01*
X119169834Y-157090065D01*
X119439629Y-156686288D01*
X119534369Y-156210000D01*
X119439629Y-155733712D01*
X119169834Y-155329935D01*
X118766057Y-155060140D01*
X118289769Y-154965400D01*
X117930231Y-154965400D01*
X117453943Y-155060140D01*
X117050166Y-155329935D01*
X116780371Y-155733712D01*
X116685631Y-156210000D01*
X101598983Y-156210000D01*
X101504243Y-155733712D01*
X101234448Y-155329935D01*
X100830671Y-155060140D01*
X100354383Y-154965400D01*
X100305617Y-154965400D01*
X99829329Y-155060140D01*
X99425552Y-155329935D01*
X99155757Y-155733712D01*
X99061017Y-156210000D01*
X99058983Y-156210000D01*
X98964243Y-155733712D01*
X98694448Y-155329935D01*
X98290671Y-155060140D01*
X97814383Y-154965400D01*
X97765617Y-154965400D01*
X97289329Y-155060140D01*
X96885552Y-155329935D01*
X96615757Y-155733712D01*
X96521017Y-156210000D01*
X81278983Y-156210000D01*
X81184243Y-155733712D01*
X80914448Y-155329935D01*
X80510671Y-155060140D01*
X80034383Y-154965400D01*
X79985617Y-154965400D01*
X79509329Y-155060140D01*
X79105552Y-155329935D01*
X78835757Y-155733712D01*
X78741017Y-156210000D01*
X78738983Y-156210000D01*
X78644243Y-155733712D01*
X78374448Y-155329935D01*
X77970671Y-155060140D01*
X77494383Y-154965400D01*
X77445617Y-154965400D01*
X76969329Y-155060140D01*
X76565552Y-155329935D01*
X76295757Y-155733712D01*
X76201017Y-156210000D01*
X38544500Y-156210000D01*
X38544500Y-155220090D01*
X56134000Y-155220090D01*
X56134000Y-155924250D01*
X56292750Y-156083000D01*
X57658000Y-156083000D01*
X57658000Y-154870150D01*
X57912000Y-154870150D01*
X57912000Y-156083000D01*
X59277250Y-156083000D01*
X59436000Y-155924250D01*
X59436000Y-155220090D01*
X59339327Y-154986701D01*
X59160698Y-154808073D01*
X58927309Y-154711400D01*
X58070750Y-154711400D01*
X57912000Y-154870150D01*
X57658000Y-154870150D01*
X57499250Y-154711400D01*
X56642691Y-154711400D01*
X56409302Y-154808073D01*
X56230673Y-154986701D01*
X56134000Y-155220090D01*
X38544500Y-155220090D01*
X38544500Y-153670000D01*
X76201017Y-153670000D01*
X76295757Y-154146288D01*
X76565552Y-154550065D01*
X76969329Y-154819860D01*
X77445617Y-154914600D01*
X77494383Y-154914600D01*
X77970671Y-154819860D01*
X78374448Y-154550065D01*
X78644243Y-154146288D01*
X78738983Y-153670000D01*
X78644243Y-153193712D01*
X78374448Y-152789935D01*
X77970671Y-152520140D01*
X77494383Y-152425400D01*
X77445617Y-152425400D01*
X76969329Y-152520140D01*
X76565552Y-152789935D01*
X76295757Y-153193712D01*
X76201017Y-153670000D01*
X38544500Y-153670000D01*
X38544500Y-151130000D01*
X76201017Y-151130000D01*
X76295757Y-151606288D01*
X76565552Y-152010065D01*
X76969329Y-152279860D01*
X77445617Y-152374600D01*
X77494383Y-152374600D01*
X77970671Y-152279860D01*
X78374448Y-152010065D01*
X78511400Y-151805102D01*
X78511400Y-152119910D01*
X78608073Y-152353299D01*
X78786702Y-152531927D01*
X79020091Y-152628600D01*
X79347007Y-152628600D01*
X79105552Y-152789935D01*
X78835757Y-153193712D01*
X78741017Y-153670000D01*
X78835757Y-154146288D01*
X79105552Y-154550065D01*
X79509329Y-154819860D01*
X79985617Y-154914600D01*
X80034383Y-154914600D01*
X80510671Y-154819860D01*
X80914448Y-154550065D01*
X81184243Y-154146288D01*
X81278983Y-153670000D01*
X81184243Y-153193712D01*
X80925450Y-152806400D01*
X116705536Y-152806400D01*
X116705536Y-154533600D01*
X116732103Y-154674790D01*
X116815546Y-154804465D01*
X116942866Y-154891459D01*
X117094000Y-154922064D01*
X119126000Y-154922064D01*
X119267190Y-154895497D01*
X119396865Y-154812054D01*
X119483859Y-154684734D01*
X119514464Y-154533600D01*
X119514464Y-152806400D01*
X119487897Y-152665210D01*
X119404454Y-152535535D01*
X119277134Y-152448541D01*
X119126000Y-152417936D01*
X117094000Y-152417936D01*
X116952810Y-152444503D01*
X116823135Y-152527946D01*
X116736141Y-152655266D01*
X116705536Y-152806400D01*
X80925450Y-152806400D01*
X80914448Y-152789935D01*
X80672993Y-152628600D01*
X80999909Y-152628600D01*
X81233298Y-152531927D01*
X81411927Y-152353299D01*
X81508600Y-152119910D01*
X81508600Y-151415750D01*
X81349850Y-151257000D01*
X80137000Y-151257000D01*
X80137000Y-151277000D01*
X79883000Y-151277000D01*
X79883000Y-151257000D01*
X79863000Y-151257000D01*
X79863000Y-151003000D01*
X79883000Y-151003000D01*
X79883000Y-149790150D01*
X80137000Y-149790150D01*
X80137000Y-151003000D01*
X81349850Y-151003000D01*
X81508600Y-150844250D01*
X81508600Y-150140090D01*
X81411927Y-149906701D01*
X81233298Y-149728073D01*
X80999909Y-149631400D01*
X80295750Y-149631400D01*
X80137000Y-149790150D01*
X79883000Y-149790150D01*
X79724250Y-149631400D01*
X79020091Y-149631400D01*
X78786702Y-149728073D01*
X78608073Y-149906701D01*
X78511400Y-150140090D01*
X78511400Y-150454898D01*
X78374448Y-150249935D01*
X77970671Y-149980140D01*
X77494383Y-149885400D01*
X77445617Y-149885400D01*
X76969329Y-149980140D01*
X76565552Y-150249935D01*
X76295757Y-150653712D01*
X76201017Y-151130000D01*
X38544500Y-151130000D01*
X38544500Y-143653361D01*
X65315975Y-143653361D01*
X65425950Y-143919521D01*
X65629408Y-144123335D01*
X65895376Y-144233774D01*
X66183361Y-144234025D01*
X66408499Y-144141000D01*
X68318632Y-144141000D01*
X69143566Y-144965935D01*
X69235950Y-145189521D01*
X69439408Y-145393335D01*
X69705376Y-145503774D01*
X69993361Y-145504025D01*
X70259521Y-145394050D01*
X70463335Y-145190592D01*
X70573774Y-144924624D01*
X70574025Y-144636639D01*
X70464050Y-144370479D01*
X70260592Y-144166665D01*
X70035616Y-144073247D01*
X69026184Y-143063816D01*
X68821473Y-142927032D01*
X68580000Y-142879000D01*
X66408050Y-142879000D01*
X66184624Y-142786226D01*
X65896639Y-142785975D01*
X65630479Y-142895950D01*
X65426665Y-143099408D01*
X65316226Y-143365376D01*
X65315975Y-143653361D01*
X38544500Y-143653361D01*
X38544500Y-142717870D01*
X114426583Y-142717870D01*
X114793166Y-143605069D01*
X115471361Y-144284449D01*
X116357919Y-144652580D01*
X117317870Y-144653417D01*
X118205069Y-144286834D01*
X118884449Y-143608639D01*
X119252580Y-142722081D01*
X119253417Y-141762130D01*
X118886834Y-140874931D01*
X118208639Y-140195551D01*
X117322081Y-139827420D01*
X116362130Y-139826583D01*
X115474931Y-140193166D01*
X114795551Y-140871361D01*
X114427420Y-141757919D01*
X114426583Y-142717870D01*
X38544500Y-142717870D01*
X38544500Y-138573361D01*
X57695975Y-138573361D01*
X57805950Y-138839521D01*
X58009408Y-139043335D01*
X58275376Y-139153774D01*
X58563361Y-139154025D01*
X58829521Y-139044050D01*
X58912716Y-138961000D01*
X69850000Y-138961000D01*
X70053205Y-138920580D01*
X70225474Y-138805474D01*
X71743948Y-137287000D01*
X79133700Y-137287000D01*
X79133700Y-137541000D01*
X79288641Y-138065941D01*
X79632674Y-138491630D01*
X80113423Y-138753260D01*
X80187630Y-138768220D01*
X80403700Y-138645720D01*
X80403700Y-137287000D01*
X80657700Y-137287000D01*
X80657700Y-138645720D01*
X80873770Y-138768220D01*
X80947977Y-138753260D01*
X81428726Y-138491630D01*
X81772759Y-138065941D01*
X81927700Y-137541000D01*
X81927700Y-137287000D01*
X80657700Y-137287000D01*
X80403700Y-137287000D01*
X79133700Y-137287000D01*
X71743948Y-137287000D01*
X72251948Y-136779000D01*
X79133700Y-136779000D01*
X79133700Y-137033000D01*
X80403700Y-137033000D01*
X80403700Y-135674280D01*
X80657700Y-135674280D01*
X80657700Y-137033000D01*
X81927700Y-137033000D01*
X81927700Y-136779000D01*
X81772759Y-136254059D01*
X81428726Y-135828370D01*
X81024953Y-135608631D01*
X106286300Y-135608631D01*
X106286300Y-136171369D01*
X106373306Y-136608776D01*
X106621077Y-136979592D01*
X106891077Y-137160000D01*
X106621077Y-137340408D01*
X106373306Y-137711224D01*
X106286300Y-138148631D01*
X106286300Y-138711369D01*
X106373306Y-139148776D01*
X106621077Y-139519592D01*
X106991893Y-139767363D01*
X107429300Y-139854369D01*
X107866707Y-139767363D01*
X108237523Y-139519592D01*
X108485294Y-139148776D01*
X108572300Y-138711369D01*
X108572300Y-138148631D01*
X108485294Y-137711224D01*
X108237523Y-137340408D01*
X107967523Y-137160000D01*
X108237523Y-136979592D01*
X108485294Y-136608776D01*
X108572300Y-136171369D01*
X108572300Y-135608631D01*
X108485294Y-135171224D01*
X108237523Y-134800408D01*
X107866707Y-134552637D01*
X107429300Y-134465631D01*
X106991893Y-134552637D01*
X106621077Y-134800408D01*
X106373306Y-135171224D01*
X106286300Y-135608631D01*
X81024953Y-135608631D01*
X80947977Y-135566740D01*
X80873770Y-135551780D01*
X80657700Y-135674280D01*
X80403700Y-135674280D01*
X80187630Y-135551780D01*
X80113423Y-135566740D01*
X79632674Y-135828370D01*
X79288641Y-136254059D01*
X79133700Y-136779000D01*
X72251948Y-136779000D01*
X74590717Y-134440231D01*
X109245400Y-134440231D01*
X109245400Y-134799769D01*
X109340140Y-135276057D01*
X109609935Y-135679834D01*
X110013712Y-135949629D01*
X110490000Y-136044369D01*
X110966288Y-135949629D01*
X111370065Y-135679834D01*
X111639860Y-135276057D01*
X111734600Y-134799769D01*
X111734600Y-134440231D01*
X111785400Y-134440231D01*
X111785400Y-134799769D01*
X111880140Y-135276057D01*
X112149935Y-135679834D01*
X112553712Y-135949629D01*
X113030000Y-136044369D01*
X113506288Y-135949629D01*
X113910065Y-135679834D01*
X114179860Y-135276057D01*
X114182704Y-135261757D01*
X114278046Y-135534320D01*
X114667964Y-135970732D01*
X115195209Y-136224709D01*
X115210974Y-136227358D01*
X115443000Y-136106217D01*
X115443000Y-134747000D01*
X115423000Y-134747000D01*
X115423000Y-134493000D01*
X115443000Y-134493000D01*
X115443000Y-133133783D01*
X115697000Y-133133783D01*
X115697000Y-134493000D01*
X115717000Y-134493000D01*
X115717000Y-134747000D01*
X115697000Y-134747000D01*
X115697000Y-136106217D01*
X115929026Y-136227358D01*
X115944791Y-136224709D01*
X116472036Y-135970732D01*
X116857936Y-135538817D01*
X116857936Y-135636000D01*
X116884503Y-135777190D01*
X116967946Y-135906865D01*
X117095266Y-135993859D01*
X117246400Y-136024464D01*
X118973600Y-136024464D01*
X119114790Y-135997897D01*
X119244465Y-135914454D01*
X119331459Y-135787134D01*
X119362064Y-135636000D01*
X119362064Y-133604000D01*
X119335497Y-133462810D01*
X119252054Y-133333135D01*
X119124734Y-133246141D01*
X118973600Y-133215536D01*
X117246400Y-133215536D01*
X117105210Y-133242103D01*
X116975535Y-133325546D01*
X116888541Y-133452866D01*
X116857936Y-133604000D01*
X116857936Y-133701183D01*
X116472036Y-133269268D01*
X115944791Y-133015291D01*
X115929026Y-133012642D01*
X115697000Y-133133783D01*
X115443000Y-133133783D01*
X115210974Y-133012642D01*
X115195209Y-133015291D01*
X114667964Y-133269268D01*
X114278046Y-133705680D01*
X114182704Y-133978243D01*
X114179860Y-133963943D01*
X113910065Y-133560166D01*
X113506288Y-133290371D01*
X113030000Y-133195631D01*
X112553712Y-133290371D01*
X112149935Y-133560166D01*
X111880140Y-133963943D01*
X111785400Y-134440231D01*
X111734600Y-134440231D01*
X111639860Y-133963943D01*
X111370065Y-133560166D01*
X110966288Y-133290371D01*
X110490000Y-133195631D01*
X110013712Y-133290371D01*
X109609935Y-133560166D01*
X109340140Y-133963943D01*
X109245400Y-134440231D01*
X74590717Y-134440231D01*
X80940717Y-128090231D01*
X109245400Y-128090231D01*
X109245400Y-128449769D01*
X109340140Y-128926057D01*
X109609935Y-129329834D01*
X110013712Y-129599629D01*
X110490000Y-129694369D01*
X110966288Y-129599629D01*
X111370065Y-129329834D01*
X111639860Y-128926057D01*
X111734600Y-128449769D01*
X111734600Y-128090231D01*
X111785400Y-128090231D01*
X111785400Y-128449769D01*
X111880140Y-128926057D01*
X112149935Y-129329834D01*
X112553712Y-129599629D01*
X113030000Y-129694369D01*
X113506288Y-129599629D01*
X113910065Y-129329834D01*
X114179860Y-128926057D01*
X114182704Y-128911757D01*
X114278046Y-129184320D01*
X114667964Y-129620732D01*
X115195209Y-129874709D01*
X115210974Y-129877358D01*
X115443000Y-129756217D01*
X115443000Y-128397000D01*
X115423000Y-128397000D01*
X115423000Y-128143000D01*
X115443000Y-128143000D01*
X115443000Y-126783783D01*
X115697000Y-126783783D01*
X115697000Y-128143000D01*
X115717000Y-128143000D01*
X115717000Y-128397000D01*
X115697000Y-128397000D01*
X115697000Y-129756217D01*
X115929026Y-129877358D01*
X115944791Y-129874709D01*
X116472036Y-129620732D01*
X116857936Y-129188817D01*
X116857936Y-129286000D01*
X116884503Y-129427190D01*
X116967946Y-129556865D01*
X117095266Y-129643859D01*
X117246400Y-129674464D01*
X118973600Y-129674464D01*
X119114790Y-129647897D01*
X119244465Y-129564454D01*
X119331459Y-129437134D01*
X119362064Y-129286000D01*
X119362064Y-127254000D01*
X119335497Y-127112810D01*
X119252054Y-126983135D01*
X119124734Y-126896141D01*
X118973600Y-126865536D01*
X117246400Y-126865536D01*
X117105210Y-126892103D01*
X116975535Y-126975546D01*
X116888541Y-127102866D01*
X116857936Y-127254000D01*
X116857936Y-127351183D01*
X116472036Y-126919268D01*
X115944791Y-126665291D01*
X115929026Y-126662642D01*
X115697000Y-126783783D01*
X115443000Y-126783783D01*
X115210974Y-126662642D01*
X115195209Y-126665291D01*
X114667964Y-126919268D01*
X114278046Y-127355680D01*
X114182704Y-127628243D01*
X114179860Y-127613943D01*
X113910065Y-127210166D01*
X113506288Y-126940371D01*
X113030000Y-126845631D01*
X112553712Y-126940371D01*
X112149935Y-127210166D01*
X111880140Y-127613943D01*
X111785400Y-128090231D01*
X111734600Y-128090231D01*
X111639860Y-127613943D01*
X111370065Y-127210166D01*
X110966288Y-126940371D01*
X110490000Y-126845631D01*
X110013712Y-126940371D01*
X109609935Y-127210166D01*
X109340140Y-127613943D01*
X109245400Y-128090231D01*
X80940717Y-128090231D01*
X87290717Y-121740231D01*
X109245400Y-121740231D01*
X109245400Y-122099769D01*
X109340140Y-122576057D01*
X109609935Y-122979834D01*
X110013712Y-123249629D01*
X110490000Y-123344369D01*
X110966288Y-123249629D01*
X111370065Y-122979834D01*
X111639860Y-122576057D01*
X111734600Y-122099769D01*
X111734600Y-121740231D01*
X111785400Y-121740231D01*
X111785400Y-122099769D01*
X111880140Y-122576057D01*
X112149935Y-122979834D01*
X112553712Y-123249629D01*
X113030000Y-123344369D01*
X113506288Y-123249629D01*
X113910065Y-122979834D01*
X114179860Y-122576057D01*
X114182704Y-122561757D01*
X114278046Y-122834320D01*
X114667964Y-123270732D01*
X115195209Y-123524709D01*
X115210974Y-123527358D01*
X115443000Y-123406217D01*
X115443000Y-122047000D01*
X115423000Y-122047000D01*
X115423000Y-121793000D01*
X115443000Y-121793000D01*
X115443000Y-120433783D01*
X115697000Y-120433783D01*
X115697000Y-121793000D01*
X115717000Y-121793000D01*
X115717000Y-122047000D01*
X115697000Y-122047000D01*
X115697000Y-123406217D01*
X115929026Y-123527358D01*
X115944791Y-123524709D01*
X116472036Y-123270732D01*
X116857936Y-122838817D01*
X116857936Y-122936000D01*
X116884503Y-123077190D01*
X116967946Y-123206865D01*
X117095266Y-123293859D01*
X117246400Y-123324464D01*
X118973600Y-123324464D01*
X119114790Y-123297897D01*
X119244465Y-123214454D01*
X119331459Y-123087134D01*
X119362064Y-122936000D01*
X119362064Y-120904000D01*
X119335497Y-120762810D01*
X119252054Y-120633135D01*
X119124734Y-120546141D01*
X118973600Y-120515536D01*
X117246400Y-120515536D01*
X117105210Y-120542103D01*
X116975535Y-120625546D01*
X116888541Y-120752866D01*
X116857936Y-120904000D01*
X116857936Y-121001183D01*
X116472036Y-120569268D01*
X115944791Y-120315291D01*
X115929026Y-120312642D01*
X115697000Y-120433783D01*
X115443000Y-120433783D01*
X115210974Y-120312642D01*
X115195209Y-120315291D01*
X114667964Y-120569268D01*
X114278046Y-121005680D01*
X114182704Y-121278243D01*
X114179860Y-121263943D01*
X113910065Y-120860166D01*
X113506288Y-120590371D01*
X113030000Y-120495631D01*
X112553712Y-120590371D01*
X112149935Y-120860166D01*
X111880140Y-121263943D01*
X111785400Y-121740231D01*
X111734600Y-121740231D01*
X111639860Y-121263943D01*
X111370065Y-120860166D01*
X110966288Y-120590371D01*
X110490000Y-120495631D01*
X110013712Y-120590371D01*
X109609935Y-120860166D01*
X109340140Y-121263943D01*
X109245400Y-121740231D01*
X87290717Y-121740231D01*
X96104948Y-112926000D01*
X102870000Y-112926000D01*
X103073205Y-112885580D01*
X103245474Y-112770474D01*
X103778078Y-112237870D01*
X114426583Y-112237870D01*
X114793166Y-113125069D01*
X115471361Y-113804449D01*
X116357919Y-114172580D01*
X117317870Y-114173417D01*
X118205069Y-113806834D01*
X118884449Y-113128639D01*
X119252580Y-112242081D01*
X119253417Y-111282130D01*
X118886834Y-110394931D01*
X118208639Y-109715551D01*
X117322081Y-109347420D01*
X116362130Y-109346583D01*
X115474931Y-109713166D01*
X114795551Y-110391361D01*
X114427420Y-111277919D01*
X114426583Y-112237870D01*
X103778078Y-112237870D01*
X105437024Y-110578924D01*
X105553361Y-110579025D01*
X105819521Y-110469050D01*
X106023335Y-110265592D01*
X106133774Y-109999624D01*
X106134025Y-109711639D01*
X106024050Y-109445479D01*
X105820592Y-109241665D01*
X105554624Y-109131226D01*
X105266639Y-109130975D01*
X105000479Y-109240950D01*
X104796665Y-109444408D01*
X104775083Y-109496383D01*
X104754050Y-109445479D01*
X104550592Y-109241665D01*
X104284624Y-109131226D01*
X103996639Y-109130975D01*
X103730479Y-109240950D01*
X103647284Y-109324000D01*
X82769947Y-109324000D01*
X82638924Y-109192976D01*
X82639025Y-109076639D01*
X82529050Y-108810479D01*
X82325592Y-108606665D01*
X82059624Y-108496226D01*
X81771639Y-108495975D01*
X81505479Y-108605950D01*
X81301665Y-108809408D01*
X81191226Y-109075376D01*
X81191177Y-109131023D01*
X81136639Y-109130975D01*
X80870479Y-109240950D01*
X80666665Y-109444408D01*
X80556226Y-109710376D01*
X80555975Y-109998361D01*
X80665950Y-110264521D01*
X80869408Y-110468335D01*
X81135376Y-110578774D01*
X81252928Y-110578876D01*
X82174526Y-111500474D01*
X82346795Y-111615580D01*
X82550000Y-111656000D01*
X102377217Y-111656000D01*
X102459408Y-111738335D01*
X102682911Y-111831141D01*
X102650052Y-111864000D01*
X95885000Y-111864000D01*
X95681795Y-111904420D01*
X95509526Y-112019526D01*
X69630052Y-137899000D01*
X58912783Y-137899000D01*
X58830592Y-137816665D01*
X58564624Y-137706226D01*
X58276639Y-137705975D01*
X58010479Y-137815950D01*
X57806665Y-138019408D01*
X57696226Y-138285376D01*
X57695975Y-138573361D01*
X38544500Y-138573361D01*
X38544500Y-134833983D01*
X47763804Y-134833983D01*
X47935625Y-135249823D01*
X48253503Y-135568256D01*
X48669043Y-135740804D01*
X49118983Y-135741196D01*
X49534823Y-135569375D01*
X49853256Y-135251497D01*
X50025804Y-134835957D01*
X50026196Y-134386017D01*
X49854375Y-133970177D01*
X49536497Y-133651744D01*
X49120957Y-133479196D01*
X48671017Y-133478804D01*
X48255177Y-133650625D01*
X47936744Y-133968503D01*
X47764196Y-134384043D01*
X47763804Y-134833983D01*
X38544500Y-134833983D01*
X38544500Y-127233983D01*
X47763804Y-127233983D01*
X47935625Y-127649823D01*
X48253503Y-127968256D01*
X48669043Y-128140804D01*
X49118983Y-128141196D01*
X49534823Y-127969375D01*
X49771839Y-127732772D01*
X59579510Y-127732772D01*
X59579510Y-128807228D01*
X59684594Y-129335519D01*
X59983846Y-129783382D01*
X60431709Y-130082634D01*
X60960000Y-130187718D01*
X61488291Y-130082634D01*
X61936154Y-129783382D01*
X62235406Y-129335519D01*
X62340490Y-128807228D01*
X62340490Y-127732772D01*
X62235406Y-127204481D01*
X61936154Y-126756618D01*
X61488291Y-126457366D01*
X60960000Y-126352282D01*
X60431709Y-126457366D01*
X59983846Y-126756618D01*
X59684594Y-127204481D01*
X59579510Y-127732772D01*
X49771839Y-127732772D01*
X49853256Y-127651497D01*
X50025804Y-127235957D01*
X50026196Y-126786017D01*
X49854375Y-126370177D01*
X49536497Y-126051744D01*
X49120957Y-125879196D01*
X48671017Y-125878804D01*
X48255177Y-126050625D01*
X47936744Y-126368503D01*
X47764196Y-126784043D01*
X47763804Y-127233983D01*
X38544500Y-127233983D01*
X38544500Y-123317000D01*
X59325510Y-123317000D01*
X59325510Y-123817380D01*
X59498529Y-124433205D01*
X59894044Y-124935942D01*
X60451841Y-125249053D01*
X60579646Y-125279999D01*
X60833000Y-125160645D01*
X60833000Y-123317000D01*
X61087000Y-123317000D01*
X61087000Y-125160645D01*
X61340354Y-125279999D01*
X61468159Y-125249053D01*
X61768310Y-125080568D01*
X61687366Y-125201709D01*
X61582282Y-125730000D01*
X61687366Y-126258291D01*
X61986618Y-126706154D01*
X62434481Y-127005406D01*
X62962772Y-127110490D01*
X64037228Y-127110490D01*
X64565519Y-127005406D01*
X65013382Y-126706154D01*
X65312634Y-126258291D01*
X65417718Y-125730000D01*
X65312634Y-125201709D01*
X65013382Y-124753846D01*
X64565519Y-124454594D01*
X64037228Y-124349510D01*
X62962772Y-124349510D01*
X62434481Y-124454594D01*
X62371577Y-124496625D01*
X62421471Y-124433205D01*
X62594490Y-123817380D01*
X62594490Y-123317000D01*
X61087000Y-123317000D01*
X60833000Y-123317000D01*
X59325510Y-123317000D01*
X38544500Y-123317000D01*
X38544500Y-120793361D01*
X58330975Y-120793361D01*
X58440950Y-121059521D01*
X58644408Y-121263335D01*
X58910376Y-121373774D01*
X59198361Y-121374025D01*
X59302490Y-121331000D01*
X60095453Y-121331000D01*
X59894044Y-121444058D01*
X59498529Y-121946795D01*
X59325510Y-122562620D01*
X59325510Y-123063000D01*
X60833000Y-123063000D01*
X60833000Y-123043000D01*
X61087000Y-123043000D01*
X61087000Y-123063000D01*
X62594490Y-123063000D01*
X62594490Y-122562620D01*
X62421471Y-121946795D01*
X62025956Y-121444058D01*
X61764488Y-121297287D01*
X61855608Y-121279162D01*
X62076540Y-121131540D01*
X63981540Y-119226540D01*
X64129162Y-119005608D01*
X64181001Y-118745000D01*
X64181000Y-118744995D01*
X64181000Y-113947080D01*
X65251540Y-112876540D01*
X65399162Y-112655608D01*
X65451000Y-112395000D01*
X65451000Y-109220000D01*
X65422484Y-109076639D01*
X65399162Y-108959392D01*
X65251540Y-108738460D01*
X64181000Y-107667920D01*
X64181000Y-102378361D01*
X88175975Y-102378361D01*
X88285950Y-102644521D01*
X88489408Y-102848335D01*
X88755376Y-102958774D01*
X89043361Y-102959025D01*
X89309521Y-102849050D01*
X89392716Y-102766000D01*
X90793052Y-102766000D01*
X90623952Y-102935100D01*
X90580592Y-102891665D01*
X90314624Y-102781226D01*
X90026639Y-102780975D01*
X89760479Y-102890950D01*
X89556665Y-103094408D01*
X89446226Y-103360376D01*
X89445975Y-103648361D01*
X89555950Y-103914521D01*
X89759408Y-104118335D01*
X90025376Y-104228774D01*
X90313361Y-104229025D01*
X90579521Y-104119050D01*
X90662716Y-104036000D01*
X90805000Y-104036000D01*
X91008205Y-103995580D01*
X91180474Y-103880474D01*
X94719000Y-100341948D01*
X94719000Y-100472217D01*
X94636665Y-100554408D01*
X94526226Y-100820376D01*
X94525975Y-101108361D01*
X94635950Y-101374521D01*
X94839408Y-101578335D01*
X95105376Y-101688774D01*
X95393361Y-101689025D01*
X95659521Y-101579050D01*
X95863335Y-101375592D01*
X95973774Y-101109624D01*
X95974025Y-100821639D01*
X95864050Y-100555479D01*
X95819798Y-100511150D01*
X97182024Y-99148924D01*
X97298361Y-99149025D01*
X97564521Y-99039050D01*
X97768335Y-98835592D01*
X97878774Y-98569624D01*
X97879025Y-98281639D01*
X97769050Y-98015479D01*
X97565592Y-97811665D01*
X97513617Y-97790083D01*
X97564521Y-97769050D01*
X97768335Y-97565592D01*
X97878774Y-97299624D01*
X97879025Y-97011639D01*
X97769050Y-96745479D01*
X97565592Y-96541665D01*
X97299624Y-96431226D01*
X97011639Y-96430975D01*
X96745479Y-96540950D01*
X96541665Y-96744408D01*
X96520083Y-96796383D01*
X96499050Y-96745479D01*
X96295592Y-96541665D01*
X96029624Y-96431226D01*
X95741639Y-96430975D01*
X95475479Y-96540950D01*
X95271665Y-96744408D01*
X95161226Y-97010376D01*
X95161124Y-97127928D01*
X90585052Y-101704000D01*
X89392783Y-101704000D01*
X89310592Y-101621665D01*
X89044624Y-101511226D01*
X88756639Y-101510975D01*
X88490479Y-101620950D01*
X88286665Y-101824408D01*
X88176226Y-102090376D01*
X88175975Y-102378361D01*
X64181000Y-102378361D01*
X64181000Y-100581510D01*
X69849780Y-100581510D01*
X70042718Y-101048458D01*
X70399663Y-101406026D01*
X70866273Y-101599779D01*
X71371510Y-101600220D01*
X71838458Y-101407282D01*
X72196026Y-101050337D01*
X72389779Y-100583727D01*
X72389780Y-100581510D01*
X74929780Y-100581510D01*
X75122718Y-101048458D01*
X75479663Y-101406026D01*
X75946273Y-101599779D01*
X76451510Y-101600220D01*
X76918458Y-101407282D01*
X77276026Y-101050337D01*
X77469779Y-100583727D01*
X77470220Y-100078490D01*
X77277282Y-99611542D01*
X76920337Y-99253974D01*
X76453727Y-99060221D01*
X75948490Y-99059780D01*
X75481542Y-99252718D01*
X75123974Y-99609663D01*
X74930221Y-100076273D01*
X74929780Y-100581510D01*
X72389780Y-100581510D01*
X72390220Y-100078490D01*
X72197282Y-99611542D01*
X71840337Y-99253974D01*
X71373727Y-99060221D01*
X70868490Y-99059780D01*
X70401542Y-99252718D01*
X70043974Y-99609663D01*
X69850221Y-100076273D01*
X69849780Y-100581510D01*
X64181000Y-100581510D01*
X64181000Y-99357791D01*
X64520617Y-99290237D01*
X65385854Y-98712104D01*
X65963987Y-97846867D01*
X66167000Y-96826250D01*
X66167000Y-96721750D01*
X65963987Y-95701133D01*
X65385854Y-94835896D01*
X64520617Y-94257763D01*
X63500000Y-94054750D01*
X62479383Y-94257763D01*
X61614146Y-94835896D01*
X61036013Y-95701133D01*
X60833000Y-96721750D01*
X60833000Y-96826250D01*
X61036013Y-97846867D01*
X61614146Y-98712104D01*
X62479383Y-99290237D01*
X62819000Y-99357791D01*
X62819000Y-107950000D01*
X62870838Y-108210608D01*
X63018460Y-108431540D01*
X64089000Y-109502080D01*
X64089000Y-112112920D01*
X63018460Y-113183460D01*
X62870838Y-113404392D01*
X62870838Y-113404393D01*
X62819000Y-113665000D01*
X62819000Y-118462920D01*
X61312920Y-119969000D01*
X59302636Y-119969000D01*
X59199624Y-119926226D01*
X58911639Y-119925975D01*
X58645479Y-120035950D01*
X58441665Y-120239408D01*
X58331226Y-120505376D01*
X58330975Y-120793361D01*
X38544500Y-120793361D01*
X38544500Y-93938250D01*
X56923940Y-93938250D01*
X56923940Y-94021750D01*
X57086157Y-94837271D01*
X57548113Y-95528637D01*
X58239479Y-95990593D01*
X59055000Y-96152810D01*
X59870521Y-95990593D01*
X60561887Y-95528637D01*
X61023843Y-94837271D01*
X61186060Y-94021750D01*
X61186060Y-93938250D01*
X61023843Y-93122729D01*
X60561887Y-92431363D01*
X59870521Y-91969407D01*
X59055000Y-91807190D01*
X58239479Y-91969407D01*
X57548113Y-92431363D01*
X57086157Y-93122729D01*
X56923940Y-93938250D01*
X38544500Y-93938250D01*
X38544500Y-90712175D01*
X60888685Y-90712175D01*
X61294941Y-91670211D01*
X62036897Y-92399854D01*
X62957826Y-92781309D01*
X63373000Y-92675033D01*
X63373000Y-90297000D01*
X63627000Y-90297000D01*
X63627000Y-92675033D01*
X64042174Y-92781309D01*
X64963103Y-92399854D01*
X65705059Y-91670211D01*
X66111315Y-90712175D01*
X66005230Y-90297000D01*
X63627000Y-90297000D01*
X63373000Y-90297000D01*
X60994770Y-90297000D01*
X60888685Y-90712175D01*
X38544500Y-90712175D01*
X38544500Y-89627825D01*
X60888685Y-89627825D01*
X60994770Y-90043000D01*
X63373000Y-90043000D01*
X63373000Y-87664967D01*
X63627000Y-87664967D01*
X63627000Y-90043000D01*
X66005230Y-90043000D01*
X66111315Y-89627825D01*
X65705059Y-88669789D01*
X64963103Y-87940146D01*
X64042174Y-87558691D01*
X63627000Y-87664967D01*
X63373000Y-87664967D01*
X62957826Y-87558691D01*
X62036897Y-87940146D01*
X61294941Y-88669789D01*
X60888685Y-89627825D01*
X38544500Y-89627825D01*
X38544500Y-86837870D01*
X40766583Y-86837870D01*
X41133166Y-87725069D01*
X41811361Y-88404449D01*
X42697919Y-88772580D01*
X43657870Y-88773417D01*
X44545069Y-88406834D01*
X45224449Y-87728639D01*
X45592580Y-86842081D01*
X45593417Y-85882130D01*
X45226834Y-84994931D01*
X44548639Y-84315551D01*
X43662081Y-83947420D01*
X42702130Y-83946583D01*
X41814931Y-84313166D01*
X41135551Y-84991361D01*
X40767420Y-85877919D01*
X40766583Y-86837870D01*
X38544500Y-86837870D01*
X38544500Y-82994500D01*
X121475500Y-82994500D01*
X121475500Y-171005500D01*
X121475500Y-171005500D01*
G37*
X121475500Y-171005500D02*
X38544500Y-171005500D01*
X38544500Y-168117870D01*
X40766583Y-168117870D01*
X41133166Y-169005069D01*
X41811361Y-169684449D01*
X42697919Y-170052580D01*
X43657870Y-170053417D01*
X44545069Y-169686834D01*
X45224449Y-169008639D01*
X45592580Y-168122081D01*
X45593417Y-167162130D01*
X45226834Y-166274931D01*
X44548639Y-165595551D01*
X43662081Y-165227420D01*
X42702130Y-165226583D01*
X41814931Y-165593166D01*
X41135551Y-166271361D01*
X40767420Y-167157919D01*
X40766583Y-168117870D01*
X38544500Y-168117870D01*
X38544500Y-164189026D01*
X56177642Y-164189026D01*
X56180291Y-164204791D01*
X56434268Y-164732036D01*
X56870680Y-165121954D01*
X57143243Y-165217296D01*
X57128943Y-165220140D01*
X56725166Y-165489935D01*
X56455371Y-165893712D01*
X56360631Y-166370000D01*
X56455371Y-166846288D01*
X56725166Y-167250065D01*
X57128943Y-167519860D01*
X57605231Y-167614600D01*
X57964769Y-167614600D01*
X58441057Y-167519860D01*
X58844834Y-167250065D01*
X59114629Y-166846288D01*
X59152529Y-166655750D01*
X68850000Y-166655750D01*
X68850000Y-167496310D01*
X68946673Y-167729699D01*
X69125302Y-167908327D01*
X69358691Y-168005000D01*
X70199250Y-168005000D01*
X70358000Y-167846250D01*
X70358000Y-166497000D01*
X70612000Y-166497000D01*
X70612000Y-167846250D01*
X70770750Y-168005000D01*
X71611309Y-168005000D01*
X71844698Y-167908327D01*
X72023327Y-167729699D01*
X72120000Y-167496310D01*
X72120000Y-166655750D01*
X71961250Y-166497000D01*
X70612000Y-166497000D01*
X70358000Y-166497000D01*
X69008750Y-166497000D01*
X68850000Y-166655750D01*
X59152529Y-166655750D01*
X59209369Y-166370000D01*
X76201017Y-166370000D01*
X76295757Y-166846288D01*
X76565552Y-167250065D01*
X76969329Y-167519860D01*
X77445617Y-167614600D01*
X77494383Y-167614600D01*
X77970671Y-167519860D01*
X78374448Y-167250065D01*
X78644243Y-166846288D01*
X78738983Y-166370000D01*
X78741017Y-166370000D01*
X78835757Y-166846288D01*
X79105552Y-167250065D01*
X79509329Y-167519860D01*
X79985617Y-167614600D01*
X80034383Y-167614600D01*
X80510671Y-167519860D01*
X80914448Y-167250065D01*
X81184243Y-166846288D01*
X81278983Y-166370000D01*
X96521017Y-166370000D01*
X96615757Y-166846288D01*
X96885552Y-167250065D01*
X97289329Y-167519860D01*
X97765617Y-167614600D01*
X97814383Y-167614600D01*
X98146817Y-167548475D01*
X99284171Y-168685829D01*
X99472661Y-168811774D01*
X99695000Y-168856000D01*
X111125000Y-168856000D01*
X111347339Y-168811774D01*
X111535829Y-168685829D01*
X113492632Y-166729026D01*
X116502642Y-166729026D01*
X116505291Y-166744791D01*
X116759268Y-167272036D01*
X117195680Y-167661954D01*
X117748087Y-167855184D01*
X117983000Y-167710924D01*
X117983000Y-166497000D01*
X118237000Y-166497000D01*
X118237000Y-167710924D01*
X118471913Y-167855184D01*
X119024320Y-167661954D01*
X119460732Y-167272036D01*
X119714709Y-166744791D01*
X119717358Y-166729026D01*
X119596217Y-166497000D01*
X118237000Y-166497000D01*
X117983000Y-166497000D01*
X116623783Y-166497000D01*
X116502642Y-166729026D01*
X113492632Y-166729026D01*
X116032632Y-164189026D01*
X116502642Y-164189026D01*
X116505291Y-164204791D01*
X116759268Y-164732036D01*
X117171108Y-165100000D01*
X116759268Y-165467964D01*
X116505291Y-165995209D01*
X116502642Y-166010974D01*
X116623783Y-166243000D01*
X117983000Y-166243000D01*
X117983000Y-163957000D01*
X118237000Y-163957000D01*
X118237000Y-166243000D01*
X119596217Y-166243000D01*
X119717358Y-166010974D01*
X119714709Y-165995209D01*
X119460732Y-165467964D01*
X119048892Y-165100000D01*
X119460732Y-164732036D01*
X119714709Y-164204791D01*
X119717358Y-164189026D01*
X119596217Y-163957000D01*
X118237000Y-163957000D01*
X117983000Y-163957000D01*
X116623783Y-163957000D01*
X116502642Y-164189026D01*
X116032632Y-164189026D01*
X116587724Y-163633934D01*
X116623783Y-163703000D01*
X117983000Y-163703000D01*
X117983000Y-163683000D01*
X118237000Y-163683000D01*
X118237000Y-163703000D01*
X119596217Y-163703000D01*
X119717358Y-163470974D01*
X119714709Y-163455209D01*
X119460732Y-162927964D01*
X119024320Y-162538046D01*
X118751757Y-162442704D01*
X118766057Y-162439860D01*
X119169834Y-162170065D01*
X119439629Y-161766288D01*
X119534369Y-161290000D01*
X119439629Y-160813712D01*
X119169834Y-160409935D01*
X118766057Y-160140140D01*
X118289769Y-160045400D01*
X117930231Y-160045400D01*
X117453943Y-160140140D01*
X117050166Y-160409935D01*
X116780371Y-160813712D01*
X116685631Y-161290000D01*
X116780371Y-161766288D01*
X116793061Y-161785281D01*
X110884342Y-167694000D01*
X101631225Y-167694000D01*
X101731927Y-167593299D01*
X101828600Y-167359910D01*
X101828600Y-166655750D01*
X101669850Y-166497000D01*
X100457000Y-166497000D01*
X100457000Y-166517000D01*
X100203000Y-166517000D01*
X100203000Y-166497000D01*
X100183000Y-166497000D01*
X100183000Y-166243000D01*
X100203000Y-166243000D01*
X100203000Y-166223000D01*
X100457000Y-166223000D01*
X100457000Y-166243000D01*
X101669850Y-166243000D01*
X101828600Y-166084250D01*
X101828600Y-165380090D01*
X101731927Y-165146701D01*
X101553298Y-164968073D01*
X101319909Y-164871400D01*
X100992993Y-164871400D01*
X101234448Y-164710065D01*
X101504243Y-164306288D01*
X101598983Y-163830000D01*
X101504243Y-163353712D01*
X101234448Y-162949935D01*
X100830671Y-162680140D01*
X100354383Y-162585400D01*
X100305617Y-162585400D01*
X99829329Y-162680140D01*
X99425552Y-162949935D01*
X99155757Y-163353712D01*
X99061017Y-163830000D01*
X99155757Y-164306288D01*
X99425552Y-164710065D01*
X99667007Y-164871400D01*
X99340091Y-164871400D01*
X99106702Y-164968073D01*
X98928073Y-165146701D01*
X98831400Y-165380090D01*
X98831400Y-165694898D01*
X98694448Y-165489935D01*
X98290671Y-165220140D01*
X97814383Y-165125400D01*
X97765617Y-165125400D01*
X97289329Y-165220140D01*
X96885552Y-165489935D01*
X96615757Y-165893712D01*
X96521017Y-166370000D01*
X81278983Y-166370000D01*
X81184243Y-165893712D01*
X80914448Y-165489935D01*
X80510671Y-165220140D01*
X80034383Y-165125400D01*
X79985617Y-165125400D01*
X79509329Y-165220140D01*
X79105552Y-165489935D01*
X78835757Y-165893712D01*
X78741017Y-166370000D01*
X78738983Y-166370000D01*
X78644243Y-165893712D01*
X78374448Y-165489935D01*
X77970671Y-165220140D01*
X77494383Y-165125400D01*
X77445617Y-165125400D01*
X76969329Y-165220140D01*
X76565552Y-165489935D01*
X76295757Y-165893712D01*
X76201017Y-166370000D01*
X59209369Y-166370000D01*
X59114629Y-165893712D01*
X58844834Y-165489935D01*
X58476303Y-165243690D01*
X68850000Y-165243690D01*
X68850000Y-166084250D01*
X69008750Y-166243000D01*
X70358000Y-166243000D01*
X70358000Y-166223000D01*
X70612000Y-166223000D01*
X70612000Y-166243000D01*
X71961250Y-166243000D01*
X72120000Y-166084250D01*
X72120000Y-165243690D01*
X72023327Y-165010301D01*
X71844698Y-164831673D01*
X71611309Y-164735000D01*
X71533154Y-164735000D01*
X71655072Y-164613295D01*
X71865759Y-164105903D01*
X71866000Y-163830000D01*
X76201017Y-163830000D01*
X76295757Y-164306288D01*
X76565552Y-164710065D01*
X76969329Y-164979860D01*
X77445617Y-165074600D01*
X77494383Y-165074600D01*
X77970671Y-164979860D01*
X78374448Y-164710065D01*
X78644243Y-164306288D01*
X78738983Y-163830000D01*
X78741017Y-163830000D01*
X78835757Y-164306288D01*
X79105552Y-164710065D01*
X79509329Y-164979860D01*
X79985617Y-165074600D01*
X80034383Y-165074600D01*
X80510671Y-164979860D01*
X80914448Y-164710065D01*
X81184243Y-164306288D01*
X81278983Y-163830000D01*
X96521017Y-163830000D01*
X96615757Y-164306288D01*
X96885552Y-164710065D01*
X97289329Y-164979860D01*
X97765617Y-165074600D01*
X97814383Y-165074600D01*
X98290671Y-164979860D01*
X98694448Y-164710065D01*
X98964243Y-164306288D01*
X99058983Y-163830000D01*
X98964243Y-163353712D01*
X98694448Y-162949935D01*
X98290671Y-162680140D01*
X97814383Y-162585400D01*
X97765617Y-162585400D01*
X97289329Y-162680140D01*
X96885552Y-162949935D01*
X96615757Y-163353712D01*
X96521017Y-163830000D01*
X81278983Y-163830000D01*
X81184243Y-163353712D01*
X80914448Y-162949935D01*
X80510671Y-162680140D01*
X80034383Y-162585400D01*
X79985617Y-162585400D01*
X79509329Y-162680140D01*
X79105552Y-162949935D01*
X78835757Y-163353712D01*
X78741017Y-163830000D01*
X78738983Y-163830000D01*
X78644243Y-163353712D01*
X78374448Y-162949935D01*
X77970671Y-162680140D01*
X77494383Y-162585400D01*
X77445617Y-162585400D01*
X76969329Y-162680140D01*
X76565552Y-162949935D01*
X76295757Y-163353712D01*
X76201017Y-163830000D01*
X71866000Y-163830000D01*
X71866239Y-163556507D01*
X71656437Y-163048749D01*
X71268295Y-162659928D01*
X70760903Y-162449241D01*
X70211507Y-162448761D01*
X69703749Y-162658563D01*
X69314928Y-163046705D01*
X69104241Y-163554097D01*
X69103761Y-164103493D01*
X69313563Y-164611251D01*
X69437096Y-164735000D01*
X69358691Y-164735000D01*
X69125302Y-164831673D01*
X68946673Y-165010301D01*
X68850000Y-165243690D01*
X58476303Y-165243690D01*
X58441057Y-165220140D01*
X58426757Y-165217296D01*
X58699320Y-165121954D01*
X59135732Y-164732036D01*
X59389709Y-164204791D01*
X59392358Y-164189026D01*
X59271217Y-163957000D01*
X57912000Y-163957000D01*
X57912000Y-163977000D01*
X57658000Y-163977000D01*
X57658000Y-163957000D01*
X56298783Y-163957000D01*
X56177642Y-164189026D01*
X38544500Y-164189026D01*
X38544500Y-163470974D01*
X56177642Y-163470974D01*
X56298783Y-163703000D01*
X57658000Y-163703000D01*
X57658000Y-163683000D01*
X57912000Y-163683000D01*
X57912000Y-163703000D01*
X59271217Y-163703000D01*
X59392358Y-163470974D01*
X59389709Y-163455209D01*
X59135732Y-162927964D01*
X58699320Y-162538046D01*
X58426757Y-162442704D01*
X58441057Y-162439860D01*
X58844834Y-162170065D01*
X59114629Y-161766288D01*
X59209369Y-161290000D01*
X76201017Y-161290000D01*
X76295757Y-161766288D01*
X76565552Y-162170065D01*
X76969329Y-162439860D01*
X77445617Y-162534600D01*
X77494383Y-162534600D01*
X77970671Y-162439860D01*
X78374448Y-162170065D01*
X78644243Y-161766288D01*
X78738983Y-161290000D01*
X78741017Y-161290000D01*
X78835757Y-161766288D01*
X79105552Y-162170065D01*
X79509329Y-162439860D01*
X79985617Y-162534600D01*
X80034383Y-162534600D01*
X80510671Y-162439860D01*
X80914448Y-162170065D01*
X81184243Y-161766288D01*
X81278983Y-161290000D01*
X96521017Y-161290000D01*
X96615757Y-161766288D01*
X96885552Y-162170065D01*
X97289329Y-162439860D01*
X97765617Y-162534600D01*
X97814383Y-162534600D01*
X98290671Y-162439860D01*
X98694448Y-162170065D01*
X98964243Y-161766288D01*
X99058983Y-161290000D01*
X99061017Y-161290000D01*
X99155757Y-161766288D01*
X99425552Y-162170065D01*
X99829329Y-162439860D01*
X100305617Y-162534600D01*
X100354383Y-162534600D01*
X100830671Y-162439860D01*
X101234448Y-162170065D01*
X101504243Y-161766288D01*
X101598983Y-161290000D01*
X101504243Y-160813712D01*
X101234448Y-160409935D01*
X100830671Y-160140140D01*
X100354383Y-160045400D01*
X100305617Y-160045400D01*
X99829329Y-160140140D01*
X99425552Y-160409935D01*
X99155757Y-160813712D01*
X99061017Y-161290000D01*
X99058983Y-161290000D01*
X98964243Y-160813712D01*
X98694448Y-160409935D01*
X98290671Y-160140140D01*
X97814383Y-160045400D01*
X97765617Y-160045400D01*
X97289329Y-160140140D01*
X96885552Y-160409935D01*
X96615757Y-160813712D01*
X96521017Y-161290000D01*
X81278983Y-161290000D01*
X81184243Y-160813712D01*
X80914448Y-160409935D01*
X80510671Y-160140140D01*
X80034383Y-160045400D01*
X79985617Y-160045400D01*
X79509329Y-160140140D01*
X79105552Y-160409935D01*
X78835757Y-160813712D01*
X78741017Y-161290000D01*
X78738983Y-161290000D01*
X78644243Y-160813712D01*
X78374448Y-160409935D01*
X77970671Y-160140140D01*
X77494383Y-160045400D01*
X77445617Y-160045400D01*
X76969329Y-160140140D01*
X76565552Y-160409935D01*
X76295757Y-160813712D01*
X76201017Y-161290000D01*
X59209369Y-161290000D01*
X59114629Y-160813712D01*
X58844834Y-160409935D01*
X58441057Y-160140140D01*
X57964769Y-160045400D01*
X57605231Y-160045400D01*
X57128943Y-160140140D01*
X56725166Y-160409935D01*
X56455371Y-160813712D01*
X56360631Y-161290000D01*
X56455371Y-161766288D01*
X56725166Y-162170065D01*
X57128943Y-162439860D01*
X57143243Y-162442704D01*
X56870680Y-162538046D01*
X56434268Y-162927964D01*
X56180291Y-163455209D01*
X56177642Y-163470974D01*
X38544500Y-163470974D01*
X38544500Y-156495750D01*
X56134000Y-156495750D01*
X56134000Y-157199910D01*
X56230673Y-157433299D01*
X56409302Y-157611927D01*
X56642691Y-157708600D01*
X56966621Y-157708600D01*
X56725166Y-157869935D01*
X56455371Y-158273712D01*
X56360631Y-158750000D01*
X56455371Y-159226288D01*
X56725166Y-159630065D01*
X57128943Y-159899860D01*
X57605231Y-159994600D01*
X57964769Y-159994600D01*
X58441057Y-159899860D01*
X58844834Y-159630065D01*
X59114629Y-159226288D01*
X59209369Y-158750000D01*
X76201017Y-158750000D01*
X76295757Y-159226288D01*
X76565552Y-159630065D01*
X76969329Y-159899860D01*
X77445617Y-159994600D01*
X77494383Y-159994600D01*
X77970671Y-159899860D01*
X78374448Y-159630065D01*
X78644243Y-159226288D01*
X78738983Y-158750000D01*
X78741017Y-158750000D01*
X78835757Y-159226288D01*
X79105552Y-159630065D01*
X79509329Y-159899860D01*
X79985617Y-159994600D01*
X80034383Y-159994600D01*
X80510671Y-159899860D01*
X80914448Y-159630065D01*
X81184243Y-159226288D01*
X81278983Y-158750000D01*
X96521017Y-158750000D01*
X96615757Y-159226288D01*
X96885552Y-159630065D01*
X97289329Y-159899860D01*
X97765617Y-159994600D01*
X97814383Y-159994600D01*
X98290671Y-159899860D01*
X98694448Y-159630065D01*
X98964243Y-159226288D01*
X99058983Y-158750000D01*
X99061017Y-158750000D01*
X99155757Y-159226288D01*
X99425552Y-159630065D01*
X99829329Y-159899860D01*
X100305617Y-159994600D01*
X100354383Y-159994600D01*
X100830671Y-159899860D01*
X101234448Y-159630065D01*
X101504243Y-159226288D01*
X101598983Y-158750000D01*
X116685631Y-158750000D01*
X116780371Y-159226288D01*
X117050166Y-159630065D01*
X117453943Y-159899860D01*
X117930231Y-159994600D01*
X118289769Y-159994600D01*
X118766057Y-159899860D01*
X119169834Y-159630065D01*
X119439629Y-159226288D01*
X119534369Y-158750000D01*
X119439629Y-158273712D01*
X119169834Y-157869935D01*
X118766057Y-157600140D01*
X118289769Y-157505400D01*
X117930231Y-157505400D01*
X117453943Y-157600140D01*
X117050166Y-157869935D01*
X116780371Y-158273712D01*
X116685631Y-158750000D01*
X101598983Y-158750000D01*
X101504243Y-158273712D01*
X101234448Y-157869935D01*
X100830671Y-157600140D01*
X100354383Y-157505400D01*
X100305617Y-157505400D01*
X99829329Y-157600140D01*
X99425552Y-157869935D01*
X99155757Y-158273712D01*
X99061017Y-158750000D01*
X99058983Y-158750000D01*
X98964243Y-158273712D01*
X98694448Y-157869935D01*
X98290671Y-157600140D01*
X97814383Y-157505400D01*
X97765617Y-157505400D01*
X97289329Y-157600140D01*
X96885552Y-157869935D01*
X96615757Y-158273712D01*
X96521017Y-158750000D01*
X81278983Y-158750000D01*
X81184243Y-158273712D01*
X80914448Y-157869935D01*
X80510671Y-157600140D01*
X80034383Y-157505400D01*
X79985617Y-157505400D01*
X79509329Y-157600140D01*
X79105552Y-157869935D01*
X78835757Y-158273712D01*
X78741017Y-158750000D01*
X78738983Y-158750000D01*
X78644243Y-158273712D01*
X78374448Y-157869935D01*
X77970671Y-157600140D01*
X77494383Y-157505400D01*
X77445617Y-157505400D01*
X76969329Y-157600140D01*
X76565552Y-157869935D01*
X76295757Y-158273712D01*
X76201017Y-158750000D01*
X59209369Y-158750000D01*
X59114629Y-158273712D01*
X58844834Y-157869935D01*
X58603379Y-157708600D01*
X58927309Y-157708600D01*
X59160698Y-157611927D01*
X59339327Y-157433299D01*
X59436000Y-157199910D01*
X59436000Y-156495750D01*
X59277250Y-156337000D01*
X57912000Y-156337000D01*
X57912000Y-156357000D01*
X57658000Y-156357000D01*
X57658000Y-156337000D01*
X56292750Y-156337000D01*
X56134000Y-156495750D01*
X38544500Y-156495750D01*
X38544500Y-156210000D01*
X76201017Y-156210000D01*
X76295757Y-156686288D01*
X76565552Y-157090065D01*
X76969329Y-157359860D01*
X77445617Y-157454600D01*
X77494383Y-157454600D01*
X77970671Y-157359860D01*
X78374448Y-157090065D01*
X78644243Y-156686288D01*
X78738983Y-156210000D01*
X78741017Y-156210000D01*
X78835757Y-156686288D01*
X79105552Y-157090065D01*
X79509329Y-157359860D01*
X79985617Y-157454600D01*
X80034383Y-157454600D01*
X80510671Y-157359860D01*
X80914448Y-157090065D01*
X81184243Y-156686288D01*
X81278983Y-156210000D01*
X96521017Y-156210000D01*
X96615757Y-156686288D01*
X96885552Y-157090065D01*
X97289329Y-157359860D01*
X97765617Y-157454600D01*
X97814383Y-157454600D01*
X98290671Y-157359860D01*
X98694448Y-157090065D01*
X98964243Y-156686288D01*
X99058983Y-156210000D01*
X99061017Y-156210000D01*
X99155757Y-156686288D01*
X99425552Y-157090065D01*
X99829329Y-157359860D01*
X100305617Y-157454600D01*
X100354383Y-157454600D01*
X100830671Y-157359860D01*
X101234448Y-157090065D01*
X101504243Y-156686288D01*
X101598983Y-156210000D01*
X116685631Y-156210000D01*
X116780371Y-156686288D01*
X117050166Y-157090065D01*
X117453943Y-157359860D01*
X117930231Y-157454600D01*
X118289769Y-157454600D01*
X118766057Y-157359860D01*
X119169834Y-157090065D01*
X119439629Y-156686288D01*
X119534369Y-156210000D01*
X119439629Y-155733712D01*
X119169834Y-155329935D01*
X118766057Y-155060140D01*
X118289769Y-154965400D01*
X117930231Y-154965400D01*
X117453943Y-155060140D01*
X117050166Y-155329935D01*
X116780371Y-155733712D01*
X116685631Y-156210000D01*
X101598983Y-156210000D01*
X101504243Y-155733712D01*
X101234448Y-155329935D01*
X100830671Y-155060140D01*
X100354383Y-154965400D01*
X100305617Y-154965400D01*
X99829329Y-155060140D01*
X99425552Y-155329935D01*
X99155757Y-155733712D01*
X99061017Y-156210000D01*
X99058983Y-156210000D01*
X98964243Y-155733712D01*
X98694448Y-155329935D01*
X98290671Y-155060140D01*
X97814383Y-154965400D01*
X97765617Y-154965400D01*
X97289329Y-155060140D01*
X96885552Y-155329935D01*
X96615757Y-155733712D01*
X96521017Y-156210000D01*
X81278983Y-156210000D01*
X81184243Y-155733712D01*
X80914448Y-155329935D01*
X80510671Y-155060140D01*
X80034383Y-154965400D01*
X79985617Y-154965400D01*
X79509329Y-155060140D01*
X79105552Y-155329935D01*
X78835757Y-155733712D01*
X78741017Y-156210000D01*
X78738983Y-156210000D01*
X78644243Y-155733712D01*
X78374448Y-155329935D01*
X77970671Y-155060140D01*
X77494383Y-154965400D01*
X77445617Y-154965400D01*
X76969329Y-155060140D01*
X76565552Y-155329935D01*
X76295757Y-155733712D01*
X76201017Y-156210000D01*
X38544500Y-156210000D01*
X38544500Y-155220090D01*
X56134000Y-155220090D01*
X56134000Y-155924250D01*
X56292750Y-156083000D01*
X57658000Y-156083000D01*
X57658000Y-154870150D01*
X57912000Y-154870150D01*
X57912000Y-156083000D01*
X59277250Y-156083000D01*
X59436000Y-155924250D01*
X59436000Y-155220090D01*
X59339327Y-154986701D01*
X59160698Y-154808073D01*
X58927309Y-154711400D01*
X58070750Y-154711400D01*
X57912000Y-154870150D01*
X57658000Y-154870150D01*
X57499250Y-154711400D01*
X56642691Y-154711400D01*
X56409302Y-154808073D01*
X56230673Y-154986701D01*
X56134000Y-155220090D01*
X38544500Y-155220090D01*
X38544500Y-153670000D01*
X76201017Y-153670000D01*
X76295757Y-154146288D01*
X76565552Y-154550065D01*
X76969329Y-154819860D01*
X77445617Y-154914600D01*
X77494383Y-154914600D01*
X77970671Y-154819860D01*
X78374448Y-154550065D01*
X78644243Y-154146288D01*
X78738983Y-153670000D01*
X78644243Y-153193712D01*
X78374448Y-152789935D01*
X77970671Y-152520140D01*
X77494383Y-152425400D01*
X77445617Y-152425400D01*
X76969329Y-152520140D01*
X76565552Y-152789935D01*
X76295757Y-153193712D01*
X76201017Y-153670000D01*
X38544500Y-153670000D01*
X38544500Y-151130000D01*
X76201017Y-151130000D01*
X76295757Y-151606288D01*
X76565552Y-152010065D01*
X76969329Y-152279860D01*
X77445617Y-152374600D01*
X77494383Y-152374600D01*
X77970671Y-152279860D01*
X78374448Y-152010065D01*
X78511400Y-151805102D01*
X78511400Y-152119910D01*
X78608073Y-152353299D01*
X78786702Y-152531927D01*
X79020091Y-152628600D01*
X79347007Y-152628600D01*
X79105552Y-152789935D01*
X78835757Y-153193712D01*
X78741017Y-153670000D01*
X78835757Y-154146288D01*
X79105552Y-154550065D01*
X79509329Y-154819860D01*
X79985617Y-154914600D01*
X80034383Y-154914600D01*
X80510671Y-154819860D01*
X80914448Y-154550065D01*
X81184243Y-154146288D01*
X81278983Y-153670000D01*
X81184243Y-153193712D01*
X80925450Y-152806400D01*
X116705536Y-152806400D01*
X116705536Y-154533600D01*
X116732103Y-154674790D01*
X116815546Y-154804465D01*
X116942866Y-154891459D01*
X117094000Y-154922064D01*
X119126000Y-154922064D01*
X119267190Y-154895497D01*
X119396865Y-154812054D01*
X119483859Y-154684734D01*
X119514464Y-154533600D01*
X119514464Y-152806400D01*
X119487897Y-152665210D01*
X119404454Y-152535535D01*
X119277134Y-152448541D01*
X119126000Y-152417936D01*
X117094000Y-152417936D01*
X116952810Y-152444503D01*
X116823135Y-152527946D01*
X116736141Y-152655266D01*
X116705536Y-152806400D01*
X80925450Y-152806400D01*
X80914448Y-152789935D01*
X80672993Y-152628600D01*
X80999909Y-152628600D01*
X81233298Y-152531927D01*
X81411927Y-152353299D01*
X81508600Y-152119910D01*
X81508600Y-151415750D01*
X81349850Y-151257000D01*
X80137000Y-151257000D01*
X80137000Y-151277000D01*
X79883000Y-151277000D01*
X79883000Y-151257000D01*
X79863000Y-151257000D01*
X79863000Y-151003000D01*
X79883000Y-151003000D01*
X79883000Y-149790150D01*
X80137000Y-149790150D01*
X80137000Y-151003000D01*
X81349850Y-151003000D01*
X81508600Y-150844250D01*
X81508600Y-150140090D01*
X81411927Y-149906701D01*
X81233298Y-149728073D01*
X80999909Y-149631400D01*
X80295750Y-149631400D01*
X80137000Y-149790150D01*
X79883000Y-149790150D01*
X79724250Y-149631400D01*
X79020091Y-149631400D01*
X78786702Y-149728073D01*
X78608073Y-149906701D01*
X78511400Y-150140090D01*
X78511400Y-150454898D01*
X78374448Y-150249935D01*
X77970671Y-149980140D01*
X77494383Y-149885400D01*
X77445617Y-149885400D01*
X76969329Y-149980140D01*
X76565552Y-150249935D01*
X76295757Y-150653712D01*
X76201017Y-151130000D01*
X38544500Y-151130000D01*
X38544500Y-143653361D01*
X65315975Y-143653361D01*
X65425950Y-143919521D01*
X65629408Y-144123335D01*
X65895376Y-144233774D01*
X66183361Y-144234025D01*
X66408499Y-144141000D01*
X68318632Y-144141000D01*
X69143566Y-144965935D01*
X69235950Y-145189521D01*
X69439408Y-145393335D01*
X69705376Y-145503774D01*
X69993361Y-145504025D01*
X70259521Y-145394050D01*
X70463335Y-145190592D01*
X70573774Y-144924624D01*
X70574025Y-144636639D01*
X70464050Y-144370479D01*
X70260592Y-144166665D01*
X70035616Y-144073247D01*
X69026184Y-143063816D01*
X68821473Y-142927032D01*
X68580000Y-142879000D01*
X66408050Y-142879000D01*
X66184624Y-142786226D01*
X65896639Y-142785975D01*
X65630479Y-142895950D01*
X65426665Y-143099408D01*
X65316226Y-143365376D01*
X65315975Y-143653361D01*
X38544500Y-143653361D01*
X38544500Y-142717870D01*
X114426583Y-142717870D01*
X114793166Y-143605069D01*
X115471361Y-144284449D01*
X116357919Y-144652580D01*
X117317870Y-144653417D01*
X118205069Y-144286834D01*
X118884449Y-143608639D01*
X119252580Y-142722081D01*
X119253417Y-141762130D01*
X118886834Y-140874931D01*
X118208639Y-140195551D01*
X117322081Y-139827420D01*
X116362130Y-139826583D01*
X115474931Y-140193166D01*
X114795551Y-140871361D01*
X114427420Y-141757919D01*
X114426583Y-142717870D01*
X38544500Y-142717870D01*
X38544500Y-138573361D01*
X57695975Y-138573361D01*
X57805950Y-138839521D01*
X58009408Y-139043335D01*
X58275376Y-139153774D01*
X58563361Y-139154025D01*
X58829521Y-139044050D01*
X58912716Y-138961000D01*
X69850000Y-138961000D01*
X70053205Y-138920580D01*
X70225474Y-138805474D01*
X71743948Y-137287000D01*
X79133700Y-137287000D01*
X79133700Y-137541000D01*
X79288641Y-138065941D01*
X79632674Y-138491630D01*
X80113423Y-138753260D01*
X80187630Y-138768220D01*
X80403700Y-138645720D01*
X80403700Y-137287000D01*
X80657700Y-137287000D01*
X80657700Y-138645720D01*
X80873770Y-138768220D01*
X80947977Y-138753260D01*
X81428726Y-138491630D01*
X81772759Y-138065941D01*
X81927700Y-137541000D01*
X81927700Y-137287000D01*
X80657700Y-137287000D01*
X80403700Y-137287000D01*
X79133700Y-137287000D01*
X71743948Y-137287000D01*
X72251948Y-136779000D01*
X79133700Y-136779000D01*
X79133700Y-137033000D01*
X80403700Y-137033000D01*
X80403700Y-135674280D01*
X80657700Y-135674280D01*
X80657700Y-137033000D01*
X81927700Y-137033000D01*
X81927700Y-136779000D01*
X81772759Y-136254059D01*
X81428726Y-135828370D01*
X81024953Y-135608631D01*
X106286300Y-135608631D01*
X106286300Y-136171369D01*
X106373306Y-136608776D01*
X106621077Y-136979592D01*
X106891077Y-137160000D01*
X106621077Y-137340408D01*
X106373306Y-137711224D01*
X106286300Y-138148631D01*
X106286300Y-138711369D01*
X106373306Y-139148776D01*
X106621077Y-139519592D01*
X106991893Y-139767363D01*
X107429300Y-139854369D01*
X107866707Y-139767363D01*
X108237523Y-139519592D01*
X108485294Y-139148776D01*
X108572300Y-138711369D01*
X108572300Y-138148631D01*
X108485294Y-137711224D01*
X108237523Y-137340408D01*
X107967523Y-137160000D01*
X108237523Y-136979592D01*
X108485294Y-136608776D01*
X108572300Y-136171369D01*
X108572300Y-135608631D01*
X108485294Y-135171224D01*
X108237523Y-134800408D01*
X107866707Y-134552637D01*
X107429300Y-134465631D01*
X106991893Y-134552637D01*
X106621077Y-134800408D01*
X106373306Y-135171224D01*
X106286300Y-135608631D01*
X81024953Y-135608631D01*
X80947977Y-135566740D01*
X80873770Y-135551780D01*
X80657700Y-135674280D01*
X80403700Y-135674280D01*
X80187630Y-135551780D01*
X80113423Y-135566740D01*
X79632674Y-135828370D01*
X79288641Y-136254059D01*
X79133700Y-136779000D01*
X72251948Y-136779000D01*
X74590717Y-134440231D01*
X109245400Y-134440231D01*
X109245400Y-134799769D01*
X109340140Y-135276057D01*
X109609935Y-135679834D01*
X110013712Y-135949629D01*
X110490000Y-136044369D01*
X110966288Y-135949629D01*
X111370065Y-135679834D01*
X111639860Y-135276057D01*
X111734600Y-134799769D01*
X111734600Y-134440231D01*
X111785400Y-134440231D01*
X111785400Y-134799769D01*
X111880140Y-135276057D01*
X112149935Y-135679834D01*
X112553712Y-135949629D01*
X113030000Y-136044369D01*
X113506288Y-135949629D01*
X113910065Y-135679834D01*
X114179860Y-135276057D01*
X114182704Y-135261757D01*
X114278046Y-135534320D01*
X114667964Y-135970732D01*
X115195209Y-136224709D01*
X115210974Y-136227358D01*
X115443000Y-136106217D01*
X115443000Y-134747000D01*
X115423000Y-134747000D01*
X115423000Y-134493000D01*
X115443000Y-134493000D01*
X115443000Y-133133783D01*
X115697000Y-133133783D01*
X115697000Y-134493000D01*
X115717000Y-134493000D01*
X115717000Y-134747000D01*
X115697000Y-134747000D01*
X115697000Y-136106217D01*
X115929026Y-136227358D01*
X115944791Y-136224709D01*
X116472036Y-135970732D01*
X116857936Y-135538817D01*
X116857936Y-135636000D01*
X116884503Y-135777190D01*
X116967946Y-135906865D01*
X117095266Y-135993859D01*
X117246400Y-136024464D01*
X118973600Y-136024464D01*
X119114790Y-135997897D01*
X119244465Y-135914454D01*
X119331459Y-135787134D01*
X119362064Y-135636000D01*
X119362064Y-133604000D01*
X119335497Y-133462810D01*
X119252054Y-133333135D01*
X119124734Y-133246141D01*
X118973600Y-133215536D01*
X117246400Y-133215536D01*
X117105210Y-133242103D01*
X116975535Y-133325546D01*
X116888541Y-133452866D01*
X116857936Y-133604000D01*
X116857936Y-133701183D01*
X116472036Y-133269268D01*
X115944791Y-133015291D01*
X115929026Y-133012642D01*
X115697000Y-133133783D01*
X115443000Y-133133783D01*
X115210974Y-133012642D01*
X115195209Y-133015291D01*
X114667964Y-133269268D01*
X114278046Y-133705680D01*
X114182704Y-133978243D01*
X114179860Y-133963943D01*
X113910065Y-133560166D01*
X113506288Y-133290371D01*
X113030000Y-133195631D01*
X112553712Y-133290371D01*
X112149935Y-133560166D01*
X111880140Y-133963943D01*
X111785400Y-134440231D01*
X111734600Y-134440231D01*
X111639860Y-133963943D01*
X111370065Y-133560166D01*
X110966288Y-133290371D01*
X110490000Y-133195631D01*
X110013712Y-133290371D01*
X109609935Y-133560166D01*
X109340140Y-133963943D01*
X109245400Y-134440231D01*
X74590717Y-134440231D01*
X80940717Y-128090231D01*
X109245400Y-128090231D01*
X109245400Y-128449769D01*
X109340140Y-128926057D01*
X109609935Y-129329834D01*
X110013712Y-129599629D01*
X110490000Y-129694369D01*
X110966288Y-129599629D01*
X111370065Y-129329834D01*
X111639860Y-128926057D01*
X111734600Y-128449769D01*
X111734600Y-128090231D01*
X111785400Y-128090231D01*
X111785400Y-128449769D01*
X111880140Y-128926057D01*
X112149935Y-129329834D01*
X112553712Y-129599629D01*
X113030000Y-129694369D01*
X113506288Y-129599629D01*
X113910065Y-129329834D01*
X114179860Y-128926057D01*
X114182704Y-128911757D01*
X114278046Y-129184320D01*
X114667964Y-129620732D01*
X115195209Y-129874709D01*
X115210974Y-129877358D01*
X115443000Y-129756217D01*
X115443000Y-128397000D01*
X115423000Y-128397000D01*
X115423000Y-128143000D01*
X115443000Y-128143000D01*
X115443000Y-126783783D01*
X115697000Y-126783783D01*
X115697000Y-128143000D01*
X115717000Y-128143000D01*
X115717000Y-128397000D01*
X115697000Y-128397000D01*
X115697000Y-129756217D01*
X115929026Y-129877358D01*
X115944791Y-129874709D01*
X116472036Y-129620732D01*
X116857936Y-129188817D01*
X116857936Y-129286000D01*
X116884503Y-129427190D01*
X116967946Y-129556865D01*
X117095266Y-129643859D01*
X117246400Y-129674464D01*
X118973600Y-129674464D01*
X119114790Y-129647897D01*
X119244465Y-129564454D01*
X119331459Y-129437134D01*
X119362064Y-129286000D01*
X119362064Y-127254000D01*
X119335497Y-127112810D01*
X119252054Y-126983135D01*
X119124734Y-126896141D01*
X118973600Y-126865536D01*
X117246400Y-126865536D01*
X117105210Y-126892103D01*
X116975535Y-126975546D01*
X116888541Y-127102866D01*
X116857936Y-127254000D01*
X116857936Y-127351183D01*
X116472036Y-126919268D01*
X115944791Y-126665291D01*
X115929026Y-126662642D01*
X115697000Y-126783783D01*
X115443000Y-126783783D01*
X115210974Y-126662642D01*
X115195209Y-126665291D01*
X114667964Y-126919268D01*
X114278046Y-127355680D01*
X114182704Y-127628243D01*
X114179860Y-127613943D01*
X113910065Y-127210166D01*
X113506288Y-126940371D01*
X113030000Y-126845631D01*
X112553712Y-126940371D01*
X112149935Y-127210166D01*
X111880140Y-127613943D01*
X111785400Y-128090231D01*
X111734600Y-128090231D01*
X111639860Y-127613943D01*
X111370065Y-127210166D01*
X110966288Y-126940371D01*
X110490000Y-126845631D01*
X110013712Y-126940371D01*
X109609935Y-127210166D01*
X109340140Y-127613943D01*
X109245400Y-128090231D01*
X80940717Y-128090231D01*
X87290717Y-121740231D01*
X109245400Y-121740231D01*
X109245400Y-122099769D01*
X109340140Y-122576057D01*
X109609935Y-122979834D01*
X110013712Y-123249629D01*
X110490000Y-123344369D01*
X110966288Y-123249629D01*
X111370065Y-122979834D01*
X111639860Y-122576057D01*
X111734600Y-122099769D01*
X111734600Y-121740231D01*
X111785400Y-121740231D01*
X111785400Y-122099769D01*
X111880140Y-122576057D01*
X112149935Y-122979834D01*
X112553712Y-123249629D01*
X113030000Y-123344369D01*
X113506288Y-123249629D01*
X113910065Y-122979834D01*
X114179860Y-122576057D01*
X114182704Y-122561757D01*
X114278046Y-122834320D01*
X114667964Y-123270732D01*
X115195209Y-123524709D01*
X115210974Y-123527358D01*
X115443000Y-123406217D01*
X115443000Y-122047000D01*
X115423000Y-122047000D01*
X115423000Y-121793000D01*
X115443000Y-121793000D01*
X115443000Y-120433783D01*
X115697000Y-120433783D01*
X115697000Y-121793000D01*
X115717000Y-121793000D01*
X115717000Y-122047000D01*
X115697000Y-122047000D01*
X115697000Y-123406217D01*
X115929026Y-123527358D01*
X115944791Y-123524709D01*
X116472036Y-123270732D01*
X116857936Y-122838817D01*
X116857936Y-122936000D01*
X116884503Y-123077190D01*
X116967946Y-123206865D01*
X117095266Y-123293859D01*
X117246400Y-123324464D01*
X118973600Y-123324464D01*
X119114790Y-123297897D01*
X119244465Y-123214454D01*
X119331459Y-123087134D01*
X119362064Y-122936000D01*
X119362064Y-120904000D01*
X119335497Y-120762810D01*
X119252054Y-120633135D01*
X119124734Y-120546141D01*
X118973600Y-120515536D01*
X117246400Y-120515536D01*
X117105210Y-120542103D01*
X116975535Y-120625546D01*
X116888541Y-120752866D01*
X116857936Y-120904000D01*
X116857936Y-121001183D01*
X116472036Y-120569268D01*
X115944791Y-120315291D01*
X115929026Y-120312642D01*
X115697000Y-120433783D01*
X115443000Y-120433783D01*
X115210974Y-120312642D01*
X115195209Y-120315291D01*
X114667964Y-120569268D01*
X114278046Y-121005680D01*
X114182704Y-121278243D01*
X114179860Y-121263943D01*
X113910065Y-120860166D01*
X113506288Y-120590371D01*
X113030000Y-120495631D01*
X112553712Y-120590371D01*
X112149935Y-120860166D01*
X111880140Y-121263943D01*
X111785400Y-121740231D01*
X111734600Y-121740231D01*
X111639860Y-121263943D01*
X111370065Y-120860166D01*
X110966288Y-120590371D01*
X110490000Y-120495631D01*
X110013712Y-120590371D01*
X109609935Y-120860166D01*
X109340140Y-121263943D01*
X109245400Y-121740231D01*
X87290717Y-121740231D01*
X96104948Y-112926000D01*
X102870000Y-112926000D01*
X103073205Y-112885580D01*
X103245474Y-112770474D01*
X103778078Y-112237870D01*
X114426583Y-112237870D01*
X114793166Y-113125069D01*
X115471361Y-113804449D01*
X116357919Y-114172580D01*
X117317870Y-114173417D01*
X118205069Y-113806834D01*
X118884449Y-113128639D01*
X119252580Y-112242081D01*
X119253417Y-111282130D01*
X118886834Y-110394931D01*
X118208639Y-109715551D01*
X117322081Y-109347420D01*
X116362130Y-109346583D01*
X115474931Y-109713166D01*
X114795551Y-110391361D01*
X114427420Y-111277919D01*
X114426583Y-112237870D01*
X103778078Y-112237870D01*
X105437024Y-110578924D01*
X105553361Y-110579025D01*
X105819521Y-110469050D01*
X106023335Y-110265592D01*
X106133774Y-109999624D01*
X106134025Y-109711639D01*
X106024050Y-109445479D01*
X105820592Y-109241665D01*
X105554624Y-109131226D01*
X105266639Y-109130975D01*
X105000479Y-109240950D01*
X104796665Y-109444408D01*
X104775083Y-109496383D01*
X104754050Y-109445479D01*
X104550592Y-109241665D01*
X104284624Y-109131226D01*
X103996639Y-109130975D01*
X103730479Y-109240950D01*
X103647284Y-109324000D01*
X82769947Y-109324000D01*
X82638924Y-109192976D01*
X82639025Y-109076639D01*
X82529050Y-108810479D01*
X82325592Y-108606665D01*
X82059624Y-108496226D01*
X81771639Y-108495975D01*
X81505479Y-108605950D01*
X81301665Y-108809408D01*
X81191226Y-109075376D01*
X81191177Y-109131023D01*
X81136639Y-109130975D01*
X80870479Y-109240950D01*
X80666665Y-109444408D01*
X80556226Y-109710376D01*
X80555975Y-109998361D01*
X80665950Y-110264521D01*
X80869408Y-110468335D01*
X81135376Y-110578774D01*
X81252928Y-110578876D01*
X82174526Y-111500474D01*
X82346795Y-111615580D01*
X82550000Y-111656000D01*
X102377217Y-111656000D01*
X102459408Y-111738335D01*
X102682911Y-111831141D01*
X102650052Y-111864000D01*
X95885000Y-111864000D01*
X95681795Y-111904420D01*
X95509526Y-112019526D01*
X69630052Y-137899000D01*
X58912783Y-137899000D01*
X58830592Y-137816665D01*
X58564624Y-137706226D01*
X58276639Y-137705975D01*
X58010479Y-137815950D01*
X57806665Y-138019408D01*
X57696226Y-138285376D01*
X57695975Y-138573361D01*
X38544500Y-138573361D01*
X38544500Y-134833983D01*
X47763804Y-134833983D01*
X47935625Y-135249823D01*
X48253503Y-135568256D01*
X48669043Y-135740804D01*
X49118983Y-135741196D01*
X49534823Y-135569375D01*
X49853256Y-135251497D01*
X50025804Y-134835957D01*
X50026196Y-134386017D01*
X49854375Y-133970177D01*
X49536497Y-133651744D01*
X49120957Y-133479196D01*
X48671017Y-133478804D01*
X48255177Y-133650625D01*
X47936744Y-133968503D01*
X47764196Y-134384043D01*
X47763804Y-134833983D01*
X38544500Y-134833983D01*
X38544500Y-127233983D01*
X47763804Y-127233983D01*
X47935625Y-127649823D01*
X48253503Y-127968256D01*
X48669043Y-128140804D01*
X49118983Y-128141196D01*
X49534823Y-127969375D01*
X49771839Y-127732772D01*
X59579510Y-127732772D01*
X59579510Y-128807228D01*
X59684594Y-129335519D01*
X59983846Y-129783382D01*
X60431709Y-130082634D01*
X60960000Y-130187718D01*
X61488291Y-130082634D01*
X61936154Y-129783382D01*
X62235406Y-129335519D01*
X62340490Y-128807228D01*
X62340490Y-127732772D01*
X62235406Y-127204481D01*
X61936154Y-126756618D01*
X61488291Y-126457366D01*
X60960000Y-126352282D01*
X60431709Y-126457366D01*
X59983846Y-126756618D01*
X59684594Y-127204481D01*
X59579510Y-127732772D01*
X49771839Y-127732772D01*
X49853256Y-127651497D01*
X50025804Y-127235957D01*
X50026196Y-126786017D01*
X49854375Y-126370177D01*
X49536497Y-126051744D01*
X49120957Y-125879196D01*
X48671017Y-125878804D01*
X48255177Y-126050625D01*
X47936744Y-126368503D01*
X47764196Y-126784043D01*
X47763804Y-127233983D01*
X38544500Y-127233983D01*
X38544500Y-123317000D01*
X59325510Y-123317000D01*
X59325510Y-123817380D01*
X59498529Y-124433205D01*
X59894044Y-124935942D01*
X60451841Y-125249053D01*
X60579646Y-125279999D01*
X60833000Y-125160645D01*
X60833000Y-123317000D01*
X61087000Y-123317000D01*
X61087000Y-125160645D01*
X61340354Y-125279999D01*
X61468159Y-125249053D01*
X61768310Y-125080568D01*
X61687366Y-125201709D01*
X61582282Y-125730000D01*
X61687366Y-126258291D01*
X61986618Y-126706154D01*
X62434481Y-127005406D01*
X62962772Y-127110490D01*
X64037228Y-127110490D01*
X64565519Y-127005406D01*
X65013382Y-126706154D01*
X65312634Y-126258291D01*
X65417718Y-125730000D01*
X65312634Y-125201709D01*
X65013382Y-124753846D01*
X64565519Y-124454594D01*
X64037228Y-124349510D01*
X62962772Y-124349510D01*
X62434481Y-124454594D01*
X62371577Y-124496625D01*
X62421471Y-124433205D01*
X62594490Y-123817380D01*
X62594490Y-123317000D01*
X61087000Y-123317000D01*
X60833000Y-123317000D01*
X59325510Y-123317000D01*
X38544500Y-123317000D01*
X38544500Y-120793361D01*
X58330975Y-120793361D01*
X58440950Y-121059521D01*
X58644408Y-121263335D01*
X58910376Y-121373774D01*
X59198361Y-121374025D01*
X59302490Y-121331000D01*
X60095453Y-121331000D01*
X59894044Y-121444058D01*
X59498529Y-121946795D01*
X59325510Y-122562620D01*
X59325510Y-123063000D01*
X60833000Y-123063000D01*
X60833000Y-123043000D01*
X61087000Y-123043000D01*
X61087000Y-123063000D01*
X62594490Y-123063000D01*
X62594490Y-122562620D01*
X62421471Y-121946795D01*
X62025956Y-121444058D01*
X61764488Y-121297287D01*
X61855608Y-121279162D01*
X62076540Y-121131540D01*
X63981540Y-119226540D01*
X64129162Y-119005608D01*
X64181001Y-118745000D01*
X64181000Y-118744995D01*
X64181000Y-113947080D01*
X65251540Y-112876540D01*
X65399162Y-112655608D01*
X65451000Y-112395000D01*
X65451000Y-109220000D01*
X65422484Y-109076639D01*
X65399162Y-108959392D01*
X65251540Y-108738460D01*
X64181000Y-107667920D01*
X64181000Y-102378361D01*
X88175975Y-102378361D01*
X88285950Y-102644521D01*
X88489408Y-102848335D01*
X88755376Y-102958774D01*
X89043361Y-102959025D01*
X89309521Y-102849050D01*
X89392716Y-102766000D01*
X90793052Y-102766000D01*
X90623952Y-102935100D01*
X90580592Y-102891665D01*
X90314624Y-102781226D01*
X90026639Y-102780975D01*
X89760479Y-102890950D01*
X89556665Y-103094408D01*
X89446226Y-103360376D01*
X89445975Y-103648361D01*
X89555950Y-103914521D01*
X89759408Y-104118335D01*
X90025376Y-104228774D01*
X90313361Y-104229025D01*
X90579521Y-104119050D01*
X90662716Y-104036000D01*
X90805000Y-104036000D01*
X91008205Y-103995580D01*
X91180474Y-103880474D01*
X94719000Y-100341948D01*
X94719000Y-100472217D01*
X94636665Y-100554408D01*
X94526226Y-100820376D01*
X94525975Y-101108361D01*
X94635950Y-101374521D01*
X94839408Y-101578335D01*
X95105376Y-101688774D01*
X95393361Y-101689025D01*
X95659521Y-101579050D01*
X95863335Y-101375592D01*
X95973774Y-101109624D01*
X95974025Y-100821639D01*
X95864050Y-100555479D01*
X95819798Y-100511150D01*
X97182024Y-99148924D01*
X97298361Y-99149025D01*
X97564521Y-99039050D01*
X97768335Y-98835592D01*
X97878774Y-98569624D01*
X97879025Y-98281639D01*
X97769050Y-98015479D01*
X97565592Y-97811665D01*
X97513617Y-97790083D01*
X97564521Y-97769050D01*
X97768335Y-97565592D01*
X97878774Y-97299624D01*
X97879025Y-97011639D01*
X97769050Y-96745479D01*
X97565592Y-96541665D01*
X97299624Y-96431226D01*
X97011639Y-96430975D01*
X96745479Y-96540950D01*
X96541665Y-96744408D01*
X96520083Y-96796383D01*
X96499050Y-96745479D01*
X96295592Y-96541665D01*
X96029624Y-96431226D01*
X95741639Y-96430975D01*
X95475479Y-96540950D01*
X95271665Y-96744408D01*
X95161226Y-97010376D01*
X95161124Y-97127928D01*
X90585052Y-101704000D01*
X89392783Y-101704000D01*
X89310592Y-101621665D01*
X89044624Y-101511226D01*
X88756639Y-101510975D01*
X88490479Y-101620950D01*
X88286665Y-101824408D01*
X88176226Y-102090376D01*
X88175975Y-102378361D01*
X64181000Y-102378361D01*
X64181000Y-100581510D01*
X69849780Y-100581510D01*
X70042718Y-101048458D01*
X70399663Y-101406026D01*
X70866273Y-101599779D01*
X71371510Y-101600220D01*
X71838458Y-101407282D01*
X72196026Y-101050337D01*
X72389779Y-100583727D01*
X72389780Y-100581510D01*
X74929780Y-100581510D01*
X75122718Y-101048458D01*
X75479663Y-101406026D01*
X75946273Y-101599779D01*
X76451510Y-101600220D01*
X76918458Y-101407282D01*
X77276026Y-101050337D01*
X77469779Y-100583727D01*
X77470220Y-100078490D01*
X77277282Y-99611542D01*
X76920337Y-99253974D01*
X76453727Y-99060221D01*
X75948490Y-99059780D01*
X75481542Y-99252718D01*
X75123974Y-99609663D01*
X74930221Y-100076273D01*
X74929780Y-100581510D01*
X72389780Y-100581510D01*
X72390220Y-100078490D01*
X72197282Y-99611542D01*
X71840337Y-99253974D01*
X71373727Y-99060221D01*
X70868490Y-99059780D01*
X70401542Y-99252718D01*
X70043974Y-99609663D01*
X69850221Y-100076273D01*
X69849780Y-100581510D01*
X64181000Y-100581510D01*
X64181000Y-99357791D01*
X64520617Y-99290237D01*
X65385854Y-98712104D01*
X65963987Y-97846867D01*
X66167000Y-96826250D01*
X66167000Y-96721750D01*
X65963987Y-95701133D01*
X65385854Y-94835896D01*
X64520617Y-94257763D01*
X63500000Y-94054750D01*
X62479383Y-94257763D01*
X61614146Y-94835896D01*
X61036013Y-95701133D01*
X60833000Y-96721750D01*
X60833000Y-96826250D01*
X61036013Y-97846867D01*
X61614146Y-98712104D01*
X62479383Y-99290237D01*
X62819000Y-99357791D01*
X62819000Y-107950000D01*
X62870838Y-108210608D01*
X63018460Y-108431540D01*
X64089000Y-109502080D01*
X64089000Y-112112920D01*
X63018460Y-113183460D01*
X62870838Y-113404392D01*
X62870838Y-113404393D01*
X62819000Y-113665000D01*
X62819000Y-118462920D01*
X61312920Y-119969000D01*
X59302636Y-119969000D01*
X59199624Y-119926226D01*
X58911639Y-119925975D01*
X58645479Y-120035950D01*
X58441665Y-120239408D01*
X58331226Y-120505376D01*
X58330975Y-120793361D01*
X38544500Y-120793361D01*
X38544500Y-93938250D01*
X56923940Y-93938250D01*
X56923940Y-94021750D01*
X57086157Y-94837271D01*
X57548113Y-95528637D01*
X58239479Y-95990593D01*
X59055000Y-96152810D01*
X59870521Y-95990593D01*
X60561887Y-95528637D01*
X61023843Y-94837271D01*
X61186060Y-94021750D01*
X61186060Y-93938250D01*
X61023843Y-93122729D01*
X60561887Y-92431363D01*
X59870521Y-91969407D01*
X59055000Y-91807190D01*
X58239479Y-91969407D01*
X57548113Y-92431363D01*
X57086157Y-93122729D01*
X56923940Y-93938250D01*
X38544500Y-93938250D01*
X38544500Y-90712175D01*
X60888685Y-90712175D01*
X61294941Y-91670211D01*
X62036897Y-92399854D01*
X62957826Y-92781309D01*
X63373000Y-92675033D01*
X63373000Y-90297000D01*
X63627000Y-90297000D01*
X63627000Y-92675033D01*
X64042174Y-92781309D01*
X64963103Y-92399854D01*
X65705059Y-91670211D01*
X66111315Y-90712175D01*
X66005230Y-90297000D01*
X63627000Y-90297000D01*
X63373000Y-90297000D01*
X60994770Y-90297000D01*
X60888685Y-90712175D01*
X38544500Y-90712175D01*
X38544500Y-89627825D01*
X60888685Y-89627825D01*
X60994770Y-90043000D01*
X63373000Y-90043000D01*
X63373000Y-87664967D01*
X63627000Y-87664967D01*
X63627000Y-90043000D01*
X66005230Y-90043000D01*
X66111315Y-89627825D01*
X65705059Y-88669789D01*
X64963103Y-87940146D01*
X64042174Y-87558691D01*
X63627000Y-87664967D01*
X63373000Y-87664967D01*
X62957826Y-87558691D01*
X62036897Y-87940146D01*
X61294941Y-88669789D01*
X60888685Y-89627825D01*
X38544500Y-89627825D01*
X38544500Y-86837870D01*
X40766583Y-86837870D01*
X41133166Y-87725069D01*
X41811361Y-88404449D01*
X42697919Y-88772580D01*
X43657870Y-88773417D01*
X44545069Y-88406834D01*
X45224449Y-87728639D01*
X45592580Y-86842081D01*
X45593417Y-85882130D01*
X45226834Y-84994931D01*
X44548639Y-84315551D01*
X43662081Y-83947420D01*
X42702130Y-83946583D01*
X41814931Y-84313166D01*
X41135551Y-84991361D01*
X40767420Y-85877919D01*
X40766583Y-86837870D01*
X38544500Y-86837870D01*
X38544500Y-82994500D01*
X121475500Y-82994500D01*
X121475500Y-171005500D01*
M02*
