G04 #@! TF.FileFunction,Copper,L1,Top,Signal*
%FSLAX46Y46*%
G04 Gerber Fmt 4.6, Leading zero omitted, Abs format (unit mm)*
G04 Created by KiCad (PCBNEW 4.0.2-stable) date 5/4/2016 5:53:34 PM*
%MOMM*%
G01*
G04 APERTURE LIST*
%ADD10C,0.127000*%
%ADD11O,2.999740X1.998980*%
%ADD12O,1.998980X2.999740*%
%ADD13R,2.000000X2.000000*%
%ADD14C,2.000000*%
%ADD15O,1.524000X2.032000*%
%ADD16R,2.000000X1.600000*%
%ADD17R,2.032000X1.524000*%
%ADD18R,1.600000X2.000000*%
%ADD19R,1.727200X2.032000*%
%ADD20O,1.727200X2.032000*%
%ADD21R,1.727200X1.727200*%
%ADD22O,1.727200X1.727200*%
%ADD23R,2.000000X1.700000*%
%ADD24R,1.700000X2.000000*%
%ADD25R,3.657600X2.032000*%
%ADD26R,1.016000X2.032000*%
%ADD27R,0.600000X2.000000*%
%ADD28R,1.350000X0.600000*%
%ADD29R,1.350000X0.400000*%
%ADD30C,1.500000*%
%ADD31R,2.999740X1.501140*%
%ADD32R,6.300000X2.200000*%
%ADD33O,0.800000X0.350000*%
%ADD34O,0.350000X0.800000*%
%ADD35R,1.350000X1.350000*%
%ADD36R,0.550000X1.145000*%
%ADD37R,1.145000X0.550000*%
%ADD38R,1.060000X0.650000*%
%ADD39R,1.100000X0.600000*%
%ADD40R,1.597660X1.800860*%
%ADD41R,0.550000X1.600000*%
%ADD42R,1.600000X0.550000*%
%ADD43R,2.500000X2.000000*%
%ADD44C,1.778000*%
%ADD45R,2.032000X1.727200*%
%ADD46O,2.032000X1.727200*%
%ADD47O,4.572000X4.572000*%
%ADD48O,4.064000X4.064000*%
%ADD49O,3.500120X3.500120*%
%ADD50R,2.499360X2.301240*%
%ADD51R,2.301240X2.499360*%
%ADD52C,4.064000*%
%ADD53C,0.685800*%
%ADD54C,0.400000*%
%ADD55C,0.300000*%
%ADD56C,0.600000*%
%ADD57C,0.500000*%
%ADD58C,0.254000*%
G04 APERTURE END LIST*
D10*
D11*
X63500000Y-125730000D03*
D12*
X60960000Y-123190000D03*
X60960000Y-128270000D03*
D13*
X70485000Y-166370000D03*
D14*
X70485000Y-163830000D03*
D15*
X107429300Y-135890000D03*
X80530700Y-137160000D03*
X107429300Y-138430000D03*
D16*
X105950000Y-102235000D03*
X109950000Y-102235000D03*
D17*
X56515000Y-102616000D03*
X56515000Y-99314000D03*
X46355000Y-102616000D03*
X46355000Y-99314000D03*
D18*
X93980000Y-153575000D03*
X93980000Y-157575000D03*
X92075000Y-153575000D03*
X92075000Y-157575000D03*
D19*
X118110000Y-134620000D03*
D20*
X115570000Y-134620000D03*
X113030000Y-134620000D03*
X110490000Y-134620000D03*
D19*
X118110000Y-121920000D03*
D20*
X115570000Y-121920000D03*
X113030000Y-121920000D03*
X110490000Y-121920000D03*
D19*
X118110000Y-128270000D03*
D20*
X115570000Y-128270000D03*
X113030000Y-128270000D03*
X110490000Y-128270000D03*
D21*
X80010000Y-151130000D03*
D22*
X77470000Y-151130000D03*
X80010000Y-153670000D03*
X77470000Y-153670000D03*
X80010000Y-156210000D03*
X77470000Y-156210000D03*
X80010000Y-158750000D03*
X77470000Y-158750000D03*
X80010000Y-161290000D03*
X77470000Y-161290000D03*
X80010000Y-163830000D03*
X77470000Y-163830000D03*
X80010000Y-166370000D03*
X77470000Y-166370000D03*
D23*
X65500000Y-133985000D03*
X61500000Y-133985000D03*
X69755000Y-153670000D03*
X73755000Y-153670000D03*
D24*
X59055000Y-131985000D03*
X59055000Y-135985000D03*
D25*
X51435000Y-95758000D03*
D26*
X51435000Y-102362000D03*
X53721000Y-102362000D03*
X49149000Y-102362000D03*
D27*
X109855000Y-114505000D03*
X109855000Y-105205000D03*
X108585000Y-114505000D03*
X108585000Y-105205000D03*
X107315000Y-114505000D03*
X107315000Y-105205000D03*
X106045000Y-114505000D03*
X106045000Y-105205000D03*
X104775000Y-114505000D03*
X104775000Y-105205000D03*
X103505000Y-114505000D03*
X103505000Y-105205000D03*
X102235000Y-114505000D03*
X102235000Y-105205000D03*
X100965000Y-114505000D03*
X100965000Y-105205000D03*
X99695000Y-114505000D03*
X99695000Y-105205000D03*
X98425000Y-114505000D03*
X98425000Y-105205000D03*
D28*
X83435000Y-161775000D03*
X89285000Y-161775000D03*
D29*
X83435000Y-161025000D03*
X89285000Y-161025000D03*
X83435000Y-160375000D03*
X89285000Y-160375000D03*
X83435000Y-159725000D03*
X89285000Y-159725000D03*
X83435000Y-159075000D03*
X89285000Y-159075000D03*
X83435000Y-158425000D03*
X89285000Y-158425000D03*
X83435000Y-157775000D03*
X89285000Y-157775000D03*
X83435000Y-157125000D03*
X89285000Y-157125000D03*
X83435000Y-156475000D03*
X89285000Y-156475000D03*
D28*
X83435000Y-155725000D03*
X89285000Y-155725000D03*
D30*
X48895000Y-134610000D03*
X48895000Y-127010000D03*
D23*
X62135000Y-151130000D03*
X66135000Y-151130000D03*
D18*
X109855000Y-92615000D03*
X109855000Y-96615000D03*
D31*
X99601020Y-88900000D03*
X103598980Y-88900000D03*
D18*
X105410000Y-98520000D03*
X105410000Y-94520000D03*
X78740000Y-117380000D03*
X78740000Y-121380000D03*
D16*
X103600000Y-91440000D03*
X99600000Y-91440000D03*
D18*
X76200000Y-117380000D03*
X76200000Y-121380000D03*
X81280000Y-117380000D03*
X81280000Y-121380000D03*
X113030000Y-88805000D03*
X113030000Y-92805000D03*
D16*
X82010000Y-96520000D03*
X78010000Y-96520000D03*
X70390000Y-96520000D03*
X74390000Y-96520000D03*
D18*
X113030000Y-156940000D03*
X113030000Y-152940000D03*
D16*
X56420000Y-118110000D03*
X60420000Y-118110000D03*
X45625000Y-113665000D03*
X49625000Y-113665000D03*
D18*
X56515000Y-106585000D03*
X56515000Y-110585000D03*
X95250000Y-94710000D03*
X95250000Y-90710000D03*
D32*
X51435000Y-110635000D03*
X51435000Y-106535000D03*
D24*
X73660000Y-117380000D03*
X73660000Y-121380000D03*
X110490000Y-156940000D03*
X110490000Y-152940000D03*
D23*
X56610000Y-121920000D03*
X52610000Y-121920000D03*
D24*
X41910000Y-114840000D03*
X41910000Y-118840000D03*
X43815000Y-102965000D03*
X43815000Y-98965000D03*
X41275000Y-106585000D03*
X41275000Y-110585000D03*
D33*
X112300000Y-96815000D03*
X112300000Y-97465000D03*
X112300000Y-98115000D03*
X112300000Y-98765000D03*
D34*
X113325000Y-99790000D03*
X113975000Y-99790000D03*
X114625000Y-99790000D03*
X115275000Y-99790000D03*
D33*
X116300000Y-98765000D03*
X116300000Y-98115000D03*
X116300000Y-97465000D03*
X116300000Y-96815000D03*
D34*
X115275000Y-95790000D03*
X114625000Y-95790000D03*
X113975000Y-95790000D03*
X113325000Y-95790000D03*
D35*
X114975000Y-98465000D03*
X114975000Y-97115000D03*
X113625000Y-98465000D03*
X113625000Y-97115000D03*
D36*
X101600000Y-98617500D03*
X101600000Y-94422500D03*
D37*
X100502500Y-98520000D03*
X102697500Y-98520000D03*
X100502500Y-97720000D03*
X102697500Y-97720000D03*
X100502500Y-96920000D03*
X102697500Y-96920000D03*
X100502500Y-96120000D03*
X102697500Y-96120000D03*
X100502500Y-95320000D03*
X102697500Y-95320000D03*
X100502500Y-94520000D03*
X102697500Y-94520000D03*
D38*
X50335000Y-116525000D03*
X50335000Y-117475000D03*
X50335000Y-118425000D03*
X52535000Y-118425000D03*
X52535000Y-116525000D03*
X52535000Y-117475000D03*
D39*
X90340000Y-94585000D03*
X92540000Y-94585000D03*
X90340000Y-93335000D03*
X92540000Y-93335000D03*
X90340000Y-92085000D03*
X92540000Y-92085000D03*
X90340000Y-90835000D03*
X92540000Y-90835000D03*
D40*
X74145140Y-124460000D03*
X76984860Y-124460000D03*
X43665140Y-95885000D03*
X46504860Y-95885000D03*
D41*
X82175000Y-104970000D03*
X81375000Y-104970000D03*
X80575000Y-104970000D03*
X79775000Y-104970000D03*
X78975000Y-104970000D03*
X78175000Y-104970000D03*
X77375000Y-104970000D03*
X76575000Y-104970000D03*
D42*
X75125000Y-106420000D03*
X75125000Y-107220000D03*
X75125000Y-108020000D03*
X75125000Y-108820000D03*
X75125000Y-109620000D03*
X75125000Y-110420000D03*
X75125000Y-111220000D03*
X75125000Y-112020000D03*
D41*
X76575000Y-113470000D03*
X77375000Y-113470000D03*
X78175000Y-113470000D03*
X78975000Y-113470000D03*
X79775000Y-113470000D03*
X80575000Y-113470000D03*
X81375000Y-113470000D03*
X82175000Y-113470000D03*
D42*
X83625000Y-112020000D03*
X83625000Y-111220000D03*
X83625000Y-110420000D03*
X83625000Y-109620000D03*
X83625000Y-108820000D03*
X83625000Y-108020000D03*
X83625000Y-107220000D03*
X83625000Y-106420000D03*
D43*
X113565000Y-165735000D03*
X107415000Y-165735000D03*
D44*
X76200000Y-100330000D03*
X71120000Y-100330000D03*
D45*
X118110000Y-153670000D03*
D46*
X118110000Y-156210000D03*
X118110000Y-158750000D03*
X118110000Y-161290000D03*
X118110000Y-163830000D03*
X118110000Y-166370000D03*
D16*
X66135000Y-148590000D03*
X62135000Y-148590000D03*
X69755000Y-156210000D03*
X73755000Y-156210000D03*
X66135000Y-166370000D03*
X62135000Y-166370000D03*
D23*
X62135000Y-158750000D03*
X66135000Y-158750000D03*
X62135000Y-156210000D03*
X66135000Y-156210000D03*
X62135000Y-153670000D03*
X66135000Y-153670000D03*
X62135000Y-161290000D03*
X66135000Y-161290000D03*
X62135000Y-163830000D03*
X66135000Y-163830000D03*
D45*
X57785000Y-156210000D03*
D46*
X57785000Y-158750000D03*
X57785000Y-161290000D03*
X57785000Y-163830000D03*
X57785000Y-166370000D03*
D47*
X63500000Y-96774000D03*
D48*
X63500000Y-90170000D03*
D49*
X59055000Y-93980000D03*
D50*
X57541160Y-114300000D03*
X61838840Y-114300000D03*
D51*
X45085000Y-110733840D03*
X45085000Y-106436160D03*
D21*
X100330000Y-166370000D03*
D22*
X97790000Y-166370000D03*
X100330000Y-163830000D03*
X97790000Y-163830000D03*
X100330000Y-161290000D03*
X97790000Y-161290000D03*
X100330000Y-158750000D03*
X97790000Y-158750000D03*
X100330000Y-156210000D03*
X97790000Y-156210000D03*
D52*
X43180000Y-167640000D03*
X43180000Y-86360000D03*
X116840000Y-142240000D03*
X116840000Y-111760000D03*
D53*
X92075000Y-155575000D03*
X85090000Y-158750000D03*
X107950000Y-102235000D03*
X80010000Y-107950000D03*
X109855000Y-94615000D03*
X109855000Y-108585000D03*
X102235000Y-108585000D03*
X100965000Y-107315000D03*
X99695000Y-108585000D03*
X98425000Y-107315000D03*
X108585000Y-116840000D03*
X103505000Y-116840000D03*
X102235000Y-118110000D03*
X100965000Y-116840000D03*
X99695000Y-118110000D03*
X98425000Y-116840000D03*
X48260000Y-117475000D03*
X53975000Y-98425000D03*
X49530000Y-97790000D03*
X50165000Y-99695000D03*
X48260000Y-99060000D03*
X64770000Y-114300000D03*
X62230000Y-118110000D03*
X41910000Y-120650000D03*
X59690000Y-148590000D03*
X101600000Y-91440000D03*
X95250000Y-88265000D03*
X78740000Y-102870000D03*
X83820000Y-94615000D03*
X80010000Y-111125000D03*
X71120000Y-93980000D03*
X109855000Y-88900000D03*
X78740000Y-123825000D03*
X81280000Y-123825000D03*
X107315000Y-94615000D03*
X59055000Y-109220000D03*
X60325000Y-109220000D03*
X61595000Y-109220000D03*
X62865000Y-109220000D03*
X63500000Y-110490000D03*
X62230000Y-110490000D03*
X60960000Y-110490000D03*
X59690000Y-110490000D03*
X58420000Y-110490000D03*
X108585000Y-107315000D03*
X59690000Y-166370000D03*
X59055000Y-120650000D03*
X97790000Y-166370000D03*
X69850000Y-144780000D03*
X66040000Y-143510000D03*
X104140000Y-109855000D03*
X81915000Y-109220000D03*
X95250000Y-100965000D03*
X97155000Y-98425000D03*
X81280000Y-109855000D03*
X102870000Y-111125000D03*
X58420000Y-138430000D03*
X105410000Y-109855000D03*
X97155000Y-97155000D03*
X90170000Y-103505000D03*
X88900000Y-102235000D03*
X95885000Y-97155000D03*
D54*
X107429300Y-135890000D02*
X107429300Y-138430000D01*
D55*
X104775000Y-114505000D02*
X104775000Y-133235700D01*
X104775000Y-133235700D02*
X107429300Y-135890000D01*
X92075000Y-153575000D02*
X92075000Y-155575000D01*
X92075000Y-153575000D02*
X93980000Y-153575000D01*
D54*
X115570000Y-121920000D02*
X115570000Y-128270000D01*
X115570000Y-128270000D02*
X115570000Y-134620000D01*
X113565000Y-165735000D02*
X117475000Y-165735000D01*
X117475000Y-165735000D02*
X118110000Y-166370000D01*
X92075000Y-153575000D02*
X92075000Y-153670000D01*
D55*
X83435000Y-158425000D02*
X84765000Y-158425000D01*
X84765000Y-158425000D02*
X85090000Y-158750000D01*
X109950000Y-102235000D02*
X107950000Y-102235000D01*
D54*
X80575000Y-104970000D02*
X80575000Y-107385000D01*
X80575000Y-107385000D02*
X80010000Y-107950000D01*
D55*
X109855000Y-96615000D02*
X109855000Y-94615000D01*
D54*
X109855000Y-105205000D02*
X109855000Y-108585000D01*
X102235000Y-105205000D02*
X102235000Y-108585000D01*
X100965000Y-105205000D02*
X100965000Y-107315000D01*
X99695000Y-105205000D02*
X99695000Y-108585000D01*
X98425000Y-105205000D02*
X98425000Y-107315000D01*
X108585000Y-114505000D02*
X108585000Y-116840000D01*
X103505000Y-114505000D02*
X103505000Y-116840000D01*
X102235000Y-114505000D02*
X102235000Y-118110000D01*
X100965000Y-114505000D02*
X100965000Y-116840000D01*
X99695000Y-114505000D02*
X99695000Y-118110000D01*
X98425000Y-114505000D02*
X98425000Y-116840000D01*
D56*
X50335000Y-117475000D02*
X48260000Y-117475000D01*
X56515000Y-99314000D02*
X54864000Y-99314000D01*
X54864000Y-99314000D02*
X53975000Y-98425000D01*
X46504860Y-95885000D02*
X47625000Y-95885000D01*
X47625000Y-95885000D02*
X49530000Y-97790000D01*
X49149000Y-102362000D02*
X49149000Y-100711000D01*
X49149000Y-100711000D02*
X50165000Y-99695000D01*
D57*
X51435000Y-117475000D02*
X51435000Y-115570000D01*
X50335000Y-117475000D02*
X51435000Y-117475000D01*
X55245000Y-108585000D02*
X56515000Y-109855000D01*
X47625000Y-108585000D02*
X55245000Y-108585000D01*
X47625000Y-114300000D02*
X47625000Y-108585000D01*
X48895000Y-115570000D02*
X47625000Y-114300000D01*
X51435000Y-115570000D02*
X48895000Y-115570000D01*
X56515000Y-109855000D02*
X56515000Y-110585000D01*
D56*
X46355000Y-99314000D02*
X48006000Y-99314000D01*
X48006000Y-99314000D02*
X48260000Y-99060000D01*
X61838840Y-114300000D02*
X64770000Y-114300000D01*
X60420000Y-118110000D02*
X62230000Y-118110000D01*
X41910000Y-118840000D02*
X41910000Y-120650000D01*
D54*
X76200000Y-121380000D02*
X76200000Y-123675140D01*
X76200000Y-123675140D02*
X76984860Y-124460000D01*
X62135000Y-148590000D02*
X59690000Y-148590000D01*
D56*
X73755000Y-156210000D02*
X73755000Y-163100000D01*
X73755000Y-163100000D02*
X70485000Y-166370000D01*
D54*
X49149000Y-102362000D02*
X49149000Y-102108000D01*
D57*
X76200000Y-121380000D02*
X78740000Y-121380000D01*
X99600000Y-91440000D02*
X101600000Y-91440000D01*
X95250000Y-90710000D02*
X95250000Y-88265000D01*
X78975000Y-104970000D02*
X78975000Y-103105000D01*
X78975000Y-103105000D02*
X78740000Y-102870000D01*
X82010000Y-96520000D02*
X82010000Y-96425000D01*
X82010000Y-96425000D02*
X83820000Y-94615000D01*
X79775000Y-113470000D02*
X79775000Y-111360000D01*
X79775000Y-111360000D02*
X80010000Y-111125000D01*
X70390000Y-96520000D02*
X70390000Y-94710000D01*
X70390000Y-94710000D02*
X71120000Y-93980000D01*
X92540000Y-92085000D02*
X93875000Y-92085000D01*
X93875000Y-92085000D02*
X95250000Y-90710000D01*
X92540000Y-90835000D02*
X95125000Y-90835000D01*
X95125000Y-90835000D02*
X95250000Y-90710000D01*
D58*
X112300000Y-97465000D02*
X110705000Y-97465000D01*
X110705000Y-97465000D02*
X109855000Y-96615000D01*
X112300000Y-96815000D02*
X110055000Y-96815000D01*
X110055000Y-96815000D02*
X109855000Y-96615000D01*
D57*
X113030000Y-88805000D02*
X109950000Y-88805000D01*
X109950000Y-88805000D02*
X109855000Y-88900000D01*
X78740000Y-121380000D02*
X78740000Y-123825000D01*
X81280000Y-121380000D02*
X81280000Y-123825000D01*
X102697500Y-97720000D02*
X103575000Y-97720000D01*
X105410000Y-95885000D02*
X105410000Y-94520000D01*
X103575000Y-97720000D02*
X105410000Y-95885000D01*
X105410000Y-94520000D02*
X107220000Y-94520000D01*
X107220000Y-94520000D02*
X107315000Y-94615000D01*
X102697500Y-96120000D02*
X103810000Y-96120000D01*
X103810000Y-96120000D02*
X105410000Y-94520000D01*
X102697500Y-95320000D02*
X104610000Y-95320000D01*
X104610000Y-95320000D02*
X105410000Y-94520000D01*
X99600000Y-91440000D02*
X99600000Y-88901020D01*
X99600000Y-88901020D02*
X99601020Y-88900000D01*
X56515000Y-110585000D02*
X58325000Y-110585000D01*
X60325000Y-109220000D02*
X59055000Y-109220000D01*
X62865000Y-109220000D02*
X61595000Y-109220000D01*
X62230000Y-110490000D02*
X63500000Y-110490000D01*
X59690000Y-110490000D02*
X60960000Y-110490000D01*
X58325000Y-110585000D02*
X58420000Y-110490000D01*
D54*
X108585000Y-105205000D02*
X108585000Y-107315000D01*
X62135000Y-166370000D02*
X59690000Y-166370000D01*
D56*
X57785000Y-121920000D02*
X56610000Y-121920000D01*
X59055000Y-120650000D02*
X57785000Y-121920000D01*
D54*
X48895000Y-127010000D02*
X51520000Y-127010000D01*
X51520000Y-127010000D02*
X56610000Y-121920000D01*
D56*
X52535000Y-117475000D02*
X55785000Y-117475000D01*
X55785000Y-117475000D02*
X56420000Y-118110000D01*
X56420000Y-118110000D02*
X56420000Y-121730000D01*
X56420000Y-121730000D02*
X56610000Y-121920000D01*
D54*
X97790000Y-166370000D02*
X93980000Y-162560000D01*
X93980000Y-162560000D02*
X93980000Y-157575000D01*
D55*
X92075000Y-157575000D02*
X93980000Y-157575000D01*
X89285000Y-156475000D02*
X90975000Y-156475000D01*
X90975000Y-156475000D02*
X92075000Y-157575000D01*
X89285000Y-157775000D02*
X91875000Y-157775000D01*
X91875000Y-157775000D02*
X92075000Y-157575000D01*
X89285000Y-158425000D02*
X91225000Y-158425000D01*
X91225000Y-158425000D02*
X92075000Y-157575000D01*
X89285000Y-159075000D02*
X90575000Y-159075000D01*
X90575000Y-159075000D02*
X92075000Y-157575000D01*
D54*
X118110000Y-161290000D02*
X114840000Y-161290000D01*
X114840000Y-161290000D02*
X110490000Y-156940000D01*
X97790000Y-166370000D02*
X97155000Y-166370000D01*
X89285000Y-159075000D02*
X87305000Y-159075000D01*
X87305000Y-159075000D02*
X85725000Y-160655000D01*
X85725000Y-160655000D02*
X85725000Y-163830000D01*
X85725000Y-163830000D02*
X81280000Y-168275000D01*
X81280000Y-168275000D02*
X72390000Y-168275000D01*
X68580000Y-163195000D02*
X66675000Y-161290000D01*
X69215000Y-168275000D02*
X72390000Y-168275000D01*
X68580000Y-167640000D02*
X69215000Y-168275000D01*
X68580000Y-163195000D02*
X68580000Y-167640000D01*
D55*
X91875000Y-157775000D02*
X92075000Y-157575000D01*
X97060000Y-87088980D02*
X115028980Y-87088980D01*
X118745000Y-104775000D02*
X111760000Y-111760000D01*
X118745000Y-90805000D02*
X118745000Y-104775000D01*
X115028980Y-87088980D02*
X118745000Y-90805000D01*
X118110000Y-134620000D02*
X118110000Y-128270000D01*
X118110000Y-121920000D02*
X118110000Y-128270000D01*
X106045000Y-105205000D02*
X106045000Y-108585000D01*
X106045000Y-108585000D02*
X109220000Y-111760000D01*
X109220000Y-111760000D02*
X111760000Y-111760000D01*
X118110000Y-118110000D02*
X118110000Y-121920000D01*
X111760000Y-111760000D02*
X118110000Y-118110000D01*
D54*
X79775000Y-104970000D02*
X79775000Y-103740000D01*
X91440000Y-92710000D02*
X92065000Y-93335000D01*
X91440000Y-90170000D02*
X91440000Y-92710000D01*
X90805000Y-89535000D02*
X91440000Y-90170000D01*
X88900000Y-89535000D02*
X90805000Y-89535000D01*
X86995000Y-91440000D02*
X88900000Y-89535000D01*
X86995000Y-96520000D02*
X86995000Y-91440000D01*
X79775000Y-103740000D02*
X86995000Y-96520000D01*
X92065000Y-93335000D02*
X92540000Y-93335000D01*
D55*
X105950000Y-102235000D02*
X105950000Y-105110000D01*
X105950000Y-105110000D02*
X106045000Y-105205000D01*
X106045000Y-102330000D02*
X105950000Y-102235000D01*
X113975000Y-95790000D02*
X113975000Y-93750000D01*
X113975000Y-93750000D02*
X113030000Y-92805000D01*
X113325000Y-95790000D02*
X113325000Y-93100000D01*
X113325000Y-93100000D02*
X113030000Y-92805000D01*
X105950000Y-99060000D02*
X105410000Y-98520000D01*
D54*
X66135000Y-161290000D02*
X66675000Y-161290000D01*
X76200000Y-117380000D02*
X76200000Y-118745000D01*
X99695000Y-168275000D02*
X97790000Y-166370000D01*
X101600000Y-168275000D02*
X99695000Y-168275000D01*
X103470002Y-166404998D02*
X101600000Y-168275000D01*
X103470002Y-147285002D02*
X103470002Y-166404998D01*
X100330000Y-144145000D02*
X103470002Y-147285002D01*
X75565000Y-144145000D02*
X100330000Y-144145000D01*
X71755000Y-140335000D02*
X75565000Y-144145000D01*
X71755000Y-120650000D02*
X71755000Y-140335000D01*
X73025000Y-119380000D02*
X71755000Y-120650000D01*
X75565000Y-119380000D02*
X73025000Y-119380000D01*
X76200000Y-118745000D02*
X75565000Y-119380000D01*
X77375000Y-113470000D02*
X77375000Y-115030000D01*
X76200000Y-116205000D02*
X76200000Y-117380000D01*
X77375000Y-115030000D02*
X76200000Y-116205000D01*
X51435000Y-102362000D02*
X51435000Y-101600000D01*
X51435000Y-101600000D02*
X52705000Y-100330000D01*
X75471020Y-87088980D02*
X90711020Y-87088980D01*
X67945000Y-94615000D02*
X75471020Y-87088980D01*
X67945000Y-96520000D02*
X67945000Y-94615000D01*
X63500000Y-100965000D02*
X67945000Y-96520000D01*
X55245000Y-100965000D02*
X63500000Y-100965000D01*
X54610000Y-100330000D02*
X55245000Y-100965000D01*
X52705000Y-100330000D02*
X54610000Y-100330000D01*
D56*
X66135000Y-158750000D02*
X66135000Y-156210000D01*
X66135000Y-161290000D02*
X66135000Y-158750000D01*
D57*
X97060000Y-93440000D02*
X97060000Y-87088980D01*
X43815000Y-102965000D02*
X46006000Y-102965000D01*
X46006000Y-102965000D02*
X46355000Y-102616000D01*
X95250000Y-94710000D02*
X95790000Y-94710000D01*
X95790000Y-94710000D02*
X97060000Y-93440000D01*
X97060000Y-93440000D02*
X101600000Y-93440000D01*
X105410000Y-98520000D02*
X105696000Y-98520000D01*
X105696000Y-98520000D02*
X108204000Y-96012000D01*
X108204000Y-94266000D02*
X109855000Y-92615000D01*
X108204000Y-96012000D02*
X108204000Y-94266000D01*
X103600000Y-91440000D02*
X108680000Y-91440000D01*
X108680000Y-91440000D02*
X109855000Y-92615000D01*
X90711020Y-87088980D02*
X97060000Y-87088980D01*
X79775000Y-104970000D02*
X79775000Y-106915000D01*
X79775000Y-106915000D02*
X77375000Y-109315000D01*
X77375000Y-113470000D02*
X77375000Y-109315000D01*
X78175000Y-108515000D02*
X78175000Y-104970000D01*
X77375000Y-109315000D02*
X78175000Y-108515000D01*
X92540000Y-94585000D02*
X95125000Y-94585000D01*
X95125000Y-94585000D02*
X95250000Y-94710000D01*
X92540000Y-93335000D02*
X93875000Y-93335000D01*
X93875000Y-93335000D02*
X95250000Y-94710000D01*
D58*
X109855000Y-92615000D02*
X112840000Y-92615000D01*
X112840000Y-92615000D02*
X113030000Y-92805000D01*
D57*
X78740000Y-117380000D02*
X76200000Y-117380000D01*
D58*
X100502500Y-97720000D02*
X101035000Y-97720000D01*
X101035000Y-97720000D02*
X101600000Y-97155000D01*
X101600000Y-97155000D02*
X101600000Y-94422500D01*
D57*
X101600000Y-94422500D02*
X101600000Y-93440000D01*
X101600000Y-93440000D02*
X103600000Y-91440000D01*
X102697500Y-94520000D02*
X102697500Y-92342500D01*
X102697500Y-92342500D02*
X103600000Y-91440000D01*
X103600000Y-91440000D02*
X103600000Y-88901020D01*
X103600000Y-88901020D02*
X103598980Y-88900000D01*
X102697500Y-98520000D02*
X105410000Y-98520000D01*
X46355000Y-102616000D02*
X46736000Y-102616000D01*
X46736000Y-102616000D02*
X48260000Y-104140000D01*
X48260000Y-104140000D02*
X50165000Y-104140000D01*
X50165000Y-104140000D02*
X51435000Y-102870000D01*
X51435000Y-102870000D02*
X51435000Y-102362000D01*
X77470000Y-151130000D02*
X76200000Y-151130000D01*
X76200000Y-151130000D02*
X69850000Y-144780000D01*
X66040000Y-143510000D02*
X62230000Y-139700000D01*
X62230000Y-139700000D02*
X50800000Y-139700000D01*
X50800000Y-139700000D02*
X39370000Y-128270000D01*
X39370000Y-128270000D02*
X39370000Y-108490000D01*
X39370000Y-108490000D02*
X41275000Y-106585000D01*
D56*
X45085000Y-106436160D02*
X51336160Y-106436160D01*
X51336160Y-106436160D02*
X51435000Y-106535000D01*
X41275000Y-106585000D02*
X44936160Y-106585000D01*
X44936160Y-106585000D02*
X45085000Y-106436160D01*
D57*
X56515000Y-106585000D02*
X56515000Y-102616000D01*
X56515000Y-102616000D02*
X56261000Y-102362000D01*
X56261000Y-102362000D02*
X53721000Y-102362000D01*
X56515000Y-106585000D02*
X51485000Y-106585000D01*
X51485000Y-106585000D02*
X51435000Y-106535000D01*
X51385000Y-106585000D02*
X51435000Y-106535000D01*
D56*
X73755000Y-153670000D02*
X73025000Y-153670000D01*
D55*
X73025000Y-153670000D02*
X72390000Y-154305000D01*
X72390000Y-161925000D02*
X70485000Y-163830000D01*
X72390000Y-154305000D02*
X72390000Y-161925000D01*
D54*
X113030000Y-134620000D02*
X113030000Y-128270000D01*
X89285000Y-161025000D02*
X87895000Y-161025000D01*
X87895000Y-161025000D02*
X87630000Y-161290000D01*
X87630000Y-161290000D02*
X87630000Y-163830000D01*
X87630000Y-163830000D02*
X93345000Y-169545000D01*
X93345000Y-169545000D02*
X102870000Y-169545000D01*
X102870000Y-169545000D02*
X104775000Y-167640000D01*
X104775000Y-167640000D02*
X104775000Y-146050000D01*
X85490000Y-109620000D02*
X83625000Y-109620000D01*
X101634998Y-142909998D02*
X104775000Y-146050000D01*
X88934998Y-142909998D02*
X101634998Y-142909998D01*
X86360000Y-140335000D02*
X88934998Y-142909998D01*
X86360000Y-110490000D02*
X86360000Y-140335000D01*
X85490000Y-109620000D02*
X86360000Y-110490000D01*
D55*
X113030000Y-121920000D02*
X113030000Y-128270000D01*
X107315000Y-114505000D02*
X107315000Y-117475000D01*
X110490000Y-119380000D02*
X113030000Y-121920000D01*
X109220000Y-119380000D02*
X110490000Y-119380000D01*
X107315000Y-117475000D02*
X109220000Y-119380000D01*
X83625000Y-109620000D02*
X82315000Y-109620000D01*
X82315000Y-109620000D02*
X81915000Y-109220000D01*
X101600000Y-98617500D02*
X101600000Y-99695000D01*
X111435000Y-98115000D02*
X112300000Y-98115000D01*
X109220000Y-100330000D02*
X111435000Y-98115000D01*
X102235000Y-100330000D02*
X109220000Y-100330000D01*
X101600000Y-99695000D02*
X102235000Y-100330000D01*
X101600000Y-98617500D02*
X101600000Y-99060000D01*
X101600000Y-99060000D02*
X100965000Y-99695000D01*
X90340000Y-96055000D02*
X90340000Y-94585000D01*
X93980000Y-99695000D02*
X90340000Y-96055000D01*
X100965000Y-99695000D02*
X93980000Y-99695000D01*
X90340000Y-94585000D02*
X90340000Y-95080000D01*
X99060000Y-109855000D02*
X104140000Y-109855000D01*
X89535000Y-100330000D02*
X99060000Y-109855000D01*
X89535000Y-95885000D02*
X89535000Y-100330000D01*
X90340000Y-95080000D02*
X89535000Y-95885000D01*
X104140000Y-109855000D02*
X107315000Y-113030000D01*
X107315000Y-113030000D02*
X107315000Y-114505000D01*
D54*
X100965000Y-143510000D02*
X104140000Y-146685000D01*
X102235000Y-168910000D02*
X104140000Y-167005000D01*
X104140000Y-167005000D02*
X104140000Y-146685000D01*
X90510000Y-159725000D02*
X89285000Y-159725000D01*
X93980000Y-168910000D02*
X97155000Y-168910000D01*
X90805000Y-165735000D02*
X93980000Y-168910000D01*
X90805000Y-160020000D02*
X90805000Y-165735000D01*
X90510000Y-159725000D02*
X90805000Y-160020000D01*
X83625000Y-110420000D02*
X85020000Y-110420000D01*
X85020000Y-110420000D02*
X85725000Y-111125000D01*
X85725000Y-111125000D02*
X85725000Y-140970000D01*
X85725000Y-140970000D02*
X88265000Y-143510000D01*
X88265000Y-143510000D02*
X100965000Y-143510000D01*
X97155000Y-168910000D02*
X102235000Y-168910000D01*
D55*
X110490000Y-134620000D02*
X110490000Y-128270000D01*
X110490000Y-128270000D02*
X110490000Y-121920000D01*
X106045000Y-114505000D02*
X106045000Y-117475000D01*
X106045000Y-117475000D02*
X110490000Y-121920000D01*
X110100000Y-100965000D02*
X95250000Y-100965000D01*
X112300000Y-98765000D02*
X110100000Y-100965000D01*
X97250000Y-98520000D02*
X100502500Y-98520000D01*
X97155000Y-98425000D02*
X97250000Y-98520000D01*
X102870000Y-111125000D02*
X99060000Y-111125000D01*
X89545000Y-93335000D02*
X90340000Y-93335000D01*
X88900000Y-93980000D02*
X89545000Y-93335000D01*
X88900000Y-100965000D02*
X88900000Y-93980000D01*
X99060000Y-111125000D02*
X88900000Y-100965000D01*
X106045000Y-114505000D02*
X106045000Y-113030000D01*
X81845000Y-110420000D02*
X81280000Y-109855000D01*
X81845000Y-110420000D02*
X83625000Y-110420000D01*
X104140000Y-111125000D02*
X102870000Y-111125000D01*
X106045000Y-113030000D02*
X104140000Y-111125000D01*
X90340000Y-93335000D02*
X90795000Y-93335000D01*
X90795000Y-93335000D02*
X91440000Y-93980000D01*
X91440000Y-93980000D02*
X91440000Y-95885000D01*
X91440000Y-95885000D02*
X94075000Y-98520000D01*
X94075000Y-98520000D02*
X100502500Y-98520000D01*
X77470000Y-153670000D02*
X78740000Y-154940000D01*
X88500000Y-154940000D02*
X89285000Y-155725000D01*
X85090000Y-154940000D02*
X88500000Y-154940000D01*
X78740000Y-154940000D02*
X85090000Y-154940000D01*
X80010000Y-156210000D02*
X80495000Y-155725000D01*
X80495000Y-155725000D02*
X83435000Y-155725000D01*
X77470000Y-156210000D02*
X78740000Y-157480000D01*
X81650000Y-156475000D02*
X83435000Y-156475000D01*
X80645000Y-157480000D02*
X81650000Y-156475000D01*
X78740000Y-157480000D02*
X80645000Y-157480000D01*
X80010000Y-163830000D02*
X79375000Y-163830000D01*
X79375000Y-163830000D02*
X78105000Y-165100000D01*
X78105000Y-165100000D02*
X76835000Y-165100000D01*
X76835000Y-165100000D02*
X75565000Y-163830000D01*
X75565000Y-163830000D02*
X75565000Y-160655000D01*
X75565000Y-160655000D02*
X76200000Y-160020000D01*
X76200000Y-160020000D02*
X80645000Y-160020000D01*
X80645000Y-160020000D02*
X81590000Y-159075000D01*
X81590000Y-159075000D02*
X83435000Y-159075000D01*
X77470000Y-163830000D02*
X78105000Y-163830000D01*
X78105000Y-163830000D02*
X79375000Y-162560000D01*
X79375000Y-162560000D02*
X80645000Y-162560000D01*
X80645000Y-162560000D02*
X81915000Y-161290000D01*
X81915000Y-161290000D02*
X81915000Y-160020000D01*
X81915000Y-160020000D02*
X82210000Y-159725000D01*
X82210000Y-159725000D02*
X83435000Y-159725000D01*
X80010000Y-166370000D02*
X81280000Y-166370000D01*
X84190000Y-161025000D02*
X83435000Y-161025000D01*
X85090000Y-161925000D02*
X84190000Y-161025000D01*
X85090000Y-162560000D02*
X85090000Y-161925000D01*
X81280000Y-166370000D02*
X85090000Y-162560000D01*
X77470000Y-166370000D02*
X78105000Y-166370000D01*
X78105000Y-166370000D02*
X79375000Y-165100000D01*
X79375000Y-165100000D02*
X81280000Y-165100000D01*
X81280000Y-165100000D02*
X83435000Y-162945000D01*
X83435000Y-162945000D02*
X83435000Y-161775000D01*
D54*
X59055000Y-131985000D02*
X62960000Y-131985000D01*
X65405000Y-127000000D02*
X64135000Y-125730000D01*
X65405000Y-129540000D02*
X65405000Y-127000000D01*
X62960000Y-131985000D02*
X65405000Y-129540000D01*
X64135000Y-125730000D02*
X63500000Y-125730000D01*
D55*
X104775000Y-105205000D02*
X104775000Y-109220000D01*
X59055000Y-137795000D02*
X59055000Y-135985000D01*
X58420000Y-138430000D02*
X59055000Y-137795000D01*
X104775000Y-109220000D02*
X105410000Y-109855000D01*
X59055000Y-135985000D02*
X59500000Y-135985000D01*
X59500000Y-135985000D02*
X61500000Y-133985000D01*
D54*
X78975000Y-113470000D02*
X78975000Y-115170000D01*
X81280000Y-116205000D02*
X81280000Y-117380000D01*
X80645000Y-115570000D02*
X81280000Y-116205000D01*
X79375000Y-115570000D02*
X80645000Y-115570000D01*
X78975000Y-115170000D02*
X79375000Y-115570000D01*
D57*
X81515000Y-117145000D02*
X81280000Y-117380000D01*
X76200000Y-100330000D02*
X76200000Y-98330000D01*
X76200000Y-98330000D02*
X78010000Y-96520000D01*
D54*
X77375000Y-104970000D02*
X77375000Y-101505000D01*
X77375000Y-101505000D02*
X76200000Y-100330000D01*
D57*
X71120000Y-100330000D02*
X71120000Y-99790000D01*
X71120000Y-99790000D02*
X74390000Y-96520000D01*
D54*
X76575000Y-104970000D02*
X75760000Y-104970000D01*
X75760000Y-104970000D02*
X71120000Y-100330000D01*
X107415000Y-165735000D02*
X107415000Y-156015000D01*
X107415000Y-156015000D02*
X110490000Y-152940000D01*
X113030000Y-152940000D02*
X110490000Y-152940000D01*
X113030000Y-152940000D02*
X113030000Y-149860000D01*
X113030000Y-149860000D02*
X111760000Y-148590000D01*
X85960000Y-108820000D02*
X86995000Y-109855000D01*
X86995000Y-109855000D02*
X86995000Y-139700000D01*
X86995000Y-139700000D02*
X89535000Y-142240000D01*
X89535000Y-142240000D02*
X105410000Y-142240000D01*
X105410000Y-142240000D02*
X111760000Y-148590000D01*
X85960000Y-108820000D02*
X83625000Y-108820000D01*
D56*
X45625000Y-114300000D02*
X45720000Y-114300000D01*
X45720000Y-114300000D02*
X47945000Y-116525000D01*
X47945000Y-116525000D02*
X50335000Y-116525000D01*
X45085000Y-110733840D02*
X45085000Y-113760000D01*
X45085000Y-113760000D02*
X45625000Y-114300000D01*
X49625000Y-113665000D02*
X49625000Y-112445000D01*
X49625000Y-112445000D02*
X51435000Y-110635000D01*
X49625000Y-113665000D02*
X51435000Y-113665000D01*
X52535000Y-114765000D02*
X52535000Y-116525000D01*
X51435000Y-113665000D02*
X52535000Y-114765000D01*
X52535000Y-116525000D02*
X55316160Y-116525000D01*
X55316160Y-116525000D02*
X57541160Y-114300000D01*
X56906160Y-113665000D02*
X57541160Y-114300000D01*
D54*
X66675000Y-131445000D02*
X66675000Y-132810000D01*
X71380000Y-106420000D02*
X66675000Y-111125000D01*
X66675000Y-111125000D02*
X66675000Y-131445000D01*
X75125000Y-106420000D02*
X71380000Y-106420000D01*
X66675000Y-132810000D02*
X65500000Y-133985000D01*
D55*
X82175000Y-104970000D02*
X83640000Y-103505000D01*
X98990000Y-95320000D02*
X100502500Y-95320000D01*
X97155000Y-97155000D02*
X98990000Y-95320000D01*
X83640000Y-103505000D02*
X90170000Y-103505000D01*
D54*
X66135000Y-166370000D02*
X66135000Y-166465000D01*
X66135000Y-166465000D02*
X69850000Y-170180000D01*
X88900000Y-107950000D02*
X88900000Y-137795000D01*
X88900000Y-137795000D02*
X91474998Y-140369998D01*
X91474998Y-140369998D02*
X107349998Y-140369998D01*
X107349998Y-140369998D02*
X118110000Y-151130000D01*
X87370000Y-106420000D02*
X88900000Y-107950000D01*
X83625000Y-106420000D02*
X87370000Y-106420000D01*
X120650000Y-153670000D02*
X118110000Y-151130000D01*
X120650000Y-167005000D02*
X120650000Y-153670000D01*
X117475000Y-170180000D02*
X120650000Y-167005000D01*
X69850000Y-170180000D02*
X117475000Y-170180000D01*
D56*
X66135000Y-166370000D02*
X66135000Y-163830000D01*
D54*
X73660000Y-117380000D02*
X72485000Y-117380000D01*
X102870000Y-158750000D02*
X100330000Y-161290000D01*
X102870000Y-147955000D02*
X102870000Y-158750000D01*
X99695000Y-144780000D02*
X102870000Y-147955000D01*
X74930000Y-144780000D02*
X99695000Y-144780000D01*
X71120000Y-140970000D02*
X74930000Y-144780000D01*
X71120000Y-118745000D02*
X71120000Y-140970000D01*
X72485000Y-117380000D02*
X71120000Y-118745000D01*
X76575000Y-113470000D02*
X76395000Y-113470000D01*
X76395000Y-113470000D02*
X73660000Y-116205000D01*
X73660000Y-116205000D02*
X73660000Y-117380000D01*
X73660000Y-121380000D02*
X73660000Y-123974860D01*
X73660000Y-123974860D02*
X74145140Y-124460000D01*
D56*
X52535000Y-118425000D02*
X52535000Y-121845000D01*
X52535000Y-121845000D02*
X52610000Y-121920000D01*
X41275000Y-110585000D02*
X41275000Y-114205000D01*
X41275000Y-114205000D02*
X41910000Y-114840000D01*
D54*
X41910000Y-114840000D02*
X43180000Y-114840000D01*
X43180000Y-114840000D02*
X45085000Y-116745000D01*
D57*
X50335000Y-118425000D02*
X46765000Y-118425000D01*
X46765000Y-118425000D02*
X45085000Y-116745000D01*
X43815000Y-98965000D02*
X43815000Y-96034860D01*
X43815000Y-96034860D02*
X43665140Y-95885000D01*
D58*
X116300000Y-97465000D02*
X117785000Y-97465000D01*
X117785000Y-98115000D02*
X118110000Y-97790000D01*
X117785000Y-98115000D02*
X116300000Y-98115000D01*
X117785000Y-97465000D02*
X118110000Y-97790000D01*
D55*
X100502500Y-94520000D02*
X98520000Y-94520000D01*
X81375000Y-103410000D02*
X81375000Y-104970000D01*
X82550000Y-102235000D02*
X81375000Y-103410000D01*
X88900000Y-102235000D02*
X82550000Y-102235000D01*
X98520000Y-94520000D02*
X95885000Y-97155000D01*
D54*
X75125000Y-107220000D02*
X71850000Y-107220000D01*
X67310000Y-147415000D02*
X66135000Y-148590000D01*
X67310000Y-111760000D02*
X67310000Y-147415000D01*
X71850000Y-107220000D02*
X67310000Y-111760000D01*
D56*
X66135000Y-151130000D02*
X66135000Y-148590000D01*
D54*
X75125000Y-108020000D02*
X72320000Y-108020000D01*
X67945000Y-151860000D02*
X66135000Y-153670000D01*
X67945000Y-112395000D02*
X67945000Y-151860000D01*
X72320000Y-108020000D02*
X67945000Y-112395000D01*
X66135000Y-153670000D02*
X66675000Y-153670000D01*
X66675000Y-153670000D02*
X69215000Y-156210000D01*
X69215000Y-156210000D02*
X69755000Y-156210000D01*
X75125000Y-108820000D02*
X72790000Y-108820000D01*
X68580000Y-152495000D02*
X69755000Y-153670000D01*
X68580000Y-113030000D02*
X68580000Y-152495000D01*
X72790000Y-108820000D02*
X68580000Y-113030000D01*
X114935000Y-150495000D02*
X114935000Y-156845000D01*
X86430000Y-108020000D02*
X87630000Y-109220000D01*
X87630000Y-109220000D02*
X87630000Y-139065000D01*
X87630000Y-139065000D02*
X90170000Y-141605000D01*
X90170000Y-141605000D02*
X106045000Y-141605000D01*
X106045000Y-141605000D02*
X114935000Y-150495000D01*
X83625000Y-108020000D02*
X86430000Y-108020000D01*
X116840000Y-158750000D02*
X118110000Y-158750000D01*
X114935000Y-156845000D02*
X116840000Y-158750000D01*
X118110000Y-156210000D02*
X115535002Y-153635002D01*
X115535002Y-153635002D02*
X115535002Y-149825002D01*
X83625000Y-107220000D02*
X86900000Y-107220000D01*
X106680000Y-140970000D02*
X115535002Y-149825002D01*
X90805000Y-140970000D02*
X106680000Y-140970000D01*
X88265000Y-138430000D02*
X90805000Y-140970000D01*
X88265000Y-108585000D02*
X88265000Y-138430000D01*
X86900000Y-107220000D02*
X88265000Y-108585000D01*
X48895000Y-134610000D02*
X50810000Y-134610000D01*
X57150000Y-128270000D02*
X60960000Y-128270000D01*
X50810000Y-134610000D02*
X57150000Y-128270000D01*
X113030000Y-156940000D02*
X113030000Y-157480000D01*
X113030000Y-157480000D02*
X115570000Y-160020000D01*
X115570000Y-160020000D02*
X119380000Y-160020000D01*
X119380000Y-160020000D02*
X120015000Y-159385000D01*
X120015000Y-159385000D02*
X120015000Y-155575000D01*
X120015000Y-155575000D02*
X118110000Y-153670000D01*
D56*
X57785000Y-161290000D02*
X59055000Y-161290000D01*
X59055000Y-161290000D02*
X61595000Y-158750000D01*
X61595000Y-158750000D02*
X62135000Y-158750000D01*
X62135000Y-158750000D02*
X62865000Y-158750000D01*
X62865000Y-158750000D02*
X64135000Y-157480000D01*
X64135000Y-152400000D02*
X62865000Y-151130000D01*
X64135000Y-157480000D02*
X64135000Y-152400000D01*
X62865000Y-151130000D02*
X62135000Y-151130000D01*
X57785000Y-158750000D02*
X59055000Y-158750000D01*
X59055000Y-158750000D02*
X61595000Y-156210000D01*
X61595000Y-156210000D02*
X62135000Y-156210000D01*
X62135000Y-153670000D02*
X62135000Y-156210000D01*
X60325000Y-163830000D02*
X62135000Y-163830000D01*
X62135000Y-161290000D02*
X62135000Y-163830000D01*
X57785000Y-166370000D02*
X60325000Y-163830000D01*
D54*
X75125000Y-110420000D02*
X73730000Y-110420000D01*
X95885000Y-161925000D02*
X97790000Y-163830000D01*
X95885000Y-147955000D02*
X95885000Y-161925000D01*
X94580002Y-146650002D02*
X95885000Y-147955000D01*
X72990002Y-146650002D02*
X94580002Y-146650002D01*
X69215000Y-142875000D02*
X72990002Y-146650002D01*
X69215000Y-114935000D02*
X69215000Y-142875000D01*
X73730000Y-110420000D02*
X69215000Y-114935000D01*
X75125000Y-111220000D02*
X74200000Y-111220000D01*
X99060000Y-160020000D02*
X97790000Y-161290000D01*
X99060000Y-147320000D02*
X99060000Y-160020000D01*
X97790000Y-146050000D02*
X99060000Y-147320000D01*
X73660000Y-146050000D02*
X97790000Y-146050000D01*
X69850000Y-142240000D02*
X73660000Y-146050000D01*
X69850000Y-115570000D02*
X69850000Y-142240000D01*
X74200000Y-111220000D02*
X69850000Y-115570000D01*
X75125000Y-112020000D02*
X75125000Y-112200000D01*
X75125000Y-112200000D02*
X70485000Y-116840000D01*
X70485000Y-116840000D02*
X70485000Y-141605000D01*
X70485000Y-141605000D02*
X74295000Y-145415000D01*
X74295000Y-145415000D02*
X99060000Y-145415000D01*
X99060000Y-145415000D02*
X102235000Y-148590000D01*
X102235000Y-148590000D02*
X102235000Y-156845000D01*
X102235000Y-156845000D02*
X100330000Y-158750000D01*
D58*
G36*
X54834171Y-101375829D02*
X55022661Y-101501774D01*
X55245000Y-101546000D01*
X58293000Y-101546000D01*
X58293000Y-107823000D01*
X40132000Y-107823000D01*
X40132000Y-104902000D01*
X52705000Y-104902000D01*
X52754410Y-104891994D01*
X52796035Y-104863553D01*
X52823315Y-104821159D01*
X52832000Y-104775000D01*
X52832000Y-101092000D01*
X54550342Y-101092000D01*
X54834171Y-101375829D01*
X54834171Y-101375829D01*
G37*
X54834171Y-101375829D02*
X55022661Y-101501774D01*
X55245000Y-101546000D01*
X58293000Y-101546000D01*
X58293000Y-107823000D01*
X40132000Y-107823000D01*
X40132000Y-104902000D01*
X52705000Y-104902000D01*
X52754410Y-104891994D01*
X52796035Y-104863553D01*
X52823315Y-104821159D01*
X52832000Y-104775000D01*
X52832000Y-101092000D01*
X54550342Y-101092000D01*
X54834171Y-101375829D01*
M02*
