G04 #@! TF.FileFunction,Legend,Top*
%FSLAX46Y46*%
G04 Gerber Fmt 4.6, Leading zero omitted, Abs format (unit mm)*
G04 Created by KiCad (PCBNEW 4.0.2-stable) date 5/4/2016 5:53:34 PM*
%MOMM*%
G01*
G04 APERTURE LIST*
%ADD10C,0.127000*%
%ADD11C,0.150000*%
%ADD12C,0.010000*%
%ADD13C,0.635000*%
G04 APERTURE END LIST*
D10*
D11*
X63010000Y-124480001D02*
G75*
G03X62210000Y-123680000I-2050000J-1249999D01*
G01*
X63010000Y-126979999D02*
G75*
G02X62210000Y-127780000I-2050000J1249999D01*
G01*
X59685797Y-123691274D02*
G75*
G03X59260000Y-124030000I1274203J-2038726D01*
G01*
X59685797Y-127768726D02*
G75*
G02X59260000Y-127430000I1274203J2038726D01*
G01*
X59260000Y-124030000D02*
X59260000Y-127430000D01*
X71799000Y-166569000D02*
X71599000Y-166569000D01*
X69205000Y-166569000D02*
X69385000Y-166569000D01*
X69515357Y-163341256D02*
G75*
G03X69199000Y-166569000I1003643J-1727744D01*
G01*
X69385932Y-164016994D02*
G75*
G03X69385000Y-166120000I1133068J-1052006D01*
G01*
X71825726Y-166556220D02*
G75*
G03X71479000Y-163319000I-1306726J1497220D01*
G01*
X71598253Y-166082889D02*
G75*
G03X71579000Y-164035000I-1079253J1013889D01*
G01*
X109220000Y-137160000D02*
G75*
G03X109220000Y-137160000I-15240000J0D01*
G01*
X108950000Y-101210000D02*
X106950000Y-101210000D01*
X106950000Y-103260000D02*
X108950000Y-103260000D01*
X55372000Y-103505000D02*
X55372000Y-103759000D01*
X55372000Y-103759000D02*
X57658000Y-103759000D01*
X57658000Y-103759000D02*
X57658000Y-103505000D01*
X55372000Y-103505000D02*
X57658000Y-103505000D01*
X57658000Y-103505000D02*
X57658000Y-101854000D01*
X55372000Y-100076000D02*
X55372000Y-98425000D01*
X55372000Y-98425000D02*
X57658000Y-98425000D01*
X57658000Y-98425000D02*
X57658000Y-100076000D01*
X55372000Y-101854000D02*
X55372000Y-103505000D01*
X45212000Y-103505000D02*
X45212000Y-103759000D01*
X45212000Y-103759000D02*
X47498000Y-103759000D01*
X47498000Y-103759000D02*
X47498000Y-103505000D01*
X45212000Y-103505000D02*
X47498000Y-103505000D01*
X47498000Y-103505000D02*
X47498000Y-101854000D01*
X45212000Y-100076000D02*
X45212000Y-98425000D01*
X45212000Y-98425000D02*
X47498000Y-98425000D01*
X47498000Y-98425000D02*
X47498000Y-100076000D01*
X45212000Y-101854000D02*
X45212000Y-103505000D01*
X95005000Y-156575000D02*
X95005000Y-154575000D01*
X92955000Y-154575000D02*
X92955000Y-156575000D01*
X93100000Y-156575000D02*
X93100000Y-154575000D01*
X91050000Y-154575000D02*
X91050000Y-156575000D01*
X116840000Y-133350000D02*
X109220000Y-133350000D01*
X116840000Y-135890000D02*
X109220000Y-135890000D01*
X119660000Y-136170000D02*
X118110000Y-136170000D01*
X109220000Y-133350000D02*
X109220000Y-135890000D01*
X116840000Y-135890000D02*
X116840000Y-133350000D01*
X118110000Y-133070000D02*
X119660000Y-133070000D01*
X119660000Y-133070000D02*
X119660000Y-136170000D01*
X116840000Y-120650000D02*
X109220000Y-120650000D01*
X116840000Y-123190000D02*
X109220000Y-123190000D01*
X119660000Y-123470000D02*
X118110000Y-123470000D01*
X109220000Y-120650000D02*
X109220000Y-123190000D01*
X116840000Y-123190000D02*
X116840000Y-120650000D01*
X118110000Y-120370000D02*
X119660000Y-120370000D01*
X119660000Y-120370000D02*
X119660000Y-123470000D01*
X116840000Y-127000000D02*
X109220000Y-127000000D01*
X116840000Y-129540000D02*
X109220000Y-129540000D01*
X119660000Y-129820000D02*
X118110000Y-129820000D01*
X109220000Y-127000000D02*
X109220000Y-129540000D01*
X116840000Y-129540000D02*
X116840000Y-127000000D01*
X118110000Y-126720000D02*
X119660000Y-126720000D01*
X119660000Y-126720000D02*
X119660000Y-129820000D01*
X62500000Y-132910000D02*
X64500000Y-132910000D01*
X64500000Y-135060000D02*
X62500000Y-135060000D01*
X72755000Y-154745000D02*
X70755000Y-154745000D01*
X70755000Y-152595000D02*
X72755000Y-152595000D01*
X57980000Y-134985000D02*
X57980000Y-132985000D01*
X60130000Y-132985000D02*
X60130000Y-134985000D01*
X47879000Y-100584000D02*
X47879000Y-103632000D01*
X47879000Y-103632000D02*
X54991000Y-103632000D01*
X54991000Y-103632000D02*
X54991000Y-100584000D01*
X47879000Y-97536000D02*
X47879000Y-96774000D01*
X47879000Y-96774000D02*
X49403000Y-94488000D01*
X49403000Y-94488000D02*
X53467000Y-94488000D01*
X53467000Y-94488000D02*
X54991000Y-96774000D01*
X54991000Y-96774000D02*
X54991000Y-97536000D01*
X109655000Y-116005000D02*
X110655000Y-115005000D01*
X110655000Y-115005000D02*
X110655000Y-103705000D01*
X110655000Y-103705000D02*
X97625000Y-103705000D01*
X97625000Y-103705000D02*
X97625000Y-116005000D01*
X97625000Y-116005000D02*
X109655000Y-116005000D01*
X82260000Y-161375000D02*
X83260000Y-162375000D01*
X83260000Y-162375000D02*
X90460000Y-162375000D01*
X90460000Y-162375000D02*
X90460000Y-155125000D01*
X90460000Y-155125000D02*
X82260000Y-155125000D01*
X82260000Y-155125000D02*
X82260000Y-161375000D01*
X55795000Y-130810000D02*
G75*
G03X55795000Y-130810000I-6900000J0D01*
G01*
X65135000Y-152205000D02*
X63135000Y-152205000D01*
X63135000Y-150055000D02*
X65135000Y-150055000D01*
X110880000Y-95615000D02*
X110880000Y-93615000D01*
X108830000Y-93615000D02*
X108830000Y-95615000D01*
X104200960Y-87701120D02*
X98999040Y-87701120D01*
X98999040Y-90098880D02*
X104200960Y-90098880D01*
X106199940Y-91198700D02*
X106199940Y-90098880D01*
X106799380Y-90698320D02*
X105600500Y-90698320D01*
X105595420Y-90098880D02*
X105595420Y-87701120D01*
X104385000Y-95520000D02*
X104385000Y-97520000D01*
X106435000Y-97520000D02*
X106435000Y-95520000D01*
X79765000Y-120380000D02*
X79765000Y-118380000D01*
X77715000Y-118380000D02*
X77715000Y-120380000D01*
X100600000Y-92465000D02*
X102600000Y-92465000D01*
X102600000Y-90415000D02*
X100600000Y-90415000D01*
X77225000Y-120380000D02*
X77225000Y-118380000D01*
X75175000Y-118380000D02*
X75175000Y-120380000D01*
X82305000Y-120380000D02*
X82305000Y-118380000D01*
X80255000Y-118380000D02*
X80255000Y-120380000D01*
X114055000Y-91805000D02*
X114055000Y-89805000D01*
X112005000Y-89805000D02*
X112005000Y-91805000D01*
X79010000Y-97545000D02*
X81010000Y-97545000D01*
X81010000Y-95495000D02*
X79010000Y-95495000D01*
X73390000Y-95495000D02*
X71390000Y-95495000D01*
X71390000Y-97545000D02*
X73390000Y-97545000D01*
X112005000Y-153940000D02*
X112005000Y-155940000D01*
X114055000Y-155940000D02*
X114055000Y-153940000D01*
X59420000Y-117085000D02*
X57420000Y-117085000D01*
X57420000Y-119135000D02*
X59420000Y-119135000D01*
X48625000Y-112640000D02*
X46625000Y-112640000D01*
X46625000Y-114690000D02*
X48625000Y-114690000D01*
X57540000Y-109585000D02*
X57540000Y-107585000D01*
X55490000Y-107585000D02*
X55490000Y-109585000D01*
X94225000Y-91710000D02*
X94225000Y-93710000D01*
X96275000Y-93710000D02*
X96275000Y-91710000D01*
D12*
X53635000Y-108585000D02*
G75*
G03X53635000Y-108585000I-2200000J0D01*
G01*
D11*
X47785000Y-111235000D02*
X48785000Y-112235000D01*
X48785000Y-112235000D02*
X55085000Y-112235000D01*
X55085000Y-112235000D02*
X55085000Y-104935000D01*
X55085000Y-104935000D02*
X47785000Y-104935000D01*
X47785000Y-104935000D02*
X47785000Y-111235000D01*
X72585000Y-120380000D02*
X72585000Y-118380000D01*
X74735000Y-118380000D02*
X74735000Y-120380000D01*
X111565000Y-153940000D02*
X111565000Y-155940000D01*
X109415000Y-155940000D02*
X109415000Y-153940000D01*
X53610000Y-120845000D02*
X55610000Y-120845000D01*
X55610000Y-122995000D02*
X53610000Y-122995000D01*
X40835000Y-117840000D02*
X40835000Y-115840000D01*
X42985000Y-115840000D02*
X42985000Y-117840000D01*
X44890000Y-99965000D02*
X44890000Y-101965000D01*
X42740000Y-101965000D02*
X42740000Y-99965000D01*
X40200000Y-109585000D02*
X40200000Y-107585000D01*
X42350000Y-107585000D02*
X42350000Y-109585000D01*
X116475000Y-95615000D02*
X116475000Y-96415000D01*
X112125000Y-99965000D02*
X112125000Y-99165000D01*
X116475000Y-99965000D02*
X116475000Y-99165000D01*
X112125000Y-95615000D02*
X112925000Y-95615000D01*
X112125000Y-99965000D02*
X112925000Y-99965000D01*
X116475000Y-99965000D02*
X115675000Y-99965000D01*
X116475000Y-95615000D02*
X115675000Y-95615000D01*
X103600000Y-99520000D02*
X104900000Y-99520000D01*
X104900000Y-99520000D02*
X104900000Y-99120000D01*
X104900000Y-99120000D02*
X104500000Y-99120000D01*
X104500000Y-99120000D02*
X104500000Y-99520000D01*
X99600000Y-99520000D02*
X103600000Y-99520000D01*
X103600000Y-99520000D02*
X103600000Y-93520000D01*
X103600000Y-93520000D02*
X99600000Y-93520000D01*
X99600000Y-93520000D02*
X99600000Y-99520000D01*
X51135000Y-115775000D02*
G75*
G03X51135000Y-115775000I-100000J0D01*
G01*
X51685000Y-116025000D02*
X51185000Y-116025000D01*
X51685000Y-118925000D02*
X51685000Y-116025000D01*
X51185000Y-118925000D02*
X51685000Y-118925000D01*
X51185000Y-116025000D02*
X51185000Y-118925000D01*
X93472000Y-94996000D02*
G75*
G03X93218000Y-95250000I0J-254000D01*
G01*
X89290000Y-95385000D02*
X93590000Y-95385000D01*
X93590000Y-95385000D02*
X93590000Y-90035000D01*
X93590000Y-90035000D02*
X89290000Y-90035000D01*
X89290000Y-90035000D02*
X89290000Y-95385000D01*
X77715000Y-123410000D02*
X74115000Y-123410000D01*
X77715000Y-125510000D02*
X74115000Y-125510000D01*
X75665000Y-124760000D02*
X75665000Y-124160000D01*
X75665000Y-124160000D02*
X75965000Y-124460000D01*
X75965000Y-124460000D02*
X75765000Y-124660000D01*
X75765000Y-124660000D02*
X75765000Y-124410000D01*
X75765000Y-124410000D02*
X75815000Y-124460000D01*
X76065000Y-124960000D02*
X76065000Y-123960000D01*
X75565000Y-124460000D02*
X75065000Y-124460000D01*
X76065000Y-124460000D02*
X75565000Y-124960000D01*
X75565000Y-124960000D02*
X75565000Y-123960000D01*
X75565000Y-123960000D02*
X76065000Y-124460000D01*
X47235000Y-94835000D02*
X43635000Y-94835000D01*
X47235000Y-96935000D02*
X43635000Y-96935000D01*
X45185000Y-96185000D02*
X45185000Y-95585000D01*
X45185000Y-95585000D02*
X45485000Y-95885000D01*
X45485000Y-95885000D02*
X45285000Y-96085000D01*
X45285000Y-96085000D02*
X45285000Y-95835000D01*
X45285000Y-95835000D02*
X45335000Y-95885000D01*
X45585000Y-96385000D02*
X45585000Y-95385000D01*
X45085000Y-95885000D02*
X44585000Y-95885000D01*
X45585000Y-95885000D02*
X45085000Y-96385000D01*
X45085000Y-96385000D02*
X45085000Y-95385000D01*
X45085000Y-95385000D02*
X45585000Y-95885000D01*
X83000000Y-105595000D02*
X82675000Y-105595000D01*
X83000000Y-112845000D02*
X82675000Y-112845000D01*
X75750000Y-112845000D02*
X76075000Y-112845000D01*
X75750000Y-105595000D02*
X76075000Y-105595000D01*
X83000000Y-105595000D02*
X83000000Y-105920000D01*
X75750000Y-105595000D02*
X75750000Y-105920000D01*
X75750000Y-112845000D02*
X75750000Y-112520000D01*
X83000000Y-112845000D02*
X83000000Y-112520000D01*
X82675000Y-105595000D02*
X82675000Y-104170000D01*
X105990000Y-166485000D02*
X105990000Y-166985000D01*
X105990000Y-166985000D02*
X114990000Y-166985000D01*
X114990000Y-166985000D02*
X114990000Y-166485000D01*
X114990000Y-164985000D02*
X114990000Y-164485000D01*
X114990000Y-164485000D02*
X105990000Y-164485000D01*
X105990000Y-164485000D02*
X105990000Y-164985000D01*
X80645000Y-101600000D02*
X79375000Y-102870000D01*
X67945000Y-102870000D02*
X66675000Y-101600000D01*
X66675000Y-99060000D02*
X67945000Y-97790000D01*
X80645000Y-99060000D02*
X79375000Y-97790000D01*
X79375000Y-102870000D02*
X67945000Y-102870000D01*
X80645000Y-101600000D02*
X80645000Y-99060000D01*
X79375000Y-97790000D02*
X67945000Y-97790000D01*
X66675000Y-99060000D02*
X66675000Y-101600000D01*
X119380000Y-154940000D02*
X119380000Y-167640000D01*
X119380000Y-167640000D02*
X116840000Y-167640000D01*
X116840000Y-167640000D02*
X116840000Y-154940000D01*
X119660000Y-152120000D02*
X119660000Y-153670000D01*
X119380000Y-154940000D02*
X116840000Y-154940000D01*
X116560000Y-153670000D02*
X116560000Y-152120000D01*
X116560000Y-152120000D02*
X119660000Y-152120000D01*
X63135000Y-149615000D02*
X65135000Y-149615000D01*
X65135000Y-147565000D02*
X63135000Y-147565000D01*
X72755000Y-155185000D02*
X70755000Y-155185000D01*
X70755000Y-157235000D02*
X72755000Y-157235000D01*
X63135000Y-167395000D02*
X65135000Y-167395000D01*
X65135000Y-165345000D02*
X63135000Y-165345000D01*
X65135000Y-159825000D02*
X63135000Y-159825000D01*
X63135000Y-157675000D02*
X65135000Y-157675000D01*
X65135000Y-157285000D02*
X63135000Y-157285000D01*
X63135000Y-155135000D02*
X65135000Y-155135000D01*
X65135000Y-154745000D02*
X63135000Y-154745000D01*
X63135000Y-152595000D02*
X65135000Y-152595000D01*
X65135000Y-162365000D02*
X63135000Y-162365000D01*
X63135000Y-160215000D02*
X65135000Y-160215000D01*
X65135000Y-164905000D02*
X63135000Y-164905000D01*
X63135000Y-162755000D02*
X65135000Y-162755000D01*
X56235000Y-156210000D02*
X56235000Y-154660000D01*
X56235000Y-154660000D02*
X59335000Y-154660000D01*
X59335000Y-154660000D02*
X59335000Y-156210000D01*
X59055000Y-157480000D02*
X59055000Y-167640000D01*
X59055000Y-167640000D02*
X56515000Y-167640000D01*
X56515000Y-167640000D02*
X56515000Y-157480000D01*
X59055000Y-157480000D02*
X56515000Y-157480000D01*
X68000880Y-86169500D02*
X58999120Y-86169500D01*
X68000880Y-82669380D02*
X58999120Y-82669380D01*
X58999120Y-82669380D02*
X58999120Y-97170240D01*
X58999120Y-97170240D02*
X68000880Y-97170240D01*
X68000880Y-97170240D02*
X68000880Y-82669380D01*
X57383680Y-116100000D02*
X57383680Y-115900200D01*
X57840720Y-116050000D02*
X57840720Y-115901000D01*
X61986160Y-116100000D02*
X61986160Y-115951000D01*
X57388760Y-112500000D02*
X57388760Y-112649000D01*
X57840720Y-112500000D02*
X57840720Y-112649000D01*
X61991240Y-112500000D02*
X61991240Y-112649000D01*
X57840720Y-116248980D02*
X57840720Y-116050860D01*
X57840720Y-112301020D02*
X57840720Y-112499140D01*
X61986160Y-116296440D02*
X61986160Y-116098320D01*
X57383680Y-116296440D02*
X61986160Y-116296440D01*
X57383680Y-116296440D02*
X57383680Y-116098320D01*
X57388760Y-112301020D02*
X57388760Y-112499140D01*
X57388760Y-112301020D02*
X61991240Y-112301020D01*
X61991240Y-112301020D02*
X61991240Y-112499140D01*
X46885000Y-110891320D02*
X46685200Y-110891320D01*
X46835000Y-110434280D02*
X46686000Y-110434280D01*
X46885000Y-106288840D02*
X46736000Y-106288840D01*
X43285000Y-110886240D02*
X43434000Y-110886240D01*
X43285000Y-110434280D02*
X43434000Y-110434280D01*
X43285000Y-106283760D02*
X43434000Y-106283760D01*
X47033980Y-110434280D02*
X46835860Y-110434280D01*
X43086020Y-110434280D02*
X43284140Y-110434280D01*
X47081440Y-106288840D02*
X46883320Y-106288840D01*
X47081440Y-110891320D02*
X47081440Y-106288840D01*
X47081440Y-110891320D02*
X46883320Y-110891320D01*
X43086020Y-110886240D02*
X43284140Y-110886240D01*
X43086020Y-110886240D02*
X43086020Y-106283760D01*
X43086020Y-106283760D02*
X43284140Y-106283760D01*
X96520000Y-167640000D02*
X96520000Y-154940000D01*
X96520000Y-154940000D02*
X101600000Y-154940000D01*
X101600000Y-154940000D02*
X101600000Y-165100000D01*
X96520000Y-167640000D02*
X99060000Y-167640000D01*
X100330000Y-167920000D02*
X101880000Y-167920000D01*
X99060000Y-167640000D02*
X99060000Y-165100000D01*
X99060000Y-165100000D02*
X101600000Y-165100000D01*
X101880000Y-167920000D02*
X101880000Y-166370000D01*
X45466000Y-167640000D02*
G75*
G03X45466000Y-167640000I-2286000J0D01*
G01*
X45466000Y-86360000D02*
G75*
G03X45466000Y-86360000I-2286000J0D01*
G01*
X119126000Y-142240000D02*
G75*
G03X119126000Y-142240000I-2286000J0D01*
G01*
X119126000Y-111760000D02*
G75*
G03X119126000Y-111760000I-2286000J0D01*
G01*
X60491619Y-125825238D02*
X60444000Y-125920476D01*
X60348762Y-126015714D01*
X60205905Y-126158571D01*
X60158286Y-126253810D01*
X60158286Y-126349048D01*
X60396381Y-126301429D02*
X60348762Y-126396667D01*
X60253524Y-126491905D01*
X60063048Y-126539524D01*
X59729714Y-126539524D01*
X59539238Y-126491905D01*
X59444000Y-126396667D01*
X59396381Y-126301429D01*
X59396381Y-126110952D01*
X59444000Y-126015714D01*
X59539238Y-125920476D01*
X59729714Y-125872857D01*
X60063048Y-125872857D01*
X60253524Y-125920476D01*
X60348762Y-126015714D01*
X60396381Y-126110952D01*
X60396381Y-126301429D01*
X59396381Y-125539524D02*
X59396381Y-124920476D01*
X59777333Y-125253810D01*
X59777333Y-125110952D01*
X59824952Y-125015714D01*
X59872571Y-124968095D01*
X59967810Y-124920476D01*
X60205905Y-124920476D01*
X60301143Y-124968095D01*
X60348762Y-125015714D01*
X60396381Y-125110952D01*
X60396381Y-125396667D01*
X60348762Y-125491905D01*
X60301143Y-125539524D01*
X93494286Y-139790286D02*
X93665715Y-139847429D01*
X93722858Y-139904571D01*
X93780001Y-140018857D01*
X93780001Y-140190286D01*
X93722858Y-140304571D01*
X93665715Y-140361714D01*
X93551429Y-140418857D01*
X93094286Y-140418857D01*
X93094286Y-139218857D01*
X93494286Y-139218857D01*
X93608572Y-139276000D01*
X93665715Y-139333143D01*
X93722858Y-139447429D01*
X93722858Y-139561714D01*
X93665715Y-139676000D01*
X93608572Y-139733143D01*
X93494286Y-139790286D01*
X93094286Y-139790286D01*
X94922858Y-140418857D02*
X94237143Y-140418857D01*
X94580001Y-140418857D02*
X94580001Y-139218857D01*
X94465715Y-139390286D01*
X94351429Y-139504571D01*
X94237143Y-139561714D01*
D13*
X103172381Y-137341429D02*
X105107619Y-137341429D01*
X104140000Y-138309048D02*
X104140000Y-136373810D01*
D11*
X107783334Y-100292143D02*
X107735715Y-100339762D01*
X107592858Y-100387381D01*
X107497620Y-100387381D01*
X107354762Y-100339762D01*
X107259524Y-100244524D01*
X107211905Y-100149286D01*
X107164286Y-99958810D01*
X107164286Y-99815952D01*
X107211905Y-99625476D01*
X107259524Y-99530238D01*
X107354762Y-99435000D01*
X107497620Y-99387381D01*
X107592858Y-99387381D01*
X107735715Y-99435000D01*
X107783334Y-99482619D01*
X108164286Y-99482619D02*
X108211905Y-99435000D01*
X108307143Y-99387381D01*
X108545239Y-99387381D01*
X108640477Y-99435000D01*
X108688096Y-99482619D01*
X108735715Y-99577857D01*
X108735715Y-99673095D01*
X108688096Y-99815952D01*
X108116667Y-100387381D01*
X108735715Y-100387381D01*
X56348334Y-101322143D02*
X56300715Y-101369762D01*
X56157858Y-101417381D01*
X56062620Y-101417381D01*
X55919762Y-101369762D01*
X55824524Y-101274524D01*
X55776905Y-101179286D01*
X55729286Y-100988810D01*
X55729286Y-100845952D01*
X55776905Y-100655476D01*
X55824524Y-100560238D01*
X55919762Y-100465000D01*
X56062620Y-100417381D01*
X56157858Y-100417381D01*
X56300715Y-100465000D01*
X56348334Y-100512619D01*
X56681667Y-100417381D02*
X57300715Y-100417381D01*
X56967381Y-100798333D01*
X57110239Y-100798333D01*
X57205477Y-100845952D01*
X57253096Y-100893571D01*
X57300715Y-100988810D01*
X57300715Y-101226905D01*
X57253096Y-101322143D01*
X57205477Y-101369762D01*
X57110239Y-101417381D01*
X56824524Y-101417381D01*
X56729286Y-101369762D01*
X56681667Y-101322143D01*
X46188334Y-101322143D02*
X46140715Y-101369762D01*
X45997858Y-101417381D01*
X45902620Y-101417381D01*
X45759762Y-101369762D01*
X45664524Y-101274524D01*
X45616905Y-101179286D01*
X45569286Y-100988810D01*
X45569286Y-100845952D01*
X45616905Y-100655476D01*
X45664524Y-100560238D01*
X45759762Y-100465000D01*
X45902620Y-100417381D01*
X45997858Y-100417381D01*
X46140715Y-100465000D01*
X46188334Y-100512619D01*
X47045477Y-100750714D02*
X47045477Y-101417381D01*
X46807381Y-100369762D02*
X46569286Y-101084048D01*
X47188334Y-101084048D01*
X93813334Y-155932143D02*
X93765715Y-155979762D01*
X93622858Y-156027381D01*
X93527620Y-156027381D01*
X93384762Y-155979762D01*
X93289524Y-155884524D01*
X93241905Y-155789286D01*
X93194286Y-155598810D01*
X93194286Y-155455952D01*
X93241905Y-155265476D01*
X93289524Y-155170238D01*
X93384762Y-155075000D01*
X93527620Y-155027381D01*
X93622858Y-155027381D01*
X93765715Y-155075000D01*
X93813334Y-155122619D01*
X94718096Y-155027381D02*
X94241905Y-155027381D01*
X94194286Y-155503571D01*
X94241905Y-155455952D01*
X94337143Y-155408333D01*
X94575239Y-155408333D01*
X94670477Y-155455952D01*
X94718096Y-155503571D01*
X94765715Y-155598810D01*
X94765715Y-155836905D01*
X94718096Y-155932143D01*
X94670477Y-155979762D01*
X94575239Y-156027381D01*
X94337143Y-156027381D01*
X94241905Y-155979762D01*
X94194286Y-155932143D01*
X91908334Y-155932143D02*
X91860715Y-155979762D01*
X91717858Y-156027381D01*
X91622620Y-156027381D01*
X91479762Y-155979762D01*
X91384524Y-155884524D01*
X91336905Y-155789286D01*
X91289286Y-155598810D01*
X91289286Y-155455952D01*
X91336905Y-155265476D01*
X91384524Y-155170238D01*
X91479762Y-155075000D01*
X91622620Y-155027381D01*
X91717858Y-155027381D01*
X91860715Y-155075000D01*
X91908334Y-155122619D01*
X92765477Y-155027381D02*
X92575000Y-155027381D01*
X92479762Y-155075000D01*
X92432143Y-155122619D01*
X92336905Y-155265476D01*
X92289286Y-155455952D01*
X92289286Y-155836905D01*
X92336905Y-155932143D01*
X92384524Y-155979762D01*
X92479762Y-156027381D01*
X92670239Y-156027381D01*
X92765477Y-155979762D01*
X92813096Y-155932143D01*
X92860715Y-155836905D01*
X92860715Y-155598810D01*
X92813096Y-155503571D01*
X92765477Y-155455952D01*
X92670239Y-155408333D01*
X92479762Y-155408333D01*
X92384524Y-155455952D01*
X92336905Y-155503571D01*
X92289286Y-155598810D01*
X120848381Y-135358095D02*
X119848381Y-135358095D01*
X119848381Y-134977142D01*
X119896000Y-134881904D01*
X119943619Y-134834285D01*
X120038857Y-134786666D01*
X120181714Y-134786666D01*
X120276952Y-134834285D01*
X120324571Y-134881904D01*
X120372190Y-134977142D01*
X120372190Y-135358095D01*
X120848381Y-133834285D02*
X120848381Y-134405714D01*
X120848381Y-134120000D02*
X119848381Y-134120000D01*
X119991238Y-134215238D01*
X120086476Y-134310476D01*
X120134095Y-134405714D01*
X120848381Y-122658095D02*
X119848381Y-122658095D01*
X119848381Y-122277142D01*
X119896000Y-122181904D01*
X119943619Y-122134285D01*
X120038857Y-122086666D01*
X120181714Y-122086666D01*
X120276952Y-122134285D01*
X120324571Y-122181904D01*
X120372190Y-122277142D01*
X120372190Y-122658095D01*
X119943619Y-121705714D02*
X119896000Y-121658095D01*
X119848381Y-121562857D01*
X119848381Y-121324761D01*
X119896000Y-121229523D01*
X119943619Y-121181904D01*
X120038857Y-121134285D01*
X120134095Y-121134285D01*
X120276952Y-121181904D01*
X120848381Y-121753333D01*
X120848381Y-121134285D01*
X120848381Y-129008095D02*
X119848381Y-129008095D01*
X119848381Y-128627142D01*
X119896000Y-128531904D01*
X119943619Y-128484285D01*
X120038857Y-128436666D01*
X120181714Y-128436666D01*
X120276952Y-128484285D01*
X120324571Y-128531904D01*
X120372190Y-128627142D01*
X120372190Y-129008095D01*
X119848381Y-128103333D02*
X119848381Y-127484285D01*
X120229333Y-127817619D01*
X120229333Y-127674761D01*
X120276952Y-127579523D01*
X120324571Y-127531904D01*
X120419810Y-127484285D01*
X120657905Y-127484285D01*
X120753143Y-127531904D01*
X120800762Y-127579523D01*
X120848381Y-127674761D01*
X120848381Y-127960476D01*
X120800762Y-128055714D01*
X120753143Y-128103333D01*
X63952381Y-134151666D02*
X63476190Y-134485000D01*
X63952381Y-134723095D02*
X62952381Y-134723095D01*
X62952381Y-134342142D01*
X63000000Y-134246904D01*
X63047619Y-134199285D01*
X63142857Y-134151666D01*
X63285714Y-134151666D01*
X63380952Y-134199285D01*
X63428571Y-134246904D01*
X63476190Y-134342142D01*
X63476190Y-134723095D01*
X62952381Y-133818333D02*
X62952381Y-133199285D01*
X63333333Y-133532619D01*
X63333333Y-133389761D01*
X63380952Y-133294523D01*
X63428571Y-133246904D01*
X63523810Y-133199285D01*
X63761905Y-133199285D01*
X63857143Y-133246904D01*
X63904762Y-133294523D01*
X63952381Y-133389761D01*
X63952381Y-133675476D01*
X63904762Y-133770714D01*
X63857143Y-133818333D01*
X73493334Y-152217381D02*
X73160000Y-151741190D01*
X72921905Y-152217381D02*
X72921905Y-151217381D01*
X73302858Y-151217381D01*
X73398096Y-151265000D01*
X73445715Y-151312619D01*
X73493334Y-151407857D01*
X73493334Y-151550714D01*
X73445715Y-151645952D01*
X73398096Y-151693571D01*
X73302858Y-151741190D01*
X72921905Y-151741190D01*
X74398096Y-151217381D02*
X73921905Y-151217381D01*
X73874286Y-151693571D01*
X73921905Y-151645952D01*
X74017143Y-151598333D01*
X74255239Y-151598333D01*
X74350477Y-151645952D01*
X74398096Y-151693571D01*
X74445715Y-151788810D01*
X74445715Y-152026905D01*
X74398096Y-152122143D01*
X74350477Y-152169762D01*
X74255239Y-152217381D01*
X74017143Y-152217381D01*
X73921905Y-152169762D01*
X73874286Y-152122143D01*
X58888334Y-134437381D02*
X58555000Y-133961190D01*
X58316905Y-134437381D02*
X58316905Y-133437381D01*
X58697858Y-133437381D01*
X58793096Y-133485000D01*
X58840715Y-133532619D01*
X58888334Y-133627857D01*
X58888334Y-133770714D01*
X58840715Y-133865952D01*
X58793096Y-133913571D01*
X58697858Y-133961190D01*
X58316905Y-133961190D01*
X59221667Y-133437381D02*
X59888334Y-133437381D01*
X59459762Y-134437381D01*
X50673095Y-97750381D02*
X50673095Y-98559905D01*
X50720714Y-98655143D01*
X50768333Y-98702762D01*
X50863571Y-98750381D01*
X51054048Y-98750381D01*
X51149286Y-98702762D01*
X51196905Y-98655143D01*
X51244524Y-98559905D01*
X51244524Y-97750381D01*
X51673095Y-97845619D02*
X51720714Y-97798000D01*
X51815952Y-97750381D01*
X52054048Y-97750381D01*
X52149286Y-97798000D01*
X52196905Y-97845619D01*
X52244524Y-97940857D01*
X52244524Y-98036095D01*
X52196905Y-98178952D01*
X51625476Y-98750381D01*
X52244524Y-98750381D01*
X103225714Y-109197857D02*
X103225714Y-110169286D01*
X103282857Y-110283571D01*
X103340000Y-110340714D01*
X103454286Y-110397857D01*
X103682857Y-110397857D01*
X103797143Y-110340714D01*
X103854286Y-110283571D01*
X103911429Y-110169286D01*
X103911429Y-109197857D01*
X104997143Y-109597857D02*
X104997143Y-110397857D01*
X104711429Y-109140714D02*
X104425714Y-109997857D01*
X105168572Y-109997857D01*
X85699714Y-155552857D02*
X85699714Y-156524286D01*
X85756857Y-156638571D01*
X85814000Y-156695714D01*
X85928286Y-156752857D01*
X86156857Y-156752857D01*
X86271143Y-156695714D01*
X86328286Y-156638571D01*
X86385429Y-156524286D01*
X86385429Y-155552857D01*
X87528286Y-155552857D02*
X86956857Y-155552857D01*
X86899714Y-156124286D01*
X86956857Y-156067143D01*
X87071143Y-156010000D01*
X87356857Y-156010000D01*
X87471143Y-156067143D01*
X87528286Y-156124286D01*
X87585429Y-156238571D01*
X87585429Y-156524286D01*
X87528286Y-156638571D01*
X87471143Y-156695714D01*
X87356857Y-156752857D01*
X87071143Y-156752857D01*
X86956857Y-156695714D01*
X86899714Y-156638571D01*
X48966429Y-128650952D02*
X48966429Y-127889047D01*
X49347381Y-128269999D02*
X48585476Y-128269999D01*
X69048334Y-151582381D02*
X68715000Y-151106190D01*
X68476905Y-151582381D02*
X68476905Y-150582381D01*
X68857858Y-150582381D01*
X68953096Y-150630000D01*
X69000715Y-150677619D01*
X69048334Y-150772857D01*
X69048334Y-150915714D01*
X69000715Y-151010952D01*
X68953096Y-151058571D01*
X68857858Y-151106190D01*
X68476905Y-151106190D01*
X69619762Y-151010952D02*
X69524524Y-150963333D01*
X69476905Y-150915714D01*
X69429286Y-150820476D01*
X69429286Y-150772857D01*
X69476905Y-150677619D01*
X69524524Y-150630000D01*
X69619762Y-150582381D01*
X69810239Y-150582381D01*
X69905477Y-150630000D01*
X69953096Y-150677619D01*
X70000715Y-150772857D01*
X70000715Y-150820476D01*
X69953096Y-150915714D01*
X69905477Y-150963333D01*
X69810239Y-151010952D01*
X69619762Y-151010952D01*
X69524524Y-151058571D01*
X69476905Y-151106190D01*
X69429286Y-151201429D01*
X69429286Y-151391905D01*
X69476905Y-151487143D01*
X69524524Y-151534762D01*
X69619762Y-151582381D01*
X69810239Y-151582381D01*
X69905477Y-151534762D01*
X69953096Y-151487143D01*
X70000715Y-151391905D01*
X70000715Y-151201429D01*
X69953096Y-151106190D01*
X69905477Y-151058571D01*
X69810239Y-151010952D01*
X110212143Y-90971666D02*
X110259762Y-91019285D01*
X110307381Y-91162142D01*
X110307381Y-91257380D01*
X110259762Y-91400238D01*
X110164524Y-91495476D01*
X110069286Y-91543095D01*
X109878810Y-91590714D01*
X109735952Y-91590714D01*
X109545476Y-91543095D01*
X109450238Y-91495476D01*
X109355000Y-91400238D01*
X109307381Y-91257380D01*
X109307381Y-91162142D01*
X109355000Y-91019285D01*
X109402619Y-90971666D01*
X110307381Y-90019285D02*
X110307381Y-90590714D01*
X110307381Y-90305000D02*
X109307381Y-90305000D01*
X109450238Y-90400238D01*
X109545476Y-90495476D01*
X109593095Y-90590714D01*
X106513334Y-89257143D02*
X106465715Y-89304762D01*
X106322858Y-89352381D01*
X106227620Y-89352381D01*
X106084762Y-89304762D01*
X105989524Y-89209524D01*
X105941905Y-89114286D01*
X105894286Y-88923810D01*
X105894286Y-88780952D01*
X105941905Y-88590476D01*
X105989524Y-88495238D01*
X106084762Y-88400000D01*
X106227620Y-88352381D01*
X106322858Y-88352381D01*
X106465715Y-88400000D01*
X106513334Y-88447619D01*
X106846667Y-88352381D02*
X107513334Y-88352381D01*
X107084762Y-89352381D01*
X105818988Y-90772289D02*
X106580893Y-90772289D01*
X106199941Y-91153241D02*
X106199941Y-90391336D01*
X105243334Y-96877143D02*
X105195715Y-96924762D01*
X105052858Y-96972381D01*
X104957620Y-96972381D01*
X104814762Y-96924762D01*
X104719524Y-96829524D01*
X104671905Y-96734286D01*
X104624286Y-96543810D01*
X104624286Y-96400952D01*
X104671905Y-96210476D01*
X104719524Y-96115238D01*
X104814762Y-96020000D01*
X104957620Y-95972381D01*
X105052858Y-95972381D01*
X105195715Y-96020000D01*
X105243334Y-96067619D01*
X105814762Y-96400952D02*
X105719524Y-96353333D01*
X105671905Y-96305714D01*
X105624286Y-96210476D01*
X105624286Y-96162857D01*
X105671905Y-96067619D01*
X105719524Y-96020000D01*
X105814762Y-95972381D01*
X106005239Y-95972381D01*
X106100477Y-96020000D01*
X106148096Y-96067619D01*
X106195715Y-96162857D01*
X106195715Y-96210476D01*
X106148096Y-96305714D01*
X106100477Y-96353333D01*
X106005239Y-96400952D01*
X105814762Y-96400952D01*
X105719524Y-96448571D01*
X105671905Y-96496190D01*
X105624286Y-96591429D01*
X105624286Y-96781905D01*
X105671905Y-96877143D01*
X105719524Y-96924762D01*
X105814762Y-96972381D01*
X106005239Y-96972381D01*
X106100477Y-96924762D01*
X106148096Y-96877143D01*
X106195715Y-96781905D01*
X106195715Y-96591429D01*
X106148096Y-96496190D01*
X106100477Y-96448571D01*
X106005239Y-96400952D01*
X79097143Y-123991666D02*
X79144762Y-124039285D01*
X79192381Y-124182142D01*
X79192381Y-124277380D01*
X79144762Y-124420238D01*
X79049524Y-124515476D01*
X78954286Y-124563095D01*
X78763810Y-124610714D01*
X78620952Y-124610714D01*
X78430476Y-124563095D01*
X78335238Y-124515476D01*
X78240000Y-124420238D01*
X78192381Y-124277380D01*
X78192381Y-124182142D01*
X78240000Y-124039285D01*
X78287619Y-123991666D01*
X79192381Y-123515476D02*
X79192381Y-123325000D01*
X79144762Y-123229761D01*
X79097143Y-123182142D01*
X78954286Y-123086904D01*
X78763810Y-123039285D01*
X78382857Y-123039285D01*
X78287619Y-123086904D01*
X78240000Y-123134523D01*
X78192381Y-123229761D01*
X78192381Y-123420238D01*
X78240000Y-123515476D01*
X78287619Y-123563095D01*
X78382857Y-123610714D01*
X78620952Y-123610714D01*
X78716190Y-123563095D01*
X78763810Y-123515476D01*
X78811429Y-123420238D01*
X78811429Y-123229761D01*
X78763810Y-123134523D01*
X78716190Y-123086904D01*
X78620952Y-123039285D01*
X105402143Y-92432143D02*
X105354524Y-92479762D01*
X105211667Y-92527381D01*
X105116429Y-92527381D01*
X104973571Y-92479762D01*
X104878333Y-92384524D01*
X104830714Y-92289286D01*
X104783095Y-92098810D01*
X104783095Y-91955952D01*
X104830714Y-91765476D01*
X104878333Y-91670238D01*
X104973571Y-91575000D01*
X105116429Y-91527381D01*
X105211667Y-91527381D01*
X105354524Y-91575000D01*
X105402143Y-91622619D01*
X106354524Y-92527381D02*
X105783095Y-92527381D01*
X106068809Y-92527381D02*
X106068809Y-91527381D01*
X105973571Y-91670238D01*
X105878333Y-91765476D01*
X105783095Y-91813095D01*
X106973571Y-91527381D02*
X107068810Y-91527381D01*
X107164048Y-91575000D01*
X107211667Y-91622619D01*
X107259286Y-91717857D01*
X107306905Y-91908333D01*
X107306905Y-92146429D01*
X107259286Y-92336905D01*
X107211667Y-92432143D01*
X107164048Y-92479762D01*
X107068810Y-92527381D01*
X106973571Y-92527381D01*
X106878333Y-92479762D01*
X106830714Y-92432143D01*
X106783095Y-92336905D01*
X106735476Y-92146429D01*
X106735476Y-91908333D01*
X106783095Y-91717857D01*
X106830714Y-91622619D01*
X106878333Y-91575000D01*
X106973571Y-91527381D01*
X76557143Y-115577857D02*
X76604762Y-115625476D01*
X76652381Y-115768333D01*
X76652381Y-115863571D01*
X76604762Y-116006429D01*
X76509524Y-116101667D01*
X76414286Y-116149286D01*
X76223810Y-116196905D01*
X76080952Y-116196905D01*
X75890476Y-116149286D01*
X75795238Y-116101667D01*
X75700000Y-116006429D01*
X75652381Y-115863571D01*
X75652381Y-115768333D01*
X75700000Y-115625476D01*
X75747619Y-115577857D01*
X76652381Y-114625476D02*
X76652381Y-115196905D01*
X76652381Y-114911191D02*
X75652381Y-114911191D01*
X75795238Y-115006429D01*
X75890476Y-115101667D01*
X75938095Y-115196905D01*
X76652381Y-113673095D02*
X76652381Y-114244524D01*
X76652381Y-113958810D02*
X75652381Y-113958810D01*
X75795238Y-114054048D01*
X75890476Y-114149286D01*
X75938095Y-114244524D01*
X81637143Y-124467857D02*
X81684762Y-124515476D01*
X81732381Y-124658333D01*
X81732381Y-124753571D01*
X81684762Y-124896429D01*
X81589524Y-124991667D01*
X81494286Y-125039286D01*
X81303810Y-125086905D01*
X81160952Y-125086905D01*
X80970476Y-125039286D01*
X80875238Y-124991667D01*
X80780000Y-124896429D01*
X80732381Y-124753571D01*
X80732381Y-124658333D01*
X80780000Y-124515476D01*
X80827619Y-124467857D01*
X81732381Y-123515476D02*
X81732381Y-124086905D01*
X81732381Y-123801191D02*
X80732381Y-123801191D01*
X80875238Y-123896429D01*
X80970476Y-123991667D01*
X81018095Y-124086905D01*
X80827619Y-123134524D02*
X80780000Y-123086905D01*
X80732381Y-122991667D01*
X80732381Y-122753571D01*
X80780000Y-122658333D01*
X80827619Y-122610714D01*
X80922857Y-122563095D01*
X81018095Y-122563095D01*
X81160952Y-122610714D01*
X81732381Y-123182143D01*
X81732381Y-122563095D01*
X113387143Y-87002857D02*
X113434762Y-87050476D01*
X113482381Y-87193333D01*
X113482381Y-87288571D01*
X113434762Y-87431429D01*
X113339524Y-87526667D01*
X113244286Y-87574286D01*
X113053810Y-87621905D01*
X112910952Y-87621905D01*
X112720476Y-87574286D01*
X112625238Y-87526667D01*
X112530000Y-87431429D01*
X112482381Y-87288571D01*
X112482381Y-87193333D01*
X112530000Y-87050476D01*
X112577619Y-87002857D01*
X113482381Y-86050476D02*
X113482381Y-86621905D01*
X113482381Y-86336191D02*
X112482381Y-86336191D01*
X112625238Y-86431429D01*
X112720476Y-86526667D01*
X112768095Y-86621905D01*
X112482381Y-85717143D02*
X112482381Y-85098095D01*
X112863333Y-85431429D01*
X112863333Y-85288571D01*
X112910952Y-85193333D01*
X112958571Y-85145714D01*
X113053810Y-85098095D01*
X113291905Y-85098095D01*
X113387143Y-85145714D01*
X113434762Y-85193333D01*
X113482381Y-85288571D01*
X113482381Y-85574286D01*
X113434762Y-85669524D01*
X113387143Y-85717143D01*
X79367143Y-94972143D02*
X79319524Y-95019762D01*
X79176667Y-95067381D01*
X79081429Y-95067381D01*
X78938571Y-95019762D01*
X78843333Y-94924524D01*
X78795714Y-94829286D01*
X78748095Y-94638810D01*
X78748095Y-94495952D01*
X78795714Y-94305476D01*
X78843333Y-94210238D01*
X78938571Y-94115000D01*
X79081429Y-94067381D01*
X79176667Y-94067381D01*
X79319524Y-94115000D01*
X79367143Y-94162619D01*
X80319524Y-95067381D02*
X79748095Y-95067381D01*
X80033809Y-95067381D02*
X80033809Y-94067381D01*
X79938571Y-94210238D01*
X79843333Y-94305476D01*
X79748095Y-94353095D01*
X81176667Y-94400714D02*
X81176667Y-95067381D01*
X80938571Y-94019762D02*
X80700476Y-94734048D01*
X81319524Y-94734048D01*
X71747143Y-94972143D02*
X71699524Y-95019762D01*
X71556667Y-95067381D01*
X71461429Y-95067381D01*
X71318571Y-95019762D01*
X71223333Y-94924524D01*
X71175714Y-94829286D01*
X71128095Y-94638810D01*
X71128095Y-94495952D01*
X71175714Y-94305476D01*
X71223333Y-94210238D01*
X71318571Y-94115000D01*
X71461429Y-94067381D01*
X71556667Y-94067381D01*
X71699524Y-94115000D01*
X71747143Y-94162619D01*
X72699524Y-95067381D02*
X72128095Y-95067381D01*
X72413809Y-95067381D02*
X72413809Y-94067381D01*
X72318571Y-94210238D01*
X72223333Y-94305476D01*
X72128095Y-94353095D01*
X73604286Y-94067381D02*
X73128095Y-94067381D01*
X73080476Y-94543571D01*
X73128095Y-94495952D01*
X73223333Y-94448333D01*
X73461429Y-94448333D01*
X73556667Y-94495952D01*
X73604286Y-94543571D01*
X73651905Y-94638810D01*
X73651905Y-94876905D01*
X73604286Y-94972143D01*
X73556667Y-95019762D01*
X73461429Y-95067381D01*
X73223333Y-95067381D01*
X73128095Y-95019762D01*
X73080476Y-94972143D01*
X113387143Y-160027857D02*
X113434762Y-160075476D01*
X113482381Y-160218333D01*
X113482381Y-160313571D01*
X113434762Y-160456429D01*
X113339524Y-160551667D01*
X113244286Y-160599286D01*
X113053810Y-160646905D01*
X112910952Y-160646905D01*
X112720476Y-160599286D01*
X112625238Y-160551667D01*
X112530000Y-160456429D01*
X112482381Y-160313571D01*
X112482381Y-160218333D01*
X112530000Y-160075476D01*
X112577619Y-160027857D01*
X113482381Y-159075476D02*
X113482381Y-159646905D01*
X113482381Y-159361191D02*
X112482381Y-159361191D01*
X112625238Y-159456429D01*
X112720476Y-159551667D01*
X112768095Y-159646905D01*
X112482381Y-158218333D02*
X112482381Y-158408810D01*
X112530000Y-158504048D01*
X112577619Y-158551667D01*
X112720476Y-158646905D01*
X112910952Y-158694524D01*
X113291905Y-158694524D01*
X113387143Y-158646905D01*
X113434762Y-158599286D01*
X113482381Y-158504048D01*
X113482381Y-158313571D01*
X113434762Y-158218333D01*
X113387143Y-158170714D01*
X113291905Y-158123095D01*
X113053810Y-158123095D01*
X112958571Y-158170714D01*
X112910952Y-158218333D01*
X112863333Y-158313571D01*
X112863333Y-158504048D01*
X112910952Y-158599286D01*
X112958571Y-158646905D01*
X113053810Y-158694524D01*
X62222143Y-118467143D02*
X62174524Y-118514762D01*
X62031667Y-118562381D01*
X61936429Y-118562381D01*
X61793571Y-118514762D01*
X61698333Y-118419524D01*
X61650714Y-118324286D01*
X61603095Y-118133810D01*
X61603095Y-117990952D01*
X61650714Y-117800476D01*
X61698333Y-117705238D01*
X61793571Y-117610000D01*
X61936429Y-117562381D01*
X62031667Y-117562381D01*
X62174524Y-117610000D01*
X62222143Y-117657619D01*
X63174524Y-118562381D02*
X62603095Y-118562381D01*
X62888809Y-118562381D02*
X62888809Y-117562381D01*
X62793571Y-117705238D01*
X62698333Y-117800476D01*
X62603095Y-117848095D01*
X63507857Y-117562381D02*
X64174524Y-117562381D01*
X63745952Y-118562381D01*
X46982143Y-111722143D02*
X46934524Y-111769762D01*
X46791667Y-111817381D01*
X46696429Y-111817381D01*
X46553571Y-111769762D01*
X46458333Y-111674524D01*
X46410714Y-111579286D01*
X46363095Y-111388810D01*
X46363095Y-111245952D01*
X46410714Y-111055476D01*
X46458333Y-110960238D01*
X46553571Y-110865000D01*
X46696429Y-110817381D01*
X46791667Y-110817381D01*
X46934524Y-110865000D01*
X46982143Y-110912619D01*
X47934524Y-111817381D02*
X47363095Y-111817381D01*
X47648809Y-111817381D02*
X47648809Y-110817381D01*
X47553571Y-110960238D01*
X47458333Y-111055476D01*
X47363095Y-111103095D01*
X48505952Y-111245952D02*
X48410714Y-111198333D01*
X48363095Y-111150714D01*
X48315476Y-111055476D01*
X48315476Y-111007857D01*
X48363095Y-110912619D01*
X48410714Y-110865000D01*
X48505952Y-110817381D01*
X48696429Y-110817381D01*
X48791667Y-110865000D01*
X48839286Y-110912619D01*
X48886905Y-111007857D01*
X48886905Y-111055476D01*
X48839286Y-111150714D01*
X48791667Y-111198333D01*
X48696429Y-111245952D01*
X48505952Y-111245952D01*
X48410714Y-111293571D01*
X48363095Y-111341190D01*
X48315476Y-111436429D01*
X48315476Y-111626905D01*
X48363095Y-111722143D01*
X48410714Y-111769762D01*
X48505952Y-111817381D01*
X48696429Y-111817381D01*
X48791667Y-111769762D01*
X48839286Y-111722143D01*
X48886905Y-111626905D01*
X48886905Y-111436429D01*
X48839286Y-111341190D01*
X48791667Y-111293571D01*
X48696429Y-111245952D01*
X56507143Y-108942143D02*
X56459524Y-108989762D01*
X56316667Y-109037381D01*
X56221429Y-109037381D01*
X56078571Y-108989762D01*
X55983333Y-108894524D01*
X55935714Y-108799286D01*
X55888095Y-108608810D01*
X55888095Y-108465952D01*
X55935714Y-108275476D01*
X55983333Y-108180238D01*
X56078571Y-108085000D01*
X56221429Y-108037381D01*
X56316667Y-108037381D01*
X56459524Y-108085000D01*
X56507143Y-108132619D01*
X57459524Y-109037381D02*
X56888095Y-109037381D01*
X57173809Y-109037381D02*
X57173809Y-108037381D01*
X57078571Y-108180238D01*
X56983333Y-108275476D01*
X56888095Y-108323095D01*
X57935714Y-109037381D02*
X58126190Y-109037381D01*
X58221429Y-108989762D01*
X58269048Y-108942143D01*
X58364286Y-108799286D01*
X58411905Y-108608810D01*
X58411905Y-108227857D01*
X58364286Y-108132619D01*
X58316667Y-108085000D01*
X58221429Y-108037381D01*
X58030952Y-108037381D01*
X57935714Y-108085000D01*
X57888095Y-108132619D01*
X57840476Y-108227857D01*
X57840476Y-108465952D01*
X57888095Y-108561190D01*
X57935714Y-108608810D01*
X58030952Y-108656429D01*
X58221429Y-108656429D01*
X58316667Y-108608810D01*
X58364286Y-108561190D01*
X58411905Y-108465952D01*
X94607143Y-93067143D02*
X94559524Y-93114762D01*
X94416667Y-93162381D01*
X94321429Y-93162381D01*
X94178571Y-93114762D01*
X94083333Y-93019524D01*
X94035714Y-92924286D01*
X93988095Y-92733810D01*
X93988095Y-92590952D01*
X94035714Y-92400476D01*
X94083333Y-92305238D01*
X94178571Y-92210000D01*
X94321429Y-92162381D01*
X94416667Y-92162381D01*
X94559524Y-92210000D01*
X94607143Y-92257619D01*
X94988095Y-92257619D02*
X95035714Y-92210000D01*
X95130952Y-92162381D01*
X95369048Y-92162381D01*
X95464286Y-92210000D01*
X95511905Y-92257619D01*
X95559524Y-92352857D01*
X95559524Y-92448095D01*
X95511905Y-92590952D01*
X94940476Y-93162381D01*
X95559524Y-93162381D01*
X96178571Y-92162381D02*
X96273810Y-92162381D01*
X96369048Y-92210000D01*
X96416667Y-92257619D01*
X96464286Y-92352857D01*
X96511905Y-92543333D01*
X96511905Y-92781429D01*
X96464286Y-92971905D01*
X96416667Y-93067143D01*
X96369048Y-93114762D01*
X96273810Y-93162381D01*
X96178571Y-93162381D01*
X96083333Y-93114762D01*
X96035714Y-93067143D01*
X95988095Y-92971905D01*
X95940476Y-92781429D01*
X95940476Y-92543333D01*
X95988095Y-92352857D01*
X96035714Y-92257619D01*
X96083333Y-92210000D01*
X96178571Y-92162381D01*
X74112381Y-115577857D02*
X73636190Y-115911191D01*
X74112381Y-116149286D02*
X73112381Y-116149286D01*
X73112381Y-115768333D01*
X73160000Y-115673095D01*
X73207619Y-115625476D01*
X73302857Y-115577857D01*
X73445714Y-115577857D01*
X73540952Y-115625476D01*
X73588571Y-115673095D01*
X73636190Y-115768333D01*
X73636190Y-116149286D01*
X74112381Y-114625476D02*
X74112381Y-115196905D01*
X74112381Y-114911191D02*
X73112381Y-114911191D01*
X73255238Y-115006429D01*
X73350476Y-115101667D01*
X73398095Y-115196905D01*
X73112381Y-114006429D02*
X73112381Y-113911190D01*
X73160000Y-113815952D01*
X73207619Y-113768333D01*
X73302857Y-113720714D01*
X73493333Y-113673095D01*
X73731429Y-113673095D01*
X73921905Y-113720714D01*
X74017143Y-113768333D01*
X74064762Y-113815952D01*
X74112381Y-113911190D01*
X74112381Y-114006429D01*
X74064762Y-114101667D01*
X74017143Y-114149286D01*
X73921905Y-114196905D01*
X73731429Y-114244524D01*
X73493333Y-114244524D01*
X73302857Y-114196905D01*
X73207619Y-114149286D01*
X73160000Y-114101667D01*
X73112381Y-114006429D01*
X110942381Y-160027857D02*
X110466190Y-160361191D01*
X110942381Y-160599286D02*
X109942381Y-160599286D01*
X109942381Y-160218333D01*
X109990000Y-160123095D01*
X110037619Y-160075476D01*
X110132857Y-160027857D01*
X110275714Y-160027857D01*
X110370952Y-160075476D01*
X110418571Y-160123095D01*
X110466190Y-160218333D01*
X110466190Y-160599286D01*
X110942381Y-159075476D02*
X110942381Y-159646905D01*
X110942381Y-159361191D02*
X109942381Y-159361191D01*
X110085238Y-159456429D01*
X110180476Y-159551667D01*
X110228095Y-159646905D01*
X110942381Y-158123095D02*
X110942381Y-158694524D01*
X110942381Y-158408810D02*
X109942381Y-158408810D01*
X110085238Y-158504048D01*
X110180476Y-158599286D01*
X110228095Y-158694524D01*
X49141143Y-122245381D02*
X48807809Y-121769190D01*
X48569714Y-122245381D02*
X48569714Y-121245381D01*
X48950667Y-121245381D01*
X49045905Y-121293000D01*
X49093524Y-121340619D01*
X49141143Y-121435857D01*
X49141143Y-121578714D01*
X49093524Y-121673952D01*
X49045905Y-121721571D01*
X48950667Y-121769190D01*
X48569714Y-121769190D01*
X50093524Y-122245381D02*
X49522095Y-122245381D01*
X49807809Y-122245381D02*
X49807809Y-121245381D01*
X49712571Y-121388238D01*
X49617333Y-121483476D01*
X49522095Y-121531095D01*
X50474476Y-121340619D02*
X50522095Y-121293000D01*
X50617333Y-121245381D01*
X50855429Y-121245381D01*
X50950667Y-121293000D01*
X50998286Y-121340619D01*
X51045905Y-121435857D01*
X51045905Y-121531095D01*
X50998286Y-121673952D01*
X50426857Y-122245381D01*
X51045905Y-122245381D01*
X40632143Y-117292381D02*
X40298809Y-116816190D01*
X40060714Y-117292381D02*
X40060714Y-116292381D01*
X40441667Y-116292381D01*
X40536905Y-116340000D01*
X40584524Y-116387619D01*
X40632143Y-116482857D01*
X40632143Y-116625714D01*
X40584524Y-116720952D01*
X40536905Y-116768571D01*
X40441667Y-116816190D01*
X40060714Y-116816190D01*
X41584524Y-117292381D02*
X41013095Y-117292381D01*
X41298809Y-117292381D02*
X41298809Y-116292381D01*
X41203571Y-116435238D01*
X41108333Y-116530476D01*
X41013095Y-116578095D01*
X41917857Y-116292381D02*
X42536905Y-116292381D01*
X42203571Y-116673333D01*
X42346429Y-116673333D01*
X42441667Y-116720952D01*
X42489286Y-116768571D01*
X42536905Y-116863810D01*
X42536905Y-117101905D01*
X42489286Y-117197143D01*
X42441667Y-117244762D01*
X42346429Y-117292381D01*
X42060714Y-117292381D01*
X41965476Y-117244762D01*
X41917857Y-117197143D01*
X41967381Y-101607857D02*
X41491190Y-101941191D01*
X41967381Y-102179286D02*
X40967381Y-102179286D01*
X40967381Y-101798333D01*
X41015000Y-101703095D01*
X41062619Y-101655476D01*
X41157857Y-101607857D01*
X41300714Y-101607857D01*
X41395952Y-101655476D01*
X41443571Y-101703095D01*
X41491190Y-101798333D01*
X41491190Y-102179286D01*
X41967381Y-100655476D02*
X41967381Y-101226905D01*
X41967381Y-100941191D02*
X40967381Y-100941191D01*
X41110238Y-101036429D01*
X41205476Y-101131667D01*
X41253095Y-101226905D01*
X41300714Y-99798333D02*
X41967381Y-99798333D01*
X40919762Y-100036429D02*
X41634048Y-100274524D01*
X41634048Y-99655476D01*
X40632143Y-109037381D02*
X40298809Y-108561190D01*
X40060714Y-109037381D02*
X40060714Y-108037381D01*
X40441667Y-108037381D01*
X40536905Y-108085000D01*
X40584524Y-108132619D01*
X40632143Y-108227857D01*
X40632143Y-108370714D01*
X40584524Y-108465952D01*
X40536905Y-108513571D01*
X40441667Y-108561190D01*
X40060714Y-108561190D01*
X41584524Y-109037381D02*
X41013095Y-109037381D01*
X41298809Y-109037381D02*
X41298809Y-108037381D01*
X41203571Y-108180238D01*
X41108333Y-108275476D01*
X41013095Y-108323095D01*
X42489286Y-108037381D02*
X42013095Y-108037381D01*
X41965476Y-108513571D01*
X42013095Y-108465952D01*
X42108333Y-108418333D01*
X42346429Y-108418333D01*
X42441667Y-108465952D01*
X42489286Y-108513571D01*
X42536905Y-108608810D01*
X42536905Y-108846905D01*
X42489286Y-108942143D01*
X42441667Y-108989762D01*
X42346429Y-109037381D01*
X42108333Y-109037381D01*
X42013095Y-108989762D01*
X41965476Y-108942143D01*
X113538095Y-100417381D02*
X113538095Y-101226905D01*
X113585714Y-101322143D01*
X113633333Y-101369762D01*
X113728571Y-101417381D01*
X113919048Y-101417381D01*
X114014286Y-101369762D01*
X114061905Y-101322143D01*
X114109524Y-101226905D01*
X114109524Y-100417381D01*
X115109524Y-101417381D02*
X114538095Y-101417381D01*
X114823809Y-101417381D02*
X114823809Y-100417381D01*
X114728571Y-100560238D01*
X114633333Y-100655476D01*
X114538095Y-100703095D01*
X100685714Y-99837857D02*
X100685714Y-100809286D01*
X100742857Y-100923571D01*
X100800000Y-100980714D01*
X100914286Y-101037857D01*
X101142857Y-101037857D01*
X101257143Y-100980714D01*
X101314286Y-100923571D01*
X101371429Y-100809286D01*
X101371429Y-99837857D01*
X101828572Y-99837857D02*
X102571429Y-99837857D01*
X102171429Y-100295000D01*
X102342857Y-100295000D01*
X102457143Y-100352143D01*
X102514286Y-100409286D01*
X102571429Y-100523571D01*
X102571429Y-100809286D01*
X102514286Y-100923571D01*
X102457143Y-100980714D01*
X102342857Y-101037857D01*
X102000000Y-101037857D01*
X101885714Y-100980714D01*
X101828572Y-100923571D01*
X90525714Y-88242857D02*
X90525714Y-89214286D01*
X90582857Y-89328571D01*
X90640000Y-89385714D01*
X90754286Y-89442857D01*
X90982857Y-89442857D01*
X91097143Y-89385714D01*
X91154286Y-89328571D01*
X91211429Y-89214286D01*
X91211429Y-88242857D01*
X91954286Y-88757143D02*
X91840000Y-88700000D01*
X91782857Y-88642857D01*
X91725714Y-88528571D01*
X91725714Y-88471429D01*
X91782857Y-88357143D01*
X91840000Y-88300000D01*
X91954286Y-88242857D01*
X92182857Y-88242857D01*
X92297143Y-88300000D01*
X92354286Y-88357143D01*
X92411429Y-88471429D01*
X92411429Y-88528571D01*
X92354286Y-88642857D01*
X92297143Y-88700000D01*
X92182857Y-88757143D01*
X91954286Y-88757143D01*
X91840000Y-88814286D01*
X91782857Y-88871429D01*
X91725714Y-88985714D01*
X91725714Y-89214286D01*
X91782857Y-89328571D01*
X91840000Y-89385714D01*
X91954286Y-89442857D01*
X92182857Y-89442857D01*
X92297143Y-89385714D01*
X92354286Y-89328571D01*
X92411429Y-89214286D01*
X92411429Y-88985714D01*
X92354286Y-88871429D01*
X92297143Y-88814286D01*
X92182857Y-88757143D01*
X74826905Y-126912381D02*
X74826905Y-125912381D01*
X75065000Y-125912381D01*
X75207858Y-125960000D01*
X75303096Y-126055238D01*
X75350715Y-126150476D01*
X75398334Y-126340952D01*
X75398334Y-126483810D01*
X75350715Y-126674286D01*
X75303096Y-126769524D01*
X75207858Y-126864762D01*
X75065000Y-126912381D01*
X74826905Y-126912381D01*
X75779286Y-126007619D02*
X75826905Y-125960000D01*
X75922143Y-125912381D01*
X76160239Y-125912381D01*
X76255477Y-125960000D01*
X76303096Y-126007619D01*
X76350715Y-126102857D01*
X76350715Y-126198095D01*
X76303096Y-126340952D01*
X75731667Y-126912381D01*
X76350715Y-126912381D01*
X42362381Y-96623095D02*
X41362381Y-96623095D01*
X41362381Y-96385000D01*
X41410000Y-96242142D01*
X41505238Y-96146904D01*
X41600476Y-96099285D01*
X41790952Y-96051666D01*
X41933810Y-96051666D01*
X42124286Y-96099285D01*
X42219524Y-96146904D01*
X42314762Y-96242142D01*
X42362381Y-96385000D01*
X42362381Y-96623095D01*
X41695714Y-95194523D02*
X42362381Y-95194523D01*
X41314762Y-95432619D02*
X42029048Y-95670714D01*
X42029048Y-95051666D01*
X85877381Y-110196190D02*
X84877381Y-110196190D01*
X85782143Y-109148571D02*
X85829762Y-109196190D01*
X85877381Y-109339047D01*
X85877381Y-109434285D01*
X85829762Y-109577143D01*
X85734524Y-109672381D01*
X85639286Y-109720000D01*
X85448810Y-109767619D01*
X85305952Y-109767619D01*
X85115476Y-109720000D01*
X85020238Y-109672381D01*
X84925000Y-109577143D01*
X84877381Y-109434285D01*
X84877381Y-109339047D01*
X84925000Y-109196190D01*
X84972619Y-109148571D01*
X85877381Y-108196190D02*
X85877381Y-108767619D01*
X85877381Y-108481905D02*
X84877381Y-108481905D01*
X85020238Y-108577143D01*
X85115476Y-108672381D01*
X85163095Y-108767619D01*
X109156667Y-166266762D02*
X109299524Y-166314381D01*
X109537620Y-166314381D01*
X109632858Y-166266762D01*
X109680477Y-166219143D01*
X109728096Y-166123905D01*
X109728096Y-166028667D01*
X109680477Y-165933429D01*
X109632858Y-165885810D01*
X109537620Y-165838190D01*
X109347143Y-165790571D01*
X109251905Y-165742952D01*
X109204286Y-165695333D01*
X109156667Y-165600095D01*
X109156667Y-165504857D01*
X109204286Y-165409619D01*
X109251905Y-165362000D01*
X109347143Y-165314381D01*
X109585239Y-165314381D01*
X109728096Y-165362000D01*
X110061429Y-165314381D02*
X110299524Y-166314381D01*
X110490001Y-165600095D01*
X110680477Y-166314381D01*
X110918572Y-165314381D01*
X111251905Y-165409619D02*
X111299524Y-165362000D01*
X111394762Y-165314381D01*
X111632858Y-165314381D01*
X111728096Y-165362000D01*
X111775715Y-165409619D01*
X111823334Y-165504857D01*
X111823334Y-165600095D01*
X111775715Y-165742952D01*
X111204286Y-166314381D01*
X111823334Y-166314381D01*
X73310809Y-102084190D02*
X73310809Y-102560381D01*
X72977476Y-101560381D02*
X73310809Y-102084190D01*
X73644143Y-101560381D01*
X74501286Y-102560381D02*
X73929857Y-102560381D01*
X74215571Y-102560381D02*
X74215571Y-101560381D01*
X74120333Y-101703238D01*
X74025095Y-101798476D01*
X73929857Y-101846095D01*
X116657381Y-160758095D02*
X115657381Y-160758095D01*
X115657381Y-160377142D01*
X115705000Y-160281904D01*
X115752619Y-160234285D01*
X115847857Y-160186666D01*
X115990714Y-160186666D01*
X116085952Y-160234285D01*
X116133571Y-160281904D01*
X116181190Y-160377142D01*
X116181190Y-160758095D01*
X115657381Y-159329523D02*
X115657381Y-159520000D01*
X115705000Y-159615238D01*
X115752619Y-159662857D01*
X115895476Y-159758095D01*
X116085952Y-159805714D01*
X116466905Y-159805714D01*
X116562143Y-159758095D01*
X116609762Y-159710476D01*
X116657381Y-159615238D01*
X116657381Y-159424761D01*
X116609762Y-159329523D01*
X116562143Y-159281904D01*
X116466905Y-159234285D01*
X116228810Y-159234285D01*
X116133571Y-159281904D01*
X116085952Y-159329523D01*
X116038333Y-159424761D01*
X116038333Y-159615238D01*
X116085952Y-159710476D01*
X116133571Y-159758095D01*
X116228810Y-159805714D01*
X68572143Y-148947143D02*
X68524524Y-148994762D01*
X68381667Y-149042381D01*
X68286429Y-149042381D01*
X68143571Y-148994762D01*
X68048333Y-148899524D01*
X68000714Y-148804286D01*
X67953095Y-148613810D01*
X67953095Y-148470952D01*
X68000714Y-148280476D01*
X68048333Y-148185238D01*
X68143571Y-148090000D01*
X68286429Y-148042381D01*
X68381667Y-148042381D01*
X68524524Y-148090000D01*
X68572143Y-148137619D01*
X68953095Y-148137619D02*
X69000714Y-148090000D01*
X69095952Y-148042381D01*
X69334048Y-148042381D01*
X69429286Y-148090000D01*
X69476905Y-148137619D01*
X69524524Y-148232857D01*
X69524524Y-148328095D01*
X69476905Y-148470952D01*
X68905476Y-149042381D01*
X69524524Y-149042381D01*
X70476905Y-149042381D02*
X69905476Y-149042381D01*
X70191190Y-149042381D02*
X70191190Y-148042381D01*
X70095952Y-148185238D01*
X70000714Y-148280476D01*
X69905476Y-148328095D01*
X73017143Y-158472143D02*
X72969524Y-158519762D01*
X72826667Y-158567381D01*
X72731429Y-158567381D01*
X72588571Y-158519762D01*
X72493333Y-158424524D01*
X72445714Y-158329286D01*
X72398095Y-158138810D01*
X72398095Y-157995952D01*
X72445714Y-157805476D01*
X72493333Y-157710238D01*
X72588571Y-157615000D01*
X72731429Y-157567381D01*
X72826667Y-157567381D01*
X72969524Y-157615000D01*
X73017143Y-157662619D01*
X73398095Y-157662619D02*
X73445714Y-157615000D01*
X73540952Y-157567381D01*
X73779048Y-157567381D01*
X73874286Y-157615000D01*
X73921905Y-157662619D01*
X73969524Y-157757857D01*
X73969524Y-157853095D01*
X73921905Y-157995952D01*
X73350476Y-158567381D01*
X73969524Y-158567381D01*
X74350476Y-157662619D02*
X74398095Y-157615000D01*
X74493333Y-157567381D01*
X74731429Y-157567381D01*
X74826667Y-157615000D01*
X74874286Y-157662619D01*
X74921905Y-157757857D01*
X74921905Y-157853095D01*
X74874286Y-157995952D01*
X74302857Y-158567381D01*
X74921905Y-158567381D01*
X64492143Y-167012857D02*
X64539762Y-167060476D01*
X64587381Y-167203333D01*
X64587381Y-167298571D01*
X64539762Y-167441429D01*
X64444524Y-167536667D01*
X64349286Y-167584286D01*
X64158810Y-167631905D01*
X64015952Y-167631905D01*
X63825476Y-167584286D01*
X63730238Y-167536667D01*
X63635000Y-167441429D01*
X63587381Y-167298571D01*
X63587381Y-167203333D01*
X63635000Y-167060476D01*
X63682619Y-167012857D01*
X63682619Y-166631905D02*
X63635000Y-166584286D01*
X63587381Y-166489048D01*
X63587381Y-166250952D01*
X63635000Y-166155714D01*
X63682619Y-166108095D01*
X63777857Y-166060476D01*
X63873095Y-166060476D01*
X64015952Y-166108095D01*
X64587381Y-166679524D01*
X64587381Y-166060476D01*
X63587381Y-165727143D02*
X63587381Y-165108095D01*
X63968333Y-165441429D01*
X63968333Y-165298571D01*
X64015952Y-165203333D01*
X64063571Y-165155714D01*
X64158810Y-165108095D01*
X64396905Y-165108095D01*
X64492143Y-165155714D01*
X64539762Y-165203333D01*
X64587381Y-165298571D01*
X64587381Y-165584286D01*
X64539762Y-165679524D01*
X64492143Y-165727143D01*
X69048334Y-159202381D02*
X68715000Y-158726190D01*
X68476905Y-159202381D02*
X68476905Y-158202381D01*
X68857858Y-158202381D01*
X68953096Y-158250000D01*
X69000715Y-158297619D01*
X69048334Y-158392857D01*
X69048334Y-158535714D01*
X69000715Y-158630952D01*
X68953096Y-158678571D01*
X68857858Y-158726190D01*
X68476905Y-158726190D01*
X69524524Y-159202381D02*
X69715000Y-159202381D01*
X69810239Y-159154762D01*
X69857858Y-159107143D01*
X69953096Y-158964286D01*
X70000715Y-158773810D01*
X70000715Y-158392857D01*
X69953096Y-158297619D01*
X69905477Y-158250000D01*
X69810239Y-158202381D01*
X69619762Y-158202381D01*
X69524524Y-158250000D01*
X69476905Y-158297619D01*
X69429286Y-158392857D01*
X69429286Y-158630952D01*
X69476905Y-158726190D01*
X69524524Y-158773810D01*
X69619762Y-158821429D01*
X69810239Y-158821429D01*
X69905477Y-158773810D01*
X69953096Y-158726190D01*
X70000715Y-158630952D01*
X64587381Y-156852857D02*
X64111190Y-157186191D01*
X64587381Y-157424286D02*
X63587381Y-157424286D01*
X63587381Y-157043333D01*
X63635000Y-156948095D01*
X63682619Y-156900476D01*
X63777857Y-156852857D01*
X63920714Y-156852857D01*
X64015952Y-156900476D01*
X64063571Y-156948095D01*
X64111190Y-157043333D01*
X64111190Y-157424286D01*
X64587381Y-155900476D02*
X64587381Y-156471905D01*
X64587381Y-156186191D02*
X63587381Y-156186191D01*
X63730238Y-156281429D01*
X63825476Y-156376667D01*
X63873095Y-156471905D01*
X63587381Y-155043333D02*
X63587381Y-155233810D01*
X63635000Y-155329048D01*
X63682619Y-155376667D01*
X63825476Y-155471905D01*
X64015952Y-155519524D01*
X64396905Y-155519524D01*
X64492143Y-155471905D01*
X64539762Y-155424286D01*
X64587381Y-155329048D01*
X64587381Y-155138571D01*
X64539762Y-155043333D01*
X64492143Y-154995714D01*
X64396905Y-154948095D01*
X64158810Y-154948095D01*
X64063571Y-154995714D01*
X64015952Y-155043333D01*
X63968333Y-155138571D01*
X63968333Y-155329048D01*
X64015952Y-155424286D01*
X64063571Y-155471905D01*
X64158810Y-155519524D01*
X64587381Y-154312857D02*
X64111190Y-154646191D01*
X64587381Y-154884286D02*
X63587381Y-154884286D01*
X63587381Y-154503333D01*
X63635000Y-154408095D01*
X63682619Y-154360476D01*
X63777857Y-154312857D01*
X63920714Y-154312857D01*
X64015952Y-154360476D01*
X64063571Y-154408095D01*
X64111190Y-154503333D01*
X64111190Y-154884286D01*
X64587381Y-153360476D02*
X64587381Y-153931905D01*
X64587381Y-153646191D02*
X63587381Y-153646191D01*
X63730238Y-153741429D01*
X63825476Y-153836667D01*
X63873095Y-153931905D01*
X63587381Y-153027143D02*
X63587381Y-152360476D01*
X64587381Y-152789048D01*
X68572143Y-161742381D02*
X68238809Y-161266190D01*
X68000714Y-161742381D02*
X68000714Y-160742381D01*
X68381667Y-160742381D01*
X68476905Y-160790000D01*
X68524524Y-160837619D01*
X68572143Y-160932857D01*
X68572143Y-161075714D01*
X68524524Y-161170952D01*
X68476905Y-161218571D01*
X68381667Y-161266190D01*
X68000714Y-161266190D01*
X69524524Y-161742381D02*
X68953095Y-161742381D01*
X69238809Y-161742381D02*
X69238809Y-160742381D01*
X69143571Y-160885238D01*
X69048333Y-160980476D01*
X68953095Y-161028095D01*
X70095952Y-161170952D02*
X70000714Y-161123333D01*
X69953095Y-161075714D01*
X69905476Y-160980476D01*
X69905476Y-160932857D01*
X69953095Y-160837619D01*
X70000714Y-160790000D01*
X70095952Y-160742381D01*
X70286429Y-160742381D01*
X70381667Y-160790000D01*
X70429286Y-160837619D01*
X70476905Y-160932857D01*
X70476905Y-160980476D01*
X70429286Y-161075714D01*
X70381667Y-161123333D01*
X70286429Y-161170952D01*
X70095952Y-161170952D01*
X70000714Y-161218571D01*
X69953095Y-161266190D01*
X69905476Y-161361429D01*
X69905476Y-161551905D01*
X69953095Y-161647143D01*
X70000714Y-161694762D01*
X70095952Y-161742381D01*
X70286429Y-161742381D01*
X70381667Y-161694762D01*
X70429286Y-161647143D01*
X70476905Y-161551905D01*
X70476905Y-161361429D01*
X70429286Y-161266190D01*
X70381667Y-161218571D01*
X70286429Y-161170952D01*
X64587381Y-164472857D02*
X64111190Y-164806191D01*
X64587381Y-165044286D02*
X63587381Y-165044286D01*
X63587381Y-164663333D01*
X63635000Y-164568095D01*
X63682619Y-164520476D01*
X63777857Y-164472857D01*
X63920714Y-164472857D01*
X64015952Y-164520476D01*
X64063571Y-164568095D01*
X64111190Y-164663333D01*
X64111190Y-165044286D01*
X64587381Y-163520476D02*
X64587381Y-164091905D01*
X64587381Y-163806191D02*
X63587381Y-163806191D01*
X63730238Y-163901429D01*
X63825476Y-163996667D01*
X63873095Y-164091905D01*
X64587381Y-163044286D02*
X64587381Y-162853810D01*
X64539762Y-162758571D01*
X64492143Y-162710952D01*
X64349286Y-162615714D01*
X64158810Y-162568095D01*
X63777857Y-162568095D01*
X63682619Y-162615714D01*
X63635000Y-162663333D01*
X63587381Y-162758571D01*
X63587381Y-162949048D01*
X63635000Y-163044286D01*
X63682619Y-163091905D01*
X63777857Y-163139524D01*
X64015952Y-163139524D01*
X64111190Y-163091905D01*
X64158810Y-163044286D01*
X64206429Y-162949048D01*
X64206429Y-162758571D01*
X64158810Y-162663333D01*
X64111190Y-162615714D01*
X64015952Y-162568095D01*
X59001905Y-111652381D02*
X59001905Y-110652381D01*
X59240000Y-110652381D01*
X59382858Y-110700000D01*
X59478096Y-110795238D01*
X59525715Y-110890476D01*
X59573334Y-111080952D01*
X59573334Y-111223810D01*
X59525715Y-111414286D01*
X59478096Y-111509524D01*
X59382858Y-111604762D01*
X59240000Y-111652381D01*
X59001905Y-111652381D01*
X59906667Y-110652381D02*
X60525715Y-110652381D01*
X60192381Y-111033333D01*
X60335239Y-111033333D01*
X60430477Y-111080952D01*
X60478096Y-111128571D01*
X60525715Y-111223810D01*
X60525715Y-111461905D01*
X60478096Y-111557143D01*
X60430477Y-111604762D01*
X60335239Y-111652381D01*
X60049524Y-111652381D01*
X59954286Y-111604762D01*
X59906667Y-111557143D01*
X56178095Y-118052381D02*
X56178095Y-117052381D01*
X56749524Y-118052381D02*
X56320952Y-117480952D01*
X56749524Y-117052381D02*
X56178095Y-117623810D01*
X62451905Y-117666667D02*
X62928096Y-117666667D01*
X62356667Y-117952381D02*
X62690000Y-116952381D01*
X63023334Y-117952381D01*
X44346905Y-109037381D02*
X44346905Y-108037381D01*
X44585000Y-108037381D01*
X44727858Y-108085000D01*
X44823096Y-108180238D01*
X44870715Y-108275476D01*
X44918334Y-108465952D01*
X44918334Y-108608810D01*
X44870715Y-108799286D01*
X44823096Y-108894524D01*
X44727858Y-108989762D01*
X44585000Y-109037381D01*
X44346905Y-109037381D01*
X45823096Y-108037381D02*
X45346905Y-108037381D01*
X45299286Y-108513571D01*
X45346905Y-108465952D01*
X45442143Y-108418333D01*
X45680239Y-108418333D01*
X45775477Y-108465952D01*
X45823096Y-108513571D01*
X45870715Y-108608810D01*
X45870715Y-108846905D01*
X45823096Y-108942143D01*
X45775477Y-108989762D01*
X45680239Y-109037381D01*
X45442143Y-109037381D01*
X45346905Y-108989762D01*
X45299286Y-108942143D01*
X48837381Y-112096905D02*
X47837381Y-112096905D01*
X48837381Y-111525476D02*
X48265952Y-111954048D01*
X47837381Y-111525476D02*
X48408810Y-112096905D01*
X48451667Y-105823095D02*
X48451667Y-105346904D01*
X48737381Y-105918333D02*
X47737381Y-105585000D01*
X48737381Y-105251666D01*
X98321905Y-169362381D02*
X98321905Y-168362381D01*
X98702858Y-168362381D01*
X98798096Y-168410000D01*
X98845715Y-168457619D01*
X98893334Y-168552857D01*
X98893334Y-168695714D01*
X98845715Y-168790952D01*
X98798096Y-168838571D01*
X98702858Y-168886190D01*
X98321905Y-168886190D01*
X99750477Y-168695714D02*
X99750477Y-169362381D01*
X99512381Y-168314762D02*
X99274286Y-169029048D01*
X99893334Y-169029048D01*
X41846667Y-165044381D02*
X41513333Y-164568190D01*
X41275238Y-165044381D02*
X41275238Y-164044381D01*
X41656191Y-164044381D01*
X41751429Y-164092000D01*
X41799048Y-164139619D01*
X41846667Y-164234857D01*
X41846667Y-164377714D01*
X41799048Y-164472952D01*
X41751429Y-164520571D01*
X41656191Y-164568190D01*
X41275238Y-164568190D01*
X42275238Y-164520571D02*
X42608572Y-164520571D01*
X42751429Y-165044381D02*
X42275238Y-165044381D01*
X42275238Y-164044381D01*
X42751429Y-164044381D01*
X43513334Y-164520571D02*
X43180000Y-164520571D01*
X43180000Y-165044381D02*
X43180000Y-164044381D01*
X43656191Y-164044381D01*
X44180000Y-164044381D02*
X44180000Y-164282476D01*
X43941905Y-164187238D02*
X44180000Y-164282476D01*
X44418096Y-164187238D01*
X44037143Y-164472952D02*
X44180000Y-164282476D01*
X44322858Y-164472952D01*
X44941905Y-164044381D02*
X44941905Y-164282476D01*
X44703810Y-164187238D02*
X44941905Y-164282476D01*
X45180001Y-164187238D01*
X44799048Y-164472952D02*
X44941905Y-164282476D01*
X45084763Y-164472952D01*
X41846667Y-83764381D02*
X41513333Y-83288190D01*
X41275238Y-83764381D02*
X41275238Y-82764381D01*
X41656191Y-82764381D01*
X41751429Y-82812000D01*
X41799048Y-82859619D01*
X41846667Y-82954857D01*
X41846667Y-83097714D01*
X41799048Y-83192952D01*
X41751429Y-83240571D01*
X41656191Y-83288190D01*
X41275238Y-83288190D01*
X42275238Y-83240571D02*
X42608572Y-83240571D01*
X42751429Y-83764381D02*
X42275238Y-83764381D01*
X42275238Y-82764381D01*
X42751429Y-82764381D01*
X43513334Y-83240571D02*
X43180000Y-83240571D01*
X43180000Y-83764381D02*
X43180000Y-82764381D01*
X43656191Y-82764381D01*
X44180000Y-82764381D02*
X44180000Y-83002476D01*
X43941905Y-82907238D02*
X44180000Y-83002476D01*
X44418096Y-82907238D01*
X44037143Y-83192952D02*
X44180000Y-83002476D01*
X44322858Y-83192952D01*
X44941905Y-82764381D02*
X44941905Y-83002476D01*
X44703810Y-82907238D02*
X44941905Y-83002476D01*
X45180001Y-82907238D01*
X44799048Y-83192952D02*
X44941905Y-83002476D01*
X45084763Y-83192952D01*
X115506667Y-139644381D02*
X115173333Y-139168190D01*
X114935238Y-139644381D02*
X114935238Y-138644381D01*
X115316191Y-138644381D01*
X115411429Y-138692000D01*
X115459048Y-138739619D01*
X115506667Y-138834857D01*
X115506667Y-138977714D01*
X115459048Y-139072952D01*
X115411429Y-139120571D01*
X115316191Y-139168190D01*
X114935238Y-139168190D01*
X115935238Y-139120571D02*
X116268572Y-139120571D01*
X116411429Y-139644381D02*
X115935238Y-139644381D01*
X115935238Y-138644381D01*
X116411429Y-138644381D01*
X117173334Y-139120571D02*
X116840000Y-139120571D01*
X116840000Y-139644381D02*
X116840000Y-138644381D01*
X117316191Y-138644381D01*
X117840000Y-138644381D02*
X117840000Y-138882476D01*
X117601905Y-138787238D02*
X117840000Y-138882476D01*
X118078096Y-138787238D01*
X117697143Y-139072952D02*
X117840000Y-138882476D01*
X117982858Y-139072952D01*
X118601905Y-138644381D02*
X118601905Y-138882476D01*
X118363810Y-138787238D02*
X118601905Y-138882476D01*
X118840001Y-138787238D01*
X118459048Y-139072952D02*
X118601905Y-138882476D01*
X118744763Y-139072952D01*
X115506667Y-109164381D02*
X115173333Y-108688190D01*
X114935238Y-109164381D02*
X114935238Y-108164381D01*
X115316191Y-108164381D01*
X115411429Y-108212000D01*
X115459048Y-108259619D01*
X115506667Y-108354857D01*
X115506667Y-108497714D01*
X115459048Y-108592952D01*
X115411429Y-108640571D01*
X115316191Y-108688190D01*
X114935238Y-108688190D01*
X115935238Y-108640571D02*
X116268572Y-108640571D01*
X116411429Y-109164381D02*
X115935238Y-109164381D01*
X115935238Y-108164381D01*
X116411429Y-108164381D01*
X117173334Y-108640571D02*
X116840000Y-108640571D01*
X116840000Y-109164381D02*
X116840000Y-108164381D01*
X117316191Y-108164381D01*
X117840000Y-108164381D02*
X117840000Y-108402476D01*
X117601905Y-108307238D02*
X117840000Y-108402476D01*
X118078096Y-108307238D01*
X117697143Y-108592952D02*
X117840000Y-108402476D01*
X117982858Y-108592952D01*
X118601905Y-108164381D02*
X118601905Y-108402476D01*
X118363810Y-108307238D02*
X118601905Y-108402476D01*
X118840001Y-108307238D01*
X118459048Y-108592952D02*
X118601905Y-108402476D01*
X118744763Y-108592952D01*
M02*
