G04 #@! TF.FileFunction,Legend,Bot*
%FSLAX46Y46*%
G04 Gerber Fmt 4.6, Leading zero omitted, Abs format (unit mm)*
G04 Created by KiCad (PCBNEW 4.0.2-stable) date 5/4/2016 5:53:34 PM*
%MOMM*%
G01*
G04 APERTURE LIST*
%ADD10C,0.127000*%
%ADD11C,0.150000*%
G04 APERTURE END LIST*
D10*
D11*
X76200000Y-167640000D02*
X76200000Y-149860000D01*
X81280000Y-152400000D02*
X81280000Y-167640000D01*
X76200000Y-167640000D02*
X81280000Y-167640000D01*
X76200000Y-149860000D02*
X78740000Y-149860000D01*
X80010000Y-149580000D02*
X81560000Y-149580000D01*
X78740000Y-149860000D02*
X78740000Y-152400000D01*
X78740000Y-152400000D02*
X81280000Y-152400000D01*
X81560000Y-149580000D02*
X81560000Y-151130000D01*
X79478095Y-168727381D02*
X79478095Y-167727381D01*
X79097142Y-167727381D01*
X79001904Y-167775000D01*
X78954285Y-167822619D01*
X78906666Y-167917857D01*
X78906666Y-168060714D01*
X78954285Y-168155952D01*
X79001904Y-168203571D01*
X79097142Y-168251190D01*
X79478095Y-168251190D01*
X78001904Y-167727381D02*
X78478095Y-167727381D01*
X78525714Y-168203571D01*
X78478095Y-168155952D01*
X78382857Y-168108333D01*
X78144761Y-168108333D01*
X78049523Y-168155952D01*
X78001904Y-168203571D01*
X77954285Y-168298810D01*
X77954285Y-168536905D01*
X78001904Y-168632143D01*
X78049523Y-168679762D01*
X78144761Y-168727381D01*
X78382857Y-168727381D01*
X78478095Y-168679762D01*
X78525714Y-168632143D01*
M02*
