G04 #@! TF.FileFunction,Legend,Top*
%FSLAX46Y46*%
G04 Gerber Fmt 4.6, Leading zero omitted, Abs format (unit mm)*
G04 Created by KiCad (PCBNEW 4.0.2-stable) date 4/1/2016 8:20:13 PM*
%MOMM*%
G01*
G04 APERTURE LIST*
%ADD10C,0.100000*%
%ADD11C,0.150000*%
G04 APERTURE END LIST*
D10*
D11*
X111490000Y-118355000D02*
X109490000Y-118355000D01*
X109490000Y-120405000D02*
X111490000Y-120405000D01*
X111490000Y-115815000D02*
X109490000Y-115815000D01*
X109490000Y-117865000D02*
X111490000Y-117865000D01*
X109465000Y-84090000D02*
X109465000Y-86090000D01*
X111515000Y-86090000D02*
X111515000Y-84090000D01*
X112005000Y-84090000D02*
X112005000Y-86090000D01*
X114055000Y-86090000D02*
X114055000Y-84090000D01*
X122165000Y-84090000D02*
X122165000Y-86090000D01*
X124215000Y-86090000D02*
X124215000Y-84090000D01*
X124215000Y-101330000D02*
X124215000Y-99330000D01*
X122165000Y-99330000D02*
X122165000Y-101330000D01*
X100330000Y-115570000D02*
X100330000Y-123190000D01*
X100330000Y-123190000D02*
X105410000Y-123190000D01*
X105410000Y-123190000D02*
X105410000Y-113030000D01*
X105410000Y-113030000D02*
X102870000Y-113030000D01*
X101600000Y-112750000D02*
X100050000Y-112750000D01*
X102870000Y-113030000D02*
X102870000Y-115570000D01*
X102870000Y-115570000D02*
X100330000Y-115570000D01*
X100050000Y-112750000D02*
X100050000Y-114300000D01*
X128270000Y-85090000D02*
X128270000Y-77470000D01*
X125730000Y-85090000D02*
X125730000Y-77470000D01*
X125450000Y-87910000D02*
X125450000Y-86360000D01*
X128270000Y-77470000D02*
X125730000Y-77470000D01*
X125730000Y-85090000D02*
X128270000Y-85090000D01*
X128550000Y-86360000D02*
X128550000Y-87910000D01*
X128550000Y-87910000D02*
X125450000Y-87910000D01*
X125730000Y-100330000D02*
X125730000Y-107950000D01*
X128270000Y-100330000D02*
X128270000Y-107950000D01*
X128550000Y-97510000D02*
X128550000Y-99060000D01*
X125730000Y-107950000D02*
X128270000Y-107950000D01*
X128270000Y-100330000D02*
X125730000Y-100330000D01*
X125450000Y-99060000D02*
X125450000Y-97510000D01*
X125450000Y-97510000D02*
X128550000Y-97510000D01*
X107755000Y-91710000D02*
X107755000Y-93710000D01*
X105605000Y-93710000D02*
X105605000Y-91710000D01*
X111565000Y-91710000D02*
X111565000Y-93710000D01*
X109415000Y-93710000D02*
X109415000Y-91710000D01*
X99700000Y-80080000D02*
X99700000Y-110420000D01*
X99700000Y-110420000D02*
X118740000Y-110420000D01*
X118740000Y-110420000D02*
X118740000Y-80080000D01*
X118740000Y-80080000D02*
X112393333Y-80080000D01*
X112393333Y-80080000D02*
X112393333Y-80530000D01*
X112393333Y-80530000D02*
X106046667Y-80530000D01*
X106046667Y-80530000D02*
X106046667Y-80080000D01*
X106046667Y-80080000D02*
X99700000Y-80080000D01*
X110323334Y-119737143D02*
X110275715Y-119784762D01*
X110132858Y-119832381D01*
X110037620Y-119832381D01*
X109894762Y-119784762D01*
X109799524Y-119689524D01*
X109751905Y-119594286D01*
X109704286Y-119403810D01*
X109704286Y-119260952D01*
X109751905Y-119070476D01*
X109799524Y-118975238D01*
X109894762Y-118880000D01*
X110037620Y-118832381D01*
X110132858Y-118832381D01*
X110275715Y-118880000D01*
X110323334Y-118927619D01*
X111275715Y-119832381D02*
X110704286Y-119832381D01*
X110990000Y-119832381D02*
X110990000Y-118832381D01*
X110894762Y-118975238D01*
X110799524Y-119070476D01*
X110704286Y-119118095D01*
X110323334Y-117197143D02*
X110275715Y-117244762D01*
X110132858Y-117292381D01*
X110037620Y-117292381D01*
X109894762Y-117244762D01*
X109799524Y-117149524D01*
X109751905Y-117054286D01*
X109704286Y-116863810D01*
X109704286Y-116720952D01*
X109751905Y-116530476D01*
X109799524Y-116435238D01*
X109894762Y-116340000D01*
X110037620Y-116292381D01*
X110132858Y-116292381D01*
X110275715Y-116340000D01*
X110323334Y-116387619D01*
X110704286Y-116387619D02*
X110751905Y-116340000D01*
X110847143Y-116292381D01*
X111085239Y-116292381D01*
X111180477Y-116340000D01*
X111228096Y-116387619D01*
X111275715Y-116482857D01*
X111275715Y-116578095D01*
X111228096Y-116720952D01*
X110656667Y-117292381D01*
X111275715Y-117292381D01*
X110847143Y-85256666D02*
X110894762Y-85304285D01*
X110942381Y-85447142D01*
X110942381Y-85542380D01*
X110894762Y-85685238D01*
X110799524Y-85780476D01*
X110704286Y-85828095D01*
X110513810Y-85875714D01*
X110370952Y-85875714D01*
X110180476Y-85828095D01*
X110085238Y-85780476D01*
X109990000Y-85685238D01*
X109942381Y-85542380D01*
X109942381Y-85447142D01*
X109990000Y-85304285D01*
X110037619Y-85256666D01*
X109942381Y-84923333D02*
X109942381Y-84304285D01*
X110323333Y-84637619D01*
X110323333Y-84494761D01*
X110370952Y-84399523D01*
X110418571Y-84351904D01*
X110513810Y-84304285D01*
X110751905Y-84304285D01*
X110847143Y-84351904D01*
X110894762Y-84399523D01*
X110942381Y-84494761D01*
X110942381Y-84780476D01*
X110894762Y-84875714D01*
X110847143Y-84923333D01*
X113387143Y-85256666D02*
X113434762Y-85304285D01*
X113482381Y-85447142D01*
X113482381Y-85542380D01*
X113434762Y-85685238D01*
X113339524Y-85780476D01*
X113244286Y-85828095D01*
X113053810Y-85875714D01*
X112910952Y-85875714D01*
X112720476Y-85828095D01*
X112625238Y-85780476D01*
X112530000Y-85685238D01*
X112482381Y-85542380D01*
X112482381Y-85447142D01*
X112530000Y-85304285D01*
X112577619Y-85256666D01*
X112815714Y-84399523D02*
X113482381Y-84399523D01*
X112434762Y-84637619D02*
X113149048Y-84875714D01*
X113149048Y-84256666D01*
X121515143Y-85256666D02*
X121562762Y-85304285D01*
X121610381Y-85447142D01*
X121610381Y-85542380D01*
X121562762Y-85685238D01*
X121467524Y-85780476D01*
X121372286Y-85828095D01*
X121181810Y-85875714D01*
X121038952Y-85875714D01*
X120848476Y-85828095D01*
X120753238Y-85780476D01*
X120658000Y-85685238D01*
X120610381Y-85542380D01*
X120610381Y-85447142D01*
X120658000Y-85304285D01*
X120705619Y-85256666D01*
X120610381Y-84351904D02*
X120610381Y-84828095D01*
X121086571Y-84875714D01*
X121038952Y-84828095D01*
X120991333Y-84732857D01*
X120991333Y-84494761D01*
X121038952Y-84399523D01*
X121086571Y-84351904D01*
X121181810Y-84304285D01*
X121419905Y-84304285D01*
X121515143Y-84351904D01*
X121562762Y-84399523D01*
X121610381Y-84494761D01*
X121610381Y-84732857D01*
X121562762Y-84828095D01*
X121515143Y-84875714D01*
X121769143Y-100496666D02*
X121816762Y-100544285D01*
X121864381Y-100687142D01*
X121864381Y-100782380D01*
X121816762Y-100925238D01*
X121721524Y-101020476D01*
X121626286Y-101068095D01*
X121435810Y-101115714D01*
X121292952Y-101115714D01*
X121102476Y-101068095D01*
X121007238Y-101020476D01*
X120912000Y-100925238D01*
X120864381Y-100782380D01*
X120864381Y-100687142D01*
X120912000Y-100544285D01*
X120959619Y-100496666D01*
X120864381Y-99639523D02*
X120864381Y-99830000D01*
X120912000Y-99925238D01*
X120959619Y-99972857D01*
X121102476Y-100068095D01*
X121292952Y-100115714D01*
X121673905Y-100115714D01*
X121769143Y-100068095D01*
X121816762Y-100020476D01*
X121864381Y-99925238D01*
X121864381Y-99734761D01*
X121816762Y-99639523D01*
X121769143Y-99591904D01*
X121673905Y-99544285D01*
X121435810Y-99544285D01*
X121340571Y-99591904D01*
X121292952Y-99639523D01*
X121245333Y-99734761D01*
X121245333Y-99925238D01*
X121292952Y-100020476D01*
X121340571Y-100068095D01*
X121435810Y-100115714D01*
X100861905Y-109652381D02*
X100861905Y-108652381D01*
X101242858Y-108652381D01*
X101338096Y-108700000D01*
X101385715Y-108747619D01*
X101433334Y-108842857D01*
X101433334Y-108985714D01*
X101385715Y-109080952D01*
X101338096Y-109128571D01*
X101242858Y-109176190D01*
X100861905Y-109176190D01*
X102385715Y-109652381D02*
X101814286Y-109652381D01*
X102100000Y-109652381D02*
X102100000Y-108652381D01*
X102004762Y-108795238D01*
X101909524Y-108890476D01*
X101814286Y-108938095D01*
X107132381Y-97194666D02*
X106656190Y-97528000D01*
X107132381Y-97766095D02*
X106132381Y-97766095D01*
X106132381Y-97385142D01*
X106180000Y-97289904D01*
X106227619Y-97242285D01*
X106322857Y-97194666D01*
X106465714Y-97194666D01*
X106560952Y-97242285D01*
X106608571Y-97289904D01*
X106656190Y-97385142D01*
X106656190Y-97766095D01*
X107132381Y-96242285D02*
X107132381Y-96813714D01*
X107132381Y-96528000D02*
X106132381Y-96528000D01*
X106275238Y-96623238D01*
X106370476Y-96718476D01*
X106418095Y-96813714D01*
X110942381Y-97194666D02*
X110466190Y-97528000D01*
X110942381Y-97766095D02*
X109942381Y-97766095D01*
X109942381Y-97385142D01*
X109990000Y-97289904D01*
X110037619Y-97242285D01*
X110132857Y-97194666D01*
X110275714Y-97194666D01*
X110370952Y-97242285D01*
X110418571Y-97289904D01*
X110466190Y-97385142D01*
X110466190Y-97766095D01*
X110037619Y-96813714D02*
X109990000Y-96766095D01*
X109942381Y-96670857D01*
X109942381Y-96432761D01*
X109990000Y-96337523D01*
X110037619Y-96289904D01*
X110132857Y-96242285D01*
X110228095Y-96242285D01*
X110370952Y-96289904D01*
X110942381Y-96861333D01*
X110942381Y-96242285D01*
X108305714Y-78222857D02*
X108305714Y-79194286D01*
X108362857Y-79308571D01*
X108420000Y-79365714D01*
X108534286Y-79422857D01*
X108762857Y-79422857D01*
X108877143Y-79365714D01*
X108934286Y-79308571D01*
X108991429Y-79194286D01*
X108991429Y-78222857D01*
X110191429Y-79422857D02*
X109505714Y-79422857D01*
X109848572Y-79422857D02*
X109848572Y-78222857D01*
X109734286Y-78394286D01*
X109620000Y-78508571D01*
X109505714Y-78565714D01*
M02*
