G04 #@! TF.FileFunction,Soldermask,Bot*
%FSLAX46Y46*%
G04 Gerber Fmt 4.6, Leading zero omitted, Abs format (unit mm)*
G04 Created by KiCad (PCBNEW 4.0.2-stable) date 4/1/2016 8:20:13 PM*
%MOMM*%
G01*
G04 APERTURE LIST*
%ADD10C,0.100000*%
%ADD11C,2.800000*%
%ADD12R,1.727200X1.727200*%
%ADD13O,1.727200X1.727200*%
%ADD14R,2.032000X1.727200*%
%ADD15O,2.032000X1.727200*%
%ADD16O,2.800000X1.400000*%
%ADD17C,1.800000*%
G04 APERTURE END LIST*
D10*
D11*
X109220000Y-112980000D03*
X109220000Y-74980000D03*
D12*
X101600000Y-114300000D03*
D13*
X104140000Y-114300000D03*
X101600000Y-116840000D03*
X104140000Y-116840000D03*
X101600000Y-119380000D03*
X104140000Y-119380000D03*
X101600000Y-121920000D03*
X104140000Y-121920000D03*
D14*
X127000000Y-86360000D03*
D15*
X127000000Y-83820000D03*
X127000000Y-81280000D03*
X127000000Y-78740000D03*
D14*
X127000000Y-99060000D03*
D15*
X127000000Y-101600000D03*
X127000000Y-104140000D03*
X127000000Y-106680000D03*
D16*
X116840000Y-81280000D03*
X101600000Y-81280000D03*
X116840000Y-83820000D03*
X101600000Y-83820000D03*
X116840000Y-86360000D03*
X101600000Y-86360000D03*
X116840000Y-88900000D03*
X101600000Y-88900000D03*
X116840000Y-91440000D03*
X101600000Y-91440000D03*
X116840000Y-93980000D03*
X101600000Y-93980000D03*
X116840000Y-96520000D03*
X101600000Y-96520000D03*
X116840000Y-99060000D03*
X101600000Y-99060000D03*
X116840000Y-101600000D03*
X101600000Y-101600000D03*
X116840000Y-104140000D03*
X101600000Y-104140000D03*
X116840000Y-106680000D03*
X101600000Y-106680000D03*
D17*
X116840000Y-109220000D03*
D16*
X101600000Y-109220000D03*
D17*
X114300000Y-90170000D03*
X114300000Y-92710000D03*
X114300000Y-109220000D03*
X111760000Y-109220000D03*
X109220000Y-109220000D03*
M02*
