G04 #@! TF.FileFunction,Legend,Bot*
%FSLAX46Y46*%
G04 Gerber Fmt 4.6, Leading zero omitted, Abs format (unit mm)*
G04 Created by KiCad (PCBNEW 4.0.2-stable) date 4/1/2016 8:20:13 PM*
%MOMM*%
G01*
G04 APERTURE LIST*
%ADD10C,0.100000*%
%ADD11C,0.150000*%
G04 APERTURE END LIST*
D10*
D11*
X100220000Y-115480000D02*
X100220000Y-72480000D01*
X118220000Y-72480000D02*
X100220000Y-72480000D01*
X118220000Y-115480000D02*
X118220000Y-72480000D01*
X100220000Y-115480000D02*
X118220000Y-115480000D01*
X111120000Y-93980000D02*
X107320000Y-93980000D01*
X106034286Y-93037143D02*
X106091429Y-93208572D01*
X106148571Y-93265715D01*
X106262857Y-93322858D01*
X106434286Y-93322858D01*
X106548571Y-93265715D01*
X106605714Y-93208572D01*
X106662857Y-93094286D01*
X106662857Y-92637143D01*
X105462857Y-92637143D01*
X105462857Y-93037143D01*
X105520000Y-93151429D01*
X105577143Y-93208572D01*
X105691429Y-93265715D01*
X105805714Y-93265715D01*
X105920000Y-93208572D01*
X105977143Y-93151429D01*
X106034286Y-93037143D01*
X106034286Y-92637143D01*
X105462857Y-93665715D02*
X105462857Y-94351429D01*
X106662857Y-94008572D02*
X105462857Y-94008572D01*
X106662857Y-95380001D02*
X106662857Y-94694286D01*
X106662857Y-95037144D02*
X105462857Y-95037144D01*
X105634286Y-94922858D01*
X105748571Y-94808572D01*
X105805714Y-94694286D01*
X109291429Y-108839048D02*
X109291429Y-109600953D01*
X109672381Y-109220001D02*
X108910476Y-109220001D01*
M02*
