M48
;DRILL file {KiCad 4.0.2-stable} date 4/1/2016 8:20:17 PM
;FORMAT={-:-/ absolute / inch / decimal}
FMAT,2
INCH,TZ
T1C0.039
T2C0.040
T3C0.050
%
G90
G05
M72
T1
X4.Y-3.2
X4.Y-3.3
X4.Y-3.4
X4.Y-3.5
X4.Y-3.6
X4.Y-3.7
X4.Y-3.8
X4.Y-3.9
X4.Y-4.
X4.Y-4.1
X4.Y-4.2
X4.Y-4.3
X4.3Y-4.3
X4.4Y-4.3
X4.5Y-3.55
X4.5Y-3.65
X4.5Y-4.3
X4.6Y-3.2
X4.6Y-3.3
X4.6Y-3.4
X4.6Y-3.5
X4.6Y-3.6
X4.6Y-3.7
X4.6Y-3.8
X4.6Y-3.9
X4.6Y-4.
X4.6Y-4.1
X4.6Y-4.2
X4.6Y-4.3
T2
X4.Y-4.5
X4.Y-4.6
X4.Y-4.7
X4.Y-4.8
X4.1Y-4.5
X4.1Y-4.6
X4.1Y-4.7
X4.1Y-4.8
X5.Y-3.1
X5.Y-3.2
X5.Y-3.3
X5.Y-3.4
X5.Y-3.9
X5.Y-4.
X5.Y-4.1
X5.Y-4.2
T3
X4.3Y-2.952
X4.3Y-4.448
T0
M30
