G04 #@! TF.FileFunction,Copper,L1,Top,Signal*
%FSLAX46Y46*%
G04 Gerber Fmt 4.6, Leading zero omitted, Abs format (unit mm)*
G04 Created by KiCad (PCBNEW 4.0.2-stable) date 4/1/2016 8:20:13 PM*
%MOMM*%
G01*
G04 APERTURE LIST*
%ADD10C,0.100000*%
%ADD11C,2.800000*%
%ADD12R,2.000000X1.600000*%
%ADD13R,1.600000X2.000000*%
%ADD14R,1.727200X1.727200*%
%ADD15O,1.727200X1.727200*%
%ADD16R,2.032000X1.727200*%
%ADD17O,2.032000X1.727200*%
%ADD18R,1.700000X2.000000*%
%ADD19O,2.800000X1.400000*%
%ADD20C,1.800000*%
%ADD21C,0.300000*%
G04 APERTURE END LIST*
D10*
D11*
X109220000Y-112980000D03*
X109220000Y-74980000D03*
D12*
X108490000Y-119380000D03*
X112490000Y-119380000D03*
X108490000Y-116840000D03*
X112490000Y-116840000D03*
D13*
X110490000Y-87090000D03*
X110490000Y-83090000D03*
X113030000Y-87090000D03*
X113030000Y-83090000D03*
X123190000Y-87090000D03*
X123190000Y-83090000D03*
X123190000Y-98330000D03*
X123190000Y-102330000D03*
D14*
X101600000Y-114300000D03*
D15*
X104140000Y-114300000D03*
X101600000Y-116840000D03*
X104140000Y-116840000D03*
X101600000Y-119380000D03*
X104140000Y-119380000D03*
X101600000Y-121920000D03*
X104140000Y-121920000D03*
D16*
X127000000Y-86360000D03*
D17*
X127000000Y-83820000D03*
X127000000Y-81280000D03*
X127000000Y-78740000D03*
D16*
X127000000Y-99060000D03*
D17*
X127000000Y-101600000D03*
X127000000Y-104140000D03*
X127000000Y-106680000D03*
D18*
X106680000Y-94710000D03*
X106680000Y-90710000D03*
X110490000Y-94710000D03*
X110490000Y-90710000D03*
D19*
X116840000Y-81280000D03*
X101600000Y-81280000D03*
X116840000Y-83820000D03*
X101600000Y-83820000D03*
X116840000Y-86360000D03*
X101600000Y-86360000D03*
X116840000Y-88900000D03*
X101600000Y-88900000D03*
X116840000Y-91440000D03*
X101600000Y-91440000D03*
X116840000Y-93980000D03*
X101600000Y-93980000D03*
X116840000Y-96520000D03*
X101600000Y-96520000D03*
X116840000Y-99060000D03*
X101600000Y-99060000D03*
X116840000Y-101600000D03*
X101600000Y-101600000D03*
X116840000Y-104140000D03*
X101600000Y-104140000D03*
X116840000Y-106680000D03*
X101600000Y-106680000D03*
D20*
X116840000Y-109220000D03*
D19*
X101600000Y-109220000D03*
D20*
X114300000Y-90170000D03*
X114300000Y-92710000D03*
X114300000Y-109220000D03*
X111760000Y-109220000D03*
X109220000Y-109220000D03*
D21*
X123190000Y-98330000D02*
X126270000Y-98330000D01*
X126270000Y-98330000D02*
X127000000Y-99060000D01*
X123190000Y-87090000D02*
X126270000Y-87090000D01*
X126270000Y-87090000D02*
X127000000Y-86360000D01*
X116840000Y-88900000D02*
X121380000Y-88900000D01*
X121380000Y-88900000D02*
X123190000Y-87090000D01*
X123190000Y-87090000D02*
X123190000Y-98330000D01*
X109220000Y-112980000D02*
X108490000Y-113710000D01*
X108490000Y-113710000D02*
X108490000Y-116840000D01*
X108490000Y-116840000D02*
X108490000Y-119380000D01*
X107696000Y-110236000D02*
X107696000Y-108458000D01*
X109220000Y-111760000D02*
X107696000Y-110236000D01*
X118872000Y-102108000D02*
X118872000Y-94488000D01*
X118110000Y-102870000D02*
X118872000Y-102108000D01*
X113284000Y-102870000D02*
X118110000Y-102870000D01*
X107696000Y-108458000D02*
X113284000Y-102870000D01*
X109220000Y-112980000D02*
X109220000Y-111760000D01*
X118872000Y-90424000D02*
X117348000Y-88900000D01*
X118872000Y-94488000D02*
X118872000Y-90424000D01*
X117348000Y-88900000D02*
X116840000Y-88900000D01*
X116840000Y-88900000D02*
X117348000Y-88900000D01*
X104140000Y-114300000D02*
X106680000Y-116840000D01*
X106680000Y-116840000D02*
X108490000Y-116840000D01*
X106680000Y-90710000D02*
X110490000Y-90710000D01*
X110490000Y-90710000D02*
X110490000Y-87090000D01*
X110490000Y-87090000D02*
X113030000Y-87090000D01*
X113030000Y-87090000D02*
X114522000Y-87090000D01*
X114522000Y-87090000D02*
X115316000Y-87884000D01*
X115316000Y-87884000D02*
X115824000Y-87884000D01*
X115824000Y-87884000D02*
X116840000Y-88900000D01*
X123190000Y-83090000D02*
X126270000Y-83090000D01*
X126270000Y-83090000D02*
X127000000Y-83820000D01*
X123190000Y-102330000D02*
X126270000Y-102330000D01*
X126270000Y-102330000D02*
X127000000Y-101600000D01*
X112490000Y-116840000D02*
X112490000Y-112490000D01*
X112490000Y-112490000D02*
X109220000Y-109220000D01*
X112490000Y-116840000D02*
X112490000Y-119380000D01*
X110490000Y-83090000D02*
X113030000Y-83090000D01*
X113030000Y-83090000D02*
X113760000Y-83820000D01*
X113760000Y-83820000D02*
X116840000Y-83820000D01*
X101600000Y-116840000D02*
X100584000Y-115824000D01*
X100076000Y-110744000D02*
X101600000Y-109220000D01*
X100076000Y-115316000D02*
X100076000Y-110744000D01*
X100584000Y-115824000D02*
X100076000Y-115316000D01*
X104140000Y-116840000D02*
X106172000Y-118872000D01*
X115824000Y-110236000D02*
X116840000Y-109220000D01*
X115824000Y-119380000D02*
X115824000Y-110236000D01*
X112776000Y-122428000D02*
X115824000Y-119380000D01*
X108204000Y-122428000D02*
X112776000Y-122428000D01*
X106172000Y-120396000D02*
X108204000Y-122428000D01*
X106172000Y-118872000D02*
X106172000Y-120396000D01*
X116840000Y-101600000D02*
X114300000Y-101600000D01*
X112776000Y-101600000D02*
X112522000Y-101854000D01*
X114300000Y-101600000D02*
X112776000Y-101600000D01*
X112522000Y-101854000D02*
X106172000Y-108204000D01*
X102870000Y-118110000D02*
X102870000Y-112268000D01*
X102870000Y-112268000D02*
X102870000Y-111506000D01*
X102870000Y-111506000D02*
X106172000Y-108204000D01*
X102870000Y-118110000D02*
X101600000Y-119380000D01*
X104140000Y-119380000D02*
X107703998Y-122943998D01*
X118364000Y-107195998D02*
X117848002Y-106680000D01*
X118364000Y-117856000D02*
X118364000Y-107195998D01*
X113276002Y-122943998D02*
X118364000Y-117856000D01*
X107703998Y-122943998D02*
X113276002Y-122943998D01*
X117848002Y-106680000D02*
X116840000Y-106680000D01*
X101600000Y-121920000D02*
X103124000Y-123444000D01*
X118872000Y-105156000D02*
X117856000Y-104140000D01*
X118872000Y-118364000D02*
X118872000Y-105156000D01*
X113792000Y-123444000D02*
X118872000Y-118364000D01*
X103124000Y-123444000D02*
X113792000Y-123444000D01*
X117856000Y-104140000D02*
X116840000Y-104140000D01*
X114300000Y-90170000D02*
X114300000Y-90424000D01*
X114300000Y-90424000D02*
X112268000Y-92456000D01*
X112268000Y-92456000D02*
X112268000Y-93980000D01*
X112268000Y-93980000D02*
X111538000Y-94710000D01*
X111538000Y-94710000D02*
X110490000Y-94710000D01*
X127000000Y-106680000D02*
X127508000Y-106680000D01*
X127508000Y-106680000D02*
X129032000Y-105156000D01*
X129032000Y-80772000D02*
X127000000Y-78740000D01*
X129032000Y-105156000D02*
X129032000Y-80772000D01*
X106680000Y-94710000D02*
X105886000Y-94710000D01*
X106680000Y-94710000D02*
X106680000Y-95504000D01*
X106680000Y-95504000D02*
X107696000Y-96520000D01*
X107696000Y-96520000D02*
X112268000Y-96520000D01*
X112268000Y-96520000D02*
X114300000Y-94488000D01*
X114300000Y-94488000D02*
X114300000Y-92710000D01*
M02*
