G04 #@! TF.FileFunction,Copper,L2,Bot,Signal*
%FSLAX46Y46*%
G04 Gerber Fmt 4.6, Leading zero omitted, Abs format (unit mm)*
G04 Created by KiCad (PCBNEW 4.0.2-stable) date 4/1/2016 8:20:13 PM*
%MOMM*%
G01*
G04 APERTURE LIST*
%ADD10C,0.100000*%
%ADD11C,2.800000*%
%ADD12R,1.727200X1.727200*%
%ADD13O,1.727200X1.727200*%
%ADD14R,2.032000X1.727200*%
%ADD15O,2.032000X1.727200*%
%ADD16O,2.800000X1.400000*%
%ADD17C,1.800000*%
%ADD18C,0.300000*%
%ADD19C,0.254000*%
G04 APERTURE END LIST*
D10*
D11*
X109220000Y-112980000D03*
X109220000Y-74980000D03*
D12*
X101600000Y-114300000D03*
D13*
X104140000Y-114300000D03*
X101600000Y-116840000D03*
X104140000Y-116840000D03*
X101600000Y-119380000D03*
X104140000Y-119380000D03*
X101600000Y-121920000D03*
X104140000Y-121920000D03*
D14*
X127000000Y-86360000D03*
D15*
X127000000Y-83820000D03*
X127000000Y-81280000D03*
X127000000Y-78740000D03*
D14*
X127000000Y-99060000D03*
D15*
X127000000Y-101600000D03*
X127000000Y-104140000D03*
X127000000Y-106680000D03*
D16*
X116840000Y-81280000D03*
X101600000Y-81280000D03*
X116840000Y-83820000D03*
X101600000Y-83820000D03*
X116840000Y-86360000D03*
X101600000Y-86360000D03*
X116840000Y-88900000D03*
X101600000Y-88900000D03*
X116840000Y-91440000D03*
X101600000Y-91440000D03*
X116840000Y-93980000D03*
X101600000Y-93980000D03*
X116840000Y-96520000D03*
X101600000Y-96520000D03*
X116840000Y-99060000D03*
X101600000Y-99060000D03*
X116840000Y-101600000D03*
X101600000Y-101600000D03*
X116840000Y-104140000D03*
X101600000Y-104140000D03*
X116840000Y-106680000D03*
X101600000Y-106680000D03*
D17*
X116840000Y-109220000D03*
D16*
X101600000Y-109220000D03*
D17*
X114300000Y-90170000D03*
X114300000Y-92710000D03*
X114300000Y-109220000D03*
X111760000Y-109220000D03*
X109220000Y-109220000D03*
D18*
X127000000Y-81280000D02*
X124968000Y-81280000D01*
X122428000Y-87122000D02*
X119380000Y-90170000D01*
X122428000Y-83820000D02*
X122428000Y-87122000D01*
X124968000Y-81280000D02*
X122428000Y-83820000D01*
X114300000Y-90170000D02*
X119380000Y-90170000D01*
X124968000Y-104140000D02*
X127000000Y-104140000D01*
X123698000Y-102870000D02*
X124968000Y-104140000D01*
X123698000Y-94488000D02*
X123698000Y-102870000D01*
X119380000Y-90170000D02*
X123698000Y-94488000D01*
X114300000Y-92710000D02*
X119380000Y-92710000D01*
X124460000Y-106680000D02*
X127000000Y-106680000D01*
X123190000Y-105410000D02*
X124460000Y-106680000D01*
X123190000Y-96520000D02*
X123190000Y-105410000D01*
X119380000Y-92710000D02*
X123190000Y-96520000D01*
D19*
G36*
X129084000Y-126544000D02*
X99516000Y-126544000D01*
X99516000Y-121920000D01*
X100331017Y-121920000D01*
X100425757Y-122396288D01*
X100695552Y-122800065D01*
X101099329Y-123069860D01*
X101575617Y-123164600D01*
X101624383Y-123164600D01*
X102100671Y-123069860D01*
X102504448Y-122800065D01*
X102774243Y-122396288D01*
X102868983Y-121920000D01*
X102871017Y-121920000D01*
X102965757Y-122396288D01*
X103235552Y-122800065D01*
X103639329Y-123069860D01*
X104115617Y-123164600D01*
X104164383Y-123164600D01*
X104640671Y-123069860D01*
X105044448Y-122800065D01*
X105314243Y-122396288D01*
X105408983Y-121920000D01*
X105314243Y-121443712D01*
X105044448Y-121039935D01*
X104640671Y-120770140D01*
X104164383Y-120675400D01*
X104115617Y-120675400D01*
X103639329Y-120770140D01*
X103235552Y-121039935D01*
X102965757Y-121443712D01*
X102871017Y-121920000D01*
X102868983Y-121920000D01*
X102774243Y-121443712D01*
X102504448Y-121039935D01*
X102100671Y-120770140D01*
X101624383Y-120675400D01*
X101575617Y-120675400D01*
X101099329Y-120770140D01*
X100695552Y-121039935D01*
X100425757Y-121443712D01*
X100331017Y-121920000D01*
X99516000Y-121920000D01*
X99516000Y-119380000D01*
X100331017Y-119380000D01*
X100425757Y-119856288D01*
X100695552Y-120260065D01*
X101099329Y-120529860D01*
X101575617Y-120624600D01*
X101624383Y-120624600D01*
X102100671Y-120529860D01*
X102504448Y-120260065D01*
X102774243Y-119856288D01*
X102868983Y-119380000D01*
X102871017Y-119380000D01*
X102965757Y-119856288D01*
X103235552Y-120260065D01*
X103639329Y-120529860D01*
X104115617Y-120624600D01*
X104164383Y-120624600D01*
X104640671Y-120529860D01*
X105044448Y-120260065D01*
X105314243Y-119856288D01*
X105408983Y-119380000D01*
X105314243Y-118903712D01*
X105044448Y-118499935D01*
X104640671Y-118230140D01*
X104164383Y-118135400D01*
X104115617Y-118135400D01*
X103639329Y-118230140D01*
X103235552Y-118499935D01*
X102965757Y-118903712D01*
X102871017Y-119380000D01*
X102868983Y-119380000D01*
X102774243Y-118903712D01*
X102504448Y-118499935D01*
X102100671Y-118230140D01*
X101624383Y-118135400D01*
X101575617Y-118135400D01*
X101099329Y-118230140D01*
X100695552Y-118499935D01*
X100425757Y-118903712D01*
X100331017Y-119380000D01*
X99516000Y-119380000D01*
X99516000Y-114585750D01*
X100101400Y-114585750D01*
X100101400Y-115289910D01*
X100198073Y-115523299D01*
X100376702Y-115701927D01*
X100610091Y-115798600D01*
X100937007Y-115798600D01*
X100695552Y-115959935D01*
X100425757Y-116363712D01*
X100331017Y-116840000D01*
X100425757Y-117316288D01*
X100695552Y-117720065D01*
X101099329Y-117989860D01*
X101575617Y-118084600D01*
X101624383Y-118084600D01*
X102100671Y-117989860D01*
X102504448Y-117720065D01*
X102774243Y-117316288D01*
X102868983Y-116840000D01*
X102871017Y-116840000D01*
X102965757Y-117316288D01*
X103235552Y-117720065D01*
X103639329Y-117989860D01*
X104115617Y-118084600D01*
X104164383Y-118084600D01*
X104640671Y-117989860D01*
X105044448Y-117720065D01*
X105314243Y-117316288D01*
X105408983Y-116840000D01*
X105314243Y-116363712D01*
X105044448Y-115959935D01*
X104640671Y-115690140D01*
X104164383Y-115595400D01*
X104115617Y-115595400D01*
X103639329Y-115690140D01*
X103235552Y-115959935D01*
X102965757Y-116363712D01*
X102871017Y-116840000D01*
X102868983Y-116840000D01*
X102774243Y-116363712D01*
X102504448Y-115959935D01*
X102262993Y-115798600D01*
X102589909Y-115798600D01*
X102823298Y-115701927D01*
X103001927Y-115523299D01*
X103098600Y-115289910D01*
X103098600Y-114975102D01*
X103235552Y-115180065D01*
X103639329Y-115449860D01*
X104115617Y-115544600D01*
X104164383Y-115544600D01*
X104640671Y-115449860D01*
X105044448Y-115180065D01*
X105314243Y-114776288D01*
X105408983Y-114300000D01*
X105314243Y-113823712D01*
X105044448Y-113419935D01*
X104913905Y-113332709D01*
X107438691Y-113332709D01*
X107709261Y-113987538D01*
X108209827Y-114488978D01*
X108864183Y-114760690D01*
X109572709Y-114761309D01*
X110227538Y-114490739D01*
X110728978Y-113990173D01*
X111000690Y-113335817D01*
X111001309Y-112627291D01*
X110730739Y-111972462D01*
X110230173Y-111471022D01*
X109575817Y-111199310D01*
X108867291Y-111198691D01*
X108212462Y-111469261D01*
X107711022Y-111969827D01*
X107439310Y-112624183D01*
X107438691Y-113332709D01*
X104913905Y-113332709D01*
X104640671Y-113150140D01*
X104164383Y-113055400D01*
X104115617Y-113055400D01*
X103639329Y-113150140D01*
X103235552Y-113419935D01*
X103098600Y-113624898D01*
X103098600Y-113310090D01*
X103001927Y-113076701D01*
X102823298Y-112898073D01*
X102589909Y-112801400D01*
X101885750Y-112801400D01*
X101727000Y-112960150D01*
X101727000Y-114173000D01*
X101747000Y-114173000D01*
X101747000Y-114427000D01*
X101727000Y-114427000D01*
X101727000Y-114447000D01*
X101473000Y-114447000D01*
X101473000Y-114427000D01*
X100260150Y-114427000D01*
X100101400Y-114585750D01*
X99516000Y-114585750D01*
X99516000Y-113310090D01*
X100101400Y-113310090D01*
X100101400Y-114014250D01*
X100260150Y-114173000D01*
X101473000Y-114173000D01*
X101473000Y-112960150D01*
X101314250Y-112801400D01*
X100610091Y-112801400D01*
X100376702Y-112898073D01*
X100198073Y-113076701D01*
X100101400Y-113310090D01*
X99516000Y-113310090D01*
X99516000Y-109220000D01*
X99784108Y-109220000D01*
X99866394Y-109633681D01*
X100100726Y-109984382D01*
X100451427Y-110218714D01*
X100865108Y-110301000D01*
X102334892Y-110301000D01*
X102339120Y-110300159D01*
X108319446Y-110300159D01*
X108405852Y-110556643D01*
X108979336Y-110766458D01*
X109589460Y-110740839D01*
X110034148Y-110556643D01*
X110120554Y-110300159D01*
X109220000Y-109399605D01*
X108319446Y-110300159D01*
X102339120Y-110300159D01*
X102748573Y-110218714D01*
X103099274Y-109984382D01*
X103333606Y-109633681D01*
X103415892Y-109220000D01*
X103368022Y-108979336D01*
X107673542Y-108979336D01*
X107699161Y-109589460D01*
X107883357Y-110034148D01*
X108139841Y-110120554D01*
X109040395Y-109220000D01*
X109399605Y-109220000D01*
X110300159Y-110120554D01*
X110556643Y-110034148D01*
X110628830Y-109836841D01*
X110673388Y-109944680D01*
X111033425Y-110305345D01*
X111504076Y-110500777D01*
X112013689Y-110501222D01*
X112484680Y-110306612D01*
X112845345Y-109946575D01*
X113030213Y-109501364D01*
X113213388Y-109944680D01*
X113573425Y-110305345D01*
X114044076Y-110500777D01*
X114553689Y-110501222D01*
X115024680Y-110306612D01*
X115385345Y-109946575D01*
X115570213Y-109501364D01*
X115753388Y-109944680D01*
X116113425Y-110305345D01*
X116584076Y-110500777D01*
X117093689Y-110501222D01*
X117564680Y-110306612D01*
X117925345Y-109946575D01*
X118120777Y-109475924D01*
X118121222Y-108966311D01*
X117926612Y-108495320D01*
X117566575Y-108134655D01*
X117095924Y-107939223D01*
X116586311Y-107938778D01*
X116115320Y-108133388D01*
X115754655Y-108493425D01*
X115569787Y-108938636D01*
X115386612Y-108495320D01*
X115026575Y-108134655D01*
X114555924Y-107939223D01*
X114046311Y-107938778D01*
X113575320Y-108133388D01*
X113214655Y-108493425D01*
X113029787Y-108938636D01*
X112846612Y-108495320D01*
X112486575Y-108134655D01*
X112015924Y-107939223D01*
X111506311Y-107938778D01*
X111035320Y-108133388D01*
X110674655Y-108493425D01*
X110633736Y-108591970D01*
X110556643Y-108405852D01*
X110300159Y-108319446D01*
X109399605Y-109220000D01*
X109040395Y-109220000D01*
X108139841Y-108319446D01*
X107883357Y-108405852D01*
X107673542Y-108979336D01*
X103368022Y-108979336D01*
X103333606Y-108806319D01*
X103099274Y-108455618D01*
X102748573Y-108221286D01*
X102339121Y-108139841D01*
X108319446Y-108139841D01*
X109220000Y-109040395D01*
X110120554Y-108139841D01*
X110034148Y-107883357D01*
X109460664Y-107673542D01*
X108850540Y-107699161D01*
X108405852Y-107883357D01*
X108319446Y-108139841D01*
X102339121Y-108139841D01*
X102334892Y-108139000D01*
X100865108Y-108139000D01*
X100451427Y-108221286D01*
X100100726Y-108455618D01*
X99866394Y-108806319D01*
X99784108Y-109220000D01*
X99516000Y-109220000D01*
X99516000Y-106680000D01*
X99784108Y-106680000D01*
X99866394Y-107093681D01*
X100100726Y-107444382D01*
X100451427Y-107678714D01*
X100865108Y-107761000D01*
X102334892Y-107761000D01*
X102748573Y-107678714D01*
X103099274Y-107444382D01*
X103333606Y-107093681D01*
X103415892Y-106680000D01*
X115024108Y-106680000D01*
X115106394Y-107093681D01*
X115340726Y-107444382D01*
X115691427Y-107678714D01*
X116105108Y-107761000D01*
X117574892Y-107761000D01*
X117988573Y-107678714D01*
X118339274Y-107444382D01*
X118573606Y-107093681D01*
X118655892Y-106680000D01*
X118573606Y-106266319D01*
X118339274Y-105915618D01*
X117988573Y-105681286D01*
X117574892Y-105599000D01*
X116105108Y-105599000D01*
X115691427Y-105681286D01*
X115340726Y-105915618D01*
X115106394Y-106266319D01*
X115024108Y-106680000D01*
X103415892Y-106680000D01*
X103333606Y-106266319D01*
X103099274Y-105915618D01*
X102748573Y-105681286D01*
X102334892Y-105599000D01*
X100865108Y-105599000D01*
X100451427Y-105681286D01*
X100100726Y-105915618D01*
X99866394Y-106266319D01*
X99784108Y-106680000D01*
X99516000Y-106680000D01*
X99516000Y-104140000D01*
X99784108Y-104140000D01*
X99866394Y-104553681D01*
X100100726Y-104904382D01*
X100451427Y-105138714D01*
X100865108Y-105221000D01*
X102334892Y-105221000D01*
X102748573Y-105138714D01*
X103099274Y-104904382D01*
X103333606Y-104553681D01*
X103415892Y-104140000D01*
X115024108Y-104140000D01*
X115106394Y-104553681D01*
X115340726Y-104904382D01*
X115691427Y-105138714D01*
X116105108Y-105221000D01*
X117574892Y-105221000D01*
X117988573Y-105138714D01*
X118339274Y-104904382D01*
X118573606Y-104553681D01*
X118655892Y-104140000D01*
X118573606Y-103726319D01*
X118339274Y-103375618D01*
X117988573Y-103141286D01*
X117574892Y-103059000D01*
X116105108Y-103059000D01*
X115691427Y-103141286D01*
X115340726Y-103375618D01*
X115106394Y-103726319D01*
X115024108Y-104140000D01*
X103415892Y-104140000D01*
X103333606Y-103726319D01*
X103099274Y-103375618D01*
X102748573Y-103141286D01*
X102334892Y-103059000D01*
X100865108Y-103059000D01*
X100451427Y-103141286D01*
X100100726Y-103375618D01*
X99866394Y-103726319D01*
X99784108Y-104140000D01*
X99516000Y-104140000D01*
X99516000Y-101600000D01*
X99784108Y-101600000D01*
X99866394Y-102013681D01*
X100100726Y-102364382D01*
X100451427Y-102598714D01*
X100865108Y-102681000D01*
X102334892Y-102681000D01*
X102748573Y-102598714D01*
X103099274Y-102364382D01*
X103333606Y-102013681D01*
X103415892Y-101600000D01*
X115024108Y-101600000D01*
X115106394Y-102013681D01*
X115340726Y-102364382D01*
X115691427Y-102598714D01*
X116105108Y-102681000D01*
X117574892Y-102681000D01*
X117988573Y-102598714D01*
X118339274Y-102364382D01*
X118573606Y-102013681D01*
X118655892Y-101600000D01*
X118573606Y-101186319D01*
X118339274Y-100835618D01*
X117988573Y-100601286D01*
X117574892Y-100519000D01*
X116105108Y-100519000D01*
X115691427Y-100601286D01*
X115340726Y-100835618D01*
X115106394Y-101186319D01*
X115024108Y-101600000D01*
X103415892Y-101600000D01*
X103333606Y-101186319D01*
X103099274Y-100835618D01*
X102748573Y-100601286D01*
X102334892Y-100519000D01*
X100865108Y-100519000D01*
X100451427Y-100601286D01*
X100100726Y-100835618D01*
X99866394Y-101186319D01*
X99784108Y-101600000D01*
X99516000Y-101600000D01*
X99516000Y-99060000D01*
X99784108Y-99060000D01*
X99866394Y-99473681D01*
X100100726Y-99824382D01*
X100451427Y-100058714D01*
X100865108Y-100141000D01*
X102334892Y-100141000D01*
X102748573Y-100058714D01*
X103099274Y-99824382D01*
X103333606Y-99473681D01*
X103415892Y-99060000D01*
X115024108Y-99060000D01*
X115106394Y-99473681D01*
X115340726Y-99824382D01*
X115691427Y-100058714D01*
X116105108Y-100141000D01*
X117574892Y-100141000D01*
X117988573Y-100058714D01*
X118339274Y-99824382D01*
X118573606Y-99473681D01*
X118655892Y-99060000D01*
X118573606Y-98646319D01*
X118339274Y-98295618D01*
X117988573Y-98061286D01*
X117574892Y-97979000D01*
X116105108Y-97979000D01*
X115691427Y-98061286D01*
X115340726Y-98295618D01*
X115106394Y-98646319D01*
X115024108Y-99060000D01*
X103415892Y-99060000D01*
X103333606Y-98646319D01*
X103099274Y-98295618D01*
X102748573Y-98061286D01*
X102334892Y-97979000D01*
X100865108Y-97979000D01*
X100451427Y-98061286D01*
X100100726Y-98295618D01*
X99866394Y-98646319D01*
X99784108Y-99060000D01*
X99516000Y-99060000D01*
X99516000Y-96520000D01*
X99784108Y-96520000D01*
X99866394Y-96933681D01*
X100100726Y-97284382D01*
X100451427Y-97518714D01*
X100865108Y-97601000D01*
X102334892Y-97601000D01*
X102748573Y-97518714D01*
X103099274Y-97284382D01*
X103333606Y-96933681D01*
X103415892Y-96520000D01*
X115024108Y-96520000D01*
X115106394Y-96933681D01*
X115340726Y-97284382D01*
X115691427Y-97518714D01*
X116105108Y-97601000D01*
X117574892Y-97601000D01*
X117988573Y-97518714D01*
X118339274Y-97284382D01*
X118573606Y-96933681D01*
X118655892Y-96520000D01*
X118573606Y-96106319D01*
X118339274Y-95755618D01*
X117988573Y-95521286D01*
X117574892Y-95439000D01*
X116105108Y-95439000D01*
X115691427Y-95521286D01*
X115340726Y-95755618D01*
X115106394Y-96106319D01*
X115024108Y-96520000D01*
X103415892Y-96520000D01*
X103333606Y-96106319D01*
X103099274Y-95755618D01*
X102748573Y-95521286D01*
X102334892Y-95439000D01*
X100865108Y-95439000D01*
X100451427Y-95521286D01*
X100100726Y-95755618D01*
X99866394Y-96106319D01*
X99784108Y-96520000D01*
X99516000Y-96520000D01*
X99516000Y-93980000D01*
X99784108Y-93980000D01*
X99866394Y-94393681D01*
X100100726Y-94744382D01*
X100451427Y-94978714D01*
X100865108Y-95061000D01*
X102334892Y-95061000D01*
X102748573Y-94978714D01*
X103099274Y-94744382D01*
X103333606Y-94393681D01*
X103415892Y-93980000D01*
X103333606Y-93566319D01*
X103099274Y-93215618D01*
X102748573Y-92981286D01*
X102334892Y-92899000D01*
X100865108Y-92899000D01*
X100451427Y-92981286D01*
X100100726Y-93215618D01*
X99866394Y-93566319D01*
X99784108Y-93980000D01*
X99516000Y-93980000D01*
X99516000Y-91440000D01*
X99784108Y-91440000D01*
X99866394Y-91853681D01*
X100100726Y-92204382D01*
X100451427Y-92438714D01*
X100865108Y-92521000D01*
X102334892Y-92521000D01*
X102748573Y-92438714D01*
X103099274Y-92204382D01*
X103333606Y-91853681D01*
X103415892Y-91440000D01*
X103333606Y-91026319D01*
X103099274Y-90675618D01*
X102748573Y-90441286D01*
X102660107Y-90423689D01*
X113018778Y-90423689D01*
X113213388Y-90894680D01*
X113573425Y-91255345D01*
X114018636Y-91440213D01*
X113575320Y-91623388D01*
X113214655Y-91983425D01*
X113019223Y-92454076D01*
X113018778Y-92963689D01*
X113213388Y-93434680D01*
X113573425Y-93795345D01*
X114044076Y-93990777D01*
X114553689Y-93991222D01*
X115024680Y-93796612D01*
X115069482Y-93751888D01*
X115024108Y-93980000D01*
X115106394Y-94393681D01*
X115340726Y-94744382D01*
X115691427Y-94978714D01*
X116105108Y-95061000D01*
X117574892Y-95061000D01*
X117988573Y-94978714D01*
X118339274Y-94744382D01*
X118573606Y-94393681D01*
X118655892Y-93980000D01*
X118573606Y-93566319D01*
X118356234Y-93241000D01*
X119160052Y-93241000D01*
X122659000Y-96739947D01*
X122659000Y-105410000D01*
X122699420Y-105613205D01*
X122814526Y-105785474D01*
X124084526Y-107055474D01*
X124256795Y-107170580D01*
X124460000Y-107211000D01*
X125706928Y-107211000D01*
X125940166Y-107560065D01*
X126343943Y-107829860D01*
X126820231Y-107924600D01*
X127179769Y-107924600D01*
X127656057Y-107829860D01*
X128059834Y-107560065D01*
X128329629Y-107156288D01*
X128424369Y-106680000D01*
X128329629Y-106203712D01*
X128059834Y-105799935D01*
X127656057Y-105530140D01*
X127179769Y-105435400D01*
X126820231Y-105435400D01*
X126343943Y-105530140D01*
X125940166Y-105799935D01*
X125706928Y-106149000D01*
X124679948Y-106149000D01*
X123721000Y-105190052D01*
X123721000Y-103643948D01*
X124592526Y-104515474D01*
X124764795Y-104630580D01*
X124968000Y-104671000D01*
X125706928Y-104671000D01*
X125940166Y-105020065D01*
X126343943Y-105289860D01*
X126820231Y-105384600D01*
X127179769Y-105384600D01*
X127656057Y-105289860D01*
X128059834Y-105020065D01*
X128329629Y-104616288D01*
X128424369Y-104140000D01*
X128329629Y-103663712D01*
X128059834Y-103259935D01*
X127656057Y-102990140D01*
X127641757Y-102987296D01*
X127914320Y-102891954D01*
X128350732Y-102502036D01*
X128604709Y-101974791D01*
X128607358Y-101959026D01*
X128486217Y-101727000D01*
X127127000Y-101727000D01*
X127127000Y-101747000D01*
X126873000Y-101747000D01*
X126873000Y-101727000D01*
X125513783Y-101727000D01*
X125392642Y-101959026D01*
X125395291Y-101974791D01*
X125649268Y-102502036D01*
X126085680Y-102891954D01*
X126358243Y-102987296D01*
X126343943Y-102990140D01*
X125940166Y-103259935D01*
X125706928Y-103609000D01*
X125187948Y-103609000D01*
X124229000Y-102650052D01*
X124229000Y-101240974D01*
X125392642Y-101240974D01*
X125513783Y-101473000D01*
X126873000Y-101473000D01*
X126873000Y-101453000D01*
X127127000Y-101453000D01*
X127127000Y-101473000D01*
X128486217Y-101473000D01*
X128607358Y-101240974D01*
X128604709Y-101225209D01*
X128350732Y-100697964D01*
X127918817Y-100312064D01*
X128016000Y-100312064D01*
X128157190Y-100285497D01*
X128286865Y-100202054D01*
X128373859Y-100074734D01*
X128404464Y-99923600D01*
X128404464Y-98196400D01*
X128377897Y-98055210D01*
X128294454Y-97925535D01*
X128167134Y-97838541D01*
X128016000Y-97807936D01*
X125984000Y-97807936D01*
X125842810Y-97834503D01*
X125713135Y-97917946D01*
X125626141Y-98045266D01*
X125595536Y-98196400D01*
X125595536Y-99923600D01*
X125622103Y-100064790D01*
X125705546Y-100194465D01*
X125832866Y-100281459D01*
X125984000Y-100312064D01*
X126081183Y-100312064D01*
X125649268Y-100697964D01*
X125395291Y-101225209D01*
X125392642Y-101240974D01*
X124229000Y-101240974D01*
X124229000Y-94488000D01*
X124188580Y-94284795D01*
X124073474Y-94112526D01*
X120130948Y-90170000D01*
X122803474Y-87497474D01*
X122918580Y-87325205D01*
X122959000Y-87122000D01*
X122959000Y-84179026D01*
X125392642Y-84179026D01*
X125395291Y-84194791D01*
X125649268Y-84722036D01*
X126081183Y-85107936D01*
X125984000Y-85107936D01*
X125842810Y-85134503D01*
X125713135Y-85217946D01*
X125626141Y-85345266D01*
X125595536Y-85496400D01*
X125595536Y-87223600D01*
X125622103Y-87364790D01*
X125705546Y-87494465D01*
X125832866Y-87581459D01*
X125984000Y-87612064D01*
X128016000Y-87612064D01*
X128157190Y-87585497D01*
X128286865Y-87502054D01*
X128373859Y-87374734D01*
X128404464Y-87223600D01*
X128404464Y-85496400D01*
X128377897Y-85355210D01*
X128294454Y-85225535D01*
X128167134Y-85138541D01*
X128016000Y-85107936D01*
X127918817Y-85107936D01*
X128350732Y-84722036D01*
X128604709Y-84194791D01*
X128607358Y-84179026D01*
X128486217Y-83947000D01*
X127127000Y-83947000D01*
X127127000Y-83967000D01*
X126873000Y-83967000D01*
X126873000Y-83947000D01*
X125513783Y-83947000D01*
X125392642Y-84179026D01*
X122959000Y-84179026D01*
X122959000Y-84039948D01*
X125187947Y-81811000D01*
X125706928Y-81811000D01*
X125940166Y-82160065D01*
X126343943Y-82429860D01*
X126358243Y-82432704D01*
X126085680Y-82528046D01*
X125649268Y-82917964D01*
X125395291Y-83445209D01*
X125392642Y-83460974D01*
X125513783Y-83693000D01*
X126873000Y-83693000D01*
X126873000Y-83673000D01*
X127127000Y-83673000D01*
X127127000Y-83693000D01*
X128486217Y-83693000D01*
X128607358Y-83460974D01*
X128604709Y-83445209D01*
X128350732Y-82917964D01*
X127914320Y-82528046D01*
X127641757Y-82432704D01*
X127656057Y-82429860D01*
X128059834Y-82160065D01*
X128329629Y-81756288D01*
X128424369Y-81280000D01*
X128329629Y-80803712D01*
X128059834Y-80399935D01*
X127656057Y-80130140D01*
X127179769Y-80035400D01*
X126820231Y-80035400D01*
X126343943Y-80130140D01*
X125940166Y-80399935D01*
X125706928Y-80749000D01*
X124968000Y-80749000D01*
X124764795Y-80789420D01*
X124592526Y-80904526D01*
X124592524Y-80904529D01*
X122052526Y-83444526D01*
X121937420Y-83616795D01*
X121897000Y-83820000D01*
X121897000Y-86902052D01*
X119160052Y-89639000D01*
X118356234Y-89639000D01*
X118573606Y-89313681D01*
X118655892Y-88900000D01*
X118573606Y-88486319D01*
X118339274Y-88135618D01*
X117988573Y-87901286D01*
X117574892Y-87819000D01*
X116105108Y-87819000D01*
X115691427Y-87901286D01*
X115340726Y-88135618D01*
X115106394Y-88486319D01*
X115024108Y-88900000D01*
X115069364Y-89127519D01*
X115026575Y-89084655D01*
X114555924Y-88889223D01*
X114046311Y-88888778D01*
X113575320Y-89083388D01*
X113214655Y-89443425D01*
X113019223Y-89914076D01*
X113018778Y-90423689D01*
X102660107Y-90423689D01*
X102334892Y-90359000D01*
X100865108Y-90359000D01*
X100451427Y-90441286D01*
X100100726Y-90675618D01*
X99866394Y-91026319D01*
X99784108Y-91440000D01*
X99516000Y-91440000D01*
X99516000Y-89233329D01*
X99607284Y-89233329D01*
X99618020Y-89293550D01*
X99866210Y-89754185D01*
X100271785Y-90084778D01*
X100773000Y-90235000D01*
X101473000Y-90235000D01*
X101473000Y-89027000D01*
X101727000Y-89027000D01*
X101727000Y-90235000D01*
X102427000Y-90235000D01*
X102928215Y-90084778D01*
X103333790Y-89754185D01*
X103581980Y-89293550D01*
X103592716Y-89233329D01*
X103469374Y-89027000D01*
X101727000Y-89027000D01*
X101473000Y-89027000D01*
X99730626Y-89027000D01*
X99607284Y-89233329D01*
X99516000Y-89233329D01*
X99516000Y-88566671D01*
X99607284Y-88566671D01*
X99730626Y-88773000D01*
X101473000Y-88773000D01*
X101473000Y-87565000D01*
X101727000Y-87565000D01*
X101727000Y-88773000D01*
X103469374Y-88773000D01*
X103592716Y-88566671D01*
X103581980Y-88506450D01*
X103333790Y-88045815D01*
X102928215Y-87715222D01*
X102427000Y-87565000D01*
X101727000Y-87565000D01*
X101473000Y-87565000D01*
X100773000Y-87565000D01*
X100271785Y-87715222D01*
X99866210Y-88045815D01*
X99618020Y-88506450D01*
X99607284Y-88566671D01*
X99516000Y-88566671D01*
X99516000Y-86360000D01*
X99784108Y-86360000D01*
X99866394Y-86773681D01*
X100100726Y-87124382D01*
X100451427Y-87358714D01*
X100865108Y-87441000D01*
X102334892Y-87441000D01*
X102748573Y-87358714D01*
X103099274Y-87124382D01*
X103333606Y-86773681D01*
X103415892Y-86360000D01*
X115024108Y-86360000D01*
X115106394Y-86773681D01*
X115340726Y-87124382D01*
X115691427Y-87358714D01*
X116105108Y-87441000D01*
X117574892Y-87441000D01*
X117988573Y-87358714D01*
X118339274Y-87124382D01*
X118573606Y-86773681D01*
X118655892Y-86360000D01*
X118573606Y-85946319D01*
X118339274Y-85595618D01*
X117988573Y-85361286D01*
X117574892Y-85279000D01*
X116105108Y-85279000D01*
X115691427Y-85361286D01*
X115340726Y-85595618D01*
X115106394Y-85946319D01*
X115024108Y-86360000D01*
X103415892Y-86360000D01*
X103333606Y-85946319D01*
X103099274Y-85595618D01*
X102748573Y-85361286D01*
X102334892Y-85279000D01*
X100865108Y-85279000D01*
X100451427Y-85361286D01*
X100100726Y-85595618D01*
X99866394Y-85946319D01*
X99784108Y-86360000D01*
X99516000Y-86360000D01*
X99516000Y-83820000D01*
X99784108Y-83820000D01*
X99866394Y-84233681D01*
X100100726Y-84584382D01*
X100451427Y-84818714D01*
X100865108Y-84901000D01*
X102334892Y-84901000D01*
X102748573Y-84818714D01*
X103099274Y-84584382D01*
X103333606Y-84233681D01*
X103349588Y-84153329D01*
X114847284Y-84153329D01*
X114858020Y-84213550D01*
X115106210Y-84674185D01*
X115511785Y-85004778D01*
X116013000Y-85155000D01*
X116713000Y-85155000D01*
X116713000Y-83947000D01*
X116967000Y-83947000D01*
X116967000Y-85155000D01*
X117667000Y-85155000D01*
X118168215Y-85004778D01*
X118573790Y-84674185D01*
X118821980Y-84213550D01*
X118832716Y-84153329D01*
X118709374Y-83947000D01*
X116967000Y-83947000D01*
X116713000Y-83947000D01*
X114970626Y-83947000D01*
X114847284Y-84153329D01*
X103349588Y-84153329D01*
X103415892Y-83820000D01*
X103349589Y-83486671D01*
X114847284Y-83486671D01*
X114970626Y-83693000D01*
X116713000Y-83693000D01*
X116713000Y-82485000D01*
X116967000Y-82485000D01*
X116967000Y-83693000D01*
X118709374Y-83693000D01*
X118832716Y-83486671D01*
X118821980Y-83426450D01*
X118573790Y-82965815D01*
X118168215Y-82635222D01*
X117667000Y-82485000D01*
X116967000Y-82485000D01*
X116713000Y-82485000D01*
X116013000Y-82485000D01*
X115511785Y-82635222D01*
X115106210Y-82965815D01*
X114858020Y-83426450D01*
X114847284Y-83486671D01*
X103349589Y-83486671D01*
X103333606Y-83406319D01*
X103099274Y-83055618D01*
X102748573Y-82821286D01*
X102334892Y-82739000D01*
X100865108Y-82739000D01*
X100451427Y-82821286D01*
X100100726Y-83055618D01*
X99866394Y-83406319D01*
X99784108Y-83820000D01*
X99516000Y-83820000D01*
X99516000Y-81280000D01*
X99784108Y-81280000D01*
X99866394Y-81693681D01*
X100100726Y-82044382D01*
X100451427Y-82278714D01*
X100865108Y-82361000D01*
X102334892Y-82361000D01*
X102748573Y-82278714D01*
X103099274Y-82044382D01*
X103333606Y-81693681D01*
X103415892Y-81280000D01*
X115024108Y-81280000D01*
X115106394Y-81693681D01*
X115340726Y-82044382D01*
X115691427Y-82278714D01*
X116105108Y-82361000D01*
X117574892Y-82361000D01*
X117988573Y-82278714D01*
X118339274Y-82044382D01*
X118573606Y-81693681D01*
X118655892Y-81280000D01*
X118573606Y-80866319D01*
X118339274Y-80515618D01*
X117988573Y-80281286D01*
X117574892Y-80199000D01*
X116105108Y-80199000D01*
X115691427Y-80281286D01*
X115340726Y-80515618D01*
X115106394Y-80866319D01*
X115024108Y-81280000D01*
X103415892Y-81280000D01*
X103333606Y-80866319D01*
X103099274Y-80515618D01*
X102748573Y-80281286D01*
X102334892Y-80199000D01*
X100865108Y-80199000D01*
X100451427Y-80281286D01*
X100100726Y-80515618D01*
X99866394Y-80866319D01*
X99784108Y-81280000D01*
X99516000Y-81280000D01*
X99516000Y-78740000D01*
X125575631Y-78740000D01*
X125670371Y-79216288D01*
X125940166Y-79620065D01*
X126343943Y-79889860D01*
X126820231Y-79984600D01*
X127179769Y-79984600D01*
X127656057Y-79889860D01*
X128059834Y-79620065D01*
X128329629Y-79216288D01*
X128424369Y-78740000D01*
X128329629Y-78263712D01*
X128059834Y-77859935D01*
X127656057Y-77590140D01*
X127179769Y-77495400D01*
X126820231Y-77495400D01*
X126343943Y-77590140D01*
X125940166Y-77859935D01*
X125670371Y-78263712D01*
X125575631Y-78740000D01*
X99516000Y-78740000D01*
X99516000Y-76421724D01*
X107957882Y-76421724D01*
X108105455Y-76730106D01*
X108860031Y-77023405D01*
X109669409Y-77005614D01*
X110334545Y-76730106D01*
X110482118Y-76421724D01*
X109220000Y-75159605D01*
X107957882Y-76421724D01*
X99516000Y-76421724D01*
X99516000Y-74620031D01*
X107176595Y-74620031D01*
X107194386Y-75429409D01*
X107469894Y-76094545D01*
X107778276Y-76242118D01*
X109040395Y-74980000D01*
X109399605Y-74980000D01*
X110661724Y-76242118D01*
X110970106Y-76094545D01*
X111263405Y-75339969D01*
X111245614Y-74530591D01*
X110970106Y-73865455D01*
X110661724Y-73717882D01*
X109399605Y-74980000D01*
X109040395Y-74980000D01*
X107778276Y-73717882D01*
X107469894Y-73865455D01*
X107176595Y-74620031D01*
X99516000Y-74620031D01*
X99516000Y-73538276D01*
X107957882Y-73538276D01*
X109220000Y-74800395D01*
X110482118Y-73538276D01*
X110334545Y-73229894D01*
X109579969Y-72936595D01*
X108770591Y-72954386D01*
X108105455Y-73229894D01*
X107957882Y-73538276D01*
X99516000Y-73538276D01*
X99516000Y-72846000D01*
X129084000Y-72846000D01*
X129084000Y-126544000D01*
X129084000Y-126544000D01*
G37*
X129084000Y-126544000D02*
X99516000Y-126544000D01*
X99516000Y-121920000D01*
X100331017Y-121920000D01*
X100425757Y-122396288D01*
X100695552Y-122800065D01*
X101099329Y-123069860D01*
X101575617Y-123164600D01*
X101624383Y-123164600D01*
X102100671Y-123069860D01*
X102504448Y-122800065D01*
X102774243Y-122396288D01*
X102868983Y-121920000D01*
X102871017Y-121920000D01*
X102965757Y-122396288D01*
X103235552Y-122800065D01*
X103639329Y-123069860D01*
X104115617Y-123164600D01*
X104164383Y-123164600D01*
X104640671Y-123069860D01*
X105044448Y-122800065D01*
X105314243Y-122396288D01*
X105408983Y-121920000D01*
X105314243Y-121443712D01*
X105044448Y-121039935D01*
X104640671Y-120770140D01*
X104164383Y-120675400D01*
X104115617Y-120675400D01*
X103639329Y-120770140D01*
X103235552Y-121039935D01*
X102965757Y-121443712D01*
X102871017Y-121920000D01*
X102868983Y-121920000D01*
X102774243Y-121443712D01*
X102504448Y-121039935D01*
X102100671Y-120770140D01*
X101624383Y-120675400D01*
X101575617Y-120675400D01*
X101099329Y-120770140D01*
X100695552Y-121039935D01*
X100425757Y-121443712D01*
X100331017Y-121920000D01*
X99516000Y-121920000D01*
X99516000Y-119380000D01*
X100331017Y-119380000D01*
X100425757Y-119856288D01*
X100695552Y-120260065D01*
X101099329Y-120529860D01*
X101575617Y-120624600D01*
X101624383Y-120624600D01*
X102100671Y-120529860D01*
X102504448Y-120260065D01*
X102774243Y-119856288D01*
X102868983Y-119380000D01*
X102871017Y-119380000D01*
X102965757Y-119856288D01*
X103235552Y-120260065D01*
X103639329Y-120529860D01*
X104115617Y-120624600D01*
X104164383Y-120624600D01*
X104640671Y-120529860D01*
X105044448Y-120260065D01*
X105314243Y-119856288D01*
X105408983Y-119380000D01*
X105314243Y-118903712D01*
X105044448Y-118499935D01*
X104640671Y-118230140D01*
X104164383Y-118135400D01*
X104115617Y-118135400D01*
X103639329Y-118230140D01*
X103235552Y-118499935D01*
X102965757Y-118903712D01*
X102871017Y-119380000D01*
X102868983Y-119380000D01*
X102774243Y-118903712D01*
X102504448Y-118499935D01*
X102100671Y-118230140D01*
X101624383Y-118135400D01*
X101575617Y-118135400D01*
X101099329Y-118230140D01*
X100695552Y-118499935D01*
X100425757Y-118903712D01*
X100331017Y-119380000D01*
X99516000Y-119380000D01*
X99516000Y-114585750D01*
X100101400Y-114585750D01*
X100101400Y-115289910D01*
X100198073Y-115523299D01*
X100376702Y-115701927D01*
X100610091Y-115798600D01*
X100937007Y-115798600D01*
X100695552Y-115959935D01*
X100425757Y-116363712D01*
X100331017Y-116840000D01*
X100425757Y-117316288D01*
X100695552Y-117720065D01*
X101099329Y-117989860D01*
X101575617Y-118084600D01*
X101624383Y-118084600D01*
X102100671Y-117989860D01*
X102504448Y-117720065D01*
X102774243Y-117316288D01*
X102868983Y-116840000D01*
X102871017Y-116840000D01*
X102965757Y-117316288D01*
X103235552Y-117720065D01*
X103639329Y-117989860D01*
X104115617Y-118084600D01*
X104164383Y-118084600D01*
X104640671Y-117989860D01*
X105044448Y-117720065D01*
X105314243Y-117316288D01*
X105408983Y-116840000D01*
X105314243Y-116363712D01*
X105044448Y-115959935D01*
X104640671Y-115690140D01*
X104164383Y-115595400D01*
X104115617Y-115595400D01*
X103639329Y-115690140D01*
X103235552Y-115959935D01*
X102965757Y-116363712D01*
X102871017Y-116840000D01*
X102868983Y-116840000D01*
X102774243Y-116363712D01*
X102504448Y-115959935D01*
X102262993Y-115798600D01*
X102589909Y-115798600D01*
X102823298Y-115701927D01*
X103001927Y-115523299D01*
X103098600Y-115289910D01*
X103098600Y-114975102D01*
X103235552Y-115180065D01*
X103639329Y-115449860D01*
X104115617Y-115544600D01*
X104164383Y-115544600D01*
X104640671Y-115449860D01*
X105044448Y-115180065D01*
X105314243Y-114776288D01*
X105408983Y-114300000D01*
X105314243Y-113823712D01*
X105044448Y-113419935D01*
X104913905Y-113332709D01*
X107438691Y-113332709D01*
X107709261Y-113987538D01*
X108209827Y-114488978D01*
X108864183Y-114760690D01*
X109572709Y-114761309D01*
X110227538Y-114490739D01*
X110728978Y-113990173D01*
X111000690Y-113335817D01*
X111001309Y-112627291D01*
X110730739Y-111972462D01*
X110230173Y-111471022D01*
X109575817Y-111199310D01*
X108867291Y-111198691D01*
X108212462Y-111469261D01*
X107711022Y-111969827D01*
X107439310Y-112624183D01*
X107438691Y-113332709D01*
X104913905Y-113332709D01*
X104640671Y-113150140D01*
X104164383Y-113055400D01*
X104115617Y-113055400D01*
X103639329Y-113150140D01*
X103235552Y-113419935D01*
X103098600Y-113624898D01*
X103098600Y-113310090D01*
X103001927Y-113076701D01*
X102823298Y-112898073D01*
X102589909Y-112801400D01*
X101885750Y-112801400D01*
X101727000Y-112960150D01*
X101727000Y-114173000D01*
X101747000Y-114173000D01*
X101747000Y-114427000D01*
X101727000Y-114427000D01*
X101727000Y-114447000D01*
X101473000Y-114447000D01*
X101473000Y-114427000D01*
X100260150Y-114427000D01*
X100101400Y-114585750D01*
X99516000Y-114585750D01*
X99516000Y-113310090D01*
X100101400Y-113310090D01*
X100101400Y-114014250D01*
X100260150Y-114173000D01*
X101473000Y-114173000D01*
X101473000Y-112960150D01*
X101314250Y-112801400D01*
X100610091Y-112801400D01*
X100376702Y-112898073D01*
X100198073Y-113076701D01*
X100101400Y-113310090D01*
X99516000Y-113310090D01*
X99516000Y-109220000D01*
X99784108Y-109220000D01*
X99866394Y-109633681D01*
X100100726Y-109984382D01*
X100451427Y-110218714D01*
X100865108Y-110301000D01*
X102334892Y-110301000D01*
X102339120Y-110300159D01*
X108319446Y-110300159D01*
X108405852Y-110556643D01*
X108979336Y-110766458D01*
X109589460Y-110740839D01*
X110034148Y-110556643D01*
X110120554Y-110300159D01*
X109220000Y-109399605D01*
X108319446Y-110300159D01*
X102339120Y-110300159D01*
X102748573Y-110218714D01*
X103099274Y-109984382D01*
X103333606Y-109633681D01*
X103415892Y-109220000D01*
X103368022Y-108979336D01*
X107673542Y-108979336D01*
X107699161Y-109589460D01*
X107883357Y-110034148D01*
X108139841Y-110120554D01*
X109040395Y-109220000D01*
X109399605Y-109220000D01*
X110300159Y-110120554D01*
X110556643Y-110034148D01*
X110628830Y-109836841D01*
X110673388Y-109944680D01*
X111033425Y-110305345D01*
X111504076Y-110500777D01*
X112013689Y-110501222D01*
X112484680Y-110306612D01*
X112845345Y-109946575D01*
X113030213Y-109501364D01*
X113213388Y-109944680D01*
X113573425Y-110305345D01*
X114044076Y-110500777D01*
X114553689Y-110501222D01*
X115024680Y-110306612D01*
X115385345Y-109946575D01*
X115570213Y-109501364D01*
X115753388Y-109944680D01*
X116113425Y-110305345D01*
X116584076Y-110500777D01*
X117093689Y-110501222D01*
X117564680Y-110306612D01*
X117925345Y-109946575D01*
X118120777Y-109475924D01*
X118121222Y-108966311D01*
X117926612Y-108495320D01*
X117566575Y-108134655D01*
X117095924Y-107939223D01*
X116586311Y-107938778D01*
X116115320Y-108133388D01*
X115754655Y-108493425D01*
X115569787Y-108938636D01*
X115386612Y-108495320D01*
X115026575Y-108134655D01*
X114555924Y-107939223D01*
X114046311Y-107938778D01*
X113575320Y-108133388D01*
X113214655Y-108493425D01*
X113029787Y-108938636D01*
X112846612Y-108495320D01*
X112486575Y-108134655D01*
X112015924Y-107939223D01*
X111506311Y-107938778D01*
X111035320Y-108133388D01*
X110674655Y-108493425D01*
X110633736Y-108591970D01*
X110556643Y-108405852D01*
X110300159Y-108319446D01*
X109399605Y-109220000D01*
X109040395Y-109220000D01*
X108139841Y-108319446D01*
X107883357Y-108405852D01*
X107673542Y-108979336D01*
X103368022Y-108979336D01*
X103333606Y-108806319D01*
X103099274Y-108455618D01*
X102748573Y-108221286D01*
X102339121Y-108139841D01*
X108319446Y-108139841D01*
X109220000Y-109040395D01*
X110120554Y-108139841D01*
X110034148Y-107883357D01*
X109460664Y-107673542D01*
X108850540Y-107699161D01*
X108405852Y-107883357D01*
X108319446Y-108139841D01*
X102339121Y-108139841D01*
X102334892Y-108139000D01*
X100865108Y-108139000D01*
X100451427Y-108221286D01*
X100100726Y-108455618D01*
X99866394Y-108806319D01*
X99784108Y-109220000D01*
X99516000Y-109220000D01*
X99516000Y-106680000D01*
X99784108Y-106680000D01*
X99866394Y-107093681D01*
X100100726Y-107444382D01*
X100451427Y-107678714D01*
X100865108Y-107761000D01*
X102334892Y-107761000D01*
X102748573Y-107678714D01*
X103099274Y-107444382D01*
X103333606Y-107093681D01*
X103415892Y-106680000D01*
X115024108Y-106680000D01*
X115106394Y-107093681D01*
X115340726Y-107444382D01*
X115691427Y-107678714D01*
X116105108Y-107761000D01*
X117574892Y-107761000D01*
X117988573Y-107678714D01*
X118339274Y-107444382D01*
X118573606Y-107093681D01*
X118655892Y-106680000D01*
X118573606Y-106266319D01*
X118339274Y-105915618D01*
X117988573Y-105681286D01*
X117574892Y-105599000D01*
X116105108Y-105599000D01*
X115691427Y-105681286D01*
X115340726Y-105915618D01*
X115106394Y-106266319D01*
X115024108Y-106680000D01*
X103415892Y-106680000D01*
X103333606Y-106266319D01*
X103099274Y-105915618D01*
X102748573Y-105681286D01*
X102334892Y-105599000D01*
X100865108Y-105599000D01*
X100451427Y-105681286D01*
X100100726Y-105915618D01*
X99866394Y-106266319D01*
X99784108Y-106680000D01*
X99516000Y-106680000D01*
X99516000Y-104140000D01*
X99784108Y-104140000D01*
X99866394Y-104553681D01*
X100100726Y-104904382D01*
X100451427Y-105138714D01*
X100865108Y-105221000D01*
X102334892Y-105221000D01*
X102748573Y-105138714D01*
X103099274Y-104904382D01*
X103333606Y-104553681D01*
X103415892Y-104140000D01*
X115024108Y-104140000D01*
X115106394Y-104553681D01*
X115340726Y-104904382D01*
X115691427Y-105138714D01*
X116105108Y-105221000D01*
X117574892Y-105221000D01*
X117988573Y-105138714D01*
X118339274Y-104904382D01*
X118573606Y-104553681D01*
X118655892Y-104140000D01*
X118573606Y-103726319D01*
X118339274Y-103375618D01*
X117988573Y-103141286D01*
X117574892Y-103059000D01*
X116105108Y-103059000D01*
X115691427Y-103141286D01*
X115340726Y-103375618D01*
X115106394Y-103726319D01*
X115024108Y-104140000D01*
X103415892Y-104140000D01*
X103333606Y-103726319D01*
X103099274Y-103375618D01*
X102748573Y-103141286D01*
X102334892Y-103059000D01*
X100865108Y-103059000D01*
X100451427Y-103141286D01*
X100100726Y-103375618D01*
X99866394Y-103726319D01*
X99784108Y-104140000D01*
X99516000Y-104140000D01*
X99516000Y-101600000D01*
X99784108Y-101600000D01*
X99866394Y-102013681D01*
X100100726Y-102364382D01*
X100451427Y-102598714D01*
X100865108Y-102681000D01*
X102334892Y-102681000D01*
X102748573Y-102598714D01*
X103099274Y-102364382D01*
X103333606Y-102013681D01*
X103415892Y-101600000D01*
X115024108Y-101600000D01*
X115106394Y-102013681D01*
X115340726Y-102364382D01*
X115691427Y-102598714D01*
X116105108Y-102681000D01*
X117574892Y-102681000D01*
X117988573Y-102598714D01*
X118339274Y-102364382D01*
X118573606Y-102013681D01*
X118655892Y-101600000D01*
X118573606Y-101186319D01*
X118339274Y-100835618D01*
X117988573Y-100601286D01*
X117574892Y-100519000D01*
X116105108Y-100519000D01*
X115691427Y-100601286D01*
X115340726Y-100835618D01*
X115106394Y-101186319D01*
X115024108Y-101600000D01*
X103415892Y-101600000D01*
X103333606Y-101186319D01*
X103099274Y-100835618D01*
X102748573Y-100601286D01*
X102334892Y-100519000D01*
X100865108Y-100519000D01*
X100451427Y-100601286D01*
X100100726Y-100835618D01*
X99866394Y-101186319D01*
X99784108Y-101600000D01*
X99516000Y-101600000D01*
X99516000Y-99060000D01*
X99784108Y-99060000D01*
X99866394Y-99473681D01*
X100100726Y-99824382D01*
X100451427Y-100058714D01*
X100865108Y-100141000D01*
X102334892Y-100141000D01*
X102748573Y-100058714D01*
X103099274Y-99824382D01*
X103333606Y-99473681D01*
X103415892Y-99060000D01*
X115024108Y-99060000D01*
X115106394Y-99473681D01*
X115340726Y-99824382D01*
X115691427Y-100058714D01*
X116105108Y-100141000D01*
X117574892Y-100141000D01*
X117988573Y-100058714D01*
X118339274Y-99824382D01*
X118573606Y-99473681D01*
X118655892Y-99060000D01*
X118573606Y-98646319D01*
X118339274Y-98295618D01*
X117988573Y-98061286D01*
X117574892Y-97979000D01*
X116105108Y-97979000D01*
X115691427Y-98061286D01*
X115340726Y-98295618D01*
X115106394Y-98646319D01*
X115024108Y-99060000D01*
X103415892Y-99060000D01*
X103333606Y-98646319D01*
X103099274Y-98295618D01*
X102748573Y-98061286D01*
X102334892Y-97979000D01*
X100865108Y-97979000D01*
X100451427Y-98061286D01*
X100100726Y-98295618D01*
X99866394Y-98646319D01*
X99784108Y-99060000D01*
X99516000Y-99060000D01*
X99516000Y-96520000D01*
X99784108Y-96520000D01*
X99866394Y-96933681D01*
X100100726Y-97284382D01*
X100451427Y-97518714D01*
X100865108Y-97601000D01*
X102334892Y-97601000D01*
X102748573Y-97518714D01*
X103099274Y-97284382D01*
X103333606Y-96933681D01*
X103415892Y-96520000D01*
X115024108Y-96520000D01*
X115106394Y-96933681D01*
X115340726Y-97284382D01*
X115691427Y-97518714D01*
X116105108Y-97601000D01*
X117574892Y-97601000D01*
X117988573Y-97518714D01*
X118339274Y-97284382D01*
X118573606Y-96933681D01*
X118655892Y-96520000D01*
X118573606Y-96106319D01*
X118339274Y-95755618D01*
X117988573Y-95521286D01*
X117574892Y-95439000D01*
X116105108Y-95439000D01*
X115691427Y-95521286D01*
X115340726Y-95755618D01*
X115106394Y-96106319D01*
X115024108Y-96520000D01*
X103415892Y-96520000D01*
X103333606Y-96106319D01*
X103099274Y-95755618D01*
X102748573Y-95521286D01*
X102334892Y-95439000D01*
X100865108Y-95439000D01*
X100451427Y-95521286D01*
X100100726Y-95755618D01*
X99866394Y-96106319D01*
X99784108Y-96520000D01*
X99516000Y-96520000D01*
X99516000Y-93980000D01*
X99784108Y-93980000D01*
X99866394Y-94393681D01*
X100100726Y-94744382D01*
X100451427Y-94978714D01*
X100865108Y-95061000D01*
X102334892Y-95061000D01*
X102748573Y-94978714D01*
X103099274Y-94744382D01*
X103333606Y-94393681D01*
X103415892Y-93980000D01*
X103333606Y-93566319D01*
X103099274Y-93215618D01*
X102748573Y-92981286D01*
X102334892Y-92899000D01*
X100865108Y-92899000D01*
X100451427Y-92981286D01*
X100100726Y-93215618D01*
X99866394Y-93566319D01*
X99784108Y-93980000D01*
X99516000Y-93980000D01*
X99516000Y-91440000D01*
X99784108Y-91440000D01*
X99866394Y-91853681D01*
X100100726Y-92204382D01*
X100451427Y-92438714D01*
X100865108Y-92521000D01*
X102334892Y-92521000D01*
X102748573Y-92438714D01*
X103099274Y-92204382D01*
X103333606Y-91853681D01*
X103415892Y-91440000D01*
X103333606Y-91026319D01*
X103099274Y-90675618D01*
X102748573Y-90441286D01*
X102660107Y-90423689D01*
X113018778Y-90423689D01*
X113213388Y-90894680D01*
X113573425Y-91255345D01*
X114018636Y-91440213D01*
X113575320Y-91623388D01*
X113214655Y-91983425D01*
X113019223Y-92454076D01*
X113018778Y-92963689D01*
X113213388Y-93434680D01*
X113573425Y-93795345D01*
X114044076Y-93990777D01*
X114553689Y-93991222D01*
X115024680Y-93796612D01*
X115069482Y-93751888D01*
X115024108Y-93980000D01*
X115106394Y-94393681D01*
X115340726Y-94744382D01*
X115691427Y-94978714D01*
X116105108Y-95061000D01*
X117574892Y-95061000D01*
X117988573Y-94978714D01*
X118339274Y-94744382D01*
X118573606Y-94393681D01*
X118655892Y-93980000D01*
X118573606Y-93566319D01*
X118356234Y-93241000D01*
X119160052Y-93241000D01*
X122659000Y-96739947D01*
X122659000Y-105410000D01*
X122699420Y-105613205D01*
X122814526Y-105785474D01*
X124084526Y-107055474D01*
X124256795Y-107170580D01*
X124460000Y-107211000D01*
X125706928Y-107211000D01*
X125940166Y-107560065D01*
X126343943Y-107829860D01*
X126820231Y-107924600D01*
X127179769Y-107924600D01*
X127656057Y-107829860D01*
X128059834Y-107560065D01*
X128329629Y-107156288D01*
X128424369Y-106680000D01*
X128329629Y-106203712D01*
X128059834Y-105799935D01*
X127656057Y-105530140D01*
X127179769Y-105435400D01*
X126820231Y-105435400D01*
X126343943Y-105530140D01*
X125940166Y-105799935D01*
X125706928Y-106149000D01*
X124679948Y-106149000D01*
X123721000Y-105190052D01*
X123721000Y-103643948D01*
X124592526Y-104515474D01*
X124764795Y-104630580D01*
X124968000Y-104671000D01*
X125706928Y-104671000D01*
X125940166Y-105020065D01*
X126343943Y-105289860D01*
X126820231Y-105384600D01*
X127179769Y-105384600D01*
X127656057Y-105289860D01*
X128059834Y-105020065D01*
X128329629Y-104616288D01*
X128424369Y-104140000D01*
X128329629Y-103663712D01*
X128059834Y-103259935D01*
X127656057Y-102990140D01*
X127641757Y-102987296D01*
X127914320Y-102891954D01*
X128350732Y-102502036D01*
X128604709Y-101974791D01*
X128607358Y-101959026D01*
X128486217Y-101727000D01*
X127127000Y-101727000D01*
X127127000Y-101747000D01*
X126873000Y-101747000D01*
X126873000Y-101727000D01*
X125513783Y-101727000D01*
X125392642Y-101959026D01*
X125395291Y-101974791D01*
X125649268Y-102502036D01*
X126085680Y-102891954D01*
X126358243Y-102987296D01*
X126343943Y-102990140D01*
X125940166Y-103259935D01*
X125706928Y-103609000D01*
X125187948Y-103609000D01*
X124229000Y-102650052D01*
X124229000Y-101240974D01*
X125392642Y-101240974D01*
X125513783Y-101473000D01*
X126873000Y-101473000D01*
X126873000Y-101453000D01*
X127127000Y-101453000D01*
X127127000Y-101473000D01*
X128486217Y-101473000D01*
X128607358Y-101240974D01*
X128604709Y-101225209D01*
X128350732Y-100697964D01*
X127918817Y-100312064D01*
X128016000Y-100312064D01*
X128157190Y-100285497D01*
X128286865Y-100202054D01*
X128373859Y-100074734D01*
X128404464Y-99923600D01*
X128404464Y-98196400D01*
X128377897Y-98055210D01*
X128294454Y-97925535D01*
X128167134Y-97838541D01*
X128016000Y-97807936D01*
X125984000Y-97807936D01*
X125842810Y-97834503D01*
X125713135Y-97917946D01*
X125626141Y-98045266D01*
X125595536Y-98196400D01*
X125595536Y-99923600D01*
X125622103Y-100064790D01*
X125705546Y-100194465D01*
X125832866Y-100281459D01*
X125984000Y-100312064D01*
X126081183Y-100312064D01*
X125649268Y-100697964D01*
X125395291Y-101225209D01*
X125392642Y-101240974D01*
X124229000Y-101240974D01*
X124229000Y-94488000D01*
X124188580Y-94284795D01*
X124073474Y-94112526D01*
X120130948Y-90170000D01*
X122803474Y-87497474D01*
X122918580Y-87325205D01*
X122959000Y-87122000D01*
X122959000Y-84179026D01*
X125392642Y-84179026D01*
X125395291Y-84194791D01*
X125649268Y-84722036D01*
X126081183Y-85107936D01*
X125984000Y-85107936D01*
X125842810Y-85134503D01*
X125713135Y-85217946D01*
X125626141Y-85345266D01*
X125595536Y-85496400D01*
X125595536Y-87223600D01*
X125622103Y-87364790D01*
X125705546Y-87494465D01*
X125832866Y-87581459D01*
X125984000Y-87612064D01*
X128016000Y-87612064D01*
X128157190Y-87585497D01*
X128286865Y-87502054D01*
X128373859Y-87374734D01*
X128404464Y-87223600D01*
X128404464Y-85496400D01*
X128377897Y-85355210D01*
X128294454Y-85225535D01*
X128167134Y-85138541D01*
X128016000Y-85107936D01*
X127918817Y-85107936D01*
X128350732Y-84722036D01*
X128604709Y-84194791D01*
X128607358Y-84179026D01*
X128486217Y-83947000D01*
X127127000Y-83947000D01*
X127127000Y-83967000D01*
X126873000Y-83967000D01*
X126873000Y-83947000D01*
X125513783Y-83947000D01*
X125392642Y-84179026D01*
X122959000Y-84179026D01*
X122959000Y-84039948D01*
X125187947Y-81811000D01*
X125706928Y-81811000D01*
X125940166Y-82160065D01*
X126343943Y-82429860D01*
X126358243Y-82432704D01*
X126085680Y-82528046D01*
X125649268Y-82917964D01*
X125395291Y-83445209D01*
X125392642Y-83460974D01*
X125513783Y-83693000D01*
X126873000Y-83693000D01*
X126873000Y-83673000D01*
X127127000Y-83673000D01*
X127127000Y-83693000D01*
X128486217Y-83693000D01*
X128607358Y-83460974D01*
X128604709Y-83445209D01*
X128350732Y-82917964D01*
X127914320Y-82528046D01*
X127641757Y-82432704D01*
X127656057Y-82429860D01*
X128059834Y-82160065D01*
X128329629Y-81756288D01*
X128424369Y-81280000D01*
X128329629Y-80803712D01*
X128059834Y-80399935D01*
X127656057Y-80130140D01*
X127179769Y-80035400D01*
X126820231Y-80035400D01*
X126343943Y-80130140D01*
X125940166Y-80399935D01*
X125706928Y-80749000D01*
X124968000Y-80749000D01*
X124764795Y-80789420D01*
X124592526Y-80904526D01*
X124592524Y-80904529D01*
X122052526Y-83444526D01*
X121937420Y-83616795D01*
X121897000Y-83820000D01*
X121897000Y-86902052D01*
X119160052Y-89639000D01*
X118356234Y-89639000D01*
X118573606Y-89313681D01*
X118655892Y-88900000D01*
X118573606Y-88486319D01*
X118339274Y-88135618D01*
X117988573Y-87901286D01*
X117574892Y-87819000D01*
X116105108Y-87819000D01*
X115691427Y-87901286D01*
X115340726Y-88135618D01*
X115106394Y-88486319D01*
X115024108Y-88900000D01*
X115069364Y-89127519D01*
X115026575Y-89084655D01*
X114555924Y-88889223D01*
X114046311Y-88888778D01*
X113575320Y-89083388D01*
X113214655Y-89443425D01*
X113019223Y-89914076D01*
X113018778Y-90423689D01*
X102660107Y-90423689D01*
X102334892Y-90359000D01*
X100865108Y-90359000D01*
X100451427Y-90441286D01*
X100100726Y-90675618D01*
X99866394Y-91026319D01*
X99784108Y-91440000D01*
X99516000Y-91440000D01*
X99516000Y-89233329D01*
X99607284Y-89233329D01*
X99618020Y-89293550D01*
X99866210Y-89754185D01*
X100271785Y-90084778D01*
X100773000Y-90235000D01*
X101473000Y-90235000D01*
X101473000Y-89027000D01*
X101727000Y-89027000D01*
X101727000Y-90235000D01*
X102427000Y-90235000D01*
X102928215Y-90084778D01*
X103333790Y-89754185D01*
X103581980Y-89293550D01*
X103592716Y-89233329D01*
X103469374Y-89027000D01*
X101727000Y-89027000D01*
X101473000Y-89027000D01*
X99730626Y-89027000D01*
X99607284Y-89233329D01*
X99516000Y-89233329D01*
X99516000Y-88566671D01*
X99607284Y-88566671D01*
X99730626Y-88773000D01*
X101473000Y-88773000D01*
X101473000Y-87565000D01*
X101727000Y-87565000D01*
X101727000Y-88773000D01*
X103469374Y-88773000D01*
X103592716Y-88566671D01*
X103581980Y-88506450D01*
X103333790Y-88045815D01*
X102928215Y-87715222D01*
X102427000Y-87565000D01*
X101727000Y-87565000D01*
X101473000Y-87565000D01*
X100773000Y-87565000D01*
X100271785Y-87715222D01*
X99866210Y-88045815D01*
X99618020Y-88506450D01*
X99607284Y-88566671D01*
X99516000Y-88566671D01*
X99516000Y-86360000D01*
X99784108Y-86360000D01*
X99866394Y-86773681D01*
X100100726Y-87124382D01*
X100451427Y-87358714D01*
X100865108Y-87441000D01*
X102334892Y-87441000D01*
X102748573Y-87358714D01*
X103099274Y-87124382D01*
X103333606Y-86773681D01*
X103415892Y-86360000D01*
X115024108Y-86360000D01*
X115106394Y-86773681D01*
X115340726Y-87124382D01*
X115691427Y-87358714D01*
X116105108Y-87441000D01*
X117574892Y-87441000D01*
X117988573Y-87358714D01*
X118339274Y-87124382D01*
X118573606Y-86773681D01*
X118655892Y-86360000D01*
X118573606Y-85946319D01*
X118339274Y-85595618D01*
X117988573Y-85361286D01*
X117574892Y-85279000D01*
X116105108Y-85279000D01*
X115691427Y-85361286D01*
X115340726Y-85595618D01*
X115106394Y-85946319D01*
X115024108Y-86360000D01*
X103415892Y-86360000D01*
X103333606Y-85946319D01*
X103099274Y-85595618D01*
X102748573Y-85361286D01*
X102334892Y-85279000D01*
X100865108Y-85279000D01*
X100451427Y-85361286D01*
X100100726Y-85595618D01*
X99866394Y-85946319D01*
X99784108Y-86360000D01*
X99516000Y-86360000D01*
X99516000Y-83820000D01*
X99784108Y-83820000D01*
X99866394Y-84233681D01*
X100100726Y-84584382D01*
X100451427Y-84818714D01*
X100865108Y-84901000D01*
X102334892Y-84901000D01*
X102748573Y-84818714D01*
X103099274Y-84584382D01*
X103333606Y-84233681D01*
X103349588Y-84153329D01*
X114847284Y-84153329D01*
X114858020Y-84213550D01*
X115106210Y-84674185D01*
X115511785Y-85004778D01*
X116013000Y-85155000D01*
X116713000Y-85155000D01*
X116713000Y-83947000D01*
X116967000Y-83947000D01*
X116967000Y-85155000D01*
X117667000Y-85155000D01*
X118168215Y-85004778D01*
X118573790Y-84674185D01*
X118821980Y-84213550D01*
X118832716Y-84153329D01*
X118709374Y-83947000D01*
X116967000Y-83947000D01*
X116713000Y-83947000D01*
X114970626Y-83947000D01*
X114847284Y-84153329D01*
X103349588Y-84153329D01*
X103415892Y-83820000D01*
X103349589Y-83486671D01*
X114847284Y-83486671D01*
X114970626Y-83693000D01*
X116713000Y-83693000D01*
X116713000Y-82485000D01*
X116967000Y-82485000D01*
X116967000Y-83693000D01*
X118709374Y-83693000D01*
X118832716Y-83486671D01*
X118821980Y-83426450D01*
X118573790Y-82965815D01*
X118168215Y-82635222D01*
X117667000Y-82485000D01*
X116967000Y-82485000D01*
X116713000Y-82485000D01*
X116013000Y-82485000D01*
X115511785Y-82635222D01*
X115106210Y-82965815D01*
X114858020Y-83426450D01*
X114847284Y-83486671D01*
X103349589Y-83486671D01*
X103333606Y-83406319D01*
X103099274Y-83055618D01*
X102748573Y-82821286D01*
X102334892Y-82739000D01*
X100865108Y-82739000D01*
X100451427Y-82821286D01*
X100100726Y-83055618D01*
X99866394Y-83406319D01*
X99784108Y-83820000D01*
X99516000Y-83820000D01*
X99516000Y-81280000D01*
X99784108Y-81280000D01*
X99866394Y-81693681D01*
X100100726Y-82044382D01*
X100451427Y-82278714D01*
X100865108Y-82361000D01*
X102334892Y-82361000D01*
X102748573Y-82278714D01*
X103099274Y-82044382D01*
X103333606Y-81693681D01*
X103415892Y-81280000D01*
X115024108Y-81280000D01*
X115106394Y-81693681D01*
X115340726Y-82044382D01*
X115691427Y-82278714D01*
X116105108Y-82361000D01*
X117574892Y-82361000D01*
X117988573Y-82278714D01*
X118339274Y-82044382D01*
X118573606Y-81693681D01*
X118655892Y-81280000D01*
X118573606Y-80866319D01*
X118339274Y-80515618D01*
X117988573Y-80281286D01*
X117574892Y-80199000D01*
X116105108Y-80199000D01*
X115691427Y-80281286D01*
X115340726Y-80515618D01*
X115106394Y-80866319D01*
X115024108Y-81280000D01*
X103415892Y-81280000D01*
X103333606Y-80866319D01*
X103099274Y-80515618D01*
X102748573Y-80281286D01*
X102334892Y-80199000D01*
X100865108Y-80199000D01*
X100451427Y-80281286D01*
X100100726Y-80515618D01*
X99866394Y-80866319D01*
X99784108Y-81280000D01*
X99516000Y-81280000D01*
X99516000Y-78740000D01*
X125575631Y-78740000D01*
X125670371Y-79216288D01*
X125940166Y-79620065D01*
X126343943Y-79889860D01*
X126820231Y-79984600D01*
X127179769Y-79984600D01*
X127656057Y-79889860D01*
X128059834Y-79620065D01*
X128329629Y-79216288D01*
X128424369Y-78740000D01*
X128329629Y-78263712D01*
X128059834Y-77859935D01*
X127656057Y-77590140D01*
X127179769Y-77495400D01*
X126820231Y-77495400D01*
X126343943Y-77590140D01*
X125940166Y-77859935D01*
X125670371Y-78263712D01*
X125575631Y-78740000D01*
X99516000Y-78740000D01*
X99516000Y-76421724D01*
X107957882Y-76421724D01*
X108105455Y-76730106D01*
X108860031Y-77023405D01*
X109669409Y-77005614D01*
X110334545Y-76730106D01*
X110482118Y-76421724D01*
X109220000Y-75159605D01*
X107957882Y-76421724D01*
X99516000Y-76421724D01*
X99516000Y-74620031D01*
X107176595Y-74620031D01*
X107194386Y-75429409D01*
X107469894Y-76094545D01*
X107778276Y-76242118D01*
X109040395Y-74980000D01*
X109399605Y-74980000D01*
X110661724Y-76242118D01*
X110970106Y-76094545D01*
X111263405Y-75339969D01*
X111245614Y-74530591D01*
X110970106Y-73865455D01*
X110661724Y-73717882D01*
X109399605Y-74980000D01*
X109040395Y-74980000D01*
X107778276Y-73717882D01*
X107469894Y-73865455D01*
X107176595Y-74620031D01*
X99516000Y-74620031D01*
X99516000Y-73538276D01*
X107957882Y-73538276D01*
X109220000Y-74800395D01*
X110482118Y-73538276D01*
X110334545Y-73229894D01*
X109579969Y-72936595D01*
X108770591Y-72954386D01*
X108105455Y-73229894D01*
X107957882Y-73538276D01*
X99516000Y-73538276D01*
X99516000Y-72846000D01*
X129084000Y-72846000D01*
X129084000Y-126544000D01*
M02*
