%TF.GenerationSoftware,KiCad,Pcbnew,4.0.2-stable*%
%TF.CreationDate,2016-04-26T19:03:57-04:00*%
%TF.ProjectId,Programmer,50726F6772616D6D65722E6B69636164,rev?*%
%TF.FileFunction,Soldermask,Bot*%
%FSLAX46Y46*%
G04 Gerber Fmt 4.6, Leading zero omitted, Abs format (unit mm)*
G04 Created by KiCad (PCBNEW 4.0.2-stable) date 4/26/2016 7:03:57 PM*
%MOMM*%
G01*
G04 APERTURE LIST*
%ADD10C,0.127000*%
%ADD11O,5.180000X5.180000*%
%ADD12O,3.910000X3.910000*%
%ADD13R,1.827200X2.132000*%
%ADD14O,1.827200X2.132000*%
%ADD15R,2.132000X1.827200*%
%ADD16O,2.132000X1.827200*%
%ADD17R,1.827200X1.827200*%
%ADD18O,1.827200X1.827200*%
%ADD19C,1.601140*%
%ADD20O,1.878000X2.386000*%
G04 APERTURE END LIST*
D10*
D11*
X35560000Y-31600140D03*
D12*
X35560000Y-25600660D03*
X30861000Y-28600400D03*
D13*
X27940000Y-73660000D03*
D14*
X30480000Y-73660000D03*
X33020000Y-73660000D03*
X35560000Y-73660000D03*
X38100000Y-73660000D03*
X40640000Y-73660000D03*
D15*
X25400000Y-25400000D03*
D16*
X25400000Y-27940000D03*
X25400000Y-30480000D03*
X25400000Y-33020000D03*
X25400000Y-35560000D03*
X25400000Y-38100000D03*
X25400000Y-40640000D03*
X25400000Y-43180000D03*
X25400000Y-45720000D03*
X25400000Y-48260000D03*
X25400000Y-50800000D03*
X25400000Y-53340000D03*
X25400000Y-55880000D03*
X25400000Y-58420000D03*
X25400000Y-60960000D03*
X25400000Y-63500000D03*
D17*
X48260000Y-73660000D03*
D18*
X48260000Y-71120000D03*
X50800000Y-73660000D03*
X50800000Y-71120000D03*
X53340000Y-73660000D03*
X53340000Y-71120000D03*
D15*
X55880000Y-63500000D03*
D16*
X55880000Y-60960000D03*
X55880000Y-58420000D03*
X55880000Y-55880000D03*
X55880000Y-53340000D03*
X55880000Y-50800000D03*
X55880000Y-48260000D03*
X55880000Y-45720000D03*
X55880000Y-43180000D03*
X55880000Y-40640000D03*
X55880000Y-38100000D03*
X55880000Y-35560000D03*
X55880000Y-33020000D03*
X55880000Y-30480000D03*
X55880000Y-27940000D03*
X55880000Y-25400000D03*
D19*
X30480000Y-49629060D03*
X30480000Y-54510940D03*
D15*
X20320000Y-25400000D03*
D16*
X20320000Y-27940000D03*
X20320000Y-30480000D03*
X20320000Y-33020000D03*
X20320000Y-35560000D03*
X20320000Y-38100000D03*
X20320000Y-40640000D03*
X20320000Y-43180000D03*
X20320000Y-45720000D03*
X20320000Y-48260000D03*
X20320000Y-50800000D03*
X20320000Y-53340000D03*
X20320000Y-55880000D03*
X20320000Y-58420000D03*
X20320000Y-60960000D03*
X20320000Y-63500000D03*
D15*
X60960000Y-63500000D03*
D16*
X60960000Y-60960000D03*
X60960000Y-58420000D03*
X60960000Y-55880000D03*
X60960000Y-53340000D03*
X60960000Y-50800000D03*
X60960000Y-48260000D03*
X60960000Y-45720000D03*
X60960000Y-43180000D03*
X60960000Y-40640000D03*
X60960000Y-38100000D03*
X60960000Y-35560000D03*
X60960000Y-33020000D03*
X60960000Y-30480000D03*
X60960000Y-27940000D03*
X60960000Y-25400000D03*
D13*
X49530000Y-24892000D03*
D14*
X46990000Y-24892000D03*
X44450000Y-24892000D03*
D20*
X58610500Y-68770500D03*
X58610500Y-76009500D03*
X63309500Y-68770500D03*
X63309500Y-76009500D03*
M02*
