%TF.GenerationSoftware,KiCad,Pcbnew,4.0.2-stable*%
%TF.CreationDate,2016-04-26T19:03:57-04:00*%
%TF.ProjectId,Programmer,50726F6772616D6D65722E6B69636164,rev?*%
%TF.FileFunction,Soldermask,Top*%
%FSLAX46Y46*%
G04 Gerber Fmt 4.6, Leading zero omitted, Abs format (unit mm)*
G04 Created by KiCad (PCBNEW 4.0.2-stable) date 4/26/2016 7:03:57 PM*
%MOMM*%
G01*
G04 APERTURE LIST*
%ADD10C,0.127000*%
%ADD11R,1.700000X2.100000*%
%ADD12R,2.100000X1.700000*%
%ADD13O,5.180000X5.180000*%
%ADD14O,3.910000X3.910000*%
%ADD15R,1.900860X1.697660*%
%ADD16R,1.827200X2.132000*%
%ADD17O,1.827200X2.132000*%
%ADD18R,2.132000X1.827200*%
%ADD19O,2.132000X1.827200*%
%ADD20R,1.827200X1.827200*%
%ADD21O,1.827200X1.827200*%
%ADD22R,1.800000X2.100000*%
%ADD23R,3.757600X2.132000*%
%ADD24R,1.116000X2.132000*%
%ADD25C,1.601140*%
%ADD26R,3.099740X1.601140*%
%ADD27O,1.878000X2.386000*%
G04 APERTURE END LIST*
D10*
D11*
X35560000Y-38640000D03*
X35560000Y-42640000D03*
D12*
X34830000Y-49530000D03*
X38830000Y-49530000D03*
X34830000Y-54610000D03*
X38830000Y-54610000D03*
D13*
X35560000Y-31600140D03*
D14*
X35560000Y-25600660D03*
X30861000Y-28600400D03*
D15*
X38100000Y-67160140D03*
X38100000Y-69999860D03*
X43180000Y-67160140D03*
X43180000Y-69999860D03*
D16*
X27940000Y-73660000D03*
D17*
X30480000Y-73660000D03*
X33020000Y-73660000D03*
X35560000Y-73660000D03*
X38100000Y-73660000D03*
X40640000Y-73660000D03*
D18*
X25400000Y-25400000D03*
D19*
X25400000Y-27940000D03*
X25400000Y-30480000D03*
X25400000Y-33020000D03*
X25400000Y-35560000D03*
X25400000Y-38100000D03*
X25400000Y-40640000D03*
X25400000Y-43180000D03*
X25400000Y-45720000D03*
X25400000Y-48260000D03*
X25400000Y-50800000D03*
X25400000Y-53340000D03*
X25400000Y-55880000D03*
X25400000Y-58420000D03*
X25400000Y-60960000D03*
X25400000Y-63500000D03*
D20*
X48260000Y-73660000D03*
D21*
X48260000Y-71120000D03*
X50800000Y-73660000D03*
X50800000Y-71120000D03*
X53340000Y-73660000D03*
X53340000Y-71120000D03*
D18*
X55880000Y-63500000D03*
D19*
X55880000Y-60960000D03*
X55880000Y-58420000D03*
X55880000Y-55880000D03*
X55880000Y-53340000D03*
X55880000Y-50800000D03*
X55880000Y-48260000D03*
X55880000Y-45720000D03*
X55880000Y-43180000D03*
X55880000Y-40640000D03*
X55880000Y-38100000D03*
X55880000Y-35560000D03*
X55880000Y-33020000D03*
X55880000Y-30480000D03*
X55880000Y-27940000D03*
X55880000Y-25400000D03*
D22*
X30480000Y-42640000D03*
X30480000Y-38640000D03*
X38100000Y-60230000D03*
X38100000Y-64230000D03*
X43180000Y-60230000D03*
X43180000Y-64230000D03*
D23*
X46990000Y-41402000D03*
D24*
X46990000Y-34798000D03*
X44704000Y-34798000D03*
X49276000Y-34798000D03*
D25*
X30480000Y-49629060D03*
X30480000Y-54510940D03*
D18*
X20320000Y-25400000D03*
D19*
X20320000Y-27940000D03*
X20320000Y-30480000D03*
X20320000Y-33020000D03*
X20320000Y-35560000D03*
X20320000Y-38100000D03*
X20320000Y-40640000D03*
X20320000Y-43180000D03*
X20320000Y-45720000D03*
X20320000Y-48260000D03*
X20320000Y-50800000D03*
X20320000Y-53340000D03*
X20320000Y-55880000D03*
X20320000Y-58420000D03*
X20320000Y-60960000D03*
X20320000Y-63500000D03*
D18*
X60960000Y-63500000D03*
D19*
X60960000Y-60960000D03*
X60960000Y-58420000D03*
X60960000Y-55880000D03*
X60960000Y-53340000D03*
X60960000Y-50800000D03*
X60960000Y-48260000D03*
X60960000Y-45720000D03*
X60960000Y-43180000D03*
X60960000Y-40640000D03*
X60960000Y-38100000D03*
X60960000Y-35560000D03*
X60960000Y-33020000D03*
X60960000Y-30480000D03*
X60960000Y-27940000D03*
X60960000Y-25400000D03*
D26*
X49115980Y-28575000D03*
X45118020Y-28575000D03*
D12*
X45117000Y-31750000D03*
X49117000Y-31750000D03*
D11*
X22860000Y-48990000D03*
X22860000Y-44990000D03*
X27940000Y-42640000D03*
X27940000Y-38640000D03*
X53086000Y-47974000D03*
X53086000Y-43974000D03*
D16*
X49530000Y-24892000D03*
D17*
X46990000Y-24892000D03*
X44450000Y-24892000D03*
D27*
X58610500Y-68770500D03*
X58610500Y-76009500D03*
X63309500Y-68770500D03*
X63309500Y-76009500D03*
M02*
