%TF.GenerationSoftware,KiCad,Pcbnew,4.0.2-stable*%
%TF.CreationDate,2016-04-26T19:03:57-04:00*%
%TF.ProjectId,Programmer,50726F6772616D6D65722E6B69636164,rev?*%
%TF.FileFunction,Copper,L2,Bot,Signal*%
%FSLAX46Y46*%
G04 Gerber Fmt 4.6, Leading zero omitted, Abs format (unit mm)*
G04 Created by KiCad (PCBNEW 4.0.2-stable) date 4/26/2016 7:03:57 PM*
%MOMM*%
G01*
G04 APERTURE LIST*
%ADD10C,0.127000*%
%ADD11O,5.080000X5.080000*%
%ADD12O,3.810000X3.810000*%
%ADD13R,1.727200X2.032000*%
%ADD14O,1.727200X2.032000*%
%ADD15R,2.032000X1.727200*%
%ADD16O,2.032000X1.727200*%
%ADD17R,1.727200X1.727200*%
%ADD18O,1.727200X1.727200*%
%ADD19C,1.501140*%
%ADD20O,1.778000X2.286000*%
%ADD21C,0.685800*%
%ADD22C,0.500000*%
%ADD23C,0.254000*%
G04 APERTURE END LIST*
D10*
D11*
X35560000Y-31600140D03*
D12*
X35560000Y-25600660D03*
X30861000Y-28600400D03*
D13*
X27940000Y-73660000D03*
D14*
X30480000Y-73660000D03*
X33020000Y-73660000D03*
X35560000Y-73660000D03*
X38100000Y-73660000D03*
X40640000Y-73660000D03*
D15*
X25400000Y-25400000D03*
D16*
X25400000Y-27940000D03*
X25400000Y-30480000D03*
X25400000Y-33020000D03*
X25400000Y-35560000D03*
X25400000Y-38100000D03*
X25400000Y-40640000D03*
X25400000Y-43180000D03*
X25400000Y-45720000D03*
X25400000Y-48260000D03*
X25400000Y-50800000D03*
X25400000Y-53340000D03*
X25400000Y-55880000D03*
X25400000Y-58420000D03*
X25400000Y-60960000D03*
X25400000Y-63500000D03*
D17*
X48260000Y-73660000D03*
D18*
X48260000Y-71120000D03*
X50800000Y-73660000D03*
X50800000Y-71120000D03*
X53340000Y-73660000D03*
X53340000Y-71120000D03*
D15*
X55880000Y-63500000D03*
D16*
X55880000Y-60960000D03*
X55880000Y-58420000D03*
X55880000Y-55880000D03*
X55880000Y-53340000D03*
X55880000Y-50800000D03*
X55880000Y-48260000D03*
X55880000Y-45720000D03*
X55880000Y-43180000D03*
X55880000Y-40640000D03*
X55880000Y-38100000D03*
X55880000Y-35560000D03*
X55880000Y-33020000D03*
X55880000Y-30480000D03*
X55880000Y-27940000D03*
X55880000Y-25400000D03*
D19*
X30480000Y-49629060D03*
X30480000Y-54510940D03*
D15*
X20320000Y-25400000D03*
D16*
X20320000Y-27940000D03*
X20320000Y-30480000D03*
X20320000Y-33020000D03*
X20320000Y-35560000D03*
X20320000Y-38100000D03*
X20320000Y-40640000D03*
X20320000Y-43180000D03*
X20320000Y-45720000D03*
X20320000Y-48260000D03*
X20320000Y-50800000D03*
X20320000Y-53340000D03*
X20320000Y-55880000D03*
X20320000Y-58420000D03*
X20320000Y-60960000D03*
X20320000Y-63500000D03*
D15*
X60960000Y-63500000D03*
D16*
X60960000Y-60960000D03*
X60960000Y-58420000D03*
X60960000Y-55880000D03*
X60960000Y-53340000D03*
X60960000Y-50800000D03*
X60960000Y-48260000D03*
X60960000Y-45720000D03*
X60960000Y-43180000D03*
X60960000Y-40640000D03*
X60960000Y-38100000D03*
X60960000Y-35560000D03*
X60960000Y-33020000D03*
X60960000Y-30480000D03*
X60960000Y-27940000D03*
X60960000Y-25400000D03*
D13*
X49530000Y-24892000D03*
D14*
X46990000Y-24892000D03*
X44450000Y-24892000D03*
D20*
X58610500Y-68770500D03*
X58610500Y-76009500D03*
X63309500Y-68770500D03*
X63309500Y-76009500D03*
D21*
X41275000Y-41910000D03*
X40640000Y-43180000D03*
X51308000Y-34798000D03*
X40640000Y-68580000D03*
X41275000Y-54610000D03*
X41275000Y-49530000D03*
X24130000Y-74930000D03*
X46990000Y-62230000D03*
D22*
X53340000Y-73660000D02*
X55245000Y-71755000D01*
X46990000Y-47625000D02*
X41275000Y-41910000D01*
X46990000Y-59690000D02*
X46990000Y-47625000D01*
X55245000Y-67945000D02*
X46990000Y-59690000D01*
X55245000Y-71755000D02*
X55245000Y-67945000D01*
X40640000Y-73660000D02*
X40640000Y-72390000D01*
X43180000Y-45720000D02*
X40640000Y-43180000D01*
X43180000Y-69850000D02*
X43180000Y-45720000D01*
X40640000Y-72390000D02*
X43180000Y-69850000D01*
X35560000Y-73660000D02*
X35560000Y-38100000D01*
X35560000Y-38100000D02*
X25400000Y-27940000D01*
X38100000Y-73660000D02*
X38100000Y-74295000D01*
X38100000Y-74295000D02*
X36195000Y-76200000D01*
X25400000Y-76200000D02*
X24130000Y-74930000D01*
X36195000Y-76200000D02*
X25400000Y-76200000D01*
D23*
X50800000Y-73660000D02*
X49530000Y-72390000D01*
D22*
X46990000Y-67310000D02*
X46990000Y-62230000D01*
X49530000Y-69850000D02*
X46990000Y-67310000D01*
D23*
X49530000Y-72390000D02*
X49530000Y-69850000D01*
G36*
X64325500Y-67765178D02*
X64207526Y-67588617D01*
X63795508Y-67313316D01*
X63309500Y-67216643D01*
X62823492Y-67313316D01*
X62411474Y-67588617D01*
X62136173Y-68000635D01*
X62039500Y-68486643D01*
X62039500Y-69054357D01*
X62136173Y-69540365D01*
X62411474Y-69952383D01*
X62823492Y-70227684D01*
X63309500Y-70324357D01*
X63795508Y-70227684D01*
X64207526Y-69952383D01*
X64325500Y-69775822D01*
X64325500Y-74623466D01*
X64297329Y-74588067D01*
X63775378Y-74298907D01*
X63672513Y-74275366D01*
X63436500Y-74396170D01*
X63436500Y-75882500D01*
X63456500Y-75882500D01*
X63456500Y-76136500D01*
X63436500Y-76136500D01*
X63436500Y-76156500D01*
X63182500Y-76156500D01*
X63182500Y-76136500D01*
X61785500Y-76136500D01*
X61785500Y-76390500D01*
X61950108Y-76964042D01*
X61999018Y-77025500D01*
X59619365Y-77025500D01*
X59783827Y-76779365D01*
X59880500Y-76293357D01*
X59880500Y-75725643D01*
X59861178Y-75628500D01*
X61785500Y-75628500D01*
X61785500Y-75882500D01*
X63182500Y-75882500D01*
X63182500Y-74396170D01*
X62946487Y-74275366D01*
X62843622Y-74298907D01*
X62321671Y-74588067D01*
X61950108Y-75054958D01*
X61785500Y-75628500D01*
X59861178Y-75628500D01*
X59783827Y-75239635D01*
X59508526Y-74827617D01*
X59096508Y-74552316D01*
X58610500Y-74455643D01*
X58124492Y-74552316D01*
X57712474Y-74827617D01*
X57437173Y-75239635D01*
X57340500Y-75725643D01*
X57340500Y-76293357D01*
X57437173Y-76779365D01*
X57601635Y-77025500D01*
X16954500Y-77025500D01*
X16954500Y-75073361D01*
X23405975Y-75073361D01*
X23515950Y-75339521D01*
X23719408Y-75543335D01*
X23944385Y-75636753D01*
X24953815Y-76646184D01*
X25158526Y-76782968D01*
X25198589Y-76790937D01*
X25400000Y-76831000D01*
X36195000Y-76831000D01*
X36436473Y-76782968D01*
X36641184Y-76646184D01*
X38228574Y-75058794D01*
X38576288Y-74989629D01*
X38980065Y-74719834D01*
X39249860Y-74316057D01*
X39344600Y-73839769D01*
X39344600Y-73480231D01*
X39395400Y-73480231D01*
X39395400Y-73839769D01*
X39490140Y-74316057D01*
X39759935Y-74719834D01*
X40163712Y-74989629D01*
X40640000Y-75084369D01*
X41116288Y-74989629D01*
X41520065Y-74719834D01*
X41789860Y-74316057D01*
X41884600Y-73839769D01*
X41884600Y-73480231D01*
X41789860Y-73003943D01*
X41520065Y-72600166D01*
X41401455Y-72520913D01*
X43626184Y-70296185D01*
X43762968Y-70091474D01*
X43770937Y-70051411D01*
X43811000Y-69850000D01*
X43811000Y-45720000D01*
X43762968Y-45478527D01*
X43762968Y-45478526D01*
X43626184Y-45273815D01*
X41346434Y-42994066D01*
X41261753Y-42789121D01*
X46359000Y-47886369D01*
X46359000Y-59690000D01*
X46407032Y-59931473D01*
X46543816Y-60136184D01*
X54614000Y-68206368D01*
X54614000Y-70374848D01*
X54546821Y-70231510D01*
X54114947Y-69837312D01*
X53699026Y-69665042D01*
X53467000Y-69786183D01*
X53467000Y-70993000D01*
X53487000Y-70993000D01*
X53487000Y-71247000D01*
X53467000Y-71247000D01*
X53467000Y-71267000D01*
X53213000Y-71267000D01*
X53213000Y-71247000D01*
X53193000Y-71247000D01*
X53193000Y-70993000D01*
X53213000Y-70993000D01*
X53213000Y-69786183D01*
X52980974Y-69665042D01*
X52565053Y-69837312D01*
X52133179Y-70231510D01*
X51950324Y-70621662D01*
X51949860Y-70619329D01*
X51680065Y-70215552D01*
X51276288Y-69945757D01*
X50800000Y-69851017D01*
X50323712Y-69945757D01*
X50114092Y-70085820D01*
X50160999Y-69850000D01*
X50112968Y-69608526D01*
X49976184Y-69403815D01*
X47621000Y-67048632D01*
X47621000Y-62598050D01*
X47713774Y-62374624D01*
X47714025Y-62086639D01*
X47604050Y-61820479D01*
X47400592Y-61616665D01*
X47134624Y-61506226D01*
X46846639Y-61505975D01*
X46580479Y-61615950D01*
X46376665Y-61819408D01*
X46266226Y-62085376D01*
X46265975Y-62373361D01*
X46359000Y-62598499D01*
X46359000Y-67310000D01*
X46396558Y-67498816D01*
X46407032Y-67551473D01*
X46543816Y-67756184D01*
X48732668Y-69945037D01*
X48260000Y-69851017D01*
X47783712Y-69945757D01*
X47379935Y-70215552D01*
X47110140Y-70619329D01*
X47015400Y-71095617D01*
X47015400Y-71144383D01*
X47110140Y-71620671D01*
X47379935Y-72024448D01*
X47783712Y-72294243D01*
X48260000Y-72388983D01*
X48736288Y-72294243D01*
X49022000Y-72103336D01*
X49022000Y-72390000D01*
X49025568Y-72407936D01*
X47396400Y-72407936D01*
X47255210Y-72434503D01*
X47125535Y-72517946D01*
X47038541Y-72645266D01*
X47007936Y-72796400D01*
X47007936Y-74523600D01*
X47034503Y-74664790D01*
X47117946Y-74794465D01*
X47245266Y-74881459D01*
X47396400Y-74912064D01*
X49123600Y-74912064D01*
X49264790Y-74885497D01*
X49394465Y-74802054D01*
X49481459Y-74674734D01*
X49512064Y-74523600D01*
X49512064Y-73090484D01*
X49638654Y-73217074D01*
X49555400Y-73635617D01*
X49555400Y-73684383D01*
X49650140Y-74160671D01*
X49919935Y-74564448D01*
X50323712Y-74834243D01*
X50800000Y-74928983D01*
X51276288Y-74834243D01*
X51680065Y-74564448D01*
X51949860Y-74160671D01*
X52044600Y-73684383D01*
X52044600Y-73635617D01*
X51949860Y-73159329D01*
X51680065Y-72755552D01*
X51276288Y-72485757D01*
X50800000Y-72391017D01*
X50340782Y-72482362D01*
X50038000Y-72179580D01*
X50038000Y-72103336D01*
X50323712Y-72294243D01*
X50800000Y-72388983D01*
X51276288Y-72294243D01*
X51680065Y-72024448D01*
X51949860Y-71620671D01*
X51950324Y-71618338D01*
X52133179Y-72008490D01*
X52565053Y-72402688D01*
X52826172Y-72510841D01*
X52459935Y-72755552D01*
X52190140Y-73159329D01*
X52095400Y-73635617D01*
X52095400Y-73684383D01*
X52190140Y-74160671D01*
X52459935Y-74564448D01*
X52863712Y-74834243D01*
X53340000Y-74928983D01*
X53816288Y-74834243D01*
X54220065Y-74564448D01*
X54489860Y-74160671D01*
X54584600Y-73684383D01*
X54584600Y-73635617D01*
X54530206Y-73362162D01*
X55691184Y-72201184D01*
X55827968Y-71996473D01*
X55876000Y-71755000D01*
X55876000Y-68486643D01*
X57340500Y-68486643D01*
X57340500Y-69054357D01*
X57437173Y-69540365D01*
X57712474Y-69952383D01*
X58124492Y-70227684D01*
X58610500Y-70324357D01*
X59096508Y-70227684D01*
X59508526Y-69952383D01*
X59783827Y-69540365D01*
X59880500Y-69054357D01*
X59880500Y-68486643D01*
X59783827Y-68000635D01*
X59508526Y-67588617D01*
X59096508Y-67313316D01*
X58610500Y-67216643D01*
X58124492Y-67313316D01*
X57712474Y-67588617D01*
X57437173Y-68000635D01*
X57340500Y-68486643D01*
X55876000Y-68486643D01*
X55876000Y-67945000D01*
X55827968Y-67703527D01*
X55691184Y-67498816D01*
X50828768Y-62636400D01*
X54475536Y-62636400D01*
X54475536Y-64363600D01*
X54502103Y-64504790D01*
X54585546Y-64634465D01*
X54712866Y-64721459D01*
X54864000Y-64752064D01*
X56896000Y-64752064D01*
X57037190Y-64725497D01*
X57166865Y-64642054D01*
X57253859Y-64514734D01*
X57284464Y-64363600D01*
X57284464Y-62636400D01*
X59555536Y-62636400D01*
X59555536Y-64363600D01*
X59582103Y-64504790D01*
X59665546Y-64634465D01*
X59792866Y-64721459D01*
X59944000Y-64752064D01*
X61976000Y-64752064D01*
X62117190Y-64725497D01*
X62246865Y-64642054D01*
X62333859Y-64514734D01*
X62364464Y-64363600D01*
X62364464Y-62636400D01*
X62337897Y-62495210D01*
X62254454Y-62365535D01*
X62127134Y-62278541D01*
X61976000Y-62247936D01*
X59944000Y-62247936D01*
X59802810Y-62274503D01*
X59673135Y-62357946D01*
X59586141Y-62485266D01*
X59555536Y-62636400D01*
X57284464Y-62636400D01*
X57257897Y-62495210D01*
X57174454Y-62365535D01*
X57047134Y-62278541D01*
X56896000Y-62247936D01*
X54864000Y-62247936D01*
X54722810Y-62274503D01*
X54593135Y-62357946D01*
X54506141Y-62485266D01*
X54475536Y-62636400D01*
X50828768Y-62636400D01*
X49152368Y-60960000D01*
X54455631Y-60960000D01*
X54550371Y-61436288D01*
X54820166Y-61840065D01*
X55223943Y-62109860D01*
X55700231Y-62204600D01*
X56059769Y-62204600D01*
X56536057Y-62109860D01*
X56939834Y-61840065D01*
X57209629Y-61436288D01*
X57304369Y-60960000D01*
X59535631Y-60960000D01*
X59630371Y-61436288D01*
X59900166Y-61840065D01*
X60303943Y-62109860D01*
X60780231Y-62204600D01*
X61139769Y-62204600D01*
X61616057Y-62109860D01*
X62019834Y-61840065D01*
X62289629Y-61436288D01*
X62384369Y-60960000D01*
X62289629Y-60483712D01*
X62019834Y-60079935D01*
X61616057Y-59810140D01*
X61139769Y-59715400D01*
X60780231Y-59715400D01*
X60303943Y-59810140D01*
X59900166Y-60079935D01*
X59630371Y-60483712D01*
X59535631Y-60960000D01*
X57304369Y-60960000D01*
X57209629Y-60483712D01*
X56939834Y-60079935D01*
X56536057Y-59810140D01*
X56059769Y-59715400D01*
X55700231Y-59715400D01*
X55223943Y-59810140D01*
X54820166Y-60079935D01*
X54550371Y-60483712D01*
X54455631Y-60960000D01*
X49152368Y-60960000D01*
X47621000Y-59428632D01*
X47621000Y-58420000D01*
X54455631Y-58420000D01*
X54550371Y-58896288D01*
X54820166Y-59300065D01*
X55223943Y-59569860D01*
X55700231Y-59664600D01*
X56059769Y-59664600D01*
X56536057Y-59569860D01*
X56939834Y-59300065D01*
X57209629Y-58896288D01*
X57304369Y-58420000D01*
X59535631Y-58420000D01*
X59630371Y-58896288D01*
X59900166Y-59300065D01*
X60303943Y-59569860D01*
X60780231Y-59664600D01*
X61139769Y-59664600D01*
X61616057Y-59569860D01*
X62019834Y-59300065D01*
X62289629Y-58896288D01*
X62384369Y-58420000D01*
X62289629Y-57943712D01*
X62019834Y-57539935D01*
X61616057Y-57270140D01*
X61139769Y-57175400D01*
X60780231Y-57175400D01*
X60303943Y-57270140D01*
X59900166Y-57539935D01*
X59630371Y-57943712D01*
X59535631Y-58420000D01*
X57304369Y-58420000D01*
X57209629Y-57943712D01*
X56939834Y-57539935D01*
X56536057Y-57270140D01*
X56059769Y-57175400D01*
X55700231Y-57175400D01*
X55223943Y-57270140D01*
X54820166Y-57539935D01*
X54550371Y-57943712D01*
X54455631Y-58420000D01*
X47621000Y-58420000D01*
X47621000Y-55880000D01*
X54455631Y-55880000D01*
X54550371Y-56356288D01*
X54820166Y-56760065D01*
X55223943Y-57029860D01*
X55700231Y-57124600D01*
X56059769Y-57124600D01*
X56536057Y-57029860D01*
X56939834Y-56760065D01*
X57209629Y-56356288D01*
X57304369Y-55880000D01*
X59535631Y-55880000D01*
X59630371Y-56356288D01*
X59900166Y-56760065D01*
X60303943Y-57029860D01*
X60780231Y-57124600D01*
X61139769Y-57124600D01*
X61616057Y-57029860D01*
X62019834Y-56760065D01*
X62289629Y-56356288D01*
X62384369Y-55880000D01*
X62289629Y-55403712D01*
X62019834Y-54999935D01*
X61616057Y-54730140D01*
X61139769Y-54635400D01*
X60780231Y-54635400D01*
X60303943Y-54730140D01*
X59900166Y-54999935D01*
X59630371Y-55403712D01*
X59535631Y-55880000D01*
X57304369Y-55880000D01*
X57209629Y-55403712D01*
X56939834Y-54999935D01*
X56536057Y-54730140D01*
X56059769Y-54635400D01*
X55700231Y-54635400D01*
X55223943Y-54730140D01*
X54820166Y-54999935D01*
X54550371Y-55403712D01*
X54455631Y-55880000D01*
X47621000Y-55880000D01*
X47621000Y-53340000D01*
X54455631Y-53340000D01*
X54550371Y-53816288D01*
X54820166Y-54220065D01*
X55223943Y-54489860D01*
X55700231Y-54584600D01*
X56059769Y-54584600D01*
X56536057Y-54489860D01*
X56939834Y-54220065D01*
X57209629Y-53816288D01*
X57304369Y-53340000D01*
X59535631Y-53340000D01*
X59630371Y-53816288D01*
X59900166Y-54220065D01*
X60303943Y-54489860D01*
X60780231Y-54584600D01*
X61139769Y-54584600D01*
X61616057Y-54489860D01*
X62019834Y-54220065D01*
X62289629Y-53816288D01*
X62384369Y-53340000D01*
X62289629Y-52863712D01*
X62019834Y-52459935D01*
X61616057Y-52190140D01*
X61139769Y-52095400D01*
X60780231Y-52095400D01*
X60303943Y-52190140D01*
X59900166Y-52459935D01*
X59630371Y-52863712D01*
X59535631Y-53340000D01*
X57304369Y-53340000D01*
X57209629Y-52863712D01*
X56939834Y-52459935D01*
X56536057Y-52190140D01*
X56059769Y-52095400D01*
X55700231Y-52095400D01*
X55223943Y-52190140D01*
X54820166Y-52459935D01*
X54550371Y-52863712D01*
X54455631Y-53340000D01*
X47621000Y-53340000D01*
X47621000Y-50800000D01*
X54455631Y-50800000D01*
X54550371Y-51276288D01*
X54820166Y-51680065D01*
X55223943Y-51949860D01*
X55700231Y-52044600D01*
X56059769Y-52044600D01*
X56536057Y-51949860D01*
X56939834Y-51680065D01*
X57209629Y-51276288D01*
X57304369Y-50800000D01*
X59535631Y-50800000D01*
X59630371Y-51276288D01*
X59900166Y-51680065D01*
X60303943Y-51949860D01*
X60780231Y-52044600D01*
X61139769Y-52044600D01*
X61616057Y-51949860D01*
X62019834Y-51680065D01*
X62289629Y-51276288D01*
X62384369Y-50800000D01*
X62289629Y-50323712D01*
X62019834Y-49919935D01*
X61616057Y-49650140D01*
X61139769Y-49555400D01*
X60780231Y-49555400D01*
X60303943Y-49650140D01*
X59900166Y-49919935D01*
X59630371Y-50323712D01*
X59535631Y-50800000D01*
X57304369Y-50800000D01*
X57209629Y-50323712D01*
X56939834Y-49919935D01*
X56536057Y-49650140D01*
X56059769Y-49555400D01*
X55700231Y-49555400D01*
X55223943Y-49650140D01*
X54820166Y-49919935D01*
X54550371Y-50323712D01*
X54455631Y-50800000D01*
X47621000Y-50800000D01*
X47621000Y-48260000D01*
X54455631Y-48260000D01*
X54550371Y-48736288D01*
X54820166Y-49140065D01*
X55223943Y-49409860D01*
X55700231Y-49504600D01*
X56059769Y-49504600D01*
X56536057Y-49409860D01*
X56939834Y-49140065D01*
X57209629Y-48736288D01*
X57304369Y-48260000D01*
X59535631Y-48260000D01*
X59630371Y-48736288D01*
X59900166Y-49140065D01*
X60303943Y-49409860D01*
X60780231Y-49504600D01*
X61139769Y-49504600D01*
X61616057Y-49409860D01*
X62019834Y-49140065D01*
X62289629Y-48736288D01*
X62384369Y-48260000D01*
X62289629Y-47783712D01*
X62019834Y-47379935D01*
X61616057Y-47110140D01*
X61139769Y-47015400D01*
X60780231Y-47015400D01*
X60303943Y-47110140D01*
X59900166Y-47379935D01*
X59630371Y-47783712D01*
X59535631Y-48260000D01*
X57304369Y-48260000D01*
X57209629Y-47783712D01*
X56939834Y-47379935D01*
X56536057Y-47110140D01*
X56059769Y-47015400D01*
X55700231Y-47015400D01*
X55223943Y-47110140D01*
X54820166Y-47379935D01*
X54550371Y-47783712D01*
X54455631Y-48260000D01*
X47621000Y-48260000D01*
X47621000Y-47625000D01*
X47572968Y-47383527D01*
X47453803Y-47205184D01*
X47436185Y-47178816D01*
X43796395Y-43539026D01*
X54272642Y-43539026D01*
X54275291Y-43554791D01*
X54529268Y-44082036D01*
X54965680Y-44471954D01*
X55238243Y-44567296D01*
X55223943Y-44570140D01*
X54820166Y-44839935D01*
X54550371Y-45243712D01*
X54455631Y-45720000D01*
X54550371Y-46196288D01*
X54820166Y-46600065D01*
X55223943Y-46869860D01*
X55700231Y-46964600D01*
X56059769Y-46964600D01*
X56536057Y-46869860D01*
X56939834Y-46600065D01*
X57209629Y-46196288D01*
X57304369Y-45720000D01*
X57209629Y-45243712D01*
X56939834Y-44839935D01*
X56536057Y-44570140D01*
X56521757Y-44567296D01*
X56794320Y-44471954D01*
X57230732Y-44082036D01*
X57484709Y-43554791D01*
X57487358Y-43539026D01*
X59352642Y-43539026D01*
X59355291Y-43554791D01*
X59609268Y-44082036D01*
X60045680Y-44471954D01*
X60318243Y-44567296D01*
X60303943Y-44570140D01*
X59900166Y-44839935D01*
X59630371Y-45243712D01*
X59535631Y-45720000D01*
X59630371Y-46196288D01*
X59900166Y-46600065D01*
X60303943Y-46869860D01*
X60780231Y-46964600D01*
X61139769Y-46964600D01*
X61616057Y-46869860D01*
X62019834Y-46600065D01*
X62289629Y-46196288D01*
X62384369Y-45720000D01*
X62289629Y-45243712D01*
X62019834Y-44839935D01*
X61616057Y-44570140D01*
X61601757Y-44567296D01*
X61874320Y-44471954D01*
X62310732Y-44082036D01*
X62564709Y-43554791D01*
X62567358Y-43539026D01*
X62446217Y-43307000D01*
X61087000Y-43307000D01*
X61087000Y-43327000D01*
X60833000Y-43327000D01*
X60833000Y-43307000D01*
X59473783Y-43307000D01*
X59352642Y-43539026D01*
X57487358Y-43539026D01*
X57366217Y-43307000D01*
X56007000Y-43307000D01*
X56007000Y-43327000D01*
X55753000Y-43327000D01*
X55753000Y-43307000D01*
X54393783Y-43307000D01*
X54272642Y-43539026D01*
X43796395Y-43539026D01*
X43078343Y-42820974D01*
X54272642Y-42820974D01*
X54393783Y-43053000D01*
X55753000Y-43053000D01*
X55753000Y-43033000D01*
X56007000Y-43033000D01*
X56007000Y-43053000D01*
X57366217Y-43053000D01*
X57487358Y-42820974D01*
X59352642Y-42820974D01*
X59473783Y-43053000D01*
X60833000Y-43053000D01*
X60833000Y-43033000D01*
X61087000Y-43033000D01*
X61087000Y-43053000D01*
X62446217Y-43053000D01*
X62567358Y-42820974D01*
X62564709Y-42805209D01*
X62310732Y-42277964D01*
X61874320Y-41888046D01*
X61601757Y-41792704D01*
X61616057Y-41789860D01*
X62019834Y-41520065D01*
X62289629Y-41116288D01*
X62384369Y-40640000D01*
X62289629Y-40163712D01*
X62019834Y-39759935D01*
X61616057Y-39490140D01*
X61139769Y-39395400D01*
X60780231Y-39395400D01*
X60303943Y-39490140D01*
X59900166Y-39759935D01*
X59630371Y-40163712D01*
X59535631Y-40640000D01*
X59630371Y-41116288D01*
X59900166Y-41520065D01*
X60303943Y-41789860D01*
X60318243Y-41792704D01*
X60045680Y-41888046D01*
X59609268Y-42277964D01*
X59355291Y-42805209D01*
X59352642Y-42820974D01*
X57487358Y-42820974D01*
X57484709Y-42805209D01*
X57230732Y-42277964D01*
X56794320Y-41888046D01*
X56521757Y-41792704D01*
X56536057Y-41789860D01*
X56939834Y-41520065D01*
X57209629Y-41116288D01*
X57304369Y-40640000D01*
X57209629Y-40163712D01*
X56939834Y-39759935D01*
X56536057Y-39490140D01*
X56059769Y-39395400D01*
X55700231Y-39395400D01*
X55223943Y-39490140D01*
X54820166Y-39759935D01*
X54550371Y-40163712D01*
X54455631Y-40640000D01*
X54550371Y-41116288D01*
X54820166Y-41520065D01*
X55223943Y-41789860D01*
X55238243Y-41792704D01*
X54965680Y-41888046D01*
X54529268Y-42277964D01*
X54275291Y-42805209D01*
X54272642Y-42820974D01*
X43078343Y-42820974D01*
X41981434Y-41724066D01*
X41889050Y-41500479D01*
X41685592Y-41296665D01*
X41419624Y-41186226D01*
X41131639Y-41185975D01*
X40865479Y-41295950D01*
X40661665Y-41499408D01*
X40551226Y-41765376D01*
X40550975Y-42053361D01*
X40660950Y-42319521D01*
X40806473Y-42465298D01*
X40784624Y-42456226D01*
X40496639Y-42455975D01*
X40230479Y-42565950D01*
X40026665Y-42769408D01*
X39916226Y-43035376D01*
X39915975Y-43323361D01*
X40025950Y-43589521D01*
X40229408Y-43793335D01*
X40454385Y-43886753D01*
X42549000Y-45981369D01*
X42549000Y-69588631D01*
X40193816Y-71943816D01*
X40057032Y-72148527D01*
X40009000Y-72390000D01*
X40009000Y-72433746D01*
X39759935Y-72600166D01*
X39490140Y-73003943D01*
X39395400Y-73480231D01*
X39344600Y-73480231D01*
X39249860Y-73003943D01*
X38980065Y-72600166D01*
X38576288Y-72330371D01*
X38100000Y-72235631D01*
X37623712Y-72330371D01*
X37219935Y-72600166D01*
X36950140Y-73003943D01*
X36855400Y-73480231D01*
X36855400Y-73839769D01*
X36950140Y-74316057D01*
X37044843Y-74457789D01*
X35933632Y-75569000D01*
X25661369Y-75569000D01*
X24836434Y-74744066D01*
X24744050Y-74520479D01*
X24540592Y-74316665D01*
X24274624Y-74206226D01*
X23986639Y-74205975D01*
X23720479Y-74315950D01*
X23516665Y-74519408D01*
X23406226Y-74785376D01*
X23405975Y-75073361D01*
X16954500Y-75073361D01*
X16954500Y-73945750D01*
X26441400Y-73945750D01*
X26441400Y-74802309D01*
X26538073Y-75035698D01*
X26716701Y-75214327D01*
X26950090Y-75311000D01*
X27654250Y-75311000D01*
X27813000Y-75152250D01*
X27813000Y-73787000D01*
X28067000Y-73787000D01*
X28067000Y-75152250D01*
X28225750Y-75311000D01*
X28929910Y-75311000D01*
X29163299Y-75214327D01*
X29341927Y-75035698D01*
X29423759Y-74838139D01*
X29577964Y-75010732D01*
X30105209Y-75264709D01*
X30120974Y-75267358D01*
X30353000Y-75146217D01*
X30353000Y-73787000D01*
X28067000Y-73787000D01*
X27813000Y-73787000D01*
X26600150Y-73787000D01*
X26441400Y-73945750D01*
X16954500Y-73945750D01*
X16954500Y-72517691D01*
X26441400Y-72517691D01*
X26441400Y-73374250D01*
X26600150Y-73533000D01*
X27813000Y-73533000D01*
X27813000Y-72167750D01*
X28067000Y-72167750D01*
X28067000Y-73533000D01*
X30353000Y-73533000D01*
X30353000Y-72173783D01*
X30607000Y-72173783D01*
X30607000Y-73533000D01*
X30627000Y-73533000D01*
X30627000Y-73787000D01*
X30607000Y-73787000D01*
X30607000Y-75146217D01*
X30839026Y-75267358D01*
X30854791Y-75264709D01*
X31382036Y-75010732D01*
X31771954Y-74574320D01*
X31867296Y-74301757D01*
X31870140Y-74316057D01*
X32139935Y-74719834D01*
X32543712Y-74989629D01*
X33020000Y-75084369D01*
X33496288Y-74989629D01*
X33900065Y-74719834D01*
X34169860Y-74316057D01*
X34264600Y-73839769D01*
X34264600Y-73480231D01*
X34169860Y-73003943D01*
X33900065Y-72600166D01*
X33496288Y-72330371D01*
X33020000Y-72235631D01*
X32543712Y-72330371D01*
X32139935Y-72600166D01*
X31870140Y-73003943D01*
X31867296Y-73018243D01*
X31771954Y-72745680D01*
X31382036Y-72309268D01*
X30854791Y-72055291D01*
X30839026Y-72052642D01*
X30607000Y-72173783D01*
X30353000Y-72173783D01*
X30120974Y-72052642D01*
X30105209Y-72055291D01*
X29577964Y-72309268D01*
X29423759Y-72481861D01*
X29341927Y-72284302D01*
X29163299Y-72105673D01*
X28929910Y-72009000D01*
X28225750Y-72009000D01*
X28067000Y-72167750D01*
X27813000Y-72167750D01*
X27654250Y-72009000D01*
X26950090Y-72009000D01*
X26716701Y-72105673D01*
X26538073Y-72284302D01*
X26441400Y-72517691D01*
X16954500Y-72517691D01*
X16954500Y-63500000D01*
X18895631Y-63500000D01*
X18990371Y-63976288D01*
X19260166Y-64380065D01*
X19663943Y-64649860D01*
X20140231Y-64744600D01*
X20499769Y-64744600D01*
X20976057Y-64649860D01*
X21379834Y-64380065D01*
X21649629Y-63976288D01*
X21744369Y-63500000D01*
X23975631Y-63500000D01*
X24070371Y-63976288D01*
X24340166Y-64380065D01*
X24743943Y-64649860D01*
X25220231Y-64744600D01*
X25579769Y-64744600D01*
X26056057Y-64649860D01*
X26459834Y-64380065D01*
X26729629Y-63976288D01*
X26824369Y-63500000D01*
X26729629Y-63023712D01*
X26459834Y-62619935D01*
X26056057Y-62350140D01*
X25579769Y-62255400D01*
X25220231Y-62255400D01*
X24743943Y-62350140D01*
X24340166Y-62619935D01*
X24070371Y-63023712D01*
X23975631Y-63500000D01*
X21744369Y-63500000D01*
X21649629Y-63023712D01*
X21379834Y-62619935D01*
X20976057Y-62350140D01*
X20499769Y-62255400D01*
X20140231Y-62255400D01*
X19663943Y-62350140D01*
X19260166Y-62619935D01*
X18990371Y-63023712D01*
X18895631Y-63500000D01*
X16954500Y-63500000D01*
X16954500Y-60960000D01*
X18895631Y-60960000D01*
X18990371Y-61436288D01*
X19260166Y-61840065D01*
X19663943Y-62109860D01*
X20140231Y-62204600D01*
X20499769Y-62204600D01*
X20976057Y-62109860D01*
X21379834Y-61840065D01*
X21649629Y-61436288D01*
X21744369Y-60960000D01*
X23975631Y-60960000D01*
X24070371Y-61436288D01*
X24340166Y-61840065D01*
X24743943Y-62109860D01*
X25220231Y-62204600D01*
X25579769Y-62204600D01*
X26056057Y-62109860D01*
X26459834Y-61840065D01*
X26729629Y-61436288D01*
X26824369Y-60960000D01*
X26729629Y-60483712D01*
X26459834Y-60079935D01*
X26056057Y-59810140D01*
X25579769Y-59715400D01*
X25220231Y-59715400D01*
X24743943Y-59810140D01*
X24340166Y-60079935D01*
X24070371Y-60483712D01*
X23975631Y-60960000D01*
X21744369Y-60960000D01*
X21649629Y-60483712D01*
X21379834Y-60079935D01*
X20976057Y-59810140D01*
X20499769Y-59715400D01*
X20140231Y-59715400D01*
X19663943Y-59810140D01*
X19260166Y-60079935D01*
X18990371Y-60483712D01*
X18895631Y-60960000D01*
X16954500Y-60960000D01*
X16954500Y-58420000D01*
X18895631Y-58420000D01*
X18990371Y-58896288D01*
X19260166Y-59300065D01*
X19663943Y-59569860D01*
X20140231Y-59664600D01*
X20499769Y-59664600D01*
X20976057Y-59569860D01*
X21379834Y-59300065D01*
X21649629Y-58896288D01*
X21744369Y-58420000D01*
X23975631Y-58420000D01*
X24070371Y-58896288D01*
X24340166Y-59300065D01*
X24743943Y-59569860D01*
X25220231Y-59664600D01*
X25579769Y-59664600D01*
X26056057Y-59569860D01*
X26459834Y-59300065D01*
X26729629Y-58896288D01*
X26824369Y-58420000D01*
X26729629Y-57943712D01*
X26459834Y-57539935D01*
X26056057Y-57270140D01*
X25579769Y-57175400D01*
X25220231Y-57175400D01*
X24743943Y-57270140D01*
X24340166Y-57539935D01*
X24070371Y-57943712D01*
X23975631Y-58420000D01*
X21744369Y-58420000D01*
X21649629Y-57943712D01*
X21379834Y-57539935D01*
X20976057Y-57270140D01*
X20499769Y-57175400D01*
X20140231Y-57175400D01*
X19663943Y-57270140D01*
X19260166Y-57539935D01*
X18990371Y-57943712D01*
X18895631Y-58420000D01*
X16954500Y-58420000D01*
X16954500Y-55880000D01*
X18895631Y-55880000D01*
X18990371Y-56356288D01*
X19260166Y-56760065D01*
X19663943Y-57029860D01*
X20140231Y-57124600D01*
X20499769Y-57124600D01*
X20976057Y-57029860D01*
X21379834Y-56760065D01*
X21649629Y-56356288D01*
X21744369Y-55880000D01*
X23975631Y-55880000D01*
X24070371Y-56356288D01*
X24340166Y-56760065D01*
X24743943Y-57029860D01*
X25220231Y-57124600D01*
X25579769Y-57124600D01*
X26056057Y-57029860D01*
X26459834Y-56760065D01*
X26729629Y-56356288D01*
X26824369Y-55880000D01*
X26729629Y-55403712D01*
X26459834Y-54999935D01*
X26063385Y-54735036D01*
X29348234Y-54735036D01*
X29520142Y-55151086D01*
X29838180Y-55469679D01*
X30253929Y-55642313D01*
X30704096Y-55642706D01*
X31120146Y-55470798D01*
X31438739Y-55152760D01*
X31611373Y-54737011D01*
X31611766Y-54286844D01*
X31439858Y-53870794D01*
X31121820Y-53552201D01*
X30706071Y-53379567D01*
X30255904Y-53379174D01*
X29839854Y-53551082D01*
X29521261Y-53869120D01*
X29348627Y-54284869D01*
X29348234Y-54735036D01*
X26063385Y-54735036D01*
X26056057Y-54730140D01*
X25579769Y-54635400D01*
X25220231Y-54635400D01*
X24743943Y-54730140D01*
X24340166Y-54999935D01*
X24070371Y-55403712D01*
X23975631Y-55880000D01*
X21744369Y-55880000D01*
X21649629Y-55403712D01*
X21379834Y-54999935D01*
X20976057Y-54730140D01*
X20499769Y-54635400D01*
X20140231Y-54635400D01*
X19663943Y-54730140D01*
X19260166Y-54999935D01*
X18990371Y-55403712D01*
X18895631Y-55880000D01*
X16954500Y-55880000D01*
X16954500Y-53340000D01*
X18895631Y-53340000D01*
X18990371Y-53816288D01*
X19260166Y-54220065D01*
X19663943Y-54489860D01*
X20140231Y-54584600D01*
X20499769Y-54584600D01*
X20976057Y-54489860D01*
X21379834Y-54220065D01*
X21649629Y-53816288D01*
X21744369Y-53340000D01*
X23975631Y-53340000D01*
X24070371Y-53816288D01*
X24340166Y-54220065D01*
X24743943Y-54489860D01*
X25220231Y-54584600D01*
X25579769Y-54584600D01*
X26056057Y-54489860D01*
X26459834Y-54220065D01*
X26729629Y-53816288D01*
X26824369Y-53340000D01*
X26729629Y-52863712D01*
X26459834Y-52459935D01*
X26056057Y-52190140D01*
X25579769Y-52095400D01*
X25220231Y-52095400D01*
X24743943Y-52190140D01*
X24340166Y-52459935D01*
X24070371Y-52863712D01*
X23975631Y-53340000D01*
X21744369Y-53340000D01*
X21649629Y-52863712D01*
X21379834Y-52459935D01*
X20976057Y-52190140D01*
X20499769Y-52095400D01*
X20140231Y-52095400D01*
X19663943Y-52190140D01*
X19260166Y-52459935D01*
X18990371Y-52863712D01*
X18895631Y-53340000D01*
X16954500Y-53340000D01*
X16954500Y-50800000D01*
X18895631Y-50800000D01*
X18990371Y-51276288D01*
X19260166Y-51680065D01*
X19663943Y-51949860D01*
X20140231Y-52044600D01*
X20499769Y-52044600D01*
X20976057Y-51949860D01*
X21379834Y-51680065D01*
X21649629Y-51276288D01*
X21744369Y-50800000D01*
X23975631Y-50800000D01*
X24070371Y-51276288D01*
X24340166Y-51680065D01*
X24743943Y-51949860D01*
X25220231Y-52044600D01*
X25579769Y-52044600D01*
X26056057Y-51949860D01*
X26459834Y-51680065D01*
X26729629Y-51276288D01*
X26824369Y-50800000D01*
X26729629Y-50323712D01*
X26459834Y-49919935D01*
X26359893Y-49853156D01*
X29348234Y-49853156D01*
X29520142Y-50269206D01*
X29838180Y-50587799D01*
X30253929Y-50760433D01*
X30704096Y-50760826D01*
X31120146Y-50588918D01*
X31438739Y-50270880D01*
X31611373Y-49855131D01*
X31611766Y-49404964D01*
X31439858Y-48988914D01*
X31121820Y-48670321D01*
X30706071Y-48497687D01*
X30255904Y-48497294D01*
X29839854Y-48669202D01*
X29521261Y-48987240D01*
X29348627Y-49402989D01*
X29348234Y-49853156D01*
X26359893Y-49853156D01*
X26056057Y-49650140D01*
X25579769Y-49555400D01*
X25220231Y-49555400D01*
X24743943Y-49650140D01*
X24340166Y-49919935D01*
X24070371Y-50323712D01*
X23975631Y-50800000D01*
X21744369Y-50800000D01*
X21649629Y-50323712D01*
X21379834Y-49919935D01*
X20976057Y-49650140D01*
X20499769Y-49555400D01*
X20140231Y-49555400D01*
X19663943Y-49650140D01*
X19260166Y-49919935D01*
X18990371Y-50323712D01*
X18895631Y-50800000D01*
X16954500Y-50800000D01*
X16954500Y-46079026D01*
X18712642Y-46079026D01*
X18715291Y-46094791D01*
X18969268Y-46622036D01*
X19405680Y-47011954D01*
X19678243Y-47107296D01*
X19663943Y-47110140D01*
X19260166Y-47379935D01*
X18990371Y-47783712D01*
X18895631Y-48260000D01*
X18990371Y-48736288D01*
X19260166Y-49140065D01*
X19663943Y-49409860D01*
X20140231Y-49504600D01*
X20499769Y-49504600D01*
X20976057Y-49409860D01*
X21379834Y-49140065D01*
X21649629Y-48736288D01*
X21744369Y-48260000D01*
X21649629Y-47783712D01*
X21379834Y-47379935D01*
X20976057Y-47110140D01*
X20961757Y-47107296D01*
X21234320Y-47011954D01*
X21670732Y-46622036D01*
X21924709Y-46094791D01*
X21927358Y-46079026D01*
X23792642Y-46079026D01*
X23795291Y-46094791D01*
X24049268Y-46622036D01*
X24485680Y-47011954D01*
X24758243Y-47107296D01*
X24743943Y-47110140D01*
X24340166Y-47379935D01*
X24070371Y-47783712D01*
X23975631Y-48260000D01*
X24070371Y-48736288D01*
X24340166Y-49140065D01*
X24743943Y-49409860D01*
X25220231Y-49504600D01*
X25579769Y-49504600D01*
X26056057Y-49409860D01*
X26459834Y-49140065D01*
X26729629Y-48736288D01*
X26824369Y-48260000D01*
X26729629Y-47783712D01*
X26459834Y-47379935D01*
X26056057Y-47110140D01*
X26041757Y-47107296D01*
X26314320Y-47011954D01*
X26750732Y-46622036D01*
X27004709Y-46094791D01*
X27007358Y-46079026D01*
X26886217Y-45847000D01*
X25527000Y-45847000D01*
X25527000Y-45867000D01*
X25273000Y-45867000D01*
X25273000Y-45847000D01*
X23913783Y-45847000D01*
X23792642Y-46079026D01*
X21927358Y-46079026D01*
X21806217Y-45847000D01*
X20447000Y-45847000D01*
X20447000Y-45867000D01*
X20193000Y-45867000D01*
X20193000Y-45847000D01*
X18833783Y-45847000D01*
X18712642Y-46079026D01*
X16954500Y-46079026D01*
X16954500Y-40999026D01*
X18712642Y-40999026D01*
X18715291Y-41014791D01*
X18969268Y-41542036D01*
X19405680Y-41931954D01*
X19678243Y-42027296D01*
X19663943Y-42030140D01*
X19260166Y-42299935D01*
X18990371Y-42703712D01*
X18895631Y-43180000D01*
X18990371Y-43656288D01*
X19260166Y-44060065D01*
X19663943Y-44329860D01*
X19678243Y-44332704D01*
X19405680Y-44428046D01*
X18969268Y-44817964D01*
X18715291Y-45345209D01*
X18712642Y-45360974D01*
X18833783Y-45593000D01*
X20193000Y-45593000D01*
X20193000Y-45573000D01*
X20447000Y-45573000D01*
X20447000Y-45593000D01*
X21806217Y-45593000D01*
X21927358Y-45360974D01*
X21924709Y-45345209D01*
X21670732Y-44817964D01*
X21234320Y-44428046D01*
X20961757Y-44332704D01*
X20976057Y-44329860D01*
X21379834Y-44060065D01*
X21649629Y-43656288D01*
X21744369Y-43180000D01*
X21649629Y-42703712D01*
X21379834Y-42299935D01*
X20976057Y-42030140D01*
X20961757Y-42027296D01*
X21234320Y-41931954D01*
X21670732Y-41542036D01*
X21924709Y-41014791D01*
X21927358Y-40999026D01*
X23792642Y-40999026D01*
X23795291Y-41014791D01*
X24049268Y-41542036D01*
X24485680Y-41931954D01*
X24758243Y-42027296D01*
X24743943Y-42030140D01*
X24340166Y-42299935D01*
X24070371Y-42703712D01*
X23975631Y-43180000D01*
X24070371Y-43656288D01*
X24340166Y-44060065D01*
X24743943Y-44329860D01*
X24758243Y-44332704D01*
X24485680Y-44428046D01*
X24049268Y-44817964D01*
X23795291Y-45345209D01*
X23792642Y-45360974D01*
X23913783Y-45593000D01*
X25273000Y-45593000D01*
X25273000Y-45573000D01*
X25527000Y-45573000D01*
X25527000Y-45593000D01*
X26886217Y-45593000D01*
X27007358Y-45360974D01*
X27004709Y-45345209D01*
X26750732Y-44817964D01*
X26314320Y-44428046D01*
X26041757Y-44332704D01*
X26056057Y-44329860D01*
X26459834Y-44060065D01*
X26729629Y-43656288D01*
X26824369Y-43180000D01*
X26729629Y-42703712D01*
X26459834Y-42299935D01*
X26056057Y-42030140D01*
X26041757Y-42027296D01*
X26314320Y-41931954D01*
X26750732Y-41542036D01*
X27004709Y-41014791D01*
X27007358Y-40999026D01*
X26886217Y-40767000D01*
X25527000Y-40767000D01*
X25527000Y-40787000D01*
X25273000Y-40787000D01*
X25273000Y-40767000D01*
X23913783Y-40767000D01*
X23792642Y-40999026D01*
X21927358Y-40999026D01*
X21806217Y-40767000D01*
X20447000Y-40767000D01*
X20447000Y-40787000D01*
X20193000Y-40787000D01*
X20193000Y-40767000D01*
X18833783Y-40767000D01*
X18712642Y-40999026D01*
X16954500Y-40999026D01*
X16954500Y-40280974D01*
X18712642Y-40280974D01*
X18833783Y-40513000D01*
X20193000Y-40513000D01*
X20193000Y-40493000D01*
X20447000Y-40493000D01*
X20447000Y-40513000D01*
X21806217Y-40513000D01*
X21927358Y-40280974D01*
X23792642Y-40280974D01*
X23913783Y-40513000D01*
X25273000Y-40513000D01*
X25273000Y-40493000D01*
X25527000Y-40493000D01*
X25527000Y-40513000D01*
X26886217Y-40513000D01*
X27007358Y-40280974D01*
X27004709Y-40265209D01*
X26750732Y-39737964D01*
X26314320Y-39348046D01*
X26041757Y-39252704D01*
X26056057Y-39249860D01*
X26459834Y-38980065D01*
X26729629Y-38576288D01*
X26824369Y-38100000D01*
X26729629Y-37623712D01*
X26459834Y-37219935D01*
X26056057Y-36950140D01*
X25579769Y-36855400D01*
X25220231Y-36855400D01*
X24743943Y-36950140D01*
X24340166Y-37219935D01*
X24070371Y-37623712D01*
X23975631Y-38100000D01*
X24070371Y-38576288D01*
X24340166Y-38980065D01*
X24743943Y-39249860D01*
X24758243Y-39252704D01*
X24485680Y-39348046D01*
X24049268Y-39737964D01*
X23795291Y-40265209D01*
X23792642Y-40280974D01*
X21927358Y-40280974D01*
X21924709Y-40265209D01*
X21670732Y-39737964D01*
X21234320Y-39348046D01*
X20961757Y-39252704D01*
X20976057Y-39249860D01*
X21379834Y-38980065D01*
X21649629Y-38576288D01*
X21744369Y-38100000D01*
X21649629Y-37623712D01*
X21379834Y-37219935D01*
X20976057Y-36950140D01*
X20499769Y-36855400D01*
X20140231Y-36855400D01*
X19663943Y-36950140D01*
X19260166Y-37219935D01*
X18990371Y-37623712D01*
X18895631Y-38100000D01*
X18990371Y-38576288D01*
X19260166Y-38980065D01*
X19663943Y-39249860D01*
X19678243Y-39252704D01*
X19405680Y-39348046D01*
X18969268Y-39737964D01*
X18715291Y-40265209D01*
X18712642Y-40280974D01*
X16954500Y-40280974D01*
X16954500Y-35560000D01*
X18895631Y-35560000D01*
X18990371Y-36036288D01*
X19260166Y-36440065D01*
X19663943Y-36709860D01*
X20140231Y-36804600D01*
X20499769Y-36804600D01*
X20976057Y-36709860D01*
X21379834Y-36440065D01*
X21649629Y-36036288D01*
X21744369Y-35560000D01*
X23975631Y-35560000D01*
X24070371Y-36036288D01*
X24340166Y-36440065D01*
X24743943Y-36709860D01*
X25220231Y-36804600D01*
X25579769Y-36804600D01*
X26056057Y-36709860D01*
X26459834Y-36440065D01*
X26729629Y-36036288D01*
X26824369Y-35560000D01*
X26729629Y-35083712D01*
X26459834Y-34679935D01*
X26056057Y-34410140D01*
X25579769Y-34315400D01*
X25220231Y-34315400D01*
X24743943Y-34410140D01*
X24340166Y-34679935D01*
X24070371Y-35083712D01*
X23975631Y-35560000D01*
X21744369Y-35560000D01*
X21649629Y-35083712D01*
X21379834Y-34679935D01*
X20976057Y-34410140D01*
X20499769Y-34315400D01*
X20140231Y-34315400D01*
X19663943Y-34410140D01*
X19260166Y-34679935D01*
X18990371Y-35083712D01*
X18895631Y-35560000D01*
X16954500Y-35560000D01*
X16954500Y-33020000D01*
X18895631Y-33020000D01*
X18990371Y-33496288D01*
X19260166Y-33900065D01*
X19663943Y-34169860D01*
X20140231Y-34264600D01*
X20499769Y-34264600D01*
X20976057Y-34169860D01*
X21379834Y-33900065D01*
X21649629Y-33496288D01*
X21744369Y-33020000D01*
X23975631Y-33020000D01*
X24070371Y-33496288D01*
X24340166Y-33900065D01*
X24743943Y-34169860D01*
X25220231Y-34264600D01*
X25579769Y-34264600D01*
X26056057Y-34169860D01*
X26459834Y-33900065D01*
X26729629Y-33496288D01*
X26824369Y-33020000D01*
X26729629Y-32543712D01*
X26459834Y-32139935D01*
X26056057Y-31870140D01*
X25579769Y-31775400D01*
X25220231Y-31775400D01*
X24743943Y-31870140D01*
X24340166Y-32139935D01*
X24070371Y-32543712D01*
X23975631Y-33020000D01*
X21744369Y-33020000D01*
X21649629Y-32543712D01*
X21379834Y-32139935D01*
X20976057Y-31870140D01*
X20499769Y-31775400D01*
X20140231Y-31775400D01*
X19663943Y-31870140D01*
X19260166Y-32139935D01*
X18990371Y-32543712D01*
X18895631Y-33020000D01*
X16954500Y-33020000D01*
X16954500Y-30480000D01*
X18895631Y-30480000D01*
X18990371Y-30956288D01*
X19260166Y-31360065D01*
X19663943Y-31629860D01*
X20140231Y-31724600D01*
X20499769Y-31724600D01*
X20976057Y-31629860D01*
X21379834Y-31360065D01*
X21649629Y-30956288D01*
X21744369Y-30480000D01*
X21649629Y-30003712D01*
X21379834Y-29599935D01*
X20976057Y-29330140D01*
X20499769Y-29235400D01*
X20140231Y-29235400D01*
X19663943Y-29330140D01*
X19260166Y-29599935D01*
X18990371Y-30003712D01*
X18895631Y-30480000D01*
X16954500Y-30480000D01*
X16954500Y-27940000D01*
X18895631Y-27940000D01*
X18990371Y-28416288D01*
X19260166Y-28820065D01*
X19663943Y-29089860D01*
X20140231Y-29184600D01*
X20499769Y-29184600D01*
X20976057Y-29089860D01*
X21379834Y-28820065D01*
X21649629Y-28416288D01*
X21744369Y-27940000D01*
X23975631Y-27940000D01*
X24070371Y-28416288D01*
X24340166Y-28820065D01*
X24743943Y-29089860D01*
X25220231Y-29184600D01*
X25579769Y-29184600D01*
X25723618Y-29155986D01*
X25858469Y-29290837D01*
X25579769Y-29235400D01*
X25220231Y-29235400D01*
X24743943Y-29330140D01*
X24340166Y-29599935D01*
X24070371Y-30003712D01*
X23975631Y-30480000D01*
X24070371Y-30956288D01*
X24340166Y-31360065D01*
X24743943Y-31629860D01*
X25220231Y-31724600D01*
X25579769Y-31724600D01*
X26056057Y-31629860D01*
X26459834Y-31360065D01*
X26729629Y-30956288D01*
X26824369Y-30480000D01*
X26768932Y-30201300D01*
X34929000Y-38361369D01*
X34929000Y-72433746D01*
X34679935Y-72600166D01*
X34410140Y-73003943D01*
X34315400Y-73480231D01*
X34315400Y-73839769D01*
X34410140Y-74316057D01*
X34679935Y-74719834D01*
X35083712Y-74989629D01*
X35560000Y-75084369D01*
X36036288Y-74989629D01*
X36440065Y-74719834D01*
X36709860Y-74316057D01*
X36804600Y-73839769D01*
X36804600Y-73480231D01*
X36709860Y-73003943D01*
X36440065Y-72600166D01*
X36191000Y-72433746D01*
X36191000Y-38100000D01*
X54455631Y-38100000D01*
X54550371Y-38576288D01*
X54820166Y-38980065D01*
X55223943Y-39249860D01*
X55700231Y-39344600D01*
X56059769Y-39344600D01*
X56536057Y-39249860D01*
X56939834Y-38980065D01*
X57209629Y-38576288D01*
X57304369Y-38100000D01*
X59535631Y-38100000D01*
X59630371Y-38576288D01*
X59900166Y-38980065D01*
X60303943Y-39249860D01*
X60780231Y-39344600D01*
X61139769Y-39344600D01*
X61616057Y-39249860D01*
X62019834Y-38980065D01*
X62289629Y-38576288D01*
X62384369Y-38100000D01*
X62289629Y-37623712D01*
X62019834Y-37219935D01*
X61616057Y-36950140D01*
X61139769Y-36855400D01*
X60780231Y-36855400D01*
X60303943Y-36950140D01*
X59900166Y-37219935D01*
X59630371Y-37623712D01*
X59535631Y-38100000D01*
X57304369Y-38100000D01*
X57209629Y-37623712D01*
X56939834Y-37219935D01*
X56536057Y-36950140D01*
X56059769Y-36855400D01*
X55700231Y-36855400D01*
X55223943Y-36950140D01*
X54820166Y-37219935D01*
X54550371Y-37623712D01*
X54455631Y-38100000D01*
X36191000Y-38100000D01*
X36142968Y-37858527D01*
X36006185Y-37653816D01*
X33912369Y-35560000D01*
X54455631Y-35560000D01*
X54550371Y-36036288D01*
X54820166Y-36440065D01*
X55223943Y-36709860D01*
X55700231Y-36804600D01*
X56059769Y-36804600D01*
X56536057Y-36709860D01*
X56939834Y-36440065D01*
X57209629Y-36036288D01*
X57304369Y-35560000D01*
X59535631Y-35560000D01*
X59630371Y-36036288D01*
X59900166Y-36440065D01*
X60303943Y-36709860D01*
X60780231Y-36804600D01*
X61139769Y-36804600D01*
X61616057Y-36709860D01*
X62019834Y-36440065D01*
X62289629Y-36036288D01*
X62384369Y-35560000D01*
X62289629Y-35083712D01*
X62019834Y-34679935D01*
X61616057Y-34410140D01*
X61139769Y-34315400D01*
X60780231Y-34315400D01*
X60303943Y-34410140D01*
X59900166Y-34679935D01*
X59630371Y-35083712D01*
X59535631Y-35560000D01*
X57304369Y-35560000D01*
X57209629Y-35083712D01*
X56939834Y-34679935D01*
X56536057Y-34410140D01*
X56059769Y-34315400D01*
X55700231Y-34315400D01*
X55223943Y-34410140D01*
X54820166Y-34679935D01*
X54550371Y-35083712D01*
X54455631Y-35560000D01*
X33912369Y-35560000D01*
X29895283Y-31542914D01*
X32639000Y-31542914D01*
X32639000Y-31657366D01*
X32861348Y-32775184D01*
X33494541Y-33722825D01*
X34442182Y-34356018D01*
X35560000Y-34578366D01*
X36677818Y-34356018D01*
X37625459Y-33722825D01*
X38095071Y-33020000D01*
X54455631Y-33020000D01*
X54550371Y-33496288D01*
X54820166Y-33900065D01*
X55223943Y-34169860D01*
X55700231Y-34264600D01*
X56059769Y-34264600D01*
X56536057Y-34169860D01*
X56939834Y-33900065D01*
X57209629Y-33496288D01*
X57304369Y-33020000D01*
X59535631Y-33020000D01*
X59630371Y-33496288D01*
X59900166Y-33900065D01*
X60303943Y-34169860D01*
X60780231Y-34264600D01*
X61139769Y-34264600D01*
X61616057Y-34169860D01*
X62019834Y-33900065D01*
X62289629Y-33496288D01*
X62384369Y-33020000D01*
X62289629Y-32543712D01*
X62019834Y-32139935D01*
X61616057Y-31870140D01*
X61139769Y-31775400D01*
X60780231Y-31775400D01*
X60303943Y-31870140D01*
X59900166Y-32139935D01*
X59630371Y-32543712D01*
X59535631Y-33020000D01*
X57304369Y-33020000D01*
X57209629Y-32543712D01*
X56939834Y-32139935D01*
X56536057Y-31870140D01*
X56059769Y-31775400D01*
X55700231Y-31775400D01*
X55223943Y-31870140D01*
X54820166Y-32139935D01*
X54550371Y-32543712D01*
X54455631Y-33020000D01*
X38095071Y-33020000D01*
X38258652Y-32775184D01*
X38481000Y-31657366D01*
X38481000Y-31542914D01*
X38269574Y-30480000D01*
X54455631Y-30480000D01*
X54550371Y-30956288D01*
X54820166Y-31360065D01*
X55223943Y-31629860D01*
X55700231Y-31724600D01*
X56059769Y-31724600D01*
X56536057Y-31629860D01*
X56939834Y-31360065D01*
X57209629Y-30956288D01*
X57304369Y-30480000D01*
X59535631Y-30480000D01*
X59630371Y-30956288D01*
X59900166Y-31360065D01*
X60303943Y-31629860D01*
X60780231Y-31724600D01*
X61139769Y-31724600D01*
X61616057Y-31629860D01*
X62019834Y-31360065D01*
X62289629Y-30956288D01*
X62384369Y-30480000D01*
X62289629Y-30003712D01*
X62019834Y-29599935D01*
X61616057Y-29330140D01*
X61139769Y-29235400D01*
X60780231Y-29235400D01*
X60303943Y-29330140D01*
X59900166Y-29599935D01*
X59630371Y-30003712D01*
X59535631Y-30480000D01*
X57304369Y-30480000D01*
X57209629Y-30003712D01*
X56939834Y-29599935D01*
X56536057Y-29330140D01*
X56059769Y-29235400D01*
X55700231Y-29235400D01*
X55223943Y-29330140D01*
X54820166Y-29599935D01*
X54550371Y-30003712D01*
X54455631Y-30480000D01*
X38269574Y-30480000D01*
X38258652Y-30425096D01*
X37625459Y-29477455D01*
X36677818Y-28844262D01*
X35560000Y-28621914D01*
X34442182Y-28844262D01*
X33494541Y-29477455D01*
X32861348Y-30425096D01*
X32639000Y-31542914D01*
X29895283Y-31542914D01*
X26907984Y-28555615D01*
X28575000Y-28555615D01*
X28575000Y-28645185D01*
X28749011Y-29519999D01*
X29244554Y-30261631D01*
X29986186Y-30757174D01*
X30861000Y-30931185D01*
X31735814Y-30757174D01*
X32477446Y-30261631D01*
X32972989Y-29519999D01*
X33147000Y-28645185D01*
X33147000Y-28555615D01*
X32972989Y-27680801D01*
X32477446Y-26939169D01*
X31735814Y-26443626D01*
X30861000Y-26269615D01*
X29986186Y-26443626D01*
X29244554Y-26939169D01*
X28749011Y-27680801D01*
X28575000Y-28555615D01*
X26907984Y-28555615D01*
X26736104Y-28383736D01*
X26824369Y-27940000D01*
X26729629Y-27463712D01*
X26459834Y-27059935D01*
X26056057Y-26790140D01*
X25579769Y-26695400D01*
X25220231Y-26695400D01*
X24743943Y-26790140D01*
X24340166Y-27059935D01*
X24070371Y-27463712D01*
X23975631Y-27940000D01*
X21744369Y-27940000D01*
X21649629Y-27463712D01*
X21379834Y-27059935D01*
X20976057Y-26790140D01*
X20499769Y-26695400D01*
X20140231Y-26695400D01*
X19663943Y-26790140D01*
X19260166Y-27059935D01*
X18990371Y-27463712D01*
X18895631Y-27940000D01*
X16954500Y-27940000D01*
X16954500Y-24536400D01*
X18915536Y-24536400D01*
X18915536Y-26263600D01*
X18942103Y-26404790D01*
X19025546Y-26534465D01*
X19152866Y-26621459D01*
X19304000Y-26652064D01*
X21336000Y-26652064D01*
X21477190Y-26625497D01*
X21606865Y-26542054D01*
X21693859Y-26414734D01*
X21724464Y-26263600D01*
X21724464Y-24536400D01*
X23995536Y-24536400D01*
X23995536Y-26263600D01*
X24022103Y-26404790D01*
X24105546Y-26534465D01*
X24232866Y-26621459D01*
X24384000Y-26652064D01*
X26416000Y-26652064D01*
X26557190Y-26625497D01*
X26686865Y-26542054D01*
X26773859Y-26414734D01*
X26804464Y-26263600D01*
X26804464Y-26122944D01*
X33074271Y-26122944D01*
X33463355Y-27034435D01*
X34171635Y-27727647D01*
X35037717Y-28086383D01*
X35433000Y-27978521D01*
X35433000Y-25727660D01*
X35687000Y-25727660D01*
X35687000Y-27978521D01*
X36082283Y-28086383D01*
X36435689Y-27940000D01*
X54455631Y-27940000D01*
X54550371Y-28416288D01*
X54820166Y-28820065D01*
X55223943Y-29089860D01*
X55700231Y-29184600D01*
X56059769Y-29184600D01*
X56536057Y-29089860D01*
X56939834Y-28820065D01*
X57209629Y-28416288D01*
X57304369Y-27940000D01*
X59535631Y-27940000D01*
X59630371Y-28416288D01*
X59900166Y-28820065D01*
X60303943Y-29089860D01*
X60780231Y-29184600D01*
X61139769Y-29184600D01*
X61616057Y-29089860D01*
X62019834Y-28820065D01*
X62289629Y-28416288D01*
X62384369Y-27940000D01*
X62289629Y-27463712D01*
X62019834Y-27059935D01*
X61616057Y-26790140D01*
X61139769Y-26695400D01*
X60780231Y-26695400D01*
X60303943Y-26790140D01*
X59900166Y-27059935D01*
X59630371Y-27463712D01*
X59535631Y-27940000D01*
X57304369Y-27940000D01*
X57209629Y-27463712D01*
X56939834Y-27059935D01*
X56536057Y-26790140D01*
X56059769Y-26695400D01*
X55700231Y-26695400D01*
X55223943Y-26790140D01*
X54820166Y-27059935D01*
X54550371Y-27463712D01*
X54455631Y-27940000D01*
X36435689Y-27940000D01*
X36948365Y-27727647D01*
X37656645Y-27034435D01*
X38045729Y-26122944D01*
X37938079Y-25727660D01*
X35687000Y-25727660D01*
X35433000Y-25727660D01*
X33181921Y-25727660D01*
X33074271Y-26122944D01*
X26804464Y-26122944D01*
X26804464Y-25078376D01*
X33074271Y-25078376D01*
X33181921Y-25473660D01*
X35433000Y-25473660D01*
X35433000Y-23222799D01*
X35687000Y-23222799D01*
X35687000Y-25473660D01*
X37938079Y-25473660D01*
X38045729Y-25078376D01*
X37889435Y-24712231D01*
X43205400Y-24712231D01*
X43205400Y-25071769D01*
X43300140Y-25548057D01*
X43569935Y-25951834D01*
X43973712Y-26221629D01*
X44450000Y-26316369D01*
X44926288Y-26221629D01*
X45330065Y-25951834D01*
X45599860Y-25548057D01*
X45694600Y-25071769D01*
X45694600Y-24712231D01*
X45745400Y-24712231D01*
X45745400Y-25071769D01*
X45840140Y-25548057D01*
X46109935Y-25951834D01*
X46513712Y-26221629D01*
X46990000Y-26316369D01*
X47466288Y-26221629D01*
X47870065Y-25951834D01*
X48139860Y-25548057D01*
X48234600Y-25071769D01*
X48234600Y-24712231D01*
X48139860Y-24235943D01*
X47899354Y-23876000D01*
X48277936Y-23876000D01*
X48277936Y-25908000D01*
X48304503Y-26049190D01*
X48387946Y-26178865D01*
X48515266Y-26265859D01*
X48666400Y-26296464D01*
X50393600Y-26296464D01*
X50534790Y-26269897D01*
X50664465Y-26186454D01*
X50751459Y-26059134D01*
X50782064Y-25908000D01*
X50782064Y-25400000D01*
X54455631Y-25400000D01*
X54550371Y-25876288D01*
X54820166Y-26280065D01*
X55223943Y-26549860D01*
X55700231Y-26644600D01*
X56059769Y-26644600D01*
X56536057Y-26549860D01*
X56939834Y-26280065D01*
X57209629Y-25876288D01*
X57304369Y-25400000D01*
X59535631Y-25400000D01*
X59630371Y-25876288D01*
X59900166Y-26280065D01*
X60303943Y-26549860D01*
X60780231Y-26644600D01*
X61139769Y-26644600D01*
X61616057Y-26549860D01*
X62019834Y-26280065D01*
X62289629Y-25876288D01*
X62384369Y-25400000D01*
X62289629Y-24923712D01*
X62019834Y-24519935D01*
X61616057Y-24250140D01*
X61139769Y-24155400D01*
X60780231Y-24155400D01*
X60303943Y-24250140D01*
X59900166Y-24519935D01*
X59630371Y-24923712D01*
X59535631Y-25400000D01*
X57304369Y-25400000D01*
X57209629Y-24923712D01*
X56939834Y-24519935D01*
X56536057Y-24250140D01*
X56059769Y-24155400D01*
X55700231Y-24155400D01*
X55223943Y-24250140D01*
X54820166Y-24519935D01*
X54550371Y-24923712D01*
X54455631Y-25400000D01*
X50782064Y-25400000D01*
X50782064Y-23876000D01*
X50755497Y-23734810D01*
X50672054Y-23605135D01*
X50544734Y-23518141D01*
X50393600Y-23487536D01*
X48666400Y-23487536D01*
X48525210Y-23514103D01*
X48395535Y-23597546D01*
X48308541Y-23724866D01*
X48277936Y-23876000D01*
X47899354Y-23876000D01*
X47870065Y-23832166D01*
X47466288Y-23562371D01*
X46990000Y-23467631D01*
X46513712Y-23562371D01*
X46109935Y-23832166D01*
X45840140Y-24235943D01*
X45745400Y-24712231D01*
X45694600Y-24712231D01*
X45599860Y-24235943D01*
X45330065Y-23832166D01*
X44926288Y-23562371D01*
X44450000Y-23467631D01*
X43973712Y-23562371D01*
X43569935Y-23832166D01*
X43300140Y-24235943D01*
X43205400Y-24712231D01*
X37889435Y-24712231D01*
X37656645Y-24166885D01*
X36948365Y-23473673D01*
X36082283Y-23114937D01*
X35687000Y-23222799D01*
X35433000Y-23222799D01*
X35037717Y-23114937D01*
X34171635Y-23473673D01*
X33463355Y-24166885D01*
X33074271Y-25078376D01*
X26804464Y-25078376D01*
X26804464Y-24536400D01*
X26777897Y-24395210D01*
X26694454Y-24265535D01*
X26567134Y-24178541D01*
X26416000Y-24147936D01*
X24384000Y-24147936D01*
X24242810Y-24174503D01*
X24113135Y-24257946D01*
X24026141Y-24385266D01*
X23995536Y-24536400D01*
X21724464Y-24536400D01*
X21697897Y-24395210D01*
X21614454Y-24265535D01*
X21487134Y-24178541D01*
X21336000Y-24147936D01*
X19304000Y-24147936D01*
X19162810Y-24174503D01*
X19033135Y-24257946D01*
X18946141Y-24385266D01*
X18915536Y-24536400D01*
X16954500Y-24536400D01*
X16954500Y-22034500D01*
X64325500Y-22034500D01*
X64325500Y-67765178D01*
X64325500Y-67765178D01*
G37*
X64325500Y-67765178D02*
X64207526Y-67588617D01*
X63795508Y-67313316D01*
X63309500Y-67216643D01*
X62823492Y-67313316D01*
X62411474Y-67588617D01*
X62136173Y-68000635D01*
X62039500Y-68486643D01*
X62039500Y-69054357D01*
X62136173Y-69540365D01*
X62411474Y-69952383D01*
X62823492Y-70227684D01*
X63309500Y-70324357D01*
X63795508Y-70227684D01*
X64207526Y-69952383D01*
X64325500Y-69775822D01*
X64325500Y-74623466D01*
X64297329Y-74588067D01*
X63775378Y-74298907D01*
X63672513Y-74275366D01*
X63436500Y-74396170D01*
X63436500Y-75882500D01*
X63456500Y-75882500D01*
X63456500Y-76136500D01*
X63436500Y-76136500D01*
X63436500Y-76156500D01*
X63182500Y-76156500D01*
X63182500Y-76136500D01*
X61785500Y-76136500D01*
X61785500Y-76390500D01*
X61950108Y-76964042D01*
X61999018Y-77025500D01*
X59619365Y-77025500D01*
X59783827Y-76779365D01*
X59880500Y-76293357D01*
X59880500Y-75725643D01*
X59861178Y-75628500D01*
X61785500Y-75628500D01*
X61785500Y-75882500D01*
X63182500Y-75882500D01*
X63182500Y-74396170D01*
X62946487Y-74275366D01*
X62843622Y-74298907D01*
X62321671Y-74588067D01*
X61950108Y-75054958D01*
X61785500Y-75628500D01*
X59861178Y-75628500D01*
X59783827Y-75239635D01*
X59508526Y-74827617D01*
X59096508Y-74552316D01*
X58610500Y-74455643D01*
X58124492Y-74552316D01*
X57712474Y-74827617D01*
X57437173Y-75239635D01*
X57340500Y-75725643D01*
X57340500Y-76293357D01*
X57437173Y-76779365D01*
X57601635Y-77025500D01*
X16954500Y-77025500D01*
X16954500Y-75073361D01*
X23405975Y-75073361D01*
X23515950Y-75339521D01*
X23719408Y-75543335D01*
X23944385Y-75636753D01*
X24953815Y-76646184D01*
X25158526Y-76782968D01*
X25198589Y-76790937D01*
X25400000Y-76831000D01*
X36195000Y-76831000D01*
X36436473Y-76782968D01*
X36641184Y-76646184D01*
X38228574Y-75058794D01*
X38576288Y-74989629D01*
X38980065Y-74719834D01*
X39249860Y-74316057D01*
X39344600Y-73839769D01*
X39344600Y-73480231D01*
X39395400Y-73480231D01*
X39395400Y-73839769D01*
X39490140Y-74316057D01*
X39759935Y-74719834D01*
X40163712Y-74989629D01*
X40640000Y-75084369D01*
X41116288Y-74989629D01*
X41520065Y-74719834D01*
X41789860Y-74316057D01*
X41884600Y-73839769D01*
X41884600Y-73480231D01*
X41789860Y-73003943D01*
X41520065Y-72600166D01*
X41401455Y-72520913D01*
X43626184Y-70296185D01*
X43762968Y-70091474D01*
X43770937Y-70051411D01*
X43811000Y-69850000D01*
X43811000Y-45720000D01*
X43762968Y-45478527D01*
X43762968Y-45478526D01*
X43626184Y-45273815D01*
X41346434Y-42994066D01*
X41261753Y-42789121D01*
X46359000Y-47886369D01*
X46359000Y-59690000D01*
X46407032Y-59931473D01*
X46543816Y-60136184D01*
X54614000Y-68206368D01*
X54614000Y-70374848D01*
X54546821Y-70231510D01*
X54114947Y-69837312D01*
X53699026Y-69665042D01*
X53467000Y-69786183D01*
X53467000Y-70993000D01*
X53487000Y-70993000D01*
X53487000Y-71247000D01*
X53467000Y-71247000D01*
X53467000Y-71267000D01*
X53213000Y-71267000D01*
X53213000Y-71247000D01*
X53193000Y-71247000D01*
X53193000Y-70993000D01*
X53213000Y-70993000D01*
X53213000Y-69786183D01*
X52980974Y-69665042D01*
X52565053Y-69837312D01*
X52133179Y-70231510D01*
X51950324Y-70621662D01*
X51949860Y-70619329D01*
X51680065Y-70215552D01*
X51276288Y-69945757D01*
X50800000Y-69851017D01*
X50323712Y-69945757D01*
X50114092Y-70085820D01*
X50160999Y-69850000D01*
X50112968Y-69608526D01*
X49976184Y-69403815D01*
X47621000Y-67048632D01*
X47621000Y-62598050D01*
X47713774Y-62374624D01*
X47714025Y-62086639D01*
X47604050Y-61820479D01*
X47400592Y-61616665D01*
X47134624Y-61506226D01*
X46846639Y-61505975D01*
X46580479Y-61615950D01*
X46376665Y-61819408D01*
X46266226Y-62085376D01*
X46265975Y-62373361D01*
X46359000Y-62598499D01*
X46359000Y-67310000D01*
X46396558Y-67498816D01*
X46407032Y-67551473D01*
X46543816Y-67756184D01*
X48732668Y-69945037D01*
X48260000Y-69851017D01*
X47783712Y-69945757D01*
X47379935Y-70215552D01*
X47110140Y-70619329D01*
X47015400Y-71095617D01*
X47015400Y-71144383D01*
X47110140Y-71620671D01*
X47379935Y-72024448D01*
X47783712Y-72294243D01*
X48260000Y-72388983D01*
X48736288Y-72294243D01*
X49022000Y-72103336D01*
X49022000Y-72390000D01*
X49025568Y-72407936D01*
X47396400Y-72407936D01*
X47255210Y-72434503D01*
X47125535Y-72517946D01*
X47038541Y-72645266D01*
X47007936Y-72796400D01*
X47007936Y-74523600D01*
X47034503Y-74664790D01*
X47117946Y-74794465D01*
X47245266Y-74881459D01*
X47396400Y-74912064D01*
X49123600Y-74912064D01*
X49264790Y-74885497D01*
X49394465Y-74802054D01*
X49481459Y-74674734D01*
X49512064Y-74523600D01*
X49512064Y-73090484D01*
X49638654Y-73217074D01*
X49555400Y-73635617D01*
X49555400Y-73684383D01*
X49650140Y-74160671D01*
X49919935Y-74564448D01*
X50323712Y-74834243D01*
X50800000Y-74928983D01*
X51276288Y-74834243D01*
X51680065Y-74564448D01*
X51949860Y-74160671D01*
X52044600Y-73684383D01*
X52044600Y-73635617D01*
X51949860Y-73159329D01*
X51680065Y-72755552D01*
X51276288Y-72485757D01*
X50800000Y-72391017D01*
X50340782Y-72482362D01*
X50038000Y-72179580D01*
X50038000Y-72103336D01*
X50323712Y-72294243D01*
X50800000Y-72388983D01*
X51276288Y-72294243D01*
X51680065Y-72024448D01*
X51949860Y-71620671D01*
X51950324Y-71618338D01*
X52133179Y-72008490D01*
X52565053Y-72402688D01*
X52826172Y-72510841D01*
X52459935Y-72755552D01*
X52190140Y-73159329D01*
X52095400Y-73635617D01*
X52095400Y-73684383D01*
X52190140Y-74160671D01*
X52459935Y-74564448D01*
X52863712Y-74834243D01*
X53340000Y-74928983D01*
X53816288Y-74834243D01*
X54220065Y-74564448D01*
X54489860Y-74160671D01*
X54584600Y-73684383D01*
X54584600Y-73635617D01*
X54530206Y-73362162D01*
X55691184Y-72201184D01*
X55827968Y-71996473D01*
X55876000Y-71755000D01*
X55876000Y-68486643D01*
X57340500Y-68486643D01*
X57340500Y-69054357D01*
X57437173Y-69540365D01*
X57712474Y-69952383D01*
X58124492Y-70227684D01*
X58610500Y-70324357D01*
X59096508Y-70227684D01*
X59508526Y-69952383D01*
X59783827Y-69540365D01*
X59880500Y-69054357D01*
X59880500Y-68486643D01*
X59783827Y-68000635D01*
X59508526Y-67588617D01*
X59096508Y-67313316D01*
X58610500Y-67216643D01*
X58124492Y-67313316D01*
X57712474Y-67588617D01*
X57437173Y-68000635D01*
X57340500Y-68486643D01*
X55876000Y-68486643D01*
X55876000Y-67945000D01*
X55827968Y-67703527D01*
X55691184Y-67498816D01*
X50828768Y-62636400D01*
X54475536Y-62636400D01*
X54475536Y-64363600D01*
X54502103Y-64504790D01*
X54585546Y-64634465D01*
X54712866Y-64721459D01*
X54864000Y-64752064D01*
X56896000Y-64752064D01*
X57037190Y-64725497D01*
X57166865Y-64642054D01*
X57253859Y-64514734D01*
X57284464Y-64363600D01*
X57284464Y-62636400D01*
X59555536Y-62636400D01*
X59555536Y-64363600D01*
X59582103Y-64504790D01*
X59665546Y-64634465D01*
X59792866Y-64721459D01*
X59944000Y-64752064D01*
X61976000Y-64752064D01*
X62117190Y-64725497D01*
X62246865Y-64642054D01*
X62333859Y-64514734D01*
X62364464Y-64363600D01*
X62364464Y-62636400D01*
X62337897Y-62495210D01*
X62254454Y-62365535D01*
X62127134Y-62278541D01*
X61976000Y-62247936D01*
X59944000Y-62247936D01*
X59802810Y-62274503D01*
X59673135Y-62357946D01*
X59586141Y-62485266D01*
X59555536Y-62636400D01*
X57284464Y-62636400D01*
X57257897Y-62495210D01*
X57174454Y-62365535D01*
X57047134Y-62278541D01*
X56896000Y-62247936D01*
X54864000Y-62247936D01*
X54722810Y-62274503D01*
X54593135Y-62357946D01*
X54506141Y-62485266D01*
X54475536Y-62636400D01*
X50828768Y-62636400D01*
X49152368Y-60960000D01*
X54455631Y-60960000D01*
X54550371Y-61436288D01*
X54820166Y-61840065D01*
X55223943Y-62109860D01*
X55700231Y-62204600D01*
X56059769Y-62204600D01*
X56536057Y-62109860D01*
X56939834Y-61840065D01*
X57209629Y-61436288D01*
X57304369Y-60960000D01*
X59535631Y-60960000D01*
X59630371Y-61436288D01*
X59900166Y-61840065D01*
X60303943Y-62109860D01*
X60780231Y-62204600D01*
X61139769Y-62204600D01*
X61616057Y-62109860D01*
X62019834Y-61840065D01*
X62289629Y-61436288D01*
X62384369Y-60960000D01*
X62289629Y-60483712D01*
X62019834Y-60079935D01*
X61616057Y-59810140D01*
X61139769Y-59715400D01*
X60780231Y-59715400D01*
X60303943Y-59810140D01*
X59900166Y-60079935D01*
X59630371Y-60483712D01*
X59535631Y-60960000D01*
X57304369Y-60960000D01*
X57209629Y-60483712D01*
X56939834Y-60079935D01*
X56536057Y-59810140D01*
X56059769Y-59715400D01*
X55700231Y-59715400D01*
X55223943Y-59810140D01*
X54820166Y-60079935D01*
X54550371Y-60483712D01*
X54455631Y-60960000D01*
X49152368Y-60960000D01*
X47621000Y-59428632D01*
X47621000Y-58420000D01*
X54455631Y-58420000D01*
X54550371Y-58896288D01*
X54820166Y-59300065D01*
X55223943Y-59569860D01*
X55700231Y-59664600D01*
X56059769Y-59664600D01*
X56536057Y-59569860D01*
X56939834Y-59300065D01*
X57209629Y-58896288D01*
X57304369Y-58420000D01*
X59535631Y-58420000D01*
X59630371Y-58896288D01*
X59900166Y-59300065D01*
X60303943Y-59569860D01*
X60780231Y-59664600D01*
X61139769Y-59664600D01*
X61616057Y-59569860D01*
X62019834Y-59300065D01*
X62289629Y-58896288D01*
X62384369Y-58420000D01*
X62289629Y-57943712D01*
X62019834Y-57539935D01*
X61616057Y-57270140D01*
X61139769Y-57175400D01*
X60780231Y-57175400D01*
X60303943Y-57270140D01*
X59900166Y-57539935D01*
X59630371Y-57943712D01*
X59535631Y-58420000D01*
X57304369Y-58420000D01*
X57209629Y-57943712D01*
X56939834Y-57539935D01*
X56536057Y-57270140D01*
X56059769Y-57175400D01*
X55700231Y-57175400D01*
X55223943Y-57270140D01*
X54820166Y-57539935D01*
X54550371Y-57943712D01*
X54455631Y-58420000D01*
X47621000Y-58420000D01*
X47621000Y-55880000D01*
X54455631Y-55880000D01*
X54550371Y-56356288D01*
X54820166Y-56760065D01*
X55223943Y-57029860D01*
X55700231Y-57124600D01*
X56059769Y-57124600D01*
X56536057Y-57029860D01*
X56939834Y-56760065D01*
X57209629Y-56356288D01*
X57304369Y-55880000D01*
X59535631Y-55880000D01*
X59630371Y-56356288D01*
X59900166Y-56760065D01*
X60303943Y-57029860D01*
X60780231Y-57124600D01*
X61139769Y-57124600D01*
X61616057Y-57029860D01*
X62019834Y-56760065D01*
X62289629Y-56356288D01*
X62384369Y-55880000D01*
X62289629Y-55403712D01*
X62019834Y-54999935D01*
X61616057Y-54730140D01*
X61139769Y-54635400D01*
X60780231Y-54635400D01*
X60303943Y-54730140D01*
X59900166Y-54999935D01*
X59630371Y-55403712D01*
X59535631Y-55880000D01*
X57304369Y-55880000D01*
X57209629Y-55403712D01*
X56939834Y-54999935D01*
X56536057Y-54730140D01*
X56059769Y-54635400D01*
X55700231Y-54635400D01*
X55223943Y-54730140D01*
X54820166Y-54999935D01*
X54550371Y-55403712D01*
X54455631Y-55880000D01*
X47621000Y-55880000D01*
X47621000Y-53340000D01*
X54455631Y-53340000D01*
X54550371Y-53816288D01*
X54820166Y-54220065D01*
X55223943Y-54489860D01*
X55700231Y-54584600D01*
X56059769Y-54584600D01*
X56536057Y-54489860D01*
X56939834Y-54220065D01*
X57209629Y-53816288D01*
X57304369Y-53340000D01*
X59535631Y-53340000D01*
X59630371Y-53816288D01*
X59900166Y-54220065D01*
X60303943Y-54489860D01*
X60780231Y-54584600D01*
X61139769Y-54584600D01*
X61616057Y-54489860D01*
X62019834Y-54220065D01*
X62289629Y-53816288D01*
X62384369Y-53340000D01*
X62289629Y-52863712D01*
X62019834Y-52459935D01*
X61616057Y-52190140D01*
X61139769Y-52095400D01*
X60780231Y-52095400D01*
X60303943Y-52190140D01*
X59900166Y-52459935D01*
X59630371Y-52863712D01*
X59535631Y-53340000D01*
X57304369Y-53340000D01*
X57209629Y-52863712D01*
X56939834Y-52459935D01*
X56536057Y-52190140D01*
X56059769Y-52095400D01*
X55700231Y-52095400D01*
X55223943Y-52190140D01*
X54820166Y-52459935D01*
X54550371Y-52863712D01*
X54455631Y-53340000D01*
X47621000Y-53340000D01*
X47621000Y-50800000D01*
X54455631Y-50800000D01*
X54550371Y-51276288D01*
X54820166Y-51680065D01*
X55223943Y-51949860D01*
X55700231Y-52044600D01*
X56059769Y-52044600D01*
X56536057Y-51949860D01*
X56939834Y-51680065D01*
X57209629Y-51276288D01*
X57304369Y-50800000D01*
X59535631Y-50800000D01*
X59630371Y-51276288D01*
X59900166Y-51680065D01*
X60303943Y-51949860D01*
X60780231Y-52044600D01*
X61139769Y-52044600D01*
X61616057Y-51949860D01*
X62019834Y-51680065D01*
X62289629Y-51276288D01*
X62384369Y-50800000D01*
X62289629Y-50323712D01*
X62019834Y-49919935D01*
X61616057Y-49650140D01*
X61139769Y-49555400D01*
X60780231Y-49555400D01*
X60303943Y-49650140D01*
X59900166Y-49919935D01*
X59630371Y-50323712D01*
X59535631Y-50800000D01*
X57304369Y-50800000D01*
X57209629Y-50323712D01*
X56939834Y-49919935D01*
X56536057Y-49650140D01*
X56059769Y-49555400D01*
X55700231Y-49555400D01*
X55223943Y-49650140D01*
X54820166Y-49919935D01*
X54550371Y-50323712D01*
X54455631Y-50800000D01*
X47621000Y-50800000D01*
X47621000Y-48260000D01*
X54455631Y-48260000D01*
X54550371Y-48736288D01*
X54820166Y-49140065D01*
X55223943Y-49409860D01*
X55700231Y-49504600D01*
X56059769Y-49504600D01*
X56536057Y-49409860D01*
X56939834Y-49140065D01*
X57209629Y-48736288D01*
X57304369Y-48260000D01*
X59535631Y-48260000D01*
X59630371Y-48736288D01*
X59900166Y-49140065D01*
X60303943Y-49409860D01*
X60780231Y-49504600D01*
X61139769Y-49504600D01*
X61616057Y-49409860D01*
X62019834Y-49140065D01*
X62289629Y-48736288D01*
X62384369Y-48260000D01*
X62289629Y-47783712D01*
X62019834Y-47379935D01*
X61616057Y-47110140D01*
X61139769Y-47015400D01*
X60780231Y-47015400D01*
X60303943Y-47110140D01*
X59900166Y-47379935D01*
X59630371Y-47783712D01*
X59535631Y-48260000D01*
X57304369Y-48260000D01*
X57209629Y-47783712D01*
X56939834Y-47379935D01*
X56536057Y-47110140D01*
X56059769Y-47015400D01*
X55700231Y-47015400D01*
X55223943Y-47110140D01*
X54820166Y-47379935D01*
X54550371Y-47783712D01*
X54455631Y-48260000D01*
X47621000Y-48260000D01*
X47621000Y-47625000D01*
X47572968Y-47383527D01*
X47453803Y-47205184D01*
X47436185Y-47178816D01*
X43796395Y-43539026D01*
X54272642Y-43539026D01*
X54275291Y-43554791D01*
X54529268Y-44082036D01*
X54965680Y-44471954D01*
X55238243Y-44567296D01*
X55223943Y-44570140D01*
X54820166Y-44839935D01*
X54550371Y-45243712D01*
X54455631Y-45720000D01*
X54550371Y-46196288D01*
X54820166Y-46600065D01*
X55223943Y-46869860D01*
X55700231Y-46964600D01*
X56059769Y-46964600D01*
X56536057Y-46869860D01*
X56939834Y-46600065D01*
X57209629Y-46196288D01*
X57304369Y-45720000D01*
X57209629Y-45243712D01*
X56939834Y-44839935D01*
X56536057Y-44570140D01*
X56521757Y-44567296D01*
X56794320Y-44471954D01*
X57230732Y-44082036D01*
X57484709Y-43554791D01*
X57487358Y-43539026D01*
X59352642Y-43539026D01*
X59355291Y-43554791D01*
X59609268Y-44082036D01*
X60045680Y-44471954D01*
X60318243Y-44567296D01*
X60303943Y-44570140D01*
X59900166Y-44839935D01*
X59630371Y-45243712D01*
X59535631Y-45720000D01*
X59630371Y-46196288D01*
X59900166Y-46600065D01*
X60303943Y-46869860D01*
X60780231Y-46964600D01*
X61139769Y-46964600D01*
X61616057Y-46869860D01*
X62019834Y-46600065D01*
X62289629Y-46196288D01*
X62384369Y-45720000D01*
X62289629Y-45243712D01*
X62019834Y-44839935D01*
X61616057Y-44570140D01*
X61601757Y-44567296D01*
X61874320Y-44471954D01*
X62310732Y-44082036D01*
X62564709Y-43554791D01*
X62567358Y-43539026D01*
X62446217Y-43307000D01*
X61087000Y-43307000D01*
X61087000Y-43327000D01*
X60833000Y-43327000D01*
X60833000Y-43307000D01*
X59473783Y-43307000D01*
X59352642Y-43539026D01*
X57487358Y-43539026D01*
X57366217Y-43307000D01*
X56007000Y-43307000D01*
X56007000Y-43327000D01*
X55753000Y-43327000D01*
X55753000Y-43307000D01*
X54393783Y-43307000D01*
X54272642Y-43539026D01*
X43796395Y-43539026D01*
X43078343Y-42820974D01*
X54272642Y-42820974D01*
X54393783Y-43053000D01*
X55753000Y-43053000D01*
X55753000Y-43033000D01*
X56007000Y-43033000D01*
X56007000Y-43053000D01*
X57366217Y-43053000D01*
X57487358Y-42820974D01*
X59352642Y-42820974D01*
X59473783Y-43053000D01*
X60833000Y-43053000D01*
X60833000Y-43033000D01*
X61087000Y-43033000D01*
X61087000Y-43053000D01*
X62446217Y-43053000D01*
X62567358Y-42820974D01*
X62564709Y-42805209D01*
X62310732Y-42277964D01*
X61874320Y-41888046D01*
X61601757Y-41792704D01*
X61616057Y-41789860D01*
X62019834Y-41520065D01*
X62289629Y-41116288D01*
X62384369Y-40640000D01*
X62289629Y-40163712D01*
X62019834Y-39759935D01*
X61616057Y-39490140D01*
X61139769Y-39395400D01*
X60780231Y-39395400D01*
X60303943Y-39490140D01*
X59900166Y-39759935D01*
X59630371Y-40163712D01*
X59535631Y-40640000D01*
X59630371Y-41116288D01*
X59900166Y-41520065D01*
X60303943Y-41789860D01*
X60318243Y-41792704D01*
X60045680Y-41888046D01*
X59609268Y-42277964D01*
X59355291Y-42805209D01*
X59352642Y-42820974D01*
X57487358Y-42820974D01*
X57484709Y-42805209D01*
X57230732Y-42277964D01*
X56794320Y-41888046D01*
X56521757Y-41792704D01*
X56536057Y-41789860D01*
X56939834Y-41520065D01*
X57209629Y-41116288D01*
X57304369Y-40640000D01*
X57209629Y-40163712D01*
X56939834Y-39759935D01*
X56536057Y-39490140D01*
X56059769Y-39395400D01*
X55700231Y-39395400D01*
X55223943Y-39490140D01*
X54820166Y-39759935D01*
X54550371Y-40163712D01*
X54455631Y-40640000D01*
X54550371Y-41116288D01*
X54820166Y-41520065D01*
X55223943Y-41789860D01*
X55238243Y-41792704D01*
X54965680Y-41888046D01*
X54529268Y-42277964D01*
X54275291Y-42805209D01*
X54272642Y-42820974D01*
X43078343Y-42820974D01*
X41981434Y-41724066D01*
X41889050Y-41500479D01*
X41685592Y-41296665D01*
X41419624Y-41186226D01*
X41131639Y-41185975D01*
X40865479Y-41295950D01*
X40661665Y-41499408D01*
X40551226Y-41765376D01*
X40550975Y-42053361D01*
X40660950Y-42319521D01*
X40806473Y-42465298D01*
X40784624Y-42456226D01*
X40496639Y-42455975D01*
X40230479Y-42565950D01*
X40026665Y-42769408D01*
X39916226Y-43035376D01*
X39915975Y-43323361D01*
X40025950Y-43589521D01*
X40229408Y-43793335D01*
X40454385Y-43886753D01*
X42549000Y-45981369D01*
X42549000Y-69588631D01*
X40193816Y-71943816D01*
X40057032Y-72148527D01*
X40009000Y-72390000D01*
X40009000Y-72433746D01*
X39759935Y-72600166D01*
X39490140Y-73003943D01*
X39395400Y-73480231D01*
X39344600Y-73480231D01*
X39249860Y-73003943D01*
X38980065Y-72600166D01*
X38576288Y-72330371D01*
X38100000Y-72235631D01*
X37623712Y-72330371D01*
X37219935Y-72600166D01*
X36950140Y-73003943D01*
X36855400Y-73480231D01*
X36855400Y-73839769D01*
X36950140Y-74316057D01*
X37044843Y-74457789D01*
X35933632Y-75569000D01*
X25661369Y-75569000D01*
X24836434Y-74744066D01*
X24744050Y-74520479D01*
X24540592Y-74316665D01*
X24274624Y-74206226D01*
X23986639Y-74205975D01*
X23720479Y-74315950D01*
X23516665Y-74519408D01*
X23406226Y-74785376D01*
X23405975Y-75073361D01*
X16954500Y-75073361D01*
X16954500Y-73945750D01*
X26441400Y-73945750D01*
X26441400Y-74802309D01*
X26538073Y-75035698D01*
X26716701Y-75214327D01*
X26950090Y-75311000D01*
X27654250Y-75311000D01*
X27813000Y-75152250D01*
X27813000Y-73787000D01*
X28067000Y-73787000D01*
X28067000Y-75152250D01*
X28225750Y-75311000D01*
X28929910Y-75311000D01*
X29163299Y-75214327D01*
X29341927Y-75035698D01*
X29423759Y-74838139D01*
X29577964Y-75010732D01*
X30105209Y-75264709D01*
X30120974Y-75267358D01*
X30353000Y-75146217D01*
X30353000Y-73787000D01*
X28067000Y-73787000D01*
X27813000Y-73787000D01*
X26600150Y-73787000D01*
X26441400Y-73945750D01*
X16954500Y-73945750D01*
X16954500Y-72517691D01*
X26441400Y-72517691D01*
X26441400Y-73374250D01*
X26600150Y-73533000D01*
X27813000Y-73533000D01*
X27813000Y-72167750D01*
X28067000Y-72167750D01*
X28067000Y-73533000D01*
X30353000Y-73533000D01*
X30353000Y-72173783D01*
X30607000Y-72173783D01*
X30607000Y-73533000D01*
X30627000Y-73533000D01*
X30627000Y-73787000D01*
X30607000Y-73787000D01*
X30607000Y-75146217D01*
X30839026Y-75267358D01*
X30854791Y-75264709D01*
X31382036Y-75010732D01*
X31771954Y-74574320D01*
X31867296Y-74301757D01*
X31870140Y-74316057D01*
X32139935Y-74719834D01*
X32543712Y-74989629D01*
X33020000Y-75084369D01*
X33496288Y-74989629D01*
X33900065Y-74719834D01*
X34169860Y-74316057D01*
X34264600Y-73839769D01*
X34264600Y-73480231D01*
X34169860Y-73003943D01*
X33900065Y-72600166D01*
X33496288Y-72330371D01*
X33020000Y-72235631D01*
X32543712Y-72330371D01*
X32139935Y-72600166D01*
X31870140Y-73003943D01*
X31867296Y-73018243D01*
X31771954Y-72745680D01*
X31382036Y-72309268D01*
X30854791Y-72055291D01*
X30839026Y-72052642D01*
X30607000Y-72173783D01*
X30353000Y-72173783D01*
X30120974Y-72052642D01*
X30105209Y-72055291D01*
X29577964Y-72309268D01*
X29423759Y-72481861D01*
X29341927Y-72284302D01*
X29163299Y-72105673D01*
X28929910Y-72009000D01*
X28225750Y-72009000D01*
X28067000Y-72167750D01*
X27813000Y-72167750D01*
X27654250Y-72009000D01*
X26950090Y-72009000D01*
X26716701Y-72105673D01*
X26538073Y-72284302D01*
X26441400Y-72517691D01*
X16954500Y-72517691D01*
X16954500Y-63500000D01*
X18895631Y-63500000D01*
X18990371Y-63976288D01*
X19260166Y-64380065D01*
X19663943Y-64649860D01*
X20140231Y-64744600D01*
X20499769Y-64744600D01*
X20976057Y-64649860D01*
X21379834Y-64380065D01*
X21649629Y-63976288D01*
X21744369Y-63500000D01*
X23975631Y-63500000D01*
X24070371Y-63976288D01*
X24340166Y-64380065D01*
X24743943Y-64649860D01*
X25220231Y-64744600D01*
X25579769Y-64744600D01*
X26056057Y-64649860D01*
X26459834Y-64380065D01*
X26729629Y-63976288D01*
X26824369Y-63500000D01*
X26729629Y-63023712D01*
X26459834Y-62619935D01*
X26056057Y-62350140D01*
X25579769Y-62255400D01*
X25220231Y-62255400D01*
X24743943Y-62350140D01*
X24340166Y-62619935D01*
X24070371Y-63023712D01*
X23975631Y-63500000D01*
X21744369Y-63500000D01*
X21649629Y-63023712D01*
X21379834Y-62619935D01*
X20976057Y-62350140D01*
X20499769Y-62255400D01*
X20140231Y-62255400D01*
X19663943Y-62350140D01*
X19260166Y-62619935D01*
X18990371Y-63023712D01*
X18895631Y-63500000D01*
X16954500Y-63500000D01*
X16954500Y-60960000D01*
X18895631Y-60960000D01*
X18990371Y-61436288D01*
X19260166Y-61840065D01*
X19663943Y-62109860D01*
X20140231Y-62204600D01*
X20499769Y-62204600D01*
X20976057Y-62109860D01*
X21379834Y-61840065D01*
X21649629Y-61436288D01*
X21744369Y-60960000D01*
X23975631Y-60960000D01*
X24070371Y-61436288D01*
X24340166Y-61840065D01*
X24743943Y-62109860D01*
X25220231Y-62204600D01*
X25579769Y-62204600D01*
X26056057Y-62109860D01*
X26459834Y-61840065D01*
X26729629Y-61436288D01*
X26824369Y-60960000D01*
X26729629Y-60483712D01*
X26459834Y-60079935D01*
X26056057Y-59810140D01*
X25579769Y-59715400D01*
X25220231Y-59715400D01*
X24743943Y-59810140D01*
X24340166Y-60079935D01*
X24070371Y-60483712D01*
X23975631Y-60960000D01*
X21744369Y-60960000D01*
X21649629Y-60483712D01*
X21379834Y-60079935D01*
X20976057Y-59810140D01*
X20499769Y-59715400D01*
X20140231Y-59715400D01*
X19663943Y-59810140D01*
X19260166Y-60079935D01*
X18990371Y-60483712D01*
X18895631Y-60960000D01*
X16954500Y-60960000D01*
X16954500Y-58420000D01*
X18895631Y-58420000D01*
X18990371Y-58896288D01*
X19260166Y-59300065D01*
X19663943Y-59569860D01*
X20140231Y-59664600D01*
X20499769Y-59664600D01*
X20976057Y-59569860D01*
X21379834Y-59300065D01*
X21649629Y-58896288D01*
X21744369Y-58420000D01*
X23975631Y-58420000D01*
X24070371Y-58896288D01*
X24340166Y-59300065D01*
X24743943Y-59569860D01*
X25220231Y-59664600D01*
X25579769Y-59664600D01*
X26056057Y-59569860D01*
X26459834Y-59300065D01*
X26729629Y-58896288D01*
X26824369Y-58420000D01*
X26729629Y-57943712D01*
X26459834Y-57539935D01*
X26056057Y-57270140D01*
X25579769Y-57175400D01*
X25220231Y-57175400D01*
X24743943Y-57270140D01*
X24340166Y-57539935D01*
X24070371Y-57943712D01*
X23975631Y-58420000D01*
X21744369Y-58420000D01*
X21649629Y-57943712D01*
X21379834Y-57539935D01*
X20976057Y-57270140D01*
X20499769Y-57175400D01*
X20140231Y-57175400D01*
X19663943Y-57270140D01*
X19260166Y-57539935D01*
X18990371Y-57943712D01*
X18895631Y-58420000D01*
X16954500Y-58420000D01*
X16954500Y-55880000D01*
X18895631Y-55880000D01*
X18990371Y-56356288D01*
X19260166Y-56760065D01*
X19663943Y-57029860D01*
X20140231Y-57124600D01*
X20499769Y-57124600D01*
X20976057Y-57029860D01*
X21379834Y-56760065D01*
X21649629Y-56356288D01*
X21744369Y-55880000D01*
X23975631Y-55880000D01*
X24070371Y-56356288D01*
X24340166Y-56760065D01*
X24743943Y-57029860D01*
X25220231Y-57124600D01*
X25579769Y-57124600D01*
X26056057Y-57029860D01*
X26459834Y-56760065D01*
X26729629Y-56356288D01*
X26824369Y-55880000D01*
X26729629Y-55403712D01*
X26459834Y-54999935D01*
X26063385Y-54735036D01*
X29348234Y-54735036D01*
X29520142Y-55151086D01*
X29838180Y-55469679D01*
X30253929Y-55642313D01*
X30704096Y-55642706D01*
X31120146Y-55470798D01*
X31438739Y-55152760D01*
X31611373Y-54737011D01*
X31611766Y-54286844D01*
X31439858Y-53870794D01*
X31121820Y-53552201D01*
X30706071Y-53379567D01*
X30255904Y-53379174D01*
X29839854Y-53551082D01*
X29521261Y-53869120D01*
X29348627Y-54284869D01*
X29348234Y-54735036D01*
X26063385Y-54735036D01*
X26056057Y-54730140D01*
X25579769Y-54635400D01*
X25220231Y-54635400D01*
X24743943Y-54730140D01*
X24340166Y-54999935D01*
X24070371Y-55403712D01*
X23975631Y-55880000D01*
X21744369Y-55880000D01*
X21649629Y-55403712D01*
X21379834Y-54999935D01*
X20976057Y-54730140D01*
X20499769Y-54635400D01*
X20140231Y-54635400D01*
X19663943Y-54730140D01*
X19260166Y-54999935D01*
X18990371Y-55403712D01*
X18895631Y-55880000D01*
X16954500Y-55880000D01*
X16954500Y-53340000D01*
X18895631Y-53340000D01*
X18990371Y-53816288D01*
X19260166Y-54220065D01*
X19663943Y-54489860D01*
X20140231Y-54584600D01*
X20499769Y-54584600D01*
X20976057Y-54489860D01*
X21379834Y-54220065D01*
X21649629Y-53816288D01*
X21744369Y-53340000D01*
X23975631Y-53340000D01*
X24070371Y-53816288D01*
X24340166Y-54220065D01*
X24743943Y-54489860D01*
X25220231Y-54584600D01*
X25579769Y-54584600D01*
X26056057Y-54489860D01*
X26459834Y-54220065D01*
X26729629Y-53816288D01*
X26824369Y-53340000D01*
X26729629Y-52863712D01*
X26459834Y-52459935D01*
X26056057Y-52190140D01*
X25579769Y-52095400D01*
X25220231Y-52095400D01*
X24743943Y-52190140D01*
X24340166Y-52459935D01*
X24070371Y-52863712D01*
X23975631Y-53340000D01*
X21744369Y-53340000D01*
X21649629Y-52863712D01*
X21379834Y-52459935D01*
X20976057Y-52190140D01*
X20499769Y-52095400D01*
X20140231Y-52095400D01*
X19663943Y-52190140D01*
X19260166Y-52459935D01*
X18990371Y-52863712D01*
X18895631Y-53340000D01*
X16954500Y-53340000D01*
X16954500Y-50800000D01*
X18895631Y-50800000D01*
X18990371Y-51276288D01*
X19260166Y-51680065D01*
X19663943Y-51949860D01*
X20140231Y-52044600D01*
X20499769Y-52044600D01*
X20976057Y-51949860D01*
X21379834Y-51680065D01*
X21649629Y-51276288D01*
X21744369Y-50800000D01*
X23975631Y-50800000D01*
X24070371Y-51276288D01*
X24340166Y-51680065D01*
X24743943Y-51949860D01*
X25220231Y-52044600D01*
X25579769Y-52044600D01*
X26056057Y-51949860D01*
X26459834Y-51680065D01*
X26729629Y-51276288D01*
X26824369Y-50800000D01*
X26729629Y-50323712D01*
X26459834Y-49919935D01*
X26359893Y-49853156D01*
X29348234Y-49853156D01*
X29520142Y-50269206D01*
X29838180Y-50587799D01*
X30253929Y-50760433D01*
X30704096Y-50760826D01*
X31120146Y-50588918D01*
X31438739Y-50270880D01*
X31611373Y-49855131D01*
X31611766Y-49404964D01*
X31439858Y-48988914D01*
X31121820Y-48670321D01*
X30706071Y-48497687D01*
X30255904Y-48497294D01*
X29839854Y-48669202D01*
X29521261Y-48987240D01*
X29348627Y-49402989D01*
X29348234Y-49853156D01*
X26359893Y-49853156D01*
X26056057Y-49650140D01*
X25579769Y-49555400D01*
X25220231Y-49555400D01*
X24743943Y-49650140D01*
X24340166Y-49919935D01*
X24070371Y-50323712D01*
X23975631Y-50800000D01*
X21744369Y-50800000D01*
X21649629Y-50323712D01*
X21379834Y-49919935D01*
X20976057Y-49650140D01*
X20499769Y-49555400D01*
X20140231Y-49555400D01*
X19663943Y-49650140D01*
X19260166Y-49919935D01*
X18990371Y-50323712D01*
X18895631Y-50800000D01*
X16954500Y-50800000D01*
X16954500Y-46079026D01*
X18712642Y-46079026D01*
X18715291Y-46094791D01*
X18969268Y-46622036D01*
X19405680Y-47011954D01*
X19678243Y-47107296D01*
X19663943Y-47110140D01*
X19260166Y-47379935D01*
X18990371Y-47783712D01*
X18895631Y-48260000D01*
X18990371Y-48736288D01*
X19260166Y-49140065D01*
X19663943Y-49409860D01*
X20140231Y-49504600D01*
X20499769Y-49504600D01*
X20976057Y-49409860D01*
X21379834Y-49140065D01*
X21649629Y-48736288D01*
X21744369Y-48260000D01*
X21649629Y-47783712D01*
X21379834Y-47379935D01*
X20976057Y-47110140D01*
X20961757Y-47107296D01*
X21234320Y-47011954D01*
X21670732Y-46622036D01*
X21924709Y-46094791D01*
X21927358Y-46079026D01*
X23792642Y-46079026D01*
X23795291Y-46094791D01*
X24049268Y-46622036D01*
X24485680Y-47011954D01*
X24758243Y-47107296D01*
X24743943Y-47110140D01*
X24340166Y-47379935D01*
X24070371Y-47783712D01*
X23975631Y-48260000D01*
X24070371Y-48736288D01*
X24340166Y-49140065D01*
X24743943Y-49409860D01*
X25220231Y-49504600D01*
X25579769Y-49504600D01*
X26056057Y-49409860D01*
X26459834Y-49140065D01*
X26729629Y-48736288D01*
X26824369Y-48260000D01*
X26729629Y-47783712D01*
X26459834Y-47379935D01*
X26056057Y-47110140D01*
X26041757Y-47107296D01*
X26314320Y-47011954D01*
X26750732Y-46622036D01*
X27004709Y-46094791D01*
X27007358Y-46079026D01*
X26886217Y-45847000D01*
X25527000Y-45847000D01*
X25527000Y-45867000D01*
X25273000Y-45867000D01*
X25273000Y-45847000D01*
X23913783Y-45847000D01*
X23792642Y-46079026D01*
X21927358Y-46079026D01*
X21806217Y-45847000D01*
X20447000Y-45847000D01*
X20447000Y-45867000D01*
X20193000Y-45867000D01*
X20193000Y-45847000D01*
X18833783Y-45847000D01*
X18712642Y-46079026D01*
X16954500Y-46079026D01*
X16954500Y-40999026D01*
X18712642Y-40999026D01*
X18715291Y-41014791D01*
X18969268Y-41542036D01*
X19405680Y-41931954D01*
X19678243Y-42027296D01*
X19663943Y-42030140D01*
X19260166Y-42299935D01*
X18990371Y-42703712D01*
X18895631Y-43180000D01*
X18990371Y-43656288D01*
X19260166Y-44060065D01*
X19663943Y-44329860D01*
X19678243Y-44332704D01*
X19405680Y-44428046D01*
X18969268Y-44817964D01*
X18715291Y-45345209D01*
X18712642Y-45360974D01*
X18833783Y-45593000D01*
X20193000Y-45593000D01*
X20193000Y-45573000D01*
X20447000Y-45573000D01*
X20447000Y-45593000D01*
X21806217Y-45593000D01*
X21927358Y-45360974D01*
X21924709Y-45345209D01*
X21670732Y-44817964D01*
X21234320Y-44428046D01*
X20961757Y-44332704D01*
X20976057Y-44329860D01*
X21379834Y-44060065D01*
X21649629Y-43656288D01*
X21744369Y-43180000D01*
X21649629Y-42703712D01*
X21379834Y-42299935D01*
X20976057Y-42030140D01*
X20961757Y-42027296D01*
X21234320Y-41931954D01*
X21670732Y-41542036D01*
X21924709Y-41014791D01*
X21927358Y-40999026D01*
X23792642Y-40999026D01*
X23795291Y-41014791D01*
X24049268Y-41542036D01*
X24485680Y-41931954D01*
X24758243Y-42027296D01*
X24743943Y-42030140D01*
X24340166Y-42299935D01*
X24070371Y-42703712D01*
X23975631Y-43180000D01*
X24070371Y-43656288D01*
X24340166Y-44060065D01*
X24743943Y-44329860D01*
X24758243Y-44332704D01*
X24485680Y-44428046D01*
X24049268Y-44817964D01*
X23795291Y-45345209D01*
X23792642Y-45360974D01*
X23913783Y-45593000D01*
X25273000Y-45593000D01*
X25273000Y-45573000D01*
X25527000Y-45573000D01*
X25527000Y-45593000D01*
X26886217Y-45593000D01*
X27007358Y-45360974D01*
X27004709Y-45345209D01*
X26750732Y-44817964D01*
X26314320Y-44428046D01*
X26041757Y-44332704D01*
X26056057Y-44329860D01*
X26459834Y-44060065D01*
X26729629Y-43656288D01*
X26824369Y-43180000D01*
X26729629Y-42703712D01*
X26459834Y-42299935D01*
X26056057Y-42030140D01*
X26041757Y-42027296D01*
X26314320Y-41931954D01*
X26750732Y-41542036D01*
X27004709Y-41014791D01*
X27007358Y-40999026D01*
X26886217Y-40767000D01*
X25527000Y-40767000D01*
X25527000Y-40787000D01*
X25273000Y-40787000D01*
X25273000Y-40767000D01*
X23913783Y-40767000D01*
X23792642Y-40999026D01*
X21927358Y-40999026D01*
X21806217Y-40767000D01*
X20447000Y-40767000D01*
X20447000Y-40787000D01*
X20193000Y-40787000D01*
X20193000Y-40767000D01*
X18833783Y-40767000D01*
X18712642Y-40999026D01*
X16954500Y-40999026D01*
X16954500Y-40280974D01*
X18712642Y-40280974D01*
X18833783Y-40513000D01*
X20193000Y-40513000D01*
X20193000Y-40493000D01*
X20447000Y-40493000D01*
X20447000Y-40513000D01*
X21806217Y-40513000D01*
X21927358Y-40280974D01*
X23792642Y-40280974D01*
X23913783Y-40513000D01*
X25273000Y-40513000D01*
X25273000Y-40493000D01*
X25527000Y-40493000D01*
X25527000Y-40513000D01*
X26886217Y-40513000D01*
X27007358Y-40280974D01*
X27004709Y-40265209D01*
X26750732Y-39737964D01*
X26314320Y-39348046D01*
X26041757Y-39252704D01*
X26056057Y-39249860D01*
X26459834Y-38980065D01*
X26729629Y-38576288D01*
X26824369Y-38100000D01*
X26729629Y-37623712D01*
X26459834Y-37219935D01*
X26056057Y-36950140D01*
X25579769Y-36855400D01*
X25220231Y-36855400D01*
X24743943Y-36950140D01*
X24340166Y-37219935D01*
X24070371Y-37623712D01*
X23975631Y-38100000D01*
X24070371Y-38576288D01*
X24340166Y-38980065D01*
X24743943Y-39249860D01*
X24758243Y-39252704D01*
X24485680Y-39348046D01*
X24049268Y-39737964D01*
X23795291Y-40265209D01*
X23792642Y-40280974D01*
X21927358Y-40280974D01*
X21924709Y-40265209D01*
X21670732Y-39737964D01*
X21234320Y-39348046D01*
X20961757Y-39252704D01*
X20976057Y-39249860D01*
X21379834Y-38980065D01*
X21649629Y-38576288D01*
X21744369Y-38100000D01*
X21649629Y-37623712D01*
X21379834Y-37219935D01*
X20976057Y-36950140D01*
X20499769Y-36855400D01*
X20140231Y-36855400D01*
X19663943Y-36950140D01*
X19260166Y-37219935D01*
X18990371Y-37623712D01*
X18895631Y-38100000D01*
X18990371Y-38576288D01*
X19260166Y-38980065D01*
X19663943Y-39249860D01*
X19678243Y-39252704D01*
X19405680Y-39348046D01*
X18969268Y-39737964D01*
X18715291Y-40265209D01*
X18712642Y-40280974D01*
X16954500Y-40280974D01*
X16954500Y-35560000D01*
X18895631Y-35560000D01*
X18990371Y-36036288D01*
X19260166Y-36440065D01*
X19663943Y-36709860D01*
X20140231Y-36804600D01*
X20499769Y-36804600D01*
X20976057Y-36709860D01*
X21379834Y-36440065D01*
X21649629Y-36036288D01*
X21744369Y-35560000D01*
X23975631Y-35560000D01*
X24070371Y-36036288D01*
X24340166Y-36440065D01*
X24743943Y-36709860D01*
X25220231Y-36804600D01*
X25579769Y-36804600D01*
X26056057Y-36709860D01*
X26459834Y-36440065D01*
X26729629Y-36036288D01*
X26824369Y-35560000D01*
X26729629Y-35083712D01*
X26459834Y-34679935D01*
X26056057Y-34410140D01*
X25579769Y-34315400D01*
X25220231Y-34315400D01*
X24743943Y-34410140D01*
X24340166Y-34679935D01*
X24070371Y-35083712D01*
X23975631Y-35560000D01*
X21744369Y-35560000D01*
X21649629Y-35083712D01*
X21379834Y-34679935D01*
X20976057Y-34410140D01*
X20499769Y-34315400D01*
X20140231Y-34315400D01*
X19663943Y-34410140D01*
X19260166Y-34679935D01*
X18990371Y-35083712D01*
X18895631Y-35560000D01*
X16954500Y-35560000D01*
X16954500Y-33020000D01*
X18895631Y-33020000D01*
X18990371Y-33496288D01*
X19260166Y-33900065D01*
X19663943Y-34169860D01*
X20140231Y-34264600D01*
X20499769Y-34264600D01*
X20976057Y-34169860D01*
X21379834Y-33900065D01*
X21649629Y-33496288D01*
X21744369Y-33020000D01*
X23975631Y-33020000D01*
X24070371Y-33496288D01*
X24340166Y-33900065D01*
X24743943Y-34169860D01*
X25220231Y-34264600D01*
X25579769Y-34264600D01*
X26056057Y-34169860D01*
X26459834Y-33900065D01*
X26729629Y-33496288D01*
X26824369Y-33020000D01*
X26729629Y-32543712D01*
X26459834Y-32139935D01*
X26056057Y-31870140D01*
X25579769Y-31775400D01*
X25220231Y-31775400D01*
X24743943Y-31870140D01*
X24340166Y-32139935D01*
X24070371Y-32543712D01*
X23975631Y-33020000D01*
X21744369Y-33020000D01*
X21649629Y-32543712D01*
X21379834Y-32139935D01*
X20976057Y-31870140D01*
X20499769Y-31775400D01*
X20140231Y-31775400D01*
X19663943Y-31870140D01*
X19260166Y-32139935D01*
X18990371Y-32543712D01*
X18895631Y-33020000D01*
X16954500Y-33020000D01*
X16954500Y-30480000D01*
X18895631Y-30480000D01*
X18990371Y-30956288D01*
X19260166Y-31360065D01*
X19663943Y-31629860D01*
X20140231Y-31724600D01*
X20499769Y-31724600D01*
X20976057Y-31629860D01*
X21379834Y-31360065D01*
X21649629Y-30956288D01*
X21744369Y-30480000D01*
X21649629Y-30003712D01*
X21379834Y-29599935D01*
X20976057Y-29330140D01*
X20499769Y-29235400D01*
X20140231Y-29235400D01*
X19663943Y-29330140D01*
X19260166Y-29599935D01*
X18990371Y-30003712D01*
X18895631Y-30480000D01*
X16954500Y-30480000D01*
X16954500Y-27940000D01*
X18895631Y-27940000D01*
X18990371Y-28416288D01*
X19260166Y-28820065D01*
X19663943Y-29089860D01*
X20140231Y-29184600D01*
X20499769Y-29184600D01*
X20976057Y-29089860D01*
X21379834Y-28820065D01*
X21649629Y-28416288D01*
X21744369Y-27940000D01*
X23975631Y-27940000D01*
X24070371Y-28416288D01*
X24340166Y-28820065D01*
X24743943Y-29089860D01*
X25220231Y-29184600D01*
X25579769Y-29184600D01*
X25723618Y-29155986D01*
X25858469Y-29290837D01*
X25579769Y-29235400D01*
X25220231Y-29235400D01*
X24743943Y-29330140D01*
X24340166Y-29599935D01*
X24070371Y-30003712D01*
X23975631Y-30480000D01*
X24070371Y-30956288D01*
X24340166Y-31360065D01*
X24743943Y-31629860D01*
X25220231Y-31724600D01*
X25579769Y-31724600D01*
X26056057Y-31629860D01*
X26459834Y-31360065D01*
X26729629Y-30956288D01*
X26824369Y-30480000D01*
X26768932Y-30201300D01*
X34929000Y-38361369D01*
X34929000Y-72433746D01*
X34679935Y-72600166D01*
X34410140Y-73003943D01*
X34315400Y-73480231D01*
X34315400Y-73839769D01*
X34410140Y-74316057D01*
X34679935Y-74719834D01*
X35083712Y-74989629D01*
X35560000Y-75084369D01*
X36036288Y-74989629D01*
X36440065Y-74719834D01*
X36709860Y-74316057D01*
X36804600Y-73839769D01*
X36804600Y-73480231D01*
X36709860Y-73003943D01*
X36440065Y-72600166D01*
X36191000Y-72433746D01*
X36191000Y-38100000D01*
X54455631Y-38100000D01*
X54550371Y-38576288D01*
X54820166Y-38980065D01*
X55223943Y-39249860D01*
X55700231Y-39344600D01*
X56059769Y-39344600D01*
X56536057Y-39249860D01*
X56939834Y-38980065D01*
X57209629Y-38576288D01*
X57304369Y-38100000D01*
X59535631Y-38100000D01*
X59630371Y-38576288D01*
X59900166Y-38980065D01*
X60303943Y-39249860D01*
X60780231Y-39344600D01*
X61139769Y-39344600D01*
X61616057Y-39249860D01*
X62019834Y-38980065D01*
X62289629Y-38576288D01*
X62384369Y-38100000D01*
X62289629Y-37623712D01*
X62019834Y-37219935D01*
X61616057Y-36950140D01*
X61139769Y-36855400D01*
X60780231Y-36855400D01*
X60303943Y-36950140D01*
X59900166Y-37219935D01*
X59630371Y-37623712D01*
X59535631Y-38100000D01*
X57304369Y-38100000D01*
X57209629Y-37623712D01*
X56939834Y-37219935D01*
X56536057Y-36950140D01*
X56059769Y-36855400D01*
X55700231Y-36855400D01*
X55223943Y-36950140D01*
X54820166Y-37219935D01*
X54550371Y-37623712D01*
X54455631Y-38100000D01*
X36191000Y-38100000D01*
X36142968Y-37858527D01*
X36006185Y-37653816D01*
X33912369Y-35560000D01*
X54455631Y-35560000D01*
X54550371Y-36036288D01*
X54820166Y-36440065D01*
X55223943Y-36709860D01*
X55700231Y-36804600D01*
X56059769Y-36804600D01*
X56536057Y-36709860D01*
X56939834Y-36440065D01*
X57209629Y-36036288D01*
X57304369Y-35560000D01*
X59535631Y-35560000D01*
X59630371Y-36036288D01*
X59900166Y-36440065D01*
X60303943Y-36709860D01*
X60780231Y-36804600D01*
X61139769Y-36804600D01*
X61616057Y-36709860D01*
X62019834Y-36440065D01*
X62289629Y-36036288D01*
X62384369Y-35560000D01*
X62289629Y-35083712D01*
X62019834Y-34679935D01*
X61616057Y-34410140D01*
X61139769Y-34315400D01*
X60780231Y-34315400D01*
X60303943Y-34410140D01*
X59900166Y-34679935D01*
X59630371Y-35083712D01*
X59535631Y-35560000D01*
X57304369Y-35560000D01*
X57209629Y-35083712D01*
X56939834Y-34679935D01*
X56536057Y-34410140D01*
X56059769Y-34315400D01*
X55700231Y-34315400D01*
X55223943Y-34410140D01*
X54820166Y-34679935D01*
X54550371Y-35083712D01*
X54455631Y-35560000D01*
X33912369Y-35560000D01*
X29895283Y-31542914D01*
X32639000Y-31542914D01*
X32639000Y-31657366D01*
X32861348Y-32775184D01*
X33494541Y-33722825D01*
X34442182Y-34356018D01*
X35560000Y-34578366D01*
X36677818Y-34356018D01*
X37625459Y-33722825D01*
X38095071Y-33020000D01*
X54455631Y-33020000D01*
X54550371Y-33496288D01*
X54820166Y-33900065D01*
X55223943Y-34169860D01*
X55700231Y-34264600D01*
X56059769Y-34264600D01*
X56536057Y-34169860D01*
X56939834Y-33900065D01*
X57209629Y-33496288D01*
X57304369Y-33020000D01*
X59535631Y-33020000D01*
X59630371Y-33496288D01*
X59900166Y-33900065D01*
X60303943Y-34169860D01*
X60780231Y-34264600D01*
X61139769Y-34264600D01*
X61616057Y-34169860D01*
X62019834Y-33900065D01*
X62289629Y-33496288D01*
X62384369Y-33020000D01*
X62289629Y-32543712D01*
X62019834Y-32139935D01*
X61616057Y-31870140D01*
X61139769Y-31775400D01*
X60780231Y-31775400D01*
X60303943Y-31870140D01*
X59900166Y-32139935D01*
X59630371Y-32543712D01*
X59535631Y-33020000D01*
X57304369Y-33020000D01*
X57209629Y-32543712D01*
X56939834Y-32139935D01*
X56536057Y-31870140D01*
X56059769Y-31775400D01*
X55700231Y-31775400D01*
X55223943Y-31870140D01*
X54820166Y-32139935D01*
X54550371Y-32543712D01*
X54455631Y-33020000D01*
X38095071Y-33020000D01*
X38258652Y-32775184D01*
X38481000Y-31657366D01*
X38481000Y-31542914D01*
X38269574Y-30480000D01*
X54455631Y-30480000D01*
X54550371Y-30956288D01*
X54820166Y-31360065D01*
X55223943Y-31629860D01*
X55700231Y-31724600D01*
X56059769Y-31724600D01*
X56536057Y-31629860D01*
X56939834Y-31360065D01*
X57209629Y-30956288D01*
X57304369Y-30480000D01*
X59535631Y-30480000D01*
X59630371Y-30956288D01*
X59900166Y-31360065D01*
X60303943Y-31629860D01*
X60780231Y-31724600D01*
X61139769Y-31724600D01*
X61616057Y-31629860D01*
X62019834Y-31360065D01*
X62289629Y-30956288D01*
X62384369Y-30480000D01*
X62289629Y-30003712D01*
X62019834Y-29599935D01*
X61616057Y-29330140D01*
X61139769Y-29235400D01*
X60780231Y-29235400D01*
X60303943Y-29330140D01*
X59900166Y-29599935D01*
X59630371Y-30003712D01*
X59535631Y-30480000D01*
X57304369Y-30480000D01*
X57209629Y-30003712D01*
X56939834Y-29599935D01*
X56536057Y-29330140D01*
X56059769Y-29235400D01*
X55700231Y-29235400D01*
X55223943Y-29330140D01*
X54820166Y-29599935D01*
X54550371Y-30003712D01*
X54455631Y-30480000D01*
X38269574Y-30480000D01*
X38258652Y-30425096D01*
X37625459Y-29477455D01*
X36677818Y-28844262D01*
X35560000Y-28621914D01*
X34442182Y-28844262D01*
X33494541Y-29477455D01*
X32861348Y-30425096D01*
X32639000Y-31542914D01*
X29895283Y-31542914D01*
X26907984Y-28555615D01*
X28575000Y-28555615D01*
X28575000Y-28645185D01*
X28749011Y-29519999D01*
X29244554Y-30261631D01*
X29986186Y-30757174D01*
X30861000Y-30931185D01*
X31735814Y-30757174D01*
X32477446Y-30261631D01*
X32972989Y-29519999D01*
X33147000Y-28645185D01*
X33147000Y-28555615D01*
X32972989Y-27680801D01*
X32477446Y-26939169D01*
X31735814Y-26443626D01*
X30861000Y-26269615D01*
X29986186Y-26443626D01*
X29244554Y-26939169D01*
X28749011Y-27680801D01*
X28575000Y-28555615D01*
X26907984Y-28555615D01*
X26736104Y-28383736D01*
X26824369Y-27940000D01*
X26729629Y-27463712D01*
X26459834Y-27059935D01*
X26056057Y-26790140D01*
X25579769Y-26695400D01*
X25220231Y-26695400D01*
X24743943Y-26790140D01*
X24340166Y-27059935D01*
X24070371Y-27463712D01*
X23975631Y-27940000D01*
X21744369Y-27940000D01*
X21649629Y-27463712D01*
X21379834Y-27059935D01*
X20976057Y-26790140D01*
X20499769Y-26695400D01*
X20140231Y-26695400D01*
X19663943Y-26790140D01*
X19260166Y-27059935D01*
X18990371Y-27463712D01*
X18895631Y-27940000D01*
X16954500Y-27940000D01*
X16954500Y-24536400D01*
X18915536Y-24536400D01*
X18915536Y-26263600D01*
X18942103Y-26404790D01*
X19025546Y-26534465D01*
X19152866Y-26621459D01*
X19304000Y-26652064D01*
X21336000Y-26652064D01*
X21477190Y-26625497D01*
X21606865Y-26542054D01*
X21693859Y-26414734D01*
X21724464Y-26263600D01*
X21724464Y-24536400D01*
X23995536Y-24536400D01*
X23995536Y-26263600D01*
X24022103Y-26404790D01*
X24105546Y-26534465D01*
X24232866Y-26621459D01*
X24384000Y-26652064D01*
X26416000Y-26652064D01*
X26557190Y-26625497D01*
X26686865Y-26542054D01*
X26773859Y-26414734D01*
X26804464Y-26263600D01*
X26804464Y-26122944D01*
X33074271Y-26122944D01*
X33463355Y-27034435D01*
X34171635Y-27727647D01*
X35037717Y-28086383D01*
X35433000Y-27978521D01*
X35433000Y-25727660D01*
X35687000Y-25727660D01*
X35687000Y-27978521D01*
X36082283Y-28086383D01*
X36435689Y-27940000D01*
X54455631Y-27940000D01*
X54550371Y-28416288D01*
X54820166Y-28820065D01*
X55223943Y-29089860D01*
X55700231Y-29184600D01*
X56059769Y-29184600D01*
X56536057Y-29089860D01*
X56939834Y-28820065D01*
X57209629Y-28416288D01*
X57304369Y-27940000D01*
X59535631Y-27940000D01*
X59630371Y-28416288D01*
X59900166Y-28820065D01*
X60303943Y-29089860D01*
X60780231Y-29184600D01*
X61139769Y-29184600D01*
X61616057Y-29089860D01*
X62019834Y-28820065D01*
X62289629Y-28416288D01*
X62384369Y-27940000D01*
X62289629Y-27463712D01*
X62019834Y-27059935D01*
X61616057Y-26790140D01*
X61139769Y-26695400D01*
X60780231Y-26695400D01*
X60303943Y-26790140D01*
X59900166Y-27059935D01*
X59630371Y-27463712D01*
X59535631Y-27940000D01*
X57304369Y-27940000D01*
X57209629Y-27463712D01*
X56939834Y-27059935D01*
X56536057Y-26790140D01*
X56059769Y-26695400D01*
X55700231Y-26695400D01*
X55223943Y-26790140D01*
X54820166Y-27059935D01*
X54550371Y-27463712D01*
X54455631Y-27940000D01*
X36435689Y-27940000D01*
X36948365Y-27727647D01*
X37656645Y-27034435D01*
X38045729Y-26122944D01*
X37938079Y-25727660D01*
X35687000Y-25727660D01*
X35433000Y-25727660D01*
X33181921Y-25727660D01*
X33074271Y-26122944D01*
X26804464Y-26122944D01*
X26804464Y-25078376D01*
X33074271Y-25078376D01*
X33181921Y-25473660D01*
X35433000Y-25473660D01*
X35433000Y-23222799D01*
X35687000Y-23222799D01*
X35687000Y-25473660D01*
X37938079Y-25473660D01*
X38045729Y-25078376D01*
X37889435Y-24712231D01*
X43205400Y-24712231D01*
X43205400Y-25071769D01*
X43300140Y-25548057D01*
X43569935Y-25951834D01*
X43973712Y-26221629D01*
X44450000Y-26316369D01*
X44926288Y-26221629D01*
X45330065Y-25951834D01*
X45599860Y-25548057D01*
X45694600Y-25071769D01*
X45694600Y-24712231D01*
X45745400Y-24712231D01*
X45745400Y-25071769D01*
X45840140Y-25548057D01*
X46109935Y-25951834D01*
X46513712Y-26221629D01*
X46990000Y-26316369D01*
X47466288Y-26221629D01*
X47870065Y-25951834D01*
X48139860Y-25548057D01*
X48234600Y-25071769D01*
X48234600Y-24712231D01*
X48139860Y-24235943D01*
X47899354Y-23876000D01*
X48277936Y-23876000D01*
X48277936Y-25908000D01*
X48304503Y-26049190D01*
X48387946Y-26178865D01*
X48515266Y-26265859D01*
X48666400Y-26296464D01*
X50393600Y-26296464D01*
X50534790Y-26269897D01*
X50664465Y-26186454D01*
X50751459Y-26059134D01*
X50782064Y-25908000D01*
X50782064Y-25400000D01*
X54455631Y-25400000D01*
X54550371Y-25876288D01*
X54820166Y-26280065D01*
X55223943Y-26549860D01*
X55700231Y-26644600D01*
X56059769Y-26644600D01*
X56536057Y-26549860D01*
X56939834Y-26280065D01*
X57209629Y-25876288D01*
X57304369Y-25400000D01*
X59535631Y-25400000D01*
X59630371Y-25876288D01*
X59900166Y-26280065D01*
X60303943Y-26549860D01*
X60780231Y-26644600D01*
X61139769Y-26644600D01*
X61616057Y-26549860D01*
X62019834Y-26280065D01*
X62289629Y-25876288D01*
X62384369Y-25400000D01*
X62289629Y-24923712D01*
X62019834Y-24519935D01*
X61616057Y-24250140D01*
X61139769Y-24155400D01*
X60780231Y-24155400D01*
X60303943Y-24250140D01*
X59900166Y-24519935D01*
X59630371Y-24923712D01*
X59535631Y-25400000D01*
X57304369Y-25400000D01*
X57209629Y-24923712D01*
X56939834Y-24519935D01*
X56536057Y-24250140D01*
X56059769Y-24155400D01*
X55700231Y-24155400D01*
X55223943Y-24250140D01*
X54820166Y-24519935D01*
X54550371Y-24923712D01*
X54455631Y-25400000D01*
X50782064Y-25400000D01*
X50782064Y-23876000D01*
X50755497Y-23734810D01*
X50672054Y-23605135D01*
X50544734Y-23518141D01*
X50393600Y-23487536D01*
X48666400Y-23487536D01*
X48525210Y-23514103D01*
X48395535Y-23597546D01*
X48308541Y-23724866D01*
X48277936Y-23876000D01*
X47899354Y-23876000D01*
X47870065Y-23832166D01*
X47466288Y-23562371D01*
X46990000Y-23467631D01*
X46513712Y-23562371D01*
X46109935Y-23832166D01*
X45840140Y-24235943D01*
X45745400Y-24712231D01*
X45694600Y-24712231D01*
X45599860Y-24235943D01*
X45330065Y-23832166D01*
X44926288Y-23562371D01*
X44450000Y-23467631D01*
X43973712Y-23562371D01*
X43569935Y-23832166D01*
X43300140Y-24235943D01*
X43205400Y-24712231D01*
X37889435Y-24712231D01*
X37656645Y-24166885D01*
X36948365Y-23473673D01*
X36082283Y-23114937D01*
X35687000Y-23222799D01*
X35433000Y-23222799D01*
X35037717Y-23114937D01*
X34171635Y-23473673D01*
X33463355Y-24166885D01*
X33074271Y-25078376D01*
X26804464Y-25078376D01*
X26804464Y-24536400D01*
X26777897Y-24395210D01*
X26694454Y-24265535D01*
X26567134Y-24178541D01*
X26416000Y-24147936D01*
X24384000Y-24147936D01*
X24242810Y-24174503D01*
X24113135Y-24257946D01*
X24026141Y-24385266D01*
X23995536Y-24536400D01*
X21724464Y-24536400D01*
X21697897Y-24395210D01*
X21614454Y-24265535D01*
X21487134Y-24178541D01*
X21336000Y-24147936D01*
X19304000Y-24147936D01*
X19162810Y-24174503D01*
X19033135Y-24257946D01*
X18946141Y-24385266D01*
X18915536Y-24536400D01*
X16954500Y-24536400D01*
X16954500Y-22034500D01*
X64325500Y-22034500D01*
X64325500Y-67765178D01*
M02*
