%TF.GenerationSoftware,KiCad,Pcbnew,4.0.2-stable*%
%TF.CreationDate,2016-04-26T19:03:57-04:00*%
%TF.ProjectId,Programmer,50726F6772616D6D65722E6B69636164,rev?*%
%TF.FileFunction,Legend,Top*%
%FSLAX46Y46*%
G04 Gerber Fmt 4.6, Leading zero omitted, Abs format (unit mm)*
G04 Created by KiCad (PCBNEW 4.0.2-stable) date 4/26/2016 7:03:57 PM*
%MOMM*%
G01*
G04 APERTURE LIST*
%ADD10C,0.127000*%
%ADD11C,0.150000*%
G04 APERTURE END LIST*
D10*
X45996286Y-22842571D02*
X46196286Y-23128286D01*
X46339143Y-22842571D02*
X46339143Y-23442571D01*
X46110571Y-23442571D01*
X46053429Y-23414000D01*
X46024857Y-23385429D01*
X45996286Y-23328286D01*
X45996286Y-23242571D01*
X46024857Y-23185429D01*
X46053429Y-23156857D01*
X46110571Y-23128286D01*
X46339143Y-23128286D01*
X45510571Y-22871143D02*
X45567714Y-22842571D01*
X45682000Y-22842571D01*
X45739143Y-22871143D01*
X45767714Y-22928286D01*
X45767714Y-23156857D01*
X45739143Y-23214000D01*
X45682000Y-23242571D01*
X45567714Y-23242571D01*
X45510571Y-23214000D01*
X45482000Y-23156857D01*
X45482000Y-23099714D01*
X45767714Y-23042571D01*
X44967714Y-23242571D02*
X44967714Y-22756857D01*
X44996285Y-22699714D01*
X45024857Y-22671143D01*
X45082000Y-22642571D01*
X45167714Y-22642571D01*
X45224857Y-22671143D01*
X44967714Y-22871143D02*
X45024857Y-22842571D01*
X45139143Y-22842571D01*
X45196285Y-22871143D01*
X45224857Y-22899714D01*
X45253428Y-22956857D01*
X45253428Y-23128286D01*
X45224857Y-23185429D01*
X45196285Y-23214000D01*
X45139143Y-23242571D01*
X45024857Y-23242571D01*
X44967714Y-23214000D01*
X48679143Y-23156857D02*
X48593429Y-23128286D01*
X48564857Y-23099714D01*
X48536286Y-23042571D01*
X48536286Y-22956857D01*
X48564857Y-22899714D01*
X48593429Y-22871143D01*
X48650571Y-22842571D01*
X48879143Y-22842571D01*
X48879143Y-23442571D01*
X48679143Y-23442571D01*
X48622000Y-23414000D01*
X48593429Y-23385429D01*
X48564857Y-23328286D01*
X48564857Y-23271143D01*
X48593429Y-23214000D01*
X48622000Y-23185429D01*
X48679143Y-23156857D01*
X48879143Y-23156857D01*
X48336286Y-23242571D02*
X48193429Y-22842571D01*
X48050571Y-23242571D02*
X48193429Y-22842571D01*
X48250571Y-22699714D01*
X48279143Y-22671143D01*
X48336286Y-22642571D01*
X47822000Y-23242571D02*
X47822000Y-22642571D01*
X47822000Y-23214000D02*
X47764857Y-23242571D01*
X47650571Y-23242571D01*
X47593428Y-23214000D01*
X47564857Y-23185429D01*
X47536286Y-23128286D01*
X47536286Y-22956857D01*
X47564857Y-22899714D01*
X47593428Y-22871143D01*
X47650571Y-22842571D01*
X47764857Y-22842571D01*
X47822000Y-22871143D01*
X62979286Y-25128571D02*
X63007857Y-25100000D01*
X63065000Y-25071429D01*
X63207857Y-25071429D01*
X63265000Y-25100000D01*
X63293571Y-25128571D01*
X63322143Y-25185714D01*
X63322143Y-25242857D01*
X63293571Y-25328571D01*
X62950714Y-25671429D01*
X63322143Y-25671429D01*
X63665000Y-25328571D02*
X63607858Y-25300000D01*
X63579286Y-25271429D01*
X63550715Y-25214286D01*
X63550715Y-25185714D01*
X63579286Y-25128571D01*
X63607858Y-25100000D01*
X63665000Y-25071429D01*
X63779286Y-25071429D01*
X63836429Y-25100000D01*
X63865000Y-25128571D01*
X63893572Y-25185714D01*
X63893572Y-25214286D01*
X63865000Y-25271429D01*
X63836429Y-25300000D01*
X63779286Y-25328571D01*
X63665000Y-25328571D01*
X63607858Y-25357143D01*
X63579286Y-25385714D01*
X63550715Y-25442857D01*
X63550715Y-25557143D01*
X63579286Y-25614286D01*
X63607858Y-25642857D01*
X63665000Y-25671429D01*
X63779286Y-25671429D01*
X63836429Y-25642857D01*
X63865000Y-25614286D01*
X63893572Y-25557143D01*
X63893572Y-25442857D01*
X63865000Y-25385714D01*
X63836429Y-25357143D01*
X63779286Y-25328571D01*
X62979286Y-27668571D02*
X63007857Y-27640000D01*
X63065000Y-27611429D01*
X63207857Y-27611429D01*
X63265000Y-27640000D01*
X63293571Y-27668571D01*
X63322143Y-27725714D01*
X63322143Y-27782857D01*
X63293571Y-27868571D01*
X62950714Y-28211429D01*
X63322143Y-28211429D01*
X63522143Y-27611429D02*
X63922143Y-27611429D01*
X63665000Y-28211429D01*
X62979286Y-30208571D02*
X63007857Y-30180000D01*
X63065000Y-30151429D01*
X63207857Y-30151429D01*
X63265000Y-30180000D01*
X63293571Y-30208571D01*
X63322143Y-30265714D01*
X63322143Y-30322857D01*
X63293571Y-30408571D01*
X62950714Y-30751429D01*
X63322143Y-30751429D01*
X63836429Y-30151429D02*
X63722143Y-30151429D01*
X63665000Y-30180000D01*
X63636429Y-30208571D01*
X63579286Y-30294286D01*
X63550715Y-30408571D01*
X63550715Y-30637143D01*
X63579286Y-30694286D01*
X63607858Y-30722857D01*
X63665000Y-30751429D01*
X63779286Y-30751429D01*
X63836429Y-30722857D01*
X63865000Y-30694286D01*
X63893572Y-30637143D01*
X63893572Y-30494286D01*
X63865000Y-30437143D01*
X63836429Y-30408571D01*
X63779286Y-30380000D01*
X63665000Y-30380000D01*
X63607858Y-30408571D01*
X63579286Y-30437143D01*
X63550715Y-30494286D01*
X62979286Y-32748571D02*
X63007857Y-32720000D01*
X63065000Y-32691429D01*
X63207857Y-32691429D01*
X63265000Y-32720000D01*
X63293571Y-32748571D01*
X63322143Y-32805714D01*
X63322143Y-32862857D01*
X63293571Y-32948571D01*
X62950714Y-33291429D01*
X63322143Y-33291429D01*
X63865000Y-32691429D02*
X63579286Y-32691429D01*
X63550715Y-32977143D01*
X63579286Y-32948571D01*
X63636429Y-32920000D01*
X63779286Y-32920000D01*
X63836429Y-32948571D01*
X63865000Y-32977143D01*
X63893572Y-33034286D01*
X63893572Y-33177143D01*
X63865000Y-33234286D01*
X63836429Y-33262857D01*
X63779286Y-33291429D01*
X63636429Y-33291429D01*
X63579286Y-33262857D01*
X63550715Y-33234286D01*
X62979286Y-35288571D02*
X63007857Y-35260000D01*
X63065000Y-35231429D01*
X63207857Y-35231429D01*
X63265000Y-35260000D01*
X63293571Y-35288571D01*
X63322143Y-35345714D01*
X63322143Y-35402857D01*
X63293571Y-35488571D01*
X62950714Y-35831429D01*
X63322143Y-35831429D01*
X63836429Y-35431429D02*
X63836429Y-35831429D01*
X63693572Y-35202857D02*
X63550715Y-35631429D01*
X63922143Y-35631429D01*
X62979286Y-37828571D02*
X63007857Y-37800000D01*
X63065000Y-37771429D01*
X63207857Y-37771429D01*
X63265000Y-37800000D01*
X63293571Y-37828571D01*
X63322143Y-37885714D01*
X63322143Y-37942857D01*
X63293571Y-38028571D01*
X62950714Y-38371429D01*
X63322143Y-38371429D01*
X63522143Y-37771429D02*
X63893572Y-37771429D01*
X63693572Y-38000000D01*
X63779286Y-38000000D01*
X63836429Y-38028571D01*
X63865000Y-38057143D01*
X63893572Y-38114286D01*
X63893572Y-38257143D01*
X63865000Y-38314286D01*
X63836429Y-38342857D01*
X63779286Y-38371429D01*
X63607858Y-38371429D01*
X63550715Y-38342857D01*
X63522143Y-38314286D01*
X62979286Y-40368571D02*
X63007857Y-40340000D01*
X63065000Y-40311429D01*
X63207857Y-40311429D01*
X63265000Y-40340000D01*
X63293571Y-40368571D01*
X63322143Y-40425714D01*
X63322143Y-40482857D01*
X63293571Y-40568571D01*
X62950714Y-40911429D01*
X63322143Y-40911429D01*
X63550715Y-40368571D02*
X63579286Y-40340000D01*
X63636429Y-40311429D01*
X63779286Y-40311429D01*
X63836429Y-40340000D01*
X63865000Y-40368571D01*
X63893572Y-40425714D01*
X63893572Y-40482857D01*
X63865000Y-40568571D01*
X63522143Y-40911429D01*
X63893572Y-40911429D01*
X62979286Y-42908571D02*
X63007857Y-42880000D01*
X63065000Y-42851429D01*
X63207857Y-42851429D01*
X63265000Y-42880000D01*
X63293571Y-42908571D01*
X63322143Y-42965714D01*
X63322143Y-43022857D01*
X63293571Y-43108571D01*
X62950714Y-43451429D01*
X63322143Y-43451429D01*
X63893572Y-43451429D02*
X63550715Y-43451429D01*
X63722143Y-43451429D02*
X63722143Y-42851429D01*
X63665000Y-42937143D01*
X63607858Y-42994286D01*
X63550715Y-43022857D01*
X62979286Y-45448571D02*
X63007857Y-45420000D01*
X63065000Y-45391429D01*
X63207857Y-45391429D01*
X63265000Y-45420000D01*
X63293571Y-45448571D01*
X63322143Y-45505714D01*
X63322143Y-45562857D01*
X63293571Y-45648571D01*
X62950714Y-45991429D01*
X63322143Y-45991429D01*
X63693572Y-45391429D02*
X63750715Y-45391429D01*
X63807858Y-45420000D01*
X63836429Y-45448571D01*
X63865000Y-45505714D01*
X63893572Y-45620000D01*
X63893572Y-45762857D01*
X63865000Y-45877143D01*
X63836429Y-45934286D01*
X63807858Y-45962857D01*
X63750715Y-45991429D01*
X63693572Y-45991429D01*
X63636429Y-45962857D01*
X63607858Y-45934286D01*
X63579286Y-45877143D01*
X63550715Y-45762857D01*
X63550715Y-45620000D01*
X63579286Y-45505714D01*
X63607858Y-45448571D01*
X63636429Y-45420000D01*
X63693572Y-45391429D01*
X63322143Y-48531429D02*
X62979286Y-48531429D01*
X63150714Y-48531429D02*
X63150714Y-47931429D01*
X63093571Y-48017143D01*
X63036429Y-48074286D01*
X62979286Y-48102857D01*
X63607858Y-48531429D02*
X63722143Y-48531429D01*
X63779286Y-48502857D01*
X63807858Y-48474286D01*
X63865000Y-48388571D01*
X63893572Y-48274286D01*
X63893572Y-48045714D01*
X63865000Y-47988571D01*
X63836429Y-47960000D01*
X63779286Y-47931429D01*
X63665000Y-47931429D01*
X63607858Y-47960000D01*
X63579286Y-47988571D01*
X63550715Y-48045714D01*
X63550715Y-48188571D01*
X63579286Y-48245714D01*
X63607858Y-48274286D01*
X63665000Y-48302857D01*
X63779286Y-48302857D01*
X63836429Y-48274286D01*
X63865000Y-48245714D01*
X63893572Y-48188571D01*
X63322143Y-51071429D02*
X62979286Y-51071429D01*
X63150714Y-51071429D02*
X63150714Y-50471429D01*
X63093571Y-50557143D01*
X63036429Y-50614286D01*
X62979286Y-50642857D01*
X63665000Y-50728571D02*
X63607858Y-50700000D01*
X63579286Y-50671429D01*
X63550715Y-50614286D01*
X63550715Y-50585714D01*
X63579286Y-50528571D01*
X63607858Y-50500000D01*
X63665000Y-50471429D01*
X63779286Y-50471429D01*
X63836429Y-50500000D01*
X63865000Y-50528571D01*
X63893572Y-50585714D01*
X63893572Y-50614286D01*
X63865000Y-50671429D01*
X63836429Y-50700000D01*
X63779286Y-50728571D01*
X63665000Y-50728571D01*
X63607858Y-50757143D01*
X63579286Y-50785714D01*
X63550715Y-50842857D01*
X63550715Y-50957143D01*
X63579286Y-51014286D01*
X63607858Y-51042857D01*
X63665000Y-51071429D01*
X63779286Y-51071429D01*
X63836429Y-51042857D01*
X63865000Y-51014286D01*
X63893572Y-50957143D01*
X63893572Y-50842857D01*
X63865000Y-50785714D01*
X63836429Y-50757143D01*
X63779286Y-50728571D01*
X63322143Y-53611429D02*
X62979286Y-53611429D01*
X63150714Y-53611429D02*
X63150714Y-53011429D01*
X63093571Y-53097143D01*
X63036429Y-53154286D01*
X62979286Y-53182857D01*
X63522143Y-53011429D02*
X63922143Y-53011429D01*
X63665000Y-53611429D01*
X63322143Y-56151429D02*
X62979286Y-56151429D01*
X63150714Y-56151429D02*
X63150714Y-55551429D01*
X63093571Y-55637143D01*
X63036429Y-55694286D01*
X62979286Y-55722857D01*
X63836429Y-55551429D02*
X63722143Y-55551429D01*
X63665000Y-55580000D01*
X63636429Y-55608571D01*
X63579286Y-55694286D01*
X63550715Y-55808571D01*
X63550715Y-56037143D01*
X63579286Y-56094286D01*
X63607858Y-56122857D01*
X63665000Y-56151429D01*
X63779286Y-56151429D01*
X63836429Y-56122857D01*
X63865000Y-56094286D01*
X63893572Y-56037143D01*
X63893572Y-55894286D01*
X63865000Y-55837143D01*
X63836429Y-55808571D01*
X63779286Y-55780000D01*
X63665000Y-55780000D01*
X63607858Y-55808571D01*
X63579286Y-55837143D01*
X63550715Y-55894286D01*
X63322143Y-58691429D02*
X62979286Y-58691429D01*
X63150714Y-58691429D02*
X63150714Y-58091429D01*
X63093571Y-58177143D01*
X63036429Y-58234286D01*
X62979286Y-58262857D01*
X63865000Y-58091429D02*
X63579286Y-58091429D01*
X63550715Y-58377143D01*
X63579286Y-58348571D01*
X63636429Y-58320000D01*
X63779286Y-58320000D01*
X63836429Y-58348571D01*
X63865000Y-58377143D01*
X63893572Y-58434286D01*
X63893572Y-58577143D01*
X63865000Y-58634286D01*
X63836429Y-58662857D01*
X63779286Y-58691429D01*
X63636429Y-58691429D01*
X63579286Y-58662857D01*
X63550715Y-58634286D01*
X63322143Y-61231429D02*
X62979286Y-61231429D01*
X63150714Y-61231429D02*
X63150714Y-60631429D01*
X63093571Y-60717143D01*
X63036429Y-60774286D01*
X62979286Y-60802857D01*
X63836429Y-60831429D02*
X63836429Y-61231429D01*
X63693572Y-60602857D02*
X63550715Y-61031429D01*
X63922143Y-61031429D01*
X63322143Y-63771429D02*
X62979286Y-63771429D01*
X63150714Y-63771429D02*
X63150714Y-63171429D01*
X63093571Y-63257143D01*
X63036429Y-63314286D01*
X62979286Y-63342857D01*
X63522143Y-63171429D02*
X63893572Y-63171429D01*
X63693572Y-63400000D01*
X63779286Y-63400000D01*
X63836429Y-63428571D01*
X63865000Y-63457143D01*
X63893572Y-63514286D01*
X63893572Y-63657143D01*
X63865000Y-63714286D01*
X63836429Y-63742857D01*
X63779286Y-63771429D01*
X63607858Y-63771429D01*
X63550715Y-63742857D01*
X63522143Y-63714286D01*
X18237143Y-63771429D02*
X17894286Y-63771429D01*
X18065714Y-63771429D02*
X18065714Y-63171429D01*
X18008571Y-63257143D01*
X17951429Y-63314286D01*
X17894286Y-63342857D01*
X18465715Y-63228571D02*
X18494286Y-63200000D01*
X18551429Y-63171429D01*
X18694286Y-63171429D01*
X18751429Y-63200000D01*
X18780000Y-63228571D01*
X18808572Y-63285714D01*
X18808572Y-63342857D01*
X18780000Y-63428571D01*
X18437143Y-63771429D01*
X18808572Y-63771429D01*
X18237143Y-61231429D02*
X17894286Y-61231429D01*
X18065714Y-61231429D02*
X18065714Y-60631429D01*
X18008571Y-60717143D01*
X17951429Y-60774286D01*
X17894286Y-60802857D01*
X18808572Y-61231429D02*
X18465715Y-61231429D01*
X18637143Y-61231429D02*
X18637143Y-60631429D01*
X18580000Y-60717143D01*
X18522858Y-60774286D01*
X18465715Y-60802857D01*
X18237143Y-58691429D02*
X17894286Y-58691429D01*
X18065714Y-58691429D02*
X18065714Y-58091429D01*
X18008571Y-58177143D01*
X17951429Y-58234286D01*
X17894286Y-58262857D01*
X18608572Y-58091429D02*
X18665715Y-58091429D01*
X18722858Y-58120000D01*
X18751429Y-58148571D01*
X18780000Y-58205714D01*
X18808572Y-58320000D01*
X18808572Y-58462857D01*
X18780000Y-58577143D01*
X18751429Y-58634286D01*
X18722858Y-58662857D01*
X18665715Y-58691429D01*
X18608572Y-58691429D01*
X18551429Y-58662857D01*
X18522858Y-58634286D01*
X18494286Y-58577143D01*
X18465715Y-58462857D01*
X18465715Y-58320000D01*
X18494286Y-58205714D01*
X18522858Y-58148571D01*
X18551429Y-58120000D01*
X18608572Y-58091429D01*
X17951429Y-56151429D02*
X18065714Y-56151429D01*
X18122857Y-56122857D01*
X18151429Y-56094286D01*
X18208571Y-56008571D01*
X18237143Y-55894286D01*
X18237143Y-55665714D01*
X18208571Y-55608571D01*
X18180000Y-55580000D01*
X18122857Y-55551429D01*
X18008571Y-55551429D01*
X17951429Y-55580000D01*
X17922857Y-55608571D01*
X17894286Y-55665714D01*
X17894286Y-55808571D01*
X17922857Y-55865714D01*
X17951429Y-55894286D01*
X18008571Y-55922857D01*
X18122857Y-55922857D01*
X18180000Y-55894286D01*
X18208571Y-55865714D01*
X18237143Y-55808571D01*
X18008571Y-53268571D02*
X17951429Y-53240000D01*
X17922857Y-53211429D01*
X17894286Y-53154286D01*
X17894286Y-53125714D01*
X17922857Y-53068571D01*
X17951429Y-53040000D01*
X18008571Y-53011429D01*
X18122857Y-53011429D01*
X18180000Y-53040000D01*
X18208571Y-53068571D01*
X18237143Y-53125714D01*
X18237143Y-53154286D01*
X18208571Y-53211429D01*
X18180000Y-53240000D01*
X18122857Y-53268571D01*
X18008571Y-53268571D01*
X17951429Y-53297143D01*
X17922857Y-53325714D01*
X17894286Y-53382857D01*
X17894286Y-53497143D01*
X17922857Y-53554286D01*
X17951429Y-53582857D01*
X18008571Y-53611429D01*
X18122857Y-53611429D01*
X18180000Y-53582857D01*
X18208571Y-53554286D01*
X18237143Y-53497143D01*
X18237143Y-53382857D01*
X18208571Y-53325714D01*
X18180000Y-53297143D01*
X18122857Y-53268571D01*
X17865714Y-50471429D02*
X18265714Y-50471429D01*
X18008571Y-51071429D01*
X18180000Y-47931429D02*
X18065714Y-47931429D01*
X18008571Y-47960000D01*
X17980000Y-47988571D01*
X17922857Y-48074286D01*
X17894286Y-48188571D01*
X17894286Y-48417143D01*
X17922857Y-48474286D01*
X17951429Y-48502857D01*
X18008571Y-48531429D01*
X18122857Y-48531429D01*
X18180000Y-48502857D01*
X18208571Y-48474286D01*
X18237143Y-48417143D01*
X18237143Y-48274286D01*
X18208571Y-48217143D01*
X18180000Y-48188571D01*
X18122857Y-48160000D01*
X18008571Y-48160000D01*
X17951429Y-48188571D01*
X17922857Y-48217143D01*
X17894286Y-48274286D01*
X18208571Y-45391429D02*
X17922857Y-45391429D01*
X17894286Y-45677143D01*
X17922857Y-45648571D01*
X17980000Y-45620000D01*
X18122857Y-45620000D01*
X18180000Y-45648571D01*
X18208571Y-45677143D01*
X18237143Y-45734286D01*
X18237143Y-45877143D01*
X18208571Y-45934286D01*
X18180000Y-45962857D01*
X18122857Y-45991429D01*
X17980000Y-45991429D01*
X17922857Y-45962857D01*
X17894286Y-45934286D01*
X18180000Y-43051429D02*
X18180000Y-43451429D01*
X18037143Y-42822857D02*
X17894286Y-43251429D01*
X18265714Y-43251429D01*
X17894286Y-25128571D02*
X17922857Y-25100000D01*
X17980000Y-25071429D01*
X18122857Y-25071429D01*
X18180000Y-25100000D01*
X18208571Y-25128571D01*
X18237143Y-25185714D01*
X18237143Y-25242857D01*
X18208571Y-25328571D01*
X17865714Y-25671429D01*
X18237143Y-25671429D01*
X18522858Y-25671429D02*
X18637143Y-25671429D01*
X18694286Y-25642857D01*
X18722858Y-25614286D01*
X18780000Y-25528571D01*
X18808572Y-25414286D01*
X18808572Y-25185714D01*
X18780000Y-25128571D01*
X18751429Y-25100000D01*
X18694286Y-25071429D01*
X18580000Y-25071429D01*
X18522858Y-25100000D01*
X18494286Y-25128571D01*
X18465715Y-25185714D01*
X18465715Y-25328571D01*
X18494286Y-25385714D01*
X18522858Y-25414286D01*
X18580000Y-25442857D01*
X18694286Y-25442857D01*
X18751429Y-25414286D01*
X18780000Y-25385714D01*
X18808572Y-25328571D01*
X17865714Y-27611429D02*
X18237143Y-27611429D01*
X18037143Y-27840000D01*
X18122857Y-27840000D01*
X18180000Y-27868571D01*
X18208571Y-27897143D01*
X18237143Y-27954286D01*
X18237143Y-28097143D01*
X18208571Y-28154286D01*
X18180000Y-28182857D01*
X18122857Y-28211429D01*
X17951429Y-28211429D01*
X17894286Y-28182857D01*
X17865714Y-28154286D01*
X18608572Y-27611429D02*
X18665715Y-27611429D01*
X18722858Y-27640000D01*
X18751429Y-27668571D01*
X18780000Y-27725714D01*
X18808572Y-27840000D01*
X18808572Y-27982857D01*
X18780000Y-28097143D01*
X18751429Y-28154286D01*
X18722858Y-28182857D01*
X18665715Y-28211429D01*
X18608572Y-28211429D01*
X18551429Y-28182857D01*
X18522858Y-28154286D01*
X18494286Y-28097143D01*
X18465715Y-27982857D01*
X18465715Y-27840000D01*
X18494286Y-27725714D01*
X18522858Y-27668571D01*
X18551429Y-27640000D01*
X18608572Y-27611429D01*
X17865714Y-40311429D02*
X18237143Y-40311429D01*
X18037143Y-40540000D01*
X18122857Y-40540000D01*
X18180000Y-40568571D01*
X18208571Y-40597143D01*
X18237143Y-40654286D01*
X18237143Y-40797143D01*
X18208571Y-40854286D01*
X18180000Y-40882857D01*
X18122857Y-40911429D01*
X17951429Y-40911429D01*
X17894286Y-40882857D01*
X17865714Y-40854286D01*
X17894286Y-37828571D02*
X17922857Y-37800000D01*
X17980000Y-37771429D01*
X18122857Y-37771429D01*
X18180000Y-37800000D01*
X18208571Y-37828571D01*
X18237143Y-37885714D01*
X18237143Y-37942857D01*
X18208571Y-38028571D01*
X17865714Y-38371429D01*
X18237143Y-38371429D01*
X17865714Y-30151429D02*
X18237143Y-30151429D01*
X18037143Y-30380000D01*
X18122857Y-30380000D01*
X18180000Y-30408571D01*
X18208571Y-30437143D01*
X18237143Y-30494286D01*
X18237143Y-30637143D01*
X18208571Y-30694286D01*
X18180000Y-30722857D01*
X18122857Y-30751429D01*
X17951429Y-30751429D01*
X17894286Y-30722857D01*
X17865714Y-30694286D01*
X18808572Y-30751429D02*
X18465715Y-30751429D01*
X18637143Y-30751429D02*
X18637143Y-30151429D01*
X18580000Y-30237143D01*
X18522858Y-30294286D01*
X18465715Y-30322857D01*
X17865714Y-32691429D02*
X18237143Y-32691429D01*
X18037143Y-32920000D01*
X18122857Y-32920000D01*
X18180000Y-32948571D01*
X18208571Y-32977143D01*
X18237143Y-33034286D01*
X18237143Y-33177143D01*
X18208571Y-33234286D01*
X18180000Y-33262857D01*
X18122857Y-33291429D01*
X17951429Y-33291429D01*
X17894286Y-33262857D01*
X17865714Y-33234286D01*
X18465715Y-32748571D02*
X18494286Y-32720000D01*
X18551429Y-32691429D01*
X18694286Y-32691429D01*
X18751429Y-32720000D01*
X18780000Y-32748571D01*
X18808572Y-32805714D01*
X18808572Y-32862857D01*
X18780000Y-32948571D01*
X18437143Y-33291429D01*
X18808572Y-33291429D01*
X18237143Y-35831429D02*
X17894286Y-35831429D01*
X18065714Y-35831429D02*
X18065714Y-35231429D01*
X18008571Y-35317143D01*
X17951429Y-35374286D01*
X17894286Y-35402857D01*
X47931429Y-69538857D02*
X48531429Y-69338857D01*
X47931429Y-69138857D01*
X48474286Y-68596000D02*
X48502857Y-68624571D01*
X48531429Y-68710285D01*
X48531429Y-68767428D01*
X48502857Y-68853143D01*
X48445714Y-68910285D01*
X48388571Y-68938857D01*
X48274286Y-68967428D01*
X48188571Y-68967428D01*
X48074286Y-68938857D01*
X48017143Y-68910285D01*
X47960000Y-68853143D01*
X47931429Y-68767428D01*
X47931429Y-68710285D01*
X47960000Y-68624571D01*
X47988571Y-68596000D01*
X48474286Y-67996000D02*
X48502857Y-68024571D01*
X48531429Y-68110285D01*
X48531429Y-68167428D01*
X48502857Y-68253143D01*
X48445714Y-68310285D01*
X48388571Y-68338857D01*
X48274286Y-68367428D01*
X48188571Y-68367428D01*
X48074286Y-68338857D01*
X48017143Y-68310285D01*
X47960000Y-68253143D01*
X47931429Y-68167428D01*
X47931429Y-68110285D01*
X47960000Y-68024571D01*
X47988571Y-67996000D01*
X51071429Y-69453143D02*
X50471429Y-69453143D01*
X50900000Y-69253143D01*
X50471429Y-69053143D01*
X51071429Y-69053143D01*
X50471429Y-68653143D02*
X50471429Y-68538857D01*
X50500000Y-68481715D01*
X50557143Y-68424572D01*
X50671429Y-68396000D01*
X50871429Y-68396000D01*
X50985714Y-68424572D01*
X51042857Y-68481715D01*
X51071429Y-68538857D01*
X51071429Y-68653143D01*
X51042857Y-68710286D01*
X50985714Y-68767429D01*
X50871429Y-68796000D01*
X50671429Y-68796000D01*
X50557143Y-68767429D01*
X50500000Y-68710286D01*
X50471429Y-68653143D01*
X51042857Y-68167429D02*
X51071429Y-68081715D01*
X51071429Y-67938858D01*
X51042857Y-67881715D01*
X51014286Y-67853144D01*
X50957143Y-67824572D01*
X50900000Y-67824572D01*
X50842857Y-67853144D01*
X50814286Y-67881715D01*
X50785714Y-67938858D01*
X50757143Y-68053144D01*
X50728571Y-68110286D01*
X50700000Y-68138858D01*
X50642857Y-68167429D01*
X50585714Y-68167429D01*
X50528571Y-68138858D01*
X50500000Y-68110286D01*
X50471429Y-68053144D01*
X50471429Y-67910286D01*
X50500000Y-67824572D01*
X51071429Y-67567429D02*
X50471429Y-67567429D01*
X53040000Y-69138857D02*
X53011429Y-69196000D01*
X53011429Y-69281714D01*
X53040000Y-69367429D01*
X53097143Y-69424571D01*
X53154286Y-69453143D01*
X53268571Y-69481714D01*
X53354286Y-69481714D01*
X53468571Y-69453143D01*
X53525714Y-69424571D01*
X53582857Y-69367429D01*
X53611429Y-69281714D01*
X53611429Y-69224571D01*
X53582857Y-69138857D01*
X53554286Y-69110286D01*
X53354286Y-69110286D01*
X53354286Y-69224571D01*
X53611429Y-68853143D02*
X53011429Y-68853143D01*
X53611429Y-68510286D01*
X53011429Y-68510286D01*
X53611429Y-68224572D02*
X53011429Y-68224572D01*
X53011429Y-68081715D01*
X53040000Y-67996000D01*
X53097143Y-67938858D01*
X53154286Y-67910286D01*
X53268571Y-67881715D01*
X53354286Y-67881715D01*
X53468571Y-67910286D01*
X53525714Y-67938858D01*
X53582857Y-67996000D01*
X53611429Y-68081715D01*
X53611429Y-68224572D01*
X53611429Y-76476286D02*
X53325714Y-76676286D01*
X53611429Y-76819143D02*
X53011429Y-76819143D01*
X53011429Y-76590571D01*
X53040000Y-76533429D01*
X53068571Y-76504857D01*
X53125714Y-76476286D01*
X53211429Y-76476286D01*
X53268571Y-76504857D01*
X53297143Y-76533429D01*
X53325714Y-76590571D01*
X53325714Y-76819143D01*
X53582857Y-76247714D02*
X53611429Y-76162000D01*
X53611429Y-76019143D01*
X53582857Y-75962000D01*
X53554286Y-75933429D01*
X53497143Y-75904857D01*
X53440000Y-75904857D01*
X53382857Y-75933429D01*
X53354286Y-75962000D01*
X53325714Y-76019143D01*
X53297143Y-76133429D01*
X53268571Y-76190571D01*
X53240000Y-76219143D01*
X53182857Y-76247714D01*
X53125714Y-76247714D01*
X53068571Y-76219143D01*
X53040000Y-76190571D01*
X53011429Y-76133429D01*
X53011429Y-75990571D01*
X53040000Y-75904857D01*
X53011429Y-75733428D02*
X53011429Y-75390571D01*
X53611429Y-75562000D02*
X53011429Y-75562000D01*
X51042857Y-76847714D02*
X51071429Y-76762000D01*
X51071429Y-76619143D01*
X51042857Y-76562000D01*
X51014286Y-76533429D01*
X50957143Y-76504857D01*
X50900000Y-76504857D01*
X50842857Y-76533429D01*
X50814286Y-76562000D01*
X50785714Y-76619143D01*
X50757143Y-76733429D01*
X50728571Y-76790571D01*
X50700000Y-76819143D01*
X50642857Y-76847714D01*
X50585714Y-76847714D01*
X50528571Y-76819143D01*
X50500000Y-76790571D01*
X50471429Y-76733429D01*
X50471429Y-76590571D01*
X50500000Y-76504857D01*
X51014286Y-75904857D02*
X51042857Y-75933428D01*
X51071429Y-76019142D01*
X51071429Y-76076285D01*
X51042857Y-76162000D01*
X50985714Y-76219142D01*
X50928571Y-76247714D01*
X50814286Y-76276285D01*
X50728571Y-76276285D01*
X50614286Y-76247714D01*
X50557143Y-76219142D01*
X50500000Y-76162000D01*
X50471429Y-76076285D01*
X50471429Y-76019142D01*
X50500000Y-75933428D01*
X50528571Y-75904857D01*
X51071429Y-75647714D02*
X50471429Y-75647714D01*
X51071429Y-75304857D02*
X50728571Y-75562000D01*
X50471429Y-75304857D02*
X50814286Y-75647714D01*
X48531429Y-76819143D02*
X47931429Y-76819143D01*
X48360000Y-76619143D01*
X47931429Y-76419143D01*
X48531429Y-76419143D01*
X48531429Y-76133429D02*
X47931429Y-76133429D01*
X48502857Y-75876286D02*
X48531429Y-75790572D01*
X48531429Y-75647715D01*
X48502857Y-75590572D01*
X48474286Y-75562001D01*
X48417143Y-75533429D01*
X48360000Y-75533429D01*
X48302857Y-75562001D01*
X48274286Y-75590572D01*
X48245714Y-75647715D01*
X48217143Y-75762001D01*
X48188571Y-75819143D01*
X48160000Y-75847715D01*
X48102857Y-75876286D01*
X48045714Y-75876286D01*
X47988571Y-75847715D01*
X47960000Y-75819143D01*
X47931429Y-75762001D01*
X47931429Y-75619143D01*
X47960000Y-75533429D01*
X47931429Y-75162000D02*
X47931429Y-75047714D01*
X47960000Y-74990572D01*
X48017143Y-74933429D01*
X48131429Y-74904857D01*
X48331429Y-74904857D01*
X48445714Y-74933429D01*
X48502857Y-74990572D01*
X48531429Y-75047714D01*
X48531429Y-75162000D01*
X48502857Y-75219143D01*
X48445714Y-75276286D01*
X48331429Y-75304857D01*
X48131429Y-75304857D01*
X48017143Y-75276286D01*
X47960000Y-75219143D01*
X47931429Y-75162000D01*
X37771429Y-76904857D02*
X37771429Y-76562000D01*
X38371429Y-76733429D02*
X37771429Y-76733429D01*
X37771429Y-76419143D02*
X38371429Y-76019143D01*
X37771429Y-76019143D02*
X38371429Y-76419143D01*
X35831429Y-76476286D02*
X35545714Y-76676286D01*
X35831429Y-76819143D02*
X35231429Y-76819143D01*
X35231429Y-76590571D01*
X35260000Y-76533429D01*
X35288571Y-76504857D01*
X35345714Y-76476286D01*
X35431429Y-76476286D01*
X35488571Y-76504857D01*
X35517143Y-76533429D01*
X35545714Y-76590571D01*
X35545714Y-76819143D01*
X35231429Y-76276286D02*
X35831429Y-75876286D01*
X35231429Y-75876286D02*
X35831429Y-76276286D01*
X32691429Y-76904857D02*
X33291429Y-76704857D01*
X32691429Y-76504857D01*
X33234286Y-75962000D02*
X33262857Y-75990571D01*
X33291429Y-76076285D01*
X33291429Y-76133428D01*
X33262857Y-76219143D01*
X33205714Y-76276285D01*
X33148571Y-76304857D01*
X33034286Y-76333428D01*
X32948571Y-76333428D01*
X32834286Y-76304857D01*
X32777143Y-76276285D01*
X32720000Y-76219143D01*
X32691429Y-76133428D01*
X32691429Y-76076285D01*
X32720000Y-75990571D01*
X32748571Y-75962000D01*
X33234286Y-75362000D02*
X33262857Y-75390571D01*
X33291429Y-75476285D01*
X33291429Y-75533428D01*
X33262857Y-75619143D01*
X33205714Y-75676285D01*
X33148571Y-75704857D01*
X33034286Y-75733428D01*
X32948571Y-75733428D01*
X32834286Y-75704857D01*
X32777143Y-75676285D01*
X32720000Y-75619143D01*
X32691429Y-75533428D01*
X32691429Y-75476285D01*
X32720000Y-75390571D01*
X32748571Y-75362000D01*
X30694286Y-76476286D02*
X30722857Y-76504857D01*
X30751429Y-76590571D01*
X30751429Y-76647714D01*
X30722857Y-76733429D01*
X30665714Y-76790571D01*
X30608571Y-76819143D01*
X30494286Y-76847714D01*
X30408571Y-76847714D01*
X30294286Y-76819143D01*
X30237143Y-76790571D01*
X30180000Y-76733429D01*
X30151429Y-76647714D01*
X30151429Y-76590571D01*
X30180000Y-76504857D01*
X30208571Y-76476286D01*
X30151429Y-76304857D02*
X30151429Y-75962000D01*
X30751429Y-76133429D02*
X30151429Y-76133429D01*
X30722857Y-75790571D02*
X30751429Y-75704857D01*
X30751429Y-75562000D01*
X30722857Y-75504857D01*
X30694286Y-75476286D01*
X30637143Y-75447714D01*
X30580000Y-75447714D01*
X30522857Y-75476286D01*
X30494286Y-75504857D01*
X30465714Y-75562000D01*
X30437143Y-75676286D01*
X30408571Y-75733428D01*
X30380000Y-75762000D01*
X30322857Y-75790571D01*
X30265714Y-75790571D01*
X30208571Y-75762000D01*
X30180000Y-75733428D01*
X30151429Y-75676286D01*
X30151429Y-75533428D01*
X30180000Y-75447714D01*
X40911429Y-76819143D02*
X40311429Y-76819143D01*
X40311429Y-76676286D01*
X40340000Y-76590571D01*
X40397143Y-76533429D01*
X40454286Y-76504857D01*
X40568571Y-76476286D01*
X40654286Y-76476286D01*
X40768571Y-76504857D01*
X40825714Y-76533429D01*
X40882857Y-76590571D01*
X40911429Y-76676286D01*
X40911429Y-76819143D01*
X40311429Y-76304857D02*
X40311429Y-75962000D01*
X40911429Y-76133429D02*
X40311429Y-76133429D01*
X40911429Y-75419143D02*
X40625714Y-75619143D01*
X40911429Y-75762000D02*
X40311429Y-75762000D01*
X40311429Y-75533428D01*
X40340000Y-75476286D01*
X40368571Y-75447714D01*
X40425714Y-75419143D01*
X40511429Y-75419143D01*
X40568571Y-75447714D01*
X40597143Y-75476286D01*
X40625714Y-75533428D01*
X40625714Y-75762000D01*
X27386000Y-76504857D02*
X27357429Y-76562000D01*
X27357429Y-76647714D01*
X27386000Y-76733429D01*
X27443143Y-76790571D01*
X27500286Y-76819143D01*
X27614571Y-76847714D01*
X27700286Y-76847714D01*
X27814571Y-76819143D01*
X27871714Y-76790571D01*
X27928857Y-76733429D01*
X27957429Y-76647714D01*
X27957429Y-76590571D01*
X27928857Y-76504857D01*
X27900286Y-76476286D01*
X27700286Y-76476286D01*
X27700286Y-76590571D01*
X27957429Y-76219143D02*
X27357429Y-76219143D01*
X27957429Y-75876286D01*
X27357429Y-75876286D01*
X27957429Y-75590572D02*
X27357429Y-75590572D01*
X27357429Y-75447715D01*
X27386000Y-75362000D01*
X27443143Y-75304858D01*
X27500286Y-75276286D01*
X27614571Y-75247715D01*
X27700286Y-75247715D01*
X27814571Y-75276286D01*
X27871714Y-75304858D01*
X27928857Y-75362000D01*
X27957429Y-75447715D01*
X27957429Y-75590572D01*
D11*
X36585000Y-41640000D02*
X36585000Y-39640000D01*
X34535000Y-39640000D02*
X34535000Y-41640000D01*
X37830000Y-48505000D02*
X35830000Y-48505000D01*
X35830000Y-50555000D02*
X37830000Y-50555000D01*
X37830000Y-53585000D02*
X35830000Y-53585000D01*
X35830000Y-55635000D02*
X37830000Y-55635000D01*
X40060880Y-21399500D02*
X31059120Y-21399500D01*
X40060880Y-17899380D02*
X31059120Y-17899380D01*
X31059120Y-17899380D02*
X31059120Y-32400240D01*
X31059120Y-32400240D02*
X40060880Y-32400240D01*
X40060880Y-32400240D02*
X40060880Y-17899380D01*
X39150000Y-70730000D02*
X39150000Y-67130000D01*
X37050000Y-70730000D02*
X37050000Y-67130000D01*
X37800000Y-68680000D02*
X38400000Y-68680000D01*
X38400000Y-68680000D02*
X38100000Y-68980000D01*
X38100000Y-68980000D02*
X37900000Y-68780000D01*
X37900000Y-68780000D02*
X38150000Y-68780000D01*
X38150000Y-68780000D02*
X38100000Y-68830000D01*
X37600000Y-69080000D02*
X38600000Y-69080000D01*
X38100000Y-68580000D02*
X38100000Y-68080000D01*
X38100000Y-69080000D02*
X37600000Y-68580000D01*
X37600000Y-68580000D02*
X38600000Y-68580000D01*
X38600000Y-68580000D02*
X38100000Y-69080000D01*
X44230000Y-70730000D02*
X44230000Y-67130000D01*
X42130000Y-70730000D02*
X42130000Y-67130000D01*
X42880000Y-68680000D02*
X43480000Y-68680000D01*
X43480000Y-68680000D02*
X43180000Y-68980000D01*
X43180000Y-68980000D02*
X42980000Y-68780000D01*
X42980000Y-68780000D02*
X43230000Y-68780000D01*
X43230000Y-68780000D02*
X43180000Y-68830000D01*
X42680000Y-69080000D02*
X43680000Y-69080000D01*
X43180000Y-68580000D02*
X43180000Y-68080000D01*
X43180000Y-69080000D02*
X42680000Y-68580000D01*
X42680000Y-68580000D02*
X43680000Y-68580000D01*
X43680000Y-68580000D02*
X43180000Y-69080000D01*
X29210000Y-72390000D02*
X41910000Y-72390000D01*
X41910000Y-72390000D02*
X41910000Y-74930000D01*
X41910000Y-74930000D02*
X29210000Y-74930000D01*
X26390000Y-72110000D02*
X27940000Y-72110000D01*
X29210000Y-72390000D02*
X29210000Y-74930000D01*
X27940000Y-75210000D02*
X26390000Y-75210000D01*
X26390000Y-75210000D02*
X26390000Y-72110000D01*
X24130000Y-26670000D02*
X24130000Y-64770000D01*
X24130000Y-64770000D02*
X26670000Y-64770000D01*
X26670000Y-64770000D02*
X26670000Y-26670000D01*
X26950000Y-23850000D02*
X26950000Y-25400000D01*
X26670000Y-26670000D02*
X24130000Y-26670000D01*
X23850000Y-25400000D02*
X23850000Y-23850000D01*
X23850000Y-23850000D02*
X26950000Y-23850000D01*
X49530000Y-74930000D02*
X54610000Y-74930000D01*
X46710000Y-75210000D02*
X46710000Y-73660000D01*
X46990000Y-72390000D02*
X49530000Y-72390000D01*
X49530000Y-72390000D02*
X49530000Y-74930000D01*
X54610000Y-74930000D02*
X54610000Y-69850000D01*
X54610000Y-69850000D02*
X49530000Y-69850000D01*
X46710000Y-75210000D02*
X48260000Y-75210000D01*
X46990000Y-69850000D02*
X46990000Y-72390000D01*
X49530000Y-69850000D02*
X46990000Y-69850000D01*
X57150000Y-62230000D02*
X57150000Y-24130000D01*
X57150000Y-24130000D02*
X54610000Y-24130000D01*
X54610000Y-24130000D02*
X54610000Y-62230000D01*
X54330000Y-65050000D02*
X54330000Y-63500000D01*
X54610000Y-62230000D02*
X57150000Y-62230000D01*
X57430000Y-63500000D02*
X57430000Y-65050000D01*
X57430000Y-65050000D02*
X54330000Y-65050000D01*
X31555000Y-39640000D02*
X31555000Y-41640000D01*
X29405000Y-41640000D02*
X29405000Y-39640000D01*
X37025000Y-63230000D02*
X37025000Y-61230000D01*
X39175000Y-61230000D02*
X39175000Y-63230000D01*
X42105000Y-63230000D02*
X42105000Y-61230000D01*
X44255000Y-61230000D02*
X44255000Y-63230000D01*
X50546000Y-36576000D02*
X50546000Y-33528000D01*
X50546000Y-33528000D02*
X43434000Y-33528000D01*
X43434000Y-33528000D02*
X43434000Y-36576000D01*
X50546000Y-39624000D02*
X50546000Y-40386000D01*
X50546000Y-40386000D02*
X49022000Y-42672000D01*
X49022000Y-42672000D02*
X44958000Y-42672000D01*
X44958000Y-42672000D02*
X43434000Y-40386000D01*
X43434000Y-40386000D02*
X43434000Y-39624000D01*
X31480760Y-56769000D02*
X31079440Y-56969660D01*
X31079440Y-56969660D02*
X30480000Y-57071260D01*
X30480000Y-57071260D02*
X29979620Y-56969660D01*
X29979620Y-56969660D02*
X29281120Y-56570880D01*
X29281120Y-56570880D02*
X28879800Y-55968900D01*
X28879800Y-55968900D02*
X28679140Y-55369460D01*
X28679140Y-55369460D02*
X28679140Y-48770540D01*
X28679140Y-48770540D02*
X28879800Y-48069500D01*
X28879800Y-48069500D02*
X29179520Y-47670720D01*
X29179520Y-47670720D02*
X29679900Y-47269400D01*
X29679900Y-47269400D02*
X30279340Y-47068740D01*
X30279340Y-47068740D02*
X30779720Y-47068740D01*
X30779720Y-47068740D02*
X31280100Y-47269400D01*
X31280100Y-47269400D02*
X31879540Y-47769780D01*
X31879540Y-47769780D02*
X32179260Y-48270160D01*
X32179260Y-48270160D02*
X32280860Y-48770540D01*
X32280860Y-48869600D02*
X32280860Y-55471060D01*
X32280860Y-55471060D02*
X32179260Y-55869840D01*
X32179260Y-55869840D02*
X31879540Y-56370220D01*
X31879540Y-56370220D02*
X31379160Y-56870600D01*
X32809180Y-48879760D02*
X32760920Y-48420020D01*
X32760920Y-48420020D02*
X32649160Y-48021240D01*
X32649160Y-48021240D02*
X32430720Y-47589440D01*
X32430720Y-47589440D02*
X32199580Y-47299880D01*
X32199580Y-47299880D02*
X31849060Y-46969680D01*
X31849060Y-46969680D02*
X31310580Y-46680120D01*
X31310580Y-46680120D02*
X30711140Y-46550580D01*
X30711140Y-46550580D02*
X30200600Y-46550580D01*
X30200600Y-46550580D02*
X29499560Y-46720760D01*
X29499560Y-46720760D02*
X28910280Y-47119540D01*
X28910280Y-47119540D02*
X28539440Y-47579280D01*
X28539440Y-47579280D02*
X28331160Y-48000920D01*
X28331160Y-48000920D02*
X28171140Y-48450500D01*
X28171140Y-48450500D02*
X28140660Y-48889920D01*
X28359100Y-56230520D02*
X28580080Y-56608980D01*
X28580080Y-56608980D02*
X28859480Y-56929020D01*
X28859480Y-56929020D02*
X29189680Y-57180480D01*
X29189680Y-57180480D02*
X29740860Y-57480200D01*
X29740860Y-57480200D02*
X30210760Y-57589420D01*
X30210760Y-57589420D02*
X30670500Y-57609740D01*
X30670500Y-57609740D02*
X31130240Y-57520840D01*
X31130240Y-57520840D02*
X31579820Y-57330340D01*
X31579820Y-57330340D02*
X32049720Y-56969660D01*
X32049720Y-56969660D02*
X32369760Y-56619140D01*
X32369760Y-56619140D02*
X32600900Y-56230520D01*
X32600900Y-56230520D02*
X32740600Y-55801260D01*
X32740600Y-55801260D02*
X32809180Y-55359300D01*
X28150820Y-48869600D02*
X28150820Y-55321200D01*
X28150820Y-55321200D02*
X28188920Y-55740300D01*
X28188920Y-55740300D02*
X28359100Y-56230520D01*
X32809180Y-48869600D02*
X32809180Y-55321200D01*
X19050000Y-26670000D02*
X19050000Y-64770000D01*
X19050000Y-64770000D02*
X21590000Y-64770000D01*
X21590000Y-64770000D02*
X21590000Y-26670000D01*
X21870000Y-23850000D02*
X21870000Y-25400000D01*
X21590000Y-26670000D02*
X19050000Y-26670000D01*
X18770000Y-25400000D02*
X18770000Y-23850000D01*
X18770000Y-23850000D02*
X21870000Y-23850000D01*
X62230000Y-62230000D02*
X62230000Y-24130000D01*
X62230000Y-24130000D02*
X59690000Y-24130000D01*
X59690000Y-24130000D02*
X59690000Y-62230000D01*
X59410000Y-65050000D02*
X59410000Y-63500000D01*
X59690000Y-62230000D02*
X62230000Y-62230000D01*
X62510000Y-63500000D02*
X62510000Y-65050000D01*
X62510000Y-65050000D02*
X59410000Y-65050000D01*
X44516040Y-29773880D02*
X49717960Y-29773880D01*
X49717960Y-27376120D02*
X44516040Y-27376120D01*
X42517060Y-26276300D02*
X42517060Y-27376120D01*
X41917620Y-26776680D02*
X43116500Y-26776680D01*
X43121580Y-27376120D02*
X43121580Y-29773880D01*
X48117000Y-30725000D02*
X46117000Y-30725000D01*
X46117000Y-32775000D02*
X48117000Y-32775000D01*
X21835000Y-45990000D02*
X21835000Y-47990000D01*
X23885000Y-47990000D02*
X23885000Y-45990000D01*
X26915000Y-39640000D02*
X26915000Y-41640000D01*
X28965000Y-41640000D02*
X28965000Y-39640000D01*
X52061000Y-44974000D02*
X52061000Y-46974000D01*
X54111000Y-46974000D02*
X54111000Y-44974000D01*
X48260000Y-23622000D02*
X43180000Y-23622000D01*
X43180000Y-23622000D02*
X43180000Y-26162000D01*
X43180000Y-26162000D02*
X48260000Y-26162000D01*
X51080000Y-26442000D02*
X49530000Y-26442000D01*
X48260000Y-26162000D02*
X48260000Y-23622000D01*
X49530000Y-23342000D02*
X51080000Y-23342000D01*
X51080000Y-23342000D02*
X51080000Y-26442000D01*
X57221500Y-77652500D02*
X64698499Y-77652500D01*
X64698499Y-77652500D02*
X64698500Y-67127500D01*
X64698500Y-67127500D02*
X57221501Y-67127500D01*
X57221501Y-67127500D02*
X57221500Y-70635834D01*
X57221500Y-70635834D02*
X57671500Y-70635834D01*
X57671500Y-70635834D02*
X57671500Y-74144166D01*
X57671500Y-74144166D02*
X57221500Y-74144166D01*
X57221500Y-74144166D02*
X57221500Y-77652500D01*
X35393334Y-40997143D02*
X35345715Y-41044762D01*
X35202858Y-41092381D01*
X35107620Y-41092381D01*
X34964762Y-41044762D01*
X34869524Y-40949524D01*
X34821905Y-40854286D01*
X34774286Y-40663810D01*
X34774286Y-40520952D01*
X34821905Y-40330476D01*
X34869524Y-40235238D01*
X34964762Y-40140000D01*
X35107620Y-40092381D01*
X35202858Y-40092381D01*
X35345715Y-40140000D01*
X35393334Y-40187619D01*
X36345715Y-41092381D02*
X35774286Y-41092381D01*
X36060000Y-41092381D02*
X36060000Y-40092381D01*
X35964762Y-40235238D01*
X35869524Y-40330476D01*
X35774286Y-40378095D01*
X41235334Y-48617143D02*
X41187715Y-48664762D01*
X41044858Y-48712381D01*
X40949620Y-48712381D01*
X40806762Y-48664762D01*
X40711524Y-48569524D01*
X40663905Y-48474286D01*
X40616286Y-48283810D01*
X40616286Y-48140952D01*
X40663905Y-47950476D01*
X40711524Y-47855238D01*
X40806762Y-47760000D01*
X40949620Y-47712381D01*
X41044858Y-47712381D01*
X41187715Y-47760000D01*
X41235334Y-47807619D01*
X41616286Y-47807619D02*
X41663905Y-47760000D01*
X41759143Y-47712381D01*
X41997239Y-47712381D01*
X42092477Y-47760000D01*
X42140096Y-47807619D01*
X42187715Y-47902857D01*
X42187715Y-47998095D01*
X42140096Y-48140952D01*
X41568667Y-48712381D01*
X42187715Y-48712381D01*
X41235334Y-53951143D02*
X41187715Y-53998762D01*
X41044858Y-54046381D01*
X40949620Y-54046381D01*
X40806762Y-53998762D01*
X40711524Y-53903524D01*
X40663905Y-53808286D01*
X40616286Y-53617810D01*
X40616286Y-53474952D01*
X40663905Y-53284476D01*
X40711524Y-53189238D01*
X40806762Y-53094000D01*
X40949620Y-53046381D01*
X41044858Y-53046381D01*
X41187715Y-53094000D01*
X41235334Y-53141619D01*
X41568667Y-53046381D02*
X42187715Y-53046381D01*
X41854381Y-53427333D01*
X41997239Y-53427333D01*
X42092477Y-53474952D01*
X42140096Y-53522571D01*
X42187715Y-53617810D01*
X42187715Y-53855905D01*
X42140096Y-53951143D01*
X42092477Y-53998762D01*
X41997239Y-54046381D01*
X41711524Y-54046381D01*
X41616286Y-53998762D01*
X41568667Y-53951143D01*
X36552381Y-69318095D02*
X35552381Y-69318095D01*
X35552381Y-69080000D01*
X35600000Y-68937142D01*
X35695238Y-68841904D01*
X35790476Y-68794285D01*
X35980952Y-68746666D01*
X36123810Y-68746666D01*
X36314286Y-68794285D01*
X36409524Y-68841904D01*
X36504762Y-68937142D01*
X36552381Y-69080000D01*
X36552381Y-69318095D01*
X36552381Y-67794285D02*
X36552381Y-68365714D01*
X36552381Y-68080000D02*
X35552381Y-68080000D01*
X35695238Y-68175238D01*
X35790476Y-68270476D01*
X35838095Y-68365714D01*
X41632381Y-69318095D02*
X40632381Y-69318095D01*
X40632381Y-69080000D01*
X40680000Y-68937142D01*
X40775238Y-68841904D01*
X40870476Y-68794285D01*
X41060952Y-68746666D01*
X41203810Y-68746666D01*
X41394286Y-68794285D01*
X41489524Y-68841904D01*
X41584762Y-68937142D01*
X41632381Y-69080000D01*
X41632381Y-69318095D01*
X40727619Y-68365714D02*
X40680000Y-68318095D01*
X40632381Y-68222857D01*
X40632381Y-67984761D01*
X40680000Y-67889523D01*
X40727619Y-67841904D01*
X40822857Y-67794285D01*
X40918095Y-67794285D01*
X41060952Y-67841904D01*
X41632381Y-68413333D01*
X41632381Y-67794285D01*
X30313334Y-41092381D02*
X29980000Y-40616190D01*
X29741905Y-41092381D02*
X29741905Y-40092381D01*
X30122858Y-40092381D01*
X30218096Y-40140000D01*
X30265715Y-40187619D01*
X30313334Y-40282857D01*
X30313334Y-40425714D01*
X30265715Y-40520952D01*
X30218096Y-40568571D01*
X30122858Y-40616190D01*
X29741905Y-40616190D01*
X31265715Y-41092381D02*
X30694286Y-41092381D01*
X30980000Y-41092381D02*
X30980000Y-40092381D01*
X30884762Y-40235238D01*
X30789524Y-40330476D01*
X30694286Y-40378095D01*
X36520381Y-60364666D02*
X36044190Y-60698000D01*
X36520381Y-60936095D02*
X35520381Y-60936095D01*
X35520381Y-60555142D01*
X35568000Y-60459904D01*
X35615619Y-60412285D01*
X35710857Y-60364666D01*
X35853714Y-60364666D01*
X35948952Y-60412285D01*
X35996571Y-60459904D01*
X36044190Y-60555142D01*
X36044190Y-60936095D01*
X35615619Y-59983714D02*
X35568000Y-59936095D01*
X35520381Y-59840857D01*
X35520381Y-59602761D01*
X35568000Y-59507523D01*
X35615619Y-59459904D01*
X35710857Y-59412285D01*
X35806095Y-59412285D01*
X35948952Y-59459904D01*
X36520381Y-60031333D01*
X36520381Y-59412285D01*
X41600381Y-60364666D02*
X41124190Y-60698000D01*
X41600381Y-60936095D02*
X40600381Y-60936095D01*
X40600381Y-60555142D01*
X40648000Y-60459904D01*
X40695619Y-60412285D01*
X40790857Y-60364666D01*
X40933714Y-60364666D01*
X41028952Y-60412285D01*
X41076571Y-60459904D01*
X41124190Y-60555142D01*
X41124190Y-60936095D01*
X40600381Y-60031333D02*
X40600381Y-59412285D01*
X40981333Y-59745619D01*
X40981333Y-59602761D01*
X41028952Y-59507523D01*
X41076571Y-59459904D01*
X41171810Y-59412285D01*
X41409905Y-59412285D01*
X41505143Y-59459904D01*
X41552762Y-59507523D01*
X41600381Y-59602761D01*
X41600381Y-59888476D01*
X41552762Y-59983714D01*
X41505143Y-60031333D01*
X46228095Y-38314381D02*
X46228095Y-39123905D01*
X46275714Y-39219143D01*
X46323333Y-39266762D01*
X46418571Y-39314381D01*
X46609048Y-39314381D01*
X46704286Y-39266762D01*
X46751905Y-39219143D01*
X46799524Y-39123905D01*
X46799524Y-38314381D01*
X47799524Y-39314381D02*
X47228095Y-39314381D01*
X47513809Y-39314381D02*
X47513809Y-38314381D01*
X47418571Y-38457238D01*
X47323333Y-38552476D01*
X47228095Y-38600095D01*
X42521143Y-28868666D02*
X42568762Y-28916285D01*
X42616381Y-29059142D01*
X42616381Y-29154380D01*
X42568762Y-29297238D01*
X42473524Y-29392476D01*
X42378286Y-29440095D01*
X42187810Y-29487714D01*
X42044952Y-29487714D01*
X41854476Y-29440095D01*
X41759238Y-29392476D01*
X41664000Y-29297238D01*
X41616381Y-29154380D01*
X41616381Y-29059142D01*
X41664000Y-28916285D01*
X41711619Y-28868666D01*
X41949714Y-28011523D02*
X42616381Y-28011523D01*
X41568762Y-28249619D02*
X42283048Y-28487714D01*
X42283048Y-27868666D01*
X42136108Y-26845569D02*
X42898013Y-26845569D01*
X42517061Y-27226521D02*
X42517061Y-26464616D01*
X43283143Y-31916666D02*
X43330762Y-31964285D01*
X43378381Y-32107142D01*
X43378381Y-32202380D01*
X43330762Y-32345238D01*
X43235524Y-32440476D01*
X43140286Y-32488095D01*
X42949810Y-32535714D01*
X42806952Y-32535714D01*
X42616476Y-32488095D01*
X42521238Y-32440476D01*
X42426000Y-32345238D01*
X42378381Y-32202380D01*
X42378381Y-32107142D01*
X42426000Y-31964285D01*
X42473619Y-31916666D01*
X42378381Y-31011904D02*
X42378381Y-31488095D01*
X42854571Y-31535714D01*
X42806952Y-31488095D01*
X42759333Y-31392857D01*
X42759333Y-31154761D01*
X42806952Y-31059523D01*
X42854571Y-31011904D01*
X42949810Y-30964285D01*
X43187905Y-30964285D01*
X43283143Y-31011904D01*
X43330762Y-31059523D01*
X43378381Y-31154761D01*
X43378381Y-31392857D01*
X43330762Y-31488095D01*
X43283143Y-31535714D01*
X27773334Y-40997143D02*
X27725715Y-41044762D01*
X27582858Y-41092381D01*
X27487620Y-41092381D01*
X27344762Y-41044762D01*
X27249524Y-40949524D01*
X27201905Y-40854286D01*
X27154286Y-40663810D01*
X27154286Y-40520952D01*
X27201905Y-40330476D01*
X27249524Y-40235238D01*
X27344762Y-40140000D01*
X27487620Y-40092381D01*
X27582858Y-40092381D01*
X27725715Y-40140000D01*
X27773334Y-40187619D01*
X28106667Y-40092381D02*
X28773334Y-40092381D01*
X28344762Y-41092381D01*
X52919334Y-42267143D02*
X52871715Y-42314762D01*
X52728858Y-42362381D01*
X52633620Y-42362381D01*
X52490762Y-42314762D01*
X52395524Y-42219524D01*
X52347905Y-42124286D01*
X52300286Y-41933810D01*
X52300286Y-41790952D01*
X52347905Y-41600476D01*
X52395524Y-41505238D01*
X52490762Y-41410000D01*
X52633620Y-41362381D01*
X52728858Y-41362381D01*
X52871715Y-41410000D01*
X52919334Y-41457619D01*
X53490762Y-41790952D02*
X53395524Y-41743333D01*
X53347905Y-41695714D01*
X53300286Y-41600476D01*
X53300286Y-41552857D01*
X53347905Y-41457619D01*
X53395524Y-41410000D01*
X53490762Y-41362381D01*
X53681239Y-41362381D01*
X53776477Y-41410000D01*
X53824096Y-41457619D01*
X53871715Y-41552857D01*
X53871715Y-41600476D01*
X53824096Y-41695714D01*
X53776477Y-41743333D01*
X53681239Y-41790952D01*
X53490762Y-41790952D01*
X53395524Y-41838571D01*
X53347905Y-41886190D01*
X53300286Y-41981429D01*
X53300286Y-42171905D01*
X53347905Y-42267143D01*
X53395524Y-42314762D01*
X53490762Y-42362381D01*
X53681239Y-42362381D01*
X53776477Y-42314762D01*
X53824096Y-42267143D01*
X53871715Y-42171905D01*
X53871715Y-41981429D01*
X53824096Y-41886190D01*
X53776477Y-41838571D01*
X53681239Y-41790952D01*
X59360000Y-73129714D02*
X59531429Y-73186857D01*
X59817143Y-73186857D01*
X59931429Y-73129714D01*
X59988572Y-73072571D01*
X60045715Y-72958286D01*
X60045715Y-72844000D01*
X59988572Y-72729714D01*
X59931429Y-72672571D01*
X59817143Y-72615429D01*
X59588572Y-72558286D01*
X59474286Y-72501143D01*
X59417143Y-72444000D01*
X59360000Y-72329714D01*
X59360000Y-72215429D01*
X59417143Y-72101143D01*
X59474286Y-72044000D01*
X59588572Y-71986857D01*
X59874286Y-71986857D01*
X60045715Y-72044000D01*
X60445715Y-71986857D02*
X60731429Y-73186857D01*
X60960000Y-72329714D01*
X61188572Y-73186857D01*
X61474286Y-71986857D01*
X62560001Y-73186857D02*
X61874286Y-73186857D01*
X62217144Y-73186857D02*
X62217144Y-71986857D01*
X62102858Y-72158286D01*
X61988572Y-72272571D01*
X61874286Y-72329714D01*
M02*
