M48
;DRILL file {KiCad 4.0.2-stable} date 4/26/2016 7:04:00 PM
;FORMAT={-:-/ absolute / inch / decimal}
FMAT,2
INCH,TZ
T1C0.013
T2C0.032
T3C0.040
T4C0.050
T5C0.090
T6C0.130
%
G90
G05
M72
T1
X0.95Y-2.95
X1.6Y-1.7
X1.6Y-2.7
X1.625Y-1.65
X1.625Y-1.95
X1.625Y-2.15
X1.85Y-2.45
X2.02Y-1.37
T2
X1.2Y-1.9539
X1.2Y-2.1461
T3
X0.8Y-1.
X0.8Y-1.1
X0.8Y-1.2
X0.8Y-1.3
X0.8Y-1.4
X0.8Y-1.5
X0.8Y-1.6
X0.8Y-1.7
X0.8Y-1.8
X0.8Y-1.9
X0.8Y-2.
X0.8Y-2.1
X0.8Y-2.2
X0.8Y-2.3
X0.8Y-2.4
X0.8Y-2.5
X1.Y-1.
X1.Y-1.1
X1.Y-1.2
X1.Y-1.3
X1.Y-1.4
X1.Y-1.5
X1.Y-1.6
X1.Y-1.7
X1.Y-1.8
X1.Y-1.9
X1.Y-2.
X1.Y-2.1
X1.Y-2.2
X1.Y-2.3
X1.Y-2.4
X1.Y-2.5
X1.1Y-2.9
X1.2Y-2.9
X1.3Y-2.9
X1.4Y-2.9
X1.5Y-2.9
X1.6Y-2.9
X1.75Y-0.98
X1.85Y-0.98
X1.9Y-2.8
X1.9Y-2.9
X1.95Y-0.98
X2.Y-2.8
X2.Y-2.9
X2.1Y-2.8
X2.1Y-2.9
X2.2Y-1.
X2.2Y-1.1
X2.2Y-1.2
X2.2Y-1.3
X2.2Y-1.4
X2.2Y-1.5
X2.2Y-1.6
X2.2Y-1.7
X2.2Y-1.8
X2.2Y-1.9
X2.2Y-2.
X2.2Y-2.1
X2.2Y-2.2
X2.2Y-2.3
X2.2Y-2.4
X2.2Y-2.5
X2.4Y-1.
X2.4Y-1.1
X2.4Y-1.2
X2.4Y-1.3
X2.4Y-1.4
X2.4Y-1.5
X2.4Y-1.6
X2.4Y-1.7
X2.4Y-1.8
X2.4Y-1.9
X2.4Y-2.
X2.4Y-2.1
X2.4Y-2.2
X2.4Y-2.3
X2.4Y-2.4
X2.4Y-2.5
T4
X2.3075Y-2.7075
X2.3075Y-2.9925
X2.4925Y-2.7075
X2.4925Y-2.9925
T5
X1.215Y-1.126
X1.4Y-1.0079
T6
X1.4Y-1.2441
T0
M30
