%TF.GenerationSoftware,KiCad,Pcbnew,4.0.2-stable*%
%TF.CreationDate,2016-04-26T19:03:57-04:00*%
%TF.ProjectId,Programmer,50726F6772616D6D65722E6B69636164,rev?*%
%TF.FileFunction,Copper,L1,Top,Signal*%
%FSLAX46Y46*%
G04 Gerber Fmt 4.6, Leading zero omitted, Abs format (unit mm)*
G04 Created by KiCad (PCBNEW 4.0.2-stable) date 4/26/2016 7:03:57 PM*
%MOMM*%
G01*
G04 APERTURE LIST*
%ADD10C,0.127000*%
%ADD11R,1.600000X2.000000*%
%ADD12R,2.000000X1.600000*%
%ADD13O,5.080000X5.080000*%
%ADD14O,3.810000X3.810000*%
%ADD15R,1.800860X1.597660*%
%ADD16R,1.727200X2.032000*%
%ADD17O,1.727200X2.032000*%
%ADD18R,2.032000X1.727200*%
%ADD19O,2.032000X1.727200*%
%ADD20R,1.727200X1.727200*%
%ADD21O,1.727200X1.727200*%
%ADD22R,1.700000X2.000000*%
%ADD23R,3.657600X2.032000*%
%ADD24R,1.016000X2.032000*%
%ADD25C,1.501140*%
%ADD26R,2.999740X1.501140*%
%ADD27O,1.778000X2.286000*%
%ADD28C,0.685800*%
%ADD29C,0.500000*%
%ADD30C,0.254000*%
G04 APERTURE END LIST*
D10*
D11*
X35560000Y-38640000D03*
X35560000Y-42640000D03*
D12*
X34830000Y-49530000D03*
X38830000Y-49530000D03*
X34830000Y-54610000D03*
X38830000Y-54610000D03*
D13*
X35560000Y-31600140D03*
D14*
X35560000Y-25600660D03*
X30861000Y-28600400D03*
D15*
X38100000Y-67160140D03*
X38100000Y-69999860D03*
X43180000Y-67160140D03*
X43180000Y-69999860D03*
D16*
X27940000Y-73660000D03*
D17*
X30480000Y-73660000D03*
X33020000Y-73660000D03*
X35560000Y-73660000D03*
X38100000Y-73660000D03*
X40640000Y-73660000D03*
D18*
X25400000Y-25400000D03*
D19*
X25400000Y-27940000D03*
X25400000Y-30480000D03*
X25400000Y-33020000D03*
X25400000Y-35560000D03*
X25400000Y-38100000D03*
X25400000Y-40640000D03*
X25400000Y-43180000D03*
X25400000Y-45720000D03*
X25400000Y-48260000D03*
X25400000Y-50800000D03*
X25400000Y-53340000D03*
X25400000Y-55880000D03*
X25400000Y-58420000D03*
X25400000Y-60960000D03*
X25400000Y-63500000D03*
D20*
X48260000Y-73660000D03*
D21*
X48260000Y-71120000D03*
X50800000Y-73660000D03*
X50800000Y-71120000D03*
X53340000Y-73660000D03*
X53340000Y-71120000D03*
D18*
X55880000Y-63500000D03*
D19*
X55880000Y-60960000D03*
X55880000Y-58420000D03*
X55880000Y-55880000D03*
X55880000Y-53340000D03*
X55880000Y-50800000D03*
X55880000Y-48260000D03*
X55880000Y-45720000D03*
X55880000Y-43180000D03*
X55880000Y-40640000D03*
X55880000Y-38100000D03*
X55880000Y-35560000D03*
X55880000Y-33020000D03*
X55880000Y-30480000D03*
X55880000Y-27940000D03*
X55880000Y-25400000D03*
D22*
X30480000Y-42640000D03*
X30480000Y-38640000D03*
X38100000Y-60230000D03*
X38100000Y-64230000D03*
X43180000Y-60230000D03*
X43180000Y-64230000D03*
D23*
X46990000Y-41402000D03*
D24*
X46990000Y-34798000D03*
X44704000Y-34798000D03*
X49276000Y-34798000D03*
D25*
X30480000Y-49629060D03*
X30480000Y-54510940D03*
D18*
X20320000Y-25400000D03*
D19*
X20320000Y-27940000D03*
X20320000Y-30480000D03*
X20320000Y-33020000D03*
X20320000Y-35560000D03*
X20320000Y-38100000D03*
X20320000Y-40640000D03*
X20320000Y-43180000D03*
X20320000Y-45720000D03*
X20320000Y-48260000D03*
X20320000Y-50800000D03*
X20320000Y-53340000D03*
X20320000Y-55880000D03*
X20320000Y-58420000D03*
X20320000Y-60960000D03*
X20320000Y-63500000D03*
D18*
X60960000Y-63500000D03*
D19*
X60960000Y-60960000D03*
X60960000Y-58420000D03*
X60960000Y-55880000D03*
X60960000Y-53340000D03*
X60960000Y-50800000D03*
X60960000Y-48260000D03*
X60960000Y-45720000D03*
X60960000Y-43180000D03*
X60960000Y-40640000D03*
X60960000Y-38100000D03*
X60960000Y-35560000D03*
X60960000Y-33020000D03*
X60960000Y-30480000D03*
X60960000Y-27940000D03*
X60960000Y-25400000D03*
D26*
X49115980Y-28575000D03*
X45118020Y-28575000D03*
D12*
X45117000Y-31750000D03*
X49117000Y-31750000D03*
D11*
X22860000Y-48990000D03*
X22860000Y-44990000D03*
X27940000Y-42640000D03*
X27940000Y-38640000D03*
X53086000Y-47974000D03*
X53086000Y-43974000D03*
D16*
X49530000Y-24892000D03*
D17*
X46990000Y-24892000D03*
X44450000Y-24892000D03*
D27*
X58610500Y-68770500D03*
X58610500Y-76009500D03*
X63309500Y-68770500D03*
X63309500Y-76009500D03*
D28*
X41275000Y-41910000D03*
X40640000Y-43180000D03*
X51308000Y-34798000D03*
X40640000Y-68580000D03*
X41275000Y-54610000D03*
X41275000Y-49530000D03*
X24130000Y-74930000D03*
X46990000Y-62230000D03*
D29*
X53340000Y-73660000D02*
X56261000Y-73660000D01*
X56261000Y-73660000D02*
X58610500Y-76009500D01*
X38005000Y-38640000D02*
X35560000Y-38640000D01*
X41275000Y-41910000D02*
X38005000Y-38640000D01*
X20320000Y-25400000D02*
X25400000Y-25400000D01*
D30*
X25400000Y-25400000D02*
X26035000Y-25400000D01*
D29*
X26035000Y-25400000D02*
X27940000Y-27305000D01*
X27940000Y-36100000D02*
X30480000Y-38640000D01*
X27940000Y-27305000D02*
X27940000Y-36100000D01*
X30480000Y-38640000D02*
X35560000Y-38640000D01*
X40100000Y-42640000D02*
X35560000Y-42640000D01*
X40640000Y-43180000D02*
X40100000Y-42640000D01*
X20320000Y-50800000D02*
X25400000Y-50800000D01*
X30480000Y-49629060D02*
X34730940Y-49629060D01*
D30*
X34730940Y-49629060D02*
X34830000Y-49530000D01*
D29*
X25400000Y-50800000D02*
X29309060Y-50800000D01*
X29309060Y-50800000D02*
X30480000Y-49629060D01*
X53086000Y-43974000D02*
X55086000Y-43974000D01*
X55086000Y-43974000D02*
X55880000Y-43180000D01*
X25400000Y-45720000D02*
X23590000Y-45720000D01*
X23590000Y-45720000D02*
X22860000Y-44990000D01*
X20320000Y-45720000D02*
X22130000Y-45720000D01*
X22130000Y-45720000D02*
X22860000Y-44990000D01*
X25400000Y-40640000D02*
X25940000Y-40640000D01*
X25940000Y-40640000D02*
X27940000Y-38640000D01*
X49276000Y-34798000D02*
X51308000Y-34798000D01*
X49117000Y-31750000D02*
X49117000Y-28576020D01*
X49117000Y-28576020D02*
X49115980Y-28575000D01*
X49276000Y-34798000D02*
X49276000Y-31909000D01*
X49276000Y-31909000D02*
X49117000Y-31750000D01*
X43180000Y-69999860D02*
X42059860Y-69999860D01*
X39220140Y-69999860D02*
X40640000Y-68580000D01*
X39220140Y-69999860D02*
X38100000Y-69999860D01*
X42059860Y-69999860D02*
X40640000Y-68580000D01*
X20320000Y-40640000D02*
X25400000Y-40640000D01*
X55880000Y-43180000D02*
X60960000Y-43180000D01*
X38830000Y-54610000D02*
X41275000Y-54610000D01*
X38830000Y-49530000D02*
X41275000Y-49530000D01*
X20320000Y-53340000D02*
X25400000Y-53340000D01*
X30480000Y-54510940D02*
X34730940Y-54510940D01*
D30*
X34730940Y-54510940D02*
X34830000Y-54610000D01*
D29*
X25400000Y-53340000D02*
X29309060Y-53340000D01*
X29309060Y-53340000D02*
X30480000Y-54510940D01*
X35560000Y-31600140D02*
X35560000Y-30480000D01*
X35560000Y-30480000D02*
X43180000Y-22860000D01*
X44958000Y-22860000D02*
X46990000Y-24892000D01*
X43180000Y-22860000D02*
X44958000Y-22860000D01*
D30*
X38100000Y-64230000D02*
X38100000Y-67160140D01*
D29*
X43180000Y-67160140D02*
X43180000Y-64230000D01*
X30480000Y-42640000D02*
X31210000Y-42640000D01*
X31210000Y-42640000D02*
X34290000Y-45720000D01*
X44450000Y-49530000D02*
X44450000Y-54610000D01*
X40640000Y-45720000D02*
X44450000Y-49530000D01*
X34290000Y-45720000D02*
X40640000Y-45720000D01*
X46990000Y-34798000D02*
X46990000Y-36830000D01*
X51054000Y-45942000D02*
X53086000Y-47974000D01*
X51054000Y-40894000D02*
X51054000Y-45942000D01*
X46990000Y-36830000D02*
X51054000Y-40894000D01*
X53086000Y-47974000D02*
X53086000Y-48006000D01*
X53086000Y-48006000D02*
X55880000Y-50800000D01*
X25400000Y-48260000D02*
X23590000Y-48260000D01*
X23590000Y-48260000D02*
X22860000Y-48990000D01*
X20320000Y-48260000D02*
X22130000Y-48260000D01*
X22130000Y-48260000D02*
X22860000Y-48990000D01*
X25400000Y-43180000D02*
X27400000Y-43180000D01*
X27400000Y-43180000D02*
X27940000Y-42640000D01*
X27940000Y-42640000D02*
X30480000Y-42640000D01*
X49530000Y-24892000D02*
X51054000Y-24892000D01*
X48006000Y-36830000D02*
X46990000Y-35814000D01*
X51054000Y-36830000D02*
X48006000Y-36830000D01*
X52324000Y-35560000D02*
X51054000Y-36830000D01*
X52324000Y-26162000D02*
X52324000Y-35560000D01*
X51054000Y-24892000D02*
X52324000Y-26162000D01*
X46990000Y-35814000D02*
X46990000Y-34798000D01*
X46990000Y-34798000D02*
X46990000Y-33623000D01*
X46990000Y-33623000D02*
X45117000Y-31750000D01*
X25400000Y-48260000D02*
X26670000Y-48260000D01*
X30480000Y-44450000D02*
X30480000Y-42640000D01*
X26670000Y-48260000D02*
X30480000Y-44450000D01*
X20320000Y-43180000D02*
X25400000Y-43180000D01*
X55880000Y-50800000D02*
X60960000Y-50800000D01*
X55880000Y-50800000D02*
X48260000Y-50800000D01*
X48260000Y-50800000D02*
X44450000Y-54610000D01*
X44450000Y-54610000D02*
X38830000Y-60230000D01*
X38830000Y-60230000D02*
X38100000Y-60230000D01*
X48260000Y-71120000D02*
X43180000Y-76200000D01*
X33020000Y-74930000D02*
X33020000Y-73660000D01*
X34290000Y-76200000D02*
X33020000Y-74930000D01*
X43180000Y-76200000D02*
X34290000Y-76200000D01*
D30*
X30480000Y-42640000D02*
X31020000Y-42640000D01*
X29940000Y-43180000D02*
X30480000Y-42640000D01*
X33020000Y-73660000D02*
X33020000Y-73025000D01*
X33020000Y-73025000D02*
X33020000Y-73025000D01*
D29*
X33020000Y-65310000D02*
X38100000Y-60230000D01*
X33020000Y-73025000D02*
X33020000Y-65310000D01*
X20320000Y-27940000D02*
X25400000Y-27940000D01*
X18415000Y-32385000D02*
X20320000Y-30480000D01*
X18415000Y-69215000D02*
X18415000Y-32385000D01*
X24130000Y-74930000D02*
X18415000Y-69215000D01*
X20320000Y-30480000D02*
X25400000Y-30480000D01*
X20320000Y-33020000D02*
X25400000Y-33020000D01*
X20320000Y-35560000D02*
X25400000Y-35560000D01*
X20320000Y-38100000D02*
X25400000Y-38100000D01*
X20320000Y-55880000D02*
X25400000Y-55880000D01*
X20320000Y-58420000D02*
X25400000Y-58420000D01*
X20320000Y-60960000D02*
X25400000Y-60960000D01*
X20320000Y-63500000D02*
X25400000Y-63500000D01*
X55880000Y-55880000D02*
X60960000Y-55880000D01*
D30*
X48260000Y-73660000D02*
X49530000Y-72390000D01*
D29*
X54610000Y-55880000D02*
X55880000Y-55880000D01*
X49530000Y-60960000D02*
X54610000Y-55880000D01*
X49530000Y-69850000D02*
X49530000Y-60960000D01*
D30*
X49530000Y-72390000D02*
X49530000Y-69850000D01*
X48895000Y-73660000D02*
X48260000Y-73660000D01*
D29*
X60960000Y-53340000D02*
X55880000Y-53340000D01*
X55880000Y-53340000D02*
X50070000Y-53340000D01*
X50070000Y-53340000D02*
X43180000Y-60230000D01*
X44990000Y-60230000D02*
X43180000Y-60230000D01*
X46990000Y-62230000D02*
X44990000Y-60230000D01*
X60960000Y-58420000D02*
X55880000Y-58420000D01*
X50800000Y-71120000D02*
X50800000Y-63500000D01*
X50800000Y-63500000D02*
X55880000Y-58420000D01*
X55880000Y-63500000D02*
X60960000Y-63500000D01*
X60960000Y-63500000D02*
X57150000Y-63500000D01*
X55880000Y-60960000D02*
X60960000Y-60960000D01*
X60960000Y-48260000D02*
X55880000Y-48260000D01*
X60960000Y-45720000D02*
X55880000Y-45720000D01*
X60960000Y-40640000D02*
X55880000Y-40640000D01*
X55880000Y-38100000D02*
X60960000Y-38100000D01*
X55880000Y-35560000D02*
X60960000Y-35560000D01*
X55880000Y-33020000D02*
X60960000Y-33020000D01*
X60960000Y-30480000D02*
X55880000Y-30480000D01*
X55880000Y-27940000D02*
X60960000Y-27940000D01*
X55880000Y-25400000D02*
X60960000Y-25400000D01*
X44704000Y-34798000D02*
X43942000Y-34798000D01*
X42926000Y-30767020D02*
X45118020Y-28575000D01*
X42926000Y-33782000D02*
X42926000Y-30767020D01*
X43942000Y-34798000D02*
X42926000Y-33782000D01*
X44450000Y-24892000D02*
X44450000Y-27906980D01*
X44450000Y-27906980D02*
X45118020Y-28575000D01*
M02*
