M48
;DRILL file {KiCad 4.0.2-stable} date 5/29/2016 8:13:25 PM
;FORMAT={-:-/ absolute / inch / decimal}
FMAT,2
INCH,TZ
T1C0.013
T2C0.028
T3C0.031
T4C0.032
T5C0.035
T6C0.039
T7C0.039
T8C0.040
T9C0.041
T10C0.065
T11C0.080
T12C0.100
T13C0.120
T14C0.128
%
G90
G05
M72
T1
X1.86Y-4.93
X2.04Y-4.16
X2.09Y-4.21
X2.09Y-4.87
X2.43Y-4.6
X2.44Y-4.16
X2.59Y-4.9
X2.71Y-4.75
X2.85Y-4.45
X3.Y-3.44
X3.14Y-4.44
X3.14Y-4.52
X3.36Y-6.1
X3.44Y-5.96
X3.53Y-6.8
X3.6Y-4.2
X3.6Y-4.3
X3.75Y-4.2
X3.75Y-4.3
X3.84Y-4.62
X3.9Y-4.26
X3.96Y-4.2
X3.96Y-4.38
X3.97Y-6.3
X4.Y-4.06
X4.1Y-4.85
X4.11Y-5.95
X4.14Y-4.54
X4.15Y-4.43
X4.15Y-5.25
X4.2Y-4.4
X4.2Y-4.7
X4.2Y-4.85
X4.22Y-4.54
X4.23Y-4.38
X4.26Y-4.36
X4.29Y-4.54
X4.3Y-4.85
X4.34Y-4.43
X4.37Y-4.06
X4.4Y-4.85
X4.41Y-4.18
X4.41Y-4.24
X4.5Y-4.85
X4.5Y-5.8
X4.58Y-3.62
X4.58Y-3.82
X4.58Y-6.16
X4.6Y-4.85
X4.66Y-3.74
X4.7Y-3.61
X4.7Y-3.82
X4.7Y-4.85
X4.78Y-3.64
X4.86Y-3.52
X4.86Y-5.31
X4.9Y-3.82
X4.9Y-4.15
X4.9Y-4.25
X4.92Y-5.44
X4.94Y-4.46
X4.98Y-3.74
X5.Y-3.64
X5.01Y-4.28
X5.01Y-4.33
X5.04Y-3.3
X5.04Y-3.44
X5.04Y-4.92
X5.04Y-4.96
X5.04Y-5.22
X5.04Y-5.26
X5.04Y-5.32
X5.1Y-3.58
X5.1Y-4.82
X5.12Y-4.86
X5.12Y-5.08
X5.12Y-5.88
X5.16Y-4.54
X5.1628Y-4.9
X5.26Y-4.98
X5.26Y-5.18
X5.26Y-5.24
X5.26Y-5.28
X5.26Y-5.34
X5.26Y-5.38
X5.28Y-3.98
X5.28Y-4.34
X5.28Y-4.38
X5.32Y-4.4
X5.36Y-4.02
X5.41Y-4.58
X5.44Y-4.54
T2
X2.35Y-5.5504
X2.35Y-5.8496
T3
X4.8Y-5.5
X4.8Y-5.6
X4.8Y-5.7
X4.8Y-5.8
X4.8Y-5.9
X4.8Y-6.
X4.8Y-6.1
X4.8Y-6.2
X4.8Y-6.3
X4.8Y-6.4
X4.8Y-6.5
X4.8Y-6.6
X4.8Y-6.7
X4.8Y-6.8
X5.4Y-5.5
X5.4Y-5.6
X5.4Y-5.7
X5.4Y-5.8
X5.4Y-5.9
X5.4Y-6.
X5.4Y-6.1
X5.4Y-6.2
X5.4Y-6.3
X5.4Y-6.4
X5.4Y-6.5
X5.4Y-6.6
X5.4Y-6.7
X5.4Y-6.8
T4
X3.35Y-4.4
X3.35Y-4.6
T5
X3.225Y-4.
X3.275Y-3.9
X3.325Y-4.
X3.375Y-3.9
X3.425Y-4.
X3.475Y-3.9
X3.525Y-4.
X3.575Y-3.9
T6
X2.25Y-6.07
X2.35Y-6.17
X2.45Y-6.07
T7
X3.85Y-6.75
X3.95Y-6.75
T8
X2.7705Y-5.4
X3.275Y-6.4
X3.275Y-6.5
X3.275Y-6.6
X3.275Y-6.7
X3.275Y-6.8
X3.8295Y-5.35
X3.8295Y-5.45
X4.15Y-5.05
X4.15Y-5.15
X4.15Y-5.25
X4.15Y-5.35
X4.25Y-6.2
X4.25Y-6.3
X4.25Y-6.4
X4.25Y-6.5
X4.25Y-6.6
X4.25Y-6.7
X4.25Y-6.8
X4.35Y-6.2
X4.35Y-6.3
X4.35Y-6.4
X4.35Y-6.5
X4.35Y-6.6
X4.35Y-6.7
X4.35Y-6.8
X4.4Y-5.05
X4.4Y-5.15
X4.4Y-5.25
X4.4Y-5.35
X4.65Y-5.05
X4.65Y-5.15
X4.65Y-5.25
X4.65Y-5.35
T9
X3.1392Y-3.4571
X3.2392Y-3.4571
X3.5608Y-3.4571
X3.6608Y-3.4571
T10
X3.0951Y-3.7701
X3.7049Y-3.7701
T11
X2.335Y-3.65
T12
X2.51Y-3.5
X2.51Y-3.76
T13
X1.7Y-3.2
X1.7Y-6.9
X5.2Y-3.2
X5.2Y-6.9
T14
X3.175Y-3.65
X3.625Y-3.65
T0
M30
