G04 #@! TF.FileFunction,Soldermask,Top*
%FSLAX46Y46*%
G04 Gerber Fmt 4.6, Leading zero omitted, Abs format (unit mm)*
G04 Created by KiCad (PCBNEW 4.0.2-stable) date 5/29/2016 8:13:19 PM*
%MOMM*%
G01*
G04 APERTURE LIST*
%ADD10C,0.127000*%
%ADD11R,1.350000X0.600000*%
%ADD12R,1.350000X0.400000*%
%ADD13C,1.900000*%
%ADD14C,1.200000*%
%ADD15O,1.524000X2.032000*%
%ADD16R,0.230000X1.000000*%
%ADD17R,1.000000X0.230000*%
%ADD18R,0.600000X1.100000*%
%ADD19O,1.998980X2.999740*%
%ADD20O,2.999740X1.998980*%
%ADD21R,2.000000X2.000000*%
%ADD22C,2.000000*%
%ADD23R,1.600000X2.000000*%
%ADD24R,2.032000X1.524000*%
%ADD25R,2.032000X1.727200*%
%ADD26O,2.032000X1.727200*%
%ADD27R,1.727200X1.727200*%
%ADD28O,1.727200X1.727200*%
%ADD29R,1.700000X2.000000*%
%ADD30R,2.000000X1.700000*%
%ADD31R,3.657600X2.032000*%
%ADD32R,1.016000X2.032000*%
%ADD33R,2.000000X0.600000*%
%ADD34C,1.500000*%
%ADD35R,2.000000X1.600000*%
%ADD36R,1.501140X2.999740*%
%ADD37R,6.300000X2.200000*%
%ADD38O,0.350000X0.800000*%
%ADD39O,0.800000X0.350000*%
%ADD40R,1.350000X1.350000*%
%ADD41R,0.550000X1.145000*%
%ADD42R,1.145000X0.550000*%
%ADD43R,1.060000X0.650000*%
%ADD44R,1.800860X1.597660*%
%ADD45C,3.250000*%
%ADD46C,1.300000*%
%ADD47C,1.778000*%
%ADD48R,0.800000X0.400000*%
%ADD49R,2.301240X2.499360*%
%ADD50R,2.499360X2.301240*%
%ADD51O,4.572000X4.572000*%
%ADD52O,4.064000X4.064000*%
%ADD53O,3.500120X3.500120*%
%ADD54R,1.597660X1.800860*%
%ADD55C,4.064000*%
G04 APERTURE END LIST*
D10*
D11*
X106295000Y-154155000D03*
X112145000Y-154155000D03*
D12*
X106295000Y-153405000D03*
X112145000Y-153405000D03*
X106295000Y-152755000D03*
X112145000Y-152755000D03*
X106295000Y-152105000D03*
X112145000Y-152105000D03*
X106295000Y-151455000D03*
X112145000Y-151455000D03*
X106295000Y-150805000D03*
X112145000Y-150805000D03*
X106295000Y-150155000D03*
X112145000Y-150155000D03*
X106295000Y-149505000D03*
X112145000Y-149505000D03*
X106295000Y-148855000D03*
X112145000Y-148855000D03*
D11*
X106295000Y-148105000D03*
X112145000Y-148105000D03*
D13*
X137160000Y-170180000D03*
X137160000Y-167640000D03*
X137160000Y-165100000D03*
X137160000Y-162560000D03*
X137160000Y-160020000D03*
X137160000Y-157480000D03*
X137160000Y-154940000D03*
X137160000Y-152400000D03*
X137160000Y-149860000D03*
X137160000Y-147320000D03*
X137160000Y-144780000D03*
X137160000Y-142240000D03*
X137160000Y-139700000D03*
X121920000Y-139700000D03*
X121920000Y-142240000D03*
X121920000Y-144780000D03*
X121920000Y-147320000D03*
X121920000Y-149860000D03*
X121920000Y-152400000D03*
X121920000Y-154940000D03*
X121920000Y-157480000D03*
X121920000Y-160020000D03*
X121920000Y-162560000D03*
X121920000Y-165100000D03*
D14*
X121920000Y-167640000D03*
D13*
X121920000Y-170180000D03*
X121920000Y-172720000D03*
X137160000Y-172720000D03*
D15*
X97269300Y-135890000D03*
X70370700Y-137160000D03*
X97269300Y-138430000D03*
D16*
X104150000Y-113950000D03*
X104550000Y-113950000D03*
X104950000Y-113950000D03*
X105350000Y-113950000D03*
X105750000Y-113950000D03*
X106150000Y-113950000D03*
X106550000Y-113950000D03*
X106950000Y-113950000D03*
X107350000Y-113950000D03*
X107750000Y-113950000D03*
X108150000Y-113950000D03*
X108550000Y-113950000D03*
X108950000Y-113950000D03*
X109350000Y-113950000D03*
X109750000Y-113950000D03*
X110150000Y-113950000D03*
X110550000Y-113950000D03*
X110950000Y-113950000D03*
X111350000Y-113950000D03*
X111750000Y-113950000D03*
D17*
X113950000Y-111750000D03*
X113950000Y-111350000D03*
X113950000Y-110950000D03*
X113950000Y-110550000D03*
X113950000Y-110150000D03*
X113950000Y-109750000D03*
X113950000Y-109350000D03*
X113950000Y-108950000D03*
X113950000Y-108550000D03*
X113950000Y-108150000D03*
X113950000Y-107750000D03*
X113950000Y-107350000D03*
X113950000Y-106950000D03*
X113950000Y-106550000D03*
X113950000Y-106150000D03*
X113950000Y-105750000D03*
X113950000Y-105350000D03*
X113950000Y-104950000D03*
X113950000Y-104550000D03*
X113950000Y-104150000D03*
D16*
X111750000Y-101950000D03*
X111350000Y-101950000D03*
X110950000Y-101950000D03*
X110550000Y-101950000D03*
X110150000Y-101950000D03*
X109750000Y-101950000D03*
X109350000Y-101950000D03*
X108950000Y-101950000D03*
X108550000Y-101950000D03*
X108150000Y-101950000D03*
X107750000Y-101950000D03*
X107350000Y-101950000D03*
X106950000Y-101950000D03*
X106550000Y-101950000D03*
X106150000Y-101950000D03*
X105750000Y-101950000D03*
X105350000Y-101950000D03*
X104950000Y-101950000D03*
X104550000Y-101950000D03*
X104150000Y-101950000D03*
D17*
X101950000Y-104150000D03*
X101950000Y-104550000D03*
X101950000Y-104950000D03*
X101950000Y-105350000D03*
X101950000Y-105750000D03*
X101950000Y-106150000D03*
X101950000Y-106550000D03*
X101950000Y-106950000D03*
X101950000Y-107350000D03*
X101950000Y-107750000D03*
X101950000Y-108150000D03*
X101950000Y-108550000D03*
X101950000Y-108950000D03*
X101950000Y-109350000D03*
X101950000Y-109750000D03*
X101950000Y-110150000D03*
X101950000Y-110550000D03*
X101950000Y-110950000D03*
X101950000Y-111350000D03*
X101950000Y-111750000D03*
D18*
X131923000Y-94572000D03*
X131923000Y-92372000D03*
X130673000Y-94572000D03*
X130673000Y-92372000D03*
X129423000Y-94572000D03*
X129423000Y-92372000D03*
X128173000Y-94572000D03*
X128173000Y-92372000D03*
D19*
X59690000Y-156718000D03*
D20*
X62230000Y-154178000D03*
X57150000Y-154178000D03*
D21*
X100330000Y-171450000D03*
D22*
X97790000Y-171450000D03*
D23*
X123190000Y-128810000D03*
X123190000Y-132810000D03*
D24*
X60325000Y-108966000D03*
X60325000Y-105664000D03*
X50165000Y-108966000D03*
X50165000Y-105664000D03*
D23*
X116332000Y-154654000D03*
X116332000Y-150654000D03*
X114300000Y-154654000D03*
X114300000Y-150654000D03*
D25*
X118110000Y-128270000D03*
D26*
X118110000Y-130810000D03*
X118110000Y-133350000D03*
X118110000Y-135890000D03*
D25*
X105410000Y-128270000D03*
D26*
X105410000Y-130810000D03*
X105410000Y-133350000D03*
X105410000Y-135890000D03*
D25*
X111760000Y-128270000D03*
D26*
X111760000Y-130810000D03*
X111760000Y-133350000D03*
X111760000Y-135890000D03*
D27*
X110490000Y-157480000D03*
D28*
X107950000Y-157480000D03*
X110490000Y-160020000D03*
X107950000Y-160020000D03*
X110490000Y-162560000D03*
X107950000Y-162560000D03*
X110490000Y-165100000D03*
X107950000Y-165100000D03*
X110490000Y-167640000D03*
X107950000Y-167640000D03*
X110490000Y-170180000D03*
X107950000Y-170180000D03*
X110490000Y-172720000D03*
X107950000Y-172720000D03*
D29*
X118364000Y-154654000D03*
X118364000Y-150654000D03*
D30*
X101060000Y-167640000D03*
X97060000Y-167640000D03*
X57690000Y-160020000D03*
X61690000Y-160020000D03*
D31*
X55245000Y-102108000D03*
D32*
X55245000Y-108712000D03*
X57531000Y-108712000D03*
X52959000Y-108712000D03*
D33*
X135460000Y-125095000D03*
X126160000Y-125095000D03*
X135460000Y-126365000D03*
X126160000Y-126365000D03*
X135460000Y-127635000D03*
X126160000Y-127635000D03*
X135460000Y-128905000D03*
X126160000Y-128905000D03*
X135460000Y-130175000D03*
X126160000Y-130175000D03*
X135460000Y-131445000D03*
X126160000Y-131445000D03*
X135460000Y-132715000D03*
X126160000Y-132715000D03*
X135460000Y-133985000D03*
X126160000Y-133985000D03*
X135460000Y-135255000D03*
X126160000Y-135255000D03*
X135460000Y-136525000D03*
X126160000Y-136525000D03*
D34*
X59690000Y-148580000D03*
X59690000Y-140980000D03*
D30*
X87535000Y-157480000D03*
X91535000Y-157480000D03*
D35*
X123476000Y-121920000D03*
X127476000Y-121920000D03*
D36*
X134112000Y-103665020D03*
X134112000Y-107662980D03*
D35*
X134144000Y-113284000D03*
X138144000Y-113284000D03*
D23*
X136144000Y-108172000D03*
X136144000Y-104172000D03*
X125476000Y-115348000D03*
X125476000Y-119348000D03*
D35*
X60230000Y-124460000D03*
X64230000Y-124460000D03*
X49435000Y-120015000D03*
X53435000Y-120015000D03*
D23*
X60325000Y-112935000D03*
X60325000Y-116935000D03*
D35*
X132175000Y-89535000D03*
X128175000Y-89535000D03*
D37*
X55245000Y-116985000D03*
X55245000Y-112885000D03*
D30*
X60420000Y-128270000D03*
X56420000Y-128270000D03*
D29*
X45720000Y-121190000D03*
X45720000Y-125190000D03*
X73660000Y-100870000D03*
X73660000Y-104870000D03*
X45085000Y-112935000D03*
X45085000Y-116935000D03*
D38*
X129835000Y-121380000D03*
X130485000Y-121380000D03*
X131135000Y-121380000D03*
X131785000Y-121380000D03*
D39*
X132810000Y-120355000D03*
X132810000Y-119705000D03*
X132810000Y-119055000D03*
X132810000Y-118405000D03*
D38*
X131785000Y-117380000D03*
X131135000Y-117380000D03*
X130485000Y-117380000D03*
X129835000Y-117380000D03*
D39*
X128810000Y-118405000D03*
X128810000Y-119055000D03*
X128810000Y-119705000D03*
X128810000Y-120355000D03*
D40*
X131485000Y-118705000D03*
X130135000Y-118705000D03*
X131485000Y-120055000D03*
X130135000Y-120055000D03*
D41*
X131064000Y-112841500D03*
X131064000Y-108646500D03*
D42*
X129966500Y-112744000D03*
X132161500Y-112744000D03*
X129966500Y-111944000D03*
X132161500Y-111944000D03*
X129966500Y-111144000D03*
X132161500Y-111144000D03*
X129966500Y-110344000D03*
X132161500Y-110344000D03*
X129966500Y-109544000D03*
X132161500Y-109544000D03*
X129966500Y-108744000D03*
X132161500Y-108744000D03*
D43*
X54145000Y-122875000D03*
X54145000Y-123825000D03*
X54145000Y-124775000D03*
X56345000Y-124775000D03*
X56345000Y-122875000D03*
X56345000Y-123825000D03*
D44*
X73660000Y-107800140D03*
X73660000Y-110639860D03*
D35*
X91535000Y-154940000D03*
X87535000Y-154940000D03*
X95155000Y-160020000D03*
X99155000Y-160020000D03*
X91535000Y-172720000D03*
X87535000Y-172720000D03*
D30*
X87535000Y-165100000D03*
X91535000Y-165100000D03*
X87535000Y-162560000D03*
X91535000Y-162560000D03*
X87535000Y-160020000D03*
X91535000Y-160020000D03*
X87535000Y-167640000D03*
X91535000Y-167640000D03*
X87535000Y-170180000D03*
X91535000Y-170180000D03*
D25*
X83185000Y-162560000D03*
D26*
X83185000Y-165100000D03*
X83185000Y-167640000D03*
X83185000Y-170180000D03*
X83185000Y-172720000D03*
D23*
X81280000Y-108490000D03*
X81280000Y-112490000D03*
X81280000Y-118840000D03*
X81280000Y-114840000D03*
X114300000Y-117380000D03*
X114300000Y-121380000D03*
X111760000Y-117380000D03*
X111760000Y-121380000D03*
X109220000Y-117380000D03*
X109220000Y-121380000D03*
D35*
X70644000Y-87376000D03*
X74644000Y-87376000D03*
X118650000Y-107950000D03*
X122650000Y-107950000D03*
X97250000Y-106680000D03*
X93250000Y-106680000D03*
D23*
X106680000Y-117380000D03*
X106680000Y-121380000D03*
D35*
X97250000Y-109220000D03*
X93250000Y-109220000D03*
D23*
X116840000Y-117380000D03*
X116840000Y-121380000D03*
X104140000Y-117380000D03*
X104140000Y-121380000D03*
X119380000Y-117380000D03*
X119380000Y-121380000D03*
D35*
X118650000Y-105410000D03*
X122650000Y-105410000D03*
D45*
X80645000Y-92710000D03*
X92075000Y-92710000D03*
D22*
X94105000Y-95760000D03*
X78615000Y-95760000D03*
D14*
X86995000Y-101600000D03*
X84455000Y-101600000D03*
X81915000Y-101600000D03*
X89535000Y-101600000D03*
X90805000Y-99060000D03*
X88265000Y-99060000D03*
X85725000Y-99060000D03*
X83185000Y-99060000D03*
D46*
X79735000Y-87810000D03*
X82275000Y-87810000D03*
X92985000Y-87810000D03*
X90445000Y-87810000D03*
D29*
X101600000Y-121380000D03*
X101600000Y-117380000D03*
D30*
X111220000Y-98552000D03*
X107220000Y-98552000D03*
X122650000Y-110490000D03*
X118650000Y-110490000D03*
X93250000Y-111760000D03*
X97250000Y-111760000D03*
D29*
X99060000Y-117380000D03*
X99060000Y-121380000D03*
D30*
X107220000Y-96012000D03*
X111220000Y-96012000D03*
X107220000Y-93472000D03*
X111220000Y-93472000D03*
X107220000Y-90932000D03*
X111220000Y-90932000D03*
X107220000Y-83312000D03*
X111220000Y-83312000D03*
X107220000Y-88392000D03*
X111220000Y-88392000D03*
X107220000Y-85852000D03*
X111220000Y-85852000D03*
X74644000Y-89916000D03*
X70644000Y-89916000D03*
X74644000Y-92456000D03*
X70644000Y-92456000D03*
D29*
X109220000Y-130080000D03*
X109220000Y-134080000D03*
X115570000Y-130080000D03*
X115570000Y-134080000D03*
D47*
X85090000Y-111760000D03*
X85090000Y-116840000D03*
D23*
X117856000Y-92996000D03*
X117856000Y-96996000D03*
D48*
X121604000Y-94346000D03*
X120204000Y-94346000D03*
X121604000Y-94996000D03*
X120204000Y-94996000D03*
X121604000Y-95646000D03*
X120204000Y-95646000D03*
D49*
X49022000Y-116956840D03*
X49022000Y-112659160D03*
D50*
X61351160Y-120650000D03*
X65648840Y-120650000D03*
D51*
X63754000Y-95504000D03*
D52*
X63754000Y-88900000D03*
D53*
X59309000Y-92710000D03*
D44*
X71120000Y-107800140D03*
X71120000Y-110639860D03*
D29*
X71120000Y-100870000D03*
X71120000Y-104870000D03*
D54*
X104543860Y-96012000D03*
X101704140Y-96012000D03*
X104543860Y-93472000D03*
X101704140Y-93472000D03*
X104543860Y-90932000D03*
X101704140Y-90932000D03*
X104543860Y-83312000D03*
X101704140Y-83312000D03*
X104543860Y-88392000D03*
X101704140Y-88392000D03*
X104543860Y-85852000D03*
X101704140Y-85852000D03*
D55*
X43180000Y-81280000D03*
X43180000Y-175260000D03*
X132080000Y-81280000D03*
X132080000Y-175260000D03*
M02*
