G04 #@! TF.FileFunction,Soldermask,Bot*
%FSLAX46Y46*%
G04 Gerber Fmt 4.6, Leading zero omitted, Abs format (unit mm)*
G04 Created by KiCad (PCBNEW 4.0.2-stable) date 5/29/2016 8:13:19 PM*
%MOMM*%
G01*
G04 APERTURE LIST*
%ADD10C,0.127000*%
%ADD11C,1.900000*%
%ADD12C,1.200000*%
%ADD13O,1.524000X2.032000*%
%ADD14O,1.998980X2.999740*%
%ADD15O,2.999740X1.998980*%
%ADD16R,2.000000X2.000000*%
%ADD17C,2.000000*%
%ADD18R,2.032000X1.727200*%
%ADD19O,2.032000X1.727200*%
%ADD20R,1.727200X1.727200*%
%ADD21O,1.727200X1.727200*%
%ADD22C,1.500000*%
%ADD23C,3.250000*%
%ADD24C,1.300000*%
%ADD25C,1.778000*%
%ADD26R,1.600000X2.000000*%
%ADD27R,1.800860X1.597660*%
%ADD28R,1.700000X2.000000*%
%ADD29R,0.300000X0.800000*%
%ADD30R,0.800000X0.300000*%
%ADD31O,4.572000X4.572000*%
%ADD32O,4.064000X4.064000*%
%ADD33O,3.500120X3.500120*%
%ADD34C,4.064000*%
G04 APERTURE END LIST*
D10*
D11*
X137160000Y-170180000D03*
X137160000Y-167640000D03*
X137160000Y-165100000D03*
X137160000Y-162560000D03*
X137160000Y-160020000D03*
X137160000Y-157480000D03*
X137160000Y-154940000D03*
X137160000Y-152400000D03*
X137160000Y-149860000D03*
X137160000Y-147320000D03*
X137160000Y-144780000D03*
X137160000Y-142240000D03*
X137160000Y-139700000D03*
X121920000Y-139700000D03*
X121920000Y-142240000D03*
X121920000Y-144780000D03*
X121920000Y-147320000D03*
X121920000Y-149860000D03*
X121920000Y-152400000D03*
X121920000Y-154940000D03*
X121920000Y-157480000D03*
X121920000Y-160020000D03*
X121920000Y-162560000D03*
X121920000Y-165100000D03*
D12*
X121920000Y-167640000D03*
D11*
X121920000Y-170180000D03*
X121920000Y-172720000D03*
X137160000Y-172720000D03*
D13*
X97269300Y-135890000D03*
X70370700Y-137160000D03*
X97269300Y-138430000D03*
D14*
X59690000Y-156718000D03*
D15*
X62230000Y-154178000D03*
X57150000Y-154178000D03*
D16*
X100330000Y-171450000D03*
D17*
X97790000Y-171450000D03*
D18*
X118110000Y-128270000D03*
D19*
X118110000Y-130810000D03*
X118110000Y-133350000D03*
X118110000Y-135890000D03*
D18*
X105410000Y-128270000D03*
D19*
X105410000Y-130810000D03*
X105410000Y-133350000D03*
X105410000Y-135890000D03*
D18*
X111760000Y-128270000D03*
D19*
X111760000Y-130810000D03*
X111760000Y-133350000D03*
X111760000Y-135890000D03*
D20*
X110490000Y-157480000D03*
D21*
X107950000Y-157480000D03*
X110490000Y-160020000D03*
X107950000Y-160020000D03*
X110490000Y-162560000D03*
X107950000Y-162560000D03*
X110490000Y-165100000D03*
X107950000Y-165100000D03*
X110490000Y-167640000D03*
X107950000Y-167640000D03*
X110490000Y-170180000D03*
X107950000Y-170180000D03*
X110490000Y-172720000D03*
X107950000Y-172720000D03*
D22*
X59690000Y-148580000D03*
X59690000Y-140980000D03*
D18*
X83185000Y-162560000D03*
D19*
X83185000Y-165100000D03*
X83185000Y-167640000D03*
X83185000Y-170180000D03*
X83185000Y-172720000D03*
D23*
X80645000Y-92710000D03*
X92075000Y-92710000D03*
D17*
X94105000Y-95760000D03*
X78615000Y-95760000D03*
D12*
X86995000Y-101600000D03*
X84455000Y-101600000D03*
X81915000Y-101600000D03*
X89535000Y-101600000D03*
X90805000Y-99060000D03*
X88265000Y-99060000D03*
X85725000Y-99060000D03*
X83185000Y-99060000D03*
D24*
X79735000Y-87810000D03*
X82275000Y-87810000D03*
X92985000Y-87810000D03*
X90445000Y-87810000D03*
D25*
X85090000Y-111760000D03*
X85090000Y-116840000D03*
D26*
X117856000Y-90392000D03*
X117856000Y-86392000D03*
X122428000Y-85820000D03*
X122428000Y-81820000D03*
D27*
X124460000Y-87988140D03*
X124460000Y-90827860D03*
D28*
X124460000Y-85820000D03*
X124460000Y-81820000D03*
D29*
X121412000Y-90608000D03*
D30*
X120462000Y-90408000D03*
X122362000Y-90408000D03*
X120462000Y-89908000D03*
X122362000Y-89908000D03*
X120462000Y-89408000D03*
X122362000Y-89408000D03*
X120462000Y-88908000D03*
X122362000Y-88908000D03*
D29*
X121412000Y-88708000D03*
D31*
X63754000Y-95504000D03*
D32*
X63754000Y-88900000D03*
D33*
X59309000Y-92710000D03*
D34*
X43180000Y-81280000D03*
X43180000Y-175260000D03*
X132080000Y-81280000D03*
X132080000Y-175260000D03*
M02*
