G04 #@! TF.FileFunction,Copper,L2,Bot,Signal*
%FSLAX46Y46*%
G04 Gerber Fmt 4.6, Leading zero omitted, Abs format (unit mm)*
G04 Created by KiCad (PCBNEW 4.0.2-stable) date 5/29/2016 8:13:19 PM*
%MOMM*%
G01*
G04 APERTURE LIST*
%ADD10C,0.127000*%
%ADD11C,1.900000*%
%ADD12C,1.200000*%
%ADD13O,1.524000X2.032000*%
%ADD14O,1.998980X2.999740*%
%ADD15O,2.999740X1.998980*%
%ADD16R,2.000000X2.000000*%
%ADD17C,2.000000*%
%ADD18R,2.032000X1.727200*%
%ADD19O,2.032000X1.727200*%
%ADD20R,1.727200X1.727200*%
%ADD21O,1.727200X1.727200*%
%ADD22C,1.500000*%
%ADD23C,1.300000*%
%ADD24C,1.778000*%
%ADD25R,1.600000X2.000000*%
%ADD26R,1.800860X1.597660*%
%ADD27R,1.700000X2.000000*%
%ADD28R,0.300000X0.800000*%
%ADD29R,0.800000X0.300000*%
%ADD30O,4.572000X4.572000*%
%ADD31O,4.064000X4.064000*%
%ADD32O,3.500120X3.500120*%
%ADD33C,4.064000*%
%ADD34C,0.685800*%
%ADD35C,0.250000*%
%ADD36C,0.500000*%
%ADD37C,0.400000*%
%ADD38C,0.300000*%
%ADD39C,0.600000*%
%ADD40C,0.200000*%
%ADD41C,0.800000*%
%ADD42C,0.254000*%
G04 APERTURE END LIST*
D10*
D11*
X137160000Y-170180000D03*
X137160000Y-167640000D03*
X137160000Y-165100000D03*
X137160000Y-162560000D03*
X137160000Y-160020000D03*
X137160000Y-157480000D03*
X137160000Y-154940000D03*
X137160000Y-152400000D03*
X137160000Y-149860000D03*
X137160000Y-147320000D03*
X137160000Y-144780000D03*
X137160000Y-142240000D03*
X137160000Y-139700000D03*
X121920000Y-139700000D03*
X121920000Y-142240000D03*
X121920000Y-144780000D03*
X121920000Y-147320000D03*
X121920000Y-149860000D03*
X121920000Y-152400000D03*
X121920000Y-154940000D03*
X121920000Y-157480000D03*
X121920000Y-160020000D03*
X121920000Y-162560000D03*
X121920000Y-165100000D03*
D12*
X121920000Y-167640000D03*
D11*
X121920000Y-170180000D03*
X121920000Y-172720000D03*
X137160000Y-172720000D03*
D13*
X97269300Y-135890000D03*
X70370700Y-137160000D03*
X97269300Y-138430000D03*
D14*
X59690000Y-156718000D03*
D15*
X62230000Y-154178000D03*
X57150000Y-154178000D03*
D16*
X100330000Y-171450000D03*
D17*
X97790000Y-171450000D03*
D18*
X118110000Y-128270000D03*
D19*
X118110000Y-130810000D03*
X118110000Y-133350000D03*
X118110000Y-135890000D03*
D18*
X105410000Y-128270000D03*
D19*
X105410000Y-130810000D03*
X105410000Y-133350000D03*
X105410000Y-135890000D03*
D18*
X111760000Y-128270000D03*
D19*
X111760000Y-130810000D03*
X111760000Y-133350000D03*
X111760000Y-135890000D03*
D20*
X110490000Y-157480000D03*
D21*
X107950000Y-157480000D03*
X110490000Y-160020000D03*
X107950000Y-160020000D03*
X110490000Y-162560000D03*
X107950000Y-162560000D03*
X110490000Y-165100000D03*
X107950000Y-165100000D03*
X110490000Y-167640000D03*
X107950000Y-167640000D03*
X110490000Y-170180000D03*
X107950000Y-170180000D03*
X110490000Y-172720000D03*
X107950000Y-172720000D03*
D22*
X59690000Y-148580000D03*
X59690000Y-140980000D03*
D18*
X83185000Y-162560000D03*
D19*
X83185000Y-165100000D03*
X83185000Y-167640000D03*
X83185000Y-170180000D03*
X83185000Y-172720000D03*
D17*
X94105000Y-95760000D03*
X78615000Y-95760000D03*
D12*
X86995000Y-101600000D03*
X84455000Y-101600000D03*
X81915000Y-101600000D03*
X89535000Y-101600000D03*
X90805000Y-99060000D03*
X88265000Y-99060000D03*
X85725000Y-99060000D03*
X83185000Y-99060000D03*
D23*
X79735000Y-87810000D03*
X82275000Y-87810000D03*
X92985000Y-87810000D03*
X90445000Y-87810000D03*
D24*
X85090000Y-111760000D03*
X85090000Y-116840000D03*
D25*
X117856000Y-90392000D03*
X117856000Y-86392000D03*
X122428000Y-85820000D03*
X122428000Y-81820000D03*
D26*
X124460000Y-87988140D03*
X124460000Y-90827860D03*
D27*
X124460000Y-85820000D03*
X124460000Y-81820000D03*
D28*
X121412000Y-90608000D03*
D29*
X120462000Y-90408000D03*
X122362000Y-90408000D03*
X120462000Y-89908000D03*
X122362000Y-89908000D03*
X120462000Y-89408000D03*
X122362000Y-89408000D03*
X120462000Y-88908000D03*
X122362000Y-88908000D03*
D28*
X121412000Y-88708000D03*
D30*
X63754000Y-95504000D03*
D31*
X63754000Y-88900000D03*
D32*
X59309000Y-92710000D03*
D33*
X43180000Y-81280000D03*
X43180000Y-175260000D03*
X132080000Y-81280000D03*
X132080000Y-175260000D03*
D34*
X72390000Y-113030000D03*
X123444000Y-134874000D03*
X124968000Y-138176000D03*
X116332000Y-156464000D03*
X104394000Y-151130000D03*
X101600000Y-103124000D03*
X53086000Y-106934000D03*
X110236000Y-112522000D03*
X108966000Y-115316000D03*
X107188000Y-115316000D03*
X124460000Y-107950000D03*
X124460000Y-105410000D03*
X61722000Y-116840000D03*
X53086000Y-123698000D03*
X47244000Y-125222000D03*
X51816000Y-105664000D03*
X61976000Y-105664000D03*
X68834000Y-120650000D03*
X65786000Y-124460000D03*
X85344000Y-154940000D03*
X89662000Y-172720000D03*
X100838000Y-160020000D03*
X100584000Y-111252000D03*
X100584000Y-106680000D03*
X112014000Y-107696000D03*
X112014000Y-106172000D03*
X110998000Y-103124000D03*
X76200000Y-87376000D03*
X79756000Y-112776000D03*
X79756000Y-114808000D03*
X129540000Y-90932000D03*
X127000000Y-92456000D03*
X118364000Y-94996000D03*
X116332000Y-97028000D03*
X119380000Y-97028000D03*
X128016000Y-87376000D03*
X135128000Y-111760000D03*
X134112000Y-111252000D03*
X134112000Y-110236000D03*
X138176000Y-115316000D03*
X136144000Y-102108000D03*
X134112000Y-101092000D03*
X125476000Y-113284000D03*
X129540000Y-122428000D03*
X130048000Y-123444000D03*
X133604000Y-131572000D03*
X133604000Y-133096000D03*
X133604000Y-134112000D03*
X133604000Y-135636000D03*
X133604000Y-136652000D03*
X128016000Y-135128000D03*
X128016000Y-133604000D03*
X128016000Y-132588000D03*
X128016000Y-124968000D03*
X123444000Y-89408000D03*
X97536000Y-117348000D03*
X91440000Y-109220000D03*
X91440000Y-106680000D03*
X104140000Y-123190000D03*
X106680000Y-123190000D03*
X109220000Y-123190000D03*
X111760000Y-123190000D03*
X114300000Y-123190000D03*
X116840000Y-123190000D03*
X119380000Y-123190000D03*
X133604000Y-126492000D03*
X128016000Y-125984000D03*
X105156000Y-115316000D03*
X114300000Y-147320000D03*
X128016000Y-83820000D03*
X116332000Y-91948000D03*
X119380000Y-91694000D03*
X131135000Y-124460000D03*
X131064000Y-115316000D03*
X105410000Y-133350000D03*
X124460000Y-97028000D03*
X121412000Y-92456000D03*
X95250000Y-109220000D03*
X106680000Y-119380000D03*
X99060000Y-108204000D03*
X106680000Y-111760000D03*
X108204000Y-110744000D03*
X107442000Y-111252000D03*
X95250000Y-106680000D03*
X105410000Y-112522000D03*
X130048000Y-129032000D03*
X130048000Y-149352000D03*
X87376000Y-151384000D03*
X127254000Y-109982000D03*
X127254000Y-108712000D03*
X137414000Y-116332000D03*
X126492000Y-94996000D03*
D35*
X122362000Y-89908000D02*
X122944000Y-89908000D01*
X122944000Y-89908000D02*
X123444000Y-89408000D01*
D36*
X114300000Y-147320000D02*
X115062000Y-146558000D01*
X115062000Y-146558000D02*
X115062000Y-141986000D01*
X115062000Y-141986000D02*
X112014000Y-138938000D01*
X112014000Y-138938000D02*
X105410000Y-138938000D01*
X105410000Y-138938000D02*
X103378000Y-136906000D01*
X103378000Y-136906000D02*
X103378000Y-130302000D01*
X103378000Y-130302000D02*
X105410000Y-128270000D01*
D37*
X124460000Y-81820000D02*
X126016000Y-81820000D01*
X126016000Y-81820000D02*
X128016000Y-83820000D01*
X116872000Y-90392000D02*
X117856000Y-90392000D01*
X116332000Y-90932000D02*
X116872000Y-90392000D01*
X116332000Y-91948000D02*
X116332000Y-90932000D01*
D38*
X122362000Y-89408000D02*
X122362000Y-88908000D01*
D35*
X120462000Y-89408000D02*
X122362000Y-89408000D01*
D38*
X120462000Y-89408000D02*
X118840000Y-89408000D01*
X118840000Y-89408000D02*
X117856000Y-90392000D01*
X107950000Y-157480000D02*
X109220000Y-158750000D01*
X118618000Y-169418000D02*
X121920000Y-172720000D01*
X118618000Y-166084000D02*
X118618000Y-169418000D01*
X111284000Y-158750000D02*
X118618000Y-166084000D01*
X109220000Y-158750000D02*
X111284000Y-158750000D01*
D39*
X105410000Y-133350000D02*
X109982000Y-137922000D01*
X116078000Y-149098000D02*
X121920000Y-154940000D01*
X116078000Y-148082000D02*
X116078000Y-149098000D01*
X116078000Y-141732000D02*
X116078000Y-148082000D01*
X112268000Y-137922000D02*
X116078000Y-141732000D01*
X109982000Y-137922000D02*
X112268000Y-137922000D01*
D35*
X119896000Y-89908000D02*
X120462000Y-89908000D01*
X119380000Y-90424000D02*
X119896000Y-89908000D01*
X119380000Y-91694000D02*
X119380000Y-90424000D01*
D37*
X131064000Y-124389000D02*
X131135000Y-124460000D01*
X131064000Y-124389000D02*
X131064000Y-115316000D01*
D39*
X111760000Y-135890000D02*
X117094000Y-141224000D01*
X117094000Y-147574000D02*
X121920000Y-152400000D01*
X117094000Y-141224000D02*
X117094000Y-147574000D01*
D37*
X123444000Y-94488000D02*
X121412000Y-92456000D01*
X123444000Y-96012000D02*
X123444000Y-94488000D01*
X124460000Y-97028000D02*
X123444000Y-96012000D01*
D38*
X120462000Y-90408000D02*
X120462000Y-91506000D01*
X120462000Y-91506000D02*
X121412000Y-92456000D01*
X96520000Y-109220000D02*
X95250000Y-109220000D01*
X106680000Y-119380000D02*
X96520000Y-109220000D01*
X82275000Y-87810000D02*
X82275000Y-89895000D01*
X98806000Y-107950000D02*
X99060000Y-108204000D01*
X84328000Y-107950000D02*
X98806000Y-107950000D01*
X79502000Y-103124000D02*
X84328000Y-107950000D01*
X79502000Y-99568000D02*
X79502000Y-103124000D01*
X83312000Y-95758000D02*
X79502000Y-99568000D01*
X83312000Y-90932000D02*
X83312000Y-95758000D01*
X82275000Y-89895000D02*
X83312000Y-90932000D01*
D37*
X88646000Y-105664000D02*
X84582000Y-101600000D01*
X100584000Y-105664000D02*
X88646000Y-105664000D01*
X106680000Y-111760000D02*
X100584000Y-105664000D01*
D40*
X84582000Y-101600000D02*
X84455000Y-101600000D01*
D37*
X87122000Y-99568000D02*
X89154000Y-101600000D01*
X87122000Y-98552000D02*
X87122000Y-99568000D01*
X88138000Y-97536000D02*
X87122000Y-98552000D01*
X94996000Y-97536000D02*
X88138000Y-97536000D01*
X108204000Y-110744000D02*
X94996000Y-97536000D01*
D40*
X89154000Y-101600000D02*
X89535000Y-101600000D01*
D37*
X96550998Y-104805998D02*
X90805000Y-99060000D01*
X100995998Y-104805998D02*
X96550998Y-104805998D01*
X107442000Y-111252000D02*
X100995998Y-104805998D01*
D40*
X107442000Y-111252000D02*
X107442000Y-111252000D01*
D37*
X96012000Y-107442000D02*
X100330000Y-107442000D01*
X95250000Y-106680000D02*
X96012000Y-107442000D01*
X105410000Y-112522000D02*
X100330000Y-107442000D01*
D40*
X88392000Y-99060000D02*
X88265000Y-99060000D01*
D41*
X124460000Y-85820000D02*
X124460000Y-87988140D01*
X122428000Y-85820000D02*
X124460000Y-85820000D01*
D38*
X122362000Y-90408000D02*
X124040140Y-90408000D01*
X124040140Y-90408000D02*
X124460000Y-90827860D01*
X130048000Y-149352000D02*
X130048000Y-129032000D01*
D37*
X121920000Y-162560000D02*
X119126000Y-162560000D01*
X94488000Y-151384000D02*
X87376000Y-151384000D01*
X98552000Y-155448000D02*
X94488000Y-151384000D01*
X112014000Y-155448000D02*
X98552000Y-155448000D01*
X119126000Y-162560000D02*
X112014000Y-155448000D01*
D38*
X127000000Y-140462000D02*
X122682000Y-144780000D01*
X127000000Y-110236000D02*
X127000000Y-140462000D01*
X127254000Y-109982000D02*
X127000000Y-110236000D01*
X122682000Y-144780000D02*
X121920000Y-144780000D01*
X126238000Y-139954000D02*
X123952000Y-142240000D01*
X126238000Y-109728000D02*
X126238000Y-139954000D01*
X127254000Y-108712000D02*
X126238000Y-109728000D01*
X123952000Y-142240000D02*
X121920000Y-142240000D01*
X121920000Y-142240000D02*
X123952000Y-142240000D01*
X137414000Y-105918000D02*
X137414000Y-116332000D01*
X126492000Y-94996000D02*
X137414000Y-105918000D01*
D36*
X121920000Y-165100000D02*
X122174000Y-165100000D01*
D38*
X122174000Y-165100000D02*
X129032000Y-158242000D01*
X129032000Y-158242000D02*
X129032000Y-123698000D01*
X129032000Y-123698000D02*
X128524000Y-123190000D01*
X128524000Y-123190000D02*
X128524000Y-107188000D01*
X128524000Y-107188000D02*
X121412000Y-100076000D01*
X121412000Y-100076000D02*
X117856000Y-100076000D01*
X117856000Y-100076000D02*
X115316000Y-97536000D01*
X115316000Y-97536000D02*
X115316000Y-90424000D01*
X115316000Y-90424000D02*
X116832000Y-88908000D01*
X116832000Y-88908000D02*
X120462000Y-88908000D01*
D42*
G36*
X139573000Y-177673000D02*
X40767000Y-177673000D01*
X40767000Y-170539026D01*
X81577642Y-170539026D01*
X81580291Y-170554791D01*
X81834268Y-171082036D01*
X82270680Y-171471954D01*
X82543243Y-171567296D01*
X82528943Y-171570140D01*
X82125166Y-171839935D01*
X81855371Y-172243712D01*
X81760631Y-172720000D01*
X81855371Y-173196288D01*
X82125166Y-173600065D01*
X82528943Y-173869860D01*
X83005231Y-173964600D01*
X83364769Y-173964600D01*
X83841057Y-173869860D01*
X84244834Y-173600065D01*
X84514629Y-173196288D01*
X84609369Y-172720000D01*
X84514629Y-172243712D01*
X84244834Y-171839935D01*
X84070567Y-171723493D01*
X96408761Y-171723493D01*
X96618563Y-172231251D01*
X97006705Y-172620072D01*
X97514097Y-172830759D01*
X98063493Y-172831239D01*
X98571251Y-172621437D01*
X98695000Y-172497904D01*
X98695000Y-172576309D01*
X98791673Y-172809698D01*
X98970301Y-172988327D01*
X99203690Y-173085000D01*
X100044250Y-173085000D01*
X100203000Y-172926250D01*
X100203000Y-171577000D01*
X100457000Y-171577000D01*
X100457000Y-172926250D01*
X100615750Y-173085000D01*
X101456310Y-173085000D01*
X101689699Y-172988327D01*
X101868327Y-172809698D01*
X101905481Y-172720000D01*
X106681017Y-172720000D01*
X106775757Y-173196288D01*
X107045552Y-173600065D01*
X107449329Y-173869860D01*
X107925617Y-173964600D01*
X107974383Y-173964600D01*
X108450671Y-173869860D01*
X108854448Y-173600065D01*
X109124243Y-173196288D01*
X109218983Y-172720000D01*
X109221017Y-172720000D01*
X109315757Y-173196288D01*
X109585552Y-173600065D01*
X109989329Y-173869860D01*
X110465617Y-173964600D01*
X110514383Y-173964600D01*
X110990671Y-173869860D01*
X111394448Y-173600065D01*
X111664243Y-173196288D01*
X111758983Y-172720000D01*
X111664243Y-172243712D01*
X111394448Y-171839935D01*
X110990671Y-171570140D01*
X110514383Y-171475400D01*
X110465617Y-171475400D01*
X109989329Y-171570140D01*
X109585552Y-171839935D01*
X109315757Y-172243712D01*
X109221017Y-172720000D01*
X109218983Y-172720000D01*
X109124243Y-172243712D01*
X108854448Y-171839935D01*
X108450671Y-171570140D01*
X107974383Y-171475400D01*
X107925617Y-171475400D01*
X107449329Y-171570140D01*
X107045552Y-171839935D01*
X106775757Y-172243712D01*
X106681017Y-172720000D01*
X101905481Y-172720000D01*
X101965000Y-172576309D01*
X101965000Y-171735750D01*
X101806250Y-171577000D01*
X100457000Y-171577000D01*
X100203000Y-171577000D01*
X100183000Y-171577000D01*
X100183000Y-171323000D01*
X100203000Y-171323000D01*
X100203000Y-169973750D01*
X100457000Y-169973750D01*
X100457000Y-171323000D01*
X101806250Y-171323000D01*
X101965000Y-171164250D01*
X101965000Y-170323691D01*
X101905482Y-170180000D01*
X106681017Y-170180000D01*
X106775757Y-170656288D01*
X107045552Y-171060065D01*
X107449329Y-171329860D01*
X107925617Y-171424600D01*
X107974383Y-171424600D01*
X108450671Y-171329860D01*
X108854448Y-171060065D01*
X109124243Y-170656288D01*
X109218983Y-170180000D01*
X109221017Y-170180000D01*
X109315757Y-170656288D01*
X109585552Y-171060065D01*
X109989329Y-171329860D01*
X110465617Y-171424600D01*
X110514383Y-171424600D01*
X110990671Y-171329860D01*
X111394448Y-171060065D01*
X111664243Y-170656288D01*
X111758983Y-170180000D01*
X111664243Y-169703712D01*
X111394448Y-169299935D01*
X110990671Y-169030140D01*
X110514383Y-168935400D01*
X110465617Y-168935400D01*
X109989329Y-169030140D01*
X109585552Y-169299935D01*
X109315757Y-169703712D01*
X109221017Y-170180000D01*
X109218983Y-170180000D01*
X109124243Y-169703712D01*
X108854448Y-169299935D01*
X108450671Y-169030140D01*
X107974383Y-168935400D01*
X107925617Y-168935400D01*
X107449329Y-169030140D01*
X107045552Y-169299935D01*
X106775757Y-169703712D01*
X106681017Y-170180000D01*
X101905482Y-170180000D01*
X101868327Y-170090302D01*
X101689699Y-169911673D01*
X101456310Y-169815000D01*
X100615750Y-169815000D01*
X100457000Y-169973750D01*
X100203000Y-169973750D01*
X100044250Y-169815000D01*
X99203690Y-169815000D01*
X98970301Y-169911673D01*
X98791673Y-170090302D01*
X98695000Y-170323691D01*
X98695000Y-170401846D01*
X98573295Y-170279928D01*
X98065903Y-170069241D01*
X97516507Y-170068761D01*
X97008749Y-170278563D01*
X96619928Y-170666705D01*
X96409241Y-171174097D01*
X96408761Y-171723493D01*
X84070567Y-171723493D01*
X83841057Y-171570140D01*
X83826757Y-171567296D01*
X84099320Y-171471954D01*
X84535732Y-171082036D01*
X84789709Y-170554791D01*
X84792358Y-170539026D01*
X84671217Y-170307000D01*
X83312000Y-170307000D01*
X83312000Y-170327000D01*
X83058000Y-170327000D01*
X83058000Y-170307000D01*
X81698783Y-170307000D01*
X81577642Y-170539026D01*
X40767000Y-170539026D01*
X40767000Y-169820974D01*
X81577642Y-169820974D01*
X81698783Y-170053000D01*
X83058000Y-170053000D01*
X83058000Y-170033000D01*
X83312000Y-170033000D01*
X83312000Y-170053000D01*
X84671217Y-170053000D01*
X84792358Y-169820974D01*
X84789709Y-169805209D01*
X84535732Y-169277964D01*
X84099320Y-168888046D01*
X83826757Y-168792704D01*
X83841057Y-168789860D01*
X84244834Y-168520065D01*
X84514629Y-168116288D01*
X84609369Y-167640000D01*
X106681017Y-167640000D01*
X106775757Y-168116288D01*
X107045552Y-168520065D01*
X107449329Y-168789860D01*
X107925617Y-168884600D01*
X107974383Y-168884600D01*
X108450671Y-168789860D01*
X108854448Y-168520065D01*
X109124243Y-168116288D01*
X109218983Y-167640000D01*
X109221017Y-167640000D01*
X109315757Y-168116288D01*
X109585552Y-168520065D01*
X109989329Y-168789860D01*
X110465617Y-168884600D01*
X110514383Y-168884600D01*
X110990671Y-168789860D01*
X111394448Y-168520065D01*
X111664243Y-168116288D01*
X111758983Y-167640000D01*
X111664243Y-167163712D01*
X111394448Y-166759935D01*
X110990671Y-166490140D01*
X110514383Y-166395400D01*
X110465617Y-166395400D01*
X109989329Y-166490140D01*
X109585552Y-166759935D01*
X109315757Y-167163712D01*
X109221017Y-167640000D01*
X109218983Y-167640000D01*
X109124243Y-167163712D01*
X108854448Y-166759935D01*
X108450671Y-166490140D01*
X107974383Y-166395400D01*
X107925617Y-166395400D01*
X107449329Y-166490140D01*
X107045552Y-166759935D01*
X106775757Y-167163712D01*
X106681017Y-167640000D01*
X84609369Y-167640000D01*
X84514629Y-167163712D01*
X84244834Y-166759935D01*
X83841057Y-166490140D01*
X83364769Y-166395400D01*
X83005231Y-166395400D01*
X82528943Y-166490140D01*
X82125166Y-166759935D01*
X81855371Y-167163712D01*
X81760631Y-167640000D01*
X81855371Y-168116288D01*
X82125166Y-168520065D01*
X82528943Y-168789860D01*
X82543243Y-168792704D01*
X82270680Y-168888046D01*
X81834268Y-169277964D01*
X81580291Y-169805209D01*
X81577642Y-169820974D01*
X40767000Y-169820974D01*
X40767000Y-162845750D01*
X81534000Y-162845750D01*
X81534000Y-163549910D01*
X81630673Y-163783299D01*
X81809302Y-163961927D01*
X82042691Y-164058600D01*
X82366621Y-164058600D01*
X82125166Y-164219935D01*
X81855371Y-164623712D01*
X81760631Y-165100000D01*
X81855371Y-165576288D01*
X82125166Y-165980065D01*
X82528943Y-166249860D01*
X83005231Y-166344600D01*
X83364769Y-166344600D01*
X83841057Y-166249860D01*
X84244834Y-165980065D01*
X84514629Y-165576288D01*
X84609369Y-165100000D01*
X106681017Y-165100000D01*
X106775757Y-165576288D01*
X107045552Y-165980065D01*
X107449329Y-166249860D01*
X107925617Y-166344600D01*
X107974383Y-166344600D01*
X108450671Y-166249860D01*
X108854448Y-165980065D01*
X109124243Y-165576288D01*
X109218983Y-165100000D01*
X109221017Y-165100000D01*
X109315757Y-165576288D01*
X109585552Y-165980065D01*
X109989329Y-166249860D01*
X110465617Y-166344600D01*
X110514383Y-166344600D01*
X110990671Y-166249860D01*
X111394448Y-165980065D01*
X111664243Y-165576288D01*
X111758983Y-165100000D01*
X111664243Y-164623712D01*
X111394448Y-164219935D01*
X110990671Y-163950140D01*
X110514383Y-163855400D01*
X110465617Y-163855400D01*
X109989329Y-163950140D01*
X109585552Y-164219935D01*
X109315757Y-164623712D01*
X109221017Y-165100000D01*
X109218983Y-165100000D01*
X109124243Y-164623712D01*
X108854448Y-164219935D01*
X108450671Y-163950140D01*
X107974383Y-163855400D01*
X107925617Y-163855400D01*
X107449329Y-163950140D01*
X107045552Y-164219935D01*
X106775757Y-164623712D01*
X106681017Y-165100000D01*
X84609369Y-165100000D01*
X84514629Y-164623712D01*
X84244834Y-164219935D01*
X84003379Y-164058600D01*
X84327309Y-164058600D01*
X84560698Y-163961927D01*
X84739327Y-163783299D01*
X84836000Y-163549910D01*
X84836000Y-162845750D01*
X84677250Y-162687000D01*
X83312000Y-162687000D01*
X83312000Y-162707000D01*
X83058000Y-162707000D01*
X83058000Y-162687000D01*
X81692750Y-162687000D01*
X81534000Y-162845750D01*
X40767000Y-162845750D01*
X40767000Y-162560000D01*
X106681017Y-162560000D01*
X106775757Y-163036288D01*
X107045552Y-163440065D01*
X107449329Y-163709860D01*
X107925617Y-163804600D01*
X107974383Y-163804600D01*
X108450671Y-163709860D01*
X108854448Y-163440065D01*
X109124243Y-163036288D01*
X109218983Y-162560000D01*
X109221017Y-162560000D01*
X109315757Y-163036288D01*
X109585552Y-163440065D01*
X109989329Y-163709860D01*
X110465617Y-163804600D01*
X110514383Y-163804600D01*
X110990671Y-163709860D01*
X111394448Y-163440065D01*
X111664243Y-163036288D01*
X111758983Y-162560000D01*
X111664243Y-162083712D01*
X111394448Y-161679935D01*
X110990671Y-161410140D01*
X110514383Y-161315400D01*
X110465617Y-161315400D01*
X109989329Y-161410140D01*
X109585552Y-161679935D01*
X109315757Y-162083712D01*
X109221017Y-162560000D01*
X109218983Y-162560000D01*
X109124243Y-162083712D01*
X108854448Y-161679935D01*
X108450671Y-161410140D01*
X107974383Y-161315400D01*
X107925617Y-161315400D01*
X107449329Y-161410140D01*
X107045552Y-161679935D01*
X106775757Y-162083712D01*
X106681017Y-162560000D01*
X40767000Y-162560000D01*
X40767000Y-161570090D01*
X81534000Y-161570090D01*
X81534000Y-162274250D01*
X81692750Y-162433000D01*
X83058000Y-162433000D01*
X83058000Y-161220150D01*
X83312000Y-161220150D01*
X83312000Y-162433000D01*
X84677250Y-162433000D01*
X84836000Y-162274250D01*
X84836000Y-161570090D01*
X84739327Y-161336701D01*
X84560698Y-161158073D01*
X84327309Y-161061400D01*
X83470750Y-161061400D01*
X83312000Y-161220150D01*
X83058000Y-161220150D01*
X82899250Y-161061400D01*
X82042691Y-161061400D01*
X81809302Y-161158073D01*
X81630673Y-161336701D01*
X81534000Y-161570090D01*
X40767000Y-161570090D01*
X40767000Y-160020000D01*
X106681017Y-160020000D01*
X106775757Y-160496288D01*
X107045552Y-160900065D01*
X107449329Y-161169860D01*
X107925617Y-161264600D01*
X107974383Y-161264600D01*
X108450671Y-161169860D01*
X108854448Y-160900065D01*
X109124243Y-160496288D01*
X109218983Y-160020000D01*
X109124243Y-159543712D01*
X108854448Y-159139935D01*
X108450671Y-158870140D01*
X107974383Y-158775400D01*
X107925617Y-158775400D01*
X107449329Y-158870140D01*
X107045552Y-159139935D01*
X106775757Y-159543712D01*
X106681017Y-160020000D01*
X40767000Y-160020000D01*
X40767000Y-156180772D01*
X58309510Y-156180772D01*
X58309510Y-157255228D01*
X58414594Y-157783519D01*
X58713846Y-158231382D01*
X59161709Y-158530634D01*
X59690000Y-158635718D01*
X60218291Y-158530634D01*
X60666154Y-158231382D01*
X60965406Y-157783519D01*
X61070490Y-157255228D01*
X61070490Y-156180772D01*
X60965406Y-155652481D01*
X60923375Y-155589577D01*
X60986795Y-155639471D01*
X61602620Y-155812490D01*
X62103000Y-155812490D01*
X62103000Y-154305000D01*
X62357000Y-154305000D01*
X62357000Y-155812490D01*
X62857380Y-155812490D01*
X63473205Y-155639471D01*
X63975942Y-155243956D01*
X64289053Y-154686159D01*
X64319999Y-154558354D01*
X64200645Y-154305000D01*
X62357000Y-154305000D01*
X62103000Y-154305000D01*
X60259355Y-154305000D01*
X60140001Y-154558354D01*
X60170947Y-154686159D01*
X60339432Y-154986310D01*
X60218291Y-154905366D01*
X59690000Y-154800282D01*
X59161709Y-154905366D01*
X58713846Y-155204618D01*
X58414594Y-155652481D01*
X58309510Y-156180772D01*
X40767000Y-156180772D01*
X40767000Y-154178000D01*
X55232282Y-154178000D01*
X55337366Y-154706291D01*
X55636618Y-155154154D01*
X56084481Y-155453406D01*
X56612772Y-155558490D01*
X57687228Y-155558490D01*
X58215519Y-155453406D01*
X58663382Y-155154154D01*
X58962634Y-154706291D01*
X59067718Y-154178000D01*
X58992061Y-153797646D01*
X60140001Y-153797646D01*
X60259355Y-154051000D01*
X62103000Y-154051000D01*
X62103000Y-152543510D01*
X62357000Y-152543510D01*
X62357000Y-154051000D01*
X64200645Y-154051000D01*
X64319999Y-153797646D01*
X64289053Y-153669841D01*
X63975942Y-153112044D01*
X63473205Y-152716529D01*
X62857380Y-152543510D01*
X62357000Y-152543510D01*
X62103000Y-152543510D01*
X61602620Y-152543510D01*
X60986795Y-152716529D01*
X60484058Y-153112044D01*
X60170947Y-153669841D01*
X60140001Y-153797646D01*
X58992061Y-153797646D01*
X58962634Y-153649709D01*
X58663382Y-153201846D01*
X58215519Y-152902594D01*
X57687228Y-152797510D01*
X56612772Y-152797510D01*
X56084481Y-152902594D01*
X55636618Y-153201846D01*
X55337366Y-153649709D01*
X55232282Y-154178000D01*
X40767000Y-154178000D01*
X40767000Y-151527361D01*
X86651975Y-151527361D01*
X86761950Y-151793521D01*
X86965408Y-151997335D01*
X87231376Y-152107774D01*
X87519361Y-152108025D01*
X87785521Y-151998050D01*
X87818629Y-151965000D01*
X94247342Y-151965000D01*
X98141171Y-155858829D01*
X98329661Y-155984774D01*
X98552000Y-156029000D01*
X109385175Y-156029000D01*
X109266702Y-156078073D01*
X109088073Y-156256701D01*
X108991400Y-156490090D01*
X108991400Y-156804898D01*
X108854448Y-156599935D01*
X108450671Y-156330140D01*
X107974383Y-156235400D01*
X107925617Y-156235400D01*
X107449329Y-156330140D01*
X107045552Y-156599935D01*
X106775757Y-157003712D01*
X106681017Y-157480000D01*
X106775757Y-157956288D01*
X107045552Y-158360065D01*
X107449329Y-158629860D01*
X107925617Y-158724600D01*
X107974383Y-158724600D01*
X108365795Y-158646743D01*
X108844526Y-159125474D01*
X109016795Y-159240580D01*
X109220000Y-159281000D01*
X109491295Y-159281000D01*
X109315757Y-159543712D01*
X109221017Y-160020000D01*
X109315757Y-160496288D01*
X109585552Y-160900065D01*
X109989329Y-161169860D01*
X110465617Y-161264600D01*
X110514383Y-161264600D01*
X110990671Y-161169860D01*
X111394448Y-160900065D01*
X111664243Y-160496288D01*
X111758983Y-160020000D01*
X111748040Y-159964988D01*
X118087000Y-166303948D01*
X118087000Y-169418000D01*
X118127420Y-169621205D01*
X118242526Y-169793474D01*
X120681333Y-172232281D01*
X120589231Y-172454086D01*
X120588769Y-172983591D01*
X120790975Y-173472966D01*
X121165065Y-173847709D01*
X121654086Y-174050769D01*
X122183591Y-174051231D01*
X122672966Y-173849025D01*
X122685663Y-173836350D01*
X136223255Y-173836350D01*
X136315792Y-174098019D01*
X136907398Y-174316188D01*
X137537461Y-174291352D01*
X138004208Y-174098019D01*
X138096745Y-173836350D01*
X137160000Y-172899605D01*
X136223255Y-173836350D01*
X122685663Y-173836350D01*
X123047709Y-173474935D01*
X123250769Y-172985914D01*
X123251221Y-172467398D01*
X135563812Y-172467398D01*
X135588648Y-173097461D01*
X135781981Y-173564208D01*
X136043650Y-173656745D01*
X136980395Y-172720000D01*
X137339605Y-172720000D01*
X138276350Y-173656745D01*
X138538019Y-173564208D01*
X138756188Y-172972602D01*
X138731352Y-172342539D01*
X138538019Y-171875792D01*
X138276350Y-171783255D01*
X137339605Y-172720000D01*
X136980395Y-172720000D01*
X136043650Y-171783255D01*
X135781981Y-171875792D01*
X135563812Y-172467398D01*
X123251221Y-172467398D01*
X123251231Y-172456409D01*
X123049025Y-171967034D01*
X122674935Y-171592291D01*
X122332022Y-171449901D01*
X122672966Y-171309025D01*
X123047709Y-170934935D01*
X123250769Y-170445914D01*
X123251231Y-169916409D01*
X123049025Y-169427034D01*
X122674935Y-169052291D01*
X122185914Y-168849231D01*
X121656409Y-168848769D01*
X121167034Y-169050975D01*
X120792291Y-169425065D01*
X120589231Y-169914086D01*
X120588769Y-170443591D01*
X120725533Y-170774585D01*
X119149000Y-169198052D01*
X119149000Y-167834277D01*
X120938830Y-167834277D01*
X121087864Y-168194966D01*
X121363583Y-168471166D01*
X121724011Y-168620829D01*
X122114277Y-168621170D01*
X122474966Y-168472136D01*
X122751166Y-168196417D01*
X122900829Y-167835989D01*
X122901170Y-167445723D01*
X122752136Y-167085034D01*
X122476417Y-166808834D01*
X122115989Y-166659171D01*
X121725723Y-166658830D01*
X121365034Y-166807864D01*
X121088834Y-167083583D01*
X120939171Y-167444011D01*
X120938830Y-167834277D01*
X119149000Y-167834277D01*
X119149000Y-166084000D01*
X119108580Y-165880795D01*
X118993474Y-165708526D01*
X111920138Y-158635190D01*
X111988600Y-158469910D01*
X111988600Y-157765750D01*
X111829850Y-157607000D01*
X110617000Y-157607000D01*
X110617000Y-157627000D01*
X110363000Y-157627000D01*
X110363000Y-157607000D01*
X110343000Y-157607000D01*
X110343000Y-157353000D01*
X110363000Y-157353000D01*
X110363000Y-157333000D01*
X110617000Y-157333000D01*
X110617000Y-157353000D01*
X111829850Y-157353000D01*
X111988600Y-157194250D01*
X111988600Y-156490090D01*
X111891927Y-156256701D01*
X111713298Y-156078073D01*
X111594825Y-156029000D01*
X111773342Y-156029000D01*
X118715171Y-162970829D01*
X118903661Y-163096774D01*
X119126000Y-163141000D01*
X120719920Y-163141000D01*
X120790975Y-163312966D01*
X121165065Y-163687709D01*
X121507978Y-163830099D01*
X121167034Y-163970975D01*
X120792291Y-164345065D01*
X120589231Y-164834086D01*
X120588769Y-165363591D01*
X120790975Y-165852966D01*
X121165065Y-166227709D01*
X121654086Y-166430769D01*
X122183591Y-166431231D01*
X122672966Y-166229025D01*
X123047709Y-165854935D01*
X123250769Y-165365914D01*
X123251231Y-164836409D01*
X123232901Y-164792047D01*
X129407471Y-158617476D01*
X129407474Y-158617474D01*
X129522580Y-158445205D01*
X129536639Y-158374526D01*
X129563001Y-158242000D01*
X129563000Y-158241995D01*
X129563000Y-149890797D01*
X129637408Y-149965335D01*
X129903376Y-150075774D01*
X130191361Y-150076025D01*
X130457521Y-149966050D01*
X130661335Y-149762592D01*
X130771774Y-149496624D01*
X130772025Y-149208639D01*
X130662050Y-148942479D01*
X130579000Y-148859284D01*
X130579000Y-139963591D01*
X135828769Y-139963591D01*
X136030975Y-140452966D01*
X136405065Y-140827709D01*
X136747978Y-140970099D01*
X136407034Y-141110975D01*
X136032291Y-141485065D01*
X135829231Y-141974086D01*
X135828769Y-142503591D01*
X136030975Y-142992966D01*
X136405065Y-143367709D01*
X136747978Y-143510099D01*
X136407034Y-143650975D01*
X136032291Y-144025065D01*
X135829231Y-144514086D01*
X135828769Y-145043591D01*
X136030975Y-145532966D01*
X136405065Y-145907709D01*
X136747978Y-146050099D01*
X136407034Y-146190975D01*
X136032291Y-146565065D01*
X135829231Y-147054086D01*
X135828769Y-147583591D01*
X136030975Y-148072966D01*
X136405065Y-148447709D01*
X136747978Y-148590099D01*
X136407034Y-148730975D01*
X136032291Y-149105065D01*
X135829231Y-149594086D01*
X135828769Y-150123591D01*
X136030975Y-150612966D01*
X136405065Y-150987709D01*
X136747978Y-151130099D01*
X136407034Y-151270975D01*
X136032291Y-151645065D01*
X135829231Y-152134086D01*
X135828769Y-152663591D01*
X136030975Y-153152966D01*
X136405065Y-153527709D01*
X136747978Y-153670099D01*
X136407034Y-153810975D01*
X136032291Y-154185065D01*
X135829231Y-154674086D01*
X135828769Y-155203591D01*
X136030975Y-155692966D01*
X136405065Y-156067709D01*
X136747978Y-156210099D01*
X136407034Y-156350975D01*
X136032291Y-156725065D01*
X135829231Y-157214086D01*
X135828769Y-157743591D01*
X136030975Y-158232966D01*
X136405065Y-158607709D01*
X136747978Y-158750099D01*
X136407034Y-158890975D01*
X136032291Y-159265065D01*
X135829231Y-159754086D01*
X135828769Y-160283591D01*
X136030975Y-160772966D01*
X136405065Y-161147709D01*
X136747978Y-161290099D01*
X136407034Y-161430975D01*
X136032291Y-161805065D01*
X135829231Y-162294086D01*
X135828769Y-162823591D01*
X136030975Y-163312966D01*
X136405065Y-163687709D01*
X136747978Y-163830099D01*
X136407034Y-163970975D01*
X136032291Y-164345065D01*
X135829231Y-164834086D01*
X135828769Y-165363591D01*
X136030975Y-165852966D01*
X136405065Y-166227709D01*
X136747978Y-166370099D01*
X136407034Y-166510975D01*
X136032291Y-166885065D01*
X135829231Y-167374086D01*
X135828769Y-167903591D01*
X136030975Y-168392966D01*
X136405065Y-168767709D01*
X136747978Y-168910099D01*
X136407034Y-169050975D01*
X136032291Y-169425065D01*
X135829231Y-169914086D01*
X135828769Y-170443591D01*
X136030975Y-170932966D01*
X136403154Y-171305795D01*
X136315792Y-171341981D01*
X136223255Y-171603650D01*
X137160000Y-172540395D01*
X138096745Y-171603650D01*
X138004208Y-171341981D01*
X137913472Y-171308520D01*
X138287709Y-170934935D01*
X138490769Y-170445914D01*
X138491231Y-169916409D01*
X138289025Y-169427034D01*
X137914935Y-169052291D01*
X137572022Y-168909901D01*
X137912966Y-168769025D01*
X138287709Y-168394935D01*
X138490769Y-167905914D01*
X138491231Y-167376409D01*
X138289025Y-166887034D01*
X137914935Y-166512291D01*
X137572022Y-166369901D01*
X137912966Y-166229025D01*
X138287709Y-165854935D01*
X138490769Y-165365914D01*
X138491231Y-164836409D01*
X138289025Y-164347034D01*
X137914935Y-163972291D01*
X137572022Y-163829901D01*
X137912966Y-163689025D01*
X138287709Y-163314935D01*
X138490769Y-162825914D01*
X138491231Y-162296409D01*
X138289025Y-161807034D01*
X137914935Y-161432291D01*
X137572022Y-161289901D01*
X137912966Y-161149025D01*
X138287709Y-160774935D01*
X138490769Y-160285914D01*
X138491231Y-159756409D01*
X138289025Y-159267034D01*
X137914935Y-158892291D01*
X137572022Y-158749901D01*
X137912966Y-158609025D01*
X138287709Y-158234935D01*
X138490769Y-157745914D01*
X138491231Y-157216409D01*
X138289025Y-156727034D01*
X137914935Y-156352291D01*
X137572022Y-156209901D01*
X137912966Y-156069025D01*
X138287709Y-155694935D01*
X138490769Y-155205914D01*
X138491231Y-154676409D01*
X138289025Y-154187034D01*
X137914935Y-153812291D01*
X137572022Y-153669901D01*
X137912966Y-153529025D01*
X138287709Y-153154935D01*
X138490769Y-152665914D01*
X138491231Y-152136409D01*
X138289025Y-151647034D01*
X137914935Y-151272291D01*
X137572022Y-151129901D01*
X137912966Y-150989025D01*
X138287709Y-150614935D01*
X138490769Y-150125914D01*
X138491231Y-149596409D01*
X138289025Y-149107034D01*
X137914935Y-148732291D01*
X137572022Y-148589901D01*
X137912966Y-148449025D01*
X138287709Y-148074935D01*
X138490769Y-147585914D01*
X138491231Y-147056409D01*
X138289025Y-146567034D01*
X137914935Y-146192291D01*
X137572022Y-146049901D01*
X137912966Y-145909025D01*
X138287709Y-145534935D01*
X138490769Y-145045914D01*
X138491231Y-144516409D01*
X138289025Y-144027034D01*
X137914935Y-143652291D01*
X137572022Y-143509901D01*
X137912966Y-143369025D01*
X138287709Y-142994935D01*
X138490769Y-142505914D01*
X138491231Y-141976409D01*
X138289025Y-141487034D01*
X137914935Y-141112291D01*
X137572022Y-140969901D01*
X137912966Y-140829025D01*
X138287709Y-140454935D01*
X138490769Y-139965914D01*
X138491231Y-139436409D01*
X138289025Y-138947034D01*
X137914935Y-138572291D01*
X137425914Y-138369231D01*
X136896409Y-138368769D01*
X136407034Y-138570975D01*
X136032291Y-138945065D01*
X135829231Y-139434086D01*
X135828769Y-139963591D01*
X130579000Y-139963591D01*
X130579000Y-129524783D01*
X130661335Y-129442592D01*
X130771774Y-129176624D01*
X130772025Y-128888639D01*
X130662050Y-128622479D01*
X130458592Y-128418665D01*
X130192624Y-128308226D01*
X129904639Y-128307975D01*
X129638479Y-128417950D01*
X129563000Y-128493297D01*
X129563000Y-123698000D01*
X129522580Y-123494795D01*
X129407474Y-123322526D01*
X129407471Y-123322524D01*
X129055000Y-122970052D01*
X129055000Y-115459361D01*
X130339975Y-115459361D01*
X130449950Y-115725521D01*
X130483000Y-115758629D01*
X130483000Y-124142524D01*
X130411226Y-124315376D01*
X130410975Y-124603361D01*
X130520950Y-124869521D01*
X130724408Y-125073335D01*
X130990376Y-125183774D01*
X131278361Y-125184025D01*
X131544521Y-125074050D01*
X131748335Y-124870592D01*
X131858774Y-124604624D01*
X131859025Y-124316639D01*
X131749050Y-124050479D01*
X131645000Y-123946247D01*
X131645000Y-115758871D01*
X131677335Y-115726592D01*
X131787774Y-115460624D01*
X131788025Y-115172639D01*
X131678050Y-114906479D01*
X131474592Y-114702665D01*
X131208624Y-114592226D01*
X130920639Y-114591975D01*
X130654479Y-114701950D01*
X130450665Y-114905408D01*
X130340226Y-115171376D01*
X130339975Y-115459361D01*
X129055000Y-115459361D01*
X129055000Y-107188005D01*
X129055001Y-107188000D01*
X129014580Y-106984795D01*
X128899474Y-106812526D01*
X121787474Y-99700526D01*
X121615205Y-99585420D01*
X121412000Y-99545000D01*
X118075947Y-99545000D01*
X115847000Y-97316052D01*
X115847000Y-92486797D01*
X115921408Y-92561335D01*
X116187376Y-92671774D01*
X116475361Y-92672025D01*
X116741521Y-92562050D01*
X116945335Y-92358592D01*
X117055774Y-92092624D01*
X117056025Y-91804639D01*
X117045126Y-91778262D01*
X117056000Y-91780464D01*
X118656000Y-91780464D01*
X118656025Y-91780459D01*
X118655975Y-91837361D01*
X118765950Y-92103521D01*
X118969408Y-92307335D01*
X119235376Y-92417774D01*
X119523361Y-92418025D01*
X119789521Y-92308050D01*
X119993335Y-92104592D01*
X120086190Y-91880971D01*
X120086526Y-91881474D01*
X120688076Y-92483024D01*
X120687975Y-92599361D01*
X120797950Y-92865521D01*
X121001408Y-93069335D01*
X121267376Y-93179774D01*
X121314157Y-93179815D01*
X122863000Y-94728658D01*
X122863000Y-96012000D01*
X122907226Y-96234339D01*
X123033171Y-96422829D01*
X123736015Y-97125673D01*
X123735975Y-97171361D01*
X123845950Y-97437521D01*
X124049408Y-97641335D01*
X124315376Y-97751774D01*
X124603361Y-97752025D01*
X124869521Y-97642050D01*
X125073335Y-97438592D01*
X125183774Y-97172624D01*
X125184025Y-96884639D01*
X125074050Y-96618479D01*
X124870592Y-96414665D01*
X124604624Y-96304226D01*
X124557843Y-96304185D01*
X124025000Y-95771342D01*
X124025000Y-95139361D01*
X125767975Y-95139361D01*
X125877950Y-95405521D01*
X126081408Y-95609335D01*
X126347376Y-95719774D01*
X126464928Y-95719876D01*
X136883000Y-106137947D01*
X136883000Y-115839217D01*
X136800665Y-115921408D01*
X136690226Y-116187376D01*
X136689975Y-116475361D01*
X136799950Y-116741521D01*
X137003408Y-116945335D01*
X137269376Y-117055774D01*
X137557361Y-117056025D01*
X137823521Y-116946050D01*
X138027335Y-116742592D01*
X138137774Y-116476624D01*
X138138025Y-116188639D01*
X138028050Y-115922479D01*
X137945000Y-115839284D01*
X137945000Y-105918005D01*
X137945001Y-105918000D01*
X137904580Y-105714796D01*
X137904580Y-105714795D01*
X137789474Y-105542526D01*
X137789471Y-105542524D01*
X127215924Y-94968976D01*
X127216025Y-94852639D01*
X127106050Y-94586479D01*
X126902592Y-94382665D01*
X126636624Y-94272226D01*
X126348639Y-94271975D01*
X126082479Y-94381950D01*
X125878665Y-94585408D01*
X125768226Y-94851376D01*
X125767975Y-95139361D01*
X124025000Y-95139361D01*
X124025000Y-94488000D01*
X123980774Y-94265661D01*
X123854829Y-94077171D01*
X122135985Y-92358327D01*
X122136025Y-92312639D01*
X122026050Y-92046479D01*
X121822592Y-91842665D01*
X121556624Y-91732226D01*
X121439072Y-91732124D01*
X120993000Y-91286052D01*
X120993000Y-91285325D01*
X121110866Y-91365859D01*
X121262000Y-91396464D01*
X121562000Y-91396464D01*
X121703190Y-91369897D01*
X121832865Y-91286454D01*
X121919859Y-91159134D01*
X121950464Y-91008000D01*
X121950464Y-90944128D01*
X121962000Y-90946464D01*
X122762000Y-90946464D01*
X122801667Y-90939000D01*
X123171106Y-90939000D01*
X123171106Y-91626690D01*
X123197673Y-91767880D01*
X123281116Y-91897555D01*
X123408436Y-91984549D01*
X123559570Y-92015154D01*
X125360430Y-92015154D01*
X125501620Y-91988587D01*
X125631295Y-91905144D01*
X125718289Y-91777824D01*
X125748894Y-91626690D01*
X125748894Y-90029030D01*
X125722327Y-89887840D01*
X125638884Y-89758165D01*
X125511564Y-89671171D01*
X125360430Y-89640566D01*
X123559570Y-89640566D01*
X123418380Y-89667133D01*
X123378374Y-89692876D01*
X123397000Y-89674250D01*
X123397000Y-89631691D01*
X123300327Y-89398302D01*
X123148248Y-89246222D01*
X123130957Y-89154330D01*
X123150464Y-89058000D01*
X123150464Y-88758000D01*
X123123897Y-88616810D01*
X123040454Y-88487135D01*
X122913134Y-88400141D01*
X122762000Y-88369536D01*
X121962000Y-88369536D01*
X121950464Y-88371707D01*
X121950464Y-88308000D01*
X121923897Y-88166810D01*
X121840454Y-88037135D01*
X121713134Y-87950141D01*
X121562000Y-87919536D01*
X121262000Y-87919536D01*
X121120810Y-87946103D01*
X120991135Y-88029546D01*
X120904141Y-88156866D01*
X120873536Y-88308000D01*
X120873536Y-88371872D01*
X120862000Y-88369536D01*
X120062000Y-88369536D01*
X120022333Y-88377000D01*
X116832005Y-88377000D01*
X116832000Y-88376999D01*
X116628795Y-88417420D01*
X116456526Y-88532526D01*
X114940526Y-90048526D01*
X114825420Y-90220795D01*
X114785000Y-90424000D01*
X114785000Y-97536000D01*
X114825420Y-97739205D01*
X114940526Y-97911474D01*
X117480524Y-100451471D01*
X117480526Y-100451474D01*
X117652795Y-100566580D01*
X117856000Y-100607000D01*
X121192052Y-100607000D01*
X127993000Y-107407948D01*
X127993000Y-123190000D01*
X128033420Y-123393205D01*
X128148526Y-123565474D01*
X128501000Y-123917947D01*
X128501000Y-158022053D01*
X122587194Y-163935858D01*
X122332022Y-163829901D01*
X122672966Y-163689025D01*
X123047709Y-163314935D01*
X123250769Y-162825914D01*
X123251231Y-162296409D01*
X123049025Y-161807034D01*
X122674935Y-161432291D01*
X122332022Y-161289901D01*
X122672966Y-161149025D01*
X123047709Y-160774935D01*
X123250769Y-160285914D01*
X123251231Y-159756409D01*
X123049025Y-159267034D01*
X122674935Y-158892291D01*
X122332022Y-158749901D01*
X122672966Y-158609025D01*
X123047709Y-158234935D01*
X123250769Y-157745914D01*
X123251231Y-157216409D01*
X123049025Y-156727034D01*
X122674935Y-156352291D01*
X122332022Y-156209901D01*
X122672966Y-156069025D01*
X123047709Y-155694935D01*
X123250769Y-155205914D01*
X123251231Y-154676409D01*
X123049025Y-154187034D01*
X122674935Y-153812291D01*
X122332022Y-153669901D01*
X122672966Y-153529025D01*
X123047709Y-153154935D01*
X123250769Y-152665914D01*
X123251231Y-152136409D01*
X123049025Y-151647034D01*
X122674935Y-151272291D01*
X122332022Y-151129901D01*
X122672966Y-150989025D01*
X123047709Y-150614935D01*
X123250769Y-150125914D01*
X123251231Y-149596409D01*
X123049025Y-149107034D01*
X122674935Y-148732291D01*
X122332022Y-148589901D01*
X122672966Y-148449025D01*
X123047709Y-148074935D01*
X123250769Y-147585914D01*
X123251231Y-147056409D01*
X123049025Y-146567034D01*
X122674935Y-146192291D01*
X122332022Y-146049901D01*
X122672966Y-145909025D01*
X123047709Y-145534935D01*
X123250769Y-145045914D01*
X123250842Y-144962106D01*
X127375474Y-140837474D01*
X127490580Y-140665205D01*
X127531000Y-140462000D01*
X127531000Y-110650807D01*
X127663521Y-110596050D01*
X127867335Y-110392592D01*
X127977774Y-110126624D01*
X127978025Y-109838639D01*
X127868050Y-109572479D01*
X127664592Y-109368665D01*
X127612617Y-109347083D01*
X127663521Y-109326050D01*
X127867335Y-109122592D01*
X127977774Y-108856624D01*
X127978025Y-108568639D01*
X127868050Y-108302479D01*
X127664592Y-108098665D01*
X127398624Y-107988226D01*
X127110639Y-107987975D01*
X126844479Y-108097950D01*
X126640665Y-108301408D01*
X126530226Y-108567376D01*
X126530124Y-108684928D01*
X125862526Y-109352526D01*
X125747420Y-109524795D01*
X125707000Y-109728000D01*
X125707000Y-139734052D01*
X123732052Y-141709000D01*
X123140740Y-141709000D01*
X123049025Y-141487034D01*
X122674935Y-141112291D01*
X122332022Y-140969901D01*
X122672966Y-140829025D01*
X123047709Y-140454935D01*
X123250769Y-139965914D01*
X123251231Y-139436409D01*
X123049025Y-138947034D01*
X122674935Y-138572291D01*
X122185914Y-138369231D01*
X121656409Y-138368769D01*
X121167034Y-138570975D01*
X120792291Y-138945065D01*
X120589231Y-139434086D01*
X120588769Y-139963591D01*
X120790975Y-140452966D01*
X121165065Y-140827709D01*
X121507978Y-140970099D01*
X121167034Y-141110975D01*
X120792291Y-141485065D01*
X120589231Y-141974086D01*
X120588769Y-142503591D01*
X120790975Y-142992966D01*
X121165065Y-143367709D01*
X121507978Y-143510099D01*
X121167034Y-143650975D01*
X120792291Y-144025065D01*
X120589231Y-144514086D01*
X120588769Y-145043591D01*
X120790975Y-145532966D01*
X121165065Y-145907709D01*
X121507978Y-146050099D01*
X121167034Y-146190975D01*
X120792291Y-146565065D01*
X120589231Y-147054086D01*
X120588769Y-147583591D01*
X120790975Y-148072966D01*
X121165065Y-148447709D01*
X121507978Y-148590099D01*
X121167034Y-148730975D01*
X120792291Y-149105065D01*
X120589231Y-149594086D01*
X120588785Y-150105705D01*
X117775000Y-147291920D01*
X117775000Y-141224000D01*
X117723162Y-140963393D01*
X117723162Y-140963392D01*
X117575540Y-140742460D01*
X113107836Y-136274756D01*
X113184369Y-135890000D01*
X116685631Y-135890000D01*
X116780371Y-136366288D01*
X117050166Y-136770065D01*
X117453943Y-137039860D01*
X117930231Y-137134600D01*
X118289769Y-137134600D01*
X118766057Y-137039860D01*
X119169834Y-136770065D01*
X119439629Y-136366288D01*
X119534369Y-135890000D01*
X119439629Y-135413712D01*
X119169834Y-135009935D01*
X118766057Y-134740140D01*
X118289769Y-134645400D01*
X117930231Y-134645400D01*
X117453943Y-134740140D01*
X117050166Y-135009935D01*
X116780371Y-135413712D01*
X116685631Y-135890000D01*
X113184369Y-135890000D01*
X113089629Y-135413712D01*
X112819834Y-135009935D01*
X112416057Y-134740140D01*
X111939769Y-134645400D01*
X111580231Y-134645400D01*
X111103943Y-134740140D01*
X110700166Y-135009935D01*
X110430371Y-135413712D01*
X110335631Y-135890000D01*
X110430371Y-136366288D01*
X110700166Y-136770065D01*
X111103943Y-137039860D01*
X111580231Y-137134600D01*
X111939769Y-137134600D01*
X112024638Y-137117718D01*
X112147920Y-137241000D01*
X110264079Y-137241000D01*
X106757836Y-133734756D01*
X106834369Y-133350000D01*
X106739629Y-132873712D01*
X106469834Y-132469935D01*
X106066057Y-132200140D01*
X106051757Y-132197296D01*
X106324320Y-132101954D01*
X106760732Y-131712036D01*
X107014709Y-131184791D01*
X107017358Y-131169026D01*
X110152642Y-131169026D01*
X110155291Y-131184791D01*
X110409268Y-131712036D01*
X110845680Y-132101954D01*
X111118243Y-132197296D01*
X111103943Y-132200140D01*
X110700166Y-132469935D01*
X110430371Y-132873712D01*
X110335631Y-133350000D01*
X110430371Y-133826288D01*
X110700166Y-134230065D01*
X111103943Y-134499860D01*
X111580231Y-134594600D01*
X111939769Y-134594600D01*
X112416057Y-134499860D01*
X112819834Y-134230065D01*
X113089629Y-133826288D01*
X113184369Y-133350000D01*
X113089629Y-132873712D01*
X112819834Y-132469935D01*
X112416057Y-132200140D01*
X112401757Y-132197296D01*
X112674320Y-132101954D01*
X113110732Y-131712036D01*
X113364709Y-131184791D01*
X113367358Y-131169026D01*
X116502642Y-131169026D01*
X116505291Y-131184791D01*
X116759268Y-131712036D01*
X117195680Y-132101954D01*
X117468243Y-132197296D01*
X117453943Y-132200140D01*
X117050166Y-132469935D01*
X116780371Y-132873712D01*
X116685631Y-133350000D01*
X116780371Y-133826288D01*
X117050166Y-134230065D01*
X117453943Y-134499860D01*
X117930231Y-134594600D01*
X118289769Y-134594600D01*
X118766057Y-134499860D01*
X119169834Y-134230065D01*
X119439629Y-133826288D01*
X119534369Y-133350000D01*
X119439629Y-132873712D01*
X119169834Y-132469935D01*
X118766057Y-132200140D01*
X118751757Y-132197296D01*
X119024320Y-132101954D01*
X119460732Y-131712036D01*
X119714709Y-131184791D01*
X119717358Y-131169026D01*
X119596217Y-130937000D01*
X118237000Y-130937000D01*
X118237000Y-130957000D01*
X117983000Y-130957000D01*
X117983000Y-130937000D01*
X116623783Y-130937000D01*
X116502642Y-131169026D01*
X113367358Y-131169026D01*
X113246217Y-130937000D01*
X111887000Y-130937000D01*
X111887000Y-130957000D01*
X111633000Y-130957000D01*
X111633000Y-130937000D01*
X110273783Y-130937000D01*
X110152642Y-131169026D01*
X107017358Y-131169026D01*
X106896217Y-130937000D01*
X105537000Y-130937000D01*
X105537000Y-130957000D01*
X105283000Y-130957000D01*
X105283000Y-130937000D01*
X105263000Y-130937000D01*
X105263000Y-130683000D01*
X105283000Y-130683000D01*
X105283000Y-130663000D01*
X105537000Y-130663000D01*
X105537000Y-130683000D01*
X106896217Y-130683000D01*
X107017358Y-130450974D01*
X110152642Y-130450974D01*
X110273783Y-130683000D01*
X111633000Y-130683000D01*
X111633000Y-130663000D01*
X111887000Y-130663000D01*
X111887000Y-130683000D01*
X113246217Y-130683000D01*
X113367358Y-130450974D01*
X116502642Y-130450974D01*
X116623783Y-130683000D01*
X117983000Y-130683000D01*
X117983000Y-130663000D01*
X118237000Y-130663000D01*
X118237000Y-130683000D01*
X119596217Y-130683000D01*
X119717358Y-130450974D01*
X119714709Y-130435209D01*
X119460732Y-129907964D01*
X119028817Y-129522064D01*
X119126000Y-129522064D01*
X119267190Y-129495497D01*
X119396865Y-129412054D01*
X119483859Y-129284734D01*
X119514464Y-129133600D01*
X119514464Y-127406400D01*
X119487897Y-127265210D01*
X119404454Y-127135535D01*
X119277134Y-127048541D01*
X119126000Y-127017936D01*
X117094000Y-127017936D01*
X116952810Y-127044503D01*
X116823135Y-127127946D01*
X116736141Y-127255266D01*
X116705536Y-127406400D01*
X116705536Y-129133600D01*
X116732103Y-129274790D01*
X116815546Y-129404465D01*
X116942866Y-129491459D01*
X117094000Y-129522064D01*
X117191183Y-129522064D01*
X116759268Y-129907964D01*
X116505291Y-130435209D01*
X116502642Y-130450974D01*
X113367358Y-130450974D01*
X113364709Y-130435209D01*
X113110732Y-129907964D01*
X112678817Y-129522064D01*
X112776000Y-129522064D01*
X112917190Y-129495497D01*
X113046865Y-129412054D01*
X113133859Y-129284734D01*
X113164464Y-129133600D01*
X113164464Y-127406400D01*
X113137897Y-127265210D01*
X113054454Y-127135535D01*
X112927134Y-127048541D01*
X112776000Y-127017936D01*
X110744000Y-127017936D01*
X110602810Y-127044503D01*
X110473135Y-127127946D01*
X110386141Y-127255266D01*
X110355536Y-127406400D01*
X110355536Y-129133600D01*
X110382103Y-129274790D01*
X110465546Y-129404465D01*
X110592866Y-129491459D01*
X110744000Y-129522064D01*
X110841183Y-129522064D01*
X110409268Y-129907964D01*
X110155291Y-130435209D01*
X110152642Y-130450974D01*
X107017358Y-130450974D01*
X107014709Y-130435209D01*
X106760732Y-129907964D01*
X106328817Y-129522064D01*
X106426000Y-129522064D01*
X106567190Y-129495497D01*
X106696865Y-129412054D01*
X106783859Y-129284734D01*
X106814464Y-129133600D01*
X106814464Y-127406400D01*
X106787897Y-127265210D01*
X106704454Y-127135535D01*
X106577134Y-127048541D01*
X106426000Y-127017936D01*
X104394000Y-127017936D01*
X104252810Y-127044503D01*
X104123135Y-127127946D01*
X104036141Y-127255266D01*
X104005536Y-127406400D01*
X104005536Y-128782096D01*
X102931816Y-129855816D01*
X102795032Y-130060527D01*
X102747000Y-130302000D01*
X102747000Y-136906000D01*
X102792471Y-137134600D01*
X102795032Y-137147473D01*
X102931816Y-137352184D01*
X104963816Y-139384184D01*
X105168527Y-139520968D01*
X105410000Y-139569000D01*
X111752632Y-139569000D01*
X114431000Y-142247368D01*
X114431000Y-146296631D01*
X114114066Y-146613566D01*
X113890479Y-146705950D01*
X113686665Y-146909408D01*
X113576226Y-147175376D01*
X113575975Y-147463361D01*
X113685950Y-147729521D01*
X113889408Y-147933335D01*
X114155376Y-148043774D01*
X114443361Y-148044025D01*
X114709521Y-147934050D01*
X114913335Y-147730592D01*
X115006753Y-147505615D01*
X115397000Y-147115369D01*
X115397000Y-149098000D01*
X115448838Y-149358608D01*
X115596460Y-149579540D01*
X120619093Y-154602172D01*
X120589231Y-154674086D01*
X120588769Y-155203591D01*
X120790975Y-155692966D01*
X121165065Y-156067709D01*
X121507978Y-156210099D01*
X121167034Y-156350975D01*
X120792291Y-156725065D01*
X120589231Y-157214086D01*
X120588769Y-157743591D01*
X120790975Y-158232966D01*
X121165065Y-158607709D01*
X121507978Y-158750099D01*
X121167034Y-158890975D01*
X120792291Y-159265065D01*
X120589231Y-159754086D01*
X120588769Y-160283591D01*
X120790975Y-160772966D01*
X121165065Y-161147709D01*
X121507978Y-161290099D01*
X121167034Y-161430975D01*
X120792291Y-161805065D01*
X120720067Y-161979000D01*
X119366658Y-161979000D01*
X112424829Y-155037171D01*
X112236339Y-154911226D01*
X112014000Y-154867000D01*
X98792658Y-154867000D01*
X94898829Y-150973171D01*
X94710339Y-150847226D01*
X94488000Y-150803000D01*
X87818871Y-150803000D01*
X87786592Y-150770665D01*
X87520624Y-150660226D01*
X87232639Y-150659975D01*
X86966479Y-150769950D01*
X86762665Y-150973408D01*
X86652226Y-151239376D01*
X86651975Y-151527361D01*
X40767000Y-151527361D01*
X40767000Y-148803983D01*
X58558804Y-148803983D01*
X58730625Y-149219823D01*
X59048503Y-149538256D01*
X59464043Y-149710804D01*
X59913983Y-149711196D01*
X60329823Y-149539375D01*
X60648256Y-149221497D01*
X60820804Y-148805957D01*
X60821196Y-148356017D01*
X60649375Y-147940177D01*
X60331497Y-147621744D01*
X59915957Y-147449196D01*
X59466017Y-147448804D01*
X59050177Y-147620625D01*
X58731744Y-147938503D01*
X58559196Y-148354043D01*
X58558804Y-148803983D01*
X40767000Y-148803983D01*
X40767000Y-141203983D01*
X58558804Y-141203983D01*
X58730625Y-141619823D01*
X59048503Y-141938256D01*
X59464043Y-142110804D01*
X59913983Y-142111196D01*
X60329823Y-141939375D01*
X60648256Y-141621497D01*
X60820804Y-141205957D01*
X60821196Y-140756017D01*
X60649375Y-140340177D01*
X60331497Y-140021744D01*
X59915957Y-139849196D01*
X59466017Y-139848804D01*
X59050177Y-140020625D01*
X58731744Y-140338503D01*
X58559196Y-140754043D01*
X58558804Y-141203983D01*
X40767000Y-141203983D01*
X40767000Y-137287000D01*
X68973700Y-137287000D01*
X68973700Y-137541000D01*
X69128641Y-138065941D01*
X69472674Y-138491630D01*
X69953423Y-138753260D01*
X70027630Y-138768220D01*
X70243700Y-138645720D01*
X70243700Y-137287000D01*
X70497700Y-137287000D01*
X70497700Y-138645720D01*
X70713770Y-138768220D01*
X70787977Y-138753260D01*
X71268726Y-138491630D01*
X71612759Y-138065941D01*
X71767700Y-137541000D01*
X71767700Y-137287000D01*
X70497700Y-137287000D01*
X70243700Y-137287000D01*
X68973700Y-137287000D01*
X40767000Y-137287000D01*
X40767000Y-136779000D01*
X68973700Y-136779000D01*
X68973700Y-137033000D01*
X70243700Y-137033000D01*
X70243700Y-135674280D01*
X70497700Y-135674280D01*
X70497700Y-137033000D01*
X71767700Y-137033000D01*
X71767700Y-136779000D01*
X71612759Y-136254059D01*
X71268726Y-135828370D01*
X70864953Y-135608631D01*
X96126300Y-135608631D01*
X96126300Y-136171369D01*
X96213306Y-136608776D01*
X96461077Y-136979592D01*
X96731077Y-137160000D01*
X96461077Y-137340408D01*
X96213306Y-137711224D01*
X96126300Y-138148631D01*
X96126300Y-138711369D01*
X96213306Y-139148776D01*
X96461077Y-139519592D01*
X96831893Y-139767363D01*
X97269300Y-139854369D01*
X97706707Y-139767363D01*
X98077523Y-139519592D01*
X98325294Y-139148776D01*
X98412300Y-138711369D01*
X98412300Y-138148631D01*
X98325294Y-137711224D01*
X98077523Y-137340408D01*
X97807523Y-137160000D01*
X98077523Y-136979592D01*
X98325294Y-136608776D01*
X98412300Y-136171369D01*
X98412300Y-135608631D01*
X98325294Y-135171224D01*
X98077523Y-134800408D01*
X97706707Y-134552637D01*
X97269300Y-134465631D01*
X96831893Y-134552637D01*
X96461077Y-134800408D01*
X96213306Y-135171224D01*
X96126300Y-135608631D01*
X70864953Y-135608631D01*
X70787977Y-135566740D01*
X70713770Y-135551780D01*
X70497700Y-135674280D01*
X70243700Y-135674280D01*
X70027630Y-135551780D01*
X69953423Y-135566740D01*
X69472674Y-135828370D01*
X69128641Y-136254059D01*
X68973700Y-136779000D01*
X40767000Y-136779000D01*
X40767000Y-117091510D01*
X83819780Y-117091510D01*
X84012718Y-117558458D01*
X84369663Y-117916026D01*
X84836273Y-118109779D01*
X85341510Y-118110220D01*
X85808458Y-117917282D01*
X86166026Y-117560337D01*
X86359779Y-117093727D01*
X86360220Y-116588490D01*
X86167282Y-116121542D01*
X85810337Y-115763974D01*
X85343727Y-115570221D01*
X84838490Y-115569780D01*
X84371542Y-115762718D01*
X84013974Y-116119663D01*
X83820221Y-116586273D01*
X83819780Y-117091510D01*
X40767000Y-117091510D01*
X40767000Y-112011510D01*
X83819780Y-112011510D01*
X84012718Y-112478458D01*
X84369663Y-112836026D01*
X84836273Y-113029779D01*
X85341510Y-113030220D01*
X85808458Y-112837282D01*
X86166026Y-112480337D01*
X86359779Y-112013727D01*
X86360220Y-111508490D01*
X86167282Y-111041542D01*
X85810337Y-110683974D01*
X85343727Y-110490221D01*
X84838490Y-110489780D01*
X84371542Y-110682718D01*
X84013974Y-111039663D01*
X83820221Y-111506273D01*
X83819780Y-112011510D01*
X40767000Y-112011510D01*
X40767000Y-109363361D01*
X94525975Y-109363361D01*
X94635950Y-109629521D01*
X94839408Y-109833335D01*
X95105376Y-109943774D01*
X95393361Y-109944025D01*
X95659521Y-109834050D01*
X95742716Y-109751000D01*
X96300052Y-109751000D01*
X105956076Y-119407024D01*
X105955975Y-119523361D01*
X106065950Y-119789521D01*
X106269408Y-119993335D01*
X106535376Y-120103774D01*
X106823361Y-120104025D01*
X107089521Y-119994050D01*
X107293335Y-119790592D01*
X107403774Y-119524624D01*
X107404025Y-119236639D01*
X107294050Y-118970479D01*
X107090592Y-118766665D01*
X106824624Y-118656226D01*
X106707072Y-118656124D01*
X96895474Y-108844526D01*
X96723205Y-108729420D01*
X96520000Y-108689000D01*
X95742783Y-108689000D01*
X95660592Y-108606665D01*
X95394624Y-108496226D01*
X95106639Y-108495975D01*
X94840479Y-108605950D01*
X94636665Y-108809408D01*
X94526226Y-109075376D01*
X94525975Y-109363361D01*
X40767000Y-109363361D01*
X40767000Y-99568000D01*
X78971000Y-99568000D01*
X78971000Y-103124000D01*
X79011420Y-103327205D01*
X79126526Y-103499474D01*
X83952524Y-108325471D01*
X83952526Y-108325474D01*
X83987173Y-108348624D01*
X84124795Y-108440580D01*
X84328000Y-108481001D01*
X84328005Y-108481000D01*
X98391193Y-108481000D01*
X98445950Y-108613521D01*
X98649408Y-108817335D01*
X98915376Y-108927774D01*
X99203361Y-108928025D01*
X99469521Y-108818050D01*
X99673335Y-108614592D01*
X99783774Y-108348624D01*
X99784025Y-108060639D01*
X99768473Y-108023000D01*
X100089342Y-108023000D01*
X104686015Y-112619673D01*
X104685975Y-112665361D01*
X104795950Y-112931521D01*
X104999408Y-113135335D01*
X105265376Y-113245774D01*
X105553361Y-113246025D01*
X105819521Y-113136050D01*
X106023335Y-112932592D01*
X106133774Y-112666624D01*
X106134025Y-112378639D01*
X106024050Y-112112479D01*
X105820592Y-111908665D01*
X105554624Y-111798226D01*
X105507843Y-111798185D01*
X100740829Y-107031171D01*
X100552339Y-106905226D01*
X100330000Y-106861000D01*
X96252658Y-106861000D01*
X95973985Y-106582327D01*
X95974025Y-106536639D01*
X95864050Y-106270479D01*
X95838616Y-106245000D01*
X100343342Y-106245000D01*
X105956015Y-111857673D01*
X105955975Y-111903361D01*
X106065950Y-112169521D01*
X106269408Y-112373335D01*
X106535376Y-112483774D01*
X106823361Y-112484025D01*
X107089521Y-112374050D01*
X107293335Y-112170592D01*
X107374202Y-111975841D01*
X107585361Y-111976025D01*
X107851521Y-111866050D01*
X108055335Y-111662592D01*
X108136202Y-111467841D01*
X108347361Y-111468025D01*
X108613521Y-111358050D01*
X108817335Y-111154592D01*
X108927774Y-110888624D01*
X108928025Y-110600639D01*
X108818050Y-110334479D01*
X108614592Y-110130665D01*
X108348624Y-110020226D01*
X108301843Y-110020185D01*
X95406829Y-97125171D01*
X95218339Y-96999226D01*
X95057689Y-96967271D01*
X95077927Y-96912532D01*
X94105000Y-95939605D01*
X93132073Y-96912532D01*
X93147774Y-96955000D01*
X88138000Y-96955000D01*
X87915661Y-96999226D01*
X87727171Y-97125171D01*
X86711171Y-98141171D01*
X86585226Y-98329661D01*
X86551471Y-98499359D01*
X86281417Y-98228834D01*
X85920989Y-98079171D01*
X85530723Y-98078830D01*
X85170034Y-98227864D01*
X84893834Y-98503583D01*
X84744171Y-98864011D01*
X84743830Y-99254277D01*
X84892864Y-99614966D01*
X85168583Y-99891166D01*
X85529011Y-100040829D01*
X85919277Y-100041170D01*
X86279966Y-99892136D01*
X86551548Y-99621027D01*
X86585226Y-99790339D01*
X86711171Y-99978829D01*
X87465500Y-100733158D01*
X87190989Y-100619171D01*
X86800723Y-100618830D01*
X86440034Y-100767864D01*
X86163834Y-101043583D01*
X86014171Y-101404011D01*
X86013830Y-101794277D01*
X86162864Y-102154966D01*
X86438583Y-102431166D01*
X86799011Y-102580829D01*
X87189277Y-102581170D01*
X87549966Y-102432136D01*
X87826166Y-102156417D01*
X87975829Y-101795989D01*
X87976170Y-101405723D01*
X87862174Y-101129832D01*
X88572990Y-101840648D01*
X88702864Y-102154966D01*
X88978583Y-102431166D01*
X89339011Y-102580829D01*
X89729277Y-102581170D01*
X90089966Y-102432136D01*
X90366166Y-102156417D01*
X90515829Y-101795989D01*
X90516170Y-101405723D01*
X90367136Y-101045034D01*
X90091417Y-100768834D01*
X89730989Y-100619171D01*
X89340723Y-100618830D01*
X89095721Y-100720063D01*
X88416791Y-100041133D01*
X88459277Y-100041170D01*
X88819966Y-99892136D01*
X89096166Y-99616417D01*
X89245829Y-99255989D01*
X89246170Y-98865723D01*
X89097136Y-98505034D01*
X88821417Y-98228834D01*
X88552091Y-98117000D01*
X90518345Y-98117000D01*
X90250034Y-98227864D01*
X89973834Y-98503583D01*
X89824171Y-98864011D01*
X89823830Y-99254277D01*
X89972864Y-99614966D01*
X90248583Y-99891166D01*
X90609011Y-100040829D01*
X90964482Y-100041140D01*
X96006342Y-105083000D01*
X88886658Y-105083000D01*
X85435972Y-101632314D01*
X85436170Y-101405723D01*
X85287136Y-101045034D01*
X85011417Y-100768834D01*
X84650989Y-100619171D01*
X84260723Y-100618830D01*
X83900034Y-100767864D01*
X83623834Y-101043583D01*
X83474171Y-101404011D01*
X83473830Y-101794277D01*
X83622864Y-102154966D01*
X83898583Y-102431166D01*
X84259011Y-102580829D01*
X84649277Y-102581170D01*
X84714544Y-102554202D01*
X88235171Y-106074829D01*
X88423661Y-106200774D01*
X88646000Y-106245000D01*
X94661116Y-106245000D01*
X94636665Y-106269408D01*
X94526226Y-106535376D01*
X94525975Y-106823361D01*
X94635950Y-107089521D01*
X94839408Y-107293335D01*
X95105376Y-107403774D01*
X95152157Y-107403815D01*
X95167342Y-107419000D01*
X84547947Y-107419000D01*
X80033000Y-102904052D01*
X80033000Y-102462735D01*
X81231870Y-102462735D01*
X81281383Y-102688164D01*
X81746036Y-102847807D01*
X82236413Y-102817482D01*
X82548617Y-102688164D01*
X82598130Y-102462735D01*
X81915000Y-101779605D01*
X81231870Y-102462735D01*
X80033000Y-102462735D01*
X80033000Y-101431036D01*
X80667193Y-101431036D01*
X80697518Y-101921413D01*
X80826836Y-102233617D01*
X81052265Y-102283130D01*
X81735395Y-101600000D01*
X82094605Y-101600000D01*
X82777735Y-102283130D01*
X83003164Y-102233617D01*
X83162807Y-101768964D01*
X83132482Y-101278587D01*
X83003164Y-100966383D01*
X82777735Y-100916870D01*
X82094605Y-101600000D01*
X81735395Y-101600000D01*
X81052265Y-100916870D01*
X80826836Y-100966383D01*
X80667193Y-101431036D01*
X80033000Y-101431036D01*
X80033000Y-100737265D01*
X81231870Y-100737265D01*
X81915000Y-101420395D01*
X82598130Y-100737265D01*
X82548617Y-100511836D01*
X82083964Y-100352193D01*
X81593587Y-100382518D01*
X81281383Y-100511836D01*
X81231870Y-100737265D01*
X80033000Y-100737265D01*
X80033000Y-99787948D01*
X80566670Y-99254277D01*
X82203830Y-99254277D01*
X82352864Y-99614966D01*
X82628583Y-99891166D01*
X82989011Y-100040829D01*
X83379277Y-100041170D01*
X83739966Y-99892136D01*
X84016166Y-99616417D01*
X84165829Y-99255989D01*
X84166170Y-98865723D01*
X84017136Y-98505034D01*
X83741417Y-98228834D01*
X83380989Y-98079171D01*
X82990723Y-98078830D01*
X82630034Y-98227864D01*
X82353834Y-98503583D01*
X82204171Y-98864011D01*
X82203830Y-99254277D01*
X80566670Y-99254277D01*
X83687471Y-96133476D01*
X83687474Y-96133474D01*
X83802580Y-95961205D01*
X83806877Y-95939605D01*
X83843001Y-95758000D01*
X83843000Y-95757995D01*
X83843000Y-95495461D01*
X92459092Y-95495461D01*
X92483144Y-96145460D01*
X92685613Y-96634264D01*
X92952468Y-96732927D01*
X93925395Y-95760000D01*
X94284605Y-95760000D01*
X95257532Y-96732927D01*
X95524387Y-96634264D01*
X95750908Y-96024539D01*
X95726856Y-95374540D01*
X95524387Y-94885736D01*
X95257532Y-94787073D01*
X94284605Y-95760000D01*
X93925395Y-95760000D01*
X92952468Y-94787073D01*
X92685613Y-94885736D01*
X92459092Y-95495461D01*
X83843000Y-95495461D01*
X83843000Y-93107268D01*
X90068652Y-93107268D01*
X90373404Y-93844823D01*
X90937209Y-94409613D01*
X91674231Y-94715651D01*
X92472268Y-94716348D01*
X93203531Y-94414196D01*
X93132073Y-94607468D01*
X94105000Y-95580395D01*
X95077927Y-94607468D01*
X94979264Y-94340613D01*
X94369539Y-94114092D01*
X93719540Y-94138144D01*
X93316528Y-94305077D01*
X93774613Y-93847791D01*
X94080651Y-93110769D01*
X94081348Y-92312732D01*
X93776596Y-91575177D01*
X93212791Y-91010387D01*
X92475769Y-90704349D01*
X91677732Y-90703652D01*
X90940177Y-91008404D01*
X90375387Y-91572209D01*
X90069349Y-92309231D01*
X90068652Y-93107268D01*
X83843000Y-93107268D01*
X83843000Y-90932000D01*
X83802580Y-90728795D01*
X83687474Y-90556526D01*
X83687471Y-90556524D01*
X82806000Y-89675052D01*
X82806000Y-88706139D01*
X82858251Y-88684549D01*
X83148529Y-88394777D01*
X83305820Y-88015978D01*
X83305821Y-88014179D01*
X89413822Y-88014179D01*
X89570451Y-88393251D01*
X89860223Y-88683529D01*
X90239022Y-88840820D01*
X90649179Y-88841178D01*
X91028251Y-88684549D01*
X91318529Y-88394777D01*
X91475820Y-88015978D01*
X91475821Y-88014179D01*
X91953822Y-88014179D01*
X92110451Y-88393251D01*
X92400223Y-88683529D01*
X92779022Y-88840820D01*
X93189179Y-88841178D01*
X93568251Y-88684549D01*
X93858529Y-88394777D01*
X94015820Y-88015978D01*
X94016178Y-87605821D01*
X93859549Y-87226749D01*
X93569777Y-86936471D01*
X93190978Y-86779180D01*
X92780821Y-86778822D01*
X92401749Y-86935451D01*
X92111471Y-87225223D01*
X91954180Y-87604022D01*
X91953822Y-88014179D01*
X91475821Y-88014179D01*
X91476178Y-87605821D01*
X91319549Y-87226749D01*
X91029777Y-86936471D01*
X90650978Y-86779180D01*
X90240821Y-86778822D01*
X89861749Y-86935451D01*
X89571471Y-87225223D01*
X89414180Y-87604022D01*
X89413822Y-88014179D01*
X83305821Y-88014179D01*
X83306178Y-87605821D01*
X83149549Y-87226749D01*
X82859777Y-86936471D01*
X82480978Y-86779180D01*
X82070821Y-86778822D01*
X81691749Y-86935451D01*
X81401471Y-87225223D01*
X81244180Y-87604022D01*
X81243822Y-88014179D01*
X81400451Y-88393251D01*
X81690223Y-88683529D01*
X81744000Y-88705859D01*
X81744000Y-89895000D01*
X81784420Y-90098205D01*
X81899526Y-90270474D01*
X82781000Y-91151947D01*
X82781000Y-95538053D01*
X79126526Y-99192526D01*
X79011420Y-99364795D01*
X78971000Y-99568000D01*
X40767000Y-99568000D01*
X40767000Y-95451750D01*
X61087000Y-95451750D01*
X61087000Y-95556250D01*
X61290013Y-96576867D01*
X61868146Y-97442104D01*
X62733383Y-98020237D01*
X63754000Y-98223250D01*
X64774617Y-98020237D01*
X65639854Y-97442104D01*
X65993702Y-96912532D01*
X77642073Y-96912532D01*
X77740736Y-97179387D01*
X78350461Y-97405908D01*
X79000460Y-97381856D01*
X79489264Y-97179387D01*
X79587927Y-96912532D01*
X78615000Y-95939605D01*
X77642073Y-96912532D01*
X65993702Y-96912532D01*
X66217987Y-96576867D01*
X66421000Y-95556250D01*
X66421000Y-95495461D01*
X76969092Y-95495461D01*
X76993144Y-96145460D01*
X77195613Y-96634264D01*
X77462468Y-96732927D01*
X78435395Y-95760000D01*
X78794605Y-95760000D01*
X79767532Y-96732927D01*
X80034387Y-96634264D01*
X80260908Y-96024539D01*
X80236856Y-95374540D01*
X80034387Y-94885736D01*
X79767532Y-94787073D01*
X78794605Y-95760000D01*
X78435395Y-95760000D01*
X77462468Y-94787073D01*
X77195613Y-94885736D01*
X76969092Y-95495461D01*
X66421000Y-95495461D01*
X66421000Y-95451750D01*
X66253063Y-94607468D01*
X77642073Y-94607468D01*
X78615000Y-95580395D01*
X79587927Y-94607468D01*
X79516147Y-94413324D01*
X80244231Y-94715651D01*
X81042268Y-94716348D01*
X81779823Y-94411596D01*
X82344613Y-93847791D01*
X82650651Y-93110769D01*
X82651348Y-92312732D01*
X82346596Y-91575177D01*
X81782791Y-91010387D01*
X81045769Y-90704349D01*
X80247732Y-90703652D01*
X79510177Y-91008404D01*
X78945387Y-91572209D01*
X78639349Y-92309231D01*
X78638652Y-93107268D01*
X78943404Y-93844823D01*
X79408304Y-94310535D01*
X78879539Y-94114092D01*
X78229540Y-94138144D01*
X77740736Y-94340613D01*
X77642073Y-94607468D01*
X66253063Y-94607468D01*
X66217987Y-94431133D01*
X65639854Y-93565896D01*
X64774617Y-92987763D01*
X63754000Y-92784750D01*
X62733383Y-92987763D01*
X61868146Y-93565896D01*
X61290013Y-94431133D01*
X61087000Y-95451750D01*
X40767000Y-95451750D01*
X40767000Y-92668250D01*
X57177940Y-92668250D01*
X57177940Y-92751750D01*
X57340157Y-93567271D01*
X57802113Y-94258637D01*
X58493479Y-94720593D01*
X59309000Y-94882810D01*
X60124521Y-94720593D01*
X60815887Y-94258637D01*
X61277843Y-93567271D01*
X61440060Y-92751750D01*
X61440060Y-92668250D01*
X61277843Y-91852729D01*
X60815887Y-91161363D01*
X60124521Y-90699407D01*
X59309000Y-90537190D01*
X58493479Y-90699407D01*
X57802113Y-91161363D01*
X57340157Y-91852729D01*
X57177940Y-92668250D01*
X40767000Y-92668250D01*
X40767000Y-89442175D01*
X61142685Y-89442175D01*
X61548941Y-90400211D01*
X62290897Y-91129854D01*
X63211826Y-91511309D01*
X63627000Y-91405033D01*
X63627000Y-89027000D01*
X63881000Y-89027000D01*
X63881000Y-91405033D01*
X64296174Y-91511309D01*
X65217103Y-91129854D01*
X65959059Y-90400211D01*
X66365315Y-89442175D01*
X66259230Y-89027000D01*
X63881000Y-89027000D01*
X63627000Y-89027000D01*
X61248770Y-89027000D01*
X61142685Y-89442175D01*
X40767000Y-89442175D01*
X40767000Y-88357825D01*
X61142685Y-88357825D01*
X61248770Y-88773000D01*
X63627000Y-88773000D01*
X63627000Y-86394967D01*
X63881000Y-86394967D01*
X63881000Y-88773000D01*
X66259230Y-88773000D01*
X66365315Y-88357825D01*
X66219592Y-88014179D01*
X78703822Y-88014179D01*
X78860451Y-88393251D01*
X79150223Y-88683529D01*
X79529022Y-88840820D01*
X79939179Y-88841178D01*
X80318251Y-88684549D01*
X80608529Y-88394777D01*
X80765820Y-88015978D01*
X80766178Y-87605821D01*
X80609549Y-87226749D01*
X80319777Y-86936471D01*
X79940978Y-86779180D01*
X79530821Y-86778822D01*
X79151749Y-86935451D01*
X78861471Y-87225223D01*
X78704180Y-87604022D01*
X78703822Y-88014179D01*
X66219592Y-88014179D01*
X65959059Y-87399789D01*
X65224836Y-86677750D01*
X116421000Y-86677750D01*
X116421000Y-87518309D01*
X116517673Y-87751698D01*
X116696301Y-87930327D01*
X116929690Y-88027000D01*
X117570250Y-88027000D01*
X117729000Y-87868250D01*
X117729000Y-86519000D01*
X117983000Y-86519000D01*
X117983000Y-87868250D01*
X118141750Y-88027000D01*
X118782310Y-88027000D01*
X119015699Y-87930327D01*
X119194327Y-87751698D01*
X119291000Y-87518309D01*
X119291000Y-86677750D01*
X119132250Y-86519000D01*
X117983000Y-86519000D01*
X117729000Y-86519000D01*
X116579750Y-86519000D01*
X116421000Y-86677750D01*
X65224836Y-86677750D01*
X65217103Y-86670146D01*
X64296174Y-86288691D01*
X63881000Y-86394967D01*
X63627000Y-86394967D01*
X63211826Y-86288691D01*
X62290897Y-86670146D01*
X61548941Y-87399789D01*
X61142685Y-88357825D01*
X40767000Y-88357825D01*
X40767000Y-85265691D01*
X116421000Y-85265691D01*
X116421000Y-86106250D01*
X116579750Y-86265000D01*
X117729000Y-86265000D01*
X117729000Y-84915750D01*
X117983000Y-84915750D01*
X117983000Y-86265000D01*
X119132250Y-86265000D01*
X119291000Y-86106250D01*
X119291000Y-85265691D01*
X119194327Y-85032302D01*
X119015699Y-84853673D01*
X118934406Y-84820000D01*
X121239536Y-84820000D01*
X121239536Y-86820000D01*
X121266103Y-86961190D01*
X121349546Y-87090865D01*
X121476866Y-87177859D01*
X121628000Y-87208464D01*
X123171106Y-87208464D01*
X123171106Y-88786970D01*
X123197673Y-88928160D01*
X123281116Y-89057835D01*
X123408436Y-89144829D01*
X123559570Y-89175434D01*
X125360430Y-89175434D01*
X125501620Y-89148867D01*
X125631295Y-89065424D01*
X125718289Y-88938104D01*
X125748894Y-88786970D01*
X125748894Y-87189310D01*
X125722327Y-87048120D01*
X125669039Y-86965307D01*
X125698464Y-86820000D01*
X125698464Y-84820000D01*
X125671897Y-84678810D01*
X125588454Y-84549135D01*
X125461134Y-84462141D01*
X125310000Y-84431536D01*
X123610000Y-84431536D01*
X123468810Y-84458103D01*
X123419584Y-84489779D01*
X123379134Y-84462141D01*
X123228000Y-84431536D01*
X121628000Y-84431536D01*
X121486810Y-84458103D01*
X121357135Y-84541546D01*
X121270141Y-84668866D01*
X121239536Y-84820000D01*
X118934406Y-84820000D01*
X118782310Y-84757000D01*
X118141750Y-84757000D01*
X117983000Y-84915750D01*
X117729000Y-84915750D01*
X117570250Y-84757000D01*
X116929690Y-84757000D01*
X116696301Y-84853673D01*
X116517673Y-85032302D01*
X116421000Y-85265691D01*
X40767000Y-85265691D01*
X40767000Y-82105750D01*
X120993000Y-82105750D01*
X120993000Y-82946309D01*
X121089673Y-83179698D01*
X121268301Y-83358327D01*
X121501690Y-83455000D01*
X122142250Y-83455000D01*
X122301000Y-83296250D01*
X122301000Y-81947000D01*
X121151750Y-81947000D01*
X120993000Y-82105750D01*
X40767000Y-82105750D01*
X40767000Y-80693691D01*
X120993000Y-80693691D01*
X120993000Y-81534250D01*
X121151750Y-81693000D01*
X122301000Y-81693000D01*
X122301000Y-80343750D01*
X122555000Y-80343750D01*
X122555000Y-81693000D01*
X122575000Y-81693000D01*
X122575000Y-81947000D01*
X122555000Y-81947000D01*
X122555000Y-83296250D01*
X122713750Y-83455000D01*
X123354310Y-83455000D01*
X123587699Y-83358327D01*
X123737561Y-83208464D01*
X125310000Y-83208464D01*
X125451190Y-83181897D01*
X125580865Y-83098454D01*
X125667859Y-82971134D01*
X125698464Y-82820000D01*
X125698464Y-82401000D01*
X125775342Y-82401000D01*
X127292015Y-83917673D01*
X127291975Y-83963361D01*
X127401950Y-84229521D01*
X127605408Y-84433335D01*
X127871376Y-84543774D01*
X128159361Y-84544025D01*
X128425521Y-84434050D01*
X128629335Y-84230592D01*
X128739774Y-83964624D01*
X128740025Y-83676639D01*
X128630050Y-83410479D01*
X128426592Y-83206665D01*
X128160624Y-83096226D01*
X128113843Y-83096185D01*
X126426829Y-81409171D01*
X126238339Y-81283226D01*
X126016000Y-81239000D01*
X125698464Y-81239000D01*
X125698464Y-80820000D01*
X125671897Y-80678810D01*
X125588454Y-80549135D01*
X125461134Y-80462141D01*
X125310000Y-80431536D01*
X123737561Y-80431536D01*
X123587699Y-80281673D01*
X123354310Y-80185000D01*
X122713750Y-80185000D01*
X122555000Y-80343750D01*
X122301000Y-80343750D01*
X122142250Y-80185000D01*
X121501690Y-80185000D01*
X121268301Y-80281673D01*
X121089673Y-80460302D01*
X120993000Y-80693691D01*
X40767000Y-80693691D01*
X40767000Y-78867000D01*
X139573000Y-78867000D01*
X139573000Y-177673000D01*
X139573000Y-177673000D01*
G37*
X139573000Y-177673000D02*
X40767000Y-177673000D01*
X40767000Y-170539026D01*
X81577642Y-170539026D01*
X81580291Y-170554791D01*
X81834268Y-171082036D01*
X82270680Y-171471954D01*
X82543243Y-171567296D01*
X82528943Y-171570140D01*
X82125166Y-171839935D01*
X81855371Y-172243712D01*
X81760631Y-172720000D01*
X81855371Y-173196288D01*
X82125166Y-173600065D01*
X82528943Y-173869860D01*
X83005231Y-173964600D01*
X83364769Y-173964600D01*
X83841057Y-173869860D01*
X84244834Y-173600065D01*
X84514629Y-173196288D01*
X84609369Y-172720000D01*
X84514629Y-172243712D01*
X84244834Y-171839935D01*
X84070567Y-171723493D01*
X96408761Y-171723493D01*
X96618563Y-172231251D01*
X97006705Y-172620072D01*
X97514097Y-172830759D01*
X98063493Y-172831239D01*
X98571251Y-172621437D01*
X98695000Y-172497904D01*
X98695000Y-172576309D01*
X98791673Y-172809698D01*
X98970301Y-172988327D01*
X99203690Y-173085000D01*
X100044250Y-173085000D01*
X100203000Y-172926250D01*
X100203000Y-171577000D01*
X100457000Y-171577000D01*
X100457000Y-172926250D01*
X100615750Y-173085000D01*
X101456310Y-173085000D01*
X101689699Y-172988327D01*
X101868327Y-172809698D01*
X101905481Y-172720000D01*
X106681017Y-172720000D01*
X106775757Y-173196288D01*
X107045552Y-173600065D01*
X107449329Y-173869860D01*
X107925617Y-173964600D01*
X107974383Y-173964600D01*
X108450671Y-173869860D01*
X108854448Y-173600065D01*
X109124243Y-173196288D01*
X109218983Y-172720000D01*
X109221017Y-172720000D01*
X109315757Y-173196288D01*
X109585552Y-173600065D01*
X109989329Y-173869860D01*
X110465617Y-173964600D01*
X110514383Y-173964600D01*
X110990671Y-173869860D01*
X111394448Y-173600065D01*
X111664243Y-173196288D01*
X111758983Y-172720000D01*
X111664243Y-172243712D01*
X111394448Y-171839935D01*
X110990671Y-171570140D01*
X110514383Y-171475400D01*
X110465617Y-171475400D01*
X109989329Y-171570140D01*
X109585552Y-171839935D01*
X109315757Y-172243712D01*
X109221017Y-172720000D01*
X109218983Y-172720000D01*
X109124243Y-172243712D01*
X108854448Y-171839935D01*
X108450671Y-171570140D01*
X107974383Y-171475400D01*
X107925617Y-171475400D01*
X107449329Y-171570140D01*
X107045552Y-171839935D01*
X106775757Y-172243712D01*
X106681017Y-172720000D01*
X101905481Y-172720000D01*
X101965000Y-172576309D01*
X101965000Y-171735750D01*
X101806250Y-171577000D01*
X100457000Y-171577000D01*
X100203000Y-171577000D01*
X100183000Y-171577000D01*
X100183000Y-171323000D01*
X100203000Y-171323000D01*
X100203000Y-169973750D01*
X100457000Y-169973750D01*
X100457000Y-171323000D01*
X101806250Y-171323000D01*
X101965000Y-171164250D01*
X101965000Y-170323691D01*
X101905482Y-170180000D01*
X106681017Y-170180000D01*
X106775757Y-170656288D01*
X107045552Y-171060065D01*
X107449329Y-171329860D01*
X107925617Y-171424600D01*
X107974383Y-171424600D01*
X108450671Y-171329860D01*
X108854448Y-171060065D01*
X109124243Y-170656288D01*
X109218983Y-170180000D01*
X109221017Y-170180000D01*
X109315757Y-170656288D01*
X109585552Y-171060065D01*
X109989329Y-171329860D01*
X110465617Y-171424600D01*
X110514383Y-171424600D01*
X110990671Y-171329860D01*
X111394448Y-171060065D01*
X111664243Y-170656288D01*
X111758983Y-170180000D01*
X111664243Y-169703712D01*
X111394448Y-169299935D01*
X110990671Y-169030140D01*
X110514383Y-168935400D01*
X110465617Y-168935400D01*
X109989329Y-169030140D01*
X109585552Y-169299935D01*
X109315757Y-169703712D01*
X109221017Y-170180000D01*
X109218983Y-170180000D01*
X109124243Y-169703712D01*
X108854448Y-169299935D01*
X108450671Y-169030140D01*
X107974383Y-168935400D01*
X107925617Y-168935400D01*
X107449329Y-169030140D01*
X107045552Y-169299935D01*
X106775757Y-169703712D01*
X106681017Y-170180000D01*
X101905482Y-170180000D01*
X101868327Y-170090302D01*
X101689699Y-169911673D01*
X101456310Y-169815000D01*
X100615750Y-169815000D01*
X100457000Y-169973750D01*
X100203000Y-169973750D01*
X100044250Y-169815000D01*
X99203690Y-169815000D01*
X98970301Y-169911673D01*
X98791673Y-170090302D01*
X98695000Y-170323691D01*
X98695000Y-170401846D01*
X98573295Y-170279928D01*
X98065903Y-170069241D01*
X97516507Y-170068761D01*
X97008749Y-170278563D01*
X96619928Y-170666705D01*
X96409241Y-171174097D01*
X96408761Y-171723493D01*
X84070567Y-171723493D01*
X83841057Y-171570140D01*
X83826757Y-171567296D01*
X84099320Y-171471954D01*
X84535732Y-171082036D01*
X84789709Y-170554791D01*
X84792358Y-170539026D01*
X84671217Y-170307000D01*
X83312000Y-170307000D01*
X83312000Y-170327000D01*
X83058000Y-170327000D01*
X83058000Y-170307000D01*
X81698783Y-170307000D01*
X81577642Y-170539026D01*
X40767000Y-170539026D01*
X40767000Y-169820974D01*
X81577642Y-169820974D01*
X81698783Y-170053000D01*
X83058000Y-170053000D01*
X83058000Y-170033000D01*
X83312000Y-170033000D01*
X83312000Y-170053000D01*
X84671217Y-170053000D01*
X84792358Y-169820974D01*
X84789709Y-169805209D01*
X84535732Y-169277964D01*
X84099320Y-168888046D01*
X83826757Y-168792704D01*
X83841057Y-168789860D01*
X84244834Y-168520065D01*
X84514629Y-168116288D01*
X84609369Y-167640000D01*
X106681017Y-167640000D01*
X106775757Y-168116288D01*
X107045552Y-168520065D01*
X107449329Y-168789860D01*
X107925617Y-168884600D01*
X107974383Y-168884600D01*
X108450671Y-168789860D01*
X108854448Y-168520065D01*
X109124243Y-168116288D01*
X109218983Y-167640000D01*
X109221017Y-167640000D01*
X109315757Y-168116288D01*
X109585552Y-168520065D01*
X109989329Y-168789860D01*
X110465617Y-168884600D01*
X110514383Y-168884600D01*
X110990671Y-168789860D01*
X111394448Y-168520065D01*
X111664243Y-168116288D01*
X111758983Y-167640000D01*
X111664243Y-167163712D01*
X111394448Y-166759935D01*
X110990671Y-166490140D01*
X110514383Y-166395400D01*
X110465617Y-166395400D01*
X109989329Y-166490140D01*
X109585552Y-166759935D01*
X109315757Y-167163712D01*
X109221017Y-167640000D01*
X109218983Y-167640000D01*
X109124243Y-167163712D01*
X108854448Y-166759935D01*
X108450671Y-166490140D01*
X107974383Y-166395400D01*
X107925617Y-166395400D01*
X107449329Y-166490140D01*
X107045552Y-166759935D01*
X106775757Y-167163712D01*
X106681017Y-167640000D01*
X84609369Y-167640000D01*
X84514629Y-167163712D01*
X84244834Y-166759935D01*
X83841057Y-166490140D01*
X83364769Y-166395400D01*
X83005231Y-166395400D01*
X82528943Y-166490140D01*
X82125166Y-166759935D01*
X81855371Y-167163712D01*
X81760631Y-167640000D01*
X81855371Y-168116288D01*
X82125166Y-168520065D01*
X82528943Y-168789860D01*
X82543243Y-168792704D01*
X82270680Y-168888046D01*
X81834268Y-169277964D01*
X81580291Y-169805209D01*
X81577642Y-169820974D01*
X40767000Y-169820974D01*
X40767000Y-162845750D01*
X81534000Y-162845750D01*
X81534000Y-163549910D01*
X81630673Y-163783299D01*
X81809302Y-163961927D01*
X82042691Y-164058600D01*
X82366621Y-164058600D01*
X82125166Y-164219935D01*
X81855371Y-164623712D01*
X81760631Y-165100000D01*
X81855371Y-165576288D01*
X82125166Y-165980065D01*
X82528943Y-166249860D01*
X83005231Y-166344600D01*
X83364769Y-166344600D01*
X83841057Y-166249860D01*
X84244834Y-165980065D01*
X84514629Y-165576288D01*
X84609369Y-165100000D01*
X106681017Y-165100000D01*
X106775757Y-165576288D01*
X107045552Y-165980065D01*
X107449329Y-166249860D01*
X107925617Y-166344600D01*
X107974383Y-166344600D01*
X108450671Y-166249860D01*
X108854448Y-165980065D01*
X109124243Y-165576288D01*
X109218983Y-165100000D01*
X109221017Y-165100000D01*
X109315757Y-165576288D01*
X109585552Y-165980065D01*
X109989329Y-166249860D01*
X110465617Y-166344600D01*
X110514383Y-166344600D01*
X110990671Y-166249860D01*
X111394448Y-165980065D01*
X111664243Y-165576288D01*
X111758983Y-165100000D01*
X111664243Y-164623712D01*
X111394448Y-164219935D01*
X110990671Y-163950140D01*
X110514383Y-163855400D01*
X110465617Y-163855400D01*
X109989329Y-163950140D01*
X109585552Y-164219935D01*
X109315757Y-164623712D01*
X109221017Y-165100000D01*
X109218983Y-165100000D01*
X109124243Y-164623712D01*
X108854448Y-164219935D01*
X108450671Y-163950140D01*
X107974383Y-163855400D01*
X107925617Y-163855400D01*
X107449329Y-163950140D01*
X107045552Y-164219935D01*
X106775757Y-164623712D01*
X106681017Y-165100000D01*
X84609369Y-165100000D01*
X84514629Y-164623712D01*
X84244834Y-164219935D01*
X84003379Y-164058600D01*
X84327309Y-164058600D01*
X84560698Y-163961927D01*
X84739327Y-163783299D01*
X84836000Y-163549910D01*
X84836000Y-162845750D01*
X84677250Y-162687000D01*
X83312000Y-162687000D01*
X83312000Y-162707000D01*
X83058000Y-162707000D01*
X83058000Y-162687000D01*
X81692750Y-162687000D01*
X81534000Y-162845750D01*
X40767000Y-162845750D01*
X40767000Y-162560000D01*
X106681017Y-162560000D01*
X106775757Y-163036288D01*
X107045552Y-163440065D01*
X107449329Y-163709860D01*
X107925617Y-163804600D01*
X107974383Y-163804600D01*
X108450671Y-163709860D01*
X108854448Y-163440065D01*
X109124243Y-163036288D01*
X109218983Y-162560000D01*
X109221017Y-162560000D01*
X109315757Y-163036288D01*
X109585552Y-163440065D01*
X109989329Y-163709860D01*
X110465617Y-163804600D01*
X110514383Y-163804600D01*
X110990671Y-163709860D01*
X111394448Y-163440065D01*
X111664243Y-163036288D01*
X111758983Y-162560000D01*
X111664243Y-162083712D01*
X111394448Y-161679935D01*
X110990671Y-161410140D01*
X110514383Y-161315400D01*
X110465617Y-161315400D01*
X109989329Y-161410140D01*
X109585552Y-161679935D01*
X109315757Y-162083712D01*
X109221017Y-162560000D01*
X109218983Y-162560000D01*
X109124243Y-162083712D01*
X108854448Y-161679935D01*
X108450671Y-161410140D01*
X107974383Y-161315400D01*
X107925617Y-161315400D01*
X107449329Y-161410140D01*
X107045552Y-161679935D01*
X106775757Y-162083712D01*
X106681017Y-162560000D01*
X40767000Y-162560000D01*
X40767000Y-161570090D01*
X81534000Y-161570090D01*
X81534000Y-162274250D01*
X81692750Y-162433000D01*
X83058000Y-162433000D01*
X83058000Y-161220150D01*
X83312000Y-161220150D01*
X83312000Y-162433000D01*
X84677250Y-162433000D01*
X84836000Y-162274250D01*
X84836000Y-161570090D01*
X84739327Y-161336701D01*
X84560698Y-161158073D01*
X84327309Y-161061400D01*
X83470750Y-161061400D01*
X83312000Y-161220150D01*
X83058000Y-161220150D01*
X82899250Y-161061400D01*
X82042691Y-161061400D01*
X81809302Y-161158073D01*
X81630673Y-161336701D01*
X81534000Y-161570090D01*
X40767000Y-161570090D01*
X40767000Y-160020000D01*
X106681017Y-160020000D01*
X106775757Y-160496288D01*
X107045552Y-160900065D01*
X107449329Y-161169860D01*
X107925617Y-161264600D01*
X107974383Y-161264600D01*
X108450671Y-161169860D01*
X108854448Y-160900065D01*
X109124243Y-160496288D01*
X109218983Y-160020000D01*
X109124243Y-159543712D01*
X108854448Y-159139935D01*
X108450671Y-158870140D01*
X107974383Y-158775400D01*
X107925617Y-158775400D01*
X107449329Y-158870140D01*
X107045552Y-159139935D01*
X106775757Y-159543712D01*
X106681017Y-160020000D01*
X40767000Y-160020000D01*
X40767000Y-156180772D01*
X58309510Y-156180772D01*
X58309510Y-157255228D01*
X58414594Y-157783519D01*
X58713846Y-158231382D01*
X59161709Y-158530634D01*
X59690000Y-158635718D01*
X60218291Y-158530634D01*
X60666154Y-158231382D01*
X60965406Y-157783519D01*
X61070490Y-157255228D01*
X61070490Y-156180772D01*
X60965406Y-155652481D01*
X60923375Y-155589577D01*
X60986795Y-155639471D01*
X61602620Y-155812490D01*
X62103000Y-155812490D01*
X62103000Y-154305000D01*
X62357000Y-154305000D01*
X62357000Y-155812490D01*
X62857380Y-155812490D01*
X63473205Y-155639471D01*
X63975942Y-155243956D01*
X64289053Y-154686159D01*
X64319999Y-154558354D01*
X64200645Y-154305000D01*
X62357000Y-154305000D01*
X62103000Y-154305000D01*
X60259355Y-154305000D01*
X60140001Y-154558354D01*
X60170947Y-154686159D01*
X60339432Y-154986310D01*
X60218291Y-154905366D01*
X59690000Y-154800282D01*
X59161709Y-154905366D01*
X58713846Y-155204618D01*
X58414594Y-155652481D01*
X58309510Y-156180772D01*
X40767000Y-156180772D01*
X40767000Y-154178000D01*
X55232282Y-154178000D01*
X55337366Y-154706291D01*
X55636618Y-155154154D01*
X56084481Y-155453406D01*
X56612772Y-155558490D01*
X57687228Y-155558490D01*
X58215519Y-155453406D01*
X58663382Y-155154154D01*
X58962634Y-154706291D01*
X59067718Y-154178000D01*
X58992061Y-153797646D01*
X60140001Y-153797646D01*
X60259355Y-154051000D01*
X62103000Y-154051000D01*
X62103000Y-152543510D01*
X62357000Y-152543510D01*
X62357000Y-154051000D01*
X64200645Y-154051000D01*
X64319999Y-153797646D01*
X64289053Y-153669841D01*
X63975942Y-153112044D01*
X63473205Y-152716529D01*
X62857380Y-152543510D01*
X62357000Y-152543510D01*
X62103000Y-152543510D01*
X61602620Y-152543510D01*
X60986795Y-152716529D01*
X60484058Y-153112044D01*
X60170947Y-153669841D01*
X60140001Y-153797646D01*
X58992061Y-153797646D01*
X58962634Y-153649709D01*
X58663382Y-153201846D01*
X58215519Y-152902594D01*
X57687228Y-152797510D01*
X56612772Y-152797510D01*
X56084481Y-152902594D01*
X55636618Y-153201846D01*
X55337366Y-153649709D01*
X55232282Y-154178000D01*
X40767000Y-154178000D01*
X40767000Y-151527361D01*
X86651975Y-151527361D01*
X86761950Y-151793521D01*
X86965408Y-151997335D01*
X87231376Y-152107774D01*
X87519361Y-152108025D01*
X87785521Y-151998050D01*
X87818629Y-151965000D01*
X94247342Y-151965000D01*
X98141171Y-155858829D01*
X98329661Y-155984774D01*
X98552000Y-156029000D01*
X109385175Y-156029000D01*
X109266702Y-156078073D01*
X109088073Y-156256701D01*
X108991400Y-156490090D01*
X108991400Y-156804898D01*
X108854448Y-156599935D01*
X108450671Y-156330140D01*
X107974383Y-156235400D01*
X107925617Y-156235400D01*
X107449329Y-156330140D01*
X107045552Y-156599935D01*
X106775757Y-157003712D01*
X106681017Y-157480000D01*
X106775757Y-157956288D01*
X107045552Y-158360065D01*
X107449329Y-158629860D01*
X107925617Y-158724600D01*
X107974383Y-158724600D01*
X108365795Y-158646743D01*
X108844526Y-159125474D01*
X109016795Y-159240580D01*
X109220000Y-159281000D01*
X109491295Y-159281000D01*
X109315757Y-159543712D01*
X109221017Y-160020000D01*
X109315757Y-160496288D01*
X109585552Y-160900065D01*
X109989329Y-161169860D01*
X110465617Y-161264600D01*
X110514383Y-161264600D01*
X110990671Y-161169860D01*
X111394448Y-160900065D01*
X111664243Y-160496288D01*
X111758983Y-160020000D01*
X111748040Y-159964988D01*
X118087000Y-166303948D01*
X118087000Y-169418000D01*
X118127420Y-169621205D01*
X118242526Y-169793474D01*
X120681333Y-172232281D01*
X120589231Y-172454086D01*
X120588769Y-172983591D01*
X120790975Y-173472966D01*
X121165065Y-173847709D01*
X121654086Y-174050769D01*
X122183591Y-174051231D01*
X122672966Y-173849025D01*
X122685663Y-173836350D01*
X136223255Y-173836350D01*
X136315792Y-174098019D01*
X136907398Y-174316188D01*
X137537461Y-174291352D01*
X138004208Y-174098019D01*
X138096745Y-173836350D01*
X137160000Y-172899605D01*
X136223255Y-173836350D01*
X122685663Y-173836350D01*
X123047709Y-173474935D01*
X123250769Y-172985914D01*
X123251221Y-172467398D01*
X135563812Y-172467398D01*
X135588648Y-173097461D01*
X135781981Y-173564208D01*
X136043650Y-173656745D01*
X136980395Y-172720000D01*
X137339605Y-172720000D01*
X138276350Y-173656745D01*
X138538019Y-173564208D01*
X138756188Y-172972602D01*
X138731352Y-172342539D01*
X138538019Y-171875792D01*
X138276350Y-171783255D01*
X137339605Y-172720000D01*
X136980395Y-172720000D01*
X136043650Y-171783255D01*
X135781981Y-171875792D01*
X135563812Y-172467398D01*
X123251221Y-172467398D01*
X123251231Y-172456409D01*
X123049025Y-171967034D01*
X122674935Y-171592291D01*
X122332022Y-171449901D01*
X122672966Y-171309025D01*
X123047709Y-170934935D01*
X123250769Y-170445914D01*
X123251231Y-169916409D01*
X123049025Y-169427034D01*
X122674935Y-169052291D01*
X122185914Y-168849231D01*
X121656409Y-168848769D01*
X121167034Y-169050975D01*
X120792291Y-169425065D01*
X120589231Y-169914086D01*
X120588769Y-170443591D01*
X120725533Y-170774585D01*
X119149000Y-169198052D01*
X119149000Y-167834277D01*
X120938830Y-167834277D01*
X121087864Y-168194966D01*
X121363583Y-168471166D01*
X121724011Y-168620829D01*
X122114277Y-168621170D01*
X122474966Y-168472136D01*
X122751166Y-168196417D01*
X122900829Y-167835989D01*
X122901170Y-167445723D01*
X122752136Y-167085034D01*
X122476417Y-166808834D01*
X122115989Y-166659171D01*
X121725723Y-166658830D01*
X121365034Y-166807864D01*
X121088834Y-167083583D01*
X120939171Y-167444011D01*
X120938830Y-167834277D01*
X119149000Y-167834277D01*
X119149000Y-166084000D01*
X119108580Y-165880795D01*
X118993474Y-165708526D01*
X111920138Y-158635190D01*
X111988600Y-158469910D01*
X111988600Y-157765750D01*
X111829850Y-157607000D01*
X110617000Y-157607000D01*
X110617000Y-157627000D01*
X110363000Y-157627000D01*
X110363000Y-157607000D01*
X110343000Y-157607000D01*
X110343000Y-157353000D01*
X110363000Y-157353000D01*
X110363000Y-157333000D01*
X110617000Y-157333000D01*
X110617000Y-157353000D01*
X111829850Y-157353000D01*
X111988600Y-157194250D01*
X111988600Y-156490090D01*
X111891927Y-156256701D01*
X111713298Y-156078073D01*
X111594825Y-156029000D01*
X111773342Y-156029000D01*
X118715171Y-162970829D01*
X118903661Y-163096774D01*
X119126000Y-163141000D01*
X120719920Y-163141000D01*
X120790975Y-163312966D01*
X121165065Y-163687709D01*
X121507978Y-163830099D01*
X121167034Y-163970975D01*
X120792291Y-164345065D01*
X120589231Y-164834086D01*
X120588769Y-165363591D01*
X120790975Y-165852966D01*
X121165065Y-166227709D01*
X121654086Y-166430769D01*
X122183591Y-166431231D01*
X122672966Y-166229025D01*
X123047709Y-165854935D01*
X123250769Y-165365914D01*
X123251231Y-164836409D01*
X123232901Y-164792047D01*
X129407471Y-158617476D01*
X129407474Y-158617474D01*
X129522580Y-158445205D01*
X129536639Y-158374526D01*
X129563001Y-158242000D01*
X129563000Y-158241995D01*
X129563000Y-149890797D01*
X129637408Y-149965335D01*
X129903376Y-150075774D01*
X130191361Y-150076025D01*
X130457521Y-149966050D01*
X130661335Y-149762592D01*
X130771774Y-149496624D01*
X130772025Y-149208639D01*
X130662050Y-148942479D01*
X130579000Y-148859284D01*
X130579000Y-139963591D01*
X135828769Y-139963591D01*
X136030975Y-140452966D01*
X136405065Y-140827709D01*
X136747978Y-140970099D01*
X136407034Y-141110975D01*
X136032291Y-141485065D01*
X135829231Y-141974086D01*
X135828769Y-142503591D01*
X136030975Y-142992966D01*
X136405065Y-143367709D01*
X136747978Y-143510099D01*
X136407034Y-143650975D01*
X136032291Y-144025065D01*
X135829231Y-144514086D01*
X135828769Y-145043591D01*
X136030975Y-145532966D01*
X136405065Y-145907709D01*
X136747978Y-146050099D01*
X136407034Y-146190975D01*
X136032291Y-146565065D01*
X135829231Y-147054086D01*
X135828769Y-147583591D01*
X136030975Y-148072966D01*
X136405065Y-148447709D01*
X136747978Y-148590099D01*
X136407034Y-148730975D01*
X136032291Y-149105065D01*
X135829231Y-149594086D01*
X135828769Y-150123591D01*
X136030975Y-150612966D01*
X136405065Y-150987709D01*
X136747978Y-151130099D01*
X136407034Y-151270975D01*
X136032291Y-151645065D01*
X135829231Y-152134086D01*
X135828769Y-152663591D01*
X136030975Y-153152966D01*
X136405065Y-153527709D01*
X136747978Y-153670099D01*
X136407034Y-153810975D01*
X136032291Y-154185065D01*
X135829231Y-154674086D01*
X135828769Y-155203591D01*
X136030975Y-155692966D01*
X136405065Y-156067709D01*
X136747978Y-156210099D01*
X136407034Y-156350975D01*
X136032291Y-156725065D01*
X135829231Y-157214086D01*
X135828769Y-157743591D01*
X136030975Y-158232966D01*
X136405065Y-158607709D01*
X136747978Y-158750099D01*
X136407034Y-158890975D01*
X136032291Y-159265065D01*
X135829231Y-159754086D01*
X135828769Y-160283591D01*
X136030975Y-160772966D01*
X136405065Y-161147709D01*
X136747978Y-161290099D01*
X136407034Y-161430975D01*
X136032291Y-161805065D01*
X135829231Y-162294086D01*
X135828769Y-162823591D01*
X136030975Y-163312966D01*
X136405065Y-163687709D01*
X136747978Y-163830099D01*
X136407034Y-163970975D01*
X136032291Y-164345065D01*
X135829231Y-164834086D01*
X135828769Y-165363591D01*
X136030975Y-165852966D01*
X136405065Y-166227709D01*
X136747978Y-166370099D01*
X136407034Y-166510975D01*
X136032291Y-166885065D01*
X135829231Y-167374086D01*
X135828769Y-167903591D01*
X136030975Y-168392966D01*
X136405065Y-168767709D01*
X136747978Y-168910099D01*
X136407034Y-169050975D01*
X136032291Y-169425065D01*
X135829231Y-169914086D01*
X135828769Y-170443591D01*
X136030975Y-170932966D01*
X136403154Y-171305795D01*
X136315792Y-171341981D01*
X136223255Y-171603650D01*
X137160000Y-172540395D01*
X138096745Y-171603650D01*
X138004208Y-171341981D01*
X137913472Y-171308520D01*
X138287709Y-170934935D01*
X138490769Y-170445914D01*
X138491231Y-169916409D01*
X138289025Y-169427034D01*
X137914935Y-169052291D01*
X137572022Y-168909901D01*
X137912966Y-168769025D01*
X138287709Y-168394935D01*
X138490769Y-167905914D01*
X138491231Y-167376409D01*
X138289025Y-166887034D01*
X137914935Y-166512291D01*
X137572022Y-166369901D01*
X137912966Y-166229025D01*
X138287709Y-165854935D01*
X138490769Y-165365914D01*
X138491231Y-164836409D01*
X138289025Y-164347034D01*
X137914935Y-163972291D01*
X137572022Y-163829901D01*
X137912966Y-163689025D01*
X138287709Y-163314935D01*
X138490769Y-162825914D01*
X138491231Y-162296409D01*
X138289025Y-161807034D01*
X137914935Y-161432291D01*
X137572022Y-161289901D01*
X137912966Y-161149025D01*
X138287709Y-160774935D01*
X138490769Y-160285914D01*
X138491231Y-159756409D01*
X138289025Y-159267034D01*
X137914935Y-158892291D01*
X137572022Y-158749901D01*
X137912966Y-158609025D01*
X138287709Y-158234935D01*
X138490769Y-157745914D01*
X138491231Y-157216409D01*
X138289025Y-156727034D01*
X137914935Y-156352291D01*
X137572022Y-156209901D01*
X137912966Y-156069025D01*
X138287709Y-155694935D01*
X138490769Y-155205914D01*
X138491231Y-154676409D01*
X138289025Y-154187034D01*
X137914935Y-153812291D01*
X137572022Y-153669901D01*
X137912966Y-153529025D01*
X138287709Y-153154935D01*
X138490769Y-152665914D01*
X138491231Y-152136409D01*
X138289025Y-151647034D01*
X137914935Y-151272291D01*
X137572022Y-151129901D01*
X137912966Y-150989025D01*
X138287709Y-150614935D01*
X138490769Y-150125914D01*
X138491231Y-149596409D01*
X138289025Y-149107034D01*
X137914935Y-148732291D01*
X137572022Y-148589901D01*
X137912966Y-148449025D01*
X138287709Y-148074935D01*
X138490769Y-147585914D01*
X138491231Y-147056409D01*
X138289025Y-146567034D01*
X137914935Y-146192291D01*
X137572022Y-146049901D01*
X137912966Y-145909025D01*
X138287709Y-145534935D01*
X138490769Y-145045914D01*
X138491231Y-144516409D01*
X138289025Y-144027034D01*
X137914935Y-143652291D01*
X137572022Y-143509901D01*
X137912966Y-143369025D01*
X138287709Y-142994935D01*
X138490769Y-142505914D01*
X138491231Y-141976409D01*
X138289025Y-141487034D01*
X137914935Y-141112291D01*
X137572022Y-140969901D01*
X137912966Y-140829025D01*
X138287709Y-140454935D01*
X138490769Y-139965914D01*
X138491231Y-139436409D01*
X138289025Y-138947034D01*
X137914935Y-138572291D01*
X137425914Y-138369231D01*
X136896409Y-138368769D01*
X136407034Y-138570975D01*
X136032291Y-138945065D01*
X135829231Y-139434086D01*
X135828769Y-139963591D01*
X130579000Y-139963591D01*
X130579000Y-129524783D01*
X130661335Y-129442592D01*
X130771774Y-129176624D01*
X130772025Y-128888639D01*
X130662050Y-128622479D01*
X130458592Y-128418665D01*
X130192624Y-128308226D01*
X129904639Y-128307975D01*
X129638479Y-128417950D01*
X129563000Y-128493297D01*
X129563000Y-123698000D01*
X129522580Y-123494795D01*
X129407474Y-123322526D01*
X129407471Y-123322524D01*
X129055000Y-122970052D01*
X129055000Y-115459361D01*
X130339975Y-115459361D01*
X130449950Y-115725521D01*
X130483000Y-115758629D01*
X130483000Y-124142524D01*
X130411226Y-124315376D01*
X130410975Y-124603361D01*
X130520950Y-124869521D01*
X130724408Y-125073335D01*
X130990376Y-125183774D01*
X131278361Y-125184025D01*
X131544521Y-125074050D01*
X131748335Y-124870592D01*
X131858774Y-124604624D01*
X131859025Y-124316639D01*
X131749050Y-124050479D01*
X131645000Y-123946247D01*
X131645000Y-115758871D01*
X131677335Y-115726592D01*
X131787774Y-115460624D01*
X131788025Y-115172639D01*
X131678050Y-114906479D01*
X131474592Y-114702665D01*
X131208624Y-114592226D01*
X130920639Y-114591975D01*
X130654479Y-114701950D01*
X130450665Y-114905408D01*
X130340226Y-115171376D01*
X130339975Y-115459361D01*
X129055000Y-115459361D01*
X129055000Y-107188005D01*
X129055001Y-107188000D01*
X129014580Y-106984795D01*
X128899474Y-106812526D01*
X121787474Y-99700526D01*
X121615205Y-99585420D01*
X121412000Y-99545000D01*
X118075947Y-99545000D01*
X115847000Y-97316052D01*
X115847000Y-92486797D01*
X115921408Y-92561335D01*
X116187376Y-92671774D01*
X116475361Y-92672025D01*
X116741521Y-92562050D01*
X116945335Y-92358592D01*
X117055774Y-92092624D01*
X117056025Y-91804639D01*
X117045126Y-91778262D01*
X117056000Y-91780464D01*
X118656000Y-91780464D01*
X118656025Y-91780459D01*
X118655975Y-91837361D01*
X118765950Y-92103521D01*
X118969408Y-92307335D01*
X119235376Y-92417774D01*
X119523361Y-92418025D01*
X119789521Y-92308050D01*
X119993335Y-92104592D01*
X120086190Y-91880971D01*
X120086526Y-91881474D01*
X120688076Y-92483024D01*
X120687975Y-92599361D01*
X120797950Y-92865521D01*
X121001408Y-93069335D01*
X121267376Y-93179774D01*
X121314157Y-93179815D01*
X122863000Y-94728658D01*
X122863000Y-96012000D01*
X122907226Y-96234339D01*
X123033171Y-96422829D01*
X123736015Y-97125673D01*
X123735975Y-97171361D01*
X123845950Y-97437521D01*
X124049408Y-97641335D01*
X124315376Y-97751774D01*
X124603361Y-97752025D01*
X124869521Y-97642050D01*
X125073335Y-97438592D01*
X125183774Y-97172624D01*
X125184025Y-96884639D01*
X125074050Y-96618479D01*
X124870592Y-96414665D01*
X124604624Y-96304226D01*
X124557843Y-96304185D01*
X124025000Y-95771342D01*
X124025000Y-95139361D01*
X125767975Y-95139361D01*
X125877950Y-95405521D01*
X126081408Y-95609335D01*
X126347376Y-95719774D01*
X126464928Y-95719876D01*
X136883000Y-106137947D01*
X136883000Y-115839217D01*
X136800665Y-115921408D01*
X136690226Y-116187376D01*
X136689975Y-116475361D01*
X136799950Y-116741521D01*
X137003408Y-116945335D01*
X137269376Y-117055774D01*
X137557361Y-117056025D01*
X137823521Y-116946050D01*
X138027335Y-116742592D01*
X138137774Y-116476624D01*
X138138025Y-116188639D01*
X138028050Y-115922479D01*
X137945000Y-115839284D01*
X137945000Y-105918005D01*
X137945001Y-105918000D01*
X137904580Y-105714796D01*
X137904580Y-105714795D01*
X137789474Y-105542526D01*
X137789471Y-105542524D01*
X127215924Y-94968976D01*
X127216025Y-94852639D01*
X127106050Y-94586479D01*
X126902592Y-94382665D01*
X126636624Y-94272226D01*
X126348639Y-94271975D01*
X126082479Y-94381950D01*
X125878665Y-94585408D01*
X125768226Y-94851376D01*
X125767975Y-95139361D01*
X124025000Y-95139361D01*
X124025000Y-94488000D01*
X123980774Y-94265661D01*
X123854829Y-94077171D01*
X122135985Y-92358327D01*
X122136025Y-92312639D01*
X122026050Y-92046479D01*
X121822592Y-91842665D01*
X121556624Y-91732226D01*
X121439072Y-91732124D01*
X120993000Y-91286052D01*
X120993000Y-91285325D01*
X121110866Y-91365859D01*
X121262000Y-91396464D01*
X121562000Y-91396464D01*
X121703190Y-91369897D01*
X121832865Y-91286454D01*
X121919859Y-91159134D01*
X121950464Y-91008000D01*
X121950464Y-90944128D01*
X121962000Y-90946464D01*
X122762000Y-90946464D01*
X122801667Y-90939000D01*
X123171106Y-90939000D01*
X123171106Y-91626690D01*
X123197673Y-91767880D01*
X123281116Y-91897555D01*
X123408436Y-91984549D01*
X123559570Y-92015154D01*
X125360430Y-92015154D01*
X125501620Y-91988587D01*
X125631295Y-91905144D01*
X125718289Y-91777824D01*
X125748894Y-91626690D01*
X125748894Y-90029030D01*
X125722327Y-89887840D01*
X125638884Y-89758165D01*
X125511564Y-89671171D01*
X125360430Y-89640566D01*
X123559570Y-89640566D01*
X123418380Y-89667133D01*
X123378374Y-89692876D01*
X123397000Y-89674250D01*
X123397000Y-89631691D01*
X123300327Y-89398302D01*
X123148248Y-89246222D01*
X123130957Y-89154330D01*
X123150464Y-89058000D01*
X123150464Y-88758000D01*
X123123897Y-88616810D01*
X123040454Y-88487135D01*
X122913134Y-88400141D01*
X122762000Y-88369536D01*
X121962000Y-88369536D01*
X121950464Y-88371707D01*
X121950464Y-88308000D01*
X121923897Y-88166810D01*
X121840454Y-88037135D01*
X121713134Y-87950141D01*
X121562000Y-87919536D01*
X121262000Y-87919536D01*
X121120810Y-87946103D01*
X120991135Y-88029546D01*
X120904141Y-88156866D01*
X120873536Y-88308000D01*
X120873536Y-88371872D01*
X120862000Y-88369536D01*
X120062000Y-88369536D01*
X120022333Y-88377000D01*
X116832005Y-88377000D01*
X116832000Y-88376999D01*
X116628795Y-88417420D01*
X116456526Y-88532526D01*
X114940526Y-90048526D01*
X114825420Y-90220795D01*
X114785000Y-90424000D01*
X114785000Y-97536000D01*
X114825420Y-97739205D01*
X114940526Y-97911474D01*
X117480524Y-100451471D01*
X117480526Y-100451474D01*
X117652795Y-100566580D01*
X117856000Y-100607000D01*
X121192052Y-100607000D01*
X127993000Y-107407948D01*
X127993000Y-123190000D01*
X128033420Y-123393205D01*
X128148526Y-123565474D01*
X128501000Y-123917947D01*
X128501000Y-158022053D01*
X122587194Y-163935858D01*
X122332022Y-163829901D01*
X122672966Y-163689025D01*
X123047709Y-163314935D01*
X123250769Y-162825914D01*
X123251231Y-162296409D01*
X123049025Y-161807034D01*
X122674935Y-161432291D01*
X122332022Y-161289901D01*
X122672966Y-161149025D01*
X123047709Y-160774935D01*
X123250769Y-160285914D01*
X123251231Y-159756409D01*
X123049025Y-159267034D01*
X122674935Y-158892291D01*
X122332022Y-158749901D01*
X122672966Y-158609025D01*
X123047709Y-158234935D01*
X123250769Y-157745914D01*
X123251231Y-157216409D01*
X123049025Y-156727034D01*
X122674935Y-156352291D01*
X122332022Y-156209901D01*
X122672966Y-156069025D01*
X123047709Y-155694935D01*
X123250769Y-155205914D01*
X123251231Y-154676409D01*
X123049025Y-154187034D01*
X122674935Y-153812291D01*
X122332022Y-153669901D01*
X122672966Y-153529025D01*
X123047709Y-153154935D01*
X123250769Y-152665914D01*
X123251231Y-152136409D01*
X123049025Y-151647034D01*
X122674935Y-151272291D01*
X122332022Y-151129901D01*
X122672966Y-150989025D01*
X123047709Y-150614935D01*
X123250769Y-150125914D01*
X123251231Y-149596409D01*
X123049025Y-149107034D01*
X122674935Y-148732291D01*
X122332022Y-148589901D01*
X122672966Y-148449025D01*
X123047709Y-148074935D01*
X123250769Y-147585914D01*
X123251231Y-147056409D01*
X123049025Y-146567034D01*
X122674935Y-146192291D01*
X122332022Y-146049901D01*
X122672966Y-145909025D01*
X123047709Y-145534935D01*
X123250769Y-145045914D01*
X123250842Y-144962106D01*
X127375474Y-140837474D01*
X127490580Y-140665205D01*
X127531000Y-140462000D01*
X127531000Y-110650807D01*
X127663521Y-110596050D01*
X127867335Y-110392592D01*
X127977774Y-110126624D01*
X127978025Y-109838639D01*
X127868050Y-109572479D01*
X127664592Y-109368665D01*
X127612617Y-109347083D01*
X127663521Y-109326050D01*
X127867335Y-109122592D01*
X127977774Y-108856624D01*
X127978025Y-108568639D01*
X127868050Y-108302479D01*
X127664592Y-108098665D01*
X127398624Y-107988226D01*
X127110639Y-107987975D01*
X126844479Y-108097950D01*
X126640665Y-108301408D01*
X126530226Y-108567376D01*
X126530124Y-108684928D01*
X125862526Y-109352526D01*
X125747420Y-109524795D01*
X125707000Y-109728000D01*
X125707000Y-139734052D01*
X123732052Y-141709000D01*
X123140740Y-141709000D01*
X123049025Y-141487034D01*
X122674935Y-141112291D01*
X122332022Y-140969901D01*
X122672966Y-140829025D01*
X123047709Y-140454935D01*
X123250769Y-139965914D01*
X123251231Y-139436409D01*
X123049025Y-138947034D01*
X122674935Y-138572291D01*
X122185914Y-138369231D01*
X121656409Y-138368769D01*
X121167034Y-138570975D01*
X120792291Y-138945065D01*
X120589231Y-139434086D01*
X120588769Y-139963591D01*
X120790975Y-140452966D01*
X121165065Y-140827709D01*
X121507978Y-140970099D01*
X121167034Y-141110975D01*
X120792291Y-141485065D01*
X120589231Y-141974086D01*
X120588769Y-142503591D01*
X120790975Y-142992966D01*
X121165065Y-143367709D01*
X121507978Y-143510099D01*
X121167034Y-143650975D01*
X120792291Y-144025065D01*
X120589231Y-144514086D01*
X120588769Y-145043591D01*
X120790975Y-145532966D01*
X121165065Y-145907709D01*
X121507978Y-146050099D01*
X121167034Y-146190975D01*
X120792291Y-146565065D01*
X120589231Y-147054086D01*
X120588769Y-147583591D01*
X120790975Y-148072966D01*
X121165065Y-148447709D01*
X121507978Y-148590099D01*
X121167034Y-148730975D01*
X120792291Y-149105065D01*
X120589231Y-149594086D01*
X120588785Y-150105705D01*
X117775000Y-147291920D01*
X117775000Y-141224000D01*
X117723162Y-140963393D01*
X117723162Y-140963392D01*
X117575540Y-140742460D01*
X113107836Y-136274756D01*
X113184369Y-135890000D01*
X116685631Y-135890000D01*
X116780371Y-136366288D01*
X117050166Y-136770065D01*
X117453943Y-137039860D01*
X117930231Y-137134600D01*
X118289769Y-137134600D01*
X118766057Y-137039860D01*
X119169834Y-136770065D01*
X119439629Y-136366288D01*
X119534369Y-135890000D01*
X119439629Y-135413712D01*
X119169834Y-135009935D01*
X118766057Y-134740140D01*
X118289769Y-134645400D01*
X117930231Y-134645400D01*
X117453943Y-134740140D01*
X117050166Y-135009935D01*
X116780371Y-135413712D01*
X116685631Y-135890000D01*
X113184369Y-135890000D01*
X113089629Y-135413712D01*
X112819834Y-135009935D01*
X112416057Y-134740140D01*
X111939769Y-134645400D01*
X111580231Y-134645400D01*
X111103943Y-134740140D01*
X110700166Y-135009935D01*
X110430371Y-135413712D01*
X110335631Y-135890000D01*
X110430371Y-136366288D01*
X110700166Y-136770065D01*
X111103943Y-137039860D01*
X111580231Y-137134600D01*
X111939769Y-137134600D01*
X112024638Y-137117718D01*
X112147920Y-137241000D01*
X110264079Y-137241000D01*
X106757836Y-133734756D01*
X106834369Y-133350000D01*
X106739629Y-132873712D01*
X106469834Y-132469935D01*
X106066057Y-132200140D01*
X106051757Y-132197296D01*
X106324320Y-132101954D01*
X106760732Y-131712036D01*
X107014709Y-131184791D01*
X107017358Y-131169026D01*
X110152642Y-131169026D01*
X110155291Y-131184791D01*
X110409268Y-131712036D01*
X110845680Y-132101954D01*
X111118243Y-132197296D01*
X111103943Y-132200140D01*
X110700166Y-132469935D01*
X110430371Y-132873712D01*
X110335631Y-133350000D01*
X110430371Y-133826288D01*
X110700166Y-134230065D01*
X111103943Y-134499860D01*
X111580231Y-134594600D01*
X111939769Y-134594600D01*
X112416057Y-134499860D01*
X112819834Y-134230065D01*
X113089629Y-133826288D01*
X113184369Y-133350000D01*
X113089629Y-132873712D01*
X112819834Y-132469935D01*
X112416057Y-132200140D01*
X112401757Y-132197296D01*
X112674320Y-132101954D01*
X113110732Y-131712036D01*
X113364709Y-131184791D01*
X113367358Y-131169026D01*
X116502642Y-131169026D01*
X116505291Y-131184791D01*
X116759268Y-131712036D01*
X117195680Y-132101954D01*
X117468243Y-132197296D01*
X117453943Y-132200140D01*
X117050166Y-132469935D01*
X116780371Y-132873712D01*
X116685631Y-133350000D01*
X116780371Y-133826288D01*
X117050166Y-134230065D01*
X117453943Y-134499860D01*
X117930231Y-134594600D01*
X118289769Y-134594600D01*
X118766057Y-134499860D01*
X119169834Y-134230065D01*
X119439629Y-133826288D01*
X119534369Y-133350000D01*
X119439629Y-132873712D01*
X119169834Y-132469935D01*
X118766057Y-132200140D01*
X118751757Y-132197296D01*
X119024320Y-132101954D01*
X119460732Y-131712036D01*
X119714709Y-131184791D01*
X119717358Y-131169026D01*
X119596217Y-130937000D01*
X118237000Y-130937000D01*
X118237000Y-130957000D01*
X117983000Y-130957000D01*
X117983000Y-130937000D01*
X116623783Y-130937000D01*
X116502642Y-131169026D01*
X113367358Y-131169026D01*
X113246217Y-130937000D01*
X111887000Y-130937000D01*
X111887000Y-130957000D01*
X111633000Y-130957000D01*
X111633000Y-130937000D01*
X110273783Y-130937000D01*
X110152642Y-131169026D01*
X107017358Y-131169026D01*
X106896217Y-130937000D01*
X105537000Y-130937000D01*
X105537000Y-130957000D01*
X105283000Y-130957000D01*
X105283000Y-130937000D01*
X105263000Y-130937000D01*
X105263000Y-130683000D01*
X105283000Y-130683000D01*
X105283000Y-130663000D01*
X105537000Y-130663000D01*
X105537000Y-130683000D01*
X106896217Y-130683000D01*
X107017358Y-130450974D01*
X110152642Y-130450974D01*
X110273783Y-130683000D01*
X111633000Y-130683000D01*
X111633000Y-130663000D01*
X111887000Y-130663000D01*
X111887000Y-130683000D01*
X113246217Y-130683000D01*
X113367358Y-130450974D01*
X116502642Y-130450974D01*
X116623783Y-130683000D01*
X117983000Y-130683000D01*
X117983000Y-130663000D01*
X118237000Y-130663000D01*
X118237000Y-130683000D01*
X119596217Y-130683000D01*
X119717358Y-130450974D01*
X119714709Y-130435209D01*
X119460732Y-129907964D01*
X119028817Y-129522064D01*
X119126000Y-129522064D01*
X119267190Y-129495497D01*
X119396865Y-129412054D01*
X119483859Y-129284734D01*
X119514464Y-129133600D01*
X119514464Y-127406400D01*
X119487897Y-127265210D01*
X119404454Y-127135535D01*
X119277134Y-127048541D01*
X119126000Y-127017936D01*
X117094000Y-127017936D01*
X116952810Y-127044503D01*
X116823135Y-127127946D01*
X116736141Y-127255266D01*
X116705536Y-127406400D01*
X116705536Y-129133600D01*
X116732103Y-129274790D01*
X116815546Y-129404465D01*
X116942866Y-129491459D01*
X117094000Y-129522064D01*
X117191183Y-129522064D01*
X116759268Y-129907964D01*
X116505291Y-130435209D01*
X116502642Y-130450974D01*
X113367358Y-130450974D01*
X113364709Y-130435209D01*
X113110732Y-129907964D01*
X112678817Y-129522064D01*
X112776000Y-129522064D01*
X112917190Y-129495497D01*
X113046865Y-129412054D01*
X113133859Y-129284734D01*
X113164464Y-129133600D01*
X113164464Y-127406400D01*
X113137897Y-127265210D01*
X113054454Y-127135535D01*
X112927134Y-127048541D01*
X112776000Y-127017936D01*
X110744000Y-127017936D01*
X110602810Y-127044503D01*
X110473135Y-127127946D01*
X110386141Y-127255266D01*
X110355536Y-127406400D01*
X110355536Y-129133600D01*
X110382103Y-129274790D01*
X110465546Y-129404465D01*
X110592866Y-129491459D01*
X110744000Y-129522064D01*
X110841183Y-129522064D01*
X110409268Y-129907964D01*
X110155291Y-130435209D01*
X110152642Y-130450974D01*
X107017358Y-130450974D01*
X107014709Y-130435209D01*
X106760732Y-129907964D01*
X106328817Y-129522064D01*
X106426000Y-129522064D01*
X106567190Y-129495497D01*
X106696865Y-129412054D01*
X106783859Y-129284734D01*
X106814464Y-129133600D01*
X106814464Y-127406400D01*
X106787897Y-127265210D01*
X106704454Y-127135535D01*
X106577134Y-127048541D01*
X106426000Y-127017936D01*
X104394000Y-127017936D01*
X104252810Y-127044503D01*
X104123135Y-127127946D01*
X104036141Y-127255266D01*
X104005536Y-127406400D01*
X104005536Y-128782096D01*
X102931816Y-129855816D01*
X102795032Y-130060527D01*
X102747000Y-130302000D01*
X102747000Y-136906000D01*
X102792471Y-137134600D01*
X102795032Y-137147473D01*
X102931816Y-137352184D01*
X104963816Y-139384184D01*
X105168527Y-139520968D01*
X105410000Y-139569000D01*
X111752632Y-139569000D01*
X114431000Y-142247368D01*
X114431000Y-146296631D01*
X114114066Y-146613566D01*
X113890479Y-146705950D01*
X113686665Y-146909408D01*
X113576226Y-147175376D01*
X113575975Y-147463361D01*
X113685950Y-147729521D01*
X113889408Y-147933335D01*
X114155376Y-148043774D01*
X114443361Y-148044025D01*
X114709521Y-147934050D01*
X114913335Y-147730592D01*
X115006753Y-147505615D01*
X115397000Y-147115369D01*
X115397000Y-149098000D01*
X115448838Y-149358608D01*
X115596460Y-149579540D01*
X120619093Y-154602172D01*
X120589231Y-154674086D01*
X120588769Y-155203591D01*
X120790975Y-155692966D01*
X121165065Y-156067709D01*
X121507978Y-156210099D01*
X121167034Y-156350975D01*
X120792291Y-156725065D01*
X120589231Y-157214086D01*
X120588769Y-157743591D01*
X120790975Y-158232966D01*
X121165065Y-158607709D01*
X121507978Y-158750099D01*
X121167034Y-158890975D01*
X120792291Y-159265065D01*
X120589231Y-159754086D01*
X120588769Y-160283591D01*
X120790975Y-160772966D01*
X121165065Y-161147709D01*
X121507978Y-161290099D01*
X121167034Y-161430975D01*
X120792291Y-161805065D01*
X120720067Y-161979000D01*
X119366658Y-161979000D01*
X112424829Y-155037171D01*
X112236339Y-154911226D01*
X112014000Y-154867000D01*
X98792658Y-154867000D01*
X94898829Y-150973171D01*
X94710339Y-150847226D01*
X94488000Y-150803000D01*
X87818871Y-150803000D01*
X87786592Y-150770665D01*
X87520624Y-150660226D01*
X87232639Y-150659975D01*
X86966479Y-150769950D01*
X86762665Y-150973408D01*
X86652226Y-151239376D01*
X86651975Y-151527361D01*
X40767000Y-151527361D01*
X40767000Y-148803983D01*
X58558804Y-148803983D01*
X58730625Y-149219823D01*
X59048503Y-149538256D01*
X59464043Y-149710804D01*
X59913983Y-149711196D01*
X60329823Y-149539375D01*
X60648256Y-149221497D01*
X60820804Y-148805957D01*
X60821196Y-148356017D01*
X60649375Y-147940177D01*
X60331497Y-147621744D01*
X59915957Y-147449196D01*
X59466017Y-147448804D01*
X59050177Y-147620625D01*
X58731744Y-147938503D01*
X58559196Y-148354043D01*
X58558804Y-148803983D01*
X40767000Y-148803983D01*
X40767000Y-141203983D01*
X58558804Y-141203983D01*
X58730625Y-141619823D01*
X59048503Y-141938256D01*
X59464043Y-142110804D01*
X59913983Y-142111196D01*
X60329823Y-141939375D01*
X60648256Y-141621497D01*
X60820804Y-141205957D01*
X60821196Y-140756017D01*
X60649375Y-140340177D01*
X60331497Y-140021744D01*
X59915957Y-139849196D01*
X59466017Y-139848804D01*
X59050177Y-140020625D01*
X58731744Y-140338503D01*
X58559196Y-140754043D01*
X58558804Y-141203983D01*
X40767000Y-141203983D01*
X40767000Y-137287000D01*
X68973700Y-137287000D01*
X68973700Y-137541000D01*
X69128641Y-138065941D01*
X69472674Y-138491630D01*
X69953423Y-138753260D01*
X70027630Y-138768220D01*
X70243700Y-138645720D01*
X70243700Y-137287000D01*
X70497700Y-137287000D01*
X70497700Y-138645720D01*
X70713770Y-138768220D01*
X70787977Y-138753260D01*
X71268726Y-138491630D01*
X71612759Y-138065941D01*
X71767700Y-137541000D01*
X71767700Y-137287000D01*
X70497700Y-137287000D01*
X70243700Y-137287000D01*
X68973700Y-137287000D01*
X40767000Y-137287000D01*
X40767000Y-136779000D01*
X68973700Y-136779000D01*
X68973700Y-137033000D01*
X70243700Y-137033000D01*
X70243700Y-135674280D01*
X70497700Y-135674280D01*
X70497700Y-137033000D01*
X71767700Y-137033000D01*
X71767700Y-136779000D01*
X71612759Y-136254059D01*
X71268726Y-135828370D01*
X70864953Y-135608631D01*
X96126300Y-135608631D01*
X96126300Y-136171369D01*
X96213306Y-136608776D01*
X96461077Y-136979592D01*
X96731077Y-137160000D01*
X96461077Y-137340408D01*
X96213306Y-137711224D01*
X96126300Y-138148631D01*
X96126300Y-138711369D01*
X96213306Y-139148776D01*
X96461077Y-139519592D01*
X96831893Y-139767363D01*
X97269300Y-139854369D01*
X97706707Y-139767363D01*
X98077523Y-139519592D01*
X98325294Y-139148776D01*
X98412300Y-138711369D01*
X98412300Y-138148631D01*
X98325294Y-137711224D01*
X98077523Y-137340408D01*
X97807523Y-137160000D01*
X98077523Y-136979592D01*
X98325294Y-136608776D01*
X98412300Y-136171369D01*
X98412300Y-135608631D01*
X98325294Y-135171224D01*
X98077523Y-134800408D01*
X97706707Y-134552637D01*
X97269300Y-134465631D01*
X96831893Y-134552637D01*
X96461077Y-134800408D01*
X96213306Y-135171224D01*
X96126300Y-135608631D01*
X70864953Y-135608631D01*
X70787977Y-135566740D01*
X70713770Y-135551780D01*
X70497700Y-135674280D01*
X70243700Y-135674280D01*
X70027630Y-135551780D01*
X69953423Y-135566740D01*
X69472674Y-135828370D01*
X69128641Y-136254059D01*
X68973700Y-136779000D01*
X40767000Y-136779000D01*
X40767000Y-117091510D01*
X83819780Y-117091510D01*
X84012718Y-117558458D01*
X84369663Y-117916026D01*
X84836273Y-118109779D01*
X85341510Y-118110220D01*
X85808458Y-117917282D01*
X86166026Y-117560337D01*
X86359779Y-117093727D01*
X86360220Y-116588490D01*
X86167282Y-116121542D01*
X85810337Y-115763974D01*
X85343727Y-115570221D01*
X84838490Y-115569780D01*
X84371542Y-115762718D01*
X84013974Y-116119663D01*
X83820221Y-116586273D01*
X83819780Y-117091510D01*
X40767000Y-117091510D01*
X40767000Y-112011510D01*
X83819780Y-112011510D01*
X84012718Y-112478458D01*
X84369663Y-112836026D01*
X84836273Y-113029779D01*
X85341510Y-113030220D01*
X85808458Y-112837282D01*
X86166026Y-112480337D01*
X86359779Y-112013727D01*
X86360220Y-111508490D01*
X86167282Y-111041542D01*
X85810337Y-110683974D01*
X85343727Y-110490221D01*
X84838490Y-110489780D01*
X84371542Y-110682718D01*
X84013974Y-111039663D01*
X83820221Y-111506273D01*
X83819780Y-112011510D01*
X40767000Y-112011510D01*
X40767000Y-109363361D01*
X94525975Y-109363361D01*
X94635950Y-109629521D01*
X94839408Y-109833335D01*
X95105376Y-109943774D01*
X95393361Y-109944025D01*
X95659521Y-109834050D01*
X95742716Y-109751000D01*
X96300052Y-109751000D01*
X105956076Y-119407024D01*
X105955975Y-119523361D01*
X106065950Y-119789521D01*
X106269408Y-119993335D01*
X106535376Y-120103774D01*
X106823361Y-120104025D01*
X107089521Y-119994050D01*
X107293335Y-119790592D01*
X107403774Y-119524624D01*
X107404025Y-119236639D01*
X107294050Y-118970479D01*
X107090592Y-118766665D01*
X106824624Y-118656226D01*
X106707072Y-118656124D01*
X96895474Y-108844526D01*
X96723205Y-108729420D01*
X96520000Y-108689000D01*
X95742783Y-108689000D01*
X95660592Y-108606665D01*
X95394624Y-108496226D01*
X95106639Y-108495975D01*
X94840479Y-108605950D01*
X94636665Y-108809408D01*
X94526226Y-109075376D01*
X94525975Y-109363361D01*
X40767000Y-109363361D01*
X40767000Y-99568000D01*
X78971000Y-99568000D01*
X78971000Y-103124000D01*
X79011420Y-103327205D01*
X79126526Y-103499474D01*
X83952524Y-108325471D01*
X83952526Y-108325474D01*
X83987173Y-108348624D01*
X84124795Y-108440580D01*
X84328000Y-108481001D01*
X84328005Y-108481000D01*
X98391193Y-108481000D01*
X98445950Y-108613521D01*
X98649408Y-108817335D01*
X98915376Y-108927774D01*
X99203361Y-108928025D01*
X99469521Y-108818050D01*
X99673335Y-108614592D01*
X99783774Y-108348624D01*
X99784025Y-108060639D01*
X99768473Y-108023000D01*
X100089342Y-108023000D01*
X104686015Y-112619673D01*
X104685975Y-112665361D01*
X104795950Y-112931521D01*
X104999408Y-113135335D01*
X105265376Y-113245774D01*
X105553361Y-113246025D01*
X105819521Y-113136050D01*
X106023335Y-112932592D01*
X106133774Y-112666624D01*
X106134025Y-112378639D01*
X106024050Y-112112479D01*
X105820592Y-111908665D01*
X105554624Y-111798226D01*
X105507843Y-111798185D01*
X100740829Y-107031171D01*
X100552339Y-106905226D01*
X100330000Y-106861000D01*
X96252658Y-106861000D01*
X95973985Y-106582327D01*
X95974025Y-106536639D01*
X95864050Y-106270479D01*
X95838616Y-106245000D01*
X100343342Y-106245000D01*
X105956015Y-111857673D01*
X105955975Y-111903361D01*
X106065950Y-112169521D01*
X106269408Y-112373335D01*
X106535376Y-112483774D01*
X106823361Y-112484025D01*
X107089521Y-112374050D01*
X107293335Y-112170592D01*
X107374202Y-111975841D01*
X107585361Y-111976025D01*
X107851521Y-111866050D01*
X108055335Y-111662592D01*
X108136202Y-111467841D01*
X108347361Y-111468025D01*
X108613521Y-111358050D01*
X108817335Y-111154592D01*
X108927774Y-110888624D01*
X108928025Y-110600639D01*
X108818050Y-110334479D01*
X108614592Y-110130665D01*
X108348624Y-110020226D01*
X108301843Y-110020185D01*
X95406829Y-97125171D01*
X95218339Y-96999226D01*
X95057689Y-96967271D01*
X95077927Y-96912532D01*
X94105000Y-95939605D01*
X93132073Y-96912532D01*
X93147774Y-96955000D01*
X88138000Y-96955000D01*
X87915661Y-96999226D01*
X87727171Y-97125171D01*
X86711171Y-98141171D01*
X86585226Y-98329661D01*
X86551471Y-98499359D01*
X86281417Y-98228834D01*
X85920989Y-98079171D01*
X85530723Y-98078830D01*
X85170034Y-98227864D01*
X84893834Y-98503583D01*
X84744171Y-98864011D01*
X84743830Y-99254277D01*
X84892864Y-99614966D01*
X85168583Y-99891166D01*
X85529011Y-100040829D01*
X85919277Y-100041170D01*
X86279966Y-99892136D01*
X86551548Y-99621027D01*
X86585226Y-99790339D01*
X86711171Y-99978829D01*
X87465500Y-100733158D01*
X87190989Y-100619171D01*
X86800723Y-100618830D01*
X86440034Y-100767864D01*
X86163834Y-101043583D01*
X86014171Y-101404011D01*
X86013830Y-101794277D01*
X86162864Y-102154966D01*
X86438583Y-102431166D01*
X86799011Y-102580829D01*
X87189277Y-102581170D01*
X87549966Y-102432136D01*
X87826166Y-102156417D01*
X87975829Y-101795989D01*
X87976170Y-101405723D01*
X87862174Y-101129832D01*
X88572990Y-101840648D01*
X88702864Y-102154966D01*
X88978583Y-102431166D01*
X89339011Y-102580829D01*
X89729277Y-102581170D01*
X90089966Y-102432136D01*
X90366166Y-102156417D01*
X90515829Y-101795989D01*
X90516170Y-101405723D01*
X90367136Y-101045034D01*
X90091417Y-100768834D01*
X89730989Y-100619171D01*
X89340723Y-100618830D01*
X89095721Y-100720063D01*
X88416791Y-100041133D01*
X88459277Y-100041170D01*
X88819966Y-99892136D01*
X89096166Y-99616417D01*
X89245829Y-99255989D01*
X89246170Y-98865723D01*
X89097136Y-98505034D01*
X88821417Y-98228834D01*
X88552091Y-98117000D01*
X90518345Y-98117000D01*
X90250034Y-98227864D01*
X89973834Y-98503583D01*
X89824171Y-98864011D01*
X89823830Y-99254277D01*
X89972864Y-99614966D01*
X90248583Y-99891166D01*
X90609011Y-100040829D01*
X90964482Y-100041140D01*
X96006342Y-105083000D01*
X88886658Y-105083000D01*
X85435972Y-101632314D01*
X85436170Y-101405723D01*
X85287136Y-101045034D01*
X85011417Y-100768834D01*
X84650989Y-100619171D01*
X84260723Y-100618830D01*
X83900034Y-100767864D01*
X83623834Y-101043583D01*
X83474171Y-101404011D01*
X83473830Y-101794277D01*
X83622864Y-102154966D01*
X83898583Y-102431166D01*
X84259011Y-102580829D01*
X84649277Y-102581170D01*
X84714544Y-102554202D01*
X88235171Y-106074829D01*
X88423661Y-106200774D01*
X88646000Y-106245000D01*
X94661116Y-106245000D01*
X94636665Y-106269408D01*
X94526226Y-106535376D01*
X94525975Y-106823361D01*
X94635950Y-107089521D01*
X94839408Y-107293335D01*
X95105376Y-107403774D01*
X95152157Y-107403815D01*
X95167342Y-107419000D01*
X84547947Y-107419000D01*
X80033000Y-102904052D01*
X80033000Y-102462735D01*
X81231870Y-102462735D01*
X81281383Y-102688164D01*
X81746036Y-102847807D01*
X82236413Y-102817482D01*
X82548617Y-102688164D01*
X82598130Y-102462735D01*
X81915000Y-101779605D01*
X81231870Y-102462735D01*
X80033000Y-102462735D01*
X80033000Y-101431036D01*
X80667193Y-101431036D01*
X80697518Y-101921413D01*
X80826836Y-102233617D01*
X81052265Y-102283130D01*
X81735395Y-101600000D01*
X82094605Y-101600000D01*
X82777735Y-102283130D01*
X83003164Y-102233617D01*
X83162807Y-101768964D01*
X83132482Y-101278587D01*
X83003164Y-100966383D01*
X82777735Y-100916870D01*
X82094605Y-101600000D01*
X81735395Y-101600000D01*
X81052265Y-100916870D01*
X80826836Y-100966383D01*
X80667193Y-101431036D01*
X80033000Y-101431036D01*
X80033000Y-100737265D01*
X81231870Y-100737265D01*
X81915000Y-101420395D01*
X82598130Y-100737265D01*
X82548617Y-100511836D01*
X82083964Y-100352193D01*
X81593587Y-100382518D01*
X81281383Y-100511836D01*
X81231870Y-100737265D01*
X80033000Y-100737265D01*
X80033000Y-99787948D01*
X80566670Y-99254277D01*
X82203830Y-99254277D01*
X82352864Y-99614966D01*
X82628583Y-99891166D01*
X82989011Y-100040829D01*
X83379277Y-100041170D01*
X83739966Y-99892136D01*
X84016166Y-99616417D01*
X84165829Y-99255989D01*
X84166170Y-98865723D01*
X84017136Y-98505034D01*
X83741417Y-98228834D01*
X83380989Y-98079171D01*
X82990723Y-98078830D01*
X82630034Y-98227864D01*
X82353834Y-98503583D01*
X82204171Y-98864011D01*
X82203830Y-99254277D01*
X80566670Y-99254277D01*
X83687471Y-96133476D01*
X83687474Y-96133474D01*
X83802580Y-95961205D01*
X83806877Y-95939605D01*
X83843001Y-95758000D01*
X83843000Y-95757995D01*
X83843000Y-95495461D01*
X92459092Y-95495461D01*
X92483144Y-96145460D01*
X92685613Y-96634264D01*
X92952468Y-96732927D01*
X93925395Y-95760000D01*
X94284605Y-95760000D01*
X95257532Y-96732927D01*
X95524387Y-96634264D01*
X95750908Y-96024539D01*
X95726856Y-95374540D01*
X95524387Y-94885736D01*
X95257532Y-94787073D01*
X94284605Y-95760000D01*
X93925395Y-95760000D01*
X92952468Y-94787073D01*
X92685613Y-94885736D01*
X92459092Y-95495461D01*
X83843000Y-95495461D01*
X83843000Y-93107268D01*
X90068652Y-93107268D01*
X90373404Y-93844823D01*
X90937209Y-94409613D01*
X91674231Y-94715651D01*
X92472268Y-94716348D01*
X93203531Y-94414196D01*
X93132073Y-94607468D01*
X94105000Y-95580395D01*
X95077927Y-94607468D01*
X94979264Y-94340613D01*
X94369539Y-94114092D01*
X93719540Y-94138144D01*
X93316528Y-94305077D01*
X93774613Y-93847791D01*
X94080651Y-93110769D01*
X94081348Y-92312732D01*
X93776596Y-91575177D01*
X93212791Y-91010387D01*
X92475769Y-90704349D01*
X91677732Y-90703652D01*
X90940177Y-91008404D01*
X90375387Y-91572209D01*
X90069349Y-92309231D01*
X90068652Y-93107268D01*
X83843000Y-93107268D01*
X83843000Y-90932000D01*
X83802580Y-90728795D01*
X83687474Y-90556526D01*
X83687471Y-90556524D01*
X82806000Y-89675052D01*
X82806000Y-88706139D01*
X82858251Y-88684549D01*
X83148529Y-88394777D01*
X83305820Y-88015978D01*
X83305821Y-88014179D01*
X89413822Y-88014179D01*
X89570451Y-88393251D01*
X89860223Y-88683529D01*
X90239022Y-88840820D01*
X90649179Y-88841178D01*
X91028251Y-88684549D01*
X91318529Y-88394777D01*
X91475820Y-88015978D01*
X91475821Y-88014179D01*
X91953822Y-88014179D01*
X92110451Y-88393251D01*
X92400223Y-88683529D01*
X92779022Y-88840820D01*
X93189179Y-88841178D01*
X93568251Y-88684549D01*
X93858529Y-88394777D01*
X94015820Y-88015978D01*
X94016178Y-87605821D01*
X93859549Y-87226749D01*
X93569777Y-86936471D01*
X93190978Y-86779180D01*
X92780821Y-86778822D01*
X92401749Y-86935451D01*
X92111471Y-87225223D01*
X91954180Y-87604022D01*
X91953822Y-88014179D01*
X91475821Y-88014179D01*
X91476178Y-87605821D01*
X91319549Y-87226749D01*
X91029777Y-86936471D01*
X90650978Y-86779180D01*
X90240821Y-86778822D01*
X89861749Y-86935451D01*
X89571471Y-87225223D01*
X89414180Y-87604022D01*
X89413822Y-88014179D01*
X83305821Y-88014179D01*
X83306178Y-87605821D01*
X83149549Y-87226749D01*
X82859777Y-86936471D01*
X82480978Y-86779180D01*
X82070821Y-86778822D01*
X81691749Y-86935451D01*
X81401471Y-87225223D01*
X81244180Y-87604022D01*
X81243822Y-88014179D01*
X81400451Y-88393251D01*
X81690223Y-88683529D01*
X81744000Y-88705859D01*
X81744000Y-89895000D01*
X81784420Y-90098205D01*
X81899526Y-90270474D01*
X82781000Y-91151947D01*
X82781000Y-95538053D01*
X79126526Y-99192526D01*
X79011420Y-99364795D01*
X78971000Y-99568000D01*
X40767000Y-99568000D01*
X40767000Y-95451750D01*
X61087000Y-95451750D01*
X61087000Y-95556250D01*
X61290013Y-96576867D01*
X61868146Y-97442104D01*
X62733383Y-98020237D01*
X63754000Y-98223250D01*
X64774617Y-98020237D01*
X65639854Y-97442104D01*
X65993702Y-96912532D01*
X77642073Y-96912532D01*
X77740736Y-97179387D01*
X78350461Y-97405908D01*
X79000460Y-97381856D01*
X79489264Y-97179387D01*
X79587927Y-96912532D01*
X78615000Y-95939605D01*
X77642073Y-96912532D01*
X65993702Y-96912532D01*
X66217987Y-96576867D01*
X66421000Y-95556250D01*
X66421000Y-95495461D01*
X76969092Y-95495461D01*
X76993144Y-96145460D01*
X77195613Y-96634264D01*
X77462468Y-96732927D01*
X78435395Y-95760000D01*
X78794605Y-95760000D01*
X79767532Y-96732927D01*
X80034387Y-96634264D01*
X80260908Y-96024539D01*
X80236856Y-95374540D01*
X80034387Y-94885736D01*
X79767532Y-94787073D01*
X78794605Y-95760000D01*
X78435395Y-95760000D01*
X77462468Y-94787073D01*
X77195613Y-94885736D01*
X76969092Y-95495461D01*
X66421000Y-95495461D01*
X66421000Y-95451750D01*
X66253063Y-94607468D01*
X77642073Y-94607468D01*
X78615000Y-95580395D01*
X79587927Y-94607468D01*
X79516147Y-94413324D01*
X80244231Y-94715651D01*
X81042268Y-94716348D01*
X81779823Y-94411596D01*
X82344613Y-93847791D01*
X82650651Y-93110769D01*
X82651348Y-92312732D01*
X82346596Y-91575177D01*
X81782791Y-91010387D01*
X81045769Y-90704349D01*
X80247732Y-90703652D01*
X79510177Y-91008404D01*
X78945387Y-91572209D01*
X78639349Y-92309231D01*
X78638652Y-93107268D01*
X78943404Y-93844823D01*
X79408304Y-94310535D01*
X78879539Y-94114092D01*
X78229540Y-94138144D01*
X77740736Y-94340613D01*
X77642073Y-94607468D01*
X66253063Y-94607468D01*
X66217987Y-94431133D01*
X65639854Y-93565896D01*
X64774617Y-92987763D01*
X63754000Y-92784750D01*
X62733383Y-92987763D01*
X61868146Y-93565896D01*
X61290013Y-94431133D01*
X61087000Y-95451750D01*
X40767000Y-95451750D01*
X40767000Y-92668250D01*
X57177940Y-92668250D01*
X57177940Y-92751750D01*
X57340157Y-93567271D01*
X57802113Y-94258637D01*
X58493479Y-94720593D01*
X59309000Y-94882810D01*
X60124521Y-94720593D01*
X60815887Y-94258637D01*
X61277843Y-93567271D01*
X61440060Y-92751750D01*
X61440060Y-92668250D01*
X61277843Y-91852729D01*
X60815887Y-91161363D01*
X60124521Y-90699407D01*
X59309000Y-90537190D01*
X58493479Y-90699407D01*
X57802113Y-91161363D01*
X57340157Y-91852729D01*
X57177940Y-92668250D01*
X40767000Y-92668250D01*
X40767000Y-89442175D01*
X61142685Y-89442175D01*
X61548941Y-90400211D01*
X62290897Y-91129854D01*
X63211826Y-91511309D01*
X63627000Y-91405033D01*
X63627000Y-89027000D01*
X63881000Y-89027000D01*
X63881000Y-91405033D01*
X64296174Y-91511309D01*
X65217103Y-91129854D01*
X65959059Y-90400211D01*
X66365315Y-89442175D01*
X66259230Y-89027000D01*
X63881000Y-89027000D01*
X63627000Y-89027000D01*
X61248770Y-89027000D01*
X61142685Y-89442175D01*
X40767000Y-89442175D01*
X40767000Y-88357825D01*
X61142685Y-88357825D01*
X61248770Y-88773000D01*
X63627000Y-88773000D01*
X63627000Y-86394967D01*
X63881000Y-86394967D01*
X63881000Y-88773000D01*
X66259230Y-88773000D01*
X66365315Y-88357825D01*
X66219592Y-88014179D01*
X78703822Y-88014179D01*
X78860451Y-88393251D01*
X79150223Y-88683529D01*
X79529022Y-88840820D01*
X79939179Y-88841178D01*
X80318251Y-88684549D01*
X80608529Y-88394777D01*
X80765820Y-88015978D01*
X80766178Y-87605821D01*
X80609549Y-87226749D01*
X80319777Y-86936471D01*
X79940978Y-86779180D01*
X79530821Y-86778822D01*
X79151749Y-86935451D01*
X78861471Y-87225223D01*
X78704180Y-87604022D01*
X78703822Y-88014179D01*
X66219592Y-88014179D01*
X65959059Y-87399789D01*
X65224836Y-86677750D01*
X116421000Y-86677750D01*
X116421000Y-87518309D01*
X116517673Y-87751698D01*
X116696301Y-87930327D01*
X116929690Y-88027000D01*
X117570250Y-88027000D01*
X117729000Y-87868250D01*
X117729000Y-86519000D01*
X117983000Y-86519000D01*
X117983000Y-87868250D01*
X118141750Y-88027000D01*
X118782310Y-88027000D01*
X119015699Y-87930327D01*
X119194327Y-87751698D01*
X119291000Y-87518309D01*
X119291000Y-86677750D01*
X119132250Y-86519000D01*
X117983000Y-86519000D01*
X117729000Y-86519000D01*
X116579750Y-86519000D01*
X116421000Y-86677750D01*
X65224836Y-86677750D01*
X65217103Y-86670146D01*
X64296174Y-86288691D01*
X63881000Y-86394967D01*
X63627000Y-86394967D01*
X63211826Y-86288691D01*
X62290897Y-86670146D01*
X61548941Y-87399789D01*
X61142685Y-88357825D01*
X40767000Y-88357825D01*
X40767000Y-85265691D01*
X116421000Y-85265691D01*
X116421000Y-86106250D01*
X116579750Y-86265000D01*
X117729000Y-86265000D01*
X117729000Y-84915750D01*
X117983000Y-84915750D01*
X117983000Y-86265000D01*
X119132250Y-86265000D01*
X119291000Y-86106250D01*
X119291000Y-85265691D01*
X119194327Y-85032302D01*
X119015699Y-84853673D01*
X118934406Y-84820000D01*
X121239536Y-84820000D01*
X121239536Y-86820000D01*
X121266103Y-86961190D01*
X121349546Y-87090865D01*
X121476866Y-87177859D01*
X121628000Y-87208464D01*
X123171106Y-87208464D01*
X123171106Y-88786970D01*
X123197673Y-88928160D01*
X123281116Y-89057835D01*
X123408436Y-89144829D01*
X123559570Y-89175434D01*
X125360430Y-89175434D01*
X125501620Y-89148867D01*
X125631295Y-89065424D01*
X125718289Y-88938104D01*
X125748894Y-88786970D01*
X125748894Y-87189310D01*
X125722327Y-87048120D01*
X125669039Y-86965307D01*
X125698464Y-86820000D01*
X125698464Y-84820000D01*
X125671897Y-84678810D01*
X125588454Y-84549135D01*
X125461134Y-84462141D01*
X125310000Y-84431536D01*
X123610000Y-84431536D01*
X123468810Y-84458103D01*
X123419584Y-84489779D01*
X123379134Y-84462141D01*
X123228000Y-84431536D01*
X121628000Y-84431536D01*
X121486810Y-84458103D01*
X121357135Y-84541546D01*
X121270141Y-84668866D01*
X121239536Y-84820000D01*
X118934406Y-84820000D01*
X118782310Y-84757000D01*
X118141750Y-84757000D01*
X117983000Y-84915750D01*
X117729000Y-84915750D01*
X117570250Y-84757000D01*
X116929690Y-84757000D01*
X116696301Y-84853673D01*
X116517673Y-85032302D01*
X116421000Y-85265691D01*
X40767000Y-85265691D01*
X40767000Y-82105750D01*
X120993000Y-82105750D01*
X120993000Y-82946309D01*
X121089673Y-83179698D01*
X121268301Y-83358327D01*
X121501690Y-83455000D01*
X122142250Y-83455000D01*
X122301000Y-83296250D01*
X122301000Y-81947000D01*
X121151750Y-81947000D01*
X120993000Y-82105750D01*
X40767000Y-82105750D01*
X40767000Y-80693691D01*
X120993000Y-80693691D01*
X120993000Y-81534250D01*
X121151750Y-81693000D01*
X122301000Y-81693000D01*
X122301000Y-80343750D01*
X122555000Y-80343750D01*
X122555000Y-81693000D01*
X122575000Y-81693000D01*
X122575000Y-81947000D01*
X122555000Y-81947000D01*
X122555000Y-83296250D01*
X122713750Y-83455000D01*
X123354310Y-83455000D01*
X123587699Y-83358327D01*
X123737561Y-83208464D01*
X125310000Y-83208464D01*
X125451190Y-83181897D01*
X125580865Y-83098454D01*
X125667859Y-82971134D01*
X125698464Y-82820000D01*
X125698464Y-82401000D01*
X125775342Y-82401000D01*
X127292015Y-83917673D01*
X127291975Y-83963361D01*
X127401950Y-84229521D01*
X127605408Y-84433335D01*
X127871376Y-84543774D01*
X128159361Y-84544025D01*
X128425521Y-84434050D01*
X128629335Y-84230592D01*
X128739774Y-83964624D01*
X128740025Y-83676639D01*
X128630050Y-83410479D01*
X128426592Y-83206665D01*
X128160624Y-83096226D01*
X128113843Y-83096185D01*
X126426829Y-81409171D01*
X126238339Y-81283226D01*
X126016000Y-81239000D01*
X125698464Y-81239000D01*
X125698464Y-80820000D01*
X125671897Y-80678810D01*
X125588454Y-80549135D01*
X125461134Y-80462141D01*
X125310000Y-80431536D01*
X123737561Y-80431536D01*
X123587699Y-80281673D01*
X123354310Y-80185000D01*
X122713750Y-80185000D01*
X122555000Y-80343750D01*
X122301000Y-80343750D01*
X122142250Y-80185000D01*
X121501690Y-80185000D01*
X121268301Y-80281673D01*
X121089673Y-80460302D01*
X120993000Y-80693691D01*
X40767000Y-80693691D01*
X40767000Y-78867000D01*
X139573000Y-78867000D01*
X139573000Y-177673000D01*
M02*
