G04 #@! TF.FileFunction,Legend,Top*
%FSLAX46Y46*%
G04 Gerber Fmt 4.6, Leading zero omitted, Abs format (unit mm)*
G04 Created by KiCad (PCBNEW 4.0.2-stable) date 5/29/2016 8:13:19 PM*
%MOMM*%
G01*
G04 APERTURE LIST*
%ADD10C,0.127000*%
%ADD11C,0.150000*%
%ADD12C,0.010000*%
%ADD13C,0.635000*%
G04 APERTURE END LIST*
D10*
X95766000Y-83269143D02*
X95566000Y-83269143D01*
X95566000Y-83583429D02*
X95566000Y-82983429D01*
X95851714Y-82983429D01*
X96080286Y-83583429D02*
X96080286Y-82983429D01*
X96223143Y-82983429D01*
X96308858Y-83012000D01*
X96366000Y-83069143D01*
X96394572Y-83126286D01*
X96423143Y-83240571D01*
X96423143Y-83326286D01*
X96394572Y-83440571D01*
X96366000Y-83497714D01*
X96308858Y-83554857D01*
X96223143Y-83583429D01*
X96080286Y-83583429D01*
X96623143Y-82983429D02*
X97023143Y-83583429D01*
X97023143Y-82983429D02*
X96623143Y-83583429D01*
X95808857Y-95683429D02*
X96151714Y-95683429D01*
X95980285Y-96283429D02*
X95980285Y-95683429D01*
X96294571Y-95683429D02*
X96694571Y-96283429D01*
X96694571Y-95683429D02*
X96294571Y-96283429D01*
X96166000Y-93997429D02*
X95966000Y-93711714D01*
X95823143Y-93997429D02*
X95823143Y-93397429D01*
X96051715Y-93397429D01*
X96108857Y-93426000D01*
X96137429Y-93454571D01*
X96166000Y-93511714D01*
X96166000Y-93597429D01*
X96137429Y-93654571D01*
X96108857Y-93683143D01*
X96051715Y-93711714D01*
X95823143Y-93711714D01*
X96366000Y-93397429D02*
X96766000Y-93997429D01*
X96766000Y-93397429D02*
X96366000Y-93997429D01*
X95894572Y-91146286D02*
X95866001Y-91174857D01*
X95780287Y-91203429D01*
X95723144Y-91203429D01*
X95637429Y-91174857D01*
X95580287Y-91117714D01*
X95551715Y-91060571D01*
X95523144Y-90946286D01*
X95523144Y-90860571D01*
X95551715Y-90746286D01*
X95580287Y-90689143D01*
X95637429Y-90632000D01*
X95723144Y-90603429D01*
X95780287Y-90603429D01*
X95866001Y-90632000D01*
X95894572Y-90660571D01*
X96266001Y-90603429D02*
X96380287Y-90603429D01*
X96437429Y-90632000D01*
X96494572Y-90689143D01*
X96523144Y-90803429D01*
X96523144Y-91003429D01*
X96494572Y-91117714D01*
X96437429Y-91174857D01*
X96380287Y-91203429D01*
X96266001Y-91203429D01*
X96208858Y-91174857D01*
X96151715Y-91117714D01*
X96123144Y-91003429D01*
X96123144Y-90803429D01*
X96151715Y-90689143D01*
X96208858Y-90632000D01*
X96266001Y-90603429D01*
X97066000Y-91203429D02*
X96780286Y-91203429D01*
X96780286Y-90603429D01*
X95794572Y-86123429D02*
X95508858Y-86123429D01*
X95508858Y-85523429D01*
X95994572Y-86123429D02*
X95994572Y-85723429D01*
X95994572Y-85523429D02*
X95966001Y-85552000D01*
X95994572Y-85580571D01*
X96023144Y-85552000D01*
X95994572Y-85523429D01*
X95994572Y-85580571D01*
X96280286Y-85723429D02*
X96280286Y-86123429D01*
X96280286Y-85780571D02*
X96308858Y-85752000D01*
X96366000Y-85723429D01*
X96451715Y-85723429D01*
X96508858Y-85752000D01*
X96537429Y-85809143D01*
X96537429Y-86123429D01*
X96823143Y-86123429D02*
X96823143Y-85523429D01*
X96880286Y-85894857D02*
X97051715Y-86123429D01*
X97051715Y-85723429D02*
X96823143Y-85952000D01*
X95494572Y-88634857D02*
X95580286Y-88663429D01*
X95723143Y-88663429D01*
X95780286Y-88634857D01*
X95808857Y-88606286D01*
X95837429Y-88549143D01*
X95837429Y-88492000D01*
X95808857Y-88434857D01*
X95780286Y-88406286D01*
X95723143Y-88377714D01*
X95608857Y-88349143D01*
X95551715Y-88320571D01*
X95523143Y-88292000D01*
X95494572Y-88234857D01*
X95494572Y-88177714D01*
X95523143Y-88120571D01*
X95551715Y-88092000D01*
X95608857Y-88063429D01*
X95751715Y-88063429D01*
X95837429Y-88092000D01*
X96094572Y-88663429D02*
X96094572Y-88063429D01*
X96323144Y-88063429D01*
X96380286Y-88092000D01*
X96408858Y-88120571D01*
X96437429Y-88177714D01*
X96437429Y-88263429D01*
X96408858Y-88320571D01*
X96380286Y-88349143D01*
X96323144Y-88377714D01*
X96094572Y-88377714D01*
X96694572Y-88663429D02*
X96694572Y-88063429D01*
X96837429Y-88063429D01*
X96923144Y-88092000D01*
X96980286Y-88149143D01*
X97008858Y-88206286D01*
X97037429Y-88320571D01*
X97037429Y-88406286D01*
X97008858Y-88520571D01*
X96980286Y-88577714D01*
X96923144Y-88634857D01*
X96837429Y-88663429D01*
X96694572Y-88663429D01*
X69013429Y-109334286D02*
X69013429Y-109620000D01*
X69299143Y-109648571D01*
X69270571Y-109620000D01*
X69242000Y-109562857D01*
X69242000Y-109420000D01*
X69270571Y-109362857D01*
X69299143Y-109334286D01*
X69356286Y-109305714D01*
X69499143Y-109305714D01*
X69556286Y-109334286D01*
X69584857Y-109362857D01*
X69613429Y-109420000D01*
X69613429Y-109562857D01*
X69584857Y-109620000D01*
X69556286Y-109648571D01*
X69013429Y-109134285D02*
X69613429Y-108934285D01*
X69013429Y-108734285D01*
X75109429Y-110105715D02*
X75109429Y-109734286D01*
X75338000Y-109934286D01*
X75338000Y-109848572D01*
X75366571Y-109791429D01*
X75395143Y-109762858D01*
X75452286Y-109734286D01*
X75595143Y-109734286D01*
X75652286Y-109762858D01*
X75680857Y-109791429D01*
X75709429Y-109848572D01*
X75709429Y-110020000D01*
X75680857Y-110077143D01*
X75652286Y-110105715D01*
X75652286Y-109477143D02*
X75680857Y-109448571D01*
X75709429Y-109477143D01*
X75680857Y-109505714D01*
X75652286Y-109477143D01*
X75709429Y-109477143D01*
X75109429Y-109248572D02*
X75109429Y-108877143D01*
X75338000Y-109077143D01*
X75338000Y-108991429D01*
X75366571Y-108934286D01*
X75395143Y-108905715D01*
X75452286Y-108877143D01*
X75595143Y-108877143D01*
X75652286Y-108905715D01*
X75680857Y-108934286D01*
X75709429Y-108991429D01*
X75709429Y-109162857D01*
X75680857Y-109220000D01*
X75652286Y-109248572D01*
X75109429Y-108705714D02*
X75709429Y-108505714D01*
X75109429Y-108305714D01*
X119773714Y-172391429D02*
X119488000Y-172391429D01*
X119459429Y-172677143D01*
X119488000Y-172648571D01*
X119545143Y-172620000D01*
X119688000Y-172620000D01*
X119745143Y-172648571D01*
X119773714Y-172677143D01*
X119802286Y-172734286D01*
X119802286Y-172877143D01*
X119773714Y-172934286D01*
X119745143Y-172962857D01*
X119688000Y-172991429D01*
X119545143Y-172991429D01*
X119488000Y-172962857D01*
X119459429Y-172934286D01*
X119973715Y-172391429D02*
X120173715Y-172991429D01*
X120373715Y-172391429D01*
X138734858Y-172420000D02*
X138677715Y-172391429D01*
X138592001Y-172391429D01*
X138506286Y-172420000D01*
X138449144Y-172477143D01*
X138420572Y-172534286D01*
X138392001Y-172648571D01*
X138392001Y-172734286D01*
X138420572Y-172848571D01*
X138449144Y-172905714D01*
X138506286Y-172962857D01*
X138592001Y-172991429D01*
X138649144Y-172991429D01*
X138734858Y-172962857D01*
X138763429Y-172934286D01*
X138763429Y-172734286D01*
X138649144Y-172734286D01*
X139020572Y-172991429D02*
X139020572Y-172391429D01*
X139363429Y-172991429D01*
X139363429Y-172391429D01*
X139649143Y-172991429D02*
X139649143Y-172391429D01*
X139792000Y-172391429D01*
X139877715Y-172420000D01*
X139934857Y-172477143D01*
X139963429Y-172534286D01*
X139992000Y-172648571D01*
X139992000Y-172734286D01*
X139963429Y-172848571D01*
X139934857Y-172905714D01*
X139877715Y-172962857D01*
X139792000Y-172991429D01*
X139649143Y-172991429D01*
X102870000Y-115570000D02*
X102362000Y-115570000D01*
X103632000Y-114808000D02*
X102870000Y-115570000D01*
X132588000Y-91440000D02*
X133350000Y-90678000D01*
X132842000Y-113792000D02*
X132842000Y-114554000D01*
X124714000Y-124460000D02*
X123444000Y-123190000D01*
X78232000Y-124714000D02*
X77724000Y-124714000D01*
X79502000Y-125984000D02*
X78232000Y-124714000D01*
X113284000Y-154686000D02*
X113284000Y-155956000D01*
X105549714Y-157151429D02*
X105264000Y-157151429D01*
X105235429Y-157437143D01*
X105264000Y-157408571D01*
X105321143Y-157380000D01*
X105464000Y-157380000D01*
X105521143Y-157408571D01*
X105549714Y-157437143D01*
X105578286Y-157494286D01*
X105578286Y-157637143D01*
X105549714Y-157694286D01*
X105521143Y-157722857D01*
X105464000Y-157751429D01*
X105321143Y-157751429D01*
X105264000Y-157722857D01*
X105235429Y-157694286D01*
X105749715Y-157151429D02*
X105949715Y-157751429D01*
X106149715Y-157151429D01*
X112572858Y-157180000D02*
X112515715Y-157151429D01*
X112430001Y-157151429D01*
X112344286Y-157180000D01*
X112287144Y-157237143D01*
X112258572Y-157294286D01*
X112230001Y-157408571D01*
X112230001Y-157494286D01*
X112258572Y-157608571D01*
X112287144Y-157665714D01*
X112344286Y-157722857D01*
X112430001Y-157751429D01*
X112487144Y-157751429D01*
X112572858Y-157722857D01*
X112601429Y-157694286D01*
X112601429Y-157494286D01*
X112487144Y-157494286D01*
X112858572Y-157751429D02*
X112858572Y-157151429D01*
X113201429Y-157751429D01*
X113201429Y-157151429D01*
X113487143Y-157751429D02*
X113487143Y-157151429D01*
X113630000Y-157151429D01*
X113715715Y-157180000D01*
X113772857Y-157237143D01*
X113801429Y-157294286D01*
X113830000Y-157408571D01*
X113830000Y-157494286D01*
X113801429Y-157608571D01*
X113772857Y-157665714D01*
X113715715Y-157722857D01*
X113630000Y-157751429D01*
X113487143Y-157751429D01*
X107748572Y-175531429D02*
X107748572Y-174931429D01*
X107891429Y-174931429D01*
X107977144Y-174960000D01*
X108034286Y-175017143D01*
X108062858Y-175074286D01*
X108091429Y-175188571D01*
X108091429Y-175274286D01*
X108062858Y-175388571D01*
X108034286Y-175445714D01*
X107977144Y-175502857D01*
X107891429Y-175531429D01*
X107748572Y-175531429D01*
X108348572Y-175531429D02*
X108348572Y-175131429D01*
X108348572Y-174931429D02*
X108320001Y-174960000D01*
X108348572Y-174988571D01*
X108377144Y-174960000D01*
X108348572Y-174931429D01*
X108348572Y-174988571D01*
X108605715Y-175502857D02*
X108662858Y-175531429D01*
X108777143Y-175531429D01*
X108834286Y-175502857D01*
X108862858Y-175445714D01*
X108862858Y-175417143D01*
X108834286Y-175360000D01*
X108777143Y-175331429D01*
X108691429Y-175331429D01*
X108634286Y-175302857D01*
X108605715Y-175245714D01*
X108605715Y-175217143D01*
X108634286Y-175160000D01*
X108691429Y-175131429D01*
X108777143Y-175131429D01*
X108834286Y-175160000D01*
X109120000Y-175131429D02*
X109120000Y-175731429D01*
X109120000Y-175160000D02*
X109177143Y-175131429D01*
X109291429Y-175131429D01*
X109348572Y-175160000D01*
X109377143Y-175188571D01*
X109405714Y-175245714D01*
X109405714Y-175417143D01*
X109377143Y-175474286D01*
X109348572Y-175502857D01*
X109291429Y-175531429D01*
X109177143Y-175531429D01*
X109120000Y-175502857D01*
X109748571Y-175531429D02*
X109691429Y-175502857D01*
X109662857Y-175445714D01*
X109662857Y-174931429D01*
X110234286Y-175531429D02*
X110234286Y-175217143D01*
X110205715Y-175160000D01*
X110148572Y-175131429D01*
X110034286Y-175131429D01*
X109977143Y-175160000D01*
X110234286Y-175502857D02*
X110177143Y-175531429D01*
X110034286Y-175531429D01*
X109977143Y-175502857D01*
X109948572Y-175445714D01*
X109948572Y-175388571D01*
X109977143Y-175331429D01*
X110034286Y-175302857D01*
X110177143Y-175302857D01*
X110234286Y-175274286D01*
X110462857Y-175131429D02*
X110605714Y-175531429D01*
X110748572Y-175131429D02*
X110605714Y-175531429D01*
X110548572Y-175674286D01*
X110520000Y-175702857D01*
X110462857Y-175731429D01*
X81068857Y-173308571D02*
X81068857Y-172851428D01*
X81068857Y-172565714D02*
X81068857Y-172108571D01*
X80983143Y-171822857D02*
X80983143Y-171622857D01*
X81297429Y-171537143D02*
X81297429Y-171822857D01*
X80697429Y-171822857D01*
X80697429Y-171537143D01*
X80897429Y-171280000D02*
X81297429Y-171280000D01*
X80954571Y-171280000D02*
X80926000Y-171251428D01*
X80897429Y-171194286D01*
X80897429Y-171108571D01*
X80926000Y-171051428D01*
X80983143Y-171022857D01*
X81297429Y-171022857D01*
X81268857Y-170480000D02*
X81297429Y-170537143D01*
X81297429Y-170651429D01*
X81268857Y-170708571D01*
X81240286Y-170737143D01*
X81183143Y-170765714D01*
X81011714Y-170765714D01*
X80954571Y-170737143D01*
X80926000Y-170708571D01*
X80897429Y-170651429D01*
X80897429Y-170537143D01*
X80926000Y-170480000D01*
X81297429Y-170137143D02*
X81268857Y-170194285D01*
X81240286Y-170222857D01*
X81183143Y-170251428D01*
X81011714Y-170251428D01*
X80954571Y-170222857D01*
X80926000Y-170194285D01*
X80897429Y-170137143D01*
X80897429Y-170051428D01*
X80926000Y-169994285D01*
X80954571Y-169965714D01*
X81011714Y-169937143D01*
X81183143Y-169937143D01*
X81240286Y-169965714D01*
X81268857Y-169994285D01*
X81297429Y-170051428D01*
X81297429Y-170137143D01*
X81297429Y-169422857D02*
X80697429Y-169422857D01*
X81268857Y-169422857D02*
X81297429Y-169480000D01*
X81297429Y-169594286D01*
X81268857Y-169651428D01*
X81240286Y-169680000D01*
X81183143Y-169708571D01*
X81011714Y-169708571D01*
X80954571Y-169680000D01*
X80926000Y-169651428D01*
X80897429Y-169594286D01*
X80897429Y-169480000D01*
X80926000Y-169422857D01*
X81268857Y-168908571D02*
X81297429Y-168965714D01*
X81297429Y-169080000D01*
X81268857Y-169137143D01*
X81211714Y-169165714D01*
X80983143Y-169165714D01*
X80926000Y-169137143D01*
X80897429Y-169080000D01*
X80897429Y-168965714D01*
X80926000Y-168908571D01*
X80983143Y-168880000D01*
X81040286Y-168880000D01*
X81097429Y-169165714D01*
X81297429Y-168622857D02*
X80897429Y-168622857D01*
X81011714Y-168622857D02*
X80954571Y-168594285D01*
X80926000Y-168565714D01*
X80897429Y-168508571D01*
X80897429Y-168451428D01*
X81068857Y-168251428D02*
X81068857Y-167794285D01*
X81068857Y-167508571D02*
X81068857Y-167051428D01*
X81068857Y-165887142D02*
X81068857Y-165429999D01*
X80983143Y-164944285D02*
X81011714Y-164858571D01*
X81040286Y-164829999D01*
X81097429Y-164801428D01*
X81183143Y-164801428D01*
X81240286Y-164829999D01*
X81268857Y-164858571D01*
X81297429Y-164915713D01*
X81297429Y-165144285D01*
X80697429Y-165144285D01*
X80697429Y-164944285D01*
X80726000Y-164887142D01*
X80754571Y-164858571D01*
X80811714Y-164829999D01*
X80868857Y-164829999D01*
X80926000Y-164858571D01*
X80954571Y-164887142D01*
X80983143Y-164944285D01*
X80983143Y-165144285D01*
X80897429Y-164287142D02*
X81297429Y-164287142D01*
X80897429Y-164544285D02*
X81211714Y-164544285D01*
X81268857Y-164515713D01*
X81297429Y-164458571D01*
X81297429Y-164372856D01*
X81268857Y-164315713D01*
X81240286Y-164287142D01*
X80897429Y-164087142D02*
X80897429Y-163858571D01*
X80697429Y-164001428D02*
X81211714Y-164001428D01*
X81268857Y-163972856D01*
X81297429Y-163915714D01*
X81297429Y-163858571D01*
X80897429Y-163744285D02*
X80897429Y-163515714D01*
X80697429Y-163658571D02*
X81211714Y-163658571D01*
X81268857Y-163629999D01*
X81297429Y-163572857D01*
X81297429Y-163515714D01*
X81297429Y-163230000D02*
X81268857Y-163287142D01*
X81240286Y-163315714D01*
X81183143Y-163344285D01*
X81011714Y-163344285D01*
X80954571Y-163315714D01*
X80926000Y-163287142D01*
X80897429Y-163230000D01*
X80897429Y-163144285D01*
X80926000Y-163087142D01*
X80954571Y-163058571D01*
X81011714Y-163030000D01*
X81183143Y-163030000D01*
X81240286Y-163058571D01*
X81268857Y-163087142D01*
X81297429Y-163144285D01*
X81297429Y-163230000D01*
X80897429Y-162772857D02*
X81297429Y-162772857D01*
X80954571Y-162772857D02*
X80926000Y-162744285D01*
X80897429Y-162687143D01*
X80897429Y-162601428D01*
X80926000Y-162544285D01*
X80983143Y-162515714D01*
X81297429Y-162515714D01*
X81068857Y-162230000D02*
X81068857Y-161772857D01*
D11*
X105120000Y-153755000D02*
X106120000Y-154755000D01*
X106120000Y-154755000D02*
X113320000Y-154755000D01*
X113320000Y-154755000D02*
X113320000Y-147505000D01*
X113320000Y-147505000D02*
X105120000Y-147505000D01*
X105120000Y-147505000D02*
X105120000Y-153755000D01*
X124460000Y-172720000D02*
X124460000Y-142240000D01*
X124460000Y-142240000D02*
X134620000Y-142240000D01*
X134620000Y-142240000D02*
X134620000Y-172720000D01*
X134620000Y-172720000D02*
X124460000Y-172720000D01*
X99060000Y-137160000D02*
G75*
G03X99060000Y-137160000I-15240000J0D01*
G01*
X103750000Y-114950000D02*
X100950000Y-112150000D01*
X100950000Y-103750000D02*
X100950000Y-100950000D01*
X100950000Y-100950000D02*
X103750000Y-100950000D01*
X114950000Y-112150000D02*
X114950000Y-114950000D01*
X114950000Y-114950000D02*
X112150000Y-114950000D01*
X114950000Y-103750000D02*
X114950000Y-100950000D01*
X114950000Y-100950000D02*
X112150000Y-100950000D01*
X132334000Y-91440000D02*
G75*
G03X132588000Y-91694000I254000J0D01*
G01*
X132723000Y-95622000D02*
X132723000Y-91322000D01*
X132723000Y-91322000D02*
X127373000Y-91322000D01*
X127373000Y-91322000D02*
X127373000Y-95622000D01*
X127373000Y-95622000D02*
X132723000Y-95622000D01*
X60939999Y-156228000D02*
G75*
G03X61740000Y-155428000I-1249999J2050000D01*
G01*
X58440001Y-156228000D02*
G75*
G02X57640000Y-155428000I1249999J2050000D01*
G01*
X61728726Y-152903797D02*
G75*
G03X61390000Y-152478000I-2038726J-1274203D01*
G01*
X57651274Y-152903797D02*
G75*
G02X57990000Y-152478000I2038726J-1274203D01*
G01*
X61390000Y-152478000D02*
X57990000Y-152478000D01*
X100529000Y-170136000D02*
X100529000Y-170336000D01*
X100529000Y-172730000D02*
X100529000Y-172550000D01*
X97301256Y-172419643D02*
G75*
G03X100529000Y-172736000I1727744J1003643D01*
G01*
X97976994Y-172549068D02*
G75*
G03X100080000Y-172550000I1052006J1133068D01*
G01*
X100516220Y-170109274D02*
G75*
G03X97279000Y-170456000I-1497220J-1306726D01*
G01*
X100042889Y-170336747D02*
G75*
G03X97995000Y-170356000I-1013889J-1079253D01*
G01*
X124215000Y-131810000D02*
X124215000Y-129810000D01*
X122165000Y-129810000D02*
X122165000Y-131810000D01*
X59182000Y-109855000D02*
X59182000Y-110109000D01*
X59182000Y-110109000D02*
X61468000Y-110109000D01*
X61468000Y-110109000D02*
X61468000Y-109855000D01*
X59182000Y-109855000D02*
X61468000Y-109855000D01*
X61468000Y-109855000D02*
X61468000Y-108204000D01*
X59182000Y-106426000D02*
X59182000Y-104775000D01*
X59182000Y-104775000D02*
X61468000Y-104775000D01*
X61468000Y-104775000D02*
X61468000Y-106426000D01*
X59182000Y-108204000D02*
X59182000Y-109855000D01*
X49022000Y-109855000D02*
X49022000Y-110109000D01*
X49022000Y-110109000D02*
X51308000Y-110109000D01*
X51308000Y-110109000D02*
X51308000Y-109855000D01*
X49022000Y-109855000D02*
X51308000Y-109855000D01*
X51308000Y-109855000D02*
X51308000Y-108204000D01*
X49022000Y-106426000D02*
X49022000Y-104775000D01*
X49022000Y-104775000D02*
X51308000Y-104775000D01*
X51308000Y-104775000D02*
X51308000Y-106426000D01*
X49022000Y-108204000D02*
X49022000Y-109855000D01*
X115307000Y-151654000D02*
X115307000Y-153654000D01*
X117357000Y-153654000D02*
X117357000Y-151654000D01*
X113275000Y-151654000D02*
X113275000Y-153654000D01*
X115325000Y-153654000D02*
X115325000Y-151654000D01*
X116840000Y-129540000D02*
X116840000Y-137160000D01*
X119380000Y-129540000D02*
X119380000Y-137160000D01*
X119660000Y-126720000D02*
X119660000Y-128270000D01*
X116840000Y-137160000D02*
X119380000Y-137160000D01*
X119380000Y-129540000D02*
X116840000Y-129540000D01*
X116560000Y-128270000D02*
X116560000Y-126720000D01*
X116560000Y-126720000D02*
X119660000Y-126720000D01*
X104140000Y-129540000D02*
X104140000Y-137160000D01*
X106680000Y-129540000D02*
X106680000Y-137160000D01*
X106960000Y-126720000D02*
X106960000Y-128270000D01*
X104140000Y-137160000D02*
X106680000Y-137160000D01*
X106680000Y-129540000D02*
X104140000Y-129540000D01*
X103860000Y-128270000D02*
X103860000Y-126720000D01*
X103860000Y-126720000D02*
X106960000Y-126720000D01*
X110490000Y-129540000D02*
X110490000Y-137160000D01*
X113030000Y-129540000D02*
X113030000Y-137160000D01*
X113310000Y-126720000D02*
X113310000Y-128270000D01*
X110490000Y-137160000D02*
X113030000Y-137160000D01*
X113030000Y-129540000D02*
X110490000Y-129540000D01*
X110210000Y-128270000D02*
X110210000Y-126720000D01*
X110210000Y-126720000D02*
X113310000Y-126720000D01*
X119439000Y-151654000D02*
X119439000Y-153654000D01*
X117289000Y-153654000D02*
X117289000Y-151654000D01*
X98060000Y-166565000D02*
X100060000Y-166565000D01*
X100060000Y-168715000D02*
X98060000Y-168715000D01*
X60690000Y-161095000D02*
X58690000Y-161095000D01*
X58690000Y-158945000D02*
X60690000Y-158945000D01*
X51689000Y-106934000D02*
X51689000Y-109982000D01*
X51689000Y-109982000D02*
X58801000Y-109982000D01*
X58801000Y-109982000D02*
X58801000Y-106934000D01*
X51689000Y-103886000D02*
X51689000Y-103124000D01*
X51689000Y-103124000D02*
X53213000Y-100838000D01*
X53213000Y-100838000D02*
X57277000Y-100838000D01*
X57277000Y-100838000D02*
X58801000Y-103124000D01*
X58801000Y-103124000D02*
X58801000Y-103886000D01*
X136960000Y-125295000D02*
X135960000Y-124295000D01*
X135960000Y-124295000D02*
X124660000Y-124295000D01*
X124660000Y-124295000D02*
X124660000Y-137325000D01*
X124660000Y-137325000D02*
X136960000Y-137325000D01*
X136960000Y-137325000D02*
X136960000Y-125295000D01*
X66590000Y-144780000D02*
G75*
G03X66590000Y-144780000I-6900000J0D01*
G01*
X90535000Y-158555000D02*
X88535000Y-158555000D01*
X88535000Y-156405000D02*
X90535000Y-156405000D01*
X126476000Y-120895000D02*
X124476000Y-120895000D01*
X124476000Y-122945000D02*
X126476000Y-122945000D01*
X135310880Y-108264960D02*
X135310880Y-103063040D01*
X132913120Y-103063040D02*
X132913120Y-108264960D01*
X131813300Y-110263940D02*
X132913120Y-110263940D01*
X132313680Y-110863380D02*
X132313680Y-109664500D01*
X132913120Y-109659420D02*
X135310880Y-109659420D01*
X137144000Y-112259000D02*
X135144000Y-112259000D01*
X135144000Y-114309000D02*
X137144000Y-114309000D01*
X135119000Y-105172000D02*
X135119000Y-107172000D01*
X137169000Y-107172000D02*
X137169000Y-105172000D01*
X126501000Y-118348000D02*
X126501000Y-116348000D01*
X124451000Y-116348000D02*
X124451000Y-118348000D01*
X63230000Y-123435000D02*
X61230000Y-123435000D01*
X61230000Y-125485000D02*
X63230000Y-125485000D01*
X52435000Y-118990000D02*
X50435000Y-118990000D01*
X50435000Y-121040000D02*
X52435000Y-121040000D01*
X61350000Y-115935000D02*
X61350000Y-113935000D01*
X59300000Y-113935000D02*
X59300000Y-115935000D01*
X129175000Y-90560000D02*
X131175000Y-90560000D01*
X131175000Y-88510000D02*
X129175000Y-88510000D01*
D12*
X57445000Y-114935000D02*
G75*
G03X57445000Y-114935000I-2200000J0D01*
G01*
D11*
X51595000Y-117585000D02*
X52595000Y-118585000D01*
X52595000Y-118585000D02*
X58895000Y-118585000D01*
X58895000Y-118585000D02*
X58895000Y-111285000D01*
X58895000Y-111285000D02*
X51595000Y-111285000D01*
X51595000Y-111285000D02*
X51595000Y-117585000D01*
X57420000Y-127195000D02*
X59420000Y-127195000D01*
X59420000Y-129345000D02*
X57420000Y-129345000D01*
X44645000Y-124190000D02*
X44645000Y-122190000D01*
X46795000Y-122190000D02*
X46795000Y-124190000D01*
X72585000Y-103870000D02*
X72585000Y-101870000D01*
X74735000Y-101870000D02*
X74735000Y-103870000D01*
X44010000Y-115935000D02*
X44010000Y-113935000D01*
X46160000Y-113935000D02*
X46160000Y-115935000D01*
X128635000Y-117205000D02*
X129435000Y-117205000D01*
X132985000Y-121555000D02*
X132185000Y-121555000D01*
X132985000Y-117205000D02*
X132185000Y-117205000D01*
X128635000Y-121555000D02*
X128635000Y-120755000D01*
X132985000Y-121555000D02*
X132985000Y-120755000D01*
X132985000Y-117205000D02*
X132985000Y-118005000D01*
X128635000Y-117205000D02*
X128635000Y-118005000D01*
X133064000Y-113744000D02*
X134364000Y-113744000D01*
X134364000Y-113744000D02*
X134364000Y-113344000D01*
X134364000Y-113344000D02*
X133964000Y-113344000D01*
X133964000Y-113344000D02*
X133964000Y-113744000D01*
X129064000Y-113744000D02*
X133064000Y-113744000D01*
X133064000Y-113744000D02*
X133064000Y-107744000D01*
X133064000Y-107744000D02*
X129064000Y-107744000D01*
X129064000Y-107744000D02*
X129064000Y-113744000D01*
X54945000Y-122125000D02*
G75*
G03X54945000Y-122125000I-100000J0D01*
G01*
X55495000Y-122375000D02*
X54995000Y-122375000D01*
X55495000Y-125275000D02*
X55495000Y-122375000D01*
X54995000Y-125275000D02*
X55495000Y-125275000D01*
X54995000Y-122375000D02*
X54995000Y-125275000D01*
X74710000Y-111370000D02*
X74710000Y-107770000D01*
X72610000Y-111370000D02*
X72610000Y-107770000D01*
X73360000Y-109320000D02*
X73960000Y-109320000D01*
X73960000Y-109320000D02*
X73660000Y-109620000D01*
X73660000Y-109620000D02*
X73460000Y-109420000D01*
X73460000Y-109420000D02*
X73710000Y-109420000D01*
X73710000Y-109420000D02*
X73660000Y-109470000D01*
X73160000Y-109720000D02*
X74160000Y-109720000D01*
X73660000Y-109220000D02*
X73660000Y-108720000D01*
X73660000Y-109720000D02*
X73160000Y-109220000D01*
X73160000Y-109220000D02*
X74160000Y-109220000D01*
X74160000Y-109220000D02*
X73660000Y-109720000D01*
X88535000Y-155965000D02*
X90535000Y-155965000D01*
X90535000Y-153915000D02*
X88535000Y-153915000D01*
X98155000Y-158995000D02*
X96155000Y-158995000D01*
X96155000Y-161045000D02*
X98155000Y-161045000D01*
X88535000Y-173745000D02*
X90535000Y-173745000D01*
X90535000Y-171695000D02*
X88535000Y-171695000D01*
X90535000Y-166175000D02*
X88535000Y-166175000D01*
X88535000Y-164025000D02*
X90535000Y-164025000D01*
X90535000Y-163635000D02*
X88535000Y-163635000D01*
X88535000Y-161485000D02*
X90535000Y-161485000D01*
X90535000Y-161095000D02*
X88535000Y-161095000D01*
X88535000Y-158945000D02*
X90535000Y-158945000D01*
X90535000Y-168715000D02*
X88535000Y-168715000D01*
X88535000Y-166565000D02*
X90535000Y-166565000D01*
X90535000Y-171255000D02*
X88535000Y-171255000D01*
X88535000Y-169105000D02*
X90535000Y-169105000D01*
X81635000Y-162560000D02*
X81635000Y-161010000D01*
X81635000Y-161010000D02*
X84735000Y-161010000D01*
X84735000Y-161010000D02*
X84735000Y-162560000D01*
X84455000Y-163830000D02*
X84455000Y-173990000D01*
X84455000Y-173990000D02*
X81915000Y-173990000D01*
X81915000Y-173990000D02*
X81915000Y-163830000D01*
X84455000Y-163830000D02*
X81915000Y-163830000D01*
X82305000Y-111490000D02*
X82305000Y-109490000D01*
X80255000Y-109490000D02*
X80255000Y-111490000D01*
X80255000Y-115840000D02*
X80255000Y-117840000D01*
X82305000Y-117840000D02*
X82305000Y-115840000D01*
X115325000Y-120380000D02*
X115325000Y-118380000D01*
X113275000Y-118380000D02*
X113275000Y-120380000D01*
X112785000Y-120380000D02*
X112785000Y-118380000D01*
X110735000Y-118380000D02*
X110735000Y-120380000D01*
X110245000Y-120380000D02*
X110245000Y-118380000D01*
X108195000Y-118380000D02*
X108195000Y-120380000D01*
X73644000Y-86351000D02*
X71644000Y-86351000D01*
X71644000Y-88401000D02*
X73644000Y-88401000D01*
X121650000Y-106925000D02*
X119650000Y-106925000D01*
X119650000Y-108975000D02*
X121650000Y-108975000D01*
X94250000Y-107705000D02*
X96250000Y-107705000D01*
X96250000Y-105655000D02*
X94250000Y-105655000D01*
X107705000Y-120380000D02*
X107705000Y-118380000D01*
X105655000Y-118380000D02*
X105655000Y-120380000D01*
X94250000Y-110245000D02*
X96250000Y-110245000D01*
X96250000Y-108195000D02*
X94250000Y-108195000D01*
X117865000Y-120380000D02*
X117865000Y-118380000D01*
X115815000Y-118380000D02*
X115815000Y-120380000D01*
X105165000Y-120380000D02*
X105165000Y-118380000D01*
X103115000Y-118380000D02*
X103115000Y-120380000D01*
X120405000Y-120380000D02*
X120405000Y-118380000D01*
X118355000Y-118380000D02*
X118355000Y-120380000D01*
X121650000Y-104385000D02*
X119650000Y-104385000D01*
X119650000Y-106435000D02*
X121650000Y-106435000D01*
X78360000Y-81710000D02*
X78360000Y-103710000D01*
X78360000Y-103710000D02*
X94360000Y-103710000D01*
X94360000Y-103710000D02*
X94360000Y-81710000D01*
X94360000Y-81710000D02*
X78360000Y-81710000D01*
X102675000Y-118380000D02*
X102675000Y-120380000D01*
X100525000Y-120380000D02*
X100525000Y-118380000D01*
X108220000Y-97477000D02*
X110220000Y-97477000D01*
X110220000Y-99627000D02*
X108220000Y-99627000D01*
X119650000Y-109415000D02*
X121650000Y-109415000D01*
X121650000Y-111565000D02*
X119650000Y-111565000D01*
X96250000Y-112835000D02*
X94250000Y-112835000D01*
X94250000Y-110685000D02*
X96250000Y-110685000D01*
X97985000Y-120380000D02*
X97985000Y-118380000D01*
X100135000Y-118380000D02*
X100135000Y-120380000D01*
X110220000Y-97087000D02*
X108220000Y-97087000D01*
X108220000Y-94937000D02*
X110220000Y-94937000D01*
X110220000Y-94547000D02*
X108220000Y-94547000D01*
X108220000Y-92397000D02*
X110220000Y-92397000D01*
X110220000Y-92007000D02*
X108220000Y-92007000D01*
X108220000Y-89857000D02*
X110220000Y-89857000D01*
X110220000Y-84387000D02*
X108220000Y-84387000D01*
X108220000Y-82237000D02*
X110220000Y-82237000D01*
X110220000Y-89467000D02*
X108220000Y-89467000D01*
X108220000Y-87317000D02*
X110220000Y-87317000D01*
X110220000Y-86927000D02*
X108220000Y-86927000D01*
X108220000Y-84777000D02*
X110220000Y-84777000D01*
X71644000Y-88841000D02*
X73644000Y-88841000D01*
X73644000Y-90991000D02*
X71644000Y-90991000D01*
X71644000Y-91381000D02*
X73644000Y-91381000D01*
X73644000Y-93531000D02*
X71644000Y-93531000D01*
X108145000Y-133080000D02*
X108145000Y-131080000D01*
X110295000Y-131080000D02*
X110295000Y-133080000D01*
X114495000Y-133080000D02*
X114495000Y-131080000D01*
X116645000Y-131080000D02*
X116645000Y-133080000D01*
X86360000Y-107315000D02*
X87630000Y-108585000D01*
X87630000Y-120015000D02*
X86360000Y-121285000D01*
X83820000Y-121285000D02*
X82550000Y-120015000D01*
X83820000Y-107315000D02*
X82550000Y-108585000D01*
X87630000Y-108585000D02*
X87630000Y-120015000D01*
X86360000Y-107315000D02*
X83820000Y-107315000D01*
X82550000Y-108585000D02*
X82550000Y-120015000D01*
X83820000Y-121285000D02*
X86360000Y-121285000D01*
X118881000Y-95996000D02*
X118881000Y-93996000D01*
X116831000Y-93996000D02*
X116831000Y-95996000D01*
X119634000Y-93726000D02*
X118364000Y-92456000D01*
X122504000Y-94646000D02*
X121504000Y-93646000D01*
X121504000Y-93646000D02*
X119304000Y-93646000D01*
X119304000Y-93646000D02*
X119304000Y-96346000D01*
X119304000Y-96346000D02*
X122504000Y-96346000D01*
X122504000Y-96346000D02*
X122504000Y-94646000D01*
X50822000Y-117114320D02*
X50622200Y-117114320D01*
X50772000Y-116657280D02*
X50623000Y-116657280D01*
X50822000Y-112511840D02*
X50673000Y-112511840D01*
X47222000Y-117109240D02*
X47371000Y-117109240D01*
X47222000Y-116657280D02*
X47371000Y-116657280D01*
X47222000Y-112506760D02*
X47371000Y-112506760D01*
X50970980Y-116657280D02*
X50772860Y-116657280D01*
X47023020Y-116657280D02*
X47221140Y-116657280D01*
X51018440Y-112511840D02*
X50820320Y-112511840D01*
X51018440Y-117114320D02*
X51018440Y-112511840D01*
X51018440Y-117114320D02*
X50820320Y-117114320D01*
X47023020Y-117109240D02*
X47221140Y-117109240D01*
X47023020Y-117109240D02*
X47023020Y-112506760D01*
X47023020Y-112506760D02*
X47221140Y-112506760D01*
X61193680Y-122450000D02*
X61193680Y-122250200D01*
X61650720Y-122400000D02*
X61650720Y-122251000D01*
X65796160Y-122450000D02*
X65796160Y-122301000D01*
X61198760Y-118850000D02*
X61198760Y-118999000D01*
X61650720Y-118850000D02*
X61650720Y-118999000D01*
X65801240Y-118850000D02*
X65801240Y-118999000D01*
X61650720Y-122598980D02*
X61650720Y-122400860D01*
X61650720Y-118651020D02*
X61650720Y-118849140D01*
X65796160Y-122646440D02*
X65796160Y-122448320D01*
X61193680Y-122646440D02*
X65796160Y-122646440D01*
X61193680Y-122646440D02*
X61193680Y-122448320D01*
X61198760Y-118651020D02*
X61198760Y-118849140D01*
X61198760Y-118651020D02*
X65801240Y-118651020D01*
X65801240Y-118651020D02*
X65801240Y-118849140D01*
X68254880Y-84899500D02*
X59253120Y-84899500D01*
X68254880Y-81399380D02*
X59253120Y-81399380D01*
X59253120Y-81399380D02*
X59253120Y-95900240D01*
X59253120Y-95900240D02*
X68254880Y-95900240D01*
X68254880Y-95900240D02*
X68254880Y-81399380D01*
X72170000Y-111370000D02*
X72170000Y-107770000D01*
X70070000Y-111370000D02*
X70070000Y-107770000D01*
X70820000Y-109320000D02*
X71420000Y-109320000D01*
X71420000Y-109320000D02*
X71120000Y-109620000D01*
X71120000Y-109620000D02*
X70920000Y-109420000D01*
X70920000Y-109420000D02*
X71170000Y-109420000D01*
X71170000Y-109420000D02*
X71120000Y-109470000D01*
X70620000Y-109720000D02*
X71620000Y-109720000D01*
X71120000Y-109220000D02*
X71120000Y-108720000D01*
X71120000Y-109720000D02*
X70620000Y-109220000D01*
X70620000Y-109220000D02*
X71620000Y-109220000D01*
X71620000Y-109220000D02*
X71120000Y-109720000D01*
X70045000Y-103870000D02*
X70045000Y-101870000D01*
X72195000Y-101870000D02*
X72195000Y-103870000D01*
X100974000Y-97062000D02*
X104574000Y-97062000D01*
X100974000Y-94962000D02*
X104574000Y-94962000D01*
X103024000Y-95712000D02*
X103024000Y-96312000D01*
X103024000Y-96312000D02*
X102724000Y-96012000D01*
X102724000Y-96012000D02*
X102924000Y-95812000D01*
X102924000Y-95812000D02*
X102924000Y-96062000D01*
X102924000Y-96062000D02*
X102874000Y-96012000D01*
X102624000Y-95512000D02*
X102624000Y-96512000D01*
X103124000Y-96012000D02*
X103624000Y-96012000D01*
X102624000Y-96012000D02*
X103124000Y-95512000D01*
X103124000Y-95512000D02*
X103124000Y-96512000D01*
X103124000Y-96512000D02*
X102624000Y-96012000D01*
X100974000Y-94522000D02*
X104574000Y-94522000D01*
X100974000Y-92422000D02*
X104574000Y-92422000D01*
X103024000Y-93172000D02*
X103024000Y-93772000D01*
X103024000Y-93772000D02*
X102724000Y-93472000D01*
X102724000Y-93472000D02*
X102924000Y-93272000D01*
X102924000Y-93272000D02*
X102924000Y-93522000D01*
X102924000Y-93522000D02*
X102874000Y-93472000D01*
X102624000Y-92972000D02*
X102624000Y-93972000D01*
X103124000Y-93472000D02*
X103624000Y-93472000D01*
X102624000Y-93472000D02*
X103124000Y-92972000D01*
X103124000Y-92972000D02*
X103124000Y-93972000D01*
X103124000Y-93972000D02*
X102624000Y-93472000D01*
X100974000Y-91982000D02*
X104574000Y-91982000D01*
X100974000Y-89882000D02*
X104574000Y-89882000D01*
X103024000Y-90632000D02*
X103024000Y-91232000D01*
X103024000Y-91232000D02*
X102724000Y-90932000D01*
X102724000Y-90932000D02*
X102924000Y-90732000D01*
X102924000Y-90732000D02*
X102924000Y-90982000D01*
X102924000Y-90982000D02*
X102874000Y-90932000D01*
X102624000Y-90432000D02*
X102624000Y-91432000D01*
X103124000Y-90932000D02*
X103624000Y-90932000D01*
X102624000Y-90932000D02*
X103124000Y-90432000D01*
X103124000Y-90432000D02*
X103124000Y-91432000D01*
X103124000Y-91432000D02*
X102624000Y-90932000D01*
X100974000Y-84362000D02*
X104574000Y-84362000D01*
X100974000Y-82262000D02*
X104574000Y-82262000D01*
X103024000Y-83012000D02*
X103024000Y-83612000D01*
X103024000Y-83612000D02*
X102724000Y-83312000D01*
X102724000Y-83312000D02*
X102924000Y-83112000D01*
X102924000Y-83112000D02*
X102924000Y-83362000D01*
X102924000Y-83362000D02*
X102874000Y-83312000D01*
X102624000Y-82812000D02*
X102624000Y-83812000D01*
X103124000Y-83312000D02*
X103624000Y-83312000D01*
X102624000Y-83312000D02*
X103124000Y-82812000D01*
X103124000Y-82812000D02*
X103124000Y-83812000D01*
X103124000Y-83812000D02*
X102624000Y-83312000D01*
X100974000Y-89442000D02*
X104574000Y-89442000D01*
X100974000Y-87342000D02*
X104574000Y-87342000D01*
X103024000Y-88092000D02*
X103024000Y-88692000D01*
X103024000Y-88692000D02*
X102724000Y-88392000D01*
X102724000Y-88392000D02*
X102924000Y-88192000D01*
X102924000Y-88192000D02*
X102924000Y-88442000D01*
X102924000Y-88442000D02*
X102874000Y-88392000D01*
X102624000Y-87892000D02*
X102624000Y-88892000D01*
X103124000Y-88392000D02*
X103624000Y-88392000D01*
X102624000Y-88392000D02*
X103124000Y-87892000D01*
X103124000Y-87892000D02*
X103124000Y-88892000D01*
X103124000Y-88892000D02*
X102624000Y-88392000D01*
X100974000Y-86902000D02*
X104574000Y-86902000D01*
X100974000Y-84802000D02*
X104574000Y-84802000D01*
X103024000Y-85552000D02*
X103024000Y-86152000D01*
X103024000Y-86152000D02*
X102724000Y-85852000D01*
X102724000Y-85852000D02*
X102924000Y-85652000D01*
X102924000Y-85652000D02*
X102924000Y-85902000D01*
X102924000Y-85902000D02*
X102874000Y-85852000D01*
X102624000Y-85352000D02*
X102624000Y-86352000D01*
X103124000Y-85852000D02*
X103624000Y-85852000D01*
X102624000Y-85852000D02*
X103124000Y-85352000D01*
X103124000Y-85352000D02*
X103124000Y-86352000D01*
X103124000Y-86352000D02*
X102624000Y-85852000D01*
X45466000Y-81280000D02*
G75*
G03X45466000Y-81280000I-2286000J0D01*
G01*
X45466000Y-175260000D02*
G75*
G03X45466000Y-175260000I-2286000J0D01*
G01*
X134366000Y-81280000D02*
G75*
G03X134366000Y-81280000I-2286000J0D01*
G01*
X134366000Y-175260000D02*
G75*
G03X134366000Y-175260000I-2286000J0D01*
G01*
X108559714Y-147932857D02*
X108559714Y-148904286D01*
X108616857Y-149018571D01*
X108674000Y-149075714D01*
X108788286Y-149132857D01*
X109016857Y-149132857D01*
X109131143Y-149075714D01*
X109188286Y-149018571D01*
X109245429Y-148904286D01*
X109245429Y-147932857D01*
X110388286Y-147932857D02*
X109816857Y-147932857D01*
X109759714Y-148504286D01*
X109816857Y-148447143D01*
X109931143Y-148390000D01*
X110216857Y-148390000D01*
X110331143Y-148447143D01*
X110388286Y-148504286D01*
X110445429Y-148618571D01*
X110445429Y-148904286D01*
X110388286Y-149018571D01*
X110331143Y-149075714D01*
X110216857Y-149132857D01*
X109931143Y-149132857D01*
X109816857Y-149075714D01*
X109759714Y-149018571D01*
X125142858Y-174438571D02*
X125142858Y-175652857D01*
X125214286Y-175795714D01*
X125285715Y-175867143D01*
X125428572Y-175938571D01*
X125714286Y-175938571D01*
X125857144Y-175867143D01*
X125928572Y-175795714D01*
X126000001Y-175652857D01*
X126000001Y-174438571D01*
X127500001Y-175938571D02*
X126642858Y-175938571D01*
X127071430Y-175938571D02*
X127071430Y-174438571D01*
X126928573Y-174652857D01*
X126785715Y-174795714D01*
X126642858Y-174867143D01*
X128000001Y-174438571D02*
X128928572Y-174438571D01*
X128428572Y-175010000D01*
X128642858Y-175010000D01*
X128785715Y-175081429D01*
X128857144Y-175152857D01*
X128928572Y-175295714D01*
X128928572Y-175652857D01*
X128857144Y-175795714D01*
X128785715Y-175867143D01*
X128642858Y-175938571D01*
X128214286Y-175938571D01*
X128071429Y-175867143D01*
X128000001Y-175795714D01*
X83334286Y-139790286D02*
X83505715Y-139847429D01*
X83562858Y-139904571D01*
X83620001Y-140018857D01*
X83620001Y-140190286D01*
X83562858Y-140304571D01*
X83505715Y-140361714D01*
X83391429Y-140418857D01*
X82934286Y-140418857D01*
X82934286Y-139218857D01*
X83334286Y-139218857D01*
X83448572Y-139276000D01*
X83505715Y-139333143D01*
X83562858Y-139447429D01*
X83562858Y-139561714D01*
X83505715Y-139676000D01*
X83448572Y-139733143D01*
X83334286Y-139790286D01*
X82934286Y-139790286D01*
X84762858Y-140418857D02*
X84077143Y-140418857D01*
X84420001Y-140418857D02*
X84420001Y-139218857D01*
X84305715Y-139390286D01*
X84191429Y-139504571D01*
X84077143Y-139561714D01*
D13*
X93012381Y-137341429D02*
X94947619Y-137341429D01*
X93980000Y-138309048D02*
X93980000Y-136373810D01*
D11*
X99592857Y-109435714D02*
X100564286Y-109435714D01*
X100678571Y-109378571D01*
X100735714Y-109321428D01*
X100792857Y-109207142D01*
X100792857Y-108978571D01*
X100735714Y-108864285D01*
X100678571Y-108807142D01*
X100564286Y-108749999D01*
X99592857Y-108749999D01*
X100792857Y-107549999D02*
X100792857Y-108235714D01*
X100792857Y-107892856D02*
X99592857Y-107892856D01*
X99764286Y-108007142D01*
X99878571Y-108121428D01*
X99935714Y-108235714D01*
X99592857Y-106807142D02*
X99592857Y-106692857D01*
X99650000Y-106578571D01*
X99707143Y-106521428D01*
X99821429Y-106464285D01*
X100050000Y-106407142D01*
X100335714Y-106407142D01*
X100564286Y-106464285D01*
X100678571Y-106521428D01*
X100735714Y-106578571D01*
X100792857Y-106692857D01*
X100792857Y-106807142D01*
X100735714Y-106921428D01*
X100678571Y-106978571D01*
X100564286Y-107035714D01*
X100335714Y-107092857D01*
X100050000Y-107092857D01*
X99821429Y-107035714D01*
X99707143Y-106978571D01*
X99650000Y-106921428D01*
X99592857Y-106807142D01*
X125580857Y-94386286D02*
X126552286Y-94386286D01*
X126666571Y-94329143D01*
X126723714Y-94272000D01*
X126780857Y-94157714D01*
X126780857Y-93929143D01*
X126723714Y-93814857D01*
X126666571Y-93757714D01*
X126552286Y-93700571D01*
X125580857Y-93700571D01*
X126095143Y-92957714D02*
X126038000Y-93072000D01*
X125980857Y-93129143D01*
X125866571Y-93186286D01*
X125809429Y-93186286D01*
X125695143Y-93129143D01*
X125638000Y-93072000D01*
X125580857Y-92957714D01*
X125580857Y-92729143D01*
X125638000Y-92614857D01*
X125695143Y-92557714D01*
X125809429Y-92500571D01*
X125866571Y-92500571D01*
X125980857Y-92557714D01*
X126038000Y-92614857D01*
X126095143Y-92729143D01*
X126095143Y-92957714D01*
X126152286Y-93072000D01*
X126209429Y-93129143D01*
X126323714Y-93186286D01*
X126552286Y-93186286D01*
X126666571Y-93129143D01*
X126723714Y-93072000D01*
X126780857Y-92957714D01*
X126780857Y-92729143D01*
X126723714Y-92614857D01*
X126666571Y-92557714D01*
X126552286Y-92500571D01*
X126323714Y-92500571D01*
X126209429Y-92557714D01*
X126152286Y-92614857D01*
X126095143Y-92729143D01*
X62134762Y-157519619D02*
X62039524Y-157472000D01*
X61944286Y-157376762D01*
X61801429Y-157233905D01*
X61706190Y-157186286D01*
X61610952Y-157186286D01*
X61658571Y-157424381D02*
X61563333Y-157376762D01*
X61468095Y-157281524D01*
X61420476Y-157091048D01*
X61420476Y-156757714D01*
X61468095Y-156567238D01*
X61563333Y-156472000D01*
X61658571Y-156424381D01*
X61849048Y-156424381D01*
X61944286Y-156472000D01*
X62039524Y-156567238D01*
X62087143Y-156757714D01*
X62087143Y-157091048D01*
X62039524Y-157281524D01*
X61944286Y-157376762D01*
X61849048Y-157424381D01*
X61658571Y-157424381D01*
X62420476Y-156424381D02*
X63039524Y-156424381D01*
X62706190Y-156805333D01*
X62849048Y-156805333D01*
X62944286Y-156852952D01*
X62991905Y-156900571D01*
X63039524Y-156995810D01*
X63039524Y-157233905D01*
X62991905Y-157329143D01*
X62944286Y-157376762D01*
X62849048Y-157424381D01*
X62563333Y-157424381D01*
X62468095Y-157376762D01*
X62420476Y-157329143D01*
X123023334Y-127357143D02*
X122975715Y-127404762D01*
X122832858Y-127452381D01*
X122737620Y-127452381D01*
X122594762Y-127404762D01*
X122499524Y-127309524D01*
X122451905Y-127214286D01*
X122404286Y-127023810D01*
X122404286Y-126880952D01*
X122451905Y-126690476D01*
X122499524Y-126595238D01*
X122594762Y-126500000D01*
X122737620Y-126452381D01*
X122832858Y-126452381D01*
X122975715Y-126500000D01*
X123023334Y-126547619D01*
X123404286Y-126547619D02*
X123451905Y-126500000D01*
X123547143Y-126452381D01*
X123785239Y-126452381D01*
X123880477Y-126500000D01*
X123928096Y-126547619D01*
X123975715Y-126642857D01*
X123975715Y-126738095D01*
X123928096Y-126880952D01*
X123356667Y-127452381D01*
X123975715Y-127452381D01*
X62841143Y-107608666D02*
X62888762Y-107656285D01*
X62936381Y-107799142D01*
X62936381Y-107894380D01*
X62888762Y-108037238D01*
X62793524Y-108132476D01*
X62698286Y-108180095D01*
X62507810Y-108227714D01*
X62364952Y-108227714D01*
X62174476Y-108180095D01*
X62079238Y-108132476D01*
X61984000Y-108037238D01*
X61936381Y-107894380D01*
X61936381Y-107799142D01*
X61984000Y-107656285D01*
X62031619Y-107608666D01*
X61936381Y-107275333D02*
X61936381Y-106656285D01*
X62317333Y-106989619D01*
X62317333Y-106846761D01*
X62364952Y-106751523D01*
X62412571Y-106703904D01*
X62507810Y-106656285D01*
X62745905Y-106656285D01*
X62841143Y-106703904D01*
X62888762Y-106751523D01*
X62936381Y-106846761D01*
X62936381Y-107132476D01*
X62888762Y-107227714D01*
X62841143Y-107275333D01*
X49871334Y-104497143D02*
X49823715Y-104544762D01*
X49680858Y-104592381D01*
X49585620Y-104592381D01*
X49442762Y-104544762D01*
X49347524Y-104449524D01*
X49299905Y-104354286D01*
X49252286Y-104163810D01*
X49252286Y-104020952D01*
X49299905Y-103830476D01*
X49347524Y-103735238D01*
X49442762Y-103640000D01*
X49585620Y-103592381D01*
X49680858Y-103592381D01*
X49823715Y-103640000D01*
X49871334Y-103687619D01*
X50728477Y-103925714D02*
X50728477Y-104592381D01*
X50490381Y-103544762D02*
X50252286Y-104259048D01*
X50871334Y-104259048D01*
X116165334Y-153011143D02*
X116117715Y-153058762D01*
X115974858Y-153106381D01*
X115879620Y-153106381D01*
X115736762Y-153058762D01*
X115641524Y-152963524D01*
X115593905Y-152868286D01*
X115546286Y-152677810D01*
X115546286Y-152534952D01*
X115593905Y-152344476D01*
X115641524Y-152249238D01*
X115736762Y-152154000D01*
X115879620Y-152106381D01*
X115974858Y-152106381D01*
X116117715Y-152154000D01*
X116165334Y-152201619D01*
X117070096Y-152106381D02*
X116593905Y-152106381D01*
X116546286Y-152582571D01*
X116593905Y-152534952D01*
X116689143Y-152487333D01*
X116927239Y-152487333D01*
X117022477Y-152534952D01*
X117070096Y-152582571D01*
X117117715Y-152677810D01*
X117117715Y-152915905D01*
X117070096Y-153011143D01*
X117022477Y-153058762D01*
X116927239Y-153106381D01*
X116689143Y-153106381D01*
X116593905Y-153058762D01*
X116546286Y-153011143D01*
X114133334Y-153011143D02*
X114085715Y-153058762D01*
X113942858Y-153106381D01*
X113847620Y-153106381D01*
X113704762Y-153058762D01*
X113609524Y-152963524D01*
X113561905Y-152868286D01*
X113514286Y-152677810D01*
X113514286Y-152534952D01*
X113561905Y-152344476D01*
X113609524Y-152249238D01*
X113704762Y-152154000D01*
X113847620Y-152106381D01*
X113942858Y-152106381D01*
X114085715Y-152154000D01*
X114133334Y-152201619D01*
X114990477Y-152106381D02*
X114800000Y-152106381D01*
X114704762Y-152154000D01*
X114657143Y-152201619D01*
X114561905Y-152344476D01*
X114514286Y-152534952D01*
X114514286Y-152915905D01*
X114561905Y-153011143D01*
X114609524Y-153058762D01*
X114704762Y-153106381D01*
X114895239Y-153106381D01*
X114990477Y-153058762D01*
X115038096Y-153011143D01*
X115085715Y-152915905D01*
X115085715Y-152677810D01*
X115038096Y-152582571D01*
X114990477Y-152534952D01*
X114895239Y-152487333D01*
X114704762Y-152487333D01*
X114609524Y-152534952D01*
X114561905Y-152582571D01*
X114514286Y-152677810D01*
X118277334Y-149136381D02*
X117944000Y-148660190D01*
X117705905Y-149136381D02*
X117705905Y-148136381D01*
X118086858Y-148136381D01*
X118182096Y-148184000D01*
X118229715Y-148231619D01*
X118277334Y-148326857D01*
X118277334Y-148469714D01*
X118229715Y-148564952D01*
X118182096Y-148612571D01*
X118086858Y-148660190D01*
X117705905Y-148660190D01*
X118610667Y-148136381D02*
X119229715Y-148136381D01*
X118896381Y-148517333D01*
X119039239Y-148517333D01*
X119134477Y-148564952D01*
X119182096Y-148612571D01*
X119229715Y-148707810D01*
X119229715Y-148945905D01*
X119182096Y-149041143D01*
X119134477Y-149088762D01*
X119039239Y-149136381D01*
X118753524Y-149136381D01*
X118658286Y-149088762D01*
X118610667Y-149041143D01*
X94575334Y-168092381D02*
X94242000Y-167616190D01*
X94003905Y-168092381D02*
X94003905Y-167092381D01*
X94384858Y-167092381D01*
X94480096Y-167140000D01*
X94527715Y-167187619D01*
X94575334Y-167282857D01*
X94575334Y-167425714D01*
X94527715Y-167520952D01*
X94480096Y-167568571D01*
X94384858Y-167616190D01*
X94003905Y-167616190D01*
X95480096Y-167092381D02*
X95003905Y-167092381D01*
X94956286Y-167568571D01*
X95003905Y-167520952D01*
X95099143Y-167473333D01*
X95337239Y-167473333D01*
X95432477Y-167520952D01*
X95480096Y-167568571D01*
X95527715Y-167663810D01*
X95527715Y-167901905D01*
X95480096Y-167997143D01*
X95432477Y-168044762D01*
X95337239Y-168092381D01*
X95099143Y-168092381D01*
X95003905Y-168044762D01*
X94956286Y-167997143D01*
X64112381Y-160266666D02*
X63636190Y-160600000D01*
X64112381Y-160838095D02*
X63112381Y-160838095D01*
X63112381Y-160457142D01*
X63160000Y-160361904D01*
X63207619Y-160314285D01*
X63302857Y-160266666D01*
X63445714Y-160266666D01*
X63540952Y-160314285D01*
X63588571Y-160361904D01*
X63636190Y-160457142D01*
X63636190Y-160838095D01*
X63112381Y-159933333D02*
X63112381Y-159266666D01*
X64112381Y-159695238D01*
X54610095Y-99528381D02*
X54610095Y-100337905D01*
X54657714Y-100433143D01*
X54705333Y-100480762D01*
X54800571Y-100528381D01*
X54991048Y-100528381D01*
X55086286Y-100480762D01*
X55133905Y-100433143D01*
X55181524Y-100337905D01*
X55181524Y-99528381D01*
X55610095Y-99623619D02*
X55657714Y-99576000D01*
X55752952Y-99528381D01*
X55991048Y-99528381D01*
X56086286Y-99576000D01*
X56133905Y-99623619D01*
X56181524Y-99718857D01*
X56181524Y-99814095D01*
X56133905Y-99956952D01*
X55562476Y-100528381D01*
X56181524Y-100528381D01*
X129895714Y-129898857D02*
X129895714Y-130870286D01*
X129952857Y-130984571D01*
X130010000Y-131041714D01*
X130124286Y-131098857D01*
X130352857Y-131098857D01*
X130467143Y-131041714D01*
X130524286Y-130984571D01*
X130581429Y-130870286D01*
X130581429Y-129898857D01*
X131667143Y-130298857D02*
X131667143Y-131098857D01*
X131381429Y-129841714D02*
X131095714Y-130698857D01*
X131838572Y-130698857D01*
X59761429Y-142620952D02*
X59761429Y-141859047D01*
X60142381Y-142239999D02*
X59380476Y-142239999D01*
X93559334Y-157932381D02*
X93226000Y-157456190D01*
X92987905Y-157932381D02*
X92987905Y-156932381D01*
X93368858Y-156932381D01*
X93464096Y-156980000D01*
X93511715Y-157027619D01*
X93559334Y-157122857D01*
X93559334Y-157265714D01*
X93511715Y-157360952D01*
X93464096Y-157408571D01*
X93368858Y-157456190D01*
X92987905Y-157456190D01*
X94130762Y-157360952D02*
X94035524Y-157313333D01*
X93987905Y-157265714D01*
X93940286Y-157170476D01*
X93940286Y-157122857D01*
X93987905Y-157027619D01*
X94035524Y-156980000D01*
X94130762Y-156932381D01*
X94321239Y-156932381D01*
X94416477Y-156980000D01*
X94464096Y-157027619D01*
X94511715Y-157122857D01*
X94511715Y-157170476D01*
X94464096Y-157265714D01*
X94416477Y-157313333D01*
X94321239Y-157360952D01*
X94130762Y-157360952D01*
X94035524Y-157408571D01*
X93987905Y-157456190D01*
X93940286Y-157551429D01*
X93940286Y-157741905D01*
X93987905Y-157837143D01*
X94035524Y-157884762D01*
X94130762Y-157932381D01*
X94321239Y-157932381D01*
X94416477Y-157884762D01*
X94464096Y-157837143D01*
X94511715Y-157741905D01*
X94511715Y-157551429D01*
X94464096Y-157456190D01*
X94416477Y-157408571D01*
X94321239Y-157360952D01*
X125309334Y-124055143D02*
X125261715Y-124102762D01*
X125118858Y-124150381D01*
X125023620Y-124150381D01*
X124880762Y-124102762D01*
X124785524Y-124007524D01*
X124737905Y-123912286D01*
X124690286Y-123721810D01*
X124690286Y-123578952D01*
X124737905Y-123388476D01*
X124785524Y-123293238D01*
X124880762Y-123198000D01*
X125023620Y-123150381D01*
X125118858Y-123150381D01*
X125261715Y-123198000D01*
X125309334Y-123245619D01*
X126261715Y-124150381D02*
X125690286Y-124150381D01*
X125976000Y-124150381D02*
X125976000Y-123150381D01*
X125880762Y-123293238D01*
X125785524Y-123388476D01*
X125690286Y-123436095D01*
X134469143Y-101004666D02*
X134516762Y-101052285D01*
X134564381Y-101195142D01*
X134564381Y-101290380D01*
X134516762Y-101433238D01*
X134421524Y-101528476D01*
X134326286Y-101576095D01*
X134135810Y-101623714D01*
X133992952Y-101623714D01*
X133802476Y-101576095D01*
X133707238Y-101528476D01*
X133612000Y-101433238D01*
X133564381Y-101290380D01*
X133564381Y-101195142D01*
X133612000Y-101052285D01*
X133659619Y-101004666D01*
X133564381Y-100671333D02*
X133564381Y-100004666D01*
X134564381Y-100433238D01*
X134183429Y-110616952D02*
X134183429Y-109855047D01*
X134564381Y-110235999D02*
X133802476Y-110235999D01*
X133945334Y-115419143D02*
X133897715Y-115466762D01*
X133754858Y-115514381D01*
X133659620Y-115514381D01*
X133516762Y-115466762D01*
X133421524Y-115371524D01*
X133373905Y-115276286D01*
X133326286Y-115085810D01*
X133326286Y-114942952D01*
X133373905Y-114752476D01*
X133421524Y-114657238D01*
X133516762Y-114562000D01*
X133659620Y-114514381D01*
X133754858Y-114514381D01*
X133897715Y-114562000D01*
X133945334Y-114609619D01*
X134516762Y-114942952D02*
X134421524Y-114895333D01*
X134373905Y-114847714D01*
X134326286Y-114752476D01*
X134326286Y-114704857D01*
X134373905Y-114609619D01*
X134421524Y-114562000D01*
X134516762Y-114514381D01*
X134707239Y-114514381D01*
X134802477Y-114562000D01*
X134850096Y-114609619D01*
X134897715Y-114704857D01*
X134897715Y-114752476D01*
X134850096Y-114847714D01*
X134802477Y-114895333D01*
X134707239Y-114942952D01*
X134516762Y-114942952D01*
X134421524Y-114990571D01*
X134373905Y-115038190D01*
X134326286Y-115133429D01*
X134326286Y-115323905D01*
X134373905Y-115419143D01*
X134421524Y-115466762D01*
X134516762Y-115514381D01*
X134707239Y-115514381D01*
X134802477Y-115466762D01*
X134850096Y-115419143D01*
X134897715Y-115323905D01*
X134897715Y-115133429D01*
X134850096Y-115038190D01*
X134802477Y-114990571D01*
X134707239Y-114942952D01*
X136501143Y-102242857D02*
X136548762Y-102290476D01*
X136596381Y-102433333D01*
X136596381Y-102528571D01*
X136548762Y-102671429D01*
X136453524Y-102766667D01*
X136358286Y-102814286D01*
X136167810Y-102861905D01*
X136024952Y-102861905D01*
X135834476Y-102814286D01*
X135739238Y-102766667D01*
X135644000Y-102671429D01*
X135596381Y-102528571D01*
X135596381Y-102433333D01*
X135644000Y-102290476D01*
X135691619Y-102242857D01*
X136596381Y-101290476D02*
X136596381Y-101861905D01*
X136596381Y-101576191D02*
X135596381Y-101576191D01*
X135739238Y-101671429D01*
X135834476Y-101766667D01*
X135882095Y-101861905D01*
X135596381Y-100671429D02*
X135596381Y-100576190D01*
X135644000Y-100480952D01*
X135691619Y-100433333D01*
X135786857Y-100385714D01*
X135977333Y-100338095D01*
X136215429Y-100338095D01*
X136405905Y-100385714D01*
X136501143Y-100433333D01*
X136548762Y-100480952D01*
X136596381Y-100576190D01*
X136596381Y-100671429D01*
X136548762Y-100766667D01*
X136501143Y-100814286D01*
X136405905Y-100861905D01*
X136215429Y-100909524D01*
X135977333Y-100909524D01*
X135786857Y-100861905D01*
X135691619Y-100814286D01*
X135644000Y-100766667D01*
X135596381Y-100671429D01*
X124833143Y-113895143D02*
X124785524Y-113942762D01*
X124642667Y-113990381D01*
X124547429Y-113990381D01*
X124404571Y-113942762D01*
X124309333Y-113847524D01*
X124261714Y-113752286D01*
X124214095Y-113561810D01*
X124214095Y-113418952D01*
X124261714Y-113228476D01*
X124309333Y-113133238D01*
X124404571Y-113038000D01*
X124547429Y-112990381D01*
X124642667Y-112990381D01*
X124785524Y-113038000D01*
X124833143Y-113085619D01*
X125785524Y-113990381D02*
X125214095Y-113990381D01*
X125499809Y-113990381D02*
X125499809Y-112990381D01*
X125404571Y-113133238D01*
X125309333Y-113228476D01*
X125214095Y-113276095D01*
X126118857Y-112990381D02*
X126737905Y-112990381D01*
X126404571Y-113371333D01*
X126547429Y-113371333D01*
X126642667Y-113418952D01*
X126690286Y-113466571D01*
X126737905Y-113561810D01*
X126737905Y-113799905D01*
X126690286Y-113895143D01*
X126642667Y-113942762D01*
X126547429Y-113990381D01*
X126261714Y-113990381D01*
X126166476Y-113942762D01*
X126118857Y-113895143D01*
X61587143Y-126595143D02*
X61539524Y-126642762D01*
X61396667Y-126690381D01*
X61301429Y-126690381D01*
X61158571Y-126642762D01*
X61063333Y-126547524D01*
X61015714Y-126452286D01*
X60968095Y-126261810D01*
X60968095Y-126118952D01*
X61015714Y-125928476D01*
X61063333Y-125833238D01*
X61158571Y-125738000D01*
X61301429Y-125690381D01*
X61396667Y-125690381D01*
X61539524Y-125738000D01*
X61587143Y-125785619D01*
X62539524Y-126690381D02*
X61968095Y-126690381D01*
X62253809Y-126690381D02*
X62253809Y-125690381D01*
X62158571Y-125833238D01*
X62063333Y-125928476D01*
X61968095Y-125976095D01*
X62872857Y-125690381D02*
X63539524Y-125690381D01*
X63110952Y-126690381D01*
X48633143Y-122023143D02*
X48585524Y-122070762D01*
X48442667Y-122118381D01*
X48347429Y-122118381D01*
X48204571Y-122070762D01*
X48109333Y-121975524D01*
X48061714Y-121880286D01*
X48014095Y-121689810D01*
X48014095Y-121546952D01*
X48061714Y-121356476D01*
X48109333Y-121261238D01*
X48204571Y-121166000D01*
X48347429Y-121118381D01*
X48442667Y-121118381D01*
X48585524Y-121166000D01*
X48633143Y-121213619D01*
X49585524Y-122118381D02*
X49014095Y-122118381D01*
X49299809Y-122118381D02*
X49299809Y-121118381D01*
X49204571Y-121261238D01*
X49109333Y-121356476D01*
X49014095Y-121404095D01*
X50156952Y-121546952D02*
X50061714Y-121499333D01*
X50014095Y-121451714D01*
X49966476Y-121356476D01*
X49966476Y-121308857D01*
X50014095Y-121213619D01*
X50061714Y-121166000D01*
X50156952Y-121118381D01*
X50347429Y-121118381D01*
X50442667Y-121166000D01*
X50490286Y-121213619D01*
X50537905Y-121308857D01*
X50537905Y-121356476D01*
X50490286Y-121451714D01*
X50442667Y-121499333D01*
X50347429Y-121546952D01*
X50156952Y-121546952D01*
X50061714Y-121594571D01*
X50014095Y-121642190D01*
X49966476Y-121737429D01*
X49966476Y-121927905D01*
X50014095Y-122023143D01*
X50061714Y-122070762D01*
X50156952Y-122118381D01*
X50347429Y-122118381D01*
X50442667Y-122070762D01*
X50490286Y-122023143D01*
X50537905Y-121927905D01*
X50537905Y-121737429D01*
X50490286Y-121642190D01*
X50442667Y-121594571D01*
X50347429Y-121546952D01*
X62587143Y-115704857D02*
X62634762Y-115752476D01*
X62682381Y-115895333D01*
X62682381Y-115990571D01*
X62634762Y-116133429D01*
X62539524Y-116228667D01*
X62444286Y-116276286D01*
X62253810Y-116323905D01*
X62110952Y-116323905D01*
X61920476Y-116276286D01*
X61825238Y-116228667D01*
X61730000Y-116133429D01*
X61682381Y-115990571D01*
X61682381Y-115895333D01*
X61730000Y-115752476D01*
X61777619Y-115704857D01*
X62682381Y-114752476D02*
X62682381Y-115323905D01*
X62682381Y-115038191D02*
X61682381Y-115038191D01*
X61825238Y-115133429D01*
X61920476Y-115228667D01*
X61968095Y-115323905D01*
X62682381Y-114276286D02*
X62682381Y-114085810D01*
X62634762Y-113990571D01*
X62587143Y-113942952D01*
X62444286Y-113847714D01*
X62253810Y-113800095D01*
X61872857Y-113800095D01*
X61777619Y-113847714D01*
X61730000Y-113895333D01*
X61682381Y-113990571D01*
X61682381Y-114181048D01*
X61730000Y-114276286D01*
X61777619Y-114323905D01*
X61872857Y-114371524D01*
X62110952Y-114371524D01*
X62206190Y-114323905D01*
X62253810Y-114276286D01*
X62301429Y-114181048D01*
X62301429Y-113990571D01*
X62253810Y-113895333D01*
X62206190Y-113847714D01*
X62110952Y-113800095D01*
X134231143Y-90019143D02*
X134183524Y-90066762D01*
X134040667Y-90114381D01*
X133945429Y-90114381D01*
X133802571Y-90066762D01*
X133707333Y-89971524D01*
X133659714Y-89876286D01*
X133612095Y-89685810D01*
X133612095Y-89542952D01*
X133659714Y-89352476D01*
X133707333Y-89257238D01*
X133802571Y-89162000D01*
X133945429Y-89114381D01*
X134040667Y-89114381D01*
X134183524Y-89162000D01*
X134231143Y-89209619D01*
X134612095Y-89209619D02*
X134659714Y-89162000D01*
X134754952Y-89114381D01*
X134993048Y-89114381D01*
X135088286Y-89162000D01*
X135135905Y-89209619D01*
X135183524Y-89304857D01*
X135183524Y-89400095D01*
X135135905Y-89542952D01*
X134564476Y-90114381D01*
X135183524Y-90114381D01*
X135802571Y-89114381D02*
X135897810Y-89114381D01*
X135993048Y-89162000D01*
X136040667Y-89209619D01*
X136088286Y-89304857D01*
X136135905Y-89495333D01*
X136135905Y-89733429D01*
X136088286Y-89923905D01*
X136040667Y-90019143D01*
X135993048Y-90066762D01*
X135897810Y-90114381D01*
X135802571Y-90114381D01*
X135707333Y-90066762D01*
X135659714Y-90019143D01*
X135612095Y-89923905D01*
X135564476Y-89733429D01*
X135564476Y-89495333D01*
X135612095Y-89304857D01*
X135659714Y-89209619D01*
X135707333Y-89162000D01*
X135802571Y-89114381D01*
X57777143Y-130754381D02*
X57443809Y-130278190D01*
X57205714Y-130754381D02*
X57205714Y-129754381D01*
X57586667Y-129754381D01*
X57681905Y-129802000D01*
X57729524Y-129849619D01*
X57777143Y-129944857D01*
X57777143Y-130087714D01*
X57729524Y-130182952D01*
X57681905Y-130230571D01*
X57586667Y-130278190D01*
X57205714Y-130278190D01*
X58729524Y-130754381D02*
X58158095Y-130754381D01*
X58443809Y-130754381D02*
X58443809Y-129754381D01*
X58348571Y-129897238D01*
X58253333Y-129992476D01*
X58158095Y-130040095D01*
X59110476Y-129849619D02*
X59158095Y-129802000D01*
X59253333Y-129754381D01*
X59491429Y-129754381D01*
X59586667Y-129802000D01*
X59634286Y-129849619D01*
X59681905Y-129944857D01*
X59681905Y-130040095D01*
X59634286Y-130182952D01*
X59062857Y-130754381D01*
X59681905Y-130754381D01*
X44394381Y-123832857D02*
X43918190Y-124166191D01*
X44394381Y-124404286D02*
X43394381Y-124404286D01*
X43394381Y-124023333D01*
X43442000Y-123928095D01*
X43489619Y-123880476D01*
X43584857Y-123832857D01*
X43727714Y-123832857D01*
X43822952Y-123880476D01*
X43870571Y-123928095D01*
X43918190Y-124023333D01*
X43918190Y-124404286D01*
X44394381Y-122880476D02*
X44394381Y-123451905D01*
X44394381Y-123166191D02*
X43394381Y-123166191D01*
X43537238Y-123261429D01*
X43632476Y-123356667D01*
X43680095Y-123451905D01*
X43394381Y-122547143D02*
X43394381Y-121928095D01*
X43775333Y-122261429D01*
X43775333Y-122118571D01*
X43822952Y-122023333D01*
X43870571Y-121975714D01*
X43965810Y-121928095D01*
X44203905Y-121928095D01*
X44299143Y-121975714D01*
X44346762Y-122023333D01*
X44394381Y-122118571D01*
X44394381Y-122404286D01*
X44346762Y-122499524D01*
X44299143Y-122547143D01*
X74112381Y-98432857D02*
X73636190Y-98766191D01*
X74112381Y-99004286D02*
X73112381Y-99004286D01*
X73112381Y-98623333D01*
X73160000Y-98528095D01*
X73207619Y-98480476D01*
X73302857Y-98432857D01*
X73445714Y-98432857D01*
X73540952Y-98480476D01*
X73588571Y-98528095D01*
X73636190Y-98623333D01*
X73636190Y-99004286D01*
X74112381Y-97480476D02*
X74112381Y-98051905D01*
X74112381Y-97766191D02*
X73112381Y-97766191D01*
X73255238Y-97861429D01*
X73350476Y-97956667D01*
X73398095Y-98051905D01*
X73445714Y-96623333D02*
X74112381Y-96623333D01*
X73064762Y-96861429D02*
X73779048Y-97099524D01*
X73779048Y-96480476D01*
X43632381Y-115450857D02*
X43156190Y-115784191D01*
X43632381Y-116022286D02*
X42632381Y-116022286D01*
X42632381Y-115641333D01*
X42680000Y-115546095D01*
X42727619Y-115498476D01*
X42822857Y-115450857D01*
X42965714Y-115450857D01*
X43060952Y-115498476D01*
X43108571Y-115546095D01*
X43156190Y-115641333D01*
X43156190Y-116022286D01*
X43632381Y-114498476D02*
X43632381Y-115069905D01*
X43632381Y-114784191D02*
X42632381Y-114784191D01*
X42775238Y-114879429D01*
X42870476Y-114974667D01*
X42918095Y-115069905D01*
X42632381Y-113593714D02*
X42632381Y-114069905D01*
X43108571Y-114117524D01*
X43060952Y-114069905D01*
X43013333Y-113974667D01*
X43013333Y-113736571D01*
X43060952Y-113641333D01*
X43108571Y-113593714D01*
X43203810Y-113546095D01*
X43441905Y-113546095D01*
X43537143Y-113593714D01*
X43584762Y-113641333D01*
X43632381Y-113736571D01*
X43632381Y-113974667D01*
X43584762Y-114069905D01*
X43537143Y-114117524D01*
X133437381Y-120141905D02*
X134246905Y-120141905D01*
X134342143Y-120094286D01*
X134389762Y-120046667D01*
X134437381Y-119951429D01*
X134437381Y-119760952D01*
X134389762Y-119665714D01*
X134342143Y-119618095D01*
X134246905Y-119570476D01*
X133437381Y-119570476D01*
X134437381Y-118570476D02*
X134437381Y-119141905D01*
X134437381Y-118856191D02*
X133437381Y-118856191D01*
X133580238Y-118951429D01*
X133675476Y-119046667D01*
X133723095Y-119141905D01*
X130149714Y-114061857D02*
X130149714Y-115033286D01*
X130206857Y-115147571D01*
X130264000Y-115204714D01*
X130378286Y-115261857D01*
X130606857Y-115261857D01*
X130721143Y-115204714D01*
X130778286Y-115147571D01*
X130835429Y-115033286D01*
X130835429Y-114061857D01*
X131292572Y-114061857D02*
X132035429Y-114061857D01*
X131635429Y-114519000D01*
X131806857Y-114519000D01*
X131921143Y-114576143D01*
X131978286Y-114633286D01*
X132035429Y-114747571D01*
X132035429Y-115033286D01*
X131978286Y-115147571D01*
X131921143Y-115204714D01*
X131806857Y-115261857D01*
X131464000Y-115261857D01*
X131349714Y-115204714D01*
X131292572Y-115147571D01*
X74112381Y-113768095D02*
X73112381Y-113768095D01*
X73112381Y-113530000D01*
X73160000Y-113387142D01*
X73255238Y-113291904D01*
X73350476Y-113244285D01*
X73540952Y-113196666D01*
X73683810Y-113196666D01*
X73874286Y-113244285D01*
X73969524Y-113291904D01*
X74064762Y-113387142D01*
X74112381Y-113530000D01*
X74112381Y-113768095D01*
X73445714Y-112339523D02*
X74112381Y-112339523D01*
X73064762Y-112577619D02*
X73779048Y-112815714D01*
X73779048Y-112196666D01*
X93591143Y-155551143D02*
X93543524Y-155598762D01*
X93400667Y-155646381D01*
X93305429Y-155646381D01*
X93162571Y-155598762D01*
X93067333Y-155503524D01*
X93019714Y-155408286D01*
X92972095Y-155217810D01*
X92972095Y-155074952D01*
X93019714Y-154884476D01*
X93067333Y-154789238D01*
X93162571Y-154694000D01*
X93305429Y-154646381D01*
X93400667Y-154646381D01*
X93543524Y-154694000D01*
X93591143Y-154741619D01*
X93972095Y-154741619D02*
X94019714Y-154694000D01*
X94114952Y-154646381D01*
X94353048Y-154646381D01*
X94448286Y-154694000D01*
X94495905Y-154741619D01*
X94543524Y-154836857D01*
X94543524Y-154932095D01*
X94495905Y-155074952D01*
X93924476Y-155646381D01*
X94543524Y-155646381D01*
X95495905Y-155646381D02*
X94924476Y-155646381D01*
X95210190Y-155646381D02*
X95210190Y-154646381D01*
X95114952Y-154789238D01*
X95019714Y-154884476D01*
X94924476Y-154932095D01*
X101211143Y-160377143D02*
X101163524Y-160424762D01*
X101020667Y-160472381D01*
X100925429Y-160472381D01*
X100782571Y-160424762D01*
X100687333Y-160329524D01*
X100639714Y-160234286D01*
X100592095Y-160043810D01*
X100592095Y-159900952D01*
X100639714Y-159710476D01*
X100687333Y-159615238D01*
X100782571Y-159520000D01*
X100925429Y-159472381D01*
X101020667Y-159472381D01*
X101163524Y-159520000D01*
X101211143Y-159567619D01*
X101592095Y-159567619D02*
X101639714Y-159520000D01*
X101734952Y-159472381D01*
X101973048Y-159472381D01*
X102068286Y-159520000D01*
X102115905Y-159567619D01*
X102163524Y-159662857D01*
X102163524Y-159758095D01*
X102115905Y-159900952D01*
X101544476Y-160472381D01*
X102163524Y-160472381D01*
X102544476Y-159567619D02*
X102592095Y-159520000D01*
X102687333Y-159472381D01*
X102925429Y-159472381D01*
X103020667Y-159520000D01*
X103068286Y-159567619D01*
X103115905Y-159662857D01*
X103115905Y-159758095D01*
X103068286Y-159900952D01*
X102496857Y-160472381D01*
X103115905Y-160472381D01*
X93591143Y-173077143D02*
X93543524Y-173124762D01*
X93400667Y-173172381D01*
X93305429Y-173172381D01*
X93162571Y-173124762D01*
X93067333Y-173029524D01*
X93019714Y-172934286D01*
X92972095Y-172743810D01*
X92972095Y-172600952D01*
X93019714Y-172410476D01*
X93067333Y-172315238D01*
X93162571Y-172220000D01*
X93305429Y-172172381D01*
X93400667Y-172172381D01*
X93543524Y-172220000D01*
X93591143Y-172267619D01*
X93972095Y-172267619D02*
X94019714Y-172220000D01*
X94114952Y-172172381D01*
X94353048Y-172172381D01*
X94448286Y-172220000D01*
X94495905Y-172267619D01*
X94543524Y-172362857D01*
X94543524Y-172458095D01*
X94495905Y-172600952D01*
X93924476Y-173172381D01*
X94543524Y-173172381D01*
X94876857Y-172172381D02*
X95495905Y-172172381D01*
X95162571Y-172553333D01*
X95305429Y-172553333D01*
X95400667Y-172600952D01*
X95448286Y-172648571D01*
X95495905Y-172743810D01*
X95495905Y-172981905D01*
X95448286Y-173077143D01*
X95400667Y-173124762D01*
X95305429Y-173172381D01*
X95019714Y-173172381D01*
X94924476Y-173124762D01*
X94876857Y-173077143D01*
X93559334Y-165552381D02*
X93226000Y-165076190D01*
X92987905Y-165552381D02*
X92987905Y-164552381D01*
X93368858Y-164552381D01*
X93464096Y-164600000D01*
X93511715Y-164647619D01*
X93559334Y-164742857D01*
X93559334Y-164885714D01*
X93511715Y-164980952D01*
X93464096Y-165028571D01*
X93368858Y-165076190D01*
X92987905Y-165076190D01*
X94035524Y-165552381D02*
X94226000Y-165552381D01*
X94321239Y-165504762D01*
X94368858Y-165457143D01*
X94464096Y-165314286D01*
X94511715Y-165123810D01*
X94511715Y-164742857D01*
X94464096Y-164647619D01*
X94416477Y-164600000D01*
X94321239Y-164552381D01*
X94130762Y-164552381D01*
X94035524Y-164600000D01*
X93987905Y-164647619D01*
X93940286Y-164742857D01*
X93940286Y-164980952D01*
X93987905Y-165076190D01*
X94035524Y-165123810D01*
X94130762Y-165171429D01*
X94321239Y-165171429D01*
X94416477Y-165123810D01*
X94464096Y-165076190D01*
X94511715Y-164980952D01*
X93924381Y-163202857D02*
X93448190Y-163536191D01*
X93924381Y-163774286D02*
X92924381Y-163774286D01*
X92924381Y-163393333D01*
X92972000Y-163298095D01*
X93019619Y-163250476D01*
X93114857Y-163202857D01*
X93257714Y-163202857D01*
X93352952Y-163250476D01*
X93400571Y-163298095D01*
X93448190Y-163393333D01*
X93448190Y-163774286D01*
X93924381Y-162250476D02*
X93924381Y-162821905D01*
X93924381Y-162536191D02*
X92924381Y-162536191D01*
X93067238Y-162631429D01*
X93162476Y-162726667D01*
X93210095Y-162821905D01*
X92924381Y-161393333D02*
X92924381Y-161583810D01*
X92972000Y-161679048D01*
X93019619Y-161726667D01*
X93162476Y-161821905D01*
X93352952Y-161869524D01*
X93733905Y-161869524D01*
X93829143Y-161821905D01*
X93876762Y-161774286D01*
X93924381Y-161679048D01*
X93924381Y-161488571D01*
X93876762Y-161393333D01*
X93829143Y-161345714D01*
X93733905Y-161298095D01*
X93495810Y-161298095D01*
X93400571Y-161345714D01*
X93352952Y-161393333D01*
X93305333Y-161488571D01*
X93305333Y-161679048D01*
X93352952Y-161774286D01*
X93400571Y-161821905D01*
X93495810Y-161869524D01*
X93924381Y-160408857D02*
X93448190Y-160742191D01*
X93924381Y-160980286D02*
X92924381Y-160980286D01*
X92924381Y-160599333D01*
X92972000Y-160504095D01*
X93019619Y-160456476D01*
X93114857Y-160408857D01*
X93257714Y-160408857D01*
X93352952Y-160456476D01*
X93400571Y-160504095D01*
X93448190Y-160599333D01*
X93448190Y-160980286D01*
X93924381Y-159456476D02*
X93924381Y-160027905D01*
X93924381Y-159742191D02*
X92924381Y-159742191D01*
X93067238Y-159837429D01*
X93162476Y-159932667D01*
X93210095Y-160027905D01*
X92924381Y-159123143D02*
X92924381Y-158456476D01*
X93924381Y-158885048D01*
X94178381Y-168282857D02*
X93702190Y-168616191D01*
X94178381Y-168854286D02*
X93178381Y-168854286D01*
X93178381Y-168473333D01*
X93226000Y-168378095D01*
X93273619Y-168330476D01*
X93368857Y-168282857D01*
X93511714Y-168282857D01*
X93606952Y-168330476D01*
X93654571Y-168378095D01*
X93702190Y-168473333D01*
X93702190Y-168854286D01*
X94178381Y-167330476D02*
X94178381Y-167901905D01*
X94178381Y-167616191D02*
X93178381Y-167616191D01*
X93321238Y-167711429D01*
X93416476Y-167806667D01*
X93464095Y-167901905D01*
X93606952Y-166759048D02*
X93559333Y-166854286D01*
X93511714Y-166901905D01*
X93416476Y-166949524D01*
X93368857Y-166949524D01*
X93273619Y-166901905D01*
X93226000Y-166854286D01*
X93178381Y-166759048D01*
X93178381Y-166568571D01*
X93226000Y-166473333D01*
X93273619Y-166425714D01*
X93368857Y-166378095D01*
X93416476Y-166378095D01*
X93511714Y-166425714D01*
X93559333Y-166473333D01*
X93606952Y-166568571D01*
X93606952Y-166759048D01*
X93654571Y-166854286D01*
X93702190Y-166901905D01*
X93797429Y-166949524D01*
X93987905Y-166949524D01*
X94083143Y-166901905D01*
X94130762Y-166854286D01*
X94178381Y-166759048D01*
X94178381Y-166568571D01*
X94130762Y-166473333D01*
X94083143Y-166425714D01*
X93987905Y-166378095D01*
X93797429Y-166378095D01*
X93702190Y-166425714D01*
X93654571Y-166473333D01*
X93606952Y-166568571D01*
X93591143Y-170632381D02*
X93257809Y-170156190D01*
X93019714Y-170632381D02*
X93019714Y-169632381D01*
X93400667Y-169632381D01*
X93495905Y-169680000D01*
X93543524Y-169727619D01*
X93591143Y-169822857D01*
X93591143Y-169965714D01*
X93543524Y-170060952D01*
X93495905Y-170108571D01*
X93400667Y-170156190D01*
X93019714Y-170156190D01*
X94543524Y-170632381D02*
X93972095Y-170632381D01*
X94257809Y-170632381D02*
X94257809Y-169632381D01*
X94162571Y-169775238D01*
X94067333Y-169870476D01*
X93972095Y-169918095D01*
X95019714Y-170632381D02*
X95210190Y-170632381D01*
X95305429Y-170584762D01*
X95353048Y-170537143D01*
X95448286Y-170394286D01*
X95495905Y-170203810D01*
X95495905Y-169822857D01*
X95448286Y-169727619D01*
X95400667Y-169680000D01*
X95305429Y-169632381D01*
X95114952Y-169632381D01*
X95019714Y-169680000D01*
X94972095Y-169727619D01*
X94924476Y-169822857D01*
X94924476Y-170060952D01*
X94972095Y-170156190D01*
X95019714Y-170203810D01*
X95114952Y-170251429D01*
X95305429Y-170251429D01*
X95400667Y-170203810D01*
X95448286Y-170156190D01*
X95495905Y-170060952D01*
X79859143Y-111132857D02*
X79906762Y-111180476D01*
X79954381Y-111323333D01*
X79954381Y-111418571D01*
X79906762Y-111561429D01*
X79811524Y-111656667D01*
X79716286Y-111704286D01*
X79525810Y-111751905D01*
X79382952Y-111751905D01*
X79192476Y-111704286D01*
X79097238Y-111656667D01*
X79002000Y-111561429D01*
X78954381Y-111418571D01*
X78954381Y-111323333D01*
X79002000Y-111180476D01*
X79049619Y-111132857D01*
X79049619Y-110751905D02*
X79002000Y-110704286D01*
X78954381Y-110609048D01*
X78954381Y-110370952D01*
X79002000Y-110275714D01*
X79049619Y-110228095D01*
X79144857Y-110180476D01*
X79240095Y-110180476D01*
X79382952Y-110228095D01*
X79954381Y-110799524D01*
X79954381Y-110180476D01*
X79287714Y-109323333D02*
X79954381Y-109323333D01*
X78906762Y-109561429D02*
X79621048Y-109799524D01*
X79621048Y-109180476D01*
X79859143Y-117482857D02*
X79906762Y-117530476D01*
X79954381Y-117673333D01*
X79954381Y-117768571D01*
X79906762Y-117911429D01*
X79811524Y-118006667D01*
X79716286Y-118054286D01*
X79525810Y-118101905D01*
X79382952Y-118101905D01*
X79192476Y-118054286D01*
X79097238Y-118006667D01*
X79002000Y-117911429D01*
X78954381Y-117768571D01*
X78954381Y-117673333D01*
X79002000Y-117530476D01*
X79049619Y-117482857D01*
X79049619Y-117101905D02*
X79002000Y-117054286D01*
X78954381Y-116959048D01*
X78954381Y-116720952D01*
X79002000Y-116625714D01*
X79049619Y-116578095D01*
X79144857Y-116530476D01*
X79240095Y-116530476D01*
X79382952Y-116578095D01*
X79954381Y-117149524D01*
X79954381Y-116530476D01*
X78954381Y-115625714D02*
X78954381Y-116101905D01*
X79430571Y-116149524D01*
X79382952Y-116101905D01*
X79335333Y-116006667D01*
X79335333Y-115768571D01*
X79382952Y-115673333D01*
X79430571Y-115625714D01*
X79525810Y-115578095D01*
X79763905Y-115578095D01*
X79859143Y-115625714D01*
X79906762Y-115673333D01*
X79954381Y-115768571D01*
X79954381Y-116006667D01*
X79906762Y-116101905D01*
X79859143Y-116149524D01*
X114657143Y-125102857D02*
X114704762Y-125150476D01*
X114752381Y-125293333D01*
X114752381Y-125388571D01*
X114704762Y-125531429D01*
X114609524Y-125626667D01*
X114514286Y-125674286D01*
X114323810Y-125721905D01*
X114180952Y-125721905D01*
X113990476Y-125674286D01*
X113895238Y-125626667D01*
X113800000Y-125531429D01*
X113752381Y-125388571D01*
X113752381Y-125293333D01*
X113800000Y-125150476D01*
X113847619Y-125102857D01*
X113847619Y-124721905D02*
X113800000Y-124674286D01*
X113752381Y-124579048D01*
X113752381Y-124340952D01*
X113800000Y-124245714D01*
X113847619Y-124198095D01*
X113942857Y-124150476D01*
X114038095Y-124150476D01*
X114180952Y-124198095D01*
X114752381Y-124769524D01*
X114752381Y-124150476D01*
X113752381Y-123293333D02*
X113752381Y-123483810D01*
X113800000Y-123579048D01*
X113847619Y-123626667D01*
X113990476Y-123721905D01*
X114180952Y-123769524D01*
X114561905Y-123769524D01*
X114657143Y-123721905D01*
X114704762Y-123674286D01*
X114752381Y-123579048D01*
X114752381Y-123388571D01*
X114704762Y-123293333D01*
X114657143Y-123245714D01*
X114561905Y-123198095D01*
X114323810Y-123198095D01*
X114228571Y-123245714D01*
X114180952Y-123293333D01*
X114133333Y-123388571D01*
X114133333Y-123579048D01*
X114180952Y-123674286D01*
X114228571Y-123721905D01*
X114323810Y-123769524D01*
X112117143Y-125102857D02*
X112164762Y-125150476D01*
X112212381Y-125293333D01*
X112212381Y-125388571D01*
X112164762Y-125531429D01*
X112069524Y-125626667D01*
X111974286Y-125674286D01*
X111783810Y-125721905D01*
X111640952Y-125721905D01*
X111450476Y-125674286D01*
X111355238Y-125626667D01*
X111260000Y-125531429D01*
X111212381Y-125388571D01*
X111212381Y-125293333D01*
X111260000Y-125150476D01*
X111307619Y-125102857D01*
X111307619Y-124721905D02*
X111260000Y-124674286D01*
X111212381Y-124579048D01*
X111212381Y-124340952D01*
X111260000Y-124245714D01*
X111307619Y-124198095D01*
X111402857Y-124150476D01*
X111498095Y-124150476D01*
X111640952Y-124198095D01*
X112212381Y-124769524D01*
X112212381Y-124150476D01*
X111212381Y-123817143D02*
X111212381Y-123150476D01*
X112212381Y-123579048D01*
X109577143Y-125102857D02*
X109624762Y-125150476D01*
X109672381Y-125293333D01*
X109672381Y-125388571D01*
X109624762Y-125531429D01*
X109529524Y-125626667D01*
X109434286Y-125674286D01*
X109243810Y-125721905D01*
X109100952Y-125721905D01*
X108910476Y-125674286D01*
X108815238Y-125626667D01*
X108720000Y-125531429D01*
X108672381Y-125388571D01*
X108672381Y-125293333D01*
X108720000Y-125150476D01*
X108767619Y-125102857D01*
X108767619Y-124721905D02*
X108720000Y-124674286D01*
X108672381Y-124579048D01*
X108672381Y-124340952D01*
X108720000Y-124245714D01*
X108767619Y-124198095D01*
X108862857Y-124150476D01*
X108958095Y-124150476D01*
X109100952Y-124198095D01*
X109672381Y-124769524D01*
X109672381Y-124150476D01*
X109100952Y-123579048D02*
X109053333Y-123674286D01*
X109005714Y-123721905D01*
X108910476Y-123769524D01*
X108862857Y-123769524D01*
X108767619Y-123721905D01*
X108720000Y-123674286D01*
X108672381Y-123579048D01*
X108672381Y-123388571D01*
X108720000Y-123293333D01*
X108767619Y-123245714D01*
X108862857Y-123198095D01*
X108910476Y-123198095D01*
X109005714Y-123245714D01*
X109053333Y-123293333D01*
X109100952Y-123388571D01*
X109100952Y-123579048D01*
X109148571Y-123674286D01*
X109196190Y-123721905D01*
X109291429Y-123769524D01*
X109481905Y-123769524D01*
X109577143Y-123721905D01*
X109624762Y-123674286D01*
X109672381Y-123579048D01*
X109672381Y-123388571D01*
X109624762Y-123293333D01*
X109577143Y-123245714D01*
X109481905Y-123198095D01*
X109291429Y-123198095D01*
X109196190Y-123245714D01*
X109148571Y-123293333D01*
X109100952Y-123388571D01*
X77065143Y-88018857D02*
X77112762Y-88066476D01*
X77160381Y-88209333D01*
X77160381Y-88304571D01*
X77112762Y-88447429D01*
X77017524Y-88542667D01*
X76922286Y-88590286D01*
X76731810Y-88637905D01*
X76588952Y-88637905D01*
X76398476Y-88590286D01*
X76303238Y-88542667D01*
X76208000Y-88447429D01*
X76160381Y-88304571D01*
X76160381Y-88209333D01*
X76208000Y-88066476D01*
X76255619Y-88018857D01*
X76255619Y-87637905D02*
X76208000Y-87590286D01*
X76160381Y-87495048D01*
X76160381Y-87256952D01*
X76208000Y-87161714D01*
X76255619Y-87114095D01*
X76350857Y-87066476D01*
X76446095Y-87066476D01*
X76588952Y-87114095D01*
X77160381Y-87685524D01*
X77160381Y-87066476D01*
X77160381Y-86590286D02*
X77160381Y-86399810D01*
X77112762Y-86304571D01*
X77065143Y-86256952D01*
X76922286Y-86161714D01*
X76731810Y-86114095D01*
X76350857Y-86114095D01*
X76255619Y-86161714D01*
X76208000Y-86209333D01*
X76160381Y-86304571D01*
X76160381Y-86495048D01*
X76208000Y-86590286D01*
X76255619Y-86637905D01*
X76350857Y-86685524D01*
X76588952Y-86685524D01*
X76684190Y-86637905D01*
X76731810Y-86590286D01*
X76779429Y-86495048D01*
X76779429Y-86304571D01*
X76731810Y-86209333D01*
X76684190Y-86161714D01*
X76588952Y-86114095D01*
X125087143Y-108307143D02*
X125039524Y-108354762D01*
X124896667Y-108402381D01*
X124801429Y-108402381D01*
X124658571Y-108354762D01*
X124563333Y-108259524D01*
X124515714Y-108164286D01*
X124468095Y-107973810D01*
X124468095Y-107830952D01*
X124515714Y-107640476D01*
X124563333Y-107545238D01*
X124658571Y-107450000D01*
X124801429Y-107402381D01*
X124896667Y-107402381D01*
X125039524Y-107450000D01*
X125087143Y-107497619D01*
X125420476Y-107402381D02*
X126039524Y-107402381D01*
X125706190Y-107783333D01*
X125849048Y-107783333D01*
X125944286Y-107830952D01*
X125991905Y-107878571D01*
X126039524Y-107973810D01*
X126039524Y-108211905D01*
X125991905Y-108307143D01*
X125944286Y-108354762D01*
X125849048Y-108402381D01*
X125563333Y-108402381D01*
X125468095Y-108354762D01*
X125420476Y-108307143D01*
X126658571Y-107402381D02*
X126753810Y-107402381D01*
X126849048Y-107450000D01*
X126896667Y-107497619D01*
X126944286Y-107592857D01*
X126991905Y-107783333D01*
X126991905Y-108021429D01*
X126944286Y-108211905D01*
X126896667Y-108307143D01*
X126849048Y-108354762D01*
X126753810Y-108402381D01*
X126658571Y-108402381D01*
X126563333Y-108354762D01*
X126515714Y-108307143D01*
X126468095Y-108211905D01*
X126420476Y-108021429D01*
X126420476Y-107783333D01*
X126468095Y-107592857D01*
X126515714Y-107497619D01*
X126563333Y-107450000D01*
X126658571Y-107402381D01*
X89273143Y-107037143D02*
X89225524Y-107084762D01*
X89082667Y-107132381D01*
X88987429Y-107132381D01*
X88844571Y-107084762D01*
X88749333Y-106989524D01*
X88701714Y-106894286D01*
X88654095Y-106703810D01*
X88654095Y-106560952D01*
X88701714Y-106370476D01*
X88749333Y-106275238D01*
X88844571Y-106180000D01*
X88987429Y-106132381D01*
X89082667Y-106132381D01*
X89225524Y-106180000D01*
X89273143Y-106227619D01*
X89606476Y-106132381D02*
X90225524Y-106132381D01*
X89892190Y-106513333D01*
X90035048Y-106513333D01*
X90130286Y-106560952D01*
X90177905Y-106608571D01*
X90225524Y-106703810D01*
X90225524Y-106941905D01*
X90177905Y-107037143D01*
X90130286Y-107084762D01*
X90035048Y-107132381D01*
X89749333Y-107132381D01*
X89654095Y-107084762D01*
X89606476Y-107037143D01*
X91177905Y-107132381D02*
X90606476Y-107132381D01*
X90892190Y-107132381D02*
X90892190Y-106132381D01*
X90796952Y-106275238D01*
X90701714Y-106370476D01*
X90606476Y-106418095D01*
X107037143Y-125102857D02*
X107084762Y-125150476D01*
X107132381Y-125293333D01*
X107132381Y-125388571D01*
X107084762Y-125531429D01*
X106989524Y-125626667D01*
X106894286Y-125674286D01*
X106703810Y-125721905D01*
X106560952Y-125721905D01*
X106370476Y-125674286D01*
X106275238Y-125626667D01*
X106180000Y-125531429D01*
X106132381Y-125388571D01*
X106132381Y-125293333D01*
X106180000Y-125150476D01*
X106227619Y-125102857D01*
X106132381Y-124769524D02*
X106132381Y-124150476D01*
X106513333Y-124483810D01*
X106513333Y-124340952D01*
X106560952Y-124245714D01*
X106608571Y-124198095D01*
X106703810Y-124150476D01*
X106941905Y-124150476D01*
X107037143Y-124198095D01*
X107084762Y-124245714D01*
X107132381Y-124340952D01*
X107132381Y-124626667D01*
X107084762Y-124721905D01*
X107037143Y-124769524D01*
X106227619Y-123769524D02*
X106180000Y-123721905D01*
X106132381Y-123626667D01*
X106132381Y-123388571D01*
X106180000Y-123293333D01*
X106227619Y-123245714D01*
X106322857Y-123198095D01*
X106418095Y-123198095D01*
X106560952Y-123245714D01*
X107132381Y-123817143D01*
X107132381Y-123198095D01*
X89019143Y-109577143D02*
X88971524Y-109624762D01*
X88828667Y-109672381D01*
X88733429Y-109672381D01*
X88590571Y-109624762D01*
X88495333Y-109529524D01*
X88447714Y-109434286D01*
X88400095Y-109243810D01*
X88400095Y-109100952D01*
X88447714Y-108910476D01*
X88495333Y-108815238D01*
X88590571Y-108720000D01*
X88733429Y-108672381D01*
X88828667Y-108672381D01*
X88971524Y-108720000D01*
X89019143Y-108767619D01*
X89352476Y-108672381D02*
X89971524Y-108672381D01*
X89638190Y-109053333D01*
X89781048Y-109053333D01*
X89876286Y-109100952D01*
X89923905Y-109148571D01*
X89971524Y-109243810D01*
X89971524Y-109481905D01*
X89923905Y-109577143D01*
X89876286Y-109624762D01*
X89781048Y-109672381D01*
X89495333Y-109672381D01*
X89400095Y-109624762D01*
X89352476Y-109577143D01*
X90304857Y-108672381D02*
X90923905Y-108672381D01*
X90590571Y-109053333D01*
X90733429Y-109053333D01*
X90828667Y-109100952D01*
X90876286Y-109148571D01*
X90923905Y-109243810D01*
X90923905Y-109481905D01*
X90876286Y-109577143D01*
X90828667Y-109624762D01*
X90733429Y-109672381D01*
X90447714Y-109672381D01*
X90352476Y-109624762D01*
X90304857Y-109577143D01*
X117197143Y-125102857D02*
X117244762Y-125150476D01*
X117292381Y-125293333D01*
X117292381Y-125388571D01*
X117244762Y-125531429D01*
X117149524Y-125626667D01*
X117054286Y-125674286D01*
X116863810Y-125721905D01*
X116720952Y-125721905D01*
X116530476Y-125674286D01*
X116435238Y-125626667D01*
X116340000Y-125531429D01*
X116292381Y-125388571D01*
X116292381Y-125293333D01*
X116340000Y-125150476D01*
X116387619Y-125102857D01*
X116292381Y-124769524D02*
X116292381Y-124150476D01*
X116673333Y-124483810D01*
X116673333Y-124340952D01*
X116720952Y-124245714D01*
X116768571Y-124198095D01*
X116863810Y-124150476D01*
X117101905Y-124150476D01*
X117197143Y-124198095D01*
X117244762Y-124245714D01*
X117292381Y-124340952D01*
X117292381Y-124626667D01*
X117244762Y-124721905D01*
X117197143Y-124769524D01*
X116292381Y-123245714D02*
X116292381Y-123721905D01*
X116768571Y-123769524D01*
X116720952Y-123721905D01*
X116673333Y-123626667D01*
X116673333Y-123388571D01*
X116720952Y-123293333D01*
X116768571Y-123245714D01*
X116863810Y-123198095D01*
X117101905Y-123198095D01*
X117197143Y-123245714D01*
X117244762Y-123293333D01*
X117292381Y-123388571D01*
X117292381Y-123626667D01*
X117244762Y-123721905D01*
X117197143Y-123769524D01*
X104497143Y-125102857D02*
X104544762Y-125150476D01*
X104592381Y-125293333D01*
X104592381Y-125388571D01*
X104544762Y-125531429D01*
X104449524Y-125626667D01*
X104354286Y-125674286D01*
X104163810Y-125721905D01*
X104020952Y-125721905D01*
X103830476Y-125674286D01*
X103735238Y-125626667D01*
X103640000Y-125531429D01*
X103592381Y-125388571D01*
X103592381Y-125293333D01*
X103640000Y-125150476D01*
X103687619Y-125102857D01*
X103592381Y-124769524D02*
X103592381Y-124150476D01*
X103973333Y-124483810D01*
X103973333Y-124340952D01*
X104020952Y-124245714D01*
X104068571Y-124198095D01*
X104163810Y-124150476D01*
X104401905Y-124150476D01*
X104497143Y-124198095D01*
X104544762Y-124245714D01*
X104592381Y-124340952D01*
X104592381Y-124626667D01*
X104544762Y-124721905D01*
X104497143Y-124769524D01*
X103592381Y-123293333D02*
X103592381Y-123483810D01*
X103640000Y-123579048D01*
X103687619Y-123626667D01*
X103830476Y-123721905D01*
X104020952Y-123769524D01*
X104401905Y-123769524D01*
X104497143Y-123721905D01*
X104544762Y-123674286D01*
X104592381Y-123579048D01*
X104592381Y-123388571D01*
X104544762Y-123293333D01*
X104497143Y-123245714D01*
X104401905Y-123198095D01*
X104163810Y-123198095D01*
X104068571Y-123245714D01*
X104020952Y-123293333D01*
X103973333Y-123388571D01*
X103973333Y-123579048D01*
X104020952Y-123674286D01*
X104068571Y-123721905D01*
X104163810Y-123769524D01*
X119737143Y-125102857D02*
X119784762Y-125150476D01*
X119832381Y-125293333D01*
X119832381Y-125388571D01*
X119784762Y-125531429D01*
X119689524Y-125626667D01*
X119594286Y-125674286D01*
X119403810Y-125721905D01*
X119260952Y-125721905D01*
X119070476Y-125674286D01*
X118975238Y-125626667D01*
X118880000Y-125531429D01*
X118832381Y-125388571D01*
X118832381Y-125293333D01*
X118880000Y-125150476D01*
X118927619Y-125102857D01*
X118832381Y-124769524D02*
X118832381Y-124150476D01*
X119213333Y-124483810D01*
X119213333Y-124340952D01*
X119260952Y-124245714D01*
X119308571Y-124198095D01*
X119403810Y-124150476D01*
X119641905Y-124150476D01*
X119737143Y-124198095D01*
X119784762Y-124245714D01*
X119832381Y-124340952D01*
X119832381Y-124626667D01*
X119784762Y-124721905D01*
X119737143Y-124769524D01*
X118832381Y-123817143D02*
X118832381Y-123150476D01*
X119832381Y-123579048D01*
X125087143Y-105767143D02*
X125039524Y-105814762D01*
X124896667Y-105862381D01*
X124801429Y-105862381D01*
X124658571Y-105814762D01*
X124563333Y-105719524D01*
X124515714Y-105624286D01*
X124468095Y-105433810D01*
X124468095Y-105290952D01*
X124515714Y-105100476D01*
X124563333Y-105005238D01*
X124658571Y-104910000D01*
X124801429Y-104862381D01*
X124896667Y-104862381D01*
X125039524Y-104910000D01*
X125087143Y-104957619D01*
X125420476Y-104862381D02*
X126039524Y-104862381D01*
X125706190Y-105243333D01*
X125849048Y-105243333D01*
X125944286Y-105290952D01*
X125991905Y-105338571D01*
X126039524Y-105433810D01*
X126039524Y-105671905D01*
X125991905Y-105767143D01*
X125944286Y-105814762D01*
X125849048Y-105862381D01*
X125563333Y-105862381D01*
X125468095Y-105814762D01*
X125420476Y-105767143D01*
X126610952Y-105290952D02*
X126515714Y-105243333D01*
X126468095Y-105195714D01*
X126420476Y-105100476D01*
X126420476Y-105052857D01*
X126468095Y-104957619D01*
X126515714Y-104910000D01*
X126610952Y-104862381D01*
X126801429Y-104862381D01*
X126896667Y-104910000D01*
X126944286Y-104957619D01*
X126991905Y-105052857D01*
X126991905Y-105100476D01*
X126944286Y-105195714D01*
X126896667Y-105243333D01*
X126801429Y-105290952D01*
X126610952Y-105290952D01*
X126515714Y-105338571D01*
X126468095Y-105386190D01*
X126420476Y-105481429D01*
X126420476Y-105671905D01*
X126468095Y-105767143D01*
X126515714Y-105814762D01*
X126610952Y-105862381D01*
X126801429Y-105862381D01*
X126896667Y-105814762D01*
X126944286Y-105767143D01*
X126991905Y-105671905D01*
X126991905Y-105481429D01*
X126944286Y-105386190D01*
X126896667Y-105338571D01*
X126801429Y-105290952D01*
X102052381Y-124626666D02*
X101576190Y-124960000D01*
X102052381Y-125198095D02*
X101052381Y-125198095D01*
X101052381Y-124817142D01*
X101100000Y-124721904D01*
X101147619Y-124674285D01*
X101242857Y-124626666D01*
X101385714Y-124626666D01*
X101480952Y-124674285D01*
X101528571Y-124721904D01*
X101576190Y-124817142D01*
X101576190Y-125198095D01*
X102052381Y-123674285D02*
X102052381Y-124245714D01*
X102052381Y-123960000D02*
X101052381Y-123960000D01*
X101195238Y-124055238D01*
X101290476Y-124150476D01*
X101338095Y-124245714D01*
X113625334Y-99004381D02*
X113292000Y-98528190D01*
X113053905Y-99004381D02*
X113053905Y-98004381D01*
X113434858Y-98004381D01*
X113530096Y-98052000D01*
X113577715Y-98099619D01*
X113625334Y-98194857D01*
X113625334Y-98337714D01*
X113577715Y-98432952D01*
X113530096Y-98480571D01*
X113434858Y-98528190D01*
X113053905Y-98528190D01*
X114006286Y-98099619D02*
X114053905Y-98052000D01*
X114149143Y-98004381D01*
X114387239Y-98004381D01*
X114482477Y-98052000D01*
X114530096Y-98099619D01*
X114577715Y-98194857D01*
X114577715Y-98290095D01*
X114530096Y-98432952D01*
X113958667Y-99004381D01*
X114577715Y-99004381D01*
X124801334Y-110942381D02*
X124468000Y-110466190D01*
X124229905Y-110942381D02*
X124229905Y-109942381D01*
X124610858Y-109942381D01*
X124706096Y-109990000D01*
X124753715Y-110037619D01*
X124801334Y-110132857D01*
X124801334Y-110275714D01*
X124753715Y-110370952D01*
X124706096Y-110418571D01*
X124610858Y-110466190D01*
X124229905Y-110466190D01*
X125658477Y-110275714D02*
X125658477Y-110942381D01*
X125420381Y-109894762D02*
X125182286Y-110609048D01*
X125801334Y-110609048D01*
X90765334Y-112212381D02*
X90432000Y-111736190D01*
X90193905Y-112212381D02*
X90193905Y-111212381D01*
X90574858Y-111212381D01*
X90670096Y-111260000D01*
X90717715Y-111307619D01*
X90765334Y-111402857D01*
X90765334Y-111545714D01*
X90717715Y-111640952D01*
X90670096Y-111688571D01*
X90574858Y-111736190D01*
X90193905Y-111736190D01*
X91622477Y-111212381D02*
X91432000Y-111212381D01*
X91336762Y-111260000D01*
X91289143Y-111307619D01*
X91193905Y-111450476D01*
X91146286Y-111640952D01*
X91146286Y-112021905D01*
X91193905Y-112117143D01*
X91241524Y-112164762D01*
X91336762Y-112212381D01*
X91527239Y-112212381D01*
X91622477Y-112164762D01*
X91670096Y-112117143D01*
X91717715Y-112021905D01*
X91717715Y-111783810D01*
X91670096Y-111688571D01*
X91622477Y-111640952D01*
X91527239Y-111593333D01*
X91336762Y-111593333D01*
X91241524Y-111640952D01*
X91193905Y-111688571D01*
X91146286Y-111783810D01*
X99512381Y-125102857D02*
X99036190Y-125436191D01*
X99512381Y-125674286D02*
X98512381Y-125674286D01*
X98512381Y-125293333D01*
X98560000Y-125198095D01*
X98607619Y-125150476D01*
X98702857Y-125102857D01*
X98845714Y-125102857D01*
X98940952Y-125150476D01*
X98988571Y-125198095D01*
X99036190Y-125293333D01*
X99036190Y-125674286D01*
X98607619Y-124721905D02*
X98560000Y-124674286D01*
X98512381Y-124579048D01*
X98512381Y-124340952D01*
X98560000Y-124245714D01*
X98607619Y-124198095D01*
X98702857Y-124150476D01*
X98798095Y-124150476D01*
X98940952Y-124198095D01*
X99512381Y-124769524D01*
X99512381Y-124150476D01*
X98512381Y-123531429D02*
X98512381Y-123436190D01*
X98560000Y-123340952D01*
X98607619Y-123293333D01*
X98702857Y-123245714D01*
X98893333Y-123198095D01*
X99131429Y-123198095D01*
X99321905Y-123245714D01*
X99417143Y-123293333D01*
X99464762Y-123340952D01*
X99512381Y-123436190D01*
X99512381Y-123531429D01*
X99464762Y-123626667D01*
X99417143Y-123674286D01*
X99321905Y-123721905D01*
X99131429Y-123769524D01*
X98893333Y-123769524D01*
X98702857Y-123721905D01*
X98607619Y-123674286D01*
X98560000Y-123626667D01*
X98512381Y-123531429D01*
X113657143Y-96464381D02*
X113323809Y-95988190D01*
X113085714Y-96464381D02*
X113085714Y-95464381D01*
X113466667Y-95464381D01*
X113561905Y-95512000D01*
X113609524Y-95559619D01*
X113657143Y-95654857D01*
X113657143Y-95797714D01*
X113609524Y-95892952D01*
X113561905Y-95940571D01*
X113466667Y-95988190D01*
X113085714Y-95988190D01*
X114038095Y-95559619D02*
X114085714Y-95512000D01*
X114180952Y-95464381D01*
X114419048Y-95464381D01*
X114514286Y-95512000D01*
X114561905Y-95559619D01*
X114609524Y-95654857D01*
X114609524Y-95750095D01*
X114561905Y-95892952D01*
X113990476Y-96464381D01*
X114609524Y-96464381D01*
X115561905Y-96464381D02*
X114990476Y-96464381D01*
X115276190Y-96464381D02*
X115276190Y-95464381D01*
X115180952Y-95607238D01*
X115085714Y-95702476D01*
X114990476Y-95750095D01*
X113657143Y-93924381D02*
X113323809Y-93448190D01*
X113085714Y-93924381D02*
X113085714Y-92924381D01*
X113466667Y-92924381D01*
X113561905Y-92972000D01*
X113609524Y-93019619D01*
X113657143Y-93114857D01*
X113657143Y-93257714D01*
X113609524Y-93352952D01*
X113561905Y-93400571D01*
X113466667Y-93448190D01*
X113085714Y-93448190D01*
X114038095Y-93019619D02*
X114085714Y-92972000D01*
X114180952Y-92924381D01*
X114419048Y-92924381D01*
X114514286Y-92972000D01*
X114561905Y-93019619D01*
X114609524Y-93114857D01*
X114609524Y-93210095D01*
X114561905Y-93352952D01*
X113990476Y-93924381D01*
X114609524Y-93924381D01*
X114990476Y-93019619D02*
X115038095Y-92972000D01*
X115133333Y-92924381D01*
X115371429Y-92924381D01*
X115466667Y-92972000D01*
X115514286Y-93019619D01*
X115561905Y-93114857D01*
X115561905Y-93210095D01*
X115514286Y-93352952D01*
X114942857Y-93924381D01*
X115561905Y-93924381D01*
X113657143Y-91384381D02*
X113323809Y-90908190D01*
X113085714Y-91384381D02*
X113085714Y-90384381D01*
X113466667Y-90384381D01*
X113561905Y-90432000D01*
X113609524Y-90479619D01*
X113657143Y-90574857D01*
X113657143Y-90717714D01*
X113609524Y-90812952D01*
X113561905Y-90860571D01*
X113466667Y-90908190D01*
X113085714Y-90908190D01*
X114038095Y-90479619D02*
X114085714Y-90432000D01*
X114180952Y-90384381D01*
X114419048Y-90384381D01*
X114514286Y-90432000D01*
X114561905Y-90479619D01*
X114609524Y-90574857D01*
X114609524Y-90670095D01*
X114561905Y-90812952D01*
X113990476Y-91384381D01*
X114609524Y-91384381D01*
X114942857Y-90384381D02*
X115561905Y-90384381D01*
X115228571Y-90765333D01*
X115371429Y-90765333D01*
X115466667Y-90812952D01*
X115514286Y-90860571D01*
X115561905Y-90955810D01*
X115561905Y-91193905D01*
X115514286Y-91289143D01*
X115466667Y-91336762D01*
X115371429Y-91384381D01*
X115085714Y-91384381D01*
X114990476Y-91336762D01*
X114942857Y-91289143D01*
X113657143Y-83764381D02*
X113323809Y-83288190D01*
X113085714Y-83764381D02*
X113085714Y-82764381D01*
X113466667Y-82764381D01*
X113561905Y-82812000D01*
X113609524Y-82859619D01*
X113657143Y-82954857D01*
X113657143Y-83097714D01*
X113609524Y-83192952D01*
X113561905Y-83240571D01*
X113466667Y-83288190D01*
X113085714Y-83288190D01*
X114038095Y-82859619D02*
X114085714Y-82812000D01*
X114180952Y-82764381D01*
X114419048Y-82764381D01*
X114514286Y-82812000D01*
X114561905Y-82859619D01*
X114609524Y-82954857D01*
X114609524Y-83050095D01*
X114561905Y-83192952D01*
X113990476Y-83764381D01*
X114609524Y-83764381D01*
X115466667Y-83097714D02*
X115466667Y-83764381D01*
X115228571Y-82716762D02*
X114990476Y-83431048D01*
X115609524Y-83431048D01*
X113657143Y-88844381D02*
X113323809Y-88368190D01*
X113085714Y-88844381D02*
X113085714Y-87844381D01*
X113466667Y-87844381D01*
X113561905Y-87892000D01*
X113609524Y-87939619D01*
X113657143Y-88034857D01*
X113657143Y-88177714D01*
X113609524Y-88272952D01*
X113561905Y-88320571D01*
X113466667Y-88368190D01*
X113085714Y-88368190D01*
X114038095Y-87939619D02*
X114085714Y-87892000D01*
X114180952Y-87844381D01*
X114419048Y-87844381D01*
X114514286Y-87892000D01*
X114561905Y-87939619D01*
X114609524Y-88034857D01*
X114609524Y-88130095D01*
X114561905Y-88272952D01*
X113990476Y-88844381D01*
X114609524Y-88844381D01*
X115514286Y-87844381D02*
X115038095Y-87844381D01*
X114990476Y-88320571D01*
X115038095Y-88272952D01*
X115133333Y-88225333D01*
X115371429Y-88225333D01*
X115466667Y-88272952D01*
X115514286Y-88320571D01*
X115561905Y-88415810D01*
X115561905Y-88653905D01*
X115514286Y-88749143D01*
X115466667Y-88796762D01*
X115371429Y-88844381D01*
X115133333Y-88844381D01*
X115038095Y-88796762D01*
X114990476Y-88749143D01*
X113657143Y-86304381D02*
X113323809Y-85828190D01*
X113085714Y-86304381D02*
X113085714Y-85304381D01*
X113466667Y-85304381D01*
X113561905Y-85352000D01*
X113609524Y-85399619D01*
X113657143Y-85494857D01*
X113657143Y-85637714D01*
X113609524Y-85732952D01*
X113561905Y-85780571D01*
X113466667Y-85828190D01*
X113085714Y-85828190D01*
X114038095Y-85399619D02*
X114085714Y-85352000D01*
X114180952Y-85304381D01*
X114419048Y-85304381D01*
X114514286Y-85352000D01*
X114561905Y-85399619D01*
X114609524Y-85494857D01*
X114609524Y-85590095D01*
X114561905Y-85732952D01*
X113990476Y-86304381D01*
X114609524Y-86304381D01*
X115466667Y-85304381D02*
X115276190Y-85304381D01*
X115180952Y-85352000D01*
X115133333Y-85399619D01*
X115038095Y-85542476D01*
X114990476Y-85732952D01*
X114990476Y-86113905D01*
X115038095Y-86209143D01*
X115085714Y-86256762D01*
X115180952Y-86304381D01*
X115371429Y-86304381D01*
X115466667Y-86256762D01*
X115514286Y-86209143D01*
X115561905Y-86113905D01*
X115561905Y-85875810D01*
X115514286Y-85780571D01*
X115466667Y-85732952D01*
X115371429Y-85685333D01*
X115180952Y-85685333D01*
X115085714Y-85732952D01*
X115038095Y-85780571D01*
X114990476Y-85875810D01*
X78176381Y-90558857D02*
X77700190Y-90892191D01*
X78176381Y-91130286D02*
X77176381Y-91130286D01*
X77176381Y-90749333D01*
X77224000Y-90654095D01*
X77271619Y-90606476D01*
X77366857Y-90558857D01*
X77509714Y-90558857D01*
X77604952Y-90606476D01*
X77652571Y-90654095D01*
X77700190Y-90749333D01*
X77700190Y-91130286D01*
X77271619Y-90177905D02*
X77224000Y-90130286D01*
X77176381Y-90035048D01*
X77176381Y-89796952D01*
X77224000Y-89701714D01*
X77271619Y-89654095D01*
X77366857Y-89606476D01*
X77462095Y-89606476D01*
X77604952Y-89654095D01*
X78176381Y-90225524D01*
X78176381Y-89606476D01*
X77176381Y-89273143D02*
X77176381Y-88606476D01*
X78176381Y-89035048D01*
X77160381Y-93098857D02*
X76684190Y-93432191D01*
X77160381Y-93670286D02*
X76160381Y-93670286D01*
X76160381Y-93289333D01*
X76208000Y-93194095D01*
X76255619Y-93146476D01*
X76350857Y-93098857D01*
X76493714Y-93098857D01*
X76588952Y-93146476D01*
X76636571Y-93194095D01*
X76684190Y-93289333D01*
X76684190Y-93670286D01*
X76255619Y-92717905D02*
X76208000Y-92670286D01*
X76160381Y-92575048D01*
X76160381Y-92336952D01*
X76208000Y-92241714D01*
X76255619Y-92194095D01*
X76350857Y-92146476D01*
X76446095Y-92146476D01*
X76588952Y-92194095D01*
X77160381Y-92765524D01*
X77160381Y-92146476D01*
X76588952Y-91575048D02*
X76541333Y-91670286D01*
X76493714Y-91717905D01*
X76398476Y-91765524D01*
X76350857Y-91765524D01*
X76255619Y-91717905D01*
X76208000Y-91670286D01*
X76160381Y-91575048D01*
X76160381Y-91384571D01*
X76208000Y-91289333D01*
X76255619Y-91241714D01*
X76350857Y-91194095D01*
X76398476Y-91194095D01*
X76493714Y-91241714D01*
X76541333Y-91289333D01*
X76588952Y-91384571D01*
X76588952Y-91575048D01*
X76636571Y-91670286D01*
X76684190Y-91717905D01*
X76779429Y-91765524D01*
X76969905Y-91765524D01*
X77065143Y-91717905D01*
X77112762Y-91670286D01*
X77160381Y-91575048D01*
X77160381Y-91384571D01*
X77112762Y-91289333D01*
X77065143Y-91241714D01*
X76969905Y-91194095D01*
X76779429Y-91194095D01*
X76684190Y-91241714D01*
X76636571Y-91289333D01*
X76588952Y-91384571D01*
X109672381Y-137294857D02*
X109196190Y-137628191D01*
X109672381Y-137866286D02*
X108672381Y-137866286D01*
X108672381Y-137485333D01*
X108720000Y-137390095D01*
X108767619Y-137342476D01*
X108862857Y-137294857D01*
X109005714Y-137294857D01*
X109100952Y-137342476D01*
X109148571Y-137390095D01*
X109196190Y-137485333D01*
X109196190Y-137866286D01*
X108767619Y-136913905D02*
X108720000Y-136866286D01*
X108672381Y-136771048D01*
X108672381Y-136532952D01*
X108720000Y-136437714D01*
X108767619Y-136390095D01*
X108862857Y-136342476D01*
X108958095Y-136342476D01*
X109100952Y-136390095D01*
X109672381Y-136961524D01*
X109672381Y-136342476D01*
X109672381Y-135866286D02*
X109672381Y-135675810D01*
X109624762Y-135580571D01*
X109577143Y-135532952D01*
X109434286Y-135437714D01*
X109243810Y-135390095D01*
X108862857Y-135390095D01*
X108767619Y-135437714D01*
X108720000Y-135485333D01*
X108672381Y-135580571D01*
X108672381Y-135771048D01*
X108720000Y-135866286D01*
X108767619Y-135913905D01*
X108862857Y-135961524D01*
X109100952Y-135961524D01*
X109196190Y-135913905D01*
X109243810Y-135866286D01*
X109291429Y-135771048D01*
X109291429Y-135580571D01*
X109243810Y-135485333D01*
X109196190Y-135437714D01*
X109100952Y-135390095D01*
X116022381Y-137294857D02*
X115546190Y-137628191D01*
X116022381Y-137866286D02*
X115022381Y-137866286D01*
X115022381Y-137485333D01*
X115070000Y-137390095D01*
X115117619Y-137342476D01*
X115212857Y-137294857D01*
X115355714Y-137294857D01*
X115450952Y-137342476D01*
X115498571Y-137390095D01*
X115546190Y-137485333D01*
X115546190Y-137866286D01*
X115022381Y-136961524D02*
X115022381Y-136342476D01*
X115403333Y-136675810D01*
X115403333Y-136532952D01*
X115450952Y-136437714D01*
X115498571Y-136390095D01*
X115593810Y-136342476D01*
X115831905Y-136342476D01*
X115927143Y-136390095D01*
X115974762Y-136437714D01*
X116022381Y-136532952D01*
X116022381Y-136818667D01*
X115974762Y-136913905D01*
X115927143Y-136961524D01*
X115022381Y-135723429D02*
X115022381Y-135628190D01*
X115070000Y-135532952D01*
X115117619Y-135485333D01*
X115212857Y-135437714D01*
X115403333Y-135390095D01*
X115641429Y-135390095D01*
X115831905Y-135437714D01*
X115927143Y-135485333D01*
X115974762Y-135532952D01*
X116022381Y-135628190D01*
X116022381Y-135723429D01*
X115974762Y-135818667D01*
X115927143Y-135866286D01*
X115831905Y-135913905D01*
X115641429Y-135961524D01*
X115403333Y-135961524D01*
X115212857Y-135913905D01*
X115117619Y-135866286D01*
X115070000Y-135818667D01*
X115022381Y-135723429D01*
X86844190Y-114649191D02*
X87320381Y-114649191D01*
X86320381Y-114982524D02*
X86844190Y-114649191D01*
X86320381Y-114315857D01*
X86415619Y-114030143D02*
X86368000Y-113982524D01*
X86320381Y-113887286D01*
X86320381Y-113649190D01*
X86368000Y-113553952D01*
X86415619Y-113506333D01*
X86510857Y-113458714D01*
X86606095Y-113458714D01*
X86748952Y-113506333D01*
X87320381Y-114077762D01*
X87320381Y-113458714D01*
X118213143Y-100210857D02*
X118260762Y-100258476D01*
X118308381Y-100401333D01*
X118308381Y-100496571D01*
X118260762Y-100639429D01*
X118165524Y-100734667D01*
X118070286Y-100782286D01*
X117879810Y-100829905D01*
X117736952Y-100829905D01*
X117546476Y-100782286D01*
X117451238Y-100734667D01*
X117356000Y-100639429D01*
X117308381Y-100496571D01*
X117308381Y-100401333D01*
X117356000Y-100258476D01*
X117403619Y-100210857D01*
X117308381Y-99877524D02*
X117308381Y-99258476D01*
X117689333Y-99591810D01*
X117689333Y-99448952D01*
X117736952Y-99353714D01*
X117784571Y-99306095D01*
X117879810Y-99258476D01*
X118117905Y-99258476D01*
X118213143Y-99306095D01*
X118260762Y-99353714D01*
X118308381Y-99448952D01*
X118308381Y-99734667D01*
X118260762Y-99829905D01*
X118213143Y-99877524D01*
X117641714Y-98401333D02*
X118308381Y-98401333D01*
X117260762Y-98639429D02*
X117975048Y-98877524D01*
X117975048Y-98258476D01*
X119418286Y-91788857D02*
X119418286Y-92760286D01*
X119475429Y-92874571D01*
X119532572Y-92931714D01*
X119646858Y-92988857D01*
X119875429Y-92988857D01*
X119989715Y-92931714D01*
X120046858Y-92874571D01*
X120104001Y-92760286D01*
X120104001Y-91788857D01*
X121304001Y-92988857D02*
X120618286Y-92988857D01*
X120961144Y-92988857D02*
X120961144Y-91788857D01*
X120846858Y-91960286D01*
X120732572Y-92074571D01*
X120618286Y-92131714D01*
X122446858Y-92988857D02*
X121761143Y-92988857D01*
X122104001Y-92988857D02*
X122104001Y-91788857D01*
X121989715Y-91960286D01*
X121875429Y-92074571D01*
X121761143Y-92131714D01*
X47442381Y-115546095D02*
X46442381Y-115546095D01*
X46442381Y-115308000D01*
X46490000Y-115165142D01*
X46585238Y-115069904D01*
X46680476Y-115022285D01*
X46870952Y-114974666D01*
X47013810Y-114974666D01*
X47204286Y-115022285D01*
X47299524Y-115069904D01*
X47394762Y-115165142D01*
X47442381Y-115308000D01*
X47442381Y-115546095D01*
X46442381Y-114069904D02*
X46442381Y-114546095D01*
X46918571Y-114593714D01*
X46870952Y-114546095D01*
X46823333Y-114450857D01*
X46823333Y-114212761D01*
X46870952Y-114117523D01*
X46918571Y-114069904D01*
X47013810Y-114022285D01*
X47251905Y-114022285D01*
X47347143Y-114069904D01*
X47394762Y-114117523D01*
X47442381Y-114212761D01*
X47442381Y-114450857D01*
X47394762Y-114546095D01*
X47347143Y-114593714D01*
X52774381Y-118319905D02*
X51774381Y-118319905D01*
X52774381Y-117748476D02*
X52202952Y-118177048D01*
X51774381Y-117748476D02*
X52345810Y-118319905D01*
X52388667Y-112046095D02*
X52388667Y-111569904D01*
X52674381Y-112141333D02*
X51674381Y-111808000D01*
X52674381Y-111474666D01*
X62761905Y-118562381D02*
X62761905Y-117562381D01*
X63000000Y-117562381D01*
X63142858Y-117610000D01*
X63238096Y-117705238D01*
X63285715Y-117800476D01*
X63333334Y-117990952D01*
X63333334Y-118133810D01*
X63285715Y-118324286D01*
X63238096Y-118419524D01*
X63142858Y-118514762D01*
X63000000Y-118562381D01*
X62761905Y-118562381D01*
X63666667Y-117562381D02*
X64285715Y-117562381D01*
X63952381Y-117943333D01*
X64095239Y-117943333D01*
X64190477Y-117990952D01*
X64238096Y-118038571D01*
X64285715Y-118133810D01*
X64285715Y-118371905D01*
X64238096Y-118467143D01*
X64190477Y-118514762D01*
X64095239Y-118562381D01*
X63809524Y-118562381D01*
X63714286Y-118514762D01*
X63666667Y-118467143D01*
X59988095Y-124402381D02*
X59988095Y-123402381D01*
X60559524Y-124402381D02*
X60130952Y-123830952D01*
X60559524Y-123402381D02*
X59988095Y-123973810D01*
X66261905Y-124016667D02*
X66738096Y-124016667D01*
X66166667Y-124302381D02*
X66500000Y-123302381D01*
X66833334Y-124302381D01*
X62539715Y-99356183D02*
X62492096Y-99403802D01*
X62349239Y-99451421D01*
X62254001Y-99451421D01*
X62111143Y-99403802D01*
X62015905Y-99308564D01*
X61968286Y-99213326D01*
X61920667Y-99022850D01*
X61920667Y-98879992D01*
X61968286Y-98689516D01*
X62015905Y-98594278D01*
X62111143Y-98499040D01*
X62254001Y-98451421D01*
X62349239Y-98451421D01*
X62492096Y-98499040D01*
X62539715Y-98546659D01*
X63158762Y-98451421D02*
X63349239Y-98451421D01*
X63444477Y-98499040D01*
X63539715Y-98594278D01*
X63587334Y-98784754D01*
X63587334Y-99118088D01*
X63539715Y-99308564D01*
X63444477Y-99403802D01*
X63349239Y-99451421D01*
X63158762Y-99451421D01*
X63063524Y-99403802D01*
X62968286Y-99308564D01*
X62920667Y-99118088D01*
X62920667Y-98784754D01*
X62968286Y-98594278D01*
X63063524Y-98499040D01*
X63158762Y-98451421D01*
X64015905Y-99451421D02*
X64015905Y-98451421D01*
X64587334Y-99451421D01*
X64587334Y-98451421D01*
X65587334Y-99451421D02*
X65015905Y-99451421D01*
X65301619Y-99451421D02*
X65301619Y-98451421D01*
X65206381Y-98594278D01*
X65111143Y-98689516D01*
X65015905Y-98737135D01*
X71572381Y-113768095D02*
X70572381Y-113768095D01*
X70572381Y-113530000D01*
X70620000Y-113387142D01*
X70715238Y-113291904D01*
X70810476Y-113244285D01*
X71000952Y-113196666D01*
X71143810Y-113196666D01*
X71334286Y-113244285D01*
X71429524Y-113291904D01*
X71524762Y-113387142D01*
X71572381Y-113530000D01*
X71572381Y-113768095D01*
X70667619Y-112815714D02*
X70620000Y-112768095D01*
X70572381Y-112672857D01*
X70572381Y-112434761D01*
X70620000Y-112339523D01*
X70667619Y-112291904D01*
X70762857Y-112244285D01*
X70858095Y-112244285D01*
X71000952Y-112291904D01*
X71572381Y-112863333D01*
X71572381Y-112244285D01*
X71572381Y-98432857D02*
X71096190Y-98766191D01*
X71572381Y-99004286D02*
X70572381Y-99004286D01*
X70572381Y-98623333D01*
X70620000Y-98528095D01*
X70667619Y-98480476D01*
X70762857Y-98432857D01*
X70905714Y-98432857D01*
X71000952Y-98480476D01*
X71048571Y-98528095D01*
X71096190Y-98623333D01*
X71096190Y-99004286D01*
X71572381Y-97480476D02*
X71572381Y-98051905D01*
X71572381Y-97766191D02*
X70572381Y-97766191D01*
X70715238Y-97861429D01*
X70810476Y-97956667D01*
X70858095Y-98051905D01*
X70572381Y-96861429D02*
X70572381Y-96766190D01*
X70620000Y-96670952D01*
X70667619Y-96623333D01*
X70762857Y-96575714D01*
X70953333Y-96528095D01*
X71191429Y-96528095D01*
X71381905Y-96575714D01*
X71477143Y-96623333D01*
X71524762Y-96670952D01*
X71572381Y-96766190D01*
X71572381Y-96861429D01*
X71524762Y-96956667D01*
X71477143Y-97004286D01*
X71381905Y-97051905D01*
X71191429Y-97099524D01*
X70953333Y-97099524D01*
X70762857Y-97051905D01*
X70667619Y-97004286D01*
X70620000Y-96956667D01*
X70572381Y-96861429D01*
X98829905Y-96464381D02*
X98829905Y-95464381D01*
X99068000Y-95464381D01*
X99210858Y-95512000D01*
X99306096Y-95607238D01*
X99353715Y-95702476D01*
X99401334Y-95892952D01*
X99401334Y-96035810D01*
X99353715Y-96226286D01*
X99306096Y-96321524D01*
X99210858Y-96416762D01*
X99068000Y-96464381D01*
X98829905Y-96464381D01*
X100258477Y-95464381D02*
X100068000Y-95464381D01*
X99972762Y-95512000D01*
X99925143Y-95559619D01*
X99829905Y-95702476D01*
X99782286Y-95892952D01*
X99782286Y-96273905D01*
X99829905Y-96369143D01*
X99877524Y-96416762D01*
X99972762Y-96464381D01*
X100163239Y-96464381D01*
X100258477Y-96416762D01*
X100306096Y-96369143D01*
X100353715Y-96273905D01*
X100353715Y-96035810D01*
X100306096Y-95940571D01*
X100258477Y-95892952D01*
X100163239Y-95845333D01*
X99972762Y-95845333D01*
X99877524Y-95892952D01*
X99829905Y-95940571D01*
X99782286Y-96035810D01*
X98829905Y-94178381D02*
X98829905Y-93178381D01*
X99068000Y-93178381D01*
X99210858Y-93226000D01*
X99306096Y-93321238D01*
X99353715Y-93416476D01*
X99401334Y-93606952D01*
X99401334Y-93749810D01*
X99353715Y-93940286D01*
X99306096Y-94035524D01*
X99210858Y-94130762D01*
X99068000Y-94178381D01*
X98829905Y-94178381D01*
X99734667Y-93178381D02*
X100401334Y-93178381D01*
X99972762Y-94178381D01*
X98829905Y-91384381D02*
X98829905Y-90384381D01*
X99068000Y-90384381D01*
X99210858Y-90432000D01*
X99306096Y-90527238D01*
X99353715Y-90622476D01*
X99401334Y-90812952D01*
X99401334Y-90955810D01*
X99353715Y-91146286D01*
X99306096Y-91241524D01*
X99210858Y-91336762D01*
X99068000Y-91384381D01*
X98829905Y-91384381D01*
X99972762Y-90812952D02*
X99877524Y-90765333D01*
X99829905Y-90717714D01*
X99782286Y-90622476D01*
X99782286Y-90574857D01*
X99829905Y-90479619D01*
X99877524Y-90432000D01*
X99972762Y-90384381D01*
X100163239Y-90384381D01*
X100258477Y-90432000D01*
X100306096Y-90479619D01*
X100353715Y-90574857D01*
X100353715Y-90622476D01*
X100306096Y-90717714D01*
X100258477Y-90765333D01*
X100163239Y-90812952D01*
X99972762Y-90812952D01*
X99877524Y-90860571D01*
X99829905Y-90908190D01*
X99782286Y-91003429D01*
X99782286Y-91193905D01*
X99829905Y-91289143D01*
X99877524Y-91336762D01*
X99972762Y-91384381D01*
X100163239Y-91384381D01*
X100258477Y-91336762D01*
X100306096Y-91289143D01*
X100353715Y-91193905D01*
X100353715Y-91003429D01*
X100306096Y-90908190D01*
X100258477Y-90860571D01*
X100163239Y-90812952D01*
X98829905Y-83764381D02*
X98829905Y-82764381D01*
X99068000Y-82764381D01*
X99210858Y-82812000D01*
X99306096Y-82907238D01*
X99353715Y-83002476D01*
X99401334Y-83192952D01*
X99401334Y-83335810D01*
X99353715Y-83526286D01*
X99306096Y-83621524D01*
X99210858Y-83716762D01*
X99068000Y-83764381D01*
X98829905Y-83764381D01*
X99877524Y-83764381D02*
X100068000Y-83764381D01*
X100163239Y-83716762D01*
X100210858Y-83669143D01*
X100306096Y-83526286D01*
X100353715Y-83335810D01*
X100353715Y-82954857D01*
X100306096Y-82859619D01*
X100258477Y-82812000D01*
X100163239Y-82764381D01*
X99972762Y-82764381D01*
X99877524Y-82812000D01*
X99829905Y-82859619D01*
X99782286Y-82954857D01*
X99782286Y-83192952D01*
X99829905Y-83288190D01*
X99877524Y-83335810D01*
X99972762Y-83383429D01*
X100163239Y-83383429D01*
X100258477Y-83335810D01*
X100306096Y-83288190D01*
X100353715Y-83192952D01*
X98099714Y-88844381D02*
X98099714Y-87844381D01*
X98337809Y-87844381D01*
X98480667Y-87892000D01*
X98575905Y-87987238D01*
X98623524Y-88082476D01*
X98671143Y-88272952D01*
X98671143Y-88415810D01*
X98623524Y-88606286D01*
X98575905Y-88701524D01*
X98480667Y-88796762D01*
X98337809Y-88844381D01*
X98099714Y-88844381D01*
X99623524Y-88844381D02*
X99052095Y-88844381D01*
X99337809Y-88844381D02*
X99337809Y-87844381D01*
X99242571Y-87987238D01*
X99147333Y-88082476D01*
X99052095Y-88130095D01*
X100242571Y-87844381D02*
X100337810Y-87844381D01*
X100433048Y-87892000D01*
X100480667Y-87939619D01*
X100528286Y-88034857D01*
X100575905Y-88225333D01*
X100575905Y-88463429D01*
X100528286Y-88653905D01*
X100480667Y-88749143D01*
X100433048Y-88796762D01*
X100337810Y-88844381D01*
X100242571Y-88844381D01*
X100147333Y-88796762D01*
X100099714Y-88749143D01*
X100052095Y-88653905D01*
X100004476Y-88463429D01*
X100004476Y-88225333D01*
X100052095Y-88034857D01*
X100099714Y-87939619D01*
X100147333Y-87892000D01*
X100242571Y-87844381D01*
X98099714Y-86304381D02*
X98099714Y-85304381D01*
X98337809Y-85304381D01*
X98480667Y-85352000D01*
X98575905Y-85447238D01*
X98623524Y-85542476D01*
X98671143Y-85732952D01*
X98671143Y-85875810D01*
X98623524Y-86066286D01*
X98575905Y-86161524D01*
X98480667Y-86256762D01*
X98337809Y-86304381D01*
X98099714Y-86304381D01*
X99623524Y-86304381D02*
X99052095Y-86304381D01*
X99337809Y-86304381D02*
X99337809Y-85304381D01*
X99242571Y-85447238D01*
X99147333Y-85542476D01*
X99052095Y-85590095D01*
X100575905Y-86304381D02*
X100004476Y-86304381D01*
X100290190Y-86304381D02*
X100290190Y-85304381D01*
X100194952Y-85447238D01*
X100099714Y-85542476D01*
X100004476Y-85590095D01*
M02*
