G04 #@! TF.FileFunction,Copper,L1,Top,Signal*
%FSLAX46Y46*%
G04 Gerber Fmt 4.6, Leading zero omitted, Abs format (unit mm)*
G04 Created by KiCad (PCBNEW 4.0.2-stable) date 5/29/2016 8:13:19 PM*
%MOMM*%
G01*
G04 APERTURE LIST*
%ADD10C,0.127000*%
%ADD11R,1.350000X0.600000*%
%ADD12R,1.350000X0.400000*%
%ADD13C,1.900000*%
%ADD14C,1.200000*%
%ADD15O,1.524000X2.032000*%
%ADD16R,0.230000X1.000000*%
%ADD17R,1.000000X0.230000*%
%ADD18R,0.600000X1.100000*%
%ADD19O,1.998980X2.999740*%
%ADD20O,2.999740X1.998980*%
%ADD21R,2.000000X2.000000*%
%ADD22C,2.000000*%
%ADD23R,1.600000X2.000000*%
%ADD24R,2.032000X1.524000*%
%ADD25R,2.032000X1.727200*%
%ADD26O,2.032000X1.727200*%
%ADD27R,1.727200X1.727200*%
%ADD28O,1.727200X1.727200*%
%ADD29R,1.700000X2.000000*%
%ADD30R,2.000000X1.700000*%
%ADD31R,3.657600X2.032000*%
%ADD32R,1.016000X2.032000*%
%ADD33R,2.000000X0.600000*%
%ADD34C,1.500000*%
%ADD35R,2.000000X1.600000*%
%ADD36R,1.501140X2.999740*%
%ADD37R,6.300000X2.200000*%
%ADD38O,0.350000X0.800000*%
%ADD39O,0.800000X0.350000*%
%ADD40R,1.350000X1.350000*%
%ADD41R,0.550000X1.145000*%
%ADD42R,1.145000X0.550000*%
%ADD43R,1.060000X0.650000*%
%ADD44R,1.800860X1.597660*%
%ADD45C,1.300000*%
%ADD46C,1.778000*%
%ADD47R,0.800000X0.400000*%
%ADD48R,2.301240X2.499360*%
%ADD49R,2.499360X2.301240*%
%ADD50O,4.572000X4.572000*%
%ADD51O,4.064000X4.064000*%
%ADD52O,3.500120X3.500120*%
%ADD53R,1.597660X1.800860*%
%ADD54C,4.064000*%
%ADD55C,0.685800*%
%ADD56C,0.300000*%
%ADD57C,0.200000*%
%ADD58C,0.400000*%
%ADD59C,0.500000*%
%ADD60C,0.600000*%
%ADD61C,0.800000*%
%ADD62C,0.250000*%
%ADD63C,0.254000*%
G04 APERTURE END LIST*
D10*
D11*
X106295000Y-154155000D03*
X112145000Y-154155000D03*
D12*
X106295000Y-153405000D03*
X112145000Y-153405000D03*
X106295000Y-152755000D03*
X112145000Y-152755000D03*
X106295000Y-152105000D03*
X112145000Y-152105000D03*
X106295000Y-151455000D03*
X112145000Y-151455000D03*
X106295000Y-150805000D03*
X112145000Y-150805000D03*
X106295000Y-150155000D03*
X112145000Y-150155000D03*
X106295000Y-149505000D03*
X112145000Y-149505000D03*
X106295000Y-148855000D03*
X112145000Y-148855000D03*
D11*
X106295000Y-148105000D03*
X112145000Y-148105000D03*
D13*
X137160000Y-170180000D03*
X137160000Y-167640000D03*
X137160000Y-165100000D03*
X137160000Y-162560000D03*
X137160000Y-160020000D03*
X137160000Y-157480000D03*
X137160000Y-154940000D03*
X137160000Y-152400000D03*
X137160000Y-149860000D03*
X137160000Y-147320000D03*
X137160000Y-144780000D03*
X137160000Y-142240000D03*
X137160000Y-139700000D03*
X121920000Y-139700000D03*
X121920000Y-142240000D03*
X121920000Y-144780000D03*
X121920000Y-147320000D03*
X121920000Y-149860000D03*
X121920000Y-152400000D03*
X121920000Y-154940000D03*
X121920000Y-157480000D03*
X121920000Y-160020000D03*
X121920000Y-162560000D03*
X121920000Y-165100000D03*
D14*
X121920000Y-167640000D03*
D13*
X121920000Y-170180000D03*
X121920000Y-172720000D03*
X137160000Y-172720000D03*
D15*
X97269300Y-135890000D03*
X70370700Y-137160000D03*
X97269300Y-138430000D03*
D16*
X104150000Y-113950000D03*
X104550000Y-113950000D03*
X104950000Y-113950000D03*
X105350000Y-113950000D03*
X105750000Y-113950000D03*
X106150000Y-113950000D03*
X106550000Y-113950000D03*
X106950000Y-113950000D03*
X107350000Y-113950000D03*
X107750000Y-113950000D03*
X108150000Y-113950000D03*
X108550000Y-113950000D03*
X108950000Y-113950000D03*
X109350000Y-113950000D03*
X109750000Y-113950000D03*
X110150000Y-113950000D03*
X110550000Y-113950000D03*
X110950000Y-113950000D03*
X111350000Y-113950000D03*
X111750000Y-113950000D03*
D17*
X113950000Y-111750000D03*
X113950000Y-111350000D03*
X113950000Y-110950000D03*
X113950000Y-110550000D03*
X113950000Y-110150000D03*
X113950000Y-109750000D03*
X113950000Y-109350000D03*
X113950000Y-108950000D03*
X113950000Y-108550000D03*
X113950000Y-108150000D03*
X113950000Y-107750000D03*
X113950000Y-107350000D03*
X113950000Y-106950000D03*
X113950000Y-106550000D03*
X113950000Y-106150000D03*
X113950000Y-105750000D03*
X113950000Y-105350000D03*
X113950000Y-104950000D03*
X113950000Y-104550000D03*
X113950000Y-104150000D03*
D16*
X111750000Y-101950000D03*
X111350000Y-101950000D03*
X110950000Y-101950000D03*
X110550000Y-101950000D03*
X110150000Y-101950000D03*
X109750000Y-101950000D03*
X109350000Y-101950000D03*
X108950000Y-101950000D03*
X108550000Y-101950000D03*
X108150000Y-101950000D03*
X107750000Y-101950000D03*
X107350000Y-101950000D03*
X106950000Y-101950000D03*
X106550000Y-101950000D03*
X106150000Y-101950000D03*
X105750000Y-101950000D03*
X105350000Y-101950000D03*
X104950000Y-101950000D03*
X104550000Y-101950000D03*
X104150000Y-101950000D03*
D17*
X101950000Y-104150000D03*
X101950000Y-104550000D03*
X101950000Y-104950000D03*
X101950000Y-105350000D03*
X101950000Y-105750000D03*
X101950000Y-106150000D03*
X101950000Y-106550000D03*
X101950000Y-106950000D03*
X101950000Y-107350000D03*
X101950000Y-107750000D03*
X101950000Y-108150000D03*
X101950000Y-108550000D03*
X101950000Y-108950000D03*
X101950000Y-109350000D03*
X101950000Y-109750000D03*
X101950000Y-110150000D03*
X101950000Y-110550000D03*
X101950000Y-110950000D03*
X101950000Y-111350000D03*
X101950000Y-111750000D03*
D18*
X131923000Y-94572000D03*
X131923000Y-92372000D03*
X130673000Y-94572000D03*
X130673000Y-92372000D03*
X129423000Y-94572000D03*
X129423000Y-92372000D03*
X128173000Y-94572000D03*
X128173000Y-92372000D03*
D19*
X59690000Y-156718000D03*
D20*
X62230000Y-154178000D03*
X57150000Y-154178000D03*
D21*
X100330000Y-171450000D03*
D22*
X97790000Y-171450000D03*
D23*
X123190000Y-128810000D03*
X123190000Y-132810000D03*
D24*
X60325000Y-108966000D03*
X60325000Y-105664000D03*
X50165000Y-108966000D03*
X50165000Y-105664000D03*
D23*
X116332000Y-154654000D03*
X116332000Y-150654000D03*
X114300000Y-154654000D03*
X114300000Y-150654000D03*
D25*
X118110000Y-128270000D03*
D26*
X118110000Y-130810000D03*
X118110000Y-133350000D03*
X118110000Y-135890000D03*
D25*
X105410000Y-128270000D03*
D26*
X105410000Y-130810000D03*
X105410000Y-133350000D03*
X105410000Y-135890000D03*
D25*
X111760000Y-128270000D03*
D26*
X111760000Y-130810000D03*
X111760000Y-133350000D03*
X111760000Y-135890000D03*
D27*
X110490000Y-157480000D03*
D28*
X107950000Y-157480000D03*
X110490000Y-160020000D03*
X107950000Y-160020000D03*
X110490000Y-162560000D03*
X107950000Y-162560000D03*
X110490000Y-165100000D03*
X107950000Y-165100000D03*
X110490000Y-167640000D03*
X107950000Y-167640000D03*
X110490000Y-170180000D03*
X107950000Y-170180000D03*
X110490000Y-172720000D03*
X107950000Y-172720000D03*
D29*
X118364000Y-154654000D03*
X118364000Y-150654000D03*
D30*
X101060000Y-167640000D03*
X97060000Y-167640000D03*
X57690000Y-160020000D03*
X61690000Y-160020000D03*
D31*
X55245000Y-102108000D03*
D32*
X55245000Y-108712000D03*
X57531000Y-108712000D03*
X52959000Y-108712000D03*
D33*
X135460000Y-125095000D03*
X126160000Y-125095000D03*
X135460000Y-126365000D03*
X126160000Y-126365000D03*
X135460000Y-127635000D03*
X126160000Y-127635000D03*
X135460000Y-128905000D03*
X126160000Y-128905000D03*
X135460000Y-130175000D03*
X126160000Y-130175000D03*
X135460000Y-131445000D03*
X126160000Y-131445000D03*
X135460000Y-132715000D03*
X126160000Y-132715000D03*
X135460000Y-133985000D03*
X126160000Y-133985000D03*
X135460000Y-135255000D03*
X126160000Y-135255000D03*
X135460000Y-136525000D03*
X126160000Y-136525000D03*
D34*
X59690000Y-148580000D03*
X59690000Y-140980000D03*
D30*
X87535000Y-157480000D03*
X91535000Y-157480000D03*
D35*
X123476000Y-121920000D03*
X127476000Y-121920000D03*
D36*
X134112000Y-103665020D03*
X134112000Y-107662980D03*
D35*
X134144000Y-113284000D03*
X138144000Y-113284000D03*
D23*
X136144000Y-108172000D03*
X136144000Y-104172000D03*
X125476000Y-115348000D03*
X125476000Y-119348000D03*
D35*
X60230000Y-124460000D03*
X64230000Y-124460000D03*
X49435000Y-120015000D03*
X53435000Y-120015000D03*
D23*
X60325000Y-112935000D03*
X60325000Y-116935000D03*
D35*
X132175000Y-89535000D03*
X128175000Y-89535000D03*
D37*
X55245000Y-116985000D03*
X55245000Y-112885000D03*
D30*
X60420000Y-128270000D03*
X56420000Y-128270000D03*
D29*
X45720000Y-121190000D03*
X45720000Y-125190000D03*
X73660000Y-100870000D03*
X73660000Y-104870000D03*
X45085000Y-112935000D03*
X45085000Y-116935000D03*
D38*
X129835000Y-121380000D03*
X130485000Y-121380000D03*
X131135000Y-121380000D03*
X131785000Y-121380000D03*
D39*
X132810000Y-120355000D03*
X132810000Y-119705000D03*
X132810000Y-119055000D03*
X132810000Y-118405000D03*
D38*
X131785000Y-117380000D03*
X131135000Y-117380000D03*
X130485000Y-117380000D03*
X129835000Y-117380000D03*
D39*
X128810000Y-118405000D03*
X128810000Y-119055000D03*
X128810000Y-119705000D03*
X128810000Y-120355000D03*
D40*
X131485000Y-118705000D03*
X130135000Y-118705000D03*
X131485000Y-120055000D03*
X130135000Y-120055000D03*
D41*
X131064000Y-112841500D03*
X131064000Y-108646500D03*
D42*
X129966500Y-112744000D03*
X132161500Y-112744000D03*
X129966500Y-111944000D03*
X132161500Y-111944000D03*
X129966500Y-111144000D03*
X132161500Y-111144000D03*
X129966500Y-110344000D03*
X132161500Y-110344000D03*
X129966500Y-109544000D03*
X132161500Y-109544000D03*
X129966500Y-108744000D03*
X132161500Y-108744000D03*
D43*
X54145000Y-122875000D03*
X54145000Y-123825000D03*
X54145000Y-124775000D03*
X56345000Y-124775000D03*
X56345000Y-122875000D03*
X56345000Y-123825000D03*
D44*
X73660000Y-107800140D03*
X73660000Y-110639860D03*
D35*
X91535000Y-154940000D03*
X87535000Y-154940000D03*
X95155000Y-160020000D03*
X99155000Y-160020000D03*
X91535000Y-172720000D03*
X87535000Y-172720000D03*
D30*
X87535000Y-165100000D03*
X91535000Y-165100000D03*
X87535000Y-162560000D03*
X91535000Y-162560000D03*
X87535000Y-160020000D03*
X91535000Y-160020000D03*
X87535000Y-167640000D03*
X91535000Y-167640000D03*
X87535000Y-170180000D03*
X91535000Y-170180000D03*
D25*
X83185000Y-162560000D03*
D26*
X83185000Y-165100000D03*
X83185000Y-167640000D03*
X83185000Y-170180000D03*
X83185000Y-172720000D03*
D23*
X81280000Y-108490000D03*
X81280000Y-112490000D03*
X81280000Y-118840000D03*
X81280000Y-114840000D03*
X114300000Y-117380000D03*
X114300000Y-121380000D03*
X111760000Y-117380000D03*
X111760000Y-121380000D03*
X109220000Y-117380000D03*
X109220000Y-121380000D03*
D35*
X70644000Y-87376000D03*
X74644000Y-87376000D03*
X118650000Y-107950000D03*
X122650000Y-107950000D03*
X97250000Y-106680000D03*
X93250000Y-106680000D03*
D23*
X106680000Y-117380000D03*
X106680000Y-121380000D03*
D35*
X97250000Y-109220000D03*
X93250000Y-109220000D03*
D23*
X116840000Y-117380000D03*
X116840000Y-121380000D03*
X104140000Y-117380000D03*
X104140000Y-121380000D03*
X119380000Y-117380000D03*
X119380000Y-121380000D03*
D35*
X118650000Y-105410000D03*
X122650000Y-105410000D03*
D22*
X94105000Y-95760000D03*
X78615000Y-95760000D03*
D14*
X86995000Y-101600000D03*
X84455000Y-101600000D03*
X81915000Y-101600000D03*
X89535000Y-101600000D03*
X90805000Y-99060000D03*
X88265000Y-99060000D03*
X85725000Y-99060000D03*
X83185000Y-99060000D03*
D45*
X79735000Y-87810000D03*
X82275000Y-87810000D03*
X92985000Y-87810000D03*
X90445000Y-87810000D03*
D29*
X101600000Y-121380000D03*
X101600000Y-117380000D03*
D30*
X111220000Y-98552000D03*
X107220000Y-98552000D03*
X122650000Y-110490000D03*
X118650000Y-110490000D03*
X93250000Y-111760000D03*
X97250000Y-111760000D03*
D29*
X99060000Y-117380000D03*
X99060000Y-121380000D03*
D30*
X107220000Y-96012000D03*
X111220000Y-96012000D03*
X107220000Y-93472000D03*
X111220000Y-93472000D03*
X107220000Y-90932000D03*
X111220000Y-90932000D03*
X107220000Y-83312000D03*
X111220000Y-83312000D03*
X107220000Y-88392000D03*
X111220000Y-88392000D03*
X107220000Y-85852000D03*
X111220000Y-85852000D03*
X74644000Y-89916000D03*
X70644000Y-89916000D03*
X74644000Y-92456000D03*
X70644000Y-92456000D03*
D29*
X109220000Y-130080000D03*
X109220000Y-134080000D03*
X115570000Y-130080000D03*
X115570000Y-134080000D03*
D46*
X85090000Y-111760000D03*
X85090000Y-116840000D03*
D23*
X117856000Y-92996000D03*
X117856000Y-96996000D03*
D47*
X121604000Y-94346000D03*
X120204000Y-94346000D03*
X121604000Y-94996000D03*
X120204000Y-94996000D03*
X121604000Y-95646000D03*
X120204000Y-95646000D03*
D48*
X49022000Y-116956840D03*
X49022000Y-112659160D03*
D49*
X61351160Y-120650000D03*
X65648840Y-120650000D03*
D50*
X63754000Y-95504000D03*
D51*
X63754000Y-88900000D03*
D52*
X59309000Y-92710000D03*
D44*
X71120000Y-107800140D03*
X71120000Y-110639860D03*
D29*
X71120000Y-100870000D03*
X71120000Y-104870000D03*
D53*
X104543860Y-96012000D03*
X101704140Y-96012000D03*
X104543860Y-93472000D03*
X101704140Y-93472000D03*
X104543860Y-90932000D03*
X101704140Y-90932000D03*
X104543860Y-83312000D03*
X101704140Y-83312000D03*
X104543860Y-88392000D03*
X101704140Y-88392000D03*
X104543860Y-85852000D03*
X101704140Y-85852000D03*
D54*
X43180000Y-81280000D03*
X43180000Y-175260000D03*
X132080000Y-81280000D03*
X132080000Y-175260000D03*
D55*
X72390000Y-113030000D03*
X123444000Y-134874000D03*
X124968000Y-138176000D03*
X116332000Y-156464000D03*
X104394000Y-151130000D03*
X101600000Y-103124000D03*
X53086000Y-106934000D03*
X110236000Y-112522000D03*
X108966000Y-115316000D03*
X107188000Y-115316000D03*
X124460000Y-107950000D03*
X124460000Y-105410000D03*
X61722000Y-116840000D03*
X53086000Y-123698000D03*
X47244000Y-125222000D03*
X51816000Y-105664000D03*
X61976000Y-105664000D03*
X68834000Y-120650000D03*
X65786000Y-124460000D03*
X85344000Y-154940000D03*
X89662000Y-172720000D03*
X100838000Y-160020000D03*
X100584000Y-111252000D03*
X100584000Y-106680000D03*
X112014000Y-107696000D03*
X112014000Y-106172000D03*
X110998000Y-103124000D03*
X76200000Y-87376000D03*
X79756000Y-112776000D03*
X79756000Y-114808000D03*
X129540000Y-90932000D03*
X127000000Y-92456000D03*
X118364000Y-94996000D03*
X116332000Y-97028000D03*
X119380000Y-97028000D03*
X128016000Y-87376000D03*
X135128000Y-111760000D03*
X134112000Y-111252000D03*
X134112000Y-110236000D03*
X138176000Y-115316000D03*
X136144000Y-102108000D03*
X134112000Y-101092000D03*
X125476000Y-113284000D03*
X129540000Y-122428000D03*
X130048000Y-123444000D03*
X133604000Y-131572000D03*
X133604000Y-133096000D03*
X133604000Y-134112000D03*
X133604000Y-135636000D03*
X133604000Y-136652000D03*
X128016000Y-135128000D03*
X128016000Y-133604000D03*
X128016000Y-132588000D03*
X128016000Y-124968000D03*
X123444000Y-89408000D03*
X97536000Y-117348000D03*
X91440000Y-109220000D03*
X91440000Y-106680000D03*
X104140000Y-123190000D03*
X106680000Y-123190000D03*
X109220000Y-123190000D03*
X111760000Y-123190000D03*
X114300000Y-123190000D03*
X116840000Y-123190000D03*
X119380000Y-123190000D03*
X133604000Y-126492000D03*
X128016000Y-125984000D03*
X105156000Y-115316000D03*
X114300000Y-147320000D03*
X128016000Y-83820000D03*
X116332000Y-91948000D03*
X119380000Y-91694000D03*
X131135000Y-124460000D03*
X131064000Y-115316000D03*
X105410000Y-133350000D03*
X124460000Y-97028000D03*
X121412000Y-92456000D03*
X95250000Y-109220000D03*
X106680000Y-119380000D03*
X99060000Y-108204000D03*
X106680000Y-111760000D03*
X108204000Y-110744000D03*
X107442000Y-111252000D03*
X95250000Y-106680000D03*
X105410000Y-112522000D03*
X130048000Y-129032000D03*
X130048000Y-149352000D03*
X87376000Y-151384000D03*
X127254000Y-109982000D03*
X127254000Y-108712000D03*
X137414000Y-116332000D03*
X126492000Y-94996000D03*
D56*
X97269300Y-138430000D02*
X97269300Y-135890000D01*
D57*
X97269300Y-138430000D02*
X98793300Y-139954000D01*
X133223000Y-130175000D02*
X135460000Y-130175000D01*
X131826000Y-131572000D02*
X133223000Y-130175000D01*
X131826000Y-136398000D02*
X131826000Y-131572000D01*
X129032000Y-139192000D02*
X131826000Y-136398000D01*
X124968000Y-139192000D02*
X129032000Y-139192000D01*
X124714000Y-138938000D02*
X124968000Y-139192000D01*
X122936000Y-137160000D02*
X124714000Y-138938000D01*
X120142000Y-137160000D02*
X122936000Y-137160000D01*
X119888000Y-137414000D02*
X120142000Y-137160000D01*
X117348000Y-139954000D02*
X119888000Y-137414000D01*
X98793300Y-139954000D02*
X117348000Y-139954000D01*
D58*
X73660000Y-110639860D02*
X73660000Y-111760000D01*
X71120000Y-111760000D02*
X72390000Y-113030000D01*
X71120000Y-111760000D02*
X71120000Y-110639860D01*
X73660000Y-111760000D02*
X72390000Y-113030000D01*
X123444000Y-134874000D02*
X123825000Y-135255000D01*
D59*
X123190000Y-134620000D02*
X123444000Y-134874000D01*
X123190000Y-132810000D02*
X123190000Y-134620000D01*
D58*
X123825000Y-135255000D02*
X126160000Y-135255000D01*
X126160000Y-136525000D02*
X126160000Y-136984000D01*
X126160000Y-136984000D02*
X124968000Y-138176000D01*
D56*
X116332000Y-154654000D02*
X116332000Y-156464000D01*
X114300000Y-154654000D02*
X116332000Y-154654000D01*
X106295000Y-150805000D02*
X104719000Y-150805000D01*
X104719000Y-150805000D02*
X104394000Y-151130000D01*
D57*
X101950000Y-105750000D02*
X103038000Y-105750000D01*
X103124000Y-105664000D02*
X103124000Y-105156000D01*
X103038000Y-105750000D02*
X103124000Y-105664000D01*
X101950000Y-105350000D02*
X102930000Y-105350000D01*
X103124000Y-105156000D02*
X103124000Y-104648000D01*
X102930000Y-105350000D02*
X103124000Y-105156000D01*
X101950000Y-104950000D02*
X102822000Y-104950000D01*
X102108000Y-103124000D02*
X101600000Y-103124000D01*
X103124000Y-104140000D02*
X102108000Y-103124000D01*
X103124000Y-104648000D02*
X103124000Y-104140000D01*
X102822000Y-104950000D02*
X103124000Y-104648000D01*
D60*
X52959000Y-108712000D02*
X52959000Y-107061000D01*
X52959000Y-107061000D02*
X53086000Y-106934000D01*
D57*
X110550000Y-113950000D02*
X110550000Y-112836000D01*
X110550000Y-112836000D02*
X110236000Y-112522000D01*
X109350000Y-113950000D02*
X109350000Y-114932000D01*
X108950000Y-115300000D02*
X108966000Y-115316000D01*
X108950000Y-115300000D02*
X108950000Y-113950000D01*
X109350000Y-114932000D02*
X108966000Y-115316000D01*
X107750000Y-113950000D02*
X107750000Y-114754000D01*
X107750000Y-114754000D02*
X107188000Y-115316000D01*
D58*
X122650000Y-107950000D02*
X124460000Y-107950000D01*
X122650000Y-105410000D02*
X124460000Y-105410000D01*
X60325000Y-116935000D02*
X61627000Y-116935000D01*
X61627000Y-116935000D02*
X61722000Y-116840000D01*
X54145000Y-123825000D02*
X53213000Y-123825000D01*
X53213000Y-123825000D02*
X53086000Y-123698000D01*
X45720000Y-125190000D02*
X47212000Y-125190000D01*
X47212000Y-125190000D02*
X47244000Y-125222000D01*
X50165000Y-105664000D02*
X51816000Y-105664000D01*
X60325000Y-105664000D02*
X61976000Y-105664000D01*
X66400680Y-120650000D02*
X68834000Y-120650000D01*
X64230000Y-124460000D02*
X65786000Y-124460000D01*
D57*
X105350000Y-113950000D02*
X105350000Y-115122000D01*
D56*
X87535000Y-154940000D02*
X85344000Y-154940000D01*
X87535000Y-172720000D02*
X89662000Y-172720000D01*
X99155000Y-160020000D02*
X100838000Y-160020000D01*
D57*
X101950000Y-110550000D02*
X101286000Y-110550000D01*
X101286000Y-110550000D02*
X100584000Y-111252000D01*
X101950000Y-106950000D02*
X100854000Y-106950000D01*
X100854000Y-106950000D02*
X100584000Y-106680000D01*
X113950000Y-107350000D02*
X112360000Y-107350000D01*
X112360000Y-107350000D02*
X112014000Y-107696000D01*
X113950000Y-106550000D02*
X112392000Y-106550000D01*
X112392000Y-106550000D02*
X112014000Y-106172000D01*
X113950000Y-106150000D02*
X112036000Y-106150000D01*
X112036000Y-106150000D02*
X112014000Y-106172000D01*
X113950000Y-105750000D02*
X112436000Y-105750000D01*
X112836000Y-105350000D02*
X112014000Y-106172000D01*
X112836000Y-105350000D02*
X113950000Y-105350000D01*
X112436000Y-105750000D02*
X112014000Y-106172000D01*
X110950000Y-101950000D02*
X110950000Y-103076000D01*
X110950000Y-103076000D02*
X110998000Y-103124000D01*
D58*
X74644000Y-87376000D02*
X76200000Y-87376000D01*
D60*
X81280000Y-112490000D02*
X80042000Y-112490000D01*
X80042000Y-112490000D02*
X79756000Y-112776000D01*
X81280000Y-114840000D02*
X79788000Y-114840000D01*
X79788000Y-114840000D02*
X79756000Y-114808000D01*
D58*
X129423000Y-92372000D02*
X129423000Y-91049000D01*
X129423000Y-91049000D02*
X129540000Y-90932000D01*
X128173000Y-92372000D02*
X127084000Y-92372000D01*
X127084000Y-92372000D02*
X127000000Y-92456000D01*
X120204000Y-94996000D02*
X118364000Y-94996000D01*
X117856000Y-96996000D02*
X116364000Y-96996000D01*
X116364000Y-96996000D02*
X116332000Y-97028000D01*
X120204000Y-95646000D02*
X120204000Y-96204000D01*
X120204000Y-96204000D02*
X119380000Y-97028000D01*
X128175000Y-89535000D02*
X128175000Y-87535000D01*
X128175000Y-87535000D02*
X128016000Y-87376000D01*
X132161500Y-111944000D02*
X134944000Y-111944000D01*
X134944000Y-111944000D02*
X135128000Y-111760000D01*
X132161500Y-110344000D02*
X133204000Y-110344000D01*
X133204000Y-110344000D02*
X134112000Y-111252000D01*
X132161500Y-109544000D02*
X133420000Y-109544000D01*
X133420000Y-109544000D02*
X134112000Y-110236000D01*
X138144000Y-113284000D02*
X138176000Y-113316000D01*
X138176000Y-113316000D02*
X138176000Y-115316000D01*
X136144000Y-104172000D02*
X136144000Y-102108000D01*
X134112000Y-103665020D02*
X134112000Y-101092000D01*
X125476000Y-115348000D02*
X125476000Y-113284000D01*
X127476000Y-121920000D02*
X129032000Y-121920000D01*
X129835000Y-122133000D02*
X129540000Y-122428000D01*
X129835000Y-122133000D02*
X129835000Y-121380000D01*
X129032000Y-121920000D02*
X129540000Y-122428000D01*
X130485000Y-121380000D02*
X130485000Y-123007000D01*
X130485000Y-123007000D02*
X130048000Y-123444000D01*
X135460000Y-131445000D02*
X133731000Y-131445000D01*
X133731000Y-131445000D02*
X133604000Y-131572000D01*
X135460000Y-132715000D02*
X133985000Y-132715000D01*
X133985000Y-132715000D02*
X133604000Y-133096000D01*
X135460000Y-133985000D02*
X133731000Y-133985000D01*
X133731000Y-133985000D02*
X133604000Y-134112000D01*
X135460000Y-135255000D02*
X133985000Y-135255000D01*
X133985000Y-135255000D02*
X133604000Y-135636000D01*
X135460000Y-136525000D02*
X133731000Y-136525000D01*
X133731000Y-136525000D02*
X133604000Y-136652000D01*
X126160000Y-135255000D02*
X127889000Y-135255000D01*
X127889000Y-135255000D02*
X128016000Y-135128000D01*
X126160000Y-133985000D02*
X127635000Y-133985000D01*
X127635000Y-133985000D02*
X128016000Y-133604000D01*
X126160000Y-132715000D02*
X127889000Y-132715000D01*
X127889000Y-132715000D02*
X128016000Y-132588000D01*
X126160000Y-125095000D02*
X127889000Y-125095000D01*
X127889000Y-125095000D02*
X128016000Y-124968000D01*
D61*
X99060000Y-117380000D02*
X97568000Y-117380000D01*
X97568000Y-117380000D02*
X97536000Y-117348000D01*
X93250000Y-109220000D02*
X91440000Y-109220000D01*
X93250000Y-106680000D02*
X91440000Y-106680000D01*
X104140000Y-121380000D02*
X104140000Y-123190000D01*
X106680000Y-121380000D02*
X106680000Y-123190000D01*
X109220000Y-121380000D02*
X109220000Y-123190000D01*
X111760000Y-121380000D02*
X111760000Y-123190000D01*
X114300000Y-121380000D02*
X114300000Y-123190000D01*
X116840000Y-121380000D02*
X116840000Y-123190000D01*
X119380000Y-121380000D02*
X119380000Y-123190000D01*
X116840000Y-121380000D02*
X119380000Y-121380000D01*
X114300000Y-121380000D02*
X116840000Y-121380000D01*
X111760000Y-121380000D02*
X114300000Y-121380000D01*
X109220000Y-121380000D02*
X111760000Y-121380000D01*
X106680000Y-121380000D02*
X109220000Y-121380000D01*
X104140000Y-121380000D02*
X106680000Y-121380000D01*
D58*
X135460000Y-126365000D02*
X133731000Y-126365000D01*
X133731000Y-126365000D02*
X133604000Y-126492000D01*
X127635000Y-126365000D02*
X128016000Y-125984000D01*
X126160000Y-126365000D02*
X127635000Y-126365000D01*
D57*
X105350000Y-115122000D02*
X105156000Y-115316000D01*
D60*
X60420000Y-128270000D02*
X60420000Y-140250000D01*
X60420000Y-140250000D02*
X59690000Y-140980000D01*
D59*
X54356000Y-96266000D02*
X62992000Y-96266000D01*
X62992000Y-96266000D02*
X63754000Y-95504000D01*
D60*
X60420000Y-128270000D02*
X60420000Y-124650000D01*
X60420000Y-124650000D02*
X60230000Y-124460000D01*
X57880000Y-130810000D02*
X60420000Y-128270000D01*
X47244000Y-130810000D02*
X57880000Y-130810000D01*
X42926000Y-126492000D02*
X47244000Y-130810000D01*
X42926000Y-107696000D02*
X42926000Y-126492000D01*
X54356000Y-96266000D02*
X42926000Y-107696000D01*
X56345000Y-123825000D02*
X59595000Y-123825000D01*
X59595000Y-123825000D02*
X60230000Y-124460000D01*
D56*
X60420000Y-128270000D02*
X60420000Y-128820000D01*
D58*
X73549000Y-97901000D02*
X73549000Y-100759000D01*
X73549000Y-100759000D02*
X73660000Y-100870000D01*
D56*
X112145000Y-148855000D02*
X113273000Y-148855000D01*
X114300000Y-147828000D02*
X114300000Y-147320000D01*
X113273000Y-148855000D02*
X114300000Y-147828000D01*
X107188000Y-146558000D02*
X113538000Y-146558000D01*
X114300000Y-147320000D02*
X114300000Y-150654000D01*
X113538000Y-146558000D02*
X114300000Y-147320000D01*
X95758000Y-162560000D02*
X91535000Y-162560000D01*
X97028000Y-161290000D02*
X95758000Y-162560000D01*
X97028000Y-148082000D02*
X97028000Y-161290000D01*
X98552000Y-146558000D02*
X97028000Y-148082000D01*
X107188000Y-146558000D02*
X98552000Y-146558000D01*
D58*
X116205000Y-100203000D02*
X119507000Y-100203000D01*
X131064000Y-102362000D02*
X131064000Y-108646500D01*
X124968000Y-96266000D02*
X131064000Y-102362000D01*
X123444000Y-96266000D02*
X124968000Y-96266000D01*
X119507000Y-100203000D02*
X123444000Y-96266000D01*
D56*
X122650000Y-110490000D02*
X123952000Y-110490000D01*
X125476000Y-104902000D02*
X123222000Y-102648000D01*
X125476000Y-108966000D02*
X125476000Y-104902000D01*
X123952000Y-110490000D02*
X125476000Y-108966000D01*
X116332000Y-150654000D02*
X118364000Y-150654000D01*
X112145000Y-150155000D02*
X113801000Y-150155000D01*
X113801000Y-150155000D02*
X114300000Y-150654000D01*
X112145000Y-151455000D02*
X113499000Y-151455000D01*
X113499000Y-151455000D02*
X114300000Y-150654000D01*
X114300000Y-150654000D02*
X116586000Y-150654000D01*
X112145000Y-150805000D02*
X114149000Y-150805000D01*
X114149000Y-150805000D02*
X114300000Y-150654000D01*
X112145000Y-151455000D02*
X112483000Y-151455000D01*
D60*
X50165000Y-108966000D02*
X50165000Y-109855000D01*
X54356000Y-110490000D02*
X55245000Y-109601000D01*
X50800000Y-110490000D02*
X54356000Y-110490000D01*
X50165000Y-109855000D02*
X50800000Y-110490000D01*
X55245000Y-109601000D02*
X55245000Y-108712000D01*
X50165000Y-108966000D02*
X50165000Y-108839000D01*
X49816000Y-109315000D02*
X50165000Y-108966000D01*
D59*
X111760000Y-128270000D02*
X118110000Y-128270000D01*
X105410000Y-128270000D02*
X111760000Y-128270000D01*
D58*
X111220000Y-83312000D02*
X120650000Y-83312000D01*
X121158000Y-83820000D02*
X128016000Y-83820000D01*
X120650000Y-83312000D02*
X121158000Y-83820000D01*
D57*
X104140000Y-117380000D02*
X104140000Y-118618000D01*
X103632000Y-124206000D02*
X123190000Y-124206000D01*
X102870000Y-123444000D02*
X103632000Y-124206000D01*
X102870000Y-119888000D02*
X102870000Y-123444000D01*
X104140000Y-118618000D02*
X102870000Y-119888000D01*
D58*
X119380000Y-117380000D02*
X123508000Y-117380000D01*
X123508000Y-117380000D02*
X125476000Y-119348000D01*
X123190000Y-128810000D02*
X123190000Y-124206000D01*
X123190000Y-124206000D02*
X123190000Y-122206000D01*
X123190000Y-122206000D02*
X123476000Y-121920000D01*
X122650000Y-110490000D02*
X122650000Y-116522000D01*
X122650000Y-116522000D02*
X125476000Y-119348000D01*
X136144000Y-108172000D02*
X136144000Y-110744000D01*
X135382000Y-113284000D02*
X134144000Y-113284000D01*
X135890000Y-112776000D02*
X135382000Y-113284000D01*
X135890000Y-110998000D02*
X135890000Y-112776000D01*
X136144000Y-110744000D02*
X135890000Y-110998000D01*
D56*
X118650000Y-102648000D02*
X123222000Y-102648000D01*
D58*
X112145000Y-150805000D02*
X112625000Y-150805000D01*
D56*
X91535000Y-165100000D02*
X91535000Y-162560000D01*
X91535000Y-167640000D02*
X91535000Y-165100000D01*
D60*
X119380000Y-117380000D02*
X116840000Y-117380000D01*
X70644000Y-87376000D02*
X70866000Y-87376000D01*
X70866000Y-87376000D02*
X76708000Y-81534000D01*
X109442000Y-81534000D02*
X111220000Y-83312000D01*
X76708000Y-81534000D02*
X109442000Y-81534000D01*
X111220000Y-83312000D02*
X111220000Y-85852000D01*
X111220000Y-85852000D02*
X111220000Y-88392000D01*
X111220000Y-93472000D02*
X111220000Y-90932000D01*
X111220000Y-96012000D02*
X111220000Y-93472000D01*
X111220000Y-98552000D02*
X111220000Y-96012000D01*
X111220000Y-90932000D02*
X111220000Y-88392000D01*
X111220000Y-98552000D02*
X114554000Y-98552000D01*
X118650000Y-102648000D02*
X118650000Y-105410000D01*
X114554000Y-98552000D02*
X116205000Y-100203000D01*
X116205000Y-100203000D02*
X118650000Y-102648000D01*
D57*
X110550000Y-101950000D02*
X110550000Y-99222000D01*
X110550000Y-99222000D02*
X111220000Y-98552000D01*
D59*
X85725000Y-99060000D02*
X86995000Y-100330000D01*
X86995000Y-100330000D02*
X86995000Y-101600000D01*
X70644000Y-94996000D02*
X73549000Y-97901000D01*
X73549000Y-97901000D02*
X73692000Y-98044000D01*
X84709000Y-98044000D02*
X85725000Y-99060000D01*
X73692000Y-98044000D02*
X84709000Y-98044000D01*
D57*
X110550000Y-96682000D02*
X111220000Y-96012000D01*
D58*
X132175000Y-87979000D02*
X132175000Y-89535000D01*
X128016000Y-83820000D02*
X132175000Y-87979000D01*
X111220000Y-93472000D02*
X117380000Y-93472000D01*
X117380000Y-93472000D02*
X117856000Y-92996000D01*
D60*
X55245000Y-108712000D02*
X55245000Y-107315000D01*
X70644000Y-98012000D02*
X70644000Y-94996000D01*
X68072000Y-100584000D02*
X70644000Y-98012000D01*
X61976000Y-100584000D02*
X68072000Y-100584000D01*
X55245000Y-107315000D02*
X61976000Y-100584000D01*
D58*
X131923000Y-92372000D02*
X131923000Y-89787000D01*
X131923000Y-89787000D02*
X132175000Y-89535000D01*
X130673000Y-92372000D02*
X130673000Y-91037000D01*
X130673000Y-91037000D02*
X132175000Y-89535000D01*
X117856000Y-92996000D02*
X117380000Y-92996000D01*
X117380000Y-92996000D02*
X116332000Y-91948000D01*
X132050000Y-89660000D02*
X132175000Y-89535000D01*
D62*
X129966500Y-111944000D02*
X130880000Y-111944000D01*
X130880000Y-111944000D02*
X131064000Y-111760000D01*
X131064000Y-111760000D02*
X131064000Y-108646500D01*
D58*
X131064000Y-108646500D02*
X131064000Y-107696000D01*
X131064000Y-107696000D02*
X131097020Y-107662980D01*
X131097020Y-107662980D02*
X134112000Y-107662980D01*
X136144000Y-108172000D02*
X134621020Y-108172000D01*
X134621020Y-108172000D02*
X134112000Y-107662980D01*
X132161500Y-108744000D02*
X133030980Y-108744000D01*
X133030980Y-108744000D02*
X134112000Y-107662980D01*
X132161500Y-112744000D02*
X133604000Y-112744000D01*
X133604000Y-112744000D02*
X134144000Y-113284000D01*
X128810000Y-120355000D02*
X128769000Y-120396000D01*
X128769000Y-120396000D02*
X126524000Y-120396000D01*
X126524000Y-120396000D02*
X125476000Y-119348000D01*
X125476000Y-119348000D02*
X125833000Y-119705000D01*
X125833000Y-119705000D02*
X128810000Y-119705000D01*
X123476000Y-121920000D02*
X125476000Y-119920000D01*
X125476000Y-119920000D02*
X125476000Y-119348000D01*
X125730000Y-119666000D02*
X125730000Y-118840000D01*
X125730000Y-118840000D02*
X125952000Y-118840000D01*
X123190000Y-128810000D02*
X123285000Y-128905000D01*
X123285000Y-128905000D02*
X126160000Y-128905000D01*
X118110000Y-128270000D02*
X122650000Y-128270000D01*
X122650000Y-128270000D02*
X123190000Y-128810000D01*
D59*
X70644000Y-92456000D02*
X70644000Y-94996000D01*
X70644000Y-89916000D02*
X70644000Y-92456000D01*
X70644000Y-87376000D02*
X70644000Y-89916000D01*
D56*
X117856000Y-92996000D02*
X118854000Y-92996000D01*
X118854000Y-92996000D02*
X120204000Y-94346000D01*
D57*
X119380000Y-117380000D02*
X119380000Y-116332000D01*
X108550000Y-112938000D02*
X108550000Y-113950000D01*
X109728000Y-111760000D02*
X108550000Y-112938000D01*
X111760000Y-111760000D02*
X109728000Y-111760000D01*
X114808000Y-114808000D02*
X111760000Y-111760000D01*
X117856000Y-114808000D02*
X114808000Y-114808000D01*
X119380000Y-116332000D02*
X117856000Y-114808000D01*
X110950000Y-113950000D02*
X110950000Y-113078000D01*
X110950000Y-113078000D02*
X111252000Y-112776000D01*
X111252000Y-112776000D02*
X112236000Y-112776000D01*
X112236000Y-112776000D02*
X116840000Y-117380000D01*
X104550000Y-113950000D02*
X104550000Y-116970000D01*
X104550000Y-116970000D02*
X104140000Y-117380000D01*
D61*
X109220000Y-130080000D02*
X111030000Y-128270000D01*
X111030000Y-128270000D02*
X111760000Y-128270000D01*
X115570000Y-130080000D02*
X117380000Y-128270000D01*
X117380000Y-128270000D02*
X118110000Y-128270000D01*
D58*
X60325000Y-108966000D02*
X61214000Y-108966000D01*
X61214000Y-108966000D02*
X69310000Y-100870000D01*
X69310000Y-100870000D02*
X71120000Y-100870000D01*
D60*
X125984000Y-146050000D02*
X123444000Y-146050000D01*
X60325000Y-112935000D02*
X66453000Y-112935000D01*
D56*
X120650000Y-146050000D02*
X123444000Y-146050000D01*
D60*
X118110000Y-143510000D02*
X120650000Y-146050000D01*
X97028000Y-143510000D02*
X118110000Y-143510000D01*
X66453000Y-112935000D02*
X97028000Y-143510000D01*
X130302000Y-164338000D02*
X121920000Y-172720000D01*
X130302000Y-164338000D02*
X130302000Y-164338000D01*
X131318000Y-163322000D02*
X130302000Y-164338000D01*
X131318000Y-149352000D02*
X131318000Y-163322000D01*
X130048000Y-148082000D02*
X131318000Y-149352000D01*
X128016000Y-148082000D02*
X130048000Y-148082000D01*
X125984000Y-146050000D02*
X128016000Y-148082000D01*
D56*
X123444000Y-146050000D02*
X125984000Y-146050000D01*
D58*
X97060000Y-167640000D02*
X97060000Y-170720000D01*
X97060000Y-170720000D02*
X97790000Y-171450000D01*
D56*
X112145000Y-153405000D02*
X113041000Y-153405000D01*
X113041000Y-153405000D02*
X113538000Y-152908000D01*
X113538000Y-152908000D02*
X119888000Y-152908000D01*
X119888000Y-152908000D02*
X121920000Y-154940000D01*
D57*
X119888000Y-152908000D02*
X121920000Y-154940000D01*
X113538000Y-152908000D02*
X119888000Y-152908000D01*
X113041000Y-153405000D02*
X113538000Y-152908000D01*
D58*
X112134000Y-153416000D02*
X112145000Y-153405000D01*
D56*
X118110000Y-133350000D02*
X118872000Y-133350000D01*
X118872000Y-133350000D02*
X121412000Y-130810000D01*
X130048000Y-130810000D02*
X133223000Y-127635000D01*
X121412000Y-130810000D02*
X130048000Y-130810000D01*
X133223000Y-127635000D02*
X135460000Y-127635000D01*
D62*
X121604000Y-95646000D02*
X121046000Y-95646000D01*
X120904000Y-93218000D02*
X119380000Y-91694000D01*
X120904000Y-95504000D02*
X120904000Y-93218000D01*
X121046000Y-95646000D02*
X120904000Y-95504000D01*
D58*
X131923000Y-94572000D02*
X131923000Y-95347000D01*
X135128000Y-115316000D02*
X131064000Y-115316000D01*
X136652000Y-113792000D02*
X135128000Y-115316000D01*
X136652000Y-111760000D02*
X136652000Y-113792000D01*
X137668000Y-110744000D02*
X136652000Y-111760000D01*
X137668000Y-101092000D02*
X137668000Y-110744000D01*
X131923000Y-95347000D02*
X137668000Y-101092000D01*
X121604000Y-95646000D02*
X125618000Y-95646000D01*
X131923000Y-95661000D02*
X131923000Y-94572000D01*
X131064000Y-96520000D02*
X131923000Y-95661000D01*
X126492000Y-96520000D02*
X131064000Y-96520000D01*
X125618000Y-95646000D02*
X126492000Y-96520000D01*
X131064000Y-112841500D02*
X131064000Y-115316000D01*
X131135000Y-125547000D02*
X131135000Y-124460000D01*
X131135000Y-124460000D02*
X131135000Y-121380000D01*
X111760000Y-133350000D02*
X114840000Y-133350000D01*
X114840000Y-133350000D02*
X115570000Y-134080000D01*
X105410000Y-133350000D02*
X106680000Y-132080000D01*
X106680000Y-132080000D02*
X110490000Y-132080000D01*
X110490000Y-132080000D02*
X111760000Y-133350000D01*
D61*
X115570000Y-134080000D02*
X116300000Y-133350000D01*
X116300000Y-133350000D02*
X118110000Y-133350000D01*
D58*
X133604000Y-127635000D02*
X133223000Y-127635000D01*
X133223000Y-127635000D02*
X131135000Y-125547000D01*
X133604000Y-127635000D02*
X135460000Y-127635000D01*
D56*
X112145000Y-152105000D02*
X121625000Y-152105000D01*
X121625000Y-152105000D02*
X121920000Y-152400000D01*
D57*
X121625000Y-152105000D02*
X121920000Y-152400000D01*
D56*
X118110000Y-135890000D02*
X128778000Y-135890000D01*
X131318000Y-131318000D02*
X133731000Y-128905000D01*
X131318000Y-133350000D02*
X131318000Y-131318000D01*
X128778000Y-135890000D02*
X131318000Y-133350000D01*
X133731000Y-128905000D02*
X135460000Y-128905000D01*
D58*
X129966500Y-112744000D02*
X128556000Y-112744000D01*
X126492000Y-99060000D02*
X124460000Y-97028000D01*
X126492000Y-110680000D02*
X126492000Y-99060000D01*
X128556000Y-112744000D02*
X126492000Y-110680000D01*
X121604000Y-94346000D02*
X125618000Y-94346000D01*
X130048000Y-93472000D02*
X130673000Y-94097000D01*
X126492000Y-93472000D02*
X130048000Y-93472000D01*
X125618000Y-94346000D02*
X126492000Y-93472000D01*
X130673000Y-94097000D02*
X130673000Y-94572000D01*
X129966500Y-112744000D02*
X129966500Y-115742500D01*
X134112000Y-117856000D02*
X134112000Y-121920000D01*
X132588000Y-116332000D02*
X134112000Y-117856000D01*
X130556000Y-116332000D02*
X132588000Y-116332000D01*
X129966500Y-115742500D02*
X130556000Y-116332000D01*
X135460000Y-128905000D02*
X136271000Y-128905000D01*
X136271000Y-128905000D02*
X137160000Y-128016000D01*
X133572000Y-121380000D02*
X131785000Y-121380000D01*
X137160000Y-124968000D02*
X134112000Y-121920000D01*
X134112000Y-121920000D02*
X133572000Y-121380000D01*
X137160000Y-128016000D02*
X137160000Y-124968000D01*
X133731000Y-128905000D02*
X135460000Y-128905000D01*
X111760000Y-135890000D02*
X118110000Y-135890000D01*
X105410000Y-135890000D02*
X107410000Y-135890000D01*
X107410000Y-135890000D02*
X109220000Y-134080000D01*
D56*
X121604000Y-92648000D02*
X121604000Y-94346000D01*
X121412000Y-92456000D02*
X121604000Y-92648000D01*
D61*
X109220000Y-134080000D02*
X111030000Y-135890000D01*
X111030000Y-135890000D02*
X111760000Y-135890000D01*
D56*
X110236000Y-150622000D02*
X110236000Y-148844000D01*
X109220000Y-161798000D02*
X109220000Y-163322000D01*
X109220000Y-163322000D02*
X109728000Y-163830000D01*
X109728000Y-163830000D02*
X111252000Y-163830000D01*
X111252000Y-163830000D02*
X112268000Y-162814000D01*
X112268000Y-162814000D02*
X112268000Y-156464000D01*
X112268000Y-156464000D02*
X110236000Y-154432000D01*
X110236000Y-154432000D02*
X110236000Y-150622000D01*
X107950000Y-160528000D02*
X109220000Y-161798000D01*
X110975000Y-148105000D02*
X112145000Y-148105000D01*
X110236000Y-148844000D02*
X110975000Y-148105000D01*
X107950000Y-160020000D02*
X107950000Y-160528000D01*
D58*
X112145000Y-148105000D02*
X112245000Y-148105000D01*
D56*
X107950000Y-160020000D02*
X107950000Y-160274000D01*
X106295000Y-148105000D02*
X107719000Y-148105000D01*
X109220000Y-160782000D02*
X110490000Y-162052000D01*
X109220000Y-149606000D02*
X109220000Y-160782000D01*
X107719000Y-148105000D02*
X109220000Y-149606000D01*
X110490000Y-162052000D02*
X110490000Y-162560000D01*
X107950000Y-162560000D02*
X107696000Y-162560000D01*
X107696000Y-162560000D02*
X106680000Y-161544000D01*
X106680000Y-161544000D02*
X106680000Y-156718000D01*
X106680000Y-156718000D02*
X107950000Y-155448000D01*
X107950000Y-155448000D02*
X107950000Y-149352000D01*
X107950000Y-149352000D02*
X107453000Y-148855000D01*
X107453000Y-148855000D02*
X106295000Y-148855000D01*
X110490000Y-170180000D02*
X112014000Y-171704000D01*
X105339000Y-151455000D02*
X106295000Y-151455000D01*
X104394000Y-152400000D02*
X105339000Y-151455000D01*
X104394000Y-172466000D02*
X104394000Y-152400000D01*
X106426000Y-174498000D02*
X104394000Y-172466000D01*
X111252000Y-174498000D02*
X106426000Y-174498000D01*
X112014000Y-173736000D02*
X111252000Y-174498000D01*
X112014000Y-171704000D02*
X112014000Y-173736000D01*
X110490000Y-170180000D02*
X110744000Y-170180000D01*
X107950000Y-170180000D02*
X107696000Y-170180000D01*
X107696000Y-170180000D02*
X106114002Y-168598002D01*
X106114002Y-168598002D02*
X106114002Y-156521998D01*
X106114002Y-156521998D02*
X107442000Y-155194000D01*
X107442000Y-155194000D02*
X107442000Y-152400000D01*
X107442000Y-152400000D02*
X107147000Y-152105000D01*
X107147000Y-152105000D02*
X106295000Y-152105000D01*
X110490000Y-172720000D02*
X109982000Y-172720000D01*
X109982000Y-172720000D02*
X108712000Y-173990000D01*
X108712000Y-173990000D02*
X106934000Y-173990000D01*
X106934000Y-173990000D02*
X105156000Y-172212000D01*
X105156000Y-172212000D02*
X105156000Y-153670000D01*
X105156000Y-153670000D02*
X105421000Y-153405000D01*
X105421000Y-153405000D02*
X106295000Y-153405000D01*
X106295000Y-154155000D02*
X106195000Y-154155000D01*
X106195000Y-154155000D02*
X105664000Y-154686000D01*
X105664000Y-154686000D02*
X105664000Y-170434000D01*
X105664000Y-170434000D02*
X107950000Y-172720000D01*
D60*
X57690000Y-160020000D02*
X57690000Y-158718000D01*
X57690000Y-158718000D02*
X59690000Y-156718000D01*
X49435000Y-120015000D02*
X49435000Y-117369840D01*
X49435000Y-117369840D02*
X49022000Y-116956840D01*
X49435000Y-120015000D02*
X49435000Y-121825000D01*
X50485000Y-122875000D02*
X54145000Y-122875000D01*
X49435000Y-121825000D02*
X50485000Y-122875000D01*
D57*
X113950000Y-108150000D02*
X112576000Y-108150000D01*
X119634000Y-141986000D02*
X121920000Y-139700000D01*
X97282000Y-141986000D02*
X119634000Y-141986000D01*
X94488000Y-139192000D02*
X97282000Y-141986000D01*
X94488000Y-117348000D02*
X94488000Y-139192000D01*
X99314000Y-112522000D02*
X94488000Y-117348000D01*
X102870000Y-112522000D02*
X99314000Y-112522000D01*
X106934000Y-108458000D02*
X102870000Y-112522000D01*
X112268000Y-108458000D02*
X106934000Y-108458000D01*
X112576000Y-108150000D02*
X112268000Y-108458000D01*
D60*
X56345000Y-124775000D02*
X56345000Y-128195000D01*
X56345000Y-128195000D02*
X56420000Y-128270000D01*
X54145000Y-124775000D02*
X49305000Y-124775000D01*
X49305000Y-124775000D02*
X45720000Y-121190000D01*
D61*
X45085000Y-116935000D02*
X45085000Y-120555000D01*
X45085000Y-120555000D02*
X45720000Y-121190000D01*
D58*
X73660000Y-107800140D02*
X73660000Y-104870000D01*
D57*
X131135000Y-117380000D02*
X131135000Y-117165000D01*
X131135000Y-117165000D02*
X130810000Y-116840000D01*
X130485000Y-117380000D02*
X130485000Y-117165000D01*
X130485000Y-117165000D02*
X130810000Y-116840000D01*
D60*
X59690000Y-148580000D02*
X59690000Y-151638000D01*
X59690000Y-151638000D02*
X57150000Y-154178000D01*
D56*
X87535000Y-157480000D02*
X87884000Y-157480000D01*
X87884000Y-157480000D02*
X89154000Y-158750000D01*
X89154000Y-158750000D02*
X89154000Y-163481000D01*
X89154000Y-163481000D02*
X87535000Y-165100000D01*
X83185000Y-167640000D02*
X84995000Y-167640000D01*
X84995000Y-167640000D02*
X87535000Y-165100000D01*
X83185000Y-165100000D02*
X84995000Y-165100000D01*
X84995000Y-165100000D02*
X87535000Y-162560000D01*
X87535000Y-160020000D02*
X87535000Y-162560000D01*
X87535000Y-170180000D02*
X87535000Y-167640000D01*
X83185000Y-172720000D02*
X84995000Y-172720000D01*
X84995000Y-172720000D02*
X87535000Y-170180000D01*
D57*
X113950000Y-108950000D02*
X113046000Y-108950000D01*
X127000000Y-142240000D02*
X137160000Y-142240000D01*
X122682000Y-137922000D02*
X127000000Y-142240000D01*
X120396000Y-137922000D02*
X122682000Y-137922000D01*
X117348000Y-140970000D02*
X120396000Y-137922000D01*
X97378002Y-140970000D02*
X117348000Y-140970000D01*
X95188004Y-138780002D02*
X97378002Y-140970000D01*
X95188004Y-117663996D02*
X95188004Y-138780002D01*
X99314000Y-113538000D02*
X95188004Y-117663996D01*
X102870000Y-113538000D02*
X99314000Y-113538000D01*
X106934000Y-109474000D02*
X102870000Y-113538000D01*
X112522000Y-109474000D02*
X106934000Y-109474000D01*
X113046000Y-108950000D02*
X112522000Y-109474000D01*
X121666000Y-137571998D02*
X122839998Y-137571998D01*
X113154000Y-109350000D02*
X112522000Y-109982000D01*
X112522000Y-109982000D02*
X106934000Y-109982000D01*
X106934000Y-109982000D02*
X102870000Y-114046000D01*
X102870000Y-114046000D02*
X99300978Y-114046000D01*
X99300978Y-114046000D02*
X95538006Y-117808972D01*
X95538006Y-117808972D02*
X95538006Y-138464006D01*
X95538006Y-138464006D02*
X97536000Y-140462000D01*
X97536000Y-140462000D02*
X117348000Y-140462000D01*
X117348000Y-140462000D02*
X120238002Y-137571998D01*
X120238002Y-137571998D02*
X121666000Y-137571998D01*
X113950000Y-109350000D02*
X113154000Y-109350000D01*
X124968000Y-139700000D02*
X137160000Y-139700000D01*
X122839998Y-137571998D02*
X124968000Y-139700000D01*
X101950000Y-109750000D02*
X101928000Y-109728000D01*
X101928000Y-109728000D02*
X100330000Y-109728000D01*
X100330000Y-109728000D02*
X99568000Y-110490000D01*
D56*
X93250000Y-111760000D02*
X94520000Y-110490000D01*
D57*
X99060000Y-110490000D02*
X99568000Y-110490000D01*
D56*
X94520000Y-110490000D02*
X99060000Y-110490000D01*
D59*
X85090000Y-111760000D02*
X93250000Y-111760000D01*
X85090000Y-111760000D02*
X81820000Y-108490000D01*
X81820000Y-108490000D02*
X81280000Y-108490000D01*
X85090000Y-116840000D02*
X87630000Y-114300000D01*
X94710000Y-114300000D02*
X97250000Y-111760000D01*
X87630000Y-114300000D02*
X94710000Y-114300000D01*
X81280000Y-118840000D02*
X83280000Y-116840000D01*
X83280000Y-116840000D02*
X85090000Y-116840000D01*
D57*
X101950000Y-110150000D02*
X100670000Y-110150000D01*
X100670000Y-110150000D02*
X99060000Y-111760000D01*
X99060000Y-111760000D02*
X97250000Y-111760000D01*
X108150000Y-113950000D02*
X108150000Y-112830000D01*
X120396000Y-109696000D02*
X118650000Y-107950000D01*
X120396000Y-111506000D02*
X120396000Y-109696000D01*
X119380000Y-112522000D02*
X120396000Y-111506000D01*
X113030000Y-112522000D02*
X119380000Y-112522000D01*
X111760000Y-111252000D02*
X113030000Y-112522000D01*
X109728000Y-111252000D02*
X111760000Y-111252000D01*
X108150000Y-112830000D02*
X109728000Y-111252000D01*
X118650000Y-107950000D02*
X119380000Y-107950000D01*
D56*
X106680000Y-117380000D02*
X106680000Y-119380000D01*
X95250000Y-109220000D02*
X97250000Y-109220000D01*
D58*
X97250000Y-106680000D02*
X97250000Y-109220000D01*
D60*
X109220000Y-117380000D02*
X106680000Y-117380000D01*
X111760000Y-117380000D02*
X109220000Y-117380000D01*
X114300000Y-117380000D02*
X111760000Y-117380000D01*
D57*
X97250000Y-106680000D02*
X97920000Y-107350000D01*
X97920000Y-107350000D02*
X101950000Y-107350000D01*
X97250000Y-109220000D02*
X97380000Y-109350000D01*
X97380000Y-109350000D02*
X101950000Y-109350000D01*
X118650000Y-107950000D02*
X117650000Y-106950000D01*
X117650000Y-106950000D02*
X113950000Y-106950000D01*
X114300000Y-117380000D02*
X112490000Y-115570000D01*
X112490000Y-115570000D02*
X110490000Y-115570000D01*
X110490000Y-115570000D02*
X110150000Y-115230000D01*
X110150000Y-115230000D02*
X110150000Y-113950000D01*
X111760000Y-117380000D02*
X109750000Y-115370000D01*
X109750000Y-115370000D02*
X109750000Y-113950000D01*
X109220000Y-117380000D02*
X108150000Y-116310000D01*
X108150000Y-116310000D02*
X108150000Y-113950000D01*
X106680000Y-117380000D02*
X106550000Y-117250000D01*
X106550000Y-117250000D02*
X106550000Y-113950000D01*
D61*
X104289860Y-96012000D02*
X107220000Y-96012000D01*
D57*
X101450140Y-96012000D02*
X101450140Y-100434140D01*
X103394000Y-108950000D02*
X101950000Y-108950000D01*
X105156000Y-107188000D02*
X103394000Y-108950000D01*
X105156000Y-104140000D02*
X105156000Y-107188000D01*
X101450140Y-100434140D02*
X105156000Y-104140000D01*
D58*
X104289860Y-93472000D02*
X107220000Y-93472000D01*
D57*
X101450140Y-93472000D02*
X101092000Y-93472000D01*
X101092000Y-93472000D02*
X100076000Y-94488000D01*
X100076000Y-94488000D02*
X100076000Y-99568000D01*
X100076000Y-99568000D02*
X104648000Y-104140000D01*
X104648000Y-104140000D02*
X104648000Y-107188000D01*
X104648000Y-107188000D02*
X103286000Y-108550000D01*
X103286000Y-108550000D02*
X101950000Y-108550000D01*
D61*
X104289860Y-90932000D02*
X107220000Y-90932000D01*
D57*
X101450140Y-90932000D02*
X101092000Y-90932000D01*
X101092000Y-90932000D02*
X99568000Y-92456000D01*
X99568000Y-92456000D02*
X99568000Y-99568000D01*
X99568000Y-99568000D02*
X104140000Y-104140000D01*
X104140000Y-104140000D02*
X104140000Y-107188000D01*
X104140000Y-107188000D02*
X103178000Y-108150000D01*
X103178000Y-108150000D02*
X101950000Y-108150000D01*
D61*
X104289860Y-83312000D02*
X107220000Y-83312000D01*
D57*
X101950000Y-107750000D02*
X99514000Y-107750000D01*
X99514000Y-107750000D02*
X99060000Y-108204000D01*
D58*
X101450140Y-83312000D02*
X86773000Y-83312000D01*
X86773000Y-83312000D02*
X82275000Y-87810000D01*
D61*
X104289860Y-88392000D02*
X107220000Y-88392000D01*
D57*
X101450140Y-88392000D02*
X100584000Y-88392000D01*
X103254000Y-106550000D02*
X101950000Y-106550000D01*
X103632000Y-106172000D02*
X103254000Y-106550000D01*
X103632000Y-104140000D02*
X103632000Y-106172000D01*
X99060000Y-99568000D02*
X103632000Y-104140000D01*
X99060000Y-89916000D02*
X99060000Y-99568000D01*
X100584000Y-88392000D02*
X99060000Y-89916000D01*
X101450140Y-88392000D02*
X101092000Y-88392000D01*
D61*
X104289860Y-85852000D02*
X107220000Y-85852000D01*
D57*
X101450140Y-85852000D02*
X100584000Y-85852000D01*
X101070000Y-106150000D02*
X101950000Y-106150000D01*
X98552000Y-103632000D02*
X101070000Y-106150000D01*
X98552000Y-87884000D02*
X98552000Y-103632000D01*
X100584000Y-85852000D02*
X98552000Y-87884000D01*
D58*
X90445000Y-87810000D02*
X90498000Y-87810000D01*
X90498000Y-87810000D02*
X92456000Y-85852000D01*
X92456000Y-85852000D02*
X101450140Y-85852000D01*
D57*
X106150000Y-113950000D02*
X106150000Y-112290000D01*
X106150000Y-112290000D02*
X106680000Y-111760000D01*
X107350000Y-113950000D02*
X107350000Y-112868000D01*
X108204000Y-112014000D02*
X108204000Y-110744000D01*
X107350000Y-112868000D02*
X108204000Y-112014000D01*
X106950000Y-113950000D02*
X106950000Y-112506000D01*
X107442000Y-112014000D02*
X107442000Y-111252000D01*
X106950000Y-112506000D02*
X107442000Y-112014000D01*
D58*
X88265000Y-99060000D02*
X89154000Y-99060000D01*
X95250000Y-105156000D02*
X95250000Y-106680000D01*
X89154000Y-99060000D02*
X95250000Y-105156000D01*
D57*
X105750000Y-113950000D02*
X105750000Y-112862000D01*
X105750000Y-112862000D02*
X105410000Y-112522000D01*
D59*
X74644000Y-89916000D02*
X77629000Y-89916000D01*
X77629000Y-89916000D02*
X79735000Y-87810000D01*
X74644000Y-92456000D02*
X77216000Y-92456000D01*
X91387000Y-89408000D02*
X92985000Y-87810000D01*
X80264000Y-89408000D02*
X91387000Y-89408000D01*
X77216000Y-92456000D02*
X80264000Y-89408000D01*
D61*
X99060000Y-121380000D02*
X101600000Y-121380000D01*
D57*
X101600000Y-117380000D02*
X101600000Y-117348000D01*
X101600000Y-117348000D02*
X104150000Y-114798000D01*
X104150000Y-114798000D02*
X104150000Y-113950000D01*
X118650000Y-110490000D02*
X118618000Y-110490000D01*
X118618000Y-110490000D02*
X115878000Y-107750000D01*
X115878000Y-107750000D02*
X113950000Y-107750000D01*
D56*
X121920000Y-149860000D02*
X117602000Y-145542000D01*
X91535000Y-151797000D02*
X91535000Y-154940000D01*
X97790000Y-145542000D02*
X91535000Y-151797000D01*
X117602000Y-145542000D02*
X97790000Y-145542000D01*
D58*
X91535000Y-157480000D02*
X91535000Y-154940000D01*
D56*
X121920000Y-157480000D02*
X122174000Y-157480000D01*
X122174000Y-157480000D02*
X123444000Y-156210000D01*
X123444000Y-156210000D02*
X123444000Y-151892000D01*
X123444000Y-151892000D02*
X122682000Y-151130000D01*
X122682000Y-151130000D02*
X120904000Y-151130000D01*
X120904000Y-151130000D02*
X120396000Y-150622000D01*
X120396000Y-150622000D02*
X120396000Y-149352000D01*
X120396000Y-149352000D02*
X117094000Y-146050000D01*
X117094000Y-146050000D02*
X115824000Y-146050000D01*
X122174000Y-157480000D02*
X123444000Y-156210000D01*
X123444000Y-156210000D02*
X123444000Y-151892000D01*
X123444000Y-151892000D02*
X122682000Y-151130000D01*
X122682000Y-151130000D02*
X120904000Y-151130000D01*
X115824000Y-146050000D02*
X98044000Y-146050000D01*
X98044000Y-146050000D02*
X95155000Y-148939000D01*
X95155000Y-148939000D02*
X95155000Y-160020000D01*
X91535000Y-160020000D02*
X95155000Y-160020000D01*
X121920000Y-147320000D02*
X120904000Y-147320000D01*
X97536000Y-145034000D02*
X96774000Y-145796000D01*
X118618000Y-145034000D02*
X97536000Y-145034000D01*
X120904000Y-147320000D02*
X118618000Y-145034000D01*
X90170000Y-170180000D02*
X91535000Y-170180000D01*
X89916000Y-169926000D02*
X90170000Y-170180000D01*
X89916000Y-152654000D02*
X89916000Y-169926000D01*
X96774000Y-145796000D02*
X89916000Y-152654000D01*
X91535000Y-172720000D02*
X91535000Y-170180000D01*
D57*
X104267000Y-110617000D02*
X104267000Y-110630022D01*
X104550000Y-102772000D02*
X105664000Y-103886000D01*
X105664000Y-103886000D02*
X105664000Y-109220000D01*
X105664000Y-109220000D02*
X104267000Y-110617000D01*
X104550000Y-101950000D02*
X104550000Y-102772000D01*
X128524000Y-147320000D02*
X137160000Y-147320000D01*
X124714000Y-143510000D02*
X128524000Y-147320000D01*
X120142000Y-143510000D02*
X124714000Y-143510000D01*
X119126000Y-142494000D02*
X120142000Y-143510000D01*
X97282000Y-142494000D02*
X119126000Y-142494000D01*
X93980000Y-139192000D02*
X97282000Y-142494000D01*
X93980000Y-117348000D02*
X93980000Y-139192000D01*
X99156002Y-112171998D02*
X93980000Y-117348000D01*
X102725024Y-112171998D02*
X99156002Y-112171998D01*
X104267000Y-110630022D02*
X102725024Y-112171998D01*
X104550000Y-101950000D02*
X104550000Y-100428000D01*
X104550000Y-100428000D02*
X106426000Y-98552000D01*
X106426000Y-98552000D02*
X107220000Y-98552000D01*
D56*
X118364000Y-154654000D02*
X118364000Y-156464000D01*
X118364000Y-156464000D02*
X121920000Y-160020000D01*
X121920000Y-160020000D02*
X123444000Y-160020000D01*
X128905000Y-130175000D02*
X126160000Y-130175000D01*
X130048000Y-129032000D02*
X128905000Y-130175000D01*
X130048000Y-153416000D02*
X130048000Y-149352000D01*
X123444000Y-160020000D02*
X130048000Y-153416000D01*
D58*
X126873000Y-130175000D02*
X126160000Y-130175000D01*
D56*
X101060000Y-167640000D02*
X101060000Y-168370000D01*
X101060000Y-168370000D02*
X103632000Y-170942000D01*
X103632000Y-170942000D02*
X103632000Y-172974000D01*
X103632000Y-172974000D02*
X105664000Y-175006000D01*
X105664000Y-175006000D02*
X123190000Y-175006000D01*
X123190000Y-175006000D02*
X132842000Y-165354000D01*
X132842000Y-165354000D02*
X132842000Y-161798000D01*
X132842000Y-161798000D02*
X137160000Y-157480000D01*
D58*
X78740000Y-160020000D02*
X61690000Y-160020000D01*
X87376000Y-151384000D02*
X78740000Y-160020000D01*
D56*
X129966500Y-109544000D02*
X127692000Y-109544000D01*
X127692000Y-109544000D02*
X127254000Y-109982000D01*
X129966500Y-108744000D02*
X127286000Y-108744000D01*
X127286000Y-108744000D02*
X127254000Y-108712000D01*
X129966500Y-108630500D02*
X129966500Y-108744000D01*
D57*
X113950000Y-108550000D02*
X112684000Y-108550000D01*
X129032000Y-144780000D02*
X137160000Y-144780000D01*
X122682000Y-138430000D02*
X129032000Y-144780000D01*
X120396000Y-138430000D02*
X122682000Y-138430000D01*
X117348000Y-141478000D02*
X120396000Y-138430000D01*
X97282000Y-141478000D02*
X117348000Y-141478000D01*
X94838002Y-139034002D02*
X97282000Y-141478000D01*
X94838002Y-117505998D02*
X94838002Y-139034002D01*
X99314000Y-113030000D02*
X94838002Y-117505998D01*
X102870000Y-113030000D02*
X99314000Y-113030000D01*
X106934000Y-108966000D02*
X102870000Y-113030000D01*
X112268000Y-108966000D02*
X106934000Y-108966000D01*
X112684000Y-108550000D02*
X112268000Y-108966000D01*
D56*
X121604000Y-94996000D02*
X126492000Y-94996000D01*
X138938000Y-163322000D02*
X137160000Y-165100000D01*
X138938000Y-133858000D02*
X138938000Y-163322000D01*
X138176000Y-133096000D02*
X138938000Y-133858000D01*
X138176000Y-117094000D02*
X138176000Y-133096000D01*
X137414000Y-116332000D02*
X138176000Y-117094000D01*
D58*
X71120000Y-104870000D02*
X71120000Y-107800140D01*
D63*
G36*
X62103000Y-114173000D02*
X43942000Y-114173000D01*
X43942000Y-111252000D01*
X56515000Y-111252000D01*
X56564410Y-111241994D01*
X56606035Y-111213553D01*
X56633315Y-111171159D01*
X56642000Y-111125000D01*
X56642000Y-107442000D01*
X62103000Y-107442000D01*
X62103000Y-114173000D01*
X62103000Y-114173000D01*
G37*
X62103000Y-114173000D02*
X43942000Y-114173000D01*
X43942000Y-111252000D01*
X56515000Y-111252000D01*
X56564410Y-111241994D01*
X56606035Y-111213553D01*
X56633315Y-111171159D01*
X56642000Y-111125000D01*
X56642000Y-107442000D01*
X62103000Y-107442000D01*
X62103000Y-114173000D01*
G36*
X58547000Y-119126000D02*
X58557006Y-119175410D01*
X58585447Y-119217035D01*
X58627841Y-119244315D01*
X58674000Y-119253000D01*
X62865000Y-119253000D01*
X62865000Y-123063000D01*
X55753000Y-123063000D01*
X55753000Y-121412000D01*
X55742994Y-121362590D01*
X55714553Y-121320965D01*
X55672159Y-121293685D01*
X55626000Y-121285000D01*
X51943000Y-121285000D01*
X51943000Y-115697000D01*
X58547000Y-115697000D01*
X58547000Y-119126000D01*
X58547000Y-119126000D01*
G37*
X58547000Y-119126000D02*
X58557006Y-119175410D01*
X58585447Y-119217035D01*
X58627841Y-119244315D01*
X58674000Y-119253000D01*
X62865000Y-119253000D01*
X62865000Y-123063000D01*
X55753000Y-123063000D01*
X55753000Y-121412000D01*
X55742994Y-121362590D01*
X55714553Y-121320965D01*
X55672159Y-121293685D01*
X55626000Y-121285000D01*
X51943000Y-121285000D01*
X51943000Y-115697000D01*
X58547000Y-115697000D01*
X58547000Y-119126000D01*
M02*
