%TF.GenerationSoftware,KiCad,Pcbnew,4.0.2-stable*%
%TF.CreationDate,2016-05-01T09:37:51-04:00*%
%TF.ProjectId,RGB-Controller,5247422D436F6E74726F6C6C65722E6B,rev?*%
%TF.FileFunction,Legend,Top*%
%FSLAX46Y46*%
G04 Gerber Fmt 4.6, Leading zero omitted, Abs format (unit mm)*
G04 Created by KiCad (PCBNEW 4.0.2-stable) date 5/1/2016 9:37:51 AM*
%MOMM*%
G01*
G04 APERTURE LIST*
%ADD10C,0.127000*%
%ADD11C,0.150000*%
%ADD12C,0.010000*%
G04 APERTURE END LIST*
D10*
X134320000Y-105613142D02*
X134291429Y-105670285D01*
X134291429Y-105755999D01*
X134320000Y-105841714D01*
X134377143Y-105898856D01*
X134434286Y-105927428D01*
X134548571Y-105955999D01*
X134634286Y-105955999D01*
X134748571Y-105927428D01*
X134805714Y-105898856D01*
X134862857Y-105841714D01*
X134891429Y-105755999D01*
X134891429Y-105698856D01*
X134862857Y-105613142D01*
X134834286Y-105584571D01*
X134634286Y-105584571D01*
X134634286Y-105698856D01*
X134891429Y-104984571D02*
X134605714Y-105184571D01*
X134891429Y-105327428D02*
X134291429Y-105327428D01*
X134291429Y-105098856D01*
X134320000Y-105041714D01*
X134348571Y-105013142D01*
X134405714Y-104984571D01*
X134491429Y-104984571D01*
X134548571Y-105013142D01*
X134577143Y-105041714D01*
X134605714Y-105098856D01*
X134605714Y-105327428D01*
X134891429Y-104727428D02*
X134291429Y-104727428D01*
X134891429Y-104384571D01*
X134291429Y-104384571D01*
X137117143Y-105670285D02*
X137145714Y-105584571D01*
X137174286Y-105555999D01*
X137231429Y-105527428D01*
X137317143Y-105527428D01*
X137374286Y-105555999D01*
X137402857Y-105584571D01*
X137431429Y-105641713D01*
X137431429Y-105870285D01*
X136831429Y-105870285D01*
X136831429Y-105670285D01*
X136860000Y-105613142D01*
X136888571Y-105584571D01*
X136945714Y-105555999D01*
X137002857Y-105555999D01*
X137060000Y-105584571D01*
X137088571Y-105613142D01*
X137117143Y-105670285D01*
X137117143Y-105870285D01*
X137431429Y-104984571D02*
X137431429Y-105270285D01*
X136831429Y-105270285D01*
X136831429Y-104784571D02*
X137317143Y-104784571D01*
X137374286Y-104755999D01*
X137402857Y-104727428D01*
X137431429Y-104670285D01*
X137431429Y-104555999D01*
X137402857Y-104498857D01*
X137374286Y-104470285D01*
X137317143Y-104441714D01*
X136831429Y-104441714D01*
X139971429Y-105541714D02*
X139685714Y-105741714D01*
X139971429Y-105884571D02*
X139371429Y-105884571D01*
X139371429Y-105655999D01*
X139400000Y-105598857D01*
X139428571Y-105570285D01*
X139485714Y-105541714D01*
X139571429Y-105541714D01*
X139628571Y-105570285D01*
X139657143Y-105598857D01*
X139685714Y-105655999D01*
X139685714Y-105884571D01*
X139657143Y-105284571D02*
X139657143Y-105084571D01*
X139971429Y-104998857D02*
X139971429Y-105284571D01*
X139371429Y-105284571D01*
X139371429Y-104998857D01*
X139971429Y-104741714D02*
X139371429Y-104741714D01*
X139371429Y-104598857D01*
X139400000Y-104513142D01*
X139457143Y-104456000D01*
X139514286Y-104427428D01*
X139628571Y-104398857D01*
X139714286Y-104398857D01*
X139828571Y-104427428D01*
X139885714Y-104456000D01*
X139942857Y-104513142D01*
X139971429Y-104598857D01*
X139971429Y-104741714D01*
X131780000Y-78181142D02*
X131751429Y-78238285D01*
X131751429Y-78323999D01*
X131780000Y-78409714D01*
X131837143Y-78466856D01*
X131894286Y-78495428D01*
X132008571Y-78523999D01*
X132094286Y-78523999D01*
X132208571Y-78495428D01*
X132265714Y-78466856D01*
X132322857Y-78409714D01*
X132351429Y-78323999D01*
X132351429Y-78266856D01*
X132322857Y-78181142D01*
X132294286Y-78152571D01*
X132094286Y-78152571D01*
X132094286Y-78266856D01*
X132351429Y-77895428D02*
X131751429Y-77895428D01*
X132351429Y-77552571D01*
X131751429Y-77552571D01*
X132351429Y-77266857D02*
X131751429Y-77266857D01*
X131751429Y-77124000D01*
X131780000Y-77038285D01*
X131837143Y-76981143D01*
X131894286Y-76952571D01*
X132008571Y-76924000D01*
X132094286Y-76924000D01*
X132208571Y-76952571D01*
X132265714Y-76981143D01*
X132322857Y-77038285D01*
X132351429Y-77124000D01*
X132351429Y-77266857D01*
X129211429Y-77838286D02*
X129211429Y-78124000D01*
X129497143Y-78152571D01*
X129468571Y-78124000D01*
X129440000Y-78066857D01*
X129440000Y-77924000D01*
X129468571Y-77866857D01*
X129497143Y-77838286D01*
X129554286Y-77809714D01*
X129697143Y-77809714D01*
X129754286Y-77838286D01*
X129782857Y-77866857D01*
X129811429Y-77924000D01*
X129811429Y-78066857D01*
X129782857Y-78124000D01*
X129754286Y-78152571D01*
X129211429Y-77638285D02*
X129811429Y-77438285D01*
X129211429Y-77238285D01*
D11*
X140725000Y-90535000D02*
X140725000Y-88535000D01*
X138675000Y-88535000D02*
X138675000Y-90535000D01*
X137900000Y-94213680D02*
X138099800Y-94213680D01*
X137950000Y-94670720D02*
X138099000Y-94670720D01*
X137900000Y-98816160D02*
X138049000Y-98816160D01*
X141500000Y-94218760D02*
X141351000Y-94218760D01*
X141500000Y-94670720D02*
X141351000Y-94670720D01*
X141500000Y-98821240D02*
X141351000Y-98821240D01*
X137751020Y-94670720D02*
X137949140Y-94670720D01*
X141698980Y-94670720D02*
X141500860Y-94670720D01*
X137703560Y-98816160D02*
X137901680Y-98816160D01*
X137703560Y-94213680D02*
X137703560Y-98816160D01*
X137703560Y-94213680D02*
X137901680Y-94213680D01*
X141698980Y-94218760D02*
X141500860Y-94218760D01*
X141698980Y-94218760D02*
X141698980Y-98821240D01*
X141698980Y-98821240D02*
X141500860Y-98821240D01*
X148582000Y-78494000D02*
X128278000Y-78494000D01*
X128278000Y-78494000D02*
X128278000Y-104386000D01*
X128278000Y-104386000D02*
X148582000Y-104386000D01*
X148582000Y-104386000D02*
X148582000Y-95755333D01*
X148582000Y-95755333D02*
X148132000Y-95755333D01*
X148132000Y-95755333D02*
X148132000Y-87124667D01*
X148132000Y-87124667D02*
X148582000Y-87124667D01*
X148582000Y-87124667D02*
X148582000Y-78494000D01*
X141970000Y-81525000D02*
X139970000Y-81525000D01*
X139970000Y-83575000D02*
X141970000Y-83575000D01*
X153416000Y-91440000D02*
G75*
G03X153416000Y-91440000I-2286000J0D01*
G01*
X136915000Y-94980000D02*
X136915000Y-92980000D01*
X134865000Y-92980000D02*
X134865000Y-94980000D01*
D12*
X146980000Y-93345000D02*
G75*
G03X146980000Y-93345000I-2200000J0D01*
G01*
D11*
X142130000Y-89695000D02*
X141130000Y-90695000D01*
X141130000Y-90695000D02*
X141130000Y-96995000D01*
X141130000Y-96995000D02*
X148430000Y-96995000D01*
X148430000Y-96995000D02*
X148430000Y-89695000D01*
X148430000Y-89695000D02*
X142130000Y-89695000D01*
X111760000Y-77470000D02*
X104140000Y-77470000D01*
X111760000Y-80010000D02*
X104140000Y-80010000D01*
X114580000Y-80290000D02*
X113030000Y-80290000D01*
X104140000Y-77470000D02*
X104140000Y-80010000D01*
X111760000Y-80010000D02*
X111760000Y-77470000D01*
X113030000Y-77190000D02*
X114580000Y-77190000D01*
X114580000Y-77190000D02*
X114580000Y-80290000D01*
X111760000Y-82550000D02*
X104140000Y-82550000D01*
X111760000Y-85090000D02*
X104140000Y-85090000D01*
X114580000Y-85370000D02*
X113030000Y-85370000D01*
X104140000Y-82550000D02*
X104140000Y-85090000D01*
X111760000Y-85090000D02*
X111760000Y-82550000D01*
X113030000Y-82270000D02*
X114580000Y-82270000D01*
X114580000Y-82270000D02*
X114580000Y-85370000D01*
X111760000Y-87630000D02*
X104140000Y-87630000D01*
X111760000Y-90170000D02*
X104140000Y-90170000D01*
X114580000Y-90450000D02*
X113030000Y-90450000D01*
X104140000Y-87630000D02*
X104140000Y-90170000D01*
X111760000Y-90170000D02*
X111760000Y-87630000D01*
X113030000Y-87350000D02*
X114580000Y-87350000D01*
X114580000Y-87350000D02*
X114580000Y-90450000D01*
X136160000Y-83380000D02*
X138160000Y-83380000D01*
X138160000Y-85530000D02*
X136160000Y-85530000D01*
X133790000Y-85360000D02*
X133790000Y-87360000D01*
X131640000Y-87360000D02*
X131640000Y-85360000D01*
X133790000Y-91710000D02*
X133790000Y-93710000D01*
X131640000Y-93710000D02*
X131640000Y-91710000D01*
X137690000Y-88500000D02*
G75*
G03X137690000Y-88500000I-100000J0D01*
G01*
X137340000Y-89150000D02*
X137340000Y-88650000D01*
X134440000Y-89150000D02*
X137340000Y-89150000D01*
X134440000Y-88650000D02*
X134440000Y-89150000D01*
X137340000Y-88650000D02*
X134440000Y-88650000D01*
X119015000Y-100790000D02*
X120015000Y-101790000D01*
X120015000Y-101790000D02*
X127365000Y-101790000D01*
X127365000Y-101790000D02*
X127365000Y-96330000D01*
X127365000Y-96330000D02*
X119015000Y-96330000D01*
X119015000Y-96330000D02*
X119015000Y-100790000D01*
X119015000Y-81740000D02*
X120015000Y-82740000D01*
X120015000Y-82740000D02*
X127365000Y-82740000D01*
X127365000Y-82740000D02*
X127365000Y-77280000D01*
X127365000Y-77280000D02*
X119015000Y-77280000D01*
X119015000Y-77280000D02*
X119015000Y-81740000D01*
X121539000Y-94107000D02*
G75*
G03X121539000Y-94107000I-127000J0D01*
G01*
X122047000Y-94742000D02*
X122047000Y-89662000D01*
X118745000Y-94742000D02*
X118745000Y-89662000D01*
X122555000Y-94742000D02*
X122555000Y-89662000D01*
X122555000Y-94742000D02*
X118745000Y-94742000D01*
X122555000Y-89662000D02*
X118745000Y-89662000D01*
X121539000Y-88519000D02*
G75*
G03X121539000Y-88519000I-127000J0D01*
G01*
X122047000Y-89154000D02*
X122047000Y-84074000D01*
X118745000Y-89154000D02*
X118745000Y-84074000D01*
X122555000Y-89154000D02*
X122555000Y-84074000D01*
X122555000Y-89154000D02*
X118745000Y-89154000D01*
X122555000Y-84074000D02*
X118745000Y-84074000D01*
X102616000Y-91440000D02*
G75*
G03X102616000Y-91440000I-2286000J0D01*
G01*
X142473680Y-89430000D02*
X142473680Y-89230200D01*
X142930720Y-89380000D02*
X142930720Y-89231000D01*
X147076160Y-89430000D02*
X147076160Y-89281000D01*
X142478760Y-85830000D02*
X142478760Y-85979000D01*
X142930720Y-85830000D02*
X142930720Y-85979000D01*
X147081240Y-85830000D02*
X147081240Y-85979000D01*
X142930720Y-89578980D02*
X142930720Y-89380860D01*
X142930720Y-85631020D02*
X142930720Y-85829140D01*
X147076160Y-89626440D02*
X147076160Y-89428320D01*
X142473680Y-89626440D02*
X147076160Y-89626440D01*
X142473680Y-89626440D02*
X142473680Y-89428320D01*
X142478760Y-85631020D02*
X142478760Y-85829140D01*
X142478760Y-85631020D02*
X147081240Y-85631020D01*
X147081240Y-85631020D02*
X147081240Y-85829140D01*
X117230000Y-100695000D02*
X117230000Y-98695000D01*
X115180000Y-98695000D02*
X115180000Y-100695000D01*
X119135000Y-81010000D02*
X119135000Y-79010000D01*
X117085000Y-79010000D02*
X117085000Y-81010000D01*
X117230000Y-81010000D02*
X117230000Y-79010000D01*
X115180000Y-79010000D02*
X115180000Y-81010000D01*
X119135000Y-100695000D02*
X119135000Y-98695000D01*
X117085000Y-98695000D02*
X117085000Y-100695000D01*
X101409500Y-94559120D02*
X101409500Y-103560880D01*
X97909380Y-94559120D02*
X97909380Y-103560880D01*
X97909380Y-103560880D02*
X112410240Y-103560880D01*
X112410240Y-103560880D02*
X112410240Y-94559120D01*
X112410240Y-94559120D02*
X97909380Y-94559120D01*
X103464000Y-79430000D02*
X98466000Y-79430000D01*
X103456000Y-79570000D02*
X98474000Y-79570000D01*
X103440000Y-79710000D02*
X101060000Y-79710000D01*
X100870000Y-79710000D02*
X98490000Y-79710000D01*
X103416000Y-79850000D02*
X101455000Y-79850000D01*
X100475000Y-79850000D02*
X98514000Y-79850000D01*
X103383000Y-79990000D02*
X101622000Y-79990000D01*
X100308000Y-79990000D02*
X98547000Y-79990000D01*
X103342000Y-80130000D02*
X101729000Y-80130000D01*
X100201000Y-80130000D02*
X98588000Y-80130000D01*
X103292000Y-80270000D02*
X101800000Y-80270000D01*
X100130000Y-80270000D02*
X98638000Y-80270000D01*
X103231000Y-80410000D02*
X101844000Y-80410000D01*
X100086000Y-80410000D02*
X98699000Y-80410000D01*
X103161000Y-80550000D02*
X101863000Y-80550000D01*
X100067000Y-80550000D02*
X98769000Y-80550000D01*
X103079000Y-80690000D02*
X101861000Y-80690000D01*
X100069000Y-80690000D02*
X98851000Y-80690000D01*
X102984000Y-80830000D02*
X101836000Y-80830000D01*
X100094000Y-80830000D02*
X98946000Y-80830000D01*
X102873000Y-80970000D02*
X101788000Y-80970000D01*
X100142000Y-80970000D02*
X99057000Y-80970000D01*
X102745000Y-81110000D02*
X101710000Y-81110000D01*
X100220000Y-81110000D02*
X99185000Y-81110000D01*
X102596000Y-81250000D02*
X101593000Y-81250000D01*
X100337000Y-81250000D02*
X99334000Y-81250000D01*
X102417000Y-81390000D02*
X101405000Y-81390000D01*
X100525000Y-81390000D02*
X99513000Y-81390000D01*
X102198000Y-81530000D02*
X99732000Y-81530000D01*
X101909000Y-81670000D02*
X100021000Y-81670000D01*
X101437000Y-81810000D02*
X100493000Y-81810000D01*
X101865000Y-80605000D02*
G75*
G03X101865000Y-80605000I-900000J0D01*
G01*
X103502500Y-79355000D02*
G75*
G03X103502500Y-79355000I-2537500J0D01*
G01*
X98466000Y-85670000D02*
X103464000Y-85670000D01*
X98474000Y-85530000D02*
X103456000Y-85530000D01*
X98490000Y-85390000D02*
X100870000Y-85390000D01*
X101060000Y-85390000D02*
X103440000Y-85390000D01*
X98514000Y-85250000D02*
X100475000Y-85250000D01*
X101455000Y-85250000D02*
X103416000Y-85250000D01*
X98547000Y-85110000D02*
X100308000Y-85110000D01*
X101622000Y-85110000D02*
X103383000Y-85110000D01*
X98588000Y-84970000D02*
X100201000Y-84970000D01*
X101729000Y-84970000D02*
X103342000Y-84970000D01*
X98638000Y-84830000D02*
X100130000Y-84830000D01*
X101800000Y-84830000D02*
X103292000Y-84830000D01*
X98699000Y-84690000D02*
X100086000Y-84690000D01*
X101844000Y-84690000D02*
X103231000Y-84690000D01*
X98769000Y-84550000D02*
X100067000Y-84550000D01*
X101863000Y-84550000D02*
X103161000Y-84550000D01*
X98851000Y-84410000D02*
X100069000Y-84410000D01*
X101861000Y-84410000D02*
X103079000Y-84410000D01*
X98946000Y-84270000D02*
X100094000Y-84270000D01*
X101836000Y-84270000D02*
X102984000Y-84270000D01*
X99057000Y-84130000D02*
X100142000Y-84130000D01*
X101788000Y-84130000D02*
X102873000Y-84130000D01*
X99185000Y-83990000D02*
X100220000Y-83990000D01*
X101710000Y-83990000D02*
X102745000Y-83990000D01*
X99334000Y-83850000D02*
X100337000Y-83850000D01*
X101593000Y-83850000D02*
X102596000Y-83850000D01*
X99513000Y-83710000D02*
X100525000Y-83710000D01*
X101405000Y-83710000D02*
X102417000Y-83710000D01*
X99732000Y-83570000D02*
X102198000Y-83570000D01*
X100021000Y-83430000D02*
X101909000Y-83430000D01*
X100493000Y-83290000D02*
X101437000Y-83290000D01*
X101865000Y-84495000D02*
G75*
G03X101865000Y-84495000I-900000J0D01*
G01*
X103502500Y-85745000D02*
G75*
G03X103502500Y-85745000I-2537500J0D01*
G01*
X139533334Y-89892143D02*
X139485715Y-89939762D01*
X139342858Y-89987381D01*
X139247620Y-89987381D01*
X139104762Y-89939762D01*
X139009524Y-89844524D01*
X138961905Y-89749286D01*
X138914286Y-89558810D01*
X138914286Y-89415952D01*
X138961905Y-89225476D01*
X139009524Y-89130238D01*
X139104762Y-89035000D01*
X139247620Y-88987381D01*
X139342858Y-88987381D01*
X139485715Y-89035000D01*
X139533334Y-89082619D01*
X139866667Y-88987381D02*
X140485715Y-88987381D01*
X140152381Y-89368333D01*
X140295239Y-89368333D01*
X140390477Y-89415952D01*
X140438096Y-89463571D01*
X140485715Y-89558810D01*
X140485715Y-89796905D01*
X140438096Y-89892143D01*
X140390477Y-89939762D01*
X140295239Y-89987381D01*
X140009524Y-89987381D01*
X139914286Y-89939762D01*
X139866667Y-89892143D01*
X138961905Y-96972381D02*
X138961905Y-95972381D01*
X139200000Y-95972381D01*
X139342858Y-96020000D01*
X139438096Y-96115238D01*
X139485715Y-96210476D01*
X139533334Y-96400952D01*
X139533334Y-96543810D01*
X139485715Y-96734286D01*
X139438096Y-96829524D01*
X139342858Y-96924762D01*
X139200000Y-96972381D01*
X138961905Y-96972381D01*
X140485715Y-96972381D02*
X139914286Y-96972381D01*
X140200000Y-96972381D02*
X140200000Y-95972381D01*
X140104762Y-96115238D01*
X140009524Y-96210476D01*
X139914286Y-96258095D01*
X141327143Y-82716666D02*
X141374762Y-82764285D01*
X141422381Y-82907142D01*
X141422381Y-83002380D01*
X141374762Y-83145238D01*
X141279524Y-83240476D01*
X141184286Y-83288095D01*
X140993810Y-83335714D01*
X140850952Y-83335714D01*
X140660476Y-83288095D01*
X140565238Y-83240476D01*
X140470000Y-83145238D01*
X140422381Y-83002380D01*
X140422381Y-82907142D01*
X140470000Y-82764285D01*
X140517619Y-82716666D01*
X140517619Y-82335714D02*
X140470000Y-82288095D01*
X140422381Y-82192857D01*
X140422381Y-81954761D01*
X140470000Y-81859523D01*
X140517619Y-81811904D01*
X140612857Y-81764285D01*
X140708095Y-81764285D01*
X140850952Y-81811904D01*
X141422381Y-82383333D01*
X141422381Y-81764285D01*
X135723334Y-98401143D02*
X135675715Y-98448762D01*
X135532858Y-98496381D01*
X135437620Y-98496381D01*
X135294762Y-98448762D01*
X135199524Y-98353524D01*
X135151905Y-98258286D01*
X135104286Y-98067810D01*
X135104286Y-97924952D01*
X135151905Y-97734476D01*
X135199524Y-97639238D01*
X135294762Y-97544000D01*
X135437620Y-97496381D01*
X135532858Y-97496381D01*
X135675715Y-97544000D01*
X135723334Y-97591619D01*
X136675715Y-98496381D02*
X136104286Y-98496381D01*
X136390000Y-98496381D02*
X136390000Y-97496381D01*
X136294762Y-97639238D01*
X136199524Y-97734476D01*
X136104286Y-97782095D01*
X137612381Y-84621666D02*
X137136190Y-84955000D01*
X137612381Y-85193095D02*
X136612381Y-85193095D01*
X136612381Y-84812142D01*
X136660000Y-84716904D01*
X136707619Y-84669285D01*
X136802857Y-84621666D01*
X136945714Y-84621666D01*
X137040952Y-84669285D01*
X137088571Y-84716904D01*
X137136190Y-84812142D01*
X137136190Y-85193095D01*
X137612381Y-83669285D02*
X137612381Y-84240714D01*
X137612381Y-83955000D02*
X136612381Y-83955000D01*
X136755238Y-84050238D01*
X136850476Y-84145476D01*
X136898095Y-84240714D01*
X132548334Y-86812381D02*
X132215000Y-86336190D01*
X131976905Y-86812381D02*
X131976905Y-85812381D01*
X132357858Y-85812381D01*
X132453096Y-85860000D01*
X132500715Y-85907619D01*
X132548334Y-86002857D01*
X132548334Y-86145714D01*
X132500715Y-86240952D01*
X132453096Y-86288571D01*
X132357858Y-86336190D01*
X131976905Y-86336190D01*
X132929286Y-85907619D02*
X132976905Y-85860000D01*
X133072143Y-85812381D01*
X133310239Y-85812381D01*
X133405477Y-85860000D01*
X133453096Y-85907619D01*
X133500715Y-86002857D01*
X133500715Y-86098095D01*
X133453096Y-86240952D01*
X132881667Y-86812381D01*
X133500715Y-86812381D01*
X132548334Y-93162381D02*
X132215000Y-92686190D01*
X131976905Y-93162381D02*
X131976905Y-92162381D01*
X132357858Y-92162381D01*
X132453096Y-92210000D01*
X132500715Y-92257619D01*
X132548334Y-92352857D01*
X132548334Y-92495714D01*
X132500715Y-92590952D01*
X132453096Y-92638571D01*
X132357858Y-92686190D01*
X131976905Y-92686190D01*
X132881667Y-92162381D02*
X133500715Y-92162381D01*
X133167381Y-92543333D01*
X133310239Y-92543333D01*
X133405477Y-92590952D01*
X133453096Y-92638571D01*
X133500715Y-92733810D01*
X133500715Y-92971905D01*
X133453096Y-93067143D01*
X133405477Y-93114762D01*
X133310239Y-93162381D01*
X133024524Y-93162381D01*
X132929286Y-93114762D01*
X132881667Y-93067143D01*
X122532857Y-99974286D02*
X123504286Y-99974286D01*
X123618571Y-99917143D01*
X123675714Y-99860000D01*
X123732857Y-99745714D01*
X123732857Y-99517143D01*
X123675714Y-99402857D01*
X123618571Y-99345714D01*
X123504286Y-99288571D01*
X122532857Y-99288571D01*
X122647143Y-98774286D02*
X122590000Y-98717143D01*
X122532857Y-98602857D01*
X122532857Y-98317143D01*
X122590000Y-98202857D01*
X122647143Y-98145714D01*
X122761429Y-98088571D01*
X122875714Y-98088571D01*
X123047143Y-98145714D01*
X123732857Y-98831428D01*
X123732857Y-98088571D01*
X122786857Y-81178286D02*
X123758286Y-81178286D01*
X123872571Y-81121143D01*
X123929714Y-81064000D01*
X123986857Y-80949714D01*
X123986857Y-80721143D01*
X123929714Y-80606857D01*
X123872571Y-80549714D01*
X123758286Y-80492571D01*
X122786857Y-80492571D01*
X122786857Y-80035428D02*
X122786857Y-79292571D01*
X123244000Y-79692571D01*
X123244000Y-79521143D01*
X123301143Y-79406857D01*
X123358286Y-79349714D01*
X123472571Y-79292571D01*
X123758286Y-79292571D01*
X123872571Y-79349714D01*
X123929714Y-79406857D01*
X123986857Y-79521143D01*
X123986857Y-79864000D01*
X123929714Y-79978286D01*
X123872571Y-80035428D01*
X120102381Y-92963905D02*
X120911905Y-92963905D01*
X121007143Y-92916286D01*
X121054762Y-92868667D01*
X121102381Y-92773429D01*
X121102381Y-92582952D01*
X121054762Y-92487714D01*
X121007143Y-92440095D01*
X120911905Y-92392476D01*
X120102381Y-92392476D01*
X120435714Y-91487714D02*
X121102381Y-91487714D01*
X120054762Y-91725810D02*
X120769048Y-91963905D01*
X120769048Y-91344857D01*
X120102381Y-87375905D02*
X120911905Y-87375905D01*
X121007143Y-87328286D01*
X121054762Y-87280667D01*
X121102381Y-87185429D01*
X121102381Y-86994952D01*
X121054762Y-86899714D01*
X121007143Y-86852095D01*
X120911905Y-86804476D01*
X120102381Y-86804476D01*
X120102381Y-85852095D02*
X120102381Y-86328286D01*
X120578571Y-86375905D01*
X120530952Y-86328286D01*
X120483333Y-86233048D01*
X120483333Y-85994952D01*
X120530952Y-85899714D01*
X120578571Y-85852095D01*
X120673810Y-85804476D01*
X120911905Y-85804476D01*
X121007143Y-85852095D01*
X121054762Y-85899714D01*
X121102381Y-85994952D01*
X121102381Y-86233048D01*
X121054762Y-86328286D01*
X121007143Y-86375905D01*
X145232381Y-88368095D02*
X144232381Y-88368095D01*
X144232381Y-88130000D01*
X144280000Y-87987142D01*
X144375238Y-87891904D01*
X144470476Y-87844285D01*
X144660952Y-87796666D01*
X144803810Y-87796666D01*
X144994286Y-87844285D01*
X145089524Y-87891904D01*
X145184762Y-87987142D01*
X145232381Y-88130000D01*
X145232381Y-88368095D01*
X144327619Y-87415714D02*
X144280000Y-87368095D01*
X144232381Y-87272857D01*
X144232381Y-87034761D01*
X144280000Y-86939523D01*
X144327619Y-86891904D01*
X144422857Y-86844285D01*
X144518095Y-86844285D01*
X144660952Y-86891904D01*
X145232381Y-87463333D01*
X145232381Y-86844285D01*
X116038334Y-100179143D02*
X115990715Y-100226762D01*
X115847858Y-100274381D01*
X115752620Y-100274381D01*
X115609762Y-100226762D01*
X115514524Y-100131524D01*
X115466905Y-100036286D01*
X115419286Y-99845810D01*
X115419286Y-99702952D01*
X115466905Y-99512476D01*
X115514524Y-99417238D01*
X115609762Y-99322000D01*
X115752620Y-99274381D01*
X115847858Y-99274381D01*
X115990715Y-99322000D01*
X116038334Y-99369619D01*
X116895477Y-99607714D02*
X116895477Y-100274381D01*
X116657381Y-99226762D02*
X116419286Y-99941048D01*
X117038334Y-99941048D01*
X117943334Y-80367143D02*
X117895715Y-80414762D01*
X117752858Y-80462381D01*
X117657620Y-80462381D01*
X117514762Y-80414762D01*
X117419524Y-80319524D01*
X117371905Y-80224286D01*
X117324286Y-80033810D01*
X117324286Y-79890952D01*
X117371905Y-79700476D01*
X117419524Y-79605238D01*
X117514762Y-79510000D01*
X117657620Y-79462381D01*
X117752858Y-79462381D01*
X117895715Y-79510000D01*
X117943334Y-79557619D01*
X118848096Y-79462381D02*
X118371905Y-79462381D01*
X118324286Y-79938571D01*
X118371905Y-79890952D01*
X118467143Y-79843333D01*
X118705239Y-79843333D01*
X118800477Y-79890952D01*
X118848096Y-79938571D01*
X118895715Y-80033810D01*
X118895715Y-80271905D01*
X118848096Y-80367143D01*
X118800477Y-80414762D01*
X118705239Y-80462381D01*
X118467143Y-80462381D01*
X118371905Y-80414762D01*
X118324286Y-80367143D01*
X115911334Y-80367143D02*
X115863715Y-80414762D01*
X115720858Y-80462381D01*
X115625620Y-80462381D01*
X115482762Y-80414762D01*
X115387524Y-80319524D01*
X115339905Y-80224286D01*
X115292286Y-80033810D01*
X115292286Y-79890952D01*
X115339905Y-79700476D01*
X115387524Y-79605238D01*
X115482762Y-79510000D01*
X115625620Y-79462381D01*
X115720858Y-79462381D01*
X115863715Y-79510000D01*
X115911334Y-79557619D01*
X116768477Y-79462381D02*
X116578000Y-79462381D01*
X116482762Y-79510000D01*
X116435143Y-79557619D01*
X116339905Y-79700476D01*
X116292286Y-79890952D01*
X116292286Y-80271905D01*
X116339905Y-80367143D01*
X116387524Y-80414762D01*
X116482762Y-80462381D01*
X116673239Y-80462381D01*
X116768477Y-80414762D01*
X116816096Y-80367143D01*
X116863715Y-80271905D01*
X116863715Y-80033810D01*
X116816096Y-79938571D01*
X116768477Y-79890952D01*
X116673239Y-79843333D01*
X116482762Y-79843333D01*
X116387524Y-79890952D01*
X116339905Y-79938571D01*
X116292286Y-80033810D01*
X118070334Y-100179143D02*
X118022715Y-100226762D01*
X117879858Y-100274381D01*
X117784620Y-100274381D01*
X117641762Y-100226762D01*
X117546524Y-100131524D01*
X117498905Y-100036286D01*
X117451286Y-99845810D01*
X117451286Y-99702952D01*
X117498905Y-99512476D01*
X117546524Y-99417238D01*
X117641762Y-99322000D01*
X117784620Y-99274381D01*
X117879858Y-99274381D01*
X118022715Y-99322000D01*
X118070334Y-99369619D01*
X118403667Y-99274381D02*
X119070334Y-99274381D01*
X118641762Y-100274381D01*
X103227143Y-78271666D02*
X103274762Y-78319285D01*
X103322381Y-78462142D01*
X103322381Y-78557380D01*
X103274762Y-78700238D01*
X103179524Y-78795476D01*
X103084286Y-78843095D01*
X102893810Y-78890714D01*
X102750952Y-78890714D01*
X102560476Y-78843095D01*
X102465238Y-78795476D01*
X102370000Y-78700238D01*
X102322381Y-78557380D01*
X102322381Y-78462142D01*
X102370000Y-78319285D01*
X102417619Y-78271666D01*
X102750952Y-77700238D02*
X102703333Y-77795476D01*
X102655714Y-77843095D01*
X102560476Y-77890714D01*
X102512857Y-77890714D01*
X102417619Y-77843095D01*
X102370000Y-77795476D01*
X102322381Y-77700238D01*
X102322381Y-77509761D01*
X102370000Y-77414523D01*
X102417619Y-77366904D01*
X102512857Y-77319285D01*
X102560476Y-77319285D01*
X102655714Y-77366904D01*
X102703333Y-77414523D01*
X102750952Y-77509761D01*
X102750952Y-77700238D01*
X102798571Y-77795476D01*
X102846190Y-77843095D01*
X102941429Y-77890714D01*
X103131905Y-77890714D01*
X103227143Y-77843095D01*
X103274762Y-77795476D01*
X103322381Y-77700238D01*
X103322381Y-77509761D01*
X103274762Y-77414523D01*
X103227143Y-77366904D01*
X103131905Y-77319285D01*
X102941429Y-77319285D01*
X102846190Y-77366904D01*
X102798571Y-77414523D01*
X102750952Y-77509761D01*
X103227143Y-87161666D02*
X103274762Y-87209285D01*
X103322381Y-87352142D01*
X103322381Y-87447380D01*
X103274762Y-87590238D01*
X103179524Y-87685476D01*
X103084286Y-87733095D01*
X102893810Y-87780714D01*
X102750952Y-87780714D01*
X102560476Y-87733095D01*
X102465238Y-87685476D01*
X102370000Y-87590238D01*
X102322381Y-87447380D01*
X102322381Y-87352142D01*
X102370000Y-87209285D01*
X102417619Y-87161666D01*
X103322381Y-86685476D02*
X103322381Y-86495000D01*
X103274762Y-86399761D01*
X103227143Y-86352142D01*
X103084286Y-86256904D01*
X102893810Y-86209285D01*
X102512857Y-86209285D01*
X102417619Y-86256904D01*
X102370000Y-86304523D01*
X102322381Y-86399761D01*
X102322381Y-86590238D01*
X102370000Y-86685476D01*
X102417619Y-86733095D01*
X102512857Y-86780714D01*
X102750952Y-86780714D01*
X102846190Y-86733095D01*
X102893810Y-86685476D01*
X102941429Y-86590238D01*
X102941429Y-86399761D01*
X102893810Y-86304523D01*
X102846190Y-86256904D01*
X102750952Y-86209285D01*
M02*
