M48
;DRILL file {KiCad 4.0.2-stable} date 5/1/2016 9:37:53 AM
;FORMAT={-:-/ absolute / inch / decimal}
FMAT,2
INCH,TZ
T1C0.013
T2C0.031
T3C0.040
T4C0.080
T5C0.100
T6C0.120
%
G90
G05
M72
T1
X4.725Y-3.3
X4.725Y-4.025
X4.89Y-3.13
X4.975Y-3.375
X4.975Y-3.45
X4.975Y-3.525
X4.975Y-3.6
X4.975Y-3.675
X5.025Y-3.325
X5.025Y-3.4
X5.025Y-3.475
X5.025Y-3.55
X5.025Y-3.625
X5.025Y-3.7
X5.075Y-3.375
X5.075Y-3.425
X5.075Y-3.5
X5.075Y-3.575
X5.075Y-3.65
X5.1Y-3.875
X5.125Y-3.71
X5.15Y-3.275
X5.275Y-3.65
X5.35Y-3.875
X5.4Y-3.375
X5.4Y-3.925
X5.725Y-3.25
T2
X3.975Y-3.075
X3.975Y-3.1734
X3.975Y-3.3266
X3.975Y-3.425
T3
X4.15Y-3.1
X4.15Y-3.3
X4.15Y-3.5
X4.25Y-3.1
X4.25Y-3.3
X4.25Y-3.5
X4.35Y-3.1
X4.35Y-3.3
X4.35Y-3.5
X4.45Y-3.1
X4.45Y-3.3
X4.45Y-3.5
X5.1Y-3.15
X5.1Y-4.05
X5.2Y-3.15
X5.2Y-4.05
X5.3Y-3.15
X5.3Y-4.05
X5.35Y-3.7
X5.4Y-3.15
X5.4Y-4.05
X5.5Y-3.15
X5.5Y-4.05
X5.6Y-3.15
X5.6Y-4.05
X5.7Y-3.15
X5.7Y-4.05
X5.8Y-3.15
X5.8Y-4.05
T4
X4.3Y-4.075
T5
X4.15Y-3.9
X4.41Y-3.9
T6
X3.95Y-3.6
X5.95Y-3.6
T0
M30
