%TF.GenerationSoftware,KiCad,Pcbnew,4.0.2-stable*%
%TF.CreationDate,2016-05-01T09:37:51-04:00*%
%TF.ProjectId,RGB-Controller,5247422D436F6E74726F6C6C65722E6B,rev?*%
%TF.FileFunction,Copper,L1,Top,Signal*%
%FSLAX46Y46*%
G04 Gerber Fmt 4.6, Leading zero omitted, Abs format (unit mm)*
G04 Created by KiCad (PCBNEW 4.0.2-stable) date 5/1/2016 9:37:51 AM*
%MOMM*%
G01*
G04 APERTURE LIST*
%ADD10C,0.127000*%
%ADD11R,1.600000X2.000000*%
%ADD12C,1.016000*%
%ADD13R,2.301240X2.499360*%
%ADD14O,1.524000X2.032000*%
%ADD15R,2.000000X1.600000*%
%ADD16C,4.064000*%
%ADD17R,2.200000X6.300000*%
%ADD18R,1.727200X2.032000*%
%ADD19O,1.727200X2.032000*%
%ADD20R,2.000000X1.700000*%
%ADD21R,1.700000X2.000000*%
%ADD22R,0.650000X1.060000*%
%ADD23R,1.750000X0.650000*%
%ADD24O,1.473200X0.609600*%
%ADD25R,2.499360X2.301240*%
%ADD26O,4.572000X4.572000*%
%ADD27O,4.064000X4.064000*%
%ADD28O,3.500120X3.500120*%
%ADD29R,1.300000X1.300000*%
%ADD30C,1.300000*%
%ADD31C,0.685800*%
%ADD32C,2.032000*%
%ADD33C,0.762000*%
%ADD34C,0.508000*%
%ADD35C,0.635000*%
%ADD36C,1.524000*%
%ADD37C,1.270000*%
%ADD38C,0.254000*%
G04 APERTURE END LIST*
D10*
D11*
X139700000Y-87535000D03*
X139700000Y-91535000D03*
D12*
X135890000Y-93980000D03*
D13*
X139700000Y-94371160D03*
X139700000Y-98668840D03*
D14*
X147320000Y-102870000D03*
X147320000Y-80010000D03*
X144780000Y-102870000D03*
X144780000Y-80010000D03*
X142240000Y-102870000D03*
X142240000Y-80010000D03*
X139700000Y-102870000D03*
X139700000Y-80010000D03*
X137160000Y-102870000D03*
X137160000Y-80010000D03*
X134620000Y-102870000D03*
X134620000Y-80010000D03*
X132080000Y-102870000D03*
X132080000Y-80010000D03*
X129540000Y-102870000D03*
X129540000Y-80010000D03*
D15*
X138970000Y-82550000D03*
X142970000Y-82550000D03*
D16*
X151130000Y-91440000D03*
D11*
X135890000Y-91980000D03*
X135890000Y-95980000D03*
D17*
X142730000Y-93345000D03*
X146830000Y-93345000D03*
D18*
X113030000Y-78740000D03*
D19*
X110490000Y-78740000D03*
X107950000Y-78740000D03*
X105410000Y-78740000D03*
D18*
X113030000Y-83820000D03*
D19*
X110490000Y-83820000D03*
X107950000Y-83820000D03*
X105410000Y-83820000D03*
D18*
X113030000Y-88900000D03*
D19*
X110490000Y-88900000D03*
X107950000Y-88900000D03*
X105410000Y-88900000D03*
D20*
X139160000Y-84455000D03*
X135160000Y-84455000D03*
D21*
X132715000Y-88360000D03*
X132715000Y-84360000D03*
X132715000Y-94710000D03*
X132715000Y-90710000D03*
D22*
X136840000Y-87800000D03*
X135890000Y-87800000D03*
X134940000Y-87800000D03*
X134940000Y-90000000D03*
X136840000Y-90000000D03*
X135890000Y-90000000D03*
D23*
X120390000Y-100965000D03*
X125990000Y-100965000D03*
X120390000Y-99695000D03*
X125990000Y-99695000D03*
X120390000Y-98425000D03*
X125990000Y-98425000D03*
X120390000Y-97155000D03*
X125990000Y-97155000D03*
X120390000Y-81915000D03*
X125990000Y-81915000D03*
X120390000Y-80645000D03*
X125990000Y-80645000D03*
X120390000Y-79375000D03*
X125990000Y-79375000D03*
X120390000Y-78105000D03*
X125990000Y-78105000D03*
D24*
X123444000Y-94107000D03*
X123444000Y-92837000D03*
X123444000Y-91567000D03*
X123444000Y-90297000D03*
X117856000Y-90297000D03*
X117856000Y-91567000D03*
X117856000Y-92837000D03*
X117856000Y-94107000D03*
X123444000Y-88519000D03*
X123444000Y-87249000D03*
X123444000Y-85979000D03*
X123444000Y-84709000D03*
X117856000Y-84709000D03*
X117856000Y-85979000D03*
X117856000Y-87249000D03*
X117856000Y-88519000D03*
D16*
X100330000Y-91440000D03*
D25*
X142631160Y-87630000D03*
X146928840Y-87630000D03*
D11*
X116205000Y-97695000D03*
X116205000Y-101695000D03*
X118110000Y-78010000D03*
X118110000Y-82010000D03*
X116205000Y-78010000D03*
X116205000Y-82010000D03*
X118110000Y-97695000D03*
X118110000Y-101695000D03*
D26*
X112014000Y-99060000D03*
D27*
X105410000Y-99060000D03*
D28*
X109220000Y-103505000D03*
D29*
X100965000Y-78105000D03*
D30*
X100965000Y-80605000D03*
D29*
X100965000Y-86995000D03*
D30*
X100965000Y-84495000D03*
D31*
X133985000Y-92710000D03*
X145415000Y-82550000D03*
X137160000Y-99695000D03*
X120015000Y-102235000D03*
X135890000Y-98425000D03*
X124206000Y-79502000D03*
X137160000Y-85725000D03*
X130810000Y-83185000D03*
X127635000Y-86360000D03*
X127635000Y-88265000D03*
X127635000Y-90170000D03*
X127635000Y-92075000D03*
X127635000Y-93980000D03*
X126365000Y-85725000D03*
X127635000Y-84455000D03*
X128905000Y-85725000D03*
X128905000Y-86995000D03*
X128905000Y-88900000D03*
X128905000Y-90805000D03*
X128905000Y-92710000D03*
X120015000Y-83820000D03*
X129540000Y-98425000D03*
X126365000Y-87630000D03*
X126365000Y-89535000D03*
X126365000Y-91440000D03*
X126365000Y-93345000D03*
X130175000Y-94234000D03*
D32*
X100965000Y-78105000D02*
X104775000Y-78105000D01*
X104775000Y-78105000D02*
X105410000Y-78740000D01*
X100965000Y-86995000D02*
X103505000Y-86995000D01*
X103505000Y-86995000D02*
X105410000Y-88900000D01*
D33*
X112014000Y-99060000D02*
X112014000Y-101219000D01*
X112014000Y-101219000D02*
X114300000Y-103505000D01*
X114300000Y-103505000D02*
X120650000Y-103505000D01*
X120650000Y-103505000D02*
X123190000Y-100965000D01*
X123190000Y-100965000D02*
X123190000Y-97155000D01*
X123190000Y-97155000D02*
X124460000Y-95885000D01*
X124460000Y-95885000D02*
X131540000Y-95885000D01*
X131540000Y-95885000D02*
X132715000Y-94710000D01*
D34*
X132715000Y-94710000D02*
X132715000Y-93980000D01*
X132715000Y-93980000D02*
X133985000Y-92710000D01*
X135890000Y-91980000D02*
X134715000Y-91980000D01*
X134715000Y-91980000D02*
X132715000Y-93980000D01*
D35*
X111610140Y-99060000D02*
X113030000Y-100479860D01*
X132715000Y-94710000D02*
X132175000Y-95250000D01*
X132715000Y-94710000D02*
X133160000Y-94710000D01*
X135890000Y-90000000D02*
X135890000Y-91980000D01*
D33*
X142970000Y-82550000D02*
X145415000Y-82550000D01*
D35*
X139700000Y-98668840D02*
X138186160Y-98668840D01*
X138186160Y-98668840D02*
X137160000Y-99695000D01*
X118110000Y-101695000D02*
X118650000Y-102235000D01*
X118650000Y-102235000D02*
X120015000Y-102235000D01*
X135890000Y-98425000D02*
X135890000Y-95980000D01*
X116205000Y-101695000D02*
X118110000Y-101695000D01*
X125990000Y-79375000D02*
X124333000Y-79375000D01*
X124333000Y-79375000D02*
X124206000Y-79502000D01*
X135890000Y-87800000D02*
X135890000Y-86995000D01*
X135890000Y-86995000D02*
X137160000Y-85725000D01*
X132715000Y-84360000D02*
X131985000Y-84360000D01*
X131985000Y-84360000D02*
X130810000Y-83185000D01*
D34*
X127635000Y-93980000D02*
X128905000Y-92710000D01*
D35*
X127000000Y-85725000D02*
X127635000Y-86360000D01*
X127635000Y-88265000D02*
X127635000Y-90170000D01*
X127635000Y-92075000D02*
X127635000Y-93980000D01*
X126365000Y-85725000D02*
X127000000Y-85725000D01*
D34*
X128905000Y-86995000D02*
X128905000Y-85725000D01*
X128905000Y-90805000D02*
X128905000Y-88900000D01*
D35*
X116205000Y-82010000D02*
X118110000Y-82010000D01*
D34*
X118110000Y-82010000D02*
X119920000Y-83820000D01*
X119920000Y-83820000D02*
X120015000Y-83820000D01*
D35*
X125990000Y-98425000D02*
X127000000Y-98425000D01*
X127000000Y-98425000D02*
X129540000Y-98425000D01*
D34*
X135890000Y-88900000D02*
X134620000Y-88900000D01*
D35*
X123444000Y-91567000D02*
X125603000Y-91567000D01*
X125730000Y-91440000D02*
X126365000Y-91440000D01*
X125603000Y-91567000D02*
X125730000Y-91440000D01*
X123444000Y-94107000D02*
X125603000Y-94107000D01*
X126111000Y-85979000D02*
X123444000Y-85979000D01*
X126365000Y-85725000D02*
X126111000Y-85979000D01*
X126365000Y-87630000D02*
X126365000Y-85725000D01*
X126365000Y-91440000D02*
X126365000Y-89535000D01*
X125603000Y-94107000D02*
X126365000Y-93345000D01*
D34*
X135890000Y-87800000D02*
X135890000Y-88900000D01*
X137160000Y-88900000D02*
X135890000Y-88900000D01*
D33*
X129540000Y-80010000D02*
X131445000Y-81915000D01*
X136525000Y-82550000D02*
X138970000Y-82550000D01*
X135890000Y-81915000D02*
X136525000Y-82550000D01*
X131445000Y-81915000D02*
X135890000Y-81915000D01*
D36*
X138970000Y-82550000D02*
X138970000Y-84265000D01*
X138970000Y-84265000D02*
X139160000Y-84455000D01*
X139160000Y-84455000D02*
X146050000Y-84455000D01*
X146928840Y-85333840D02*
X146928840Y-87630000D01*
X146050000Y-84455000D02*
X146928840Y-85333840D01*
X146780000Y-93395000D02*
X146830000Y-93345000D01*
X146928840Y-87630000D02*
X146928840Y-93246160D01*
X146928840Y-93246160D02*
X146830000Y-93345000D01*
D35*
X139160000Y-84455000D02*
X139160000Y-84360000D01*
X139065000Y-84455000D02*
X139160000Y-84455000D01*
X116205000Y-97695000D02*
X118110000Y-97695000D01*
X120390000Y-79375000D02*
X121285000Y-79375000D01*
X118110000Y-95885000D02*
X118110000Y-97695000D01*
X119380000Y-94615000D02*
X118110000Y-95885000D01*
X119380000Y-90805000D02*
X119380000Y-94615000D01*
X121920000Y-88265000D02*
X119380000Y-90805000D01*
X121920000Y-80010000D02*
X121920000Y-88265000D01*
X121285000Y-79375000D02*
X121920000Y-80010000D01*
D34*
X118205000Y-98425000D02*
X120390000Y-98425000D01*
X116205000Y-78010000D02*
X118110000Y-78010000D01*
X129540000Y-80010000D02*
X129540000Y-79375000D01*
X118110000Y-78740000D02*
X118745000Y-79375000D01*
X118110000Y-78105000D02*
X118110000Y-78740000D01*
X119380000Y-76835000D02*
X118110000Y-78105000D01*
X127000000Y-76835000D02*
X119380000Y-76835000D01*
X129540000Y-79375000D02*
X127000000Y-76835000D01*
X120390000Y-79375000D02*
X118745000Y-79375000D01*
D36*
X139700000Y-87535000D02*
X142536160Y-87535000D01*
X142536160Y-87535000D02*
X142631160Y-87630000D01*
D34*
X139700000Y-88021160D02*
X139700000Y-88170000D01*
D35*
X136840000Y-87800000D02*
X139330000Y-87800000D01*
X139330000Y-87800000D02*
X139700000Y-88170000D01*
D36*
X139700000Y-91535000D02*
X139700000Y-92075000D01*
X139700000Y-92075000D02*
X140970000Y-93345000D01*
X140970000Y-93345000D02*
X140970000Y-93101160D01*
X139700000Y-91535000D02*
X140920000Y-91535000D01*
X140920000Y-91535000D02*
X142730000Y-93345000D01*
X139700000Y-94371160D02*
X140970000Y-93101160D01*
X140970000Y-93101160D02*
X140726160Y-93345000D01*
X140726160Y-93345000D02*
X142730000Y-93345000D01*
D35*
X136840000Y-90000000D02*
X138165000Y-90000000D01*
X138165000Y-90000000D02*
X139700000Y-91535000D01*
D36*
X139700000Y-94371160D02*
X141703840Y-94371160D01*
X141703840Y-94371160D02*
X142730000Y-93345000D01*
X139700000Y-91535000D02*
X139700000Y-94371160D01*
D37*
X110363000Y-89027000D02*
X110490000Y-88900000D01*
X110363000Y-89027000D02*
X110490000Y-88900000D01*
X107823000Y-89027000D02*
X107950000Y-88900000D01*
X107823000Y-89027000D02*
X107950000Y-88900000D01*
D35*
X135160000Y-84455000D02*
X134940000Y-84675000D01*
X134940000Y-84675000D02*
X134940000Y-87800000D01*
X132715000Y-88360000D02*
X133275000Y-87800000D01*
X133275000Y-87800000D02*
X134940000Y-87800000D01*
X132715000Y-90710000D02*
X134230000Y-90710000D01*
X134230000Y-90710000D02*
X134940000Y-90000000D01*
X120390000Y-99695000D02*
X121793000Y-99695000D01*
X122555000Y-92837000D02*
X123444000Y-92837000D01*
X121920000Y-93472000D02*
X122555000Y-92837000D01*
X121920000Y-99568000D02*
X121920000Y-93472000D01*
X121793000Y-99695000D02*
X121920000Y-99568000D01*
X125990000Y-99695000D02*
X125095000Y-99695000D01*
X137795000Y-104775000D02*
X139700000Y-102870000D01*
X127635000Y-104775000D02*
X137795000Y-104775000D01*
X124460000Y-101600000D02*
X127635000Y-104775000D01*
X124460000Y-100330000D02*
X124460000Y-101600000D01*
X125095000Y-99695000D02*
X124460000Y-100330000D01*
X120390000Y-97155000D02*
X120390000Y-91446000D01*
X121539000Y-90297000D02*
X123444000Y-90297000D01*
X120390000Y-91446000D02*
X121539000Y-90297000D01*
X125990000Y-97155000D02*
X131445000Y-97155000D01*
X131445000Y-97155000D02*
X137160000Y-102870000D01*
X125990000Y-78105000D02*
X127000000Y-78105000D01*
X130175000Y-85090000D02*
X130175000Y-94234000D01*
X127635000Y-82550000D02*
X130175000Y-85090000D01*
X127635000Y-78740000D02*
X127635000Y-82550000D01*
X127000000Y-78105000D02*
X127635000Y-78740000D01*
D34*
X120390000Y-78105000D02*
X121920000Y-78105000D01*
X123190000Y-79375000D02*
X123190000Y-84455000D01*
X121920000Y-78105000D02*
X123190000Y-79375000D01*
X121920000Y-78105000D02*
X121920000Y-78105000D01*
X123190000Y-84455000D02*
X123444000Y-84709000D01*
D38*
G36*
X153276300Y-90315657D02*
X153176834Y-90074931D01*
X152498639Y-89395551D01*
X151612081Y-89027420D01*
X150652130Y-89026583D01*
X149764931Y-89393166D01*
X149085551Y-90071361D01*
X148717420Y-90957919D01*
X148716583Y-91917870D01*
X149083166Y-92805069D01*
X149761361Y-93484449D01*
X150647919Y-93852580D01*
X151607870Y-93853417D01*
X152495069Y-93486834D01*
X153174449Y-92808639D01*
X153276300Y-92563355D01*
X153276300Y-105651300D01*
X128397000Y-105651300D01*
X128397000Y-105473500D01*
X137795000Y-105473500D01*
X138062305Y-105420330D01*
X138288914Y-105268914D01*
X139335886Y-104221942D01*
X139700000Y-104294369D01*
X140137407Y-104207363D01*
X140508223Y-103959592D01*
X140755994Y-103588776D01*
X140843000Y-103151369D01*
X140843000Y-102588631D01*
X141097000Y-102588631D01*
X141097000Y-103151369D01*
X141184006Y-103588776D01*
X141431777Y-103959592D01*
X141802593Y-104207363D01*
X142240000Y-104294369D01*
X142677407Y-104207363D01*
X143048223Y-103959592D01*
X143295994Y-103588776D01*
X143383000Y-103151369D01*
X143383000Y-102588631D01*
X143637000Y-102588631D01*
X143637000Y-103151369D01*
X143724006Y-103588776D01*
X143971777Y-103959592D01*
X144342593Y-104207363D01*
X144780000Y-104294369D01*
X145217407Y-104207363D01*
X145588223Y-103959592D01*
X145835994Y-103588776D01*
X145923000Y-103151369D01*
X145923000Y-102588631D01*
X146177000Y-102588631D01*
X146177000Y-103151369D01*
X146264006Y-103588776D01*
X146511777Y-103959592D01*
X146882593Y-104207363D01*
X147320000Y-104294369D01*
X147757407Y-104207363D01*
X148128223Y-103959592D01*
X148375994Y-103588776D01*
X148463000Y-103151369D01*
X148463000Y-102588631D01*
X148375994Y-102151224D01*
X148128223Y-101780408D01*
X147757407Y-101532637D01*
X147320000Y-101445631D01*
X146882593Y-101532637D01*
X146511777Y-101780408D01*
X146264006Y-102151224D01*
X146177000Y-102588631D01*
X145923000Y-102588631D01*
X145835994Y-102151224D01*
X145588223Y-101780408D01*
X145217407Y-101532637D01*
X144780000Y-101445631D01*
X144342593Y-101532637D01*
X143971777Y-101780408D01*
X143724006Y-102151224D01*
X143637000Y-102588631D01*
X143383000Y-102588631D01*
X143295994Y-102151224D01*
X143048223Y-101780408D01*
X142677407Y-101532637D01*
X142240000Y-101445631D01*
X141802593Y-101532637D01*
X141431777Y-101780408D01*
X141184006Y-102151224D01*
X141097000Y-102588631D01*
X140843000Y-102588631D01*
X140755994Y-102151224D01*
X140508223Y-101780408D01*
X140137407Y-101532637D01*
X139700000Y-101445631D01*
X139262593Y-101532637D01*
X138891777Y-101780408D01*
X138644006Y-102151224D01*
X138557000Y-102588631D01*
X138557000Y-103025172D01*
X138271266Y-103310906D01*
X138303000Y-103151369D01*
X138303000Y-102588631D01*
X138215994Y-102151224D01*
X137968223Y-101780408D01*
X137597407Y-101532637D01*
X137160000Y-101445631D01*
X136795886Y-101518058D01*
X131938914Y-96661086D01*
X131831157Y-96589085D01*
X131831605Y-96588996D01*
X132078815Y-96423815D01*
X132404166Y-96098464D01*
X133565000Y-96098464D01*
X133706190Y-96071897D01*
X133835865Y-95988454D01*
X133922859Y-95861134D01*
X133953464Y-95710000D01*
X133953464Y-95002427D01*
X133985000Y-95008700D01*
X137795000Y-95008700D01*
X137945662Y-94978731D01*
X138073388Y-94893388D01*
X138158731Y-94765662D01*
X138160916Y-94754677D01*
X138160916Y-95620840D01*
X138187483Y-95762030D01*
X138270926Y-95891705D01*
X138398246Y-95978699D01*
X138549380Y-96009304D01*
X140850620Y-96009304D01*
X140991810Y-95982737D01*
X141121485Y-95899294D01*
X141208479Y-95771974D01*
X141239084Y-95620840D01*
X141239084Y-95514160D01*
X141241536Y-95514160D01*
X141241536Y-96495000D01*
X141268103Y-96636190D01*
X141351546Y-96765865D01*
X141478866Y-96852859D01*
X141630000Y-96883464D01*
X143830000Y-96883464D01*
X143971190Y-96856897D01*
X144100865Y-96773454D01*
X144187859Y-96646134D01*
X144218464Y-96495000D01*
X144218464Y-90195000D01*
X144191897Y-90053810D01*
X144108454Y-89924135D01*
X143981134Y-89837141D01*
X143830000Y-89806536D01*
X141630000Y-89806536D01*
X141488810Y-89833103D01*
X141359135Y-89916546D01*
X141272141Y-90043866D01*
X141241536Y-90195000D01*
X141241536Y-90455958D01*
X140920000Y-90392000D01*
X140860732Y-90392000D01*
X140778454Y-90264135D01*
X140651134Y-90177141D01*
X140500000Y-90146536D01*
X139299364Y-90146536D01*
X138658914Y-89506086D01*
X138432305Y-89354670D01*
X138165000Y-89301500D01*
X137509324Y-89301500D01*
X137443454Y-89199135D01*
X137316134Y-89112141D01*
X137165000Y-89081536D01*
X136515000Y-89081536D01*
X136373810Y-89108103D01*
X136366813Y-89112605D01*
X136366134Y-89112141D01*
X136215000Y-89081536D01*
X135565000Y-89081536D01*
X135423810Y-89108103D01*
X135416813Y-89112605D01*
X135416134Y-89112141D01*
X135265000Y-89081536D01*
X134615000Y-89081536D01*
X134473810Y-89108103D01*
X134344135Y-89191546D01*
X134257141Y-89318866D01*
X134226536Y-89470000D01*
X134226536Y-89725636D01*
X133953464Y-89998708D01*
X133953464Y-89710000D01*
X133926897Y-89568810D01*
X133905825Y-89536064D01*
X133922859Y-89511134D01*
X133953464Y-89360000D01*
X133953464Y-88498500D01*
X134270676Y-88498500D01*
X134336546Y-88600865D01*
X134463866Y-88687859D01*
X134615000Y-88718464D01*
X135265000Y-88718464D01*
X135406190Y-88691897D01*
X135535865Y-88608454D01*
X135622859Y-88481134D01*
X135653464Y-88330000D01*
X135653464Y-87270000D01*
X136126536Y-87270000D01*
X136126536Y-88330000D01*
X136153103Y-88471190D01*
X136236546Y-88600865D01*
X136363866Y-88687859D01*
X136515000Y-88718464D01*
X137165000Y-88718464D01*
X137306190Y-88691897D01*
X137435865Y-88608454D01*
X137510993Y-88498500D01*
X138511536Y-88498500D01*
X138511536Y-88535000D01*
X138538103Y-88676190D01*
X138621546Y-88805865D01*
X138748866Y-88892859D01*
X138900000Y-88923464D01*
X140500000Y-88923464D01*
X140641190Y-88896897D01*
X140770865Y-88813454D01*
X140857859Y-88686134D01*
X140859506Y-88678000D01*
X140993016Y-88678000D01*
X140993016Y-88780620D01*
X141019583Y-88921810D01*
X141103026Y-89051485D01*
X141230346Y-89138479D01*
X141381480Y-89169084D01*
X143880840Y-89169084D01*
X144022030Y-89142517D01*
X144151705Y-89059074D01*
X144238699Y-88931754D01*
X144269304Y-88780620D01*
X144269304Y-86479380D01*
X144242737Y-86338190D01*
X144159294Y-86208515D01*
X144031974Y-86121521D01*
X143880840Y-86090916D01*
X141381480Y-86090916D01*
X141240290Y-86117483D01*
X141110615Y-86200926D01*
X141023621Y-86328246D01*
X141010711Y-86392000D01*
X140860732Y-86392000D01*
X140778454Y-86264135D01*
X140651134Y-86177141D01*
X140500000Y-86146536D01*
X138900000Y-86146536D01*
X138758810Y-86173103D01*
X138629135Y-86256546D01*
X138542141Y-86383866D01*
X138511536Y-86535000D01*
X138511536Y-87101500D01*
X137509324Y-87101500D01*
X137443454Y-86999135D01*
X137316134Y-86912141D01*
X137165000Y-86881536D01*
X136515000Y-86881536D01*
X136373810Y-86908103D01*
X136244135Y-86991546D01*
X136157141Y-87118866D01*
X136126536Y-87270000D01*
X135653464Y-87270000D01*
X135638500Y-87190474D01*
X135638500Y-85693464D01*
X136160000Y-85693464D01*
X136301190Y-85666897D01*
X136430865Y-85583454D01*
X136517859Y-85456134D01*
X136548464Y-85305000D01*
X136548464Y-83605000D01*
X136521897Y-83463810D01*
X136438454Y-83334135D01*
X136357212Y-83278625D01*
X136525000Y-83312000D01*
X137581536Y-83312000D01*
X137581536Y-83350000D01*
X137608103Y-83491190D01*
X137691546Y-83620865D01*
X137771536Y-83675520D01*
X137771536Y-85305000D01*
X137798103Y-85446190D01*
X137881546Y-85575865D01*
X138008866Y-85662859D01*
X138160000Y-85693464D01*
X140160000Y-85693464D01*
X140301190Y-85666897D01*
X140408260Y-85598000D01*
X145576554Y-85598000D01*
X145785840Y-85807286D01*
X145785840Y-86090916D01*
X145679160Y-86090916D01*
X145537970Y-86117483D01*
X145408295Y-86200926D01*
X145321301Y-86328246D01*
X145290696Y-86479380D01*
X145290696Y-88780620D01*
X145317263Y-88921810D01*
X145400706Y-89051485D01*
X145528026Y-89138479D01*
X145679160Y-89169084D01*
X145785840Y-89169084D01*
X145785840Y-89806536D01*
X145730000Y-89806536D01*
X145588810Y-89833103D01*
X145459135Y-89916546D01*
X145372141Y-90043866D01*
X145341536Y-90195000D01*
X145341536Y-96495000D01*
X145368103Y-96636190D01*
X145451546Y-96765865D01*
X145578866Y-96852859D01*
X145730000Y-96883464D01*
X147930000Y-96883464D01*
X148071190Y-96856897D01*
X148200865Y-96773454D01*
X148287859Y-96646134D01*
X148318464Y-96495000D01*
X148318464Y-90195000D01*
X148291897Y-90053810D01*
X148208454Y-89924135D01*
X148081134Y-89837141D01*
X148071840Y-89835259D01*
X148071840Y-89169084D01*
X148178520Y-89169084D01*
X148319710Y-89142517D01*
X148449385Y-89059074D01*
X148536379Y-88931754D01*
X148566984Y-88780620D01*
X148566984Y-86479380D01*
X148540417Y-86338190D01*
X148456974Y-86208515D01*
X148329654Y-86121521D01*
X148178520Y-86090916D01*
X148071840Y-86090916D01*
X148071840Y-85333840D01*
X147984834Y-84896433D01*
X147737063Y-84525617D01*
X146858223Y-83646777D01*
X146487407Y-83399006D01*
X146050000Y-83312000D01*
X140406058Y-83312000D01*
X140358464Y-83279480D01*
X140358464Y-81750000D01*
X140331897Y-81608810D01*
X140248454Y-81479135D01*
X140121134Y-81392141D01*
X140017648Y-81371185D01*
X140137407Y-81347363D01*
X140508223Y-81099592D01*
X140755994Y-80728776D01*
X140843000Y-80291369D01*
X140843000Y-79728631D01*
X141097000Y-79728631D01*
X141097000Y-80291369D01*
X141184006Y-80728776D01*
X141431777Y-81099592D01*
X141802593Y-81347363D01*
X142240000Y-81434369D01*
X142677407Y-81347363D01*
X143048223Y-81099592D01*
X143295994Y-80728776D01*
X143383000Y-80291369D01*
X143383000Y-79728631D01*
X143637000Y-79728631D01*
X143637000Y-80291369D01*
X143724006Y-80728776D01*
X143971777Y-81099592D01*
X144342593Y-81347363D01*
X144780000Y-81434369D01*
X145217407Y-81347363D01*
X145588223Y-81099592D01*
X145835994Y-80728776D01*
X145923000Y-80291369D01*
X145923000Y-79728631D01*
X146177000Y-79728631D01*
X146177000Y-80291369D01*
X146264006Y-80728776D01*
X146511777Y-81099592D01*
X146882593Y-81347363D01*
X147320000Y-81434369D01*
X147757407Y-81347363D01*
X148128223Y-81099592D01*
X148375994Y-80728776D01*
X148463000Y-80291369D01*
X148463000Y-79728631D01*
X148375994Y-79291224D01*
X148128223Y-78920408D01*
X147757407Y-78672637D01*
X147320000Y-78585631D01*
X146882593Y-78672637D01*
X146511777Y-78920408D01*
X146264006Y-79291224D01*
X146177000Y-79728631D01*
X145923000Y-79728631D01*
X145835994Y-79291224D01*
X145588223Y-78920408D01*
X145217407Y-78672637D01*
X144780000Y-78585631D01*
X144342593Y-78672637D01*
X143971777Y-78920408D01*
X143724006Y-79291224D01*
X143637000Y-79728631D01*
X143383000Y-79728631D01*
X143295994Y-79291224D01*
X143048223Y-78920408D01*
X142677407Y-78672637D01*
X142240000Y-78585631D01*
X141802593Y-78672637D01*
X141431777Y-78920408D01*
X141184006Y-79291224D01*
X141097000Y-79728631D01*
X140843000Y-79728631D01*
X140755994Y-79291224D01*
X140508223Y-78920408D01*
X140137407Y-78672637D01*
X139700000Y-78585631D01*
X139262593Y-78672637D01*
X138891777Y-78920408D01*
X138644006Y-79291224D01*
X138557000Y-79728631D01*
X138557000Y-80291369D01*
X138644006Y-80728776D01*
X138891777Y-81099592D01*
X139262593Y-81347363D01*
X139333845Y-81361536D01*
X137970000Y-81361536D01*
X137828810Y-81388103D01*
X137699135Y-81471546D01*
X137612141Y-81598866D01*
X137581536Y-81750000D01*
X137581536Y-81788000D01*
X136840631Y-81788000D01*
X136428815Y-81376185D01*
X136385680Y-81347363D01*
X136181605Y-81211004D01*
X135890000Y-81153000D01*
X135348292Y-81153000D01*
X135428223Y-81099592D01*
X135675994Y-80728776D01*
X135763000Y-80291369D01*
X135763000Y-79728631D01*
X136017000Y-79728631D01*
X136017000Y-80291369D01*
X136104006Y-80728776D01*
X136351777Y-81099592D01*
X136722593Y-81347363D01*
X137160000Y-81434369D01*
X137597407Y-81347363D01*
X137968223Y-81099592D01*
X138215994Y-80728776D01*
X138303000Y-80291369D01*
X138303000Y-79728631D01*
X138215994Y-79291224D01*
X137968223Y-78920408D01*
X137597407Y-78672637D01*
X137160000Y-78585631D01*
X136722593Y-78672637D01*
X136351777Y-78920408D01*
X136104006Y-79291224D01*
X136017000Y-79728631D01*
X135763000Y-79728631D01*
X135675994Y-79291224D01*
X135428223Y-78920408D01*
X135057407Y-78672637D01*
X134620000Y-78585631D01*
X134182593Y-78672637D01*
X133811777Y-78920408D01*
X133564006Y-79291224D01*
X133477000Y-79728631D01*
X133477000Y-80291369D01*
X133564006Y-80728776D01*
X133811777Y-81099592D01*
X133891708Y-81153000D01*
X131760630Y-81153000D01*
X130683000Y-80075370D01*
X130683000Y-79728631D01*
X130595994Y-79291224D01*
X130348223Y-78920408D01*
X129977407Y-78672637D01*
X129675636Y-78612611D01*
X128397000Y-77333974D01*
X128397000Y-76593700D01*
X153276300Y-76593700D01*
X153276300Y-90315657D01*
X153276300Y-90315657D01*
G37*
X153276300Y-90315657D02*
X153176834Y-90074931D01*
X152498639Y-89395551D01*
X151612081Y-89027420D01*
X150652130Y-89026583D01*
X149764931Y-89393166D01*
X149085551Y-90071361D01*
X148717420Y-90957919D01*
X148716583Y-91917870D01*
X149083166Y-92805069D01*
X149761361Y-93484449D01*
X150647919Y-93852580D01*
X151607870Y-93853417D01*
X152495069Y-93486834D01*
X153174449Y-92808639D01*
X153276300Y-92563355D01*
X153276300Y-105651300D01*
X128397000Y-105651300D01*
X128397000Y-105473500D01*
X137795000Y-105473500D01*
X138062305Y-105420330D01*
X138288914Y-105268914D01*
X139335886Y-104221942D01*
X139700000Y-104294369D01*
X140137407Y-104207363D01*
X140508223Y-103959592D01*
X140755994Y-103588776D01*
X140843000Y-103151369D01*
X140843000Y-102588631D01*
X141097000Y-102588631D01*
X141097000Y-103151369D01*
X141184006Y-103588776D01*
X141431777Y-103959592D01*
X141802593Y-104207363D01*
X142240000Y-104294369D01*
X142677407Y-104207363D01*
X143048223Y-103959592D01*
X143295994Y-103588776D01*
X143383000Y-103151369D01*
X143383000Y-102588631D01*
X143637000Y-102588631D01*
X143637000Y-103151369D01*
X143724006Y-103588776D01*
X143971777Y-103959592D01*
X144342593Y-104207363D01*
X144780000Y-104294369D01*
X145217407Y-104207363D01*
X145588223Y-103959592D01*
X145835994Y-103588776D01*
X145923000Y-103151369D01*
X145923000Y-102588631D01*
X146177000Y-102588631D01*
X146177000Y-103151369D01*
X146264006Y-103588776D01*
X146511777Y-103959592D01*
X146882593Y-104207363D01*
X147320000Y-104294369D01*
X147757407Y-104207363D01*
X148128223Y-103959592D01*
X148375994Y-103588776D01*
X148463000Y-103151369D01*
X148463000Y-102588631D01*
X148375994Y-102151224D01*
X148128223Y-101780408D01*
X147757407Y-101532637D01*
X147320000Y-101445631D01*
X146882593Y-101532637D01*
X146511777Y-101780408D01*
X146264006Y-102151224D01*
X146177000Y-102588631D01*
X145923000Y-102588631D01*
X145835994Y-102151224D01*
X145588223Y-101780408D01*
X145217407Y-101532637D01*
X144780000Y-101445631D01*
X144342593Y-101532637D01*
X143971777Y-101780408D01*
X143724006Y-102151224D01*
X143637000Y-102588631D01*
X143383000Y-102588631D01*
X143295994Y-102151224D01*
X143048223Y-101780408D01*
X142677407Y-101532637D01*
X142240000Y-101445631D01*
X141802593Y-101532637D01*
X141431777Y-101780408D01*
X141184006Y-102151224D01*
X141097000Y-102588631D01*
X140843000Y-102588631D01*
X140755994Y-102151224D01*
X140508223Y-101780408D01*
X140137407Y-101532637D01*
X139700000Y-101445631D01*
X139262593Y-101532637D01*
X138891777Y-101780408D01*
X138644006Y-102151224D01*
X138557000Y-102588631D01*
X138557000Y-103025172D01*
X138271266Y-103310906D01*
X138303000Y-103151369D01*
X138303000Y-102588631D01*
X138215994Y-102151224D01*
X137968223Y-101780408D01*
X137597407Y-101532637D01*
X137160000Y-101445631D01*
X136795886Y-101518058D01*
X131938914Y-96661086D01*
X131831157Y-96589085D01*
X131831605Y-96588996D01*
X132078815Y-96423815D01*
X132404166Y-96098464D01*
X133565000Y-96098464D01*
X133706190Y-96071897D01*
X133835865Y-95988454D01*
X133922859Y-95861134D01*
X133953464Y-95710000D01*
X133953464Y-95002427D01*
X133985000Y-95008700D01*
X137795000Y-95008700D01*
X137945662Y-94978731D01*
X138073388Y-94893388D01*
X138158731Y-94765662D01*
X138160916Y-94754677D01*
X138160916Y-95620840D01*
X138187483Y-95762030D01*
X138270926Y-95891705D01*
X138398246Y-95978699D01*
X138549380Y-96009304D01*
X140850620Y-96009304D01*
X140991810Y-95982737D01*
X141121485Y-95899294D01*
X141208479Y-95771974D01*
X141239084Y-95620840D01*
X141239084Y-95514160D01*
X141241536Y-95514160D01*
X141241536Y-96495000D01*
X141268103Y-96636190D01*
X141351546Y-96765865D01*
X141478866Y-96852859D01*
X141630000Y-96883464D01*
X143830000Y-96883464D01*
X143971190Y-96856897D01*
X144100865Y-96773454D01*
X144187859Y-96646134D01*
X144218464Y-96495000D01*
X144218464Y-90195000D01*
X144191897Y-90053810D01*
X144108454Y-89924135D01*
X143981134Y-89837141D01*
X143830000Y-89806536D01*
X141630000Y-89806536D01*
X141488810Y-89833103D01*
X141359135Y-89916546D01*
X141272141Y-90043866D01*
X141241536Y-90195000D01*
X141241536Y-90455958D01*
X140920000Y-90392000D01*
X140860732Y-90392000D01*
X140778454Y-90264135D01*
X140651134Y-90177141D01*
X140500000Y-90146536D01*
X139299364Y-90146536D01*
X138658914Y-89506086D01*
X138432305Y-89354670D01*
X138165000Y-89301500D01*
X137509324Y-89301500D01*
X137443454Y-89199135D01*
X137316134Y-89112141D01*
X137165000Y-89081536D01*
X136515000Y-89081536D01*
X136373810Y-89108103D01*
X136366813Y-89112605D01*
X136366134Y-89112141D01*
X136215000Y-89081536D01*
X135565000Y-89081536D01*
X135423810Y-89108103D01*
X135416813Y-89112605D01*
X135416134Y-89112141D01*
X135265000Y-89081536D01*
X134615000Y-89081536D01*
X134473810Y-89108103D01*
X134344135Y-89191546D01*
X134257141Y-89318866D01*
X134226536Y-89470000D01*
X134226536Y-89725636D01*
X133953464Y-89998708D01*
X133953464Y-89710000D01*
X133926897Y-89568810D01*
X133905825Y-89536064D01*
X133922859Y-89511134D01*
X133953464Y-89360000D01*
X133953464Y-88498500D01*
X134270676Y-88498500D01*
X134336546Y-88600865D01*
X134463866Y-88687859D01*
X134615000Y-88718464D01*
X135265000Y-88718464D01*
X135406190Y-88691897D01*
X135535865Y-88608454D01*
X135622859Y-88481134D01*
X135653464Y-88330000D01*
X135653464Y-87270000D01*
X136126536Y-87270000D01*
X136126536Y-88330000D01*
X136153103Y-88471190D01*
X136236546Y-88600865D01*
X136363866Y-88687859D01*
X136515000Y-88718464D01*
X137165000Y-88718464D01*
X137306190Y-88691897D01*
X137435865Y-88608454D01*
X137510993Y-88498500D01*
X138511536Y-88498500D01*
X138511536Y-88535000D01*
X138538103Y-88676190D01*
X138621546Y-88805865D01*
X138748866Y-88892859D01*
X138900000Y-88923464D01*
X140500000Y-88923464D01*
X140641190Y-88896897D01*
X140770865Y-88813454D01*
X140857859Y-88686134D01*
X140859506Y-88678000D01*
X140993016Y-88678000D01*
X140993016Y-88780620D01*
X141019583Y-88921810D01*
X141103026Y-89051485D01*
X141230346Y-89138479D01*
X141381480Y-89169084D01*
X143880840Y-89169084D01*
X144022030Y-89142517D01*
X144151705Y-89059074D01*
X144238699Y-88931754D01*
X144269304Y-88780620D01*
X144269304Y-86479380D01*
X144242737Y-86338190D01*
X144159294Y-86208515D01*
X144031974Y-86121521D01*
X143880840Y-86090916D01*
X141381480Y-86090916D01*
X141240290Y-86117483D01*
X141110615Y-86200926D01*
X141023621Y-86328246D01*
X141010711Y-86392000D01*
X140860732Y-86392000D01*
X140778454Y-86264135D01*
X140651134Y-86177141D01*
X140500000Y-86146536D01*
X138900000Y-86146536D01*
X138758810Y-86173103D01*
X138629135Y-86256546D01*
X138542141Y-86383866D01*
X138511536Y-86535000D01*
X138511536Y-87101500D01*
X137509324Y-87101500D01*
X137443454Y-86999135D01*
X137316134Y-86912141D01*
X137165000Y-86881536D01*
X136515000Y-86881536D01*
X136373810Y-86908103D01*
X136244135Y-86991546D01*
X136157141Y-87118866D01*
X136126536Y-87270000D01*
X135653464Y-87270000D01*
X135638500Y-87190474D01*
X135638500Y-85693464D01*
X136160000Y-85693464D01*
X136301190Y-85666897D01*
X136430865Y-85583454D01*
X136517859Y-85456134D01*
X136548464Y-85305000D01*
X136548464Y-83605000D01*
X136521897Y-83463810D01*
X136438454Y-83334135D01*
X136357212Y-83278625D01*
X136525000Y-83312000D01*
X137581536Y-83312000D01*
X137581536Y-83350000D01*
X137608103Y-83491190D01*
X137691546Y-83620865D01*
X137771536Y-83675520D01*
X137771536Y-85305000D01*
X137798103Y-85446190D01*
X137881546Y-85575865D01*
X138008866Y-85662859D01*
X138160000Y-85693464D01*
X140160000Y-85693464D01*
X140301190Y-85666897D01*
X140408260Y-85598000D01*
X145576554Y-85598000D01*
X145785840Y-85807286D01*
X145785840Y-86090916D01*
X145679160Y-86090916D01*
X145537970Y-86117483D01*
X145408295Y-86200926D01*
X145321301Y-86328246D01*
X145290696Y-86479380D01*
X145290696Y-88780620D01*
X145317263Y-88921810D01*
X145400706Y-89051485D01*
X145528026Y-89138479D01*
X145679160Y-89169084D01*
X145785840Y-89169084D01*
X145785840Y-89806536D01*
X145730000Y-89806536D01*
X145588810Y-89833103D01*
X145459135Y-89916546D01*
X145372141Y-90043866D01*
X145341536Y-90195000D01*
X145341536Y-96495000D01*
X145368103Y-96636190D01*
X145451546Y-96765865D01*
X145578866Y-96852859D01*
X145730000Y-96883464D01*
X147930000Y-96883464D01*
X148071190Y-96856897D01*
X148200865Y-96773454D01*
X148287859Y-96646134D01*
X148318464Y-96495000D01*
X148318464Y-90195000D01*
X148291897Y-90053810D01*
X148208454Y-89924135D01*
X148081134Y-89837141D01*
X148071840Y-89835259D01*
X148071840Y-89169084D01*
X148178520Y-89169084D01*
X148319710Y-89142517D01*
X148449385Y-89059074D01*
X148536379Y-88931754D01*
X148566984Y-88780620D01*
X148566984Y-86479380D01*
X148540417Y-86338190D01*
X148456974Y-86208515D01*
X148329654Y-86121521D01*
X148178520Y-86090916D01*
X148071840Y-86090916D01*
X148071840Y-85333840D01*
X147984834Y-84896433D01*
X147737063Y-84525617D01*
X146858223Y-83646777D01*
X146487407Y-83399006D01*
X146050000Y-83312000D01*
X140406058Y-83312000D01*
X140358464Y-83279480D01*
X140358464Y-81750000D01*
X140331897Y-81608810D01*
X140248454Y-81479135D01*
X140121134Y-81392141D01*
X140017648Y-81371185D01*
X140137407Y-81347363D01*
X140508223Y-81099592D01*
X140755994Y-80728776D01*
X140843000Y-80291369D01*
X140843000Y-79728631D01*
X141097000Y-79728631D01*
X141097000Y-80291369D01*
X141184006Y-80728776D01*
X141431777Y-81099592D01*
X141802593Y-81347363D01*
X142240000Y-81434369D01*
X142677407Y-81347363D01*
X143048223Y-81099592D01*
X143295994Y-80728776D01*
X143383000Y-80291369D01*
X143383000Y-79728631D01*
X143637000Y-79728631D01*
X143637000Y-80291369D01*
X143724006Y-80728776D01*
X143971777Y-81099592D01*
X144342593Y-81347363D01*
X144780000Y-81434369D01*
X145217407Y-81347363D01*
X145588223Y-81099592D01*
X145835994Y-80728776D01*
X145923000Y-80291369D01*
X145923000Y-79728631D01*
X146177000Y-79728631D01*
X146177000Y-80291369D01*
X146264006Y-80728776D01*
X146511777Y-81099592D01*
X146882593Y-81347363D01*
X147320000Y-81434369D01*
X147757407Y-81347363D01*
X148128223Y-81099592D01*
X148375994Y-80728776D01*
X148463000Y-80291369D01*
X148463000Y-79728631D01*
X148375994Y-79291224D01*
X148128223Y-78920408D01*
X147757407Y-78672637D01*
X147320000Y-78585631D01*
X146882593Y-78672637D01*
X146511777Y-78920408D01*
X146264006Y-79291224D01*
X146177000Y-79728631D01*
X145923000Y-79728631D01*
X145835994Y-79291224D01*
X145588223Y-78920408D01*
X145217407Y-78672637D01*
X144780000Y-78585631D01*
X144342593Y-78672637D01*
X143971777Y-78920408D01*
X143724006Y-79291224D01*
X143637000Y-79728631D01*
X143383000Y-79728631D01*
X143295994Y-79291224D01*
X143048223Y-78920408D01*
X142677407Y-78672637D01*
X142240000Y-78585631D01*
X141802593Y-78672637D01*
X141431777Y-78920408D01*
X141184006Y-79291224D01*
X141097000Y-79728631D01*
X140843000Y-79728631D01*
X140755994Y-79291224D01*
X140508223Y-78920408D01*
X140137407Y-78672637D01*
X139700000Y-78585631D01*
X139262593Y-78672637D01*
X138891777Y-78920408D01*
X138644006Y-79291224D01*
X138557000Y-79728631D01*
X138557000Y-80291369D01*
X138644006Y-80728776D01*
X138891777Y-81099592D01*
X139262593Y-81347363D01*
X139333845Y-81361536D01*
X137970000Y-81361536D01*
X137828810Y-81388103D01*
X137699135Y-81471546D01*
X137612141Y-81598866D01*
X137581536Y-81750000D01*
X137581536Y-81788000D01*
X136840631Y-81788000D01*
X136428815Y-81376185D01*
X136385680Y-81347363D01*
X136181605Y-81211004D01*
X135890000Y-81153000D01*
X135348292Y-81153000D01*
X135428223Y-81099592D01*
X135675994Y-80728776D01*
X135763000Y-80291369D01*
X135763000Y-79728631D01*
X136017000Y-79728631D01*
X136017000Y-80291369D01*
X136104006Y-80728776D01*
X136351777Y-81099592D01*
X136722593Y-81347363D01*
X137160000Y-81434369D01*
X137597407Y-81347363D01*
X137968223Y-81099592D01*
X138215994Y-80728776D01*
X138303000Y-80291369D01*
X138303000Y-79728631D01*
X138215994Y-79291224D01*
X137968223Y-78920408D01*
X137597407Y-78672637D01*
X137160000Y-78585631D01*
X136722593Y-78672637D01*
X136351777Y-78920408D01*
X136104006Y-79291224D01*
X136017000Y-79728631D01*
X135763000Y-79728631D01*
X135675994Y-79291224D01*
X135428223Y-78920408D01*
X135057407Y-78672637D01*
X134620000Y-78585631D01*
X134182593Y-78672637D01*
X133811777Y-78920408D01*
X133564006Y-79291224D01*
X133477000Y-79728631D01*
X133477000Y-80291369D01*
X133564006Y-80728776D01*
X133811777Y-81099592D01*
X133891708Y-81153000D01*
X131760630Y-81153000D01*
X130683000Y-80075370D01*
X130683000Y-79728631D01*
X130595994Y-79291224D01*
X130348223Y-78920408D01*
X129977407Y-78672637D01*
X129675636Y-78612611D01*
X128397000Y-77333974D01*
X128397000Y-76593700D01*
X153276300Y-76593700D01*
X153276300Y-90315657D01*
G36*
X134779537Y-101477365D02*
X134620000Y-101445631D01*
X134182593Y-101532637D01*
X133811777Y-101780408D01*
X133564006Y-102151224D01*
X133477000Y-102588631D01*
X133477000Y-103151369D01*
X133564006Y-103588776D01*
X133811777Y-103959592D01*
X133986742Y-104076500D01*
X132713258Y-104076500D01*
X132888223Y-103959592D01*
X133135994Y-103588776D01*
X133223000Y-103151369D01*
X133223000Y-102588631D01*
X133135994Y-102151224D01*
X132888223Y-101780408D01*
X132517407Y-101532637D01*
X132080000Y-101445631D01*
X131642593Y-101532637D01*
X131271777Y-101780408D01*
X131024006Y-102151224D01*
X130937000Y-102588631D01*
X130937000Y-103151369D01*
X131024006Y-103588776D01*
X131271777Y-103959592D01*
X131446742Y-104076500D01*
X130173258Y-104076500D01*
X130348223Y-103959592D01*
X130595994Y-103588776D01*
X130683000Y-103151369D01*
X130683000Y-102588631D01*
X130595994Y-102151224D01*
X130348223Y-101780408D01*
X129977407Y-101532637D01*
X129540000Y-101445631D01*
X129102593Y-101532637D01*
X128731777Y-101780408D01*
X128484006Y-102151224D01*
X128397000Y-102588631D01*
X128397000Y-97853500D01*
X131155672Y-97853500D01*
X134779537Y-101477365D01*
X134779537Y-101477365D01*
G37*
X134779537Y-101477365D02*
X134620000Y-101445631D01*
X134182593Y-101532637D01*
X133811777Y-101780408D01*
X133564006Y-102151224D01*
X133477000Y-102588631D01*
X133477000Y-103151369D01*
X133564006Y-103588776D01*
X133811777Y-103959592D01*
X133986742Y-104076500D01*
X132713258Y-104076500D01*
X132888223Y-103959592D01*
X133135994Y-103588776D01*
X133223000Y-103151369D01*
X133223000Y-102588631D01*
X133135994Y-102151224D01*
X132888223Y-101780408D01*
X132517407Y-101532637D01*
X132080000Y-101445631D01*
X131642593Y-101532637D01*
X131271777Y-101780408D01*
X131024006Y-102151224D01*
X130937000Y-102588631D01*
X130937000Y-103151369D01*
X131024006Y-103588776D01*
X131271777Y-103959592D01*
X131446742Y-104076500D01*
X130173258Y-104076500D01*
X130348223Y-103959592D01*
X130595994Y-103588776D01*
X130683000Y-103151369D01*
X130683000Y-102588631D01*
X130595994Y-102151224D01*
X130348223Y-101780408D01*
X129977407Y-101532637D01*
X129540000Y-101445631D01*
X129102593Y-101532637D01*
X128731777Y-101780408D01*
X128484006Y-102151224D01*
X128397000Y-102588631D01*
X128397000Y-97853500D01*
X131155672Y-97853500D01*
X134779537Y-101477365D01*
G36*
X128484006Y-80728776D02*
X128731777Y-81099592D01*
X129102593Y-81347363D01*
X129540000Y-81434369D01*
X129829211Y-81376841D01*
X130906185Y-82453815D01*
X131153395Y-82618996D01*
X131445000Y-82677000D01*
X135574370Y-82677000D01*
X135986185Y-83088816D01*
X136134377Y-83187834D01*
X136184869Y-83221572D01*
X136160000Y-83216536D01*
X134160000Y-83216536D01*
X134018810Y-83243103D01*
X133889135Y-83326546D01*
X133802141Y-83453866D01*
X133771536Y-83605000D01*
X133771536Y-85305000D01*
X133798103Y-85446190D01*
X133881546Y-85575865D01*
X134008866Y-85662859D01*
X134160000Y-85693464D01*
X134241500Y-85693464D01*
X134241500Y-87101500D01*
X133851411Y-87101500D01*
X133843454Y-87089135D01*
X133716134Y-87002141D01*
X133565000Y-86971536D01*
X131865000Y-86971536D01*
X131723810Y-86998103D01*
X131594135Y-87081546D01*
X131507141Y-87208866D01*
X131476536Y-87360000D01*
X131476536Y-89360000D01*
X131503103Y-89501190D01*
X131524175Y-89533936D01*
X131507141Y-89558866D01*
X131476536Y-89710000D01*
X131476536Y-91710000D01*
X131503103Y-91851190D01*
X131586546Y-91980865D01*
X131713866Y-92067859D01*
X131865000Y-92098464D01*
X133565000Y-92098464D01*
X133574810Y-92096618D01*
X133371665Y-92299408D01*
X133282264Y-92514710D01*
X132475438Y-93321536D01*
X131865000Y-93321536D01*
X131723810Y-93348103D01*
X131594135Y-93431546D01*
X131507141Y-93558866D01*
X131476536Y-93710000D01*
X131476536Y-94870834D01*
X131224370Y-95123000D01*
X122618500Y-95123000D01*
X122618500Y-93969106D01*
X122988606Y-93599000D01*
X124968000Y-93599000D01*
X125017410Y-93588994D01*
X125059035Y-93560553D01*
X125086315Y-93518159D01*
X125095000Y-93472000D01*
X125095000Y-92202000D01*
X125084994Y-92152590D01*
X125056553Y-92110965D01*
X125014159Y-92083685D01*
X124968000Y-92075000D01*
X122047000Y-92075000D01*
X122047000Y-91059000D01*
X124968000Y-91059000D01*
X125017410Y-91048994D01*
X125059035Y-91020553D01*
X125086315Y-90978159D01*
X125095000Y-90932000D01*
X125095000Y-86614000D01*
X125084994Y-86564590D01*
X125056553Y-86522965D01*
X125014159Y-86495685D01*
X124968000Y-86487000D01*
X122618500Y-86487000D01*
X122618500Y-85471000D01*
X124968000Y-85471000D01*
X125017410Y-85460994D01*
X125059035Y-85432553D01*
X125086315Y-85390159D01*
X125095000Y-85344000D01*
X125095000Y-84455000D01*
X128270000Y-84455000D01*
X128319410Y-84444994D01*
X128361035Y-84416553D01*
X128388315Y-84374159D01*
X128397000Y-84328000D01*
X128397000Y-84299828D01*
X129476500Y-85379328D01*
X129476500Y-94028509D01*
X129451226Y-94089376D01*
X129450975Y-94377361D01*
X129560950Y-94643521D01*
X129764408Y-94847335D01*
X130030376Y-94957774D01*
X130318361Y-94958025D01*
X130584521Y-94848050D01*
X130788335Y-94644592D01*
X130898774Y-94378624D01*
X130899025Y-94090639D01*
X130873500Y-94028864D01*
X130873500Y-85090000D01*
X130820330Y-84822696D01*
X130668914Y-84596086D01*
X128397000Y-82324172D01*
X128397000Y-80291369D01*
X128484006Y-80728776D01*
X128484006Y-80728776D01*
G37*
X128484006Y-80728776D02*
X128731777Y-81099592D01*
X129102593Y-81347363D01*
X129540000Y-81434369D01*
X129829211Y-81376841D01*
X130906185Y-82453815D01*
X131153395Y-82618996D01*
X131445000Y-82677000D01*
X135574370Y-82677000D01*
X135986185Y-83088816D01*
X136134377Y-83187834D01*
X136184869Y-83221572D01*
X136160000Y-83216536D01*
X134160000Y-83216536D01*
X134018810Y-83243103D01*
X133889135Y-83326546D01*
X133802141Y-83453866D01*
X133771536Y-83605000D01*
X133771536Y-85305000D01*
X133798103Y-85446190D01*
X133881546Y-85575865D01*
X134008866Y-85662859D01*
X134160000Y-85693464D01*
X134241500Y-85693464D01*
X134241500Y-87101500D01*
X133851411Y-87101500D01*
X133843454Y-87089135D01*
X133716134Y-87002141D01*
X133565000Y-86971536D01*
X131865000Y-86971536D01*
X131723810Y-86998103D01*
X131594135Y-87081546D01*
X131507141Y-87208866D01*
X131476536Y-87360000D01*
X131476536Y-89360000D01*
X131503103Y-89501190D01*
X131524175Y-89533936D01*
X131507141Y-89558866D01*
X131476536Y-89710000D01*
X131476536Y-91710000D01*
X131503103Y-91851190D01*
X131586546Y-91980865D01*
X131713866Y-92067859D01*
X131865000Y-92098464D01*
X133565000Y-92098464D01*
X133574810Y-92096618D01*
X133371665Y-92299408D01*
X133282264Y-92514710D01*
X132475438Y-93321536D01*
X131865000Y-93321536D01*
X131723810Y-93348103D01*
X131594135Y-93431546D01*
X131507141Y-93558866D01*
X131476536Y-93710000D01*
X131476536Y-94870834D01*
X131224370Y-95123000D01*
X122618500Y-95123000D01*
X122618500Y-93969106D01*
X122988606Y-93599000D01*
X124968000Y-93599000D01*
X125017410Y-93588994D01*
X125059035Y-93560553D01*
X125086315Y-93518159D01*
X125095000Y-93472000D01*
X125095000Y-92202000D01*
X125084994Y-92152590D01*
X125056553Y-92110965D01*
X125014159Y-92083685D01*
X124968000Y-92075000D01*
X122047000Y-92075000D01*
X122047000Y-91059000D01*
X124968000Y-91059000D01*
X125017410Y-91048994D01*
X125059035Y-91020553D01*
X125086315Y-90978159D01*
X125095000Y-90932000D01*
X125095000Y-86614000D01*
X125084994Y-86564590D01*
X125056553Y-86522965D01*
X125014159Y-86495685D01*
X124968000Y-86487000D01*
X122618500Y-86487000D01*
X122618500Y-85471000D01*
X124968000Y-85471000D01*
X125017410Y-85460994D01*
X125059035Y-85432553D01*
X125086315Y-85390159D01*
X125095000Y-85344000D01*
X125095000Y-84455000D01*
X128270000Y-84455000D01*
X128319410Y-84444994D01*
X128361035Y-84416553D01*
X128388315Y-84374159D01*
X128397000Y-84328000D01*
X128397000Y-84299828D01*
X129476500Y-85379328D01*
X129476500Y-94028509D01*
X129451226Y-94089376D01*
X129450975Y-94377361D01*
X129560950Y-94643521D01*
X129764408Y-94847335D01*
X130030376Y-94957774D01*
X130318361Y-94958025D01*
X130584521Y-94848050D01*
X130788335Y-94644592D01*
X130898774Y-94378624D01*
X130899025Y-94090639D01*
X130873500Y-94028864D01*
X130873500Y-85090000D01*
X130820330Y-84822696D01*
X130668914Y-84596086D01*
X128397000Y-82324172D01*
X128397000Y-80291369D01*
X128484006Y-80728776D01*
G36*
X106553000Y-94615000D02*
X106563006Y-94664410D01*
X106590197Y-94704803D01*
X108495197Y-96609803D01*
X108537211Y-96637666D01*
X108585000Y-96647000D01*
X114173000Y-96647000D01*
X114173000Y-105651300D01*
X99187000Y-105651300D01*
X99187000Y-103505000D01*
X107047190Y-103505000D01*
X107209407Y-104320521D01*
X107671363Y-105011887D01*
X108362729Y-105473843D01*
X109178250Y-105636060D01*
X109261750Y-105636060D01*
X110077271Y-105473843D01*
X110768637Y-105011887D01*
X111230593Y-104320521D01*
X111392810Y-103505000D01*
X111230593Y-102689479D01*
X110768637Y-101998113D01*
X110077271Y-101536157D01*
X109261750Y-101373940D01*
X109178250Y-101373940D01*
X108362729Y-101536157D01*
X107671363Y-101998113D01*
X107209407Y-102689479D01*
X107047190Y-103505000D01*
X99187000Y-103505000D01*
X99187000Y-99060000D01*
X102949727Y-99060000D01*
X103133406Y-99983415D01*
X103656478Y-100766249D01*
X104439312Y-101289321D01*
X105362727Y-101473000D01*
X105457273Y-101473000D01*
X106380688Y-101289321D01*
X107163522Y-100766249D01*
X107686594Y-99983415D01*
X107870273Y-99060000D01*
X107686594Y-98136585D01*
X107163522Y-97353751D01*
X106380688Y-96830679D01*
X105457273Y-96647000D01*
X105362727Y-96647000D01*
X104439312Y-96830679D01*
X103656478Y-97353751D01*
X103133406Y-98136585D01*
X102949727Y-99060000D01*
X99187000Y-99060000D01*
X99187000Y-95937606D01*
X101597427Y-93527179D01*
X101695069Y-93486834D01*
X102374449Y-92808639D01*
X102742580Y-91922081D01*
X102743417Y-90962130D01*
X102376834Y-90074931D01*
X102362000Y-90060071D01*
X102362000Y-81332606D01*
X103594803Y-80099803D01*
X103622666Y-80057789D01*
X103632000Y-80010000D01*
X103632000Y-77597000D01*
X106553000Y-77597000D01*
X106553000Y-94615000D01*
X106553000Y-94615000D01*
G37*
X106553000Y-94615000D02*
X106563006Y-94664410D01*
X106590197Y-94704803D01*
X108495197Y-96609803D01*
X108537211Y-96637666D01*
X108585000Y-96647000D01*
X114173000Y-96647000D01*
X114173000Y-105651300D01*
X99187000Y-105651300D01*
X99187000Y-103505000D01*
X107047190Y-103505000D01*
X107209407Y-104320521D01*
X107671363Y-105011887D01*
X108362729Y-105473843D01*
X109178250Y-105636060D01*
X109261750Y-105636060D01*
X110077271Y-105473843D01*
X110768637Y-105011887D01*
X111230593Y-104320521D01*
X111392810Y-103505000D01*
X111230593Y-102689479D01*
X110768637Y-101998113D01*
X110077271Y-101536157D01*
X109261750Y-101373940D01*
X109178250Y-101373940D01*
X108362729Y-101536157D01*
X107671363Y-101998113D01*
X107209407Y-102689479D01*
X107047190Y-103505000D01*
X99187000Y-103505000D01*
X99187000Y-99060000D01*
X102949727Y-99060000D01*
X103133406Y-99983415D01*
X103656478Y-100766249D01*
X104439312Y-101289321D01*
X105362727Y-101473000D01*
X105457273Y-101473000D01*
X106380688Y-101289321D01*
X107163522Y-100766249D01*
X107686594Y-99983415D01*
X107870273Y-99060000D01*
X107686594Y-98136585D01*
X107163522Y-97353751D01*
X106380688Y-96830679D01*
X105457273Y-96647000D01*
X105362727Y-96647000D01*
X104439312Y-96830679D01*
X103656478Y-97353751D01*
X103133406Y-98136585D01*
X102949727Y-99060000D01*
X99187000Y-99060000D01*
X99187000Y-95937606D01*
X101597427Y-93527179D01*
X101695069Y-93486834D01*
X102374449Y-92808639D01*
X102742580Y-91922081D01*
X102743417Y-90962130D01*
X102376834Y-90074931D01*
X102362000Y-90060071D01*
X102362000Y-81332606D01*
X103594803Y-80099803D01*
X103622666Y-80057789D01*
X103632000Y-80010000D01*
X103632000Y-77597000D01*
X106553000Y-77597000D01*
X106553000Y-94615000D01*
G36*
X109093000Y-92456000D02*
X109103006Y-92505410D01*
X109130197Y-92545803D01*
X110146197Y-93561803D01*
X110188211Y-93589666D01*
X110236000Y-93599000D01*
X115570000Y-93599000D01*
X115619410Y-93588994D01*
X115659803Y-93561803D01*
X116892606Y-92329000D01*
X118681500Y-92329000D01*
X118681500Y-94325672D01*
X117616086Y-95391086D01*
X117464670Y-95617695D01*
X117464670Y-95617696D01*
X117411500Y-95885000D01*
X117411500Y-96139000D01*
X108764606Y-96139000D01*
X107061000Y-94435394D01*
X107061000Y-77597000D01*
X109093000Y-77597000D01*
X109093000Y-92456000D01*
X109093000Y-92456000D01*
G37*
X109093000Y-92456000D02*
X109103006Y-92505410D01*
X109130197Y-92545803D01*
X110146197Y-93561803D01*
X110188211Y-93589666D01*
X110236000Y-93599000D01*
X115570000Y-93599000D01*
X115619410Y-93588994D01*
X115659803Y-93561803D01*
X116892606Y-92329000D01*
X118681500Y-92329000D01*
X118681500Y-94325672D01*
X117616086Y-95391086D01*
X117464670Y-95617695D01*
X117464670Y-95617696D01*
X117411500Y-95885000D01*
X117411500Y-96139000D01*
X108764606Y-96139000D01*
X107061000Y-94435394D01*
X107061000Y-77597000D01*
X109093000Y-77597000D01*
X109093000Y-92456000D01*
G36*
X111633000Y-90170000D02*
X111643006Y-90219410D01*
X111670197Y-90259803D01*
X112178197Y-90767803D01*
X112220211Y-90795666D01*
X112268000Y-90805000D01*
X114808000Y-90805000D01*
X114857410Y-90794994D01*
X114897803Y-90767803D01*
X115876606Y-89789000D01*
X118745000Y-89789000D01*
X118745000Y-90522235D01*
X118734670Y-90537695D01*
X118734670Y-90537696D01*
X118681500Y-90805000D01*
X118681500Y-91821000D01*
X116586000Y-91821000D01*
X116536590Y-91831006D01*
X116496197Y-91858197D01*
X115263394Y-93091000D01*
X110542606Y-93091000D01*
X109601000Y-92149394D01*
X109601000Y-77597000D01*
X111633000Y-77597000D01*
X111633000Y-90170000D01*
X111633000Y-90170000D01*
G37*
X111633000Y-90170000D02*
X111643006Y-90219410D01*
X111670197Y-90259803D01*
X112178197Y-90767803D01*
X112220211Y-90795666D01*
X112268000Y-90805000D01*
X114808000Y-90805000D01*
X114857410Y-90794994D01*
X114897803Y-90767803D01*
X115876606Y-89789000D01*
X118745000Y-89789000D01*
X118745000Y-90522235D01*
X118734670Y-90537695D01*
X118734670Y-90537696D01*
X118681500Y-90805000D01*
X118681500Y-91821000D01*
X116586000Y-91821000D01*
X116536590Y-91831006D01*
X116496197Y-91858197D01*
X115263394Y-93091000D01*
X110542606Y-93091000D01*
X109601000Y-92149394D01*
X109601000Y-77597000D01*
X111633000Y-77597000D01*
X111633000Y-90170000D01*
G36*
X115016536Y-77604142D02*
X115016536Y-79010000D01*
X115043103Y-79151190D01*
X115126546Y-79280865D01*
X115253866Y-79367859D01*
X115405000Y-79398464D01*
X116205000Y-79398464D01*
X116205000Y-80621536D01*
X115405000Y-80621536D01*
X115263810Y-80648103D01*
X115134135Y-80731546D01*
X115047141Y-80858866D01*
X115016536Y-81010000D01*
X115016536Y-83010000D01*
X115043103Y-83151190D01*
X115126546Y-83280865D01*
X115253866Y-83367859D01*
X115405000Y-83398464D01*
X116205000Y-83398464D01*
X116205000Y-83820000D01*
X116215006Y-83869410D01*
X116242197Y-83909803D01*
X116496197Y-84163803D01*
X116538211Y-84191666D01*
X116586000Y-84201000D01*
X118745000Y-84201000D01*
X118745000Y-86487000D01*
X116840000Y-86487000D01*
X116790590Y-86497006D01*
X116750197Y-86524197D01*
X116496197Y-86778197D01*
X116468334Y-86820211D01*
X116459000Y-86868000D01*
X116459000Y-88339394D01*
X114501394Y-90297000D01*
X112574606Y-90297000D01*
X112141000Y-89863394D01*
X112141000Y-77597000D01*
X115009394Y-77597000D01*
X115016536Y-77604142D01*
X115016536Y-77604142D01*
G37*
X115016536Y-77604142D02*
X115016536Y-79010000D01*
X115043103Y-79151190D01*
X115126546Y-79280865D01*
X115253866Y-79367859D01*
X115405000Y-79398464D01*
X116205000Y-79398464D01*
X116205000Y-80621536D01*
X115405000Y-80621536D01*
X115263810Y-80648103D01*
X115134135Y-80731546D01*
X115047141Y-80858866D01*
X115016536Y-81010000D01*
X115016536Y-83010000D01*
X115043103Y-83151190D01*
X115126546Y-83280865D01*
X115253866Y-83367859D01*
X115405000Y-83398464D01*
X116205000Y-83398464D01*
X116205000Y-83820000D01*
X116215006Y-83869410D01*
X116242197Y-83909803D01*
X116496197Y-84163803D01*
X116538211Y-84191666D01*
X116586000Y-84201000D01*
X118745000Y-84201000D01*
X118745000Y-86487000D01*
X116840000Y-86487000D01*
X116790590Y-86497006D01*
X116750197Y-86524197D01*
X116496197Y-86778197D01*
X116468334Y-86820211D01*
X116459000Y-86868000D01*
X116459000Y-88339394D01*
X114501394Y-90297000D01*
X112574606Y-90297000D01*
X112141000Y-89863394D01*
X112141000Y-77597000D01*
X115009394Y-77597000D01*
X115016536Y-77604142D01*
M02*
