G04 #@! TF.FileFunction,Copper,L2,Bot,Signal*
%FSLAX46Y46*%
G04 Gerber Fmt 4.6, Leading zero omitted, Abs format (unit mm)*
G04 Created by KiCad (PCBNEW 4.0.2-stable) date 3/9/2016 7:51:43 PM*
%MOMM*%
G01*
G04 APERTURE LIST*
%ADD10C,0.100000*%
%ADD11R,2.032000X1.727200*%
%ADD12O,2.032000X1.727200*%
%ADD13C,0.685800*%
%ADD14C,0.254000*%
G04 APERTURE END LIST*
D10*
D11*
X139446000Y-100584000D03*
D12*
X139446000Y-103124000D03*
X139446000Y-105664000D03*
X139446000Y-108204000D03*
D13*
X143764000Y-99822000D03*
D14*
G36*
X152706000Y-110288000D02*
X137362000Y-110288000D01*
X137362000Y-108204000D01*
X138021631Y-108204000D01*
X138116371Y-108680288D01*
X138386166Y-109084065D01*
X138789943Y-109353860D01*
X139266231Y-109448600D01*
X139625769Y-109448600D01*
X140102057Y-109353860D01*
X140505834Y-109084065D01*
X140775629Y-108680288D01*
X140870369Y-108204000D01*
X140775629Y-107727712D01*
X140505834Y-107323935D01*
X140102057Y-107054140D01*
X139625769Y-106959400D01*
X139266231Y-106959400D01*
X138789943Y-107054140D01*
X138386166Y-107323935D01*
X138116371Y-107727712D01*
X138021631Y-108204000D01*
X137362000Y-108204000D01*
X137362000Y-103483026D01*
X137838642Y-103483026D01*
X137841291Y-103498791D01*
X138095268Y-104026036D01*
X138531680Y-104415954D01*
X138804243Y-104511296D01*
X138789943Y-104514140D01*
X138386166Y-104783935D01*
X138116371Y-105187712D01*
X138021631Y-105664000D01*
X138116371Y-106140288D01*
X138386166Y-106544065D01*
X138789943Y-106813860D01*
X139266231Y-106908600D01*
X139625769Y-106908600D01*
X140102057Y-106813860D01*
X140505834Y-106544065D01*
X140775629Y-106140288D01*
X140870369Y-105664000D01*
X140775629Y-105187712D01*
X140505834Y-104783935D01*
X140102057Y-104514140D01*
X140087757Y-104511296D01*
X140360320Y-104415954D01*
X140796732Y-104026036D01*
X141050709Y-103498791D01*
X141053358Y-103483026D01*
X140932217Y-103251000D01*
X139573000Y-103251000D01*
X139573000Y-103271000D01*
X139319000Y-103271000D01*
X139319000Y-103251000D01*
X137959783Y-103251000D01*
X137838642Y-103483026D01*
X137362000Y-103483026D01*
X137362000Y-102764974D01*
X137838642Y-102764974D01*
X137959783Y-102997000D01*
X139319000Y-102997000D01*
X139319000Y-102977000D01*
X139573000Y-102977000D01*
X139573000Y-102997000D01*
X140932217Y-102997000D01*
X141053358Y-102764974D01*
X141050709Y-102749209D01*
X140796732Y-102221964D01*
X140364817Y-101836064D01*
X140462000Y-101836064D01*
X140603190Y-101809497D01*
X140732865Y-101726054D01*
X140819859Y-101598734D01*
X140850464Y-101447600D01*
X140850464Y-99720400D01*
X140823897Y-99579210D01*
X140740454Y-99449535D01*
X140613134Y-99362541D01*
X140462000Y-99331936D01*
X138430000Y-99331936D01*
X138288810Y-99358503D01*
X138159135Y-99441946D01*
X138072141Y-99569266D01*
X138041536Y-99720400D01*
X138041536Y-101447600D01*
X138068103Y-101588790D01*
X138151546Y-101718465D01*
X138278866Y-101805459D01*
X138430000Y-101836064D01*
X138527183Y-101836064D01*
X138095268Y-102221964D01*
X137841291Y-102749209D01*
X137838642Y-102764974D01*
X137362000Y-102764974D01*
X137362000Y-98500000D01*
X152706000Y-98500000D01*
X152706000Y-110288000D01*
X152706000Y-110288000D01*
G37*
X152706000Y-110288000D02*
X137362000Y-110288000D01*
X137362000Y-108204000D01*
X138021631Y-108204000D01*
X138116371Y-108680288D01*
X138386166Y-109084065D01*
X138789943Y-109353860D01*
X139266231Y-109448600D01*
X139625769Y-109448600D01*
X140102057Y-109353860D01*
X140505834Y-109084065D01*
X140775629Y-108680288D01*
X140870369Y-108204000D01*
X140775629Y-107727712D01*
X140505834Y-107323935D01*
X140102057Y-107054140D01*
X139625769Y-106959400D01*
X139266231Y-106959400D01*
X138789943Y-107054140D01*
X138386166Y-107323935D01*
X138116371Y-107727712D01*
X138021631Y-108204000D01*
X137362000Y-108204000D01*
X137362000Y-103483026D01*
X137838642Y-103483026D01*
X137841291Y-103498791D01*
X138095268Y-104026036D01*
X138531680Y-104415954D01*
X138804243Y-104511296D01*
X138789943Y-104514140D01*
X138386166Y-104783935D01*
X138116371Y-105187712D01*
X138021631Y-105664000D01*
X138116371Y-106140288D01*
X138386166Y-106544065D01*
X138789943Y-106813860D01*
X139266231Y-106908600D01*
X139625769Y-106908600D01*
X140102057Y-106813860D01*
X140505834Y-106544065D01*
X140775629Y-106140288D01*
X140870369Y-105664000D01*
X140775629Y-105187712D01*
X140505834Y-104783935D01*
X140102057Y-104514140D01*
X140087757Y-104511296D01*
X140360320Y-104415954D01*
X140796732Y-104026036D01*
X141050709Y-103498791D01*
X141053358Y-103483026D01*
X140932217Y-103251000D01*
X139573000Y-103251000D01*
X139573000Y-103271000D01*
X139319000Y-103271000D01*
X139319000Y-103251000D01*
X137959783Y-103251000D01*
X137838642Y-103483026D01*
X137362000Y-103483026D01*
X137362000Y-102764974D01*
X137838642Y-102764974D01*
X137959783Y-102997000D01*
X139319000Y-102997000D01*
X139319000Y-102977000D01*
X139573000Y-102977000D01*
X139573000Y-102997000D01*
X140932217Y-102997000D01*
X141053358Y-102764974D01*
X141050709Y-102749209D01*
X140796732Y-102221964D01*
X140364817Y-101836064D01*
X140462000Y-101836064D01*
X140603190Y-101809497D01*
X140732865Y-101726054D01*
X140819859Y-101598734D01*
X140850464Y-101447600D01*
X140850464Y-99720400D01*
X140823897Y-99579210D01*
X140740454Y-99449535D01*
X140613134Y-99362541D01*
X140462000Y-99331936D01*
X138430000Y-99331936D01*
X138288810Y-99358503D01*
X138159135Y-99441946D01*
X138072141Y-99569266D01*
X138041536Y-99720400D01*
X138041536Y-101447600D01*
X138068103Y-101588790D01*
X138151546Y-101718465D01*
X138278866Y-101805459D01*
X138430000Y-101836064D01*
X138527183Y-101836064D01*
X138095268Y-102221964D01*
X137841291Y-102749209D01*
X137838642Y-102764974D01*
X137362000Y-102764974D01*
X137362000Y-98500000D01*
X152706000Y-98500000D01*
X152706000Y-110288000D01*
M02*
