G04 #@! TF.FileFunction,Copper,L1,Top,Signal*
%FSLAX46Y46*%
G04 Gerber Fmt 4.6, Leading zero omitted, Abs format (unit mm)*
G04 Created by KiCad (PCBNEW 4.0.2-stable) date 3/9/2016 7:51:43 PM*
%MOMM*%
G01*
G04 APERTURE LIST*
%ADD10C,0.100000*%
%ADD11R,1.600000X2.000000*%
%ADD12R,2.000000X1.600000*%
%ADD13R,2.032000X1.727200*%
%ADD14O,2.032000X1.727200*%
%ADD15O,0.800000X0.350000*%
%ADD16O,0.350000X0.800000*%
%ADD17R,1.350000X1.350000*%
%ADD18C,0.685800*%
%ADD19C,0.400000*%
%ADD20C,0.250000*%
G04 APERTURE END LIST*
D10*
D11*
X145034000Y-103410000D03*
X145034000Y-107410000D03*
D12*
X146590000Y-100330000D03*
X150590000Y-100330000D03*
D13*
X139446000Y-100584000D03*
D14*
X139446000Y-103124000D03*
X139446000Y-105664000D03*
X139446000Y-108204000D03*
D15*
X147860000Y-104689000D03*
X147860000Y-105339000D03*
X147860000Y-105989000D03*
X147860000Y-106639000D03*
D16*
X148885000Y-107664000D03*
X149535000Y-107664000D03*
X150185000Y-107664000D03*
X150835000Y-107664000D03*
D15*
X151860000Y-106639000D03*
X151860000Y-105989000D03*
X151860000Y-105339000D03*
X151860000Y-104689000D03*
D16*
X150835000Y-103664000D03*
X150185000Y-103664000D03*
X149535000Y-103664000D03*
X148885000Y-103664000D03*
D17*
X150535000Y-106339000D03*
X150535000Y-104989000D03*
X149185000Y-106339000D03*
X149185000Y-104989000D03*
D18*
X143764000Y-99822000D03*
D19*
X145034000Y-103410000D02*
X147098000Y-103410000D01*
X147352000Y-103664000D02*
X148885000Y-103664000D01*
X147098000Y-103410000D02*
X147352000Y-103664000D01*
X148885000Y-103664000D02*
X149535000Y-103664000D01*
X149535000Y-103664000D02*
X149535000Y-101385000D01*
X149535000Y-101385000D02*
X150590000Y-100330000D01*
X139446000Y-100584000D02*
X142208000Y-100584000D01*
X142208000Y-100584000D02*
X145034000Y-103410000D01*
X146590000Y-100330000D02*
X144272000Y-100330000D01*
X144272000Y-100330000D02*
X143764000Y-99822000D01*
X147860000Y-104689000D02*
X147860000Y-105339000D01*
X139446000Y-103124000D02*
X139446000Y-103378000D01*
X139446000Y-103378000D02*
X143478000Y-107410000D01*
X143478000Y-107410000D02*
X144558000Y-107410000D01*
X144558000Y-107410000D02*
X146629000Y-105339000D01*
X146629000Y-105339000D02*
X147860000Y-105339000D01*
X139446000Y-105664000D02*
X140208000Y-105664000D01*
X140208000Y-105664000D02*
X143671998Y-109127998D01*
X143671998Y-109127998D02*
X146142002Y-109127998D01*
X146142002Y-109127998D02*
X146812000Y-108458000D01*
X146812000Y-108458000D02*
X146812000Y-106426000D01*
X146812000Y-106426000D02*
X147249000Y-105989000D01*
X147249000Y-105989000D02*
X147860000Y-105989000D01*
X139446000Y-108204000D02*
X141732000Y-108204000D01*
X147860000Y-108426000D02*
X147860000Y-106639000D01*
X146558000Y-109728000D02*
X147860000Y-108426000D01*
X143256000Y-109728000D02*
X146558000Y-109728000D01*
X141732000Y-108204000D02*
X143256000Y-109728000D01*
D20*
X151860000Y-105989000D02*
X151860000Y-105339000D01*
M02*
