G04 #@! TF.FileFunction,Legend,Top*
%FSLAX46Y46*%
G04 Gerber Fmt 4.6, Leading zero omitted, Abs format (unit mm)*
G04 Created by KiCad (PCBNEW 4.0.2-stable) date 3/9/2016 7:51:43 PM*
%MOMM*%
G01*
G04 APERTURE LIST*
%ADD10C,0.100000*%
%ADD11C,0.150000*%
G04 APERTURE END LIST*
D10*
D11*
X146059000Y-106410000D02*
X146059000Y-104410000D01*
X144009000Y-104410000D02*
X144009000Y-106410000D01*
X149590000Y-99305000D02*
X147590000Y-99305000D01*
X147590000Y-101355000D02*
X149590000Y-101355000D01*
X138176000Y-101854000D02*
X138176000Y-109474000D01*
X140716000Y-101854000D02*
X140716000Y-109474000D01*
X140996000Y-99034000D02*
X140996000Y-100584000D01*
X138176000Y-109474000D02*
X140716000Y-109474000D01*
X140716000Y-101854000D02*
X138176000Y-101854000D01*
X137896000Y-100584000D02*
X137896000Y-99034000D01*
X137896000Y-99034000D02*
X140996000Y-99034000D01*
X152035000Y-103489000D02*
X152035000Y-104289000D01*
X147685000Y-107839000D02*
X147685000Y-107039000D01*
X152035000Y-107839000D02*
X152035000Y-107039000D01*
X147685000Y-103489000D02*
X148485000Y-103489000D01*
X147685000Y-107839000D02*
X148485000Y-107839000D01*
X152035000Y-107839000D02*
X151235000Y-107839000D01*
X152035000Y-103489000D02*
X151235000Y-103489000D01*
X147691143Y-105576666D02*
X147738762Y-105624285D01*
X147786381Y-105767142D01*
X147786381Y-105862380D01*
X147738762Y-106005238D01*
X147643524Y-106100476D01*
X147548286Y-106148095D01*
X147357810Y-106195714D01*
X147214952Y-106195714D01*
X147024476Y-106148095D01*
X146929238Y-106100476D01*
X146834000Y-106005238D01*
X146786381Y-105862380D01*
X146786381Y-105767142D01*
X146834000Y-105624285D01*
X146881619Y-105576666D01*
X147786381Y-104624285D02*
X147786381Y-105195714D01*
X147786381Y-104910000D02*
X146786381Y-104910000D01*
X146929238Y-105005238D01*
X147024476Y-105100476D01*
X147072095Y-105195714D01*
X149098095Y-101716381D02*
X149098095Y-102525905D01*
X149145714Y-102621143D01*
X149193333Y-102668762D01*
X149288571Y-102716381D01*
X149479048Y-102716381D01*
X149574286Y-102668762D01*
X149621905Y-102621143D01*
X149669524Y-102525905D01*
X149669524Y-101716381D01*
X150669524Y-102716381D02*
X150098095Y-102716381D01*
X150383809Y-102716381D02*
X150383809Y-101716381D01*
X150288571Y-101859238D01*
X150193333Y-101954476D01*
X150098095Y-102002095D01*
M02*
